<svg xmlns="http://www.w3.org/2000/svg" xmlns:xlink="http://www.w3.org/1999/xlink" xmlns:inkscape="http://www.inkscape.org/namespaces/inkscape" version="1.1" width="146" height="156" viewBox="0 0 146 156">
<defs>
<path id="font_1_1" d="M.1599884 .07795715C.1499939 .038986207 .147995 .0309906 .068984989 .0309906 .051986696 .0309906 .041992189 .0309906 .041992189 .010986328 .041992189 0 .050994874 0 .068984989 0H.42599488C.58399966 0 .70199587 .11791992 .70199587 .21585083 .70199587 .28778077 .6439972 .3457489 .5469971 .35673524 .651001 .37573243 .7559967 .44970704 .7559967 .5446625 .7559967 .6186218 .6899872 .6826172 .56999209 .6826172H.23399353C.21499634 .6826172 .20498657 .6826172 .20498657 .6626129 .20498657 .6516113 .21398926 .6516113 .23298645 .6516113 .23498535 .6516113 .2539978 .6516113 .2709961 .6496124 .2889862 .6476135 .2979889 .64660647 .2979889 .6336212 .2979889 .6296234 .29699708 .62661746 .2939911 .614624L.1599884 .07795715M.31098939 .36573792 .37298585 .6136322C.38198854 .64860537 .38398744 .6516113 .4269867 .6516113H.55599978C.6439972 .6516113 .6649933 .5926361 .6649933 .5486603 .6649933 .46069337 .57899478 .36573792 .45700074 .36573792H.31098939M.2659912 .0309906C.2519989 .0309906 .25 .0309906 .24398804 .03199768 .23399353 .032989503 .23098755 .033996583 .23098755 .04197693 .23098755 .04498291 .23098755 .04698181 .23599243 .064971927L.30499269 .34375H.49398805C.58999636 .34375 .60899356 .2698059 .60899356 .22683716 .60899356 .12791443 .519989 .0309906 .4019928 .0309906H.2659912Z"/>
<path id="font_1_2" d="M.9169922 .5666046C.94200137 .61061099 .96598818 .64660647 1.0289917 .6516113 1.0379944 .65260317 1.0479889 .65260317 1.0479889 .6716156 1.0479889 .6756134 1.0439911 .6826172 1.0359955 .6826172 1.0119934 .6826172 .98399356 .6796112 .95899966 .6796112 .9249878 .6796112 .8880005 .6826172 .8549957 .6826172 .848999 .6826172 .83599856 .6826172 .83599856 .66360476 .83599856 .65260317 .8450012 .6516113 .8509979 .6516113 .875 .65060427 .9099884 .64260867 .9099884 .61260989 .9099884 .6016083 .9049988 .5935974 .8969879 .5796051L.6269989 .108551029 .58999636 .604599C.58898928 .6246033 .58699038 .65060427 .6599884 .6516113 .6769867 .6516113 .68699648 .6516113 .68699648 .6716156 .68699648 .6816101 .6759949 .6826172 .6719971 .6826172 .6319885 .6826172 .58999636 .6796112 .5499878 .6796112 .5269928 .6796112 .46798707 .6826172 .44499208 .6826172 .43899537 .6826172 .42599488 .6826172 .42599488 .6626129 .42599488 .6516113 .43598939 .6516113 .44999696 .6516113 .49398805 .6516113 .5009918 .6456146 .5029907 .6266022L.5089874 .54959109 .2559967 .108551029 .21798706 .6156006C.21798706 .62760928 .21798706 .65060427 .2939911 .6516113 .3039856 .6516113 .31498719 .6516113 .31498719 .6716156 .31498719 .6826172 .30299378 .6826172 .30099488 .6826172 .26098634 .6826172 .21899414 .6796112 .17799378 .6796112 .14299011 .6796112 .10699463 .6826172 .07299805 .6826172 .067993167 .6826172 .054992677 .6826172 .054992677 .66360476 .054992677 .6516113 .06399536 .6516113 .07998657 .6516113 .12998963 .6516113 .1309967 .64260867 .1329956 .61460879L.17799378 .0035247803C.1789856-.014465332 .17999268-.022460938 .19400025-.022460938 .20599365-.022460938 .20899964-.016464234 .21798706-.0014648438L.5119934 .5085907 .548996 .0035247803C.5509949-.017471314 .5529938-.022460938 .5649872-.022460938 .5779877-.022460938 .58399966-.012466431 .58898928-.0034637452L.9169922 .5666046Z"/>
</defs>
<use data-text="B" xlink:href="#font_1_1" transform="matrix(9.9626,0,0,-9.962899,2.5859986,154.09926)"/>
<use data-text="W" xlink:href="#font_1_2" transform="matrix(9.9626,0,0,-9.962899,49.406,154.09926)"/>
<use data-text="W" xlink:href="#font_1_2" transform="matrix(9.9626,0,0,-9.962899,1.2180023,92.060398)"/>
<use data-text="W" xlink:href="#font_1_2" transform="matrix(9.9626,0,0,-9.962899,49.406,92.060398)"/>
<path transform="matrix(1,0,0,-1.00003,6.6139986,143.77095)" stroke-width=".3985" stroke-linecap="butt" stroke-miterlimit="10" stroke-linejoin="miter" fill="none" stroke="#000000" d="M0 0V48.18887H48.18887V0ZM48.18887 48.18887"/>
<use data-text="W" xlink:href="#font_1_2" transform="matrix(9.9626,0,0,-9.962899,85.548,154.09926)"/>
<use data-text="B" xlink:href="#font_1_1" transform="matrix(9.9626,0,0,-9.962899,135.105,154.09926)"/>
<use data-text="W" xlink:href="#font_1_2" transform="matrix(9.9626,0,0,-9.962899,85.548,92.060398)"/>
<use data-text="W" xlink:href="#font_1_2" transform="matrix(9.9626,0,0,-9.962899,133.737,92.060398)"/>
<path transform="matrix(1,0,0,-1.00003,6.6139986,143.77095)" stroke-width=".3985" stroke-linecap="butt" stroke-miterlimit="10" stroke-linejoin="miter" fill="none" stroke="#000000" d="M84.33057 0V48.18887H132.51947V0ZM132.51947 48.18887"/>
<use data-text="W" xlink:href="#font_1_2" transform="matrix(9.9626,0,0,-9.962899,1.2180023,69.76573)"/>
<use data-text="W" xlink:href="#font_1_2" transform="matrix(9.9626,0,0,-9.962899,49.406,69.76573)"/>
<use data-text="B" xlink:href="#font_1_1" transform="matrix(9.9626,0,0,-9.962899,2.5859986,7.7278597)"/>
<use data-text="W" xlink:href="#font_1_2" transform="matrix(9.9626,0,0,-9.962899,49.406,7.7278597)"/>
<path transform="matrix(1,0,0,-1.00003,6.6139986,143.77095)" stroke-width=".3985" stroke-linecap="butt" stroke-miterlimit="10" stroke-linejoin="miter" fill="none" stroke="#000000" d="M0 84.33057V132.51947H48.18887V84.33057ZM48.18887 132.51947"/>
<use data-text="W" xlink:href="#font_1_2" transform="matrix(9.9626,0,0,-9.962899,85.548,69.76573)"/>
<use data-text="W" xlink:href="#font_1_2" transform="matrix(9.9626,0,0,-9.962899,133.737,69.76573)"/>
<use data-text="W" xlink:href="#font_1_2" transform="matrix(9.9626,0,0,-9.962899,85.548,7.7278597)"/>
<use data-text="B" xlink:href="#font_1_1" transform="matrix(9.9626,0,0,-9.962899,135.105,7.7278597)"/>
<path transform="matrix(1,0,0,-1.00003,6.6139986,143.77095)" stroke-width=".3985" stroke-linecap="butt" stroke-miterlimit="10" stroke-linejoin="miter" fill="none" stroke="#000000" d="M84.33057 84.33057V132.51947H132.51947V84.33057ZM132.51947 132.51947"/>
</svg>
