<svg xmlns="http://www.w3.org/2000/svg" xmlns:xlink="http://www.w3.org/1999/xlink" xmlns:inkscape="http://www.inkscape.org/namespaces/inkscape" version="1.1" width="104" height="131" viewBox="0 0 104 131">
<defs>
<path id="font_1_2" d="M.2829895 .6169281C.2829895 .6569519 .30899049 .72099307 .41799928 .7279968 .4229889 .72898867 .4269867 .73298647 .4269867 .7389984 .4269867 .75 .4189911 .75 .4079895 .75 .30799867 .75 .21699524 .6989746 .21598816 .62493899V.3968048C.21598816 .3577881 .21598816 .32577516 .17599488 .29275514 .14099121 .2637329 .102996829 .261734 .08099365 .2607422 .07598877 .2597351 .07199097 .2557373 .07199097 .2497406 .07199097 .23973084 .07798767 .23973084 .08799744 .23873902 .1539917 .23474121 .20199585 .19876099 .21299744 .14978028 .21598816 .13879395 .21598816 .13679505 .21598816 .10081482V-.097076419C.21598816-.13905335 .21598816-.17103577 .2639923-.2090149 .30299378-.23901367 .36898805-.25 .4079895-.25 .4189911-.25 .4269867-.25 .4269867-.23901367 .4269867-.2290039 .42099-.2290039 .41099549-.22801209 .34799195-.22401428 .29899598-.19203186 .28599549-.14105225 .2829895-.13206482 .2829895-.13006592 .2829895-.09408569V.11579895C.2829895 .16177368 .2749939 .17877198 .24299622 .2107544 .22200012 .23173523 .19299317 .24172974 .16499329 .2497406 .24699402 .2727356 .2829895 .31877137 .2829895 .37680055V.6169281Z"/>
<path id="font_2_2" d="M.37298585 .37835694C.35499574 .41537477 .32598878 .4423828 .2809906 .4423828 .1639862 .4423828 .039993287 .29533387 .039993287 .14929199 .039993287 .055267335 .09498596-.0107421879 .17298889-.0107421879 .19299317-.0107421879 .24299622-.0067443849 .30299378 .06427002 .31098939 .022247315 .34599305-.0107421879 .3939972-.0107421879 .42900086-.0107421879 .45199586 .012252808 .46798707 .044265748 .4850006 .08027649 .49798585 .14129639 .49798585 .14329529 .49798585 .1532898 .4889984 .1532898 .48599244 .1532898 .47599793 .1532898 .47499085 .14929199 .47200013 .13528443 .45498658 .07026672 .43699647 .011245728 .3959961 .011245728 .36898805 .011245728 .3659973 .037261964 .3659973 .057266237 .3659973 .07926941 .36799623 .08728027 .3789978 .13128662 .3899994 .17329407 .3919983 .18330384 .40098573 .22131348L.43699647 .36135865C.44400025 .38935853 .44400025 .39135743 .44400025 .39537049 .44400025 .41236878 .43199159 .42237855 .4149933 .42237855 .3909912 .42237855 .37599183 .4003601 .37298585 .37835694M.30799867 .119277957C.30299378 .10127258 .30299378 .09927368 .28799439 .08227539 .24398804 .027252198 .20298767 .011245728 .1749878 .011245728 .125 .011245728 .11099243 .06626892 .11099243 .105285648 .11099243 .1552887 .14299011 .27833558 .1659851 .32434083 .19699097 .38336183 .24198914 .42037965 .28199769 .42037965 .34700013 .42037965 .36099244 .3383484 .36099244 .33235169 .36099244 .32633973 .35899354 .32034303 .35798646 .31533814L.30799867 .119277957Z"/>
<path id="font_2_1" d="M.20298767 .0009918213C.20298767 .066986087 .17799378 .10598755 .13899231 .10598755 .10598755 .10598755 .085998538 .08099365 .085998538 .052993776 .085998538 .025985718 .10598755 0 .13899231 0 .15098572 0 .1639862 .0039978029 .17399597 .0129852299 .1769867 .01499939 .17799378 .015991211 .1789856 .015991211 .17999268 .015991211 .18099976 .01499939 .18099976 .0009918213 .18099976-.07316589 .1459961-.13328552 .11299133-.16635132 .101989749-.17736817 .101989749-.17936707 .101989749-.18237305 .101989749-.18936157 .10699463-.19335938 .11199951-.19335938 .12298584-.19335938 .20298767-.116256717 .20298767 .0009918213Z"/>
<path id="font_2_3" d="M.23899842 .68333438C.23899842 .6843262 .23899842 .69433596 .22599793 .69433596 .20298767 .69433596 .12998963 .6863251 .10398865 .6843262 .09599304 .68333438 .084991458 .6823273 .084991458 .6643219 .084991458 .6523285 .09399414 .6523285 .10899353 .6523285 .15699768 .6523285 .15899658 .6453247 .15899658 .6353302 .15899658 .6283264 .1499939 .5943451 .14498902 .573349L.06298828 .24731446C.050994874 .1973114 .04699707 .18130493 .04699707 .14628601 .04699707 .05126953 .099990848-.0107421879 .17399597-.0107421879 .2919922-.0107421879 .4149933 .1382904 .4149933 .28233338 .4149933 .37335206 .3619995 .4423828 .28199769 .4423828 .23599243 .4423828 .19499207 .41337586 .16499329 .38235475L.23899842 .68333438M.14498902 .30534364C.15098572 .3273468 .15098572 .3293457 .1599884 .3403473 .20899964 .405365 .2539978 .42037965 .27999879 .42037965 .31599427 .42037965 .34298707 .3903656 .34298707 .32633973 .34298707 .26733399 .30999757 .15229798 .2919922 .11428833 .25898744 .04725647 .21299744 .011245728 .17399597 .011245728 .13999939 .011245728 .10699463 .038253786 .10699463 .11227417 .10699463 .13128662 .10699463 .15029907 .12298584 .21331787L.14498902 .30534364Z"/>
<path id="font_2_4" d="M.3959961 .37998963C.37998963 .37998963 .3659973 .37998963 .35198976 .36598207 .33599855 .35098268 .33399964 .33398438 .33399964 .3269806 .33399964 .30297853 .35198976 .2919922 .37098695 .2919922 .3999939 .2919922 .4269867 .315979 .4269867 .35598756 .4269867 .40522767 .37998963 .4423828 .30899049 .4423828 .17399597 .4423828 .040985109 .2989807 .040985109 .15811157 .040985109 .06819153 .09899902-.0107421879 .20298767-.0107421879 .34599305-.0107421879 .42999269 .09516907 .42999269 .107162479 .42999269 .11315918 .42399598 .120147708 .41799928 .120147708 .41299439 .120147708 .41099549 .1181488 .40499879 .1101532 .32598878 .011245728 .21699524 .011245728 .20498657 .011245728 .14199829 .011245728 .114990238 .06021118 .114990238 .120147708 .114990238 .1611023 .1349945 .25801087 .16899109 .31999208 .19999695 .37698365 .25498963 .42037965 .30999757 .42037965 .34399415 .42037965 .38198854 .40724183 .3959961 .37998963Z"/>
<path id="font_1_3" d="M.21598816-.11706543C.21598816-.15704346 .18998719-.2210083 .08099365-.22801209 .07598877-.2290039 .07199097-.23300171 .07199097-.23901367 .07199097-.25 .08299255-.25 .09199524-.25 .18899536-.25 .28199769-.20101929 .2829895-.12506104V.10282898C.2829895 .14179993 .2829895 .17378235 .32299806 .20677185 .35798646 .23576355 .3959961 .23776245 .41799928 .23875427 .4229889 .23976135 .4269867 .24375916 .4269867 .24975586 .4269867 .25976563 .42099 .25976563 .41099549 .26075746 .34498597 .26475526 .29699708 .30078126 .28599549 .34980775 .2829895 .36080934 .2829895 .36280824 .2829895 .39883424V.5969238C.2829895 .63894656 .2829895 .6709595 .23498535 .7089844 .19499207 .73999026 .12599182 .75 .09199524 .75 .08299255 .75 .07199097 .75 .07199097 .7389984 .07199097 .72898867 .07798767 .72898867 .08799744 .72798159 .15098572 .72398379 .19999695 .6919708 .21299744 .64094546 .21598816 .63194277 .21598816 .62994387 .21598816 .59391787V.38381959C.21598816 .33779908 .22399903 .32078553 .2559967 .28877259 .2769928 .26776124 .30599977 .25775147 .33399964 .24975586 .2519989 .22676087 .21598816 .18078614 .21598816 .12281799V-.11706543Z"/>
<path id="font_1_1" d="M.3880005 .7514801C.3880005 .7624817 .37998963 .7714844 .36799623 .7714844 .35299684 .7714844 .34999085 .7604828 .34399415 .7394409 .33198548 .6993561 .34199525 .7344208 .33099366 .6943512 .31900025 .7003479 .2869873 .7153473 .25 .7153473 .19299317 .7153473 .12799073 .6853485 .09098816 .6083679 .051986696 .5273895 .04699707 .43740846 .04699707 .34443666 .04699707 .28146363 .04699707 .101501468 .13398743 .023529053 .11099243-.053604127 .11099243-.055618287 .11099243-.058624269 .11099243-.069625858 .11898804-.07862854 .1309967-.07862854 .1459961-.07862854 .14898682-.068618778 .15499878-.046569826 .16699219-.0064697267 .15699768-.041549684 .16799927-.0014648438 .19198609-.014465332 .22200012-.022460938 .24899292-.022460938 .36099244-.022460938 .40499879 .071517948 .4229889 .119506839 .44898988 .18948365 .45199586 .27246095 .45199586 .34443666 .45199586 .4184265 .45199586 .5843811 .36499024 .6673584L.3880005 .7514801M.14698792 .06951904C.11399841 .13848877 .11399841 .26145936 .11399841 .35643006 .11399841 .43740846 .11399841 .50639346 .12799073 .57037356 .14698792 .6633606 .20498657 .6933594 .25 .6933594 .269989 .6933594 .29599 .6873474 .32199098 .6653595L.14698792 .06951904M.35198976 .6253662C.3849945 .5673828 .3849945 .45141603 .3849945 .35643006 .3849945 .28346253 .3849945 .20947266 .37298585 .14248657 .35499574 .037521364 .3019867-.00047302247 .24899292-.00047302247 .22599793-.00047302247 .20199585 .007522583 .17799378 .028518677L.35198976 .6253662Z"/>
</defs>
<use data-text="{" xlink:href="#font_1_2" transform="matrix(9.962899,0,0,-9.963197,35.534654,9.392784)"/>
<use data-text="a" xlink:href="#font_2_2" transform="matrix(9.962899,0,0,-9.963197,40.51581,9.392784)"/>
<use data-text="," xlink:href="#font_2_1" transform="matrix(9.962899,0,0,-9.963197,45.786195,9.392784)"/>
<use data-text="b" xlink:href="#font_2_3" transform="matrix(9.962899,0,0,-9.963197,50.209718,9.392784)"/>
<use data-text="," xlink:href="#font_2_1" transform="matrix(9.962899,0,0,-9.963197,54.48381,9.392784)"/>
<use data-text="c" xlink:href="#font_2_4" transform="matrix(9.962899,0,0,-9.963197,58.917299,9.392784)"/>
<use data-text="}" xlink:href="#font_1_3" transform="matrix(9.962899,0,0,-9.963197,63.225496,9.392784)"/>
<use data-text="{" xlink:href="#font_1_2" transform="matrix(9.962899,0,0,-9.963197,.21759033,49.08116)"/>
<use data-text="a" xlink:href="#font_2_2" transform="matrix(9.962899,0,0,-9.963197,5.1987459,49.08116)"/>
<use data-text="," xlink:href="#font_2_1" transform="matrix(9.962899,0,0,-9.963197,10.469131,49.08116)"/>
<use data-text="b" xlink:href="#font_2_3" transform="matrix(9.962899,0,0,-9.963197,14.892654,49.08116)"/>
<use data-text="}" xlink:href="#font_1_3" transform="matrix(9.962899,0,0,-9.963197,19.169175,49.08116)"/>
<use data-text="{" xlink:href="#font_1_2" transform="matrix(9.962899,0,0,-9.963197,39.88678,49.08116)"/>
<use data-text="a" xlink:href="#font_2_2" transform="matrix(9.962899,0,0,-9.963197,44.867937,49.08116)"/>
<use data-text="," xlink:href="#font_2_1" transform="matrix(9.962899,0,0,-9.963197,50.13832,49.08116)"/>
<use data-text="c" xlink:href="#font_2_4" transform="matrix(9.962899,0,0,-9.963197,54.561845,49.08116)"/>
<use data-text="}" xlink:href="#font_1_3" transform="matrix(9.962899,0,0,-9.963197,58.87436,49.08116)"/>
<use data-text="{" xlink:href="#font_1_2" transform="matrix(9.962899,0,0,-9.963197,80.068988,49.08116)"/>
<use data-text="b" xlink:href="#font_2_3" transform="matrix(9.962899,0,0,-9.963197,85.05014,49.08116)"/>
<use data-text="," xlink:href="#font_2_1" transform="matrix(9.962899,0,0,-9.963197,89.324237,49.08116)"/>
<use data-text="c" xlink:href="#font_2_4" transform="matrix(9.962899,0,0,-9.963197,93.74776,49.08116)"/>
<use data-text="}" xlink:href="#font_1_3" transform="matrix(9.962899,0,0,-9.963197,98.06554,49.08116)"/>
<use data-text="{" xlink:href="#font_1_2" transform="matrix(9.962899,0,0,-9.963197,4.5687258,88.76955)"/>
<use data-text="a" xlink:href="#font_2_2" transform="matrix(9.962899,0,0,-9.963197,9.549881,88.76955)"/>
<use data-text="}" xlink:href="#font_1_3" transform="matrix(9.962899,0,0,-9.963197,14.816055,88.76955)"/>
<use data-text="{" xlink:href="#font_1_2" transform="matrix(9.962899,0,0,-9.963197,44.751924,88.76955)"/>
<use data-text="b" xlink:href="#font_2_3" transform="matrix(9.962899,0,0,-9.963197,49.733079,88.76955)"/>
<use data-text="}" xlink:href="#font_1_3" transform="matrix(9.962899,0,0,-9.963197,54.009218,88.76955)"/>
<use data-text="{" xlink:href="#font_1_2" transform="matrix(9.962899,0,0,-9.963197,84.42111,88.76955)"/>
<use data-text="c" xlink:href="#font_2_4" transform="matrix(9.962899,0,0,-9.963197,89.40227,88.76955)"/>
<use data-text="}" xlink:href="#font_1_3" transform="matrix(9.962899,0,0,-9.963197,93.7144,88.76955)"/>
<use data-text="&#x2205;" xlink:href="#font_1_1" transform="matrix(9.962899,0,0,-9.963197,49.380067,129.42598)"/>
<path transform="matrix(1.00003,0,0,-1.00006,51.87114,66.434207)" stroke-width=".3985" stroke-linecap="butt" stroke-miterlimit="10" stroke-linejoin="miter" fill="none" stroke="#000000" d="M-6.9739 52.5552-39.68607 26.81693"/>
<path transform="matrix(1.00003,0,0,-1.00006,51.87114,66.434207)" stroke-width=".3985" stroke-linecap="butt" stroke-miterlimit="10" stroke-linejoin="miter" fill="none" stroke="#000000" d="M0 52.5552V26.81693"/>
<path transform="matrix(1.00003,0,0,-1.00006,51.87114,66.434207)" stroke-width=".3985" stroke-linecap="butt" stroke-miterlimit="10" stroke-linejoin="miter" fill="none" stroke="#000000" d="M6.9739 52.5552 39.68607 26.81693"/>
<path transform="matrix(1.00003,0,0,-1.00006,51.87114,66.434207)" stroke-width=".3985" stroke-linecap="butt" stroke-miterlimit="10" stroke-linejoin="miter" fill="none" stroke="#000000" d="M-39.68607 12.86911V-12.86911"/>
<path transform="matrix(1.00003,0,0,-1.00006,51.87114,66.434207)" stroke-width=".3985" stroke-linecap="butt" stroke-miterlimit="10" stroke-linejoin="miter" fill="none" stroke="#000000" d="M-32.71216 12.86911-6.9739-12.86911"/>
<path transform="matrix(1.00003,0,0,-1.00006,51.87114,66.434207)" stroke-width=".3985" stroke-linecap="butt" stroke-miterlimit="10" stroke-linejoin="miter" fill="none" stroke="#000000" d="M-6.9739 12.86911-32.71216-12.86911"/>
<path transform="matrix(1.00003,0,0,-1.00006,51.87114,66.434207)" stroke-width=".3985" stroke-linecap="butt" stroke-miterlimit="10" stroke-linejoin="miter" fill="none" stroke="#000000" d="M6.9739 12.86911 32.71216-12.86911"/>
<path transform="matrix(1.00003,0,0,-1.00006,51.87114,66.434207)" stroke-width=".3985" stroke-linecap="butt" stroke-miterlimit="10" stroke-linejoin="miter" fill="none" stroke="#000000" d="M32.71216 12.86911 6.9739-12.86911"/>
<path transform="matrix(1.00003,0,0,-1.00006,51.87114,66.434207)" stroke-width=".3985" stroke-linecap="butt" stroke-miterlimit="10" stroke-linejoin="miter" fill="none" stroke="#000000" d="M39.68607 12.86911V-12.86911"/>
<path transform="matrix(1.00003,0,0,-1.00006,51.87114,66.434207)" stroke-width=".3985" stroke-linecap="butt" stroke-miterlimit="10" stroke-linejoin="miter" fill="none" stroke="#000000" d="M-39.68607-26.81693-6.9739-52.5552"/>
<path transform="matrix(1.00003,0,0,-1.00006,51.87114,66.434207)" stroke-width=".3985" stroke-linecap="butt" stroke-miterlimit="10" stroke-linejoin="miter" fill="none" stroke="#000000" d="M0-26.81693V-52.5552"/>
<path transform="matrix(1.00003,0,0,-1.00006,51.87114,66.434207)" stroke-width=".3985" stroke-linecap="butt" stroke-miterlimit="10" stroke-linejoin="miter" fill="none" stroke="#000000" d="M39.68607-26.81693 6.9739-52.5552"/>
</svg>
