<svg xmlns="http://www.w3.org/2000/svg" xmlns:xlink="http://www.w3.org/1999/xlink" xmlns:inkscape="http://www.inkscape.org/namespaces/inkscape" version="1.1" width="155" height="70" viewBox="0 0 155 70">
<defs>
<path id="font_1_1" d="M.644989 .69506838C.644989 .69807437 .6429901 .7050781 .6339874 .7050781 .6289978 .7050781 .6279907 .70407107 .6159973 .6900635L.56799319 .6330414C.5419922 .68006899 .48999024 .7050781 .4249878 .7050781 .2979889 .7050781 .17799378 .58999636 .17799378 .4689026 .17799378 .38783265 .23098755 .34179688 .28199769 .32678224L.3889923 .2987671C.42599488 .2897644 .48098756 .27474977 .48098756 .19267273 .48098756 .1026001 .39898683 .008529663 .30099488 .008529663 .23699951 .008529663 .12599182 .030548096 .12599182 .15464783 .12599182 .17866516 .1309967 .2026825 .13198853 .20869446 .1329956 .21269226 .13398743 .21369934 .13398743 .21569824 .13398743 .22570801 .1269989 .22669983 .12199402 .22669983 .116989139 .22669983 .114990238 .22570801 .11199951 .22270203 .10798645 .21870423 .051986696-.009475708 .051986696-.012466431 .051986696-.018463135 .056991579-.022460938 .06298828-.022460938 .067993167-.022460938 .068984989-.021469117 .08099365-.007461548L.12998963 .049560548C.17298889-.008468628 .24099732-.022460938 .29899598-.022460938 .43499757-.022460938 .5529938 .11061096 .5529938 .2347107 .5529938 .30377198 .5189972 .33779908 .5039978 .35180665 .48098756 .37483216 .46598817 .37882997 .3769989 .40185548 .35499574 .40785218 .31900025 .41786195 .30999757 .41986085 .2829895 .42886354 .24899292 .457901 .24899292 .51094058 .24899292 .59199526 .32899476 .677063 .42399598 .677063 .5069885 .677063 .56799319 .6340332 .56799319 .52194216 .56799319 .48991395 .56399539 .47190858 .56399539 .4658966 .56399539 .4649048 .56399539 .45588685 .57598879 .45588685 .58599856 .45588685 .58699038 .45889283 .59098818 .47590638L.644989 .69506838Z"/>
<path id="font_2_1" d="M.272995 .33428956C.35099793 .33428956 .40699769 .2803192 .40699769 .1733551 .40699769 .04940796 .33499146 .012466431 .2769928 .012466431 .23699951 .012466431 .14898682 .0234375 .10699463 .082351688 .1539917 .084350589 .16499329 .11735535 .16499329 .13835144 .16499329 .17034912 .14099121 .19335938 .10998535 .19335938 .08198547 .19335938 .053985597 .17634583 .053985597 .13534546 .053985597 .041412355 .1579895-.01953125 .2789917-.01953125 .41799928-.01953125 .5139923 .07336426 .5139923 .1733551 .5139923 .2513275 .44999696 .32929994 .33999635 .35229493 .44499208 .39024354 .48298646 .4650879 .48298646 .5260773 .48298646 .60505679 .3919983 .6640625 .2809906 .6640625 .16999817 .6640625 .084991458 .61006167 .084991458 .5300751 .084991458 .49606324 .10699463 .47706605 .13699341 .47706605 .16799927 .47706605 .18798828 .5000763 .18798828 .5280762 .18798828 .5570679 .16799927 .57806399 .13699341 .5800781 .17199707 .62405398 .24099732 .63505557 .27799989 .63505557 .32299806 .63505557 .38598634 .6130676 .38598634 .5260773 .38598634 .48406983 .37199403 .43814088 .34599305 .4072113 .31298829 .36927796 .2849884 .3672943 .23498535 .36428834 .20999146 .3623047 .20799256 .3623047 .20298767 .3612976 .20098877 .3612976 .19299317 .3592987 .19299317 .34829713 .19299317 .33428956 .20199585 .33428956 .21899414 .33428956H.272995Z"/>
<path id="font_3_1" d="M.30299378 .60591128C.30299378 .63093569 .30299378 .6569519 .33799745 .687973 .34498597 .6929779 .37399293 .71798709 .43598939 .72198489 .44799806 .72299197 .45599366 .72299197 .45599366 .73599246 .45599366 .75 .44599916 .75 .43199159 .75 .32398988 .75 .22898865 .6999817 .22799683 .6239319V.36875917C.22599793 .31672669 .17599488 .26869203 .09399414 .26368714 .08198547 .2626953 .07398987 .2626953 .07398987 .24969483 .07398987 .23669434 .08299255 .23669434 .09098816 .23568726 .18598938 .22969055 .21798706 .1787262 .22499085 .15074158 .22799683 .13874817 .22799683 .13674927 .22799683 .09977722V-.1040802C.22799683-.13606262 .22799683-.18003845 .2919922-.2170105 .33499146-.2420044 .39698792-.25 .43199159-.25 .44599916-.25 .45599366-.25 .45599366-.23600769 .45599366-.2230072 .44699098-.2230072 .43899537-.22200012 .34599305-.21601868 .31298829-.16903687 .30599977-.13806153 .30299378-.12806702 .30299378-.12606812 .30299378-.09109497V.118759158C.30299378 .14575196 .30299378 .21470642 .18699646 .24969483 .2619934 .27268983 .2899933 .30871583 .2999878 .3457489 .30299378 .35775758 .30299378 .36476136 .30299378 .39578248V.60591128Z"/>
<path id="font_4_2" d="M.19499207 .61586C.19499207 .64486697 .17199707 .671875 .13899231 .671875 .10998535 .671875 .083999637 .64886477 .083999637 .61686709 .083999637 .5818634 .11299133 .5608673 .13899231 .5608673 .17399597 .5608673 .19499207 .58987429 .19499207 .61586M.04499817 .43040467V.3973999C.10899353 .3973999 .117996219 .39138795 .117996219 .34233094V.078048709C.117996219 .032989503 .10598755 .032989503 .041992189 .032989503V0C.08099365 .0029907227 .13699341 .0029907227 .1519928 .0029907227 .16499329 .0029907227 .22499085 .0029907227 .2599945 0V.032989503C.19499207 .032989503 .19099427 .037994386 .19099427 .077041629V.44140626L.04499817 .43040467Z"/>
<path id="font_4_1" d="M.32899476 .68333438V.6503296C.39698792 .6503296 .40499879 .6433258 .40499879 .5943451V.38339234C.36999513 .42140199 .32299806 .44140626 .2709961 .44140626 .1459961 .44140626 .034988405 .3443756 .034988405 .21531677 .034988405 .09225464 .1349945-.009765625 .26098634-.009765625 .31999208-.009765625 .36898805 .018234253 .4019928 .053237916V-.009765625L.55400088 .00022888184V.033233644C.48599244 .033233644 .47799684 .040237428 .47799684 .089263919V.69433596L.32899476 .68333438M.4019928 .12426758C.4019928 .10626221 .4019928 .102264408 .3869934 .08226013 .35899354 .042236329 .31298829 .018234253 .2659912 .018234253 .21998596 .018234253 .17999268 .042236329 .1559906 .07925415 .1289978 .118270877 .12399292 .16729737 .12399292 .21430969 .12399292 .27233888 .1329956 .3133545 .1559906 .3483734 .17999268 .38539125 .22499085 .4133911 .27598573 .4133911 .32398988 .4133911 .37199403 .38938905 .4019928 .33737184V.12426758Z"/>
<path id="font_5_3" d="M.18699646 .01499939C.18699646-.050109865 .17298889-.10720825 .11099243-.16934204 .10699463-.17234802 .10499573-.17434693 .10499573-.17933655 .10499573-.18734741 .11299133-.19334412 .11999512-.19334412 .13198853-.19334412 .21499634-.114227298 .21499634 .0029907227 .21499634 .066986087 .19099427 .11099243 .14698792 .11099243 .11199951 .11099243 .09199524 .08299255 .09199524 .055999757 .09199524 .027999878 .11099243 0 .147995 0 .17199707 0 .18699646 .01399231 .18699646 .01499939Z"/>
<path id="font_5_2" d="M.036987306-.1608429C.032989503-.17684937 .032989503-.18183899 .032989503-.18385315 .032989503-.20884705 .052993776-.21484375 .06498718-.21484375 .069992069-.21484375 .09298706-.21385193 .10598755-.18785095 .11099243-.17684937 .1309967-.08480835 .16699219 .052246095 .1789856 .031234742 .21099854-.009765625 .27198792-.009765625 .3939972-.009765625 .5289917 .12426758 .5289917 .27433778 .5289917 .38739015 .45399476 .44140626 .3769989 .44140626 .2849884 .44140626 .16699219 .35836793 .1309967 .21430969L.036987306-.1608429M.2709961 .018234253C.20199585 .018234253 .17999268 .09025574 .17999268 .104263309 .17999268 .10826111 .20599365 .21031189 .20799256 .21731568 .25299073 .39439393 .34799195 .4133911 .37599183 .4133911 .42399598 .4133911 .45098878 .3703766 .45098878 .3153534 .45098878 .27934266 .43099977 .17929077 .40098573 .118270877 .37199403 .06124878 .31999208 .018234253 .2709961 .018234253Z"/>
<path id="font_6_1" d="M.35899354 .6349335C.35899354 .66503909 .35499574 .66503909 .32499696 .66503909 .25898744 .60058596 .15699768 .60058596 .12098694 .60058596V.5615845C.14698792 .5615845 .21299744 .5615845 .272995 .58958438V.08496094C.272995 .051986696 .272995 .038986207 .16999817 .038986207H.1269989V0C.18199158 .0039978029 .2599945 .0039978029 .31599427 .0039978029 .37199403 .0039978029 .44999696 .0039978029 .5049896 0V.038986207H.46199037C.35899354 .038986207 .35899354 .051986696 .35899354 .08496094V.6349335Z"/>
<path id="font_6_2" d="M.5379944 .18702698H.5009918C.49899293 .17301941 .4889984 .10699463 .47399903 .09599304 .46699525 .08999634 .38598634 .08999634 .37199403 .08999634H.18499756L.31298829 .19403076C.34700013 .22103882 .43598939 .28504945 .46699525 .31506349 .49699403 .3450775 .5379944 .39608766 .5379944 .46710206 .5379944 .5920563 .4249878 .66503909 .29100038 .66503909 .1619873 .66503909 .07199097 .58006289 .07199097 .48609925 .07199097 .43510438 .114990238 .42910768 .12599182 .42910768 .15098572 .42910768 .17999268 .44709779 .17999268 .48310853 .17999268 .50509646 .16699219 .5371094 .12298584 .5371094 .1459961 .5880585 .20698548 .6260376 .27598573 .6260376 .3809967 .6260376 .43699647 .5480957 .43699647 .46710206 .43699647 .39608766 .3899994 .32305909 .31999208 .25904847L.08299255 .041992189C.07299805 .03199768 .07199097 .0309906 .07199097 0H.5069885L.5379944 .18702698Z"/>
<path id="font_3_2" d="M.30299378 .60406497C.30299378 .63305667 .30299378 .6750183 .25 .71099856 .20799256 .7389984 .14199829 .75 .09799194 .75 .084991458 .75 .07398987 .75 .07398987 .73599246 .07398987 .72299197 .08299255 .72299197 .09098816 .72198489 .18299866 .71598818 .21798706 .6720276 .22599793 .63505557 .22799683 .62506106 .22799683 .61805728 .22799683 .60406497V.39421083C.22799683 .350235 .22799683 .28527833 .34399415 .25028993 .28799439 .23329163 .24499512 .20527649 .23098755 .15423584 .22799683 .14222718 .22799683 .13522339 .22799683 .10420227V-.075912479C.22799683-.1429596 .22799683-.15196228 .19499207-.18598938 .19198609-.18798828 .1639862-.2170105 .09399414-.22200012 .08099365-.2230072 .07398987-.2230072 .07398987-.23600769 .07398987-.25 .084991458-.25 .09799194-.25 .20599365-.25 .3019867-.20098877 .30299378-.12394714V.077194217C.30299378 .14523316 .30299378 .16824341 .33299256 .1962738 .3659973 .22528076 .4019928 .23329163 .43598939 .2362976 .44898988 .23730469 .45599366 .23730469 .45599366 .25028993 .45599366 .2632904 .44699098 .2632904 .43899537 .2642975 .32798768 .271286 .30299378 .33924867 .30299378 .36923219V.60406497Z"/>
<path id="font_5_1" d="M.24198914 .35336305C.24699402 .3723755 .25498963 .4053955 .25498963 .41038514 .25498963 .43139649 .23899842 .44140626 .22200012 .44140626 .18798828 .44140626 .17999268 .40838624 .17599488 .39437867L.036987306-.1608429C.032989503-.17684937 .032989503-.18183899 .032989503-.18385315 .032989503-.20884705 .052993776-.21484375 .06498718-.21484375 .069992069-.21484375 .09298706-.21385193 .10598755-.18785095 .10899353-.17984009 .13798523-.060791017 .1579895 .019226075 .1749878 .006225586 .20899964-.009765625 .2599945-.009765625 .34199525-.009765625 .3959961 .057235719 .39898683 .06124878 .4169922-.0077667238 .4850006-.009765625 .49699403-.009765625 .54299929-.009765625 .56599429 .02822876 .57398989 .04524231 .59399417 .08125305 .60798647 .13928223 .60798647 .14328003 .60798647 .14927674 .60398867 .15628052 .59199526 .15628052 .5799866 .15628052 .5779877 .15028382 .57199099 .12527466 .55799868 .070251468 .5389862 .018234253 .5 .018234253 .47698976 .018234253 .46798707 .037231447 .46798707 .06524658 .46798707 .08226013 .47898866 .12527466 .48599244 .15428162L.5119934 .2563324C.5179901 .28233338 .522995 .30334474 .5309906 .33335877 .5359955 .35536195 .54599 .39437867 .54599 .40039063 .54599 .42539979 .526001 .43139649 .5139923 .43139649 .47898866 .43139649 .47299195 .40638734 .46199037 .3613739L.44099427 .27833558 .4099884 .1532898 .3999939 .11326599C.397995 .10726929 .37098695 .069244388 .34799195 .050247194 .33099366 .037231447 .3019867 .018234253 .2649994 .018234253 .21798706 .018234253 .18598938 .04324341 .18598938 .105270389 .18598938 .13127136 .19400025 .1612854 .19999695 .18530274L.24198914 .35336305Z"/>
<path id="font_6_3" d="M.2939911 .33203126C.3789978 .33203126 .43598939 .274765 .43598939 .17237854 .43598939 .062408449 .36999513 .014511108 .29699708 .014511108 .269989 .014511108 .16699219 .020492554 .12199402 .07836914 .16099549 .0823822 .1769867 .10836792 .1769867 .13537598 .1769867 .16937256 .15299988 .19238281 .11999512 .19238281 .09298706 .19238281 .06298828 .17536927 .06298828 .13337708 .06298828 .034469606 .17298889-.021484375 .2999878-.021484375 .44799806-.021484375 .5469971 .07337952 .5469971 .17237854 .5469971 .24562073 .4909973 .3229828 .37199403 .35302735 .45098878 .37902833 .5149994 .44306947 .5149994 .5251007 .5149994 .60505679 .42099 .66503909 .30099488 .66503909 .18399048 .66503909 .09498596 .61105349 .09498596 .5290985 .09498596 .48609925 .12799073 .47409059 .147995 .47409059 .17399597 .47409059 .20098877 .49209596 .20098877 .5270996 .20098877 .5580902 .1789856 .5760956 .1519928 .5800934 .19898987 .6320343 .2899933 .6320343 .29899598 .6320343 .34999085 .6320343 .4139862 .60806277 .4139862 .5251007 .4139862 .47009278 .3829956 .37402345 .2829895 .36802674 .2649994 .36701966 .23799134 .36502076 .22898865 .36502076 .21899414 .36402894 .20799256 .36302186 .20799256 .34802247 .20799256 .33203126 .21899414 .33203126 .23599243 .33203126H.2939911Z"/>
</defs>
<use data-text="S" xlink:href="#font_1_1" transform="matrix(9.962799,0,0,-9.963397,75.47222,7.7276575)"/>
<use data-text="3" xlink:href="#font_2_1" transform="matrix(6.97394,0,0,-6.974358,81.581348,9.222778)"/>
<use data-text="{" xlink:href="#font_3_1" transform="matrix(7.9702599,0,0,-7.9707376,1.2167282,36.830987)"/>
<use data-text="i" xlink:href="#font_4_2" transform="matrix(7.9702599,0,0,-7.9707376,5.4508135,36.830987)"/>
<use data-text="d" xlink:href="#font_4_1" transform="matrix(7.9702599,0,0,-7.9707376,7.80204,36.830987)"/>
<use data-text="," xlink:href="#font_5_3" transform="matrix(7.9702599,0,0,-7.9707376,12.50795,36.830987)"/>
<use data-text="&#x03c1;" xlink:href="#font_5_2" transform="matrix(7.9702599,0,0,-7.9707376,16.269913,36.830987)"/>
<use data-text="1" xlink:href="#font_6_1" transform="matrix(5.97772,0,0,-5.9780786,20.609116,37.938074)"/>
<use data-text="," xlink:href="#font_5_3" transform="matrix(7.9702599,0,0,-7.9707376,24.760193,36.830987)"/>
<use data-text="&#x03c1;" xlink:href="#font_5_2" transform="matrix(7.9702599,0,0,-7.9707376,28.522156,36.830987)"/>
<use data-text="2" xlink:href="#font_6_2" transform="matrix(5.97772,0,0,-5.9780786,32.860368,37.938074)"/>
<use data-text="}" xlink:href="#font_3_2" transform="matrix(7.9702599,0,0,-7.9707376,37.011445,36.830987)"/>
<use data-text="{" xlink:href="#font_3_1" transform="matrix(7.9702599,0,0,-7.9707376,46.650644,36.830987)"/>
<use data-text="i" xlink:href="#font_4_2" transform="matrix(7.9702599,0,0,-7.9707376,50.884729,36.830987)"/>
<use data-text="d" xlink:href="#font_4_1" transform="matrix(7.9702599,0,0,-7.9707376,53.235956,36.830987)"/>
<use data-text="," xlink:href="#font_5_3" transform="matrix(7.9702599,0,0,-7.9707376,57.941865,36.830987)"/>
<use data-text="&#x00b5;" xlink:href="#font_5_1" transform="matrix(7.9702599,0,0,-7.9707376,61.703828,36.830987)"/>
<use data-text="1" xlink:href="#font_6_1" transform="matrix(5.97772,0,0,-5.9780786,66.80005,37.938074)"/>
<use data-text="}" xlink:href="#font_3_2" transform="matrix(7.9702599,0,0,-7.9707376,70.951129,36.830987)"/>
<use data-text="{" xlink:href="#font_3_1" transform="matrix(7.9702599,0,0,-7.9707376,86.33744,36.830987)"/>
<use data-text="i" xlink:href="#font_4_2" transform="matrix(7.9702599,0,0,-7.9707376,90.571529,36.830987)"/>
<use data-text="d" xlink:href="#font_4_1" transform="matrix(7.9702599,0,0,-7.9707376,92.92275,36.830987)"/>
<use data-text="," xlink:href="#font_5_3" transform="matrix(7.9702599,0,0,-7.9707376,97.62866,36.830987)"/>
<use data-text="&#x00b5;" xlink:href="#font_5_1" transform="matrix(7.9702599,0,0,-7.9707376,101.390628,36.830987)"/>
<use data-text="2" xlink:href="#font_6_2" transform="matrix(5.97772,0,0,-5.9780786,106.48685,37.938074)"/>
<use data-text="}" xlink:href="#font_3_2" transform="matrix(7.9702599,0,0,-7.9707376,110.637928,36.830987)"/>
<use data-text="{" xlink:href="#font_3_1" transform="matrix(7.9702599,0,0,-7.9707376,126.02423,36.830987)"/>
<use data-text="i" xlink:href="#font_4_2" transform="matrix(7.9702599,0,0,-7.9707376,130.25832,36.830987)"/>
<use data-text="d" xlink:href="#font_4_1" transform="matrix(7.9702599,0,0,-7.9707376,132.60955,36.830987)"/>
<use data-text="," xlink:href="#font_5_3" transform="matrix(7.9702599,0,0,-7.9707376,137.31546,36.830987)"/>
<use data-text="&#x00b5;" xlink:href="#font_5_1" transform="matrix(7.9702599,0,0,-7.9707376,141.07743,36.830987)"/>
<use data-text="3" xlink:href="#font_6_3" transform="matrix(5.97772,0,0,-5.9780786,146.17365,37.938074)"/>
<use data-text="}" xlink:href="#font_3_2" transform="matrix(7.9702599,0,0,-7.9707376,150.3247,36.830987)"/>
<use data-text="{" xlink:href="#font_3_1" transform="matrix(7.9702599,0,0,-7.9707376,72.99817,66.59737)"/>
<use data-text="i" xlink:href="#font_4_2" transform="matrix(7.9702599,0,0,-7.9707376,77.232257,66.59737)"/>
<use data-text="d" xlink:href="#font_4_1" transform="matrix(7.9702599,0,0,-7.9707376,79.58348,66.59737)"/>
<use data-text="}" xlink:href="#font_3_2" transform="matrix(7.9702599,0,0,-7.9707376,84.28939,66.59737)"/>
<path transform="matrix(1.00002,0,0,-1.00008,21.231133,34.837827)" stroke-width=".3985" stroke-linecap="butt" stroke-miterlimit="10" stroke-linejoin="miter" fill="none" stroke="#000000" d="M0 5.57912 52.5552 24.18541"/>
<path transform="matrix(1.00002,0,0,-1.00008,21.231133,34.837827)" stroke-width=".3985" stroke-linecap="butt" stroke-miterlimit="10" stroke-linejoin="miter" fill="none" stroke="#000000" d="M39.68607 5.57912 56.04216 24.18541"/>
<path transform="matrix(1.00002,0,0,-1.00008,21.231133,34.837827)" stroke-width=".3985" stroke-linecap="butt" stroke-miterlimit="10" stroke-linejoin="miter" fill="none" stroke="#000000" d="M79.37216 5.57912 63.01607 24.18541"/>
<path transform="matrix(1.00002,0,0,-1.00008,21.231133,34.837827)" stroke-width=".3985" stroke-linecap="butt" stroke-miterlimit="10" stroke-linejoin="miter" fill="none" stroke="#000000" d="M119.05826 5.57912 66.50302 24.18541"/>
<path transform="matrix(1.00002,0,0,-1.00008,21.231133,34.837827)" stroke-width=".3985" stroke-linecap="butt" stroke-miterlimit="10" stroke-linejoin="miter" fill="none" stroke="#000000" d="M52.5552-24.18541 0-5.57912"/>
<path transform="matrix(1.00002,0,0,-1.00008,21.231133,34.837827)" stroke-width=".3985" stroke-linecap="butt" stroke-miterlimit="10" stroke-linejoin="miter" fill="none" stroke="#000000" d="M56.04216-24.18541 39.68607-5.57912"/>
<path transform="matrix(1.00002,0,0,-1.00008,21.231133,34.837827)" stroke-width=".3985" stroke-linecap="butt" stroke-miterlimit="10" stroke-linejoin="miter" fill="none" stroke="#000000" d="M63.01607-24.18541 79.37216-5.57912"/>
<path transform="matrix(1.00002,0,0,-1.00008,21.231133,34.837827)" stroke-width=".3985" stroke-linecap="butt" stroke-miterlimit="10" stroke-linejoin="miter" fill="none" stroke="#000000" d="M66.50302-24.18541 119.05826-5.57912"/>
</svg>
