<svg xmlns="http://www.w3.org/2000/svg" xmlns:xlink="http://www.w3.org/1999/xlink" xmlns:inkscape="http://www.inkscape.org/namespaces/inkscape" version="1.1" width="314" height="141" viewBox="0 0 314 141">
<defs>
<path id="font_1_85" d="M.33099366-.2400055C.33099366-.23701477 .33099366-.23500061 .31399537-.21800232 .18899536-.0920105 .15699768 .09700012 .15699768 .25 .15699768 .42399598 .19499207 .59799197 .31799317 .72299197 .33099366 .7350006 .33099366 .7369995 .33099366 .73999026 .33099366 .746994 .32699586 .75 .32099916 .75 .31098939 .75 .22099304 .6819916 .1619873 .5549927 .11099243 .44499208 .09899902 .33399964 .09899902 .25 .09899902 .17199707 .10998535 .050994874 .16499329-.06201172 .22499085-.18501282 .31098939-.25 .32099916-.25 .32699586-.25 .33099366-.24700928 .33099366-.2400055Z"/>
<path id="font_1_28" d="M.48298646 .08912659V.14511109H.45799256V.08912659C.45799256 .03112793 .43299867 .025131226 .42199708 .025131226 .3889923 .025131226 .3849945 .070129398 .3849945 .07511902V.27508546C.3849945 .31707765 .3849945 .3560791 .34899903 .39312745 .30999757 .43223573 .2599945 .4482422 .21199036 .4482422 .12998963 .4482422 .06098938 .40115357 .06098938 .335083 .06098938 .30508424 .08099365 .28808595 .10699463 .28808595 .1349945 .28808595 .15299988 .30807496 .15299988 .33407594 .15299988 .3460846 .147995 .37908937 .101989749 .38008119 .1289978 .41519166 .17799378 .426239 .20999146 .426239 .25898744 .426239 .31599427 .38710023 .31599427 .29808045V.26107789C.2649994 .25808717 .19499207 .25508119 .13198853 .22509766 .056991579 .19110108 .03199768 .13911438 .03199768 .09512329 .03199768 .014251709 .1289978-.0107421879 .19198609-.0107421879 .2579956-.0107421879 .3039856 .029251099 .32299806 .07624817 .32699586 .036132814 .35398866-.005859375 .40098573-.005859375 .42199708-.005859375 .48298646 .008132935 .48298646 .08912659M.31599427 .14013672C.31599427 .04525757 .24398804 .011245728 .19898987 .011245728 .1499939 .011245728 .10899353 .04624939 .10899353 .09625244 .10899353 .15124512 .15098572 .23425293 .31599427 .24024964V.14013672Z"/>
<path id="font_1_86" d="M.2889862 .25C.2889862 .32798768 .27799989 .44898988 .22299195 .56199648 .16299439 .68499758 .07699585 .75 .066986087 .75 .06098938 .75 .056991579 .74598696 .056991579 .73999026 .056991579 .7369995 .056991579 .7350006 .07598877 .71699526 .17399597 .6179962 .23098755 .45899964 .23098755 .25 .23098755 .07899475 .19400025-.09700012 .069992069-.2230072 .056991579-.23500061 .056991579-.23701477 .056991579-.2400055 .056991579-.2460022 .06098938-.25 .066986087-.25 .07699585-.25 .16699219-.18200684 .22599793-.055007936 .2769928 .054992677 .2889862 .16600037 .2889862 .25Z"/>
<path id="font_1_35" d="M.5209961 .2163086C.5209961 .34335328 .4229889 .4423828 .30899049 .4423828 .23098755 .4423828 .18798828 .39537049 .17199707 .3773651V.69433596L.027999878 .68333438V.6523285C.09799194 .6523285 .10598755 .6453247 .10598755 .596344V.00024414063H.1309967L.16699219 .06227112C.18199158 .039260866 .22399903-.0107421879 .2979889-.0107421879 .4169922-.0107421879 .5209961 .08728027 .5209961 .2163086M.43798829 .21731568C.43798829 .18029785 .43598939 .120285037 .40699769 .07527161 .38598634 .044265748 .34799195 .011245728 .2939911 .011245728 .24899292 .011260986 .21299744 .03526306 .18899536 .072265628 .1749878 .09326172 .1749878 .09625244 .1749878 .11425781V.32034303C.1749878 .3393402 .1749878 .3403473 .18598938 .35635377 .22499085 .41236878 .27999879 .42037965 .3039856 .42037965 .34899903 .42037965 .3849945 .3943634 .40899659 .35635377 .43499757 .31533814 .43798829 .25831605 .43798829 .21730042V.21731568Z"/>
<path id="font_1_43" d="M.4149933 .119140628C.4149933 .12911988 .40499879 .12911988 .4019928 .12911988 .3929901 .12911988 .3909912 .12512207 .3889923 .119140628 .3600006 .026229859 .29499818 .014251709 .2579956 .014251709 .20498657 .014251709 .116989139 .0572052 .116989139 .21801758 .116989139 .38093568 .19898987 .42323304 .2519989 .42323304 .26098634 .42323304 .32398988 .42222596 .35899354 .38594056 .31799317 .38293458 .31199647 .3529358 .31199647 .3399353 .31199647 .31393434 .32998658 .2939453 .35798646 .2939453 .38398744 .2939453 .4039917 .3109436 .4039917 .34094239 .4039917 .40911866 .32798768 .4482422 .25099183 .4482422 .12599182 .4482422 .033996583 .3399353 .033996583 .21601868 .033996583 .08816528 .1329956-.0107421879 .24899292-.0107421879 .3829956-.0107421879 .4149933 .10914612 .4149933 .119140628Z"/>
</defs>
<use data-text="(" xlink:href="#font_1_85" transform="matrix(9.9626,0,0,-9.963496,45.332017,77.28452)"/>
<use data-text="a" xlink:href="#font_1_28" transform="matrix(9.9626,0,0,-9.963496,49.207475,77.28452)"/>
<use data-text=")" xlink:href="#font_1_86" transform="matrix(9.9626,0,0,-9.963496,54.188768,77.28452)"/>
<use data-text="(" xlink:href="#font_1_85" transform="matrix(9.9626,0,0,-9.963496,154.19,136.81888)"/>
<use data-text="b" xlink:href="#font_1_35" transform="matrix(9.9626,0,0,-9.963496,158.06546,136.81888)"/>
<use data-text=")" xlink:href="#font_1_86" transform="matrix(9.9626,0,0,-9.963496,163.60468,136.81888)"/>
<use data-text="(" xlink:href="#font_1_85" transform="matrix(9.9626,0,0,-9.963496,263.884,91.17577)"/>
<use data-text="c" xlink:href="#font_1_43" transform="matrix(9.9626,0,0,-9.963496,267.75947,91.17577)"/>
<use data-text=")" xlink:href="#font_1_86" transform="matrix(9.9626,0,0,-9.963496,272.18287,91.17577)"/>
<path transform="matrix(1,0,0,-1.00009,160.835,125.82589)" stroke-width=".3985" stroke-linecap="butt" stroke-miterlimit="10" stroke-linejoin="miter" fill="none" stroke="#000000" d="M-39.68535 0H39.68535V79.37071H-39.68535Z"/>
<path transform="matrix(1,0,0,-1.00009,160.835,125.82589)" stroke-width=".3985" stroke-linecap="butt" stroke-miterlimit="10" stroke-linejoin="miter" fill="none" stroke="#000000" d="M0 0 39.68535 39.68535 0 79.37071-39.68535 39.68535Z"/>
<path transform="matrix(1,0,0,-1.00009,160.835,125.82589)" stroke-width=".3985" stroke-linecap="butt" stroke-miterlimit="10" stroke-linejoin="miter" fill="none" stroke="#000000" d="M-39.68535 0 39.68535 79.37071M39.68535 0-39.68535 79.37071"/>
<path transform="matrix(1,0,0,-1.00009,160.835,125.82589)" stroke-width=".3985" stroke-linecap="butt" stroke-miterlimit="10" stroke-linejoin="miter" fill="none" stroke="#000000" d="M-59.52802 59.52802H-158.74143V119.05606H-59.52802Z"/>
<path transform="matrix(1,0,0,-1.00009,160.835,125.82589)" stroke-width=".3985" stroke-linecap="butt" stroke-miterlimit="10" stroke-linejoin="miter" fill="none" stroke="#000000" d="M-88.29987 79.37071C-88.29987 86.49394-102.06967 92.26831-119.05606 92.26831-136.04245 92.26831-149.81227 86.49394-149.81227 79.37071-149.81227 72.24747-136.04245 66.4731-119.05606 66.4731-102.06967 66.4731-88.29987 72.24747-88.29987 79.37071ZM-119.05606 79.37071"/>
<path transform="matrix(1,0,0,-1.00009,160.835,125.82589)" d="M-73.41786 103.18185C-73.41786 106.46956-76.08301 109.1347-79.37071 109.1347-82.6584 109.1347-85.32356 106.46956-85.32356 103.18185-85.32356 99.89415-82.6584 97.229-79.37071 97.229-76.08301 97.229-73.41786 99.89415-73.41786 103.18185ZM-79.37071 103.18185"/>
<path transform="matrix(1,0,0,-1.00009,160.835,125.82589)" stroke-width=".3985" stroke-linecap="butt" stroke-miterlimit="10" stroke-linejoin="miter" fill="none" stroke="#000000" d="M-73.41786 103.18185C-73.41786 106.46956-76.08301 109.1347-79.37071 109.1347-82.6584 109.1347-85.32356 106.46956-85.32356 103.18185-85.32356 99.89415-82.6584 97.229-79.37071 97.229-76.08301 97.229-73.41786 99.89415-73.41786 103.18185ZM-79.37071 103.18185"/>
<path transform="matrix(1,0,0,-1.00009,160.835,125.82589)" stroke-width=".3985" stroke-linecap="butt" stroke-miterlimit="10" stroke-linejoin="miter" fill="none" stroke="#000000" d="M133.93805 69.44937C133.93805 83.14804 122.83339 94.2527 109.13472 94.2527 95.43605 94.2527 84.33139 83.14804 84.33139 69.44937 84.33139 55.75069 95.43605 44.64603 109.13472 44.64603 122.83339 44.64603 133.93805 55.75069 133.93805 69.44937ZM109.13472 69.44937"/>
<path transform="matrix(1,0,0,-1.00009,160.835,125.82589)" stroke-width=".3985" stroke-linecap="butt" stroke-miterlimit="10" stroke-linejoin="miter" fill="none" stroke="#000000" d="M151.12236 99.21338C151.12236 112.91205 140.0177 124.01671 126.31902 124.01671 112.62035 124.01671 101.51569 112.91205 101.51569 99.21338 101.51569 85.51471 112.62035 74.41005 126.31902 74.41005 140.0177 74.41005 151.12236 85.51471 151.12236 99.21338ZM126.31902 99.21338"/>
<path transform="matrix(1,0,0,-1.00009,160.835,125.82589)" stroke-width=".3985" stroke-linecap="butt" stroke-miterlimit="10" stroke-linejoin="miter" fill="none" stroke="#000000" d="M116.75375 99.21338C116.75375 112.91205 105.6491 124.01671 91.95042 124.01671 78.25175 124.01671 67.14708 112.91205 67.14708 99.21338 67.14708 85.51471 78.25175 74.41005 91.95042 74.41005 105.6491 74.41005 116.75375 85.51471 116.75375 99.21338ZM91.95042 99.21338"/>
</svg>
