<svg xmlns="http://www.w3.org/2000/svg" xmlns:xlink="http://www.w3.org/1999/xlink" xmlns:inkscape="http://www.inkscape.org/namespaces/inkscape" version="1.1" width="252" height="107" viewBox="0 0 252 107">
<path transform="matrix(1,0,0,-1.00005,2.0960007,104.90544)" stroke-width=".3985" stroke-linecap="butt" stroke-miterlimit="10" stroke-linejoin="miter" fill="none" stroke="#000000" d="M9.92133 0H29.764M69.44937 0H89.29204M128.9774 0H148.82009M188.50543 0H208.34813"/>
<path transform="matrix(1,0,0,-1.00005,2.0960007,104.90544)" stroke-width=".3985" stroke-linecap="butt" stroke-miterlimit="10" stroke-linejoin="miter" fill="none" stroke="#000000" d="M19.84267 17.58063H59.52802M79.37071 17.58063H119.05606M138.89876 17.58063H178.5841M198.42679 17.58063H238.11215"/>
<path transform="matrix(1,0,0,-1.00005,2.0960007,104.90544)" stroke-width=".3985" stroke-linecap="butt" stroke-miterlimit="10" stroke-linejoin="miter" fill="none" stroke="#000000" d="M9.92133 34.3674H29.764M49.60667 34.3674H89.29204M109.13472 34.3674H148.82009M168.66277 34.3674H208.34813M228.19081 34.3674H248.03348"/>
<path transform="matrix(1,0,0,-1.00005,2.0960007,104.90544)" stroke-width=".3985" stroke-linecap="butt" stroke-miterlimit="10" stroke-linejoin="miter" fill="none" stroke="#000000" d="M19.84267 51.5514H59.52802M79.37071 51.5514H119.05606M138.89876 51.5514H178.5841M198.42679 51.5514H238.11215"/>
<path transform="matrix(1,0,0,-1.00005,2.0960007,104.90544)" stroke-width=".3985" stroke-linecap="butt" stroke-miterlimit="10" stroke-linejoin="miter" fill="none" stroke="#000000" d="M9.92133 68.7351H29.764M49.60667 68.7351H89.29204M109.13472 68.7351H148.82009M168.66277 68.7351H208.34813M228.19081 68.7351H248.03348"/>
<path transform="matrix(1,0,0,-1.00005,2.0960007,104.90544)" stroke-width=".3985" stroke-linecap="butt" stroke-miterlimit="10" stroke-linejoin="miter" fill="none" stroke="#000000" d="M19.84267 85.91882H59.52802M79.37071 85.91882H119.05606M138.89876 85.91882H178.5841M198.42679 85.91882H238.11215"/>
<path transform="matrix(1,0,0,-1.00005,2.0960007,104.90544)" stroke-width=".3985" stroke-linecap="butt" stroke-miterlimit="10" stroke-linejoin="miter" fill="none" stroke="#000000" d="M9.92133 103.10252H29.764M69.44937 103.10252H89.29204M128.9774 103.10252H148.82009M188.50543 103.10252H208.34813"/>
<path transform="matrix(1,0,0,-1.00005,2.0960007,104.90544)" stroke-width=".3985" stroke-linecap="butt" stroke-miterlimit="10" stroke-linejoin="miter" fill="none" stroke="#000000" d="M9.92133 0 0 17.58063 9.92133 34.3674 0 51.5514 9.92133 68.7351 0 85.91882 9.92133 103.10252"/>
<path transform="matrix(1,0,0,-1.00005,2.0960007,104.90544)" stroke-width=".3985" stroke-linecap="butt" stroke-miterlimit="10" stroke-linejoin="miter" fill="none" stroke="#000000" d="M9.92133 0 19.84267 17.58063 9.92133 34.3674 19.84267 51.5514 9.92133 68.7351 19.84267 85.91882 9.92133 103.10252"/>
<path transform="matrix(1,0,0,-1.00005,2.0960007,104.90544)" stroke-width=".3985" stroke-linecap="butt" stroke-miterlimit="10" stroke-linejoin="miter" fill="none" stroke="#000000" d="M29.764 0 39.68535 17.58063 29.764 34.3674 39.68535 51.5514 29.764 68.7351 39.68535 85.91882 29.764 103.10252"/>
<path transform="matrix(1,0,0,-1.00005,2.0960007,104.90544)" stroke-width=".3985" stroke-linecap="butt" stroke-miterlimit="10" stroke-linejoin="miter" fill="none" stroke="#000000" d="M39.68535 17.58063 49.60667 34.3674 39.68535 51.5514 49.60667 68.7351 39.68535 85.91882"/>
<path transform="matrix(1,0,0,-1.00005,2.0960007,104.90544)" stroke-width=".3985" stroke-linecap="butt" stroke-miterlimit="10" stroke-linejoin="miter" fill="none" stroke="#000000" d="M59.52802 17.58063 69.44937 34.3674 59.52802 51.5514 69.44937 68.7351 59.52802 85.91882"/>
<path transform="matrix(1,0,0,-1.00005,2.0960007,104.90544)" stroke-width=".3985" stroke-linecap="butt" stroke-miterlimit="10" stroke-linejoin="miter" fill="none" stroke="#000000" d="M69.44937 0 59.52802 17.58063M59.52802 85.91882 69.44937 103.10252"/>
<path transform="matrix(1,0,0,-1.00005,2.0960007,104.90544)" stroke-width=".3985" stroke-linecap="butt" stroke-miterlimit="10" stroke-linejoin="miter" fill="none" stroke="#000000" d="M69.44937 0 79.37071 17.58063 69.44937 34.3674 79.37071 51.5514 69.44937 68.7351 79.37071 85.91882 69.44937 103.10252"/>
<path transform="matrix(1,0,0,-1.00005,2.0960007,104.90544)" stroke-width=".3985" stroke-linecap="butt" stroke-miterlimit="10" stroke-linejoin="miter" fill="none" stroke="#000000" d="M89.29204 0 99.2134 17.58063 89.29204 34.3674 99.2134 51.5514 89.29204 68.7351 99.2134 85.91882 89.29204 103.10252"/>
<path transform="matrix(1,0,0,-1.00005,2.0960007,104.90544)" stroke-width=".3985" stroke-linecap="butt" stroke-miterlimit="10" stroke-linejoin="miter" fill="none" stroke="#000000" d="M99.2134 17.58063 109.13472 34.3674 99.2134 51.5514 109.13472 68.7351 99.2134 85.91882"/>
<path transform="matrix(1,0,0,-1.00005,2.0960007,104.90544)" stroke-width=".3985" stroke-linecap="butt" stroke-miterlimit="10" stroke-linejoin="miter" fill="none" stroke="#000000" d="M128.9774 0 119.05606 17.58063 128.9774 34.3674 119.05606 51.5514 128.9774 68.7351 119.05606 85.91882 128.9774 103.10252"/>
<path transform="matrix(1,0,0,-1.00005,2.0960007,104.90544)" stroke-width=".3985" stroke-linecap="butt" stroke-miterlimit="10" stroke-linejoin="miter" fill="none" stroke="#000000" d="M128.9774 0 138.89876 17.58063 128.9774 34.3674 138.89876 51.5514 128.9774 68.7351 138.89876 85.91882 128.9774 103.10252"/>
<path transform="matrix(1,0,0,-1.00005,2.0960007,104.90544)" stroke-width=".3985" stroke-linecap="butt" stroke-miterlimit="10" stroke-linejoin="miter" fill="none" stroke="#000000" d="M148.82009 0 158.74143 17.58063 148.82009 34.3674 158.74143 51.5514 148.82009 68.7351 158.74143 85.91882 148.82009 103.10252"/>
<path transform="matrix(1,0,0,-1.00005,2.0960007,104.90544)" stroke-width=".3985" stroke-linecap="butt" stroke-miterlimit="10" stroke-linejoin="miter" fill="none" stroke="#000000" d="M158.74143 17.58063 168.66277 34.3674 158.74143 51.5514 168.66277 68.7351 158.74143 85.91882"/>
<path transform="matrix(1,0,0,-1.00005,2.0960007,104.90544)" stroke-width=".3985" stroke-linecap="butt" stroke-miterlimit="10" stroke-linejoin="miter" fill="none" stroke="#000000" d="M188.50543 0 178.5841 17.58063 188.50543 34.3674 178.5841 51.5514 188.50543 68.7351 178.5841 85.91882 188.50543 103.10252"/>
<path transform="matrix(1,0,0,-1.00005,2.0960007,104.90544)" stroke-width=".3985" stroke-linecap="butt" stroke-miterlimit="10" stroke-linejoin="miter" fill="none" stroke="#000000" d="M188.50543 0 198.42679 17.58063 188.50543 34.3674 198.42679 51.5514 188.50543 68.7351 198.42679 85.91882 188.50543 103.10252"/>
<path transform="matrix(1,0,0,-1.00005,2.0960007,104.90544)" stroke-width=".3985" stroke-linecap="butt" stroke-miterlimit="10" stroke-linejoin="miter" fill="none" stroke="#000000" d="M208.34813 0 218.26947 17.58063 208.34813 34.3674 218.26947 51.5514 208.34813 68.7351 218.26947 85.91882 208.34813 103.10252"/>
<path transform="matrix(1,0,0,-1.00005,2.0960007,104.90544)" stroke-width=".3985" stroke-linecap="butt" stroke-miterlimit="10" stroke-linejoin="miter" fill="none" stroke="#000000" d="M218.26947 17.58063 228.19081 34.3674 218.26947 51.5514 228.19081 68.7351 218.26947 85.91882"/>
<path transform="matrix(1,0,0,-1.00005,2.0960007,104.90544)" stroke-width=".3985" stroke-linecap="butt" stroke-miterlimit="10" stroke-linejoin="miter" fill="none" stroke="#000000" d="M238.11215 17.58063 248.03348 34.3674 238.11215 51.5514 248.03348 68.7351 238.11215 85.91882"/>
</svg>
