<svg xmlns="http://www.w3.org/2000/svg" xmlns:xlink="http://www.w3.org/1999/xlink" xmlns:inkscape="http://www.inkscape.org/namespaces/inkscape" version="1.1" width="110" height="142" viewBox="0 0 110 142">
<defs>
<path id="font_1_1" d="M.7630005 .60565188C.7719879 .6416168 .7739868 .6516113 .8470001 .6516113 .8730011 .6516113 .8809967 .6516113 .8809967 .6716156 .8809967 .6826172 .8699951 .6826172 .86698916 .6826172 .83898928 .6826172 .7669983 .6796112 .7389984 .6796112 .70999148 .6796112 .6389923 .6826172 .6100006 .6826172 .60198977 .6826172 .59098818 .6826172 .59098818 .6626129 .59098818 .6516113 .59999087 .6516113 .61898806 .6516113 .62098696 .6516113 .6399994 .6516113 .6569977 .6496124 .6749878 .6476135 .6839905 .6466217 .6839905 .6336212 .6839905 .6296234 .68299868 .6276245 .6799927 .6146393L.6199951 .37083436H.31498719L.37399293 .60565188C.3829956 .6416168 .38598634 .6516113 .45799256 .6516113 .48399354 .6516113 .49198915 .6516113 .49198915 .6716156 .49198915 .6826172 .48098756 .6826172 .47799684 .6826172 .44999696 .6826172 .37799073 .6796112 .34999085 .6796112 .32099916 .6796112 .25 .6826172 .22099304 .6826172 .21299744 .6826172 .20199585 .6826172 .20199585 .6626129 .20199585 .6516113 .21099854 .6516113 .22999573 .6516113 .23199463 .6516113 .25099183 .6516113 .2679901 .6496124 .28599549 .6476135 .29499818 .6466217 .29499818 .6336212 .29499818 .6296234 .2939911 .6266327 .29100038 .6146393L.15699768 .07797241C.14698792 .038986207 .14498902 .0309906 .06599426 .0309906 .04798889 .0309906 .038986207 .0309906 .038986207 .010986328 .038986207 0 .050994874 0 .052993776 0 .08099365 0 .1519928 .0029907227 .17999268 .0029907227 .20098877 .0029907227 .22299195 .0019989014 .24398804 .0019989014 .2659912 .0019989014 .28799439 0 .30899049 0 .31698609 0 .32899476 0 .32899476 .019989014 .32899476 .0309906 .31999208 .0309906 .30099488 .0309906 .2639923 .0309906 .23599243 .0309906 .23599243 .048980714 .23599243 .054977418 .23799134 .0599823 .23899842 .065979007L.30699159 .33984376H.6119995C.56999209 .17391968 .5469971 .07896423 .54299929 .0639801 .5329895 .03199768 .5139923 .0309906 .45199586 .0309906 .43699647 .0309906 .42799378 .0309906 .42799378 .010986328 .42799378 0 .43998719 0 .44198609 0 .46998597 0 .54100039 .0029907227 .56900027 .0029907227 .58999636 .0029907227 .6119995 .0019989014 .6329956 .0019989014 .6549988 .0019989014 .6769867 0 .69799807 0 .70599368 0 .71798709 0 .71798709 .019989014 .71798709 .0309906 .70899966 .0309906 .6899872 .0309906 .6529999 .0309906 .625 .0309906 .625 .048980714 .625 .054977418 .6269989 .0599823 .6279907 .065979007L.7630005 .60565188Z"/>
</defs>
<use data-text="H" xlink:href="#font_1_1" transform="matrix(9.962799,0,0,-9.963197,99.86371,32.638238)"/>
<use data-text="H" xlink:href="#font_1_1" transform="matrix(9.962799,0,0,-9.963197,50.540727,7.7287447)"/>
<use data-text="H" xlink:href="#font_1_1" transform="matrix(9.962799,0,0,-9.963197,1.2167358,32.638238)"/>
<use data-text="H" xlink:href="#font_1_1" transform="matrix(9.962799,0,0,-9.963197,1.2167358,115.731227)"/>
<use data-text="H" xlink:href="#font_1_1" transform="matrix(9.962799,0,0,-9.963197,50.540727,140.64072)"/>
<use data-text="H" xlink:href="#font_1_1" transform="matrix(9.962799,0,0,-9.963197,99.86371,115.731227)"/>
<path transform="matrix(1.00002,0,0,-1.00006,55.085817,70.780529)" stroke-width=".3985" stroke-linecap="butt" stroke-miterlimit="10" stroke-linejoin="miter" fill="none" stroke="#000000" d="M26.05737 21.8652 0 48.18947-26.05737 21.8652V-21.8652L0-48.18947 26.05737-21.8652Z"/>
<path transform="matrix(1.00002,0,0,-1.00006,55.085817,70.780529)" stroke-width=".3985" stroke-linecap="butt" stroke-miterlimit="10" stroke-linejoin="miter" fill="none" stroke="#000000" d="M26.05737 21.8652 41.25761 34.6199"/>
<path transform="matrix(1.00002,0,0,-1.00006,55.085817,70.780529)" stroke-width=".3985" stroke-linecap="butt" stroke-miterlimit="10" stroke-linejoin="miter" fill="none" stroke="#000000" d="M0 48.18947V59.52846"/>
<path transform="matrix(1.00002,0,0,-1.00006,55.085817,70.780529)" stroke-width=".3985" stroke-linecap="butt" stroke-miterlimit="10" stroke-linejoin="miter" fill="none" stroke="#000000" d="M-26.05737 21.8652-41.25761 34.6199"/>
<path transform="matrix(1.00002,0,0,-1.00006,55.085817,70.780529)" stroke-width=".3985" stroke-linecap="butt" stroke-miterlimit="10" stroke-linejoin="miter" fill="none" stroke="#000000" d="M-26.05737-21.8652-41.25761-34.6199"/>
<path transform="matrix(1.00002,0,0,-1.00006,55.085817,70.780529)" stroke-width=".3985" stroke-linecap="butt" stroke-miterlimit="10" stroke-linejoin="miter" fill="none" stroke="#000000" d="M0-48.18947V-59.52846"/>
<path transform="matrix(1.00002,0,0,-1.00006,55.085817,70.780529)" stroke-width=".3985" stroke-linecap="butt" stroke-miterlimit="10" stroke-linejoin="miter" fill="none" stroke="#000000" d="M26.05737-21.8652 41.25761-34.6199"/>
</svg>
