<svg xmlns="http://www.w3.org/2000/svg" xmlns:xlink="http://www.w3.org/1999/xlink" xmlns:inkscape="http://www.inkscape.org/namespaces/inkscape" version="1.1" width="161" height="210" viewBox="0 0 161 210">
<defs>
<path id="font_1_1" d="M.37298585 .37835694C.35499574 .41537477 .32598878 .4423828 .2809906 .4423828 .1639862 .4423828 .039993287 .29533387 .039993287 .14929199 .039993287 .055267335 .09498596-.0107421879 .17298889-.0107421879 .19299317-.0107421879 .24299622-.0067443849 .30299378 .06427002 .31098939 .022247315 .34599305-.0107421879 .3939972-.0107421879 .42900086-.0107421879 .45199586 .012252808 .46798707 .044265748 .4850006 .08027649 .49798585 .14129639 .49798585 .14329529 .49798585 .1532898 .4889984 .1532898 .48599244 .1532898 .47599793 .1532898 .47499085 .14929199 .47200013 .13528443 .45498658 .07026672 .43699647 .011245728 .3959961 .011245728 .36898805 .011245728 .3659973 .037261964 .3659973 .057266237 .3659973 .07926941 .36799623 .08728027 .3789978 .13128662 .3899994 .17329407 .3919983 .18330384 .40098573 .22131348L.43699647 .36135865C.44400025 .38935853 .44400025 .39135743 .44400025 .39537049 .44400025 .41236878 .43199159 .42237855 .4149933 .42237855 .3909912 .42237855 .37599183 .4003601 .37298585 .37835694M.30799867 .119277957C.30299378 .10127258 .30299378 .09927368 .28799439 .08227539 .24398804 .027252198 .20298767 .011245728 .1749878 .011245728 .125 .011245728 .11099243 .06626892 .11099243 .105285648 .11099243 .1552887 .14299011 .27833558 .1659851 .32434083 .19699097 .38336183 .24198914 .42037965 .28199769 .42037965 .34700013 .42037965 .36099244 .3383484 .36099244 .33235169 .36099244 .32633973 .35899354 .32034303 .35798646 .31533814L.30799867 .119277957Z"/>
<path id="font_2_1" d="M.2899933 .4720459C.2979889 .4890442 .29899598 .49705506 .29899598 .5040436 .29899598 .53504946 .2709961 .5590515 .23999024 .5590515 .20199585 .5590515 .18998719 .52804568 .18499756 .51205447L.052993776 .07901001C.051986696 .07701111 .04798889 .06401062 .04798889 .06300354 .04798889 .05101013 .07899475 .041015626 .08699036 .041015626 .09399414 .041015626 .09498596 .043014528 .101989749 .058013917L.2899933 .4720459Z"/>
<path id="font_1_2" d="M.23899842 .68333438C.23899842 .6843262 .23899842 .69433596 .22599793 .69433596 .20298767 .69433596 .12998963 .6863251 .10398865 .6843262 .09599304 .68333438 .084991458 .6823273 .084991458 .6643219 .084991458 .6523285 .09399414 .6523285 .10899353 .6523285 .15699768 .6523285 .15899658 .6453247 .15899658 .6353302 .15899658 .6283264 .1499939 .5943451 .14498902 .573349L.06298828 .24731446C.050994874 .1973114 .04699707 .18130493 .04699707 .14628601 .04699707 .05126953 .099990848-.0107421879 .17399597-.0107421879 .2919922-.0107421879 .4149933 .1382904 .4149933 .28233338 .4149933 .37335206 .3619995 .4423828 .28199769 .4423828 .23599243 .4423828 .19499207 .41337586 .16499329 .38235475L.23899842 .68333438M.14498902 .30534364C.15098572 .3273468 .15098572 .3293457 .1599884 .3403473 .20899964 .405365 .2539978 .42037965 .27999879 .42037965 .31599427 .42037965 .34298707 .3903656 .34298707 .32633973 .34298707 .26733399 .30999757 .15229798 .2919922 .11428833 .25898744 .04725647 .21299744 .011245728 .17399597 .011245728 .13999939 .011245728 .10699463 .038253786 .10699463 .11227417 .10699463 .13128662 .10699463 .15029907 .12298584 .21331787L.14498902 .30534364Z"/>
<path id="font_1_3" d="M.3959961 .37998963C.37998963 .37998963 .3659973 .37998963 .35198976 .36598207 .33599855 .35098268 .33399964 .33398438 .33399964 .3269806 .33399964 .30297853 .35198976 .2919922 .37098695 .2919922 .3999939 .2919922 .4269867 .315979 .4269867 .35598756 .4269867 .40522767 .37998963 .4423828 .30899049 .4423828 .17399597 .4423828 .040985109 .2989807 .040985109 .15811157 .040985109 .06819153 .09899902-.0107421879 .20298767-.0107421879 .34599305-.0107421879 .42999269 .09516907 .42999269 .107162479 .42999269 .11315918 .42399598 .120147708 .41799928 .120147708 .41299439 .120147708 .41099549 .1181488 .40499879 .1101532 .32598878 .011245728 .21699524 .011245728 .20498657 .011245728 .14199829 .011245728 .114990238 .06021118 .114990238 .120147708 .114990238 .1611023 .1349945 .25801087 .16899109 .31999208 .19999695 .37698365 .25498963 .42037965 .30999757 .42037965 .34399415 .42037965 .38198854 .40724183 .3959961 .37998963Z"/>
</defs>
<use data-text="a" xlink:href="#font_1_1" transform="matrix(9.9626,0,0,-9.962799,36.74901,29.20131)"/>
<use data-text="&#x2032;" xlink:href="#font_2_1" transform="matrix(6.9738,0,0,-6.97394,42.015016,25.586228)"/>
<use data-text="a" xlink:href="#font_1_1" transform="matrix(9.9626,0,0,-9.962799,77.833,9.35791)"/>
<use data-text="b" xlink:href="#font_1_2" transform="matrix(9.9626,0,0,-9.962799,88.25,49.04471)"/>
<use data-text="b" xlink:href="#font_1_2" transform="matrix(9.9626,0,0,-9.962799,96.774,9.35791)"/>
<use data-text="&#x2032;" xlink:href="#font_2_1" transform="matrix(6.9738,0,0,-6.97394,101.048999,5.7428286)"/>
<path transform="matrix(1,0,0,-1.00002,80.466,185.26544)" stroke-width=".3985" stroke-linecap="butt" stroke-miterlimit="10" stroke-linejoin="miter" fill="none" stroke="#000000" d="M-59.52802 158.74143-46.65997 158.74436M-32.71216 158.74436-19.84267 158.74143M39.68535 158.74143H59.52802"/>
<path transform="matrix(1,0,0,-1.00002,80.466,185.26544)" stroke-width=".3985" stroke-linecap="butt" stroke-miterlimit="10" stroke-linejoin="miter" fill="none" stroke="#000000" d="M-19.84267 158.74143V178.5841L-6.9739 178.5874M6.9739 178.5874H12.86911M26.81693 178.5874 39.68535 178.5841V158.74143"/>
<path transform="matrix(1,0,0,-1.00002,80.466,185.26544)" stroke-width=".3985" stroke-linecap="butt" stroke-miterlimit="10" stroke-linejoin="miter" fill="none" stroke="#000000" d="M-19.84267 158.74143V138.89876L2.94759 138.9013M16.8954 138.9013 39.68535 138.89876V158.74143"/>
<use data-text="a" xlink:href="#font_1_1" transform="matrix(9.9626,0,0,-9.962799,38.147005,88.73251)"/>
<use data-text="a" xlink:href="#font_1_1" transform="matrix(9.9626,0,0,-9.962799,97.676,88.73251)"/>
<use data-text="b" xlink:href="#font_1_2" transform="matrix(9.9626,0,0,-9.962799,118.01401,88.73251)"/>
<path transform="matrix(1,0,0,-1.00002,80.466,185.26544)" stroke-width=".3985" stroke-linecap="butt" stroke-miterlimit="10" stroke-linejoin="miter" fill="none" stroke="#000000" d="M-59.52802 79.37071V99.2134L-46.65997 99.21523M-32.71216 99.21523-19.84267 99.2134V79.37071M0 79.37071V99.2134L12.86911 99.21523M26.81693 99.21523H32.71216M46.65997 99.21523 59.52802 99.2134V79.37071"/>
<use data-text="a" xlink:href="#font_1_1" transform="matrix(9.9626,0,0,-9.962799,106.200008,108.575908)"/>
<use data-text="&#x2032;" xlink:href="#font_2_1" transform="matrix(6.9738,0,0,-6.97394,111.46601,104.96082)"/>
<path transform="matrix(1,0,0,-1.00002,80.466,185.26544)" stroke-width=".3985" stroke-linecap="butt" stroke-miterlimit="10" stroke-linejoin="miter" fill="none" stroke="#000000" d="M-79.37071 79.37071H-59.52802M-19.84267 79.37071 22.79063 79.37216M36.73845 79.37216 79.37071 79.37071"/>
<use data-text="b" xlink:href="#font_1_2" transform="matrix(9.9626,0,0,-9.962799,38.642,128.41931)"/>
<use data-text="a" xlink:href="#font_1_1" transform="matrix(9.9626,0,0,-9.962799,96.278,128.41931)"/>
<use data-text="&#x2032;" xlink:href="#font_2_1" transform="matrix(6.9738,0,0,-6.97394,101.54401,124.80422)"/>
<use data-text="b" xlink:href="#font_1_2" transform="matrix(9.9626,0,0,-9.962799,118.01401,128.41931)"/>
<path transform="matrix(1,0,0,-1.00002,80.466,185.26544)" stroke-width=".3985" stroke-linecap="butt" stroke-miterlimit="10" stroke-linejoin="miter" fill="none" stroke="#000000" d="M-59.52802 79.37071V59.52802L-46.65997 59.52911M-32.71216 59.52911-19.84267 59.52802V79.37071M0 79.37071V59.52802L12.86911 59.52911M26.81693 59.52911H32.71216M46.65997 59.52911 59.52802 59.52802V79.37071"/>
<use data-text="a" xlink:href="#font_1_1" transform="matrix(9.9626,0,0,-9.962799,57.990007,168.1061)"/>
<use data-text="b" xlink:href="#font_1_2" transform="matrix(9.9626,0,0,-9.962799,78.328,168.1061)"/>
<use data-text="c" xlink:href="#font_1_3" transform="matrix(9.9626,0,0,-9.962799,98.153,168.1061)"/>
<path transform="matrix(1,0,0,-1.00002,80.466,185.26544)" stroke-width=".3985" stroke-linecap="butt" stroke-miterlimit="10" stroke-linejoin="miter" fill="none" stroke="#000000" d="M-39.68535 0V19.84267L-26.81693 19.84302M-12.86911 19.84302H-6.9739M6.9739 19.84302H12.86911M26.81693 19.84302 39.68535 19.84267V0"/>
<use data-text="a" xlink:href="#font_1_1" transform="matrix(9.9626,0,0,-9.962799,56.592004,187.9495)"/>
<use data-text="&#x2032;" xlink:href="#font_2_1" transform="matrix(6.9738,0,0,-6.97394,61.85801,184.33441)"/>
<use data-text="b" xlink:href="#font_1_2" transform="matrix(9.9626,0,0,-9.962799,76.931,187.9495)"/>
<use data-text="&#x2032;" xlink:href="#font_2_1" transform="matrix(6.9738,0,0,-6.97394,81.20599,184.33441)"/>
<use data-text="c" xlink:href="#font_1_3" transform="matrix(9.9626,0,0,-9.962799,98.153,187.9495)"/>
<path transform="matrix(1,0,0,-1.00002,80.466,185.26544)" stroke-width=".3985" stroke-linecap="butt" stroke-miterlimit="10" stroke-linejoin="miter" fill="none" stroke="#000000" d="M-59.52802 0H-26.81693M-12.86911 0H-6.9739M6.9739 0H12.86911M26.81693 0H59.52802"/>
<use data-text="a" xlink:href="#font_1_1" transform="matrix(9.9626,0,0,-9.962799,57.990007,207.7929)"/>
<use data-text="b" xlink:href="#font_1_2" transform="matrix(9.9626,0,0,-9.962799,76.931,207.7929)"/>
<use data-text="&#x2032;" xlink:href="#font_2_1" transform="matrix(6.9738,0,0,-6.97394,81.20599,204.17781)"/>
<use data-text="c" xlink:href="#font_1_3" transform="matrix(9.9626,0,0,-9.962799,96.756008,207.7929)"/>
<use data-text="&#x2032;" xlink:href="#font_2_1" transform="matrix(6.9738,0,0,-6.97394,101.06701,204.17781)"/>
<path transform="matrix(1,0,0,-1.00002,80.466,185.26544)" stroke-width=".3985" stroke-linecap="butt" stroke-miterlimit="10" stroke-linejoin="miter" fill="none" stroke="#000000" d="M-39.68535 0V-19.84267L-26.81693-19.84302M-12.86911-19.84302H-6.9739M6.9739-19.84302H12.86911M26.81693-19.84302 39.68535-19.84267V0"/>
</svg>
