<svg xmlns="http://www.w3.org/2000/svg" xmlns:xlink="http://www.w3.org/1999/xlink" xmlns:inkscape="http://www.inkscape.org/namespaces/inkscape" version="1.1" width="154" height="161" viewBox="0 0 154 161">
<defs>
<path id="font_1_4" d="M.59298709 .06288147C.60598757 .04093933 .6459961 .0009918213 .6569977 .0009918213 .66600039 .0009918213 .66600039 .008987427 .66600039 .023986817V.19755554C.66600039 .23646546 .66999819 .24145508 .7350006 .24145508V.27246095C.69799807 .27145387 .6429901 .26945497 .61299136 .26945497 .57299807 .26945497 .48799134 .26945497 .45199586 .27246095V.24145508H.48399354C.57398989 .24145508 .57699587 .23048401 .57699587 .193573V.12973023C.57699587 .017532349 .44999696 .008529663 .42199708 .008529663 .35699464 .008529663 .15899658 .043518068 .15899658 .34155274 .15899658 .6410217 .35598756 .67407229 .41600038 .67407229 .522995 .67407229 .6139984 .5839386 .6339874 .43670655 .6359863 .42268373 .6359863 .41967774 .6499939 .41967774 .66600039 .41967774 .66600039 .42268373 .66600039 .44371034V.68107607C.66600039 .69807437 .66600039 .7050781 .6549988 .7050781 .651001 .7050781 .6469879 .7050781 .6389923 .69306948L.58898928 .61898806C.5569916 .6510315 .5029907 .7050781 .4039917 .7050781 .21798706 .7050781 .055999757 .546875 .055999757 .34155274 .055999757 .13648987 .21598816-.022460938 .4059906-.022460938 .47898866-.022003174 .5589905 .0039978029 .59298709 .06288147Z"/>
<path id="font_1_3" d="M.58200076 .6796112H.032989503V.64860537H.056991579C.13398743 .64860537 .13598633 .63760378 .13598633 .601593V.07791138C.13598633 .04197693 .13398743 .0309906 .056991579 .0309906H.032989503V0C.067993167 .0029907227 .1459961 .0029907227 .18499756 .0029907227 .22599793 .0029907227 .31698609 .0029907227 .35299684 0V.0309906H.31999208C.22499085 .0309906 .22499085 .04397583 .22499085 .0789032V.3244629H.31098939C.40699769 .3244629 .4169922 .29252626 .4169922 .20767212H.44198609V.47251893H.4169922C.4169922 .3884735 .40699769 .35546876 .31098939 .35546876H.22499085V.6085968C.22499085 .64160159 .22698975 .64860537 .27398683 .64860537H.3939972C.5439911 .64860537 .56900027 .5925751 .58499148 .45451356H.6100006L.58200076 .6796112Z"/>
<path id="font_1_1" d="M.33099366-.2400055C.33099366-.23701477 .33099366-.23500061 .31399537-.21800232 .18899536-.0920105 .15699768 .09700012 .15699768 .25 .15699768 .42399598 .19499207 .59799197 .31799317 .72299197 .33099366 .73498538 .33099366 .7369995 .33099366 .73999026 .33099366 .746994 .32699586 .75 .32099916 .75 .31098939 .75 .22099304 .6819916 .1619873 .5549927 .11099243 .44499208 .09899902 .33399964 .09899902 .25 .09899902 .17199707 .10998535 .050994874 .16499329-.06201172 .22499085-.18501282 .31098939-.25 .32099916-.25 .32699586-.25 .33099366-.24700928 .33099366-.2400055Z"/>
<path id="font_2_1" d="M.04499817-.122177127C.036987306-.15631104 .034988405-.16334534-.009002686-.16334534-.021011353-.16334534-.03201294-.16334534-.03201294-.18234253-.03201294-.19033814-.027008057-.19433594-.019012452-.19433594 .0079956059-.19433594 .036987306-.19134522 .06498718-.19134522 .09799194-.19134522 .13198853-.19433594 .1639862-.19433594 .16899109-.19433594 .18199158-.19433594 .18199158-.17434693 .18199158-.16334534 .17199707-.16334534 .1579895-.16334534 .10798645-.16334534 .10798645-.15631104 .10798645-.14727783 .10798645-.13523865 .1499939 .028259278 .15699768 .053268434 .16999817 .024261475 .19799805-.0107421879 .24899292-.0107421879 .36499024-.0107421879 .48999024 .13528443 .48999024 .28233338 .48999024 .37635804 .43299867 .4423828 .35699464 .4423828 .30699159 .4423828 .25898744 .40637208 .22599793 .36735536 .21598816 .42137147 .17298889 .4423828 .13598633 .4423828 .08999634 .4423828 .070999149 .4033661 .06199646 .38536073 .04399109 .35134889 .0309906 .29133607 .0309906 .28833009 .0309906 .27833558 .040985109 .27833558 .042999269 .27833558 .052993776 .27833558 .053985597 .2793274 .05999756 .30133058 .07699585 .37236024 .09700012 .42037965 .1329956 .42037965 .1499939 .42037965 .1639862 .41236878 .1639862 .37435914 .1639862 .35134889 .16099549 .3403473 .15699768 .323349L.04499817-.122177127M.22099304 .3123474C.22799683 .33935548 .25498963 .36735536 .272995 .38235475 .30799867 .41337586 .33699037 .42037965 .35398866 .42037965 .3939972 .42037965 .41799928 .38536073 .41799928 .32633973 .41799928 .26733399 .3849945 .15229798 .36698915 .11428833 .33299256 .044265748 .2849884 .011245728 .24798584 .011245728 .18199158 .011245728 .16899109 .0942688 .16899109 .10028076 .16899109 .10227966 .16899109 .104278568 .17199707 .11628723L.22099304 .3123474Z"/>
<path id="font_3_2" d="M.5049896 .18203736H.47099305C.46798707 .16001892 .45799256 .100997928 .44499208 .09098816 .43699647 .084991458 .3600006 .084991458 .34599305 .084991458H.1619873C.2669983 .17803955 .3019867 .20603943 .3619995 .25306703 .43598939 .312088 .5049896 .374115 .5049896 .46914674 .5049896 .5900879 .39898683 .6640625 .2709961 .6640625 .14698792 .6640625 .06298828 .57710269 .06298828 .4851532 .06298828 .43414308 .10598755 .42915345 .115997318 .42915345 .13999939 .42915345 .16899109 .44615174 .16899109 .48214723 .16899109 .5001526 .1619873 .53515627 .10998535 .53515627 .14099121 .6060791 .20899964 .62805178 .2559967 .62805178 .35598756 .62805178 .4079895 .5501404 .4079895 .46914674 .4079895 .38212586 .34599305 .3130951 .31399537 .27708436L.07299805 .038986207C.06298828 .02999878 .06298828 .027999878 .06298828 0H.47499085L.5049896 .18203736Z"/>
<path id="font_3_4" d="M.5289917 .1640625V.20005799H.41799928V.64582827C.41799928 .66682437 .41799928 .6738281 .3959961 .6738281 .38398744 .6738281 .37998963 .6738281 .36999513 .65982058L.038986207 .20005799V.1640625H.33299256V.08201599C.33299256 .04800415 .33299256 .035995485 .2519989 .035995485H.22499085V0C.2749939 .0019989014 .33898927 .0039978029 .375 .0039978029 .4119873 .0039978029 .47599793 .0019989014 .526001 0V.035995485H.49899293C.41799928 .035995485 .41799928 .04800415 .41799928 .08201599V.1640625H.5289917M.33999635 .5658722V.20005799H.07598877L.33999635 .5658722Z"/>
<path id="font_1_2" d="M.2889862 .25C.2889862 .32798768 .27799989 .44898988 .22299195 .56199648 .16299439 .68499758 .07699585 .75 .066986087 .75 .06098938 .75 .056991579 .74598696 .056991579 .73999026 .056991579 .7369995 .056991579 .73498538 .07598877 .71699526 .17399597 .6179962 .23098755 .45899964 .23098755 .25 .23098755 .07899475 .19400025-.09700012 .069992069-.2230072 .056991579-.23500061 .056991579-.23701477 .056991579-.2400055 .056991579-.2460022 .06098938-.25 .066986087-.25 .07699585-.25 .16699219-.18200684 .22599793-.055007936 .2769928 .054992677 .2889862 .16600037 .2889862 .25Z"/>
<path id="font_3_6" d="M.35499574 .36123658C.43299867 .3992157 .48298646 .44618226 .48298646 .5151367 .48298646 .6120758 .38198854 .6640625 .2849884 .6640625 .1749878 .6640625 .084991458 .5920868 .084991458 .4971466 .084991458 .45018006 .10699463 .41619874 .125 .39620973 .14299011 .37522889 .1499939 .37123109 .20899964 .33624269 .15299988 .31227113 .053985597 .25830079 .053985597 .15336609 .053985597 .042434694 .16899109-.01953125 .2829895-.01953125 .4099884-.01953125 .5139923 .061431886 .5139923 .1693573 .5139923 .23532105 .47499085 .29127503 .4169922 .32525636 .4039917 .33325196 .36898805 .35324098 .35499574 .36123658M.19198609 .45617677C.1659851 .4711609 .13798523 .49813844 .13798523 .53512576 .13798523 .5980835 .21099854 .63505557 .2829895 .63505557 .36099244 .63505557 .42999269 .5860901 .42999269 .5151367 .42999269 .42619325 .32598878 .3812256 .32398988 .3812256 .32199098 .3812256 .31999208 .3822174 .31298829 .3862152L.19198609 .45617677M.24099732 .31726075 .37799073 .23831177C.4039917 .22332764 .45399476 .19334412 .45399476 .13438416 .45399476 .059432985 .37098695 .012466431 .2849884 .012466431 .19299317 .012466431 .11399841 .07142639 .11399841 .15336609 .11399841 .22732544 .16899109 .2842865 .24099732 .31726075Z"/>
<path id="font_3_1" d="M.33499146 .63612368C.33499146 .6630554 .33299256 .6640625 .30499269 .6640625 .24099732 .6014404 .1499939 .6004486 .10899353 .6004486V.5644531C.1329956 .5644531 .19898987 .5644531 .2539978 .592453V.08203125C.2539978 .04899597 .2539978 .035995485 .1539917 .035995485H.115997318V0C.13398743 .0009918213 .25698854 .0039978029 .2939911 .0039978029 .32499696 .0039978029 .45098878 .0009918213 .47299195 0V.035995485H.43499757C.33499146 .035995485 .33499146 .04899597 .33499146 .08203125V.63612368Z"/>
<path id="font_3_5" d="M.1499939 .3274536C.1499939 .40945436 .15699768 .48303224 .19499207 .543869 .22898865 .5978699 .2829895 .63505557 .34700013 .63505557 .3769989 .63505557 .4169922 .62701418 .43699647 .5998688 .4119873 .5978699 .3909912 .5808716 .3909912 .5518799 .3909912 .5268707 .4079895 .5048828 .43798829 .5048828 .46798707 .5048828 .48599244 .5248718 .48599244 .5538788 .48599244 .6119385 .44400025 .6640625 .34498597 .6640625 .20098877 .6640625 .053985597 .5318756 .053985597 .3174591 .053985597 .05845642 .17599488-.01953125 .28599549-.01953125 .4079895-.01953125 .5139923 .07345581 .5139923 .20445252 .5139923 .33145143 .41299439 .42546083 .29599 .42546083 .21598816 .42546083 .17199707 .37245179 .1499939 .3274536M.28599549 .012466431C.23599243 .012466431 .19699097 .04145813 .17599488 .08546448 .16099549 .11546326 .15299988 .16545105 .15299988 .22544861 .15299988 .32244874 .21099854 .39746095 .29100038 .39746095 .33699037 .39746095 .36799623 .37945558 .3929901 .342453 .4169922 .30445863 .41799928 .26245118 .41799928 .20445252 .41799928 .14746094 .41799928 .10545349 .3909912 .066467288 .36698915 .031463624 .33499146 .012466431 .28599549 .012466431Z"/>
<path id="font_3_3" d="M.272995 .33428956C.35099793 .33428956 .40699769 .2803192 .40699769 .1733551 .40699769 .04940796 .33499146 .012466431 .2769928 .012466431 .23699951 .012466431 .14898682 .0234375 .10699463 .082351688 .1539917 .084350589 .16499329 .11735535 .16499329 .13835144 .16499329 .17034912 .14099121 .19335938 .10998535 .19335938 .08198547 .19335938 .053985597 .17634583 .053985597 .13534546 .053985597 .041412355 .1579895-.01953125 .2789917-.01953125 .41799928-.01953125 .5139923 .07336426 .5139923 .1733551 .5139923 .2513275 .44999696 .32929994 .33999635 .35229493 .44499208 .39024354 .48298646 .4650879 .48298646 .5260773 .48298646 .60505679 .3919983 .6640625 .2809906 .6640625 .16999817 .6640625 .084991458 .61006167 .084991458 .5300751 .084991458 .49606324 .10699463 .47706605 .13699341 .47706605 .16799927 .47706605 .18798828 .5000763 .18798828 .5280762 .18798828 .5570679 .16799927 .57806399 .13699341 .5800781 .17199707 .62405398 .24099732 .63505557 .27799989 .63505557 .32299806 .63505557 .38598634 .6130676 .38598634 .5260773 .38598634 .48406983 .37199403 .43814088 .34599305 .4072113 .31298829 .36927796 .2849884 .3672943 .23498535 .36428834 .20999146 .3623047 .20799256 .3623047 .20298767 .3612976 .20098877 .3612976 .19299317 .3592987 .19299317 .34829713 .19299317 .33428956 .20199585 .33428956 .21899414 .33428956H.272995Z"/>
</defs>
<use data-text="G" xlink:href="#font_1_4" transform="matrix(9.962899,0,0,-9.963397,58.761316,10.028763)"/>
<use data-text="F" xlink:href="#font_1_3" transform="matrix(9.962899,0,0,-9.963397,66.58219,10.028763)"/>
<use data-text="(" xlink:href="#font_1_1" transform="matrix(9.962899,0,0,-9.963397,73.087978,10.028763)"/>
<use data-text="p" xlink:href="#font_2_1" transform="matrix(9.962899,0,0,-9.963397,76.95786,10.028763)"/>
<use data-text="2" xlink:href="#font_3_2" transform="matrix(6.9740097,0,0,-6.974358,81.971019,6.413475)"/>
<use data-text="4" xlink:href="#font_3_4" transform="matrix(6.9740097,0,0,-6.974358,85.93922,6.413475)"/>
<use data-text=")" xlink:href="#font_1_2" transform="matrix(9.962899,0,0,-9.963397,90.41126,10.028763)"/>
<use data-text="G" xlink:href="#font_1_4" transform="matrix(9.962899,0,0,-9.963397,1.2165833,43.76446)"/>
<use data-text="F" xlink:href="#font_1_3" transform="matrix(9.962899,0,0,-9.963397,9.03746,43.76446)"/>
<use data-text="(" xlink:href="#font_1_1" transform="matrix(9.962899,0,0,-9.963397,15.543243,43.76446)"/>
<use data-text="p" xlink:href="#font_2_1" transform="matrix(9.962899,0,0,-9.963397,19.413132,43.76446)"/>
<use data-text="8" xlink:href="#font_3_6" transform="matrix(6.9740097,0,0,-6.974358,24.426285,40.149175)"/>
<use data-text=")" xlink:href="#font_1_2" transform="matrix(9.962899,0,0,-9.963397,28.895401,43.76446)"/>
<use data-text="G" xlink:href="#font_1_4" transform="matrix(9.962899,0,0,-9.963397,118.2921,43.76446)"/>
<use data-text="F" xlink:href="#font_1_3" transform="matrix(9.962899,0,0,-9.963397,126.112979,43.76446)"/>
<use data-text="(" xlink:href="#font_1_1" transform="matrix(9.962899,0,0,-9.963397,132.61876,43.76446)"/>
<use data-text="p" xlink:href="#font_2_1" transform="matrix(9.962899,0,0,-9.963397,136.48865,43.76446)"/>
<use data-text="1" xlink:href="#font_3_1" transform="matrix(6.9740097,0,0,-6.974358,141.5018,40.149175)"/>
<use data-text="2" xlink:href="#font_3_2" transform="matrix(6.9740097,0,0,-6.974358,145.47,40.149175)"/>
<use data-text=")" xlink:href="#font_1_2" transform="matrix(9.962899,0,0,-9.963397,149.94205,43.76446)"/>
<use data-text="G" xlink:href="#font_1_4" transform="matrix(9.962899,0,0,-9.963397,1.2165833,83.453639)"/>
<use data-text="F" xlink:href="#font_1_3" transform="matrix(9.962899,0,0,-9.963397,9.03746,83.453639)"/>
<use data-text="(" xlink:href="#font_1_1" transform="matrix(9.962899,0,0,-9.963397,15.543243,83.453639)"/>
<use data-text="p" xlink:href="#font_2_1" transform="matrix(9.962899,0,0,-9.963397,19.413132,83.453639)"/>
<use data-text="4" xlink:href="#font_3_4" transform="matrix(6.9740097,0,0,-6.974358,24.426285,79.83835)"/>
<use data-text=")" xlink:href="#font_1_2" transform="matrix(9.962899,0,0,-9.963397,28.895401,83.453639)"/>
<use data-text="G" xlink:href="#font_1_4" transform="matrix(9.962899,0,0,-9.963397,120.27817,83.453639)"/>
<use data-text="F" xlink:href="#font_1_3" transform="matrix(9.962899,0,0,-9.963397,128.09905,83.453639)"/>
<use data-text="(" xlink:href="#font_1_1" transform="matrix(9.962899,0,0,-9.963397,134.60483,83.453639)"/>
<use data-text="p" xlink:href="#font_2_1" transform="matrix(9.962899,0,0,-9.963397,138.47472,83.453639)"/>
<use data-text="6" xlink:href="#font_3_5" transform="matrix(6.9740097,0,0,-6.974358,143.48787,79.83835)"/>
<use data-text=")" xlink:href="#font_1_2" transform="matrix(9.962899,0,0,-9.963397,147.95699,83.453639)"/>
<use data-text="G" xlink:href="#font_1_4" transform="matrix(9.962899,0,0,-9.963397,1.2165833,123.14381)"/>
<use data-text="F" xlink:href="#font_1_3" transform="matrix(9.962899,0,0,-9.963397,9.03746,123.14381)"/>
<use data-text="(" xlink:href="#font_1_1" transform="matrix(9.962899,0,0,-9.963397,15.543243,123.14381)"/>
<use data-text="p" xlink:href="#font_2_1" transform="matrix(9.962899,0,0,-9.963397,19.413132,123.14381)"/>
<use data-text="2" xlink:href="#font_3_2" transform="matrix(6.9740097,0,0,-6.974358,24.426285,119.52852)"/>
<use data-text=")" xlink:href="#font_1_2" transform="matrix(9.962899,0,0,-9.963397,28.895401,123.14381)"/>
<use data-text="G" xlink:href="#font_1_4" transform="matrix(9.962899,0,0,-9.963397,120.27817,123.14381)"/>
<use data-text="F" xlink:href="#font_1_3" transform="matrix(9.962899,0,0,-9.963397,128.09905,123.14381)"/>
<use data-text="(" xlink:href="#font_1_1" transform="matrix(9.962899,0,0,-9.963397,134.60483,123.14381)"/>
<use data-text="p" xlink:href="#font_2_1" transform="matrix(9.962899,0,0,-9.963397,138.47472,123.14381)"/>
<use data-text="3" xlink:href="#font_3_3" transform="matrix(6.9740097,0,0,-6.974358,143.48787,119.52852)"/>
<use data-text=")" xlink:href="#font_1_2" transform="matrix(9.962899,0,0,-9.963397,147.95699,123.14381)"/>
<use data-text="G" xlink:href="#font_1_4" transform="matrix(9.962899,0,0,-9.963397,62.982446,156.56049)"/>
<use data-text="F" xlink:href="#font_1_3" transform="matrix(9.962899,0,0,-9.963397,70.80332,156.56049)"/>
<use data-text="(" xlink:href="#font_1_1" transform="matrix(9.962899,0,0,-9.963397,77.309108,156.56049)"/>
<use data-text="p" xlink:href="#font_2_1" transform="matrix(9.962899,0,0,-9.963397,81.17899,156.56049)"/>
<use data-text=")" xlink:href="#font_1_2" transform="matrix(9.962899,0,0,-9.963397,86.19215,156.56049)"/>
<path transform="matrix(1.00003,0,0,-1.00008,76.52385,80.64441)" stroke-width=".3985" stroke-linecap="butt" stroke-miterlimit="10" stroke-linejoin="miter" fill="none" stroke="#000000" d="M-24.40868 73.41919-59.52911 50.14693"/>
<path transform="matrix(1.00003,0,0,-1.00008,76.52385,80.64441)" stroke-width=".3985" stroke-linecap="butt" stroke-miterlimit="10" stroke-linejoin="miter" fill="none" stroke="#000000" d="M24.40868 73.41919 59.52911 50.14693"/>
<path transform="matrix(1.00003,0,0,-1.00008,76.52385,80.64441)" stroke-width=".3985" stroke-linecap="butt" stroke-miterlimit="10" stroke-linejoin="miter" fill="none" stroke="#000000" d="M-59.52911 29.2252V10.46086"/>
<path transform="matrix(1.00003,0,0,-1.00008,76.52385,80.64441)" stroke-width=".3985" stroke-linecap="butt" stroke-miterlimit="10" stroke-linejoin="miter" fill="none" stroke="#000000" d="M59.52911 29.2252V10.46086"/>
<path transform="matrix(1.00003,0,0,-1.00008,76.52385,80.64441)" stroke-width=".3985" stroke-linecap="butt" stroke-miterlimit="10" stroke-linejoin="miter" fill="none" stroke="#000000" d="M35.12044 39.68607-35.12044 0"/>
<path transform="matrix(1.00003,0,0,-1.00008,76.52385,80.64441)" stroke-width=".3985" stroke-linecap="butt" stroke-miterlimit="10" stroke-linejoin="miter" fill="none" stroke="#000000" d="M-59.52911-10.46086V-29.2252"/>
<path transform="matrix(1.00003,0,0,-1.00008,76.52385,80.64441)" stroke-width=".3985" stroke-linecap="butt" stroke-miterlimit="10" stroke-linejoin="miter" fill="none" stroke="#000000" d="M59.52911-10.46086V-29.2252"/>
<path transform="matrix(1.00003,0,0,-1.00008,76.52385,80.64441)" stroke-width=".3985" stroke-linecap="butt" stroke-miterlimit="10" stroke-linejoin="miter" fill="none" stroke="#000000" d="M35.12044 0-35.12044-39.68607"/>
<path transform="matrix(1.00003,0,0,-1.00008,76.52385,80.64441)" stroke-width=".3985" stroke-linecap="butt" stroke-miterlimit="10" stroke-linejoin="miter" fill="none" stroke="#000000" d="M-59.52911-50.14693-24.40868-73.41919"/>
<path transform="matrix(1.00003,0,0,-1.00008,76.52385,80.64441)" stroke-width=".3985" stroke-linecap="butt" stroke-miterlimit="10" stroke-linejoin="miter" fill="none" stroke="#000000" d="M59.52911-50.14693 24.40868-73.41919"/>
</svg>
