<svg xmlns="http://www.w3.org/2000/svg" xmlns:xlink="http://www.w3.org/1999/xlink" xmlns:inkscape="http://www.inkscape.org/namespaces/inkscape" version="1.1" width="120" height="104" viewBox="0 0 120 104">
<defs>
<path id="font_1_1" d="M.2829895 .6169281C.2829895 .6569519 .30899049 .72099307 .41799928 .7279968 .4229889 .72898867 .4269867 .73298647 .4269867 .7389984 .4269867 .75 .4189911 .75 .4079895 .75 .30799867 .75 .21699524 .6989746 .21598816 .62493899V.3968048C.21598816 .3577881 .21598816 .32577516 .17599488 .29275514 .14099121 .2637329 .102996829 .261734 .08099365 .2607422 .07598877 .2597351 .07199097 .2557373 .07199097 .2497406 .07199097 .23973084 .07798767 .23973084 .08799744 .23873902 .1539917 .23474121 .20199585 .19876099 .21299744 .14978028 .21598816 .13879395 .21598816 .13679505 .21598816 .10081482V-.097076419C.21598816-.13905335 .21598816-.17103577 .2639923-.2090149 .30299378-.23901367 .36898805-.25 .4079895-.25 .4189911-.25 .4269867-.25 .4269867-.23901367 .4269867-.2290039 .42099-.2290039 .41099549-.22801209 .34799195-.22401428 .29899598-.19203186 .28599549-.14105225 .2829895-.13206482 .2829895-.13006592 .2829895-.09408569V.11579895C.2829895 .16177368 .2749939 .17877198 .24299622 .2107544 .22200012 .23173523 .19299317 .24172974 .16499329 .2497406 .24699402 .2727356 .2829895 .31877137 .2829895 .37680055V.6169281Z"/>
<path id="font_2_2" d="M.1769867 .4423828 .036987306 .43138124V.40037538C.101989749 .40037538 .11099243 .3943634 .11099243 .34532167V.076034549C.11099243 .0309906 .099990848 .0309906 .032989503 .0309906V0C.06498718 .0009918213 .11898804 .0029907227 .14299011 .0029907227 .17799378 .0029907227 .21299744 .0009918213 .24699402 0V.0309906C.18099976 .0309906 .1769867 .035995485 .1769867 .075042728V.4423828M.18099976 .6159363C.18099976 .64793398 .1559906 .6689453 .12799073 .6689453 .09700012 .6689453 .07499695 .64193728 .07499695 .6159363 .07499695 .5889435 .09700012 .5629425 .12799073 .5629425 .1559906 .5629425 .18099976 .5839386 .18099976 .6159363Z"/>
<path id="font_2_1" d="M.37998963 .055252077V-.0107421879L.5269928 .00024414063V.03125C.45700074 .03125 .44898988 .038253786 .44898988 .087265018V.69433596L.30499269 .68333438V.6523285C.375 .6523285 .3829956 .6453247 .3829956 .596344V.38035584C.35398866 .41636659 .31098939 .4423828 .25698854 .4423828 .13899231 .4423828 .033996583 .3443451 .033996583 .21531677 .033996583 .088272098 .13198853-.0107421879 .24598694-.0107421879 .30999757-.0107421879 .35499574 .023254395 .37998963 .055252077M.37998963 .323349V.118270877C.37998963 .1002655 .37998963 .0982666 .36898805 .08126831 .33898927 .0332489 .2939911 .011245728 .25099183 .011245728 .20599365 .011245728 .16999817 .037246705 .1459961 .07527161 .11999512 .11627197 .116989139 .17329407 .116989139 .21430969 .116989139 .25131227 .11898804 .31134034 .147995 .35635377 .16899109 .38735963 .20698548 .42037965 .26098634 .42037965 .29599 .42037965 .33799745 .405365 .36898805 .36035157 .37998963 .34335328 .37998963 .34135438 .37998963 .323349Z"/>
<path id="font_3_4" d="M.20298767 .0009918213C.20298767 .066986087 .17799378 .10598755 .13899231 .10598755 .10598755 .10598755 .085998538 .08099365 .085998538 .052993776 .085998538 .025985718 .10598755 0 .13899231 0 .15098572 0 .1639862 .0039978029 .17399597 .0129852299 .1769867 .01499939 .17799378 .015991211 .1789856 .015991211 .17999268 .015991211 .18099976 .01499939 .18099976 .0009918213 .18099976-.07316589 .1459961-.13328552 .11299133-.16635132 .101989749-.17736817 .101989749-.17936707 .101989749-.18237305 .101989749-.18936157 .10699463-.19335938 .11199951-.19335938 .12298584-.19335938 .20298767-.116256717 .20298767 .0009918213Z"/>
<path id="font_3_2" d="M.5179901 .37265016C.5309906 .37265016 .5669861 .37265016 .5669861 .406662 .5669861 .43066407 .54599 .43066407 .5279999 .43066407H.2999878C.14898682 .43066407 .037994386 .26583863 .037994386 .14703369 .037994386 .059173585 .09700012-.0107421879 .18798828-.0107421879 .30599977-.0107421879 .43899537 .11009216 .43899537 .26383973 .43899537 .2808075 .43899537 .32873536 .4079895 .37265016H.5179901M.18899536 .011245728C.13999939 .011245728 .099990848 .047195436 .099990848 .11907959 .099990848 .14901734 .11199951 .230896 .14698792 .28979493 .18899536 .3586731 .24899292 .37265016 .2829895 .37265016 .36698915 .37265016 .375 .3067627 .375 .27581788 .375 .2288971 .35499574 .14703369 .32099916 .09611511 .28199769 .037200929 .22799683 .011245728 .18899536 .011245728Z"/>
<path id="font_3_3" d="M.2939911 .37265016H.46199037C.47499085 .37265016 .5109863 .37265016 .5109863 .406662 .5109863 .43066407 .48999024 .43066407 .47099305 .43066407H.19099427C.17098999 .43066407 .13198853 .43066407 .08799744 .38365174 .054992677 .34770204 .026992798 .29977418 .026992798 .29379273 .026992798 .29278565 .026992798 .28381349 .038986207 .28381349 .04699707 .28381349 .04899597 .28779603 .054992677 .29579164 .10398865 .37265016 .16099549 .37265016 .18199158 .37265016H.2649994L.16699219 .052200319C.16299439 .040222169 .15699768 .019256592 .15699768 .015258789 .15699768 .004272461 .1639862-.01171875 .18598938-.01171875 .21899414-.01171875 .22399903 .01626587 .22698975 .031234742L.2939911 .37265016Z"/>
<path id="font_3_1" d="M.23098755 .35134889C.23599243 .37236024 .24598694 .41036988 .24598694 .41537477 .24598694 .43237306 .23399353 .4423828 .21699524 .4423828 .21398926 .4423828 .18598938 .44137574 .1769867 .40637208L.032989503-.17282105C.02999878-.18482971 .02999878-.18682862 .02999878-.18882752 .02999878-.2038269 .040985109-.21582031 .057998659-.21582031 .07899475-.21582031 .09098816-.1978302 .09298706-.19482422 .09700012-.18582154 .10998535-.13380432 .147995 .020248414 .17999268-.0067443849 .22499085-.0107421879 .24499512-.0107421879 .31498719-.0107421879 .35398866 .03425598 .37799073 .06227112 .3869934 .01725769 .42399598-.0107421879 .46798707-.0107421879 .5029907-.0107421879 .526001 .012252808 .5419922 .044265748 .5589905 .08027649 .57199099 .14129639 .57199099 .14329529 .57199099 .1532898 .5629883 .1532898 .55999758 .1532898 .5499878 .1532898 .548996 .14929199 .54599 .13528443 .5289917 .07026672 .5109863 .011245728 .46998597 .011245728 .44299317 .011245728 .43998719 .037261964 .43998719 .057266237 .43998719 .07926941 .45199586 .12628174 .45999146 .16130066L.48799134 .2693329C.4909973 .28433229 .5009918 .32234193 .5049896 .3373413 .5099945 .36035157 .519989 .3983612 .519989 .40437318 .519989 .42237855 .5059967 .43138124 .4909973 .43138124 .48599244 .43138124 .45999146 .43037416 .45199586 .3963623L.40499879 .20930481C.3929901 .15930176 .38198854 .11727905 .3789978 .107284549 .37799073 .10227966 .32998658 .011245728 .24899292 .011245728 .19898987 .011245728 .1749878 .044265748 .1749878 .09828186 .1749878 .12728882 .18199158 .1552887 .18899536 .18330384L.23098755 .35134889Z"/>
<path id="font_1_2" d="M.21598816-.11706543C.21598816-.15704346 .18998719-.2210083 .08099365-.22801209 .07598877-.2290039 .07199097-.23300171 .07199097-.23901367 .07199097-.25 .08299255-.25 .09199524-.25 .18899536-.25 .28199769-.20101929 .2829895-.12506104V.10282898C.2829895 .14179993 .2829895 .17378235 .32299806 .20677185 .35798646 .23576355 .3959961 .23776245 .41799928 .23875427 .4229889 .23976135 .4269867 .24375916 .4269867 .24975586 .4269867 .25976563 .42099 .25976563 .41099549 .26075746 .34498597 .26475526 .29699708 .30078126 .28599549 .34980775 .2829895 .36080934 .2829895 .36280824 .2829895 .39883424V.5969238C.2829895 .63894656 .2829895 .6709595 .23498535 .7089844 .19499207 .73999026 .12599182 .75 .09199524 .75 .08299255 .75 .07199097 .75 .07199097 .7389984 .07199097 .72898867 .07798767 .72898867 .08799744 .72798159 .15098572 .72398379 .19999695 .6919708 .21299744 .64094546 .21598816 .63194277 .21598816 .62994387 .21598816 .59391787V.38381959C.21598816 .33779908 .22399903 .32078553 .2559967 .28877259 .2769928 .26776124 .30599977 .25775147 .33399964 .24975586 .2519989 .22676087 .21598816 .18078614 .21598816 .12281799V-.11706543Z"/>
</defs>
<use data-text="{" xlink:href="#font_1_1" transform="matrix(9.9626,0,0,-9.9626,35.956995,9.391998)"/>
<use data-text="i" xlink:href="#font_2_2" transform="matrix(9.9626,0,0,-9.9626,40.937997,9.391998)"/>
<use data-text="d" xlink:href="#font_2_1" transform="matrix(9.9626,0,0,-9.9626,43.707597,9.391998)"/>
<use data-text="," xlink:href="#font_3_4" transform="matrix(9.9626,0,0,-9.9626,49.239999,9.391998)"/>
<use data-text="&#x03c3;" xlink:href="#font_3_2" transform="matrix(9.9626,0,0,-9.9626,53.66339,9.391998)"/>
<use data-text="," xlink:href="#font_3_4" transform="matrix(9.9626,0,0,-9.9626,59.172708,9.391998)"/>
<use data-text="&#x03c4;" xlink:href="#font_3_3" transform="matrix(9.9626,0,0,-9.9626,63.586137,9.391998)"/>
<use data-text="," xlink:href="#font_3_4" transform="matrix(9.9626,0,0,-9.9626,68.517627,9.391998)"/>
<use data-text="&#x00b5;" xlink:href="#font_3_1" transform="matrix(9.9626,0,0,-9.9626,72.941028,9.391998)"/>
<use data-text="}" xlink:href="#font_1_2" transform="matrix(9.9626,0,0,-9.9626,78.953,9.391998)"/>
<use data-text="{" xlink:href="#font_1_1" transform="matrix(9.9626,0,0,-9.9626,.21699524,54.75)"/>
<use data-text="i" xlink:href="#font_2_2" transform="matrix(9.9626,0,0,-9.9626,5.197998,54.75)"/>
<use data-text="d" xlink:href="#font_2_1" transform="matrix(9.9626,0,0,-9.9626,7.967598,54.75)"/>
<use data-text="," xlink:href="#font_3_4" transform="matrix(9.9626,0,0,-9.9626,13.5,54.75)"/>
<use data-text="&#x03c3;" xlink:href="#font_3_2" transform="matrix(9.9626,0,0,-9.9626,17.923394,54.75)"/>
<use data-text="}" xlink:href="#font_1_2" transform="matrix(9.9626,0,0,-9.9626,23.977997,54.75)"/>
<use data-text="{" xlink:href="#font_1_1" transform="matrix(9.9626,0,0,-9.9626,45.857995,54.75)"/>
<use data-text="i" xlink:href="#font_2_2" transform="matrix(9.9626,0,0,-9.9626,50.838998,54.75)"/>
<use data-text="d" xlink:href="#font_2_1" transform="matrix(9.9626,0,0,-9.9626,53.608598,54.75)"/>
<use data-text="," xlink:href="#font_3_4" transform="matrix(9.9626,0,0,-9.9626,59.141,54.75)"/>
<use data-text="&#x03c4;" xlink:href="#font_3_3" transform="matrix(9.9626,0,0,-9.9626,63.564393,54.75)"/>
<use data-text="}" xlink:href="#font_1_2" transform="matrix(9.9626,0,0,-9.9626,69.052,54.75)"/>
<use data-text="{" xlink:href="#font_1_1" transform="matrix(9.9626,0,0,-9.9626,90.95599,54.75)"/>
<use data-text="i" xlink:href="#font_2_2" transform="matrix(9.9626,0,0,-9.9626,95.937,54.75)"/>
<use data-text="d" xlink:href="#font_2_1" transform="matrix(9.9626,0,0,-9.9626,98.7066,54.75)"/>
<use data-text="," xlink:href="#font_3_4" transform="matrix(9.9626,0,0,-9.9626,104.239,54.75)"/>
<use data-text="&#x00b5;" xlink:href="#font_3_1" transform="matrix(9.9626,0,0,-9.9626,108.66239,54.75)"/>
<use data-text="}" xlink:href="#font_1_2" transform="matrix(9.9626,0,0,-9.9626,114.67,54.75)"/>
<use data-text="{" xlink:href="#font_1_1" transform="matrix(9.9626,0,0,-9.9626,50.813997,100.106998)"/>
<use data-text="i" xlink:href="#font_2_2" transform="matrix(9.9626,0,0,-9.9626,55.795,100.106998)"/>
<use data-text="d" xlink:href="#font_2_1" transform="matrix(9.9626,0,0,-9.9626,58.564599,100.106998)"/>
<use data-text="}" xlink:href="#font_1_2" transform="matrix(9.9626,0,0,-9.9626,64.097,100.106998)"/>
<path transform="matrix(1,0,0,-1,14.588997,52.259)" stroke-width=".3985" stroke-linecap="butt" stroke-miterlimit="10" stroke-linejoin="miter" fill="none" stroke="#000000" d="M45.35742 37.38718V7.97023"/>
<path transform="matrix(1,0,0,-1,14.588997,52.259)" stroke-width=".3985" stroke-linecap="butt" stroke-miterlimit="10" stroke-linejoin="miter" fill="none" stroke="#000000" d="M45.35742-7.97023V-37.38718"/>
<path transform="matrix(1,0,0,-1,14.588997,52.259)" stroke-width=".3985" stroke-linecap="butt" stroke-miterlimit="10" stroke-linejoin="miter" fill="none" stroke="#000000" d="M37.38718 37.38718 0 7.97023"/>
<path transform="matrix(1,0,0,-1,14.588997,52.259)" stroke-width=".3985" stroke-linecap="butt" stroke-miterlimit="10" stroke-linejoin="miter" fill="none" stroke="#000000" d="M53.32767 37.38718 90.71487 7.97023"/>
<path transform="matrix(1,0,0,-1,14.588997,52.259)" stroke-width=".3985" stroke-linecap="butt" stroke-miterlimit="10" stroke-linejoin="miter" fill="none" stroke="#000000" d="M0-7.97023 37.38718-37.38718"/>
<path transform="matrix(1,0,0,-1,14.588997,52.259)" stroke-width=".3985" stroke-linecap="butt" stroke-miterlimit="10" stroke-linejoin="miter" fill="none" stroke="#000000" d="M90.71487-7.97023 53.32767-37.38718"/>
</svg>
