<svg xmlns="http://www.w3.org/2000/svg" xmlns:xlink="http://www.w3.org/1999/xlink" xmlns:inkscape="http://www.inkscape.org/namespaces/inkscape" version="1.1" width="256" height="396" viewBox="0 0 256 396">
<defs>
<path id="font_1_3" d="M.1789856 .114868167C.13899231 .047973634 .099990848 .033981325 .055999757 .0309906 .04399109 .02999878 .034988405 .02999878 .034988405 .010986328 .034988405 .004989624 .039993287 0 .04798889 0 .07499695 0 .10598755 .0029907227 .13398743 .0029907227 .16699219 .0029907227 .20199585 0 .23399353 0 .23999024 0 .25299073 0 .25299073 .018997193 .25299073 .02999878 .24398804 .0309906 .23699951 .0309906 .21398926 .032989503 .18998719 .04096985 .18998719 .06593323 .18998719 .077926639 .19599915 .088897708 .20399475 .102890018L.27999879 .23068238H.5309906C.5329895 .2097168 .5469971 .07392883 .5469971 .063949588 .5469971 .033981325 .49499513 .0309906 .47499085 .0309906 .46099855 .0309906 .45098878 .0309906 .45098878 .010986328 .45098878 0 .46299745 0 .46499635 0 .5059967 0 .548996 .0029907227 .58999636 .0029907227 .61499026 .0029907227 .6779938 0 .7029877 0 .70899966 0 .72099307 0 .72099307 .019989014 .72099307 .0309906 .71099856 .0309906 .69799807 .0309906 .6359863 .0309906 .6359863 .037979127 .6329956 .06694031L.57199099 .691803C.56999209 .71180728 .56999209 .7158203 .5529938 .7158203 .5369873 .7158203 .5329895 .7088165 .5269928 .69880679L.1789856 .114868167M.29899598 .26168824 .49598695 .5917816 .5279999 .26168824H.29899598Z"/>
<path id="font_1_4" d="M.1599884 .07795715C.1499939 .038986207 .147995 .0309906 .068984989 .0309906 .051986696 .0309906 .041992189 .0309906 .041992189 .010986328 .041992189 0 .050994874 0 .068984989 0H.42599488C.58399966 0 .70199587 .11791992 .70199587 .21585083 .70199587 .28778077 .6439972 .3457489 .5469971 .35673524 .651001 .37573243 .7559967 .44970704 .7559967 .5446625 .7559967 .6186218 .6899872 .6826172 .56999209 .6826172H.23399353C.21499634 .6826172 .20498657 .6826172 .20498657 .6626129 .20498657 .6516113 .21398926 .6516113 .23298645 .6516113 .23498535 .6516113 .2539978 .6516113 .2709961 .6496124 .2889862 .6476135 .2979889 .64660647 .2979889 .6336212 .2979889 .6296234 .29699708 .62661746 .2939911 .614624L.1599884 .07795715M.31098939 .36573792 .37298585 .6136322C.38198854 .64860537 .38398744 .6516113 .4269867 .6516113H.55599978C.6439972 .6516113 .6649933 .5926361 .6649933 .5486603 .6649933 .46069337 .57899478 .36573792 .45700074 .36573792H.31098939M.2659912 .0309906C.2519989 .0309906 .25 .0309906 .24398804 .03199768 .23399353 .032989503 .23098755 .033996583 .23098755 .04197693 .23098755 .04498291 .23098755 .04698181 .23599243 .064971927L.30499269 .34375H.49398805C.58999636 .34375 .60899356 .2698059 .60899356 .22683716 .60899356 .12791443 .519989 .0309906 .4019928 .0309906H.2659912Z"/>
<path id="font_1_5" d="M.7599945 .69506838C.7599945 .69807437 .7579956 .7050781 .7489929 .7050781 .74598696 .7050781 .7449951 .70407107 .73399356 .69306948L.6639862 .61602786C.6549988 .6300354 .60899356 .7050781 .49798585 .7050781 .2749939 .7050781 .049987794 .48391725 .049987794 .25172425 .049987794 .08659363 .16799927-.022460938 .32099916-.022460938 .4079895-.022460938 .48399354 .017532349 .5369873 .063583377 .6299896 .14564514 .6469879 .2367096 .6469879 .23971558 .6469879 .24972534 .6369934 .24972534 .6349945 .24972534 .6289978 .24972534 .6239929 .24772644 .621994 .23971558 .61299136 .21069336 .58999636 .13963318 .5209961 .081588748 .45199586 .025543213 .3889923 .008529663 .33699037 .008529663 .24699402 .008529663 .14099121 .060577394 .14099121 .21670532 .14099121 .27374269 .1619873 .43588258 .2619934 .55296328 .32299806 .62402346 .4169922 .67407229 .5059967 .67407229 .60798647 .67407229 .6669922 .5970001 .6669922 .48091126 .6669922 .44088746 .6639862 .43988038 .6639862 .4298706 .6639862 .41986085 .6749878 .41986085 .67900088 .41986085 .69200137 .41986085 .69200137 .42185975 .69699099 .43988038L.7599945 .69506838Z"/>
<path id="font_2_66" d="M.33099366 .14329529C.33099366 .1532898 .32299806 .1532898 .31599427 .1532898 .30299378 .1532898 .30299378 .1512909 .29899598 .1362915 .29100038 .107284549 .2639923 .011245728 .20599365 .011245728 .19799805 .011245728 .18399048 .012252808 .18399048 .039260866 .18399048 .06526184 .19699097 .09828186 .20999146 .13528443L.27398683 .30633546C.28399659 .3353424 .28599549 .34335328 .28599549 .36235047 .28599549 .41737367 .24798584 .4423828 .21099854 .4423828 .116989139 .4423828 .08299255 .29333497 .08299255 .28833009 .08299255 .27833558 .09298706 .27833558 .09799194 .27833558 .11099243 .27833558 .11199951 .28033448 .115997318 .29434205 .125 .3273468 .15098572 .42037965 .20899964 .42037965 .21998596 .42037965 .23098755 .41537477 .23098755 .3923645 .23098755 .36836244 .21998596 .33935548 .21299744 .32034303L.18299866 .23731995 .1459961 .1382904C.13198853 .10028076 .12799073 .089279178 .12799073 .0692749 .12799073 .030258179 .1519928-.0107421879 .20399475-.0107421879 .2979889-.0107421879 .33099366 .13928223 .33099366 .14329529M.35798646 .61128237C.35798646 .6322937 .34298707 .6542969 .31298829 .6542969 .2809906 .6542969 .24899292 .623291 .24899292 .59129336 .24899292 .56929019 .2649994 .54829409 .2939911 .54829409 .32598878 .54829409 .35798646 .57928469 .35798646 .61128237Z"/>
<path id="font_2_47" d="M.5349884 .14329529C.5349884 .1532898 .5269928 .1532898 .519989 .1532898 .5079956 .1532898 .5069885 .15229798 .5009918 .13027954 .4869995 .07426453 .46798707 .011245728 .43399049 .011245728 .4079895 .011245728 .4079895 .038253786 .4079895 .052261354 .4079895 .059265138 .4079895 .07426453 .4139862 .09828186L.5569916 .6693268C.55799868 .67233279 .55999758 .6823273 .55999758 .6823273 .55999758 .69132998 .55400088 .69433596 .54599 .69433596 .54299929 .69433596 .5329895 .69332888 .5299988 .6923218L.43099977 .6843262C.4189911 .68333438 .4079895 .6823273 .4079895 .6633301 .4079895 .6523285 .41799928 .6523285 .43199159 .6523285 .47999574 .6523285 .48199464 .6453247 .48199464 .6353302 .48199464 .6323395 .47898866 .6183319 .47898866 .6183319L.42099 .3843689C.4059906 .41537477 .3789978 .4423828 .33699037 .4423828 .22599793 .4423828 .10798645 .29032899 .10798645 .14428711 .10798645 .059265138 .1539917-.0107421879 .22898865-.0107421879 .2649994-.0107421879 .30899049 .010253906 .34899903 .059265138 .3600006 .010253906 .39698792-.0107421879 .43199159-.0107421879 .46899415-.0107421879 .48999024 .014251709 .5049896 .04525757 .522995 .08326721 .5349884 .14329529 .5349884 .14329529M.35499574 .122283939C.34700013 .091278079 .28599549 .011245728 .23098755 .011245728 .18399048 .011245728 .17599488 .07026672 .17599488 .10028076 .17599488 .15029907 .20698548 .26733399 .22499085 .30934144 .25 .37036134 .29599 .42037965 .33699037 .42037965 .34498597 .42037965 .36799623 .41937257 .38598634 .39135743 .3959961 .3753662 .4059906 .346344 .4059906 .3273468 .4059906 .32434083 .40499879 .32034303 .40299989 .3143463L.35499574 .122283939Z"/>
<path id="font_2_50" d="M.46798707 .10432434C.46798707 .10932922 .45999146 .12034607 .45199586 .12034607 .44799806 .12034607 .44699098 .11933899 .43899537 .10932922 .36499024 .015258789 .27598573 .011245728 .25898744 .011245728 .19400025 .011245728 .18299866 .08230591 .18299866 .12133789 .18299866 .15937805 .19299317 .204422 .19999695 .23144531H.23899842C.2689972 .23144531 .33599855 .23443604 .38398744 .25343324 .46299745 .2854309 .46299745 .35040284 .46299745 .35740663 .46299745 .40338136 .42599488 .4423828 .3619995 .4423828 .25698854 .4423828 .11399841 .34140016 .11399841 .16438294 .11399841 .0743103 .1619873-.0107421879 .25698854-.0107421879 .3849945-.0107421879 .46798707 .08930969 .46798707 .10432434M.4249878 .35940553C.4249878 .25343324 .2599945 .25343324 .22698975 .25343324H.20599365C.24899292 .41737367 .35198976 .42037965 .3619995 .42037965 .4019928 .42037965 .4249878 .39338685 .4249878 .35940553Z"/>
<path id="font_2_77" d="M.58599856 .14329529C.58599856 .1532898 .5779877 .1532898 .57099917 .1532898 .55799868 .1532898 .55799868 .1512909 .55400088 .1362915 .54599 .10928345 .5189972 .011245728 .46099855 .011245728 .43998719 .011245728 .43899537 .026260376 .43899537 .040252687 .43899537 .06526184 .44898988 .091278079 .45700074 .11528015 .47698976 .16830445 .5179901 .28033448 .5179901 .3383484 .5179901 .42037965 .46299745 .4423828 .4139862 .4423828 .33198548 .4423828 .28399659 .38235475 .2709961 .36335755 .2639923 .41236878 .22999573 .4423828 .18699646 .4423828 .15098572 .4423828 .1309967 .41937257 .114990238 .38935853 .09599304 .34934999 .08299255 .28833009 .08299255 .28833009 .08299255 .27833558 .09298706 .27833558 .09799194 .27833558 .11099243 .27833558 .11199951 .2793274 .116989139 .30133058 .1349945 .37135316 .1539917 .42037965 .18499756 .42037965 .21099854 .42037965 .21099854 .39135743 .21099854 .38035584 .21099854 .36434938 .20799256 .34535218 .20399475 .3293457L.1289978 .029251099C.1269989 .023254395 .12599182 .018249512 .12599182 .015258789 .12599182 .004257202 .13398743-.0107421879 .1539917-.0107421879 .1659851-.0107421879 .18299866-.003753662 .18998719 .015258789L.22999573 .17529297C.23498535 .1973114 .24099732 .2183075 .24598694 .24032593 .25898744 .29133607 .25898744 .29232789 .27598573 .3213501 .2899933 .34535218 .33499146 .42037965 .41099549 .42037965 .45498658 .42037965 .45700074 .3753662 .45700074 .35435487 .45700074 .29232789 .41299439 .17329407 .39898683 .13328552 .38598634 .09927368 .3829956 .090270999 .3829956 .0692749 .3829956 .025253296 .41099549-.0107421879 .45899964-.0107421879 .5519867-.0107421879 .58599856 .1382904 .58599856 .14329529Z"/>
<path id="font_2_105" d="M.35598756 .14305115C.35598756 .1530304 .34799195 .1530304 .34098817 .1530304 .32899476 .1530304 .32899476 .15203858 .32099916 .13406372 .30299378 .086135867 .2630005 .011245728 .20599365 .011245728 .1789856 .011245728 .1789856 .036209108 .1789856 .05218506 .1789856 .059173585 .1789856 .075149539 .18598938 .10310364L.2599945 .3996582H.34498597C.3619995 .3996582 .37298585 .3996582 .37298585 .4186554 .37298585 .43066407 .3639984 .43066407 .34799195 .43066407H.2679901L.30499269 .57888796C.30899049 .59291079 .30899049 .5949249 .30899049 .5999298 .30899049 .6209564 .2919922 .62597659 .28199769 .62597659 .25698854 .62597659 .24699402 .6049347 .24299622 .5899048L.20399475 .43066407H.11898804C.101989749 .43066407 .09098816 .43066407 .09098816 .4116516 .09098816 .3996582 .099990848 .3996582 .115997318 .3996582H.19599915L.12399292 .113098148C.12298584 .10910034 .11898804 .09312439 .11898804 .07914734 .11898804 .029220581 .1519928-.0107421879 .20399475-.0107421879 .30499269-.0107421879 .35598756 .13806153 .35598756 .14305115Z"/>
<path id="font_2_118" d="M.4149933-.002746582 .5130005 .39135743C.5139923 .39736939 .5159912 .40237428 .5159912 .405365 .5159912 .41636659 .5079956 .43138124 .48799134 .43138124 .45799256 .43138124 .45098878 .40237428 .44898988 .3943634L.37599183 .10028076C.36898805 .0712738 .32899476 .011245728 .269989 .011245728 .22499085 .011245728 .21598816 .055267335 .21598816 .088272098 .21598816 .14929199 .24899292 .23931885 .27398683 .30734254 .28199769 .32833863 .2869873 .3423462 .2869873 .36135865 .2869873 .41137696 .2539978 .4423828 .21099854 .4423828 .117996219 .4423828 .08299255 .29434205 .08299255 .28833009 .08299255 .27833558 .09298706 .27833558 .09799194 .27833558 .11099243 .27833558 .11199951 .28033448 .115997318 .29434205 .12399292 .3253479 .15098572 .42037965 .20899964 .42037965 .21998596 .42037965 .23098755 .41737367 .23098755 .39135743 .23098755 .36735536 .22099304 .3403473 .20698548 .30133058 .18099976 .23132324 .15499878 .1572876 .15499878 .105285648 .15499878 .018249512 .21299744-.0107421879 .2669983-.0107421879 .31298829-.0107421879 .34399415 .013244629 .35699464 .026260376 .31900025-.13865662 .24499512-.18261719 .19499207-.18261719 .14698792-.18261719 .1329956-.14465332 .1329956-.1396637 .1329956-.1396637 .13398743-.1376648 .14099121-.13665772 .17199707-.13166809 .18399048-.10467529 .18399048-.08869934 .18399048-.06770325 .16799927-.05671692 .1499939-.05671692 .13798523-.056625368 .09899902-.06262207 .09899902-.118621829 .09899902-.17062378 .13999939-.20462036 .19499207-.20462036 .29899598-.20462036 .3899994-.101623538 .4149933-.0026245118V-.002746582Z"/>
<path id="font_1_7" d="M.28399659 .6252594C.28399659 .6452637 .269989 .6612549 .24699402 .6612549 .21998596 .6612549 .19299317 .6352539 .19299317 .6082611 .19299317 .5892639 .20698548 .5722656 .23098755 .5722656 .2539978 .5722656 .28399659 .5952606 .28399659 .6252594M.20799256 .24932862C.21998596 .27833558 .21998596 .28033448 .22999573 .30734254 .23799134 .3273468 .24299622 .34135438 .24299622 .36035157 .24299622 .405365 .21099854 .4423828 .16099549 .4423828 .066986087 .4423828 .0289917 .29733277 .0289917 .28833009 .0289917 .27833558 .038986207 .27833558 .040985109 .27833558 .050994874 .27833558 .051986696 .28033448 .056991579 .29634095 .083999637 .3903656 .12399292 .42037965 .1579895 .42037965 .1659851 .42037965 .18299866 .42037965 .18299866 .3883667 .18299866 .36735536 .17599488 .346344 .17199707 .3363495 .1639862 .31033326 .11898804 .19430542 .102996829 .1512909 .09298706 .12528992 .07998657 .0922699 .07998657 .0712738 .07998657 .024261475 .11399841-.0107421879 .1619873-.0107421879 .2559967-.0107421879 .29299928 .1342926 .29299928 .14329529 .29299928 .1532898 .28399659 .1532898 .2809906 .1532898 .2709961 .1532898 .2709961 .15029907 .2659912 .13528443 .24798584 .072265628 .21499634 .011245728 .1639862 .011245728 .14698792 .011245728 .13999939 .021255494 .13999939 .044265748 .13999939 .0692749 .1459961 .08326721 .16899109 .14428711L.20799256 .24932862Z"/>
<path id="font_1_6" d="M.5159912 .68333438C.5159912 .6843262 .5159912 .69433596 .5029907 .69433596 .48799134 .69433596 .3929901 .68533328 .37599183 .68333438 .36799623 .6823273 .3619995 .6773224 .3619995 .6643219 .3619995 .6523285 .37098695 .6523285 .38598634 .6523285 .43399049 .6523285 .43598939 .6453247 .43598939 .6353302L.43299867 .6153412 .37298585 .37835694C.35499574 .41537477 .32598878 .4423828 .2809906 .4423828 .1639862 .4423828 .039993287 .29533387 .039993287 .14929199 .039993287 .055267335 .09498596-.0107421879 .17298889-.0107421879 .19299317-.0107421879 .24299622-.0067443849 .30299378 .06427002 .31098939 .022247315 .34599305-.0107421879 .3939972-.0107421879 .42900086-.0107421879 .45199586 .012252808 .46798707 .044265748 .4850006 .08027649 .49798585 .14129639 .49798585 .14329529 .49798585 .1532898 .4889984 .1532898 .48599244 .1532898 .47599793 .1532898 .47499085 .14929199 .47200013 .13528443 .45498658 .07026672 .43699647 .011245728 .3959961 .011245728 .36898805 .011245728 .3659973 .037261964 .3659973 .057266237 .3659973 .08126831 .36799623 .088272098 .37199403 .105285648L.5159912 .68333438M.30799867 .119277957C.30299378 .10127258 .30299378 .09927368 .28799439 .08227539 .24398804 .027252198 .20298767 .011245728 .1749878 .011245728 .125 .011245728 .11099243 .06626892 .11099243 .105285648 .11099243 .1552887 .14299011 .27833558 .1659851 .32434083 .19699097 .38336183 .24198914 .42037965 .28199769 .42037965 .34700013 .42037965 .36099244 .3383484 .36099244 .33235169 .36099244 .32633973 .35899354 .32034303 .35798646 .31533814L.30799867 .119277957Z"/>
<path id="font_3_1" d="M.68699648 .32714845C.70199587 .32714845 .72099307 .32714845 .72099307 .34713746 .72099307 .36714173 .70199587 .36714173 .6879883 .36714173H.08898926C.07499695 .36714173 .055999757 .36714173 .055999757 .34713746 .055999757 .32714845 .07499695 .32714845 .08999634 .32714845H.68699648M.6879883 .13284302C.70199587 .13284302 .72099307 .13284302 .72099307 .15284729 .72099307 .17285156 .70199587 .17285156 .68699648 .17285156H.08999634C.07499695 .17285156 .055999757 .17285156 .055999757 .15284729 .055999757 .13284302 .07499695 .13284302 .08898926 .13284302H.6879883Z"/>
<path id="font_4_1" d="M.69999697-2.3488923C.69999697-2.3448945 .69799807-2.3428956 .69599917-2.3399049 .6589966-2.3029023 .59199526-2.2359009 .5249939-2.1278992 .3639984-1.8699188 .29100038-1.5449219 .29100038-1.1599274 .29100038-.89094546 .32699586-.5439453 .49198915-.24595642 .57099917-.10395813 .6529999-.021957398 .69699099 .022033692 .69999697 .025024414 .69999697 .027038575 .69999697 .030029297 .69999697 .040039064 .69299319 .040039064 .67900088 .040039064 .6649933 .040039064 .6629944 .040039064 .647995 .025024414 .31298829-.279953 .20799256-.73794558 .20799256-1.1589356 .20799256-1.5519257 .2979889-1.9479065 .5519867-2.2469025 .57199099-2.2698975 .6100006-2.3108979 .651001-2.3468934 .6629944-2.358902 .6649933-2.358902 .67900088-2.358902 .69299319-2.358902 .69999697-2.358902 .69999697-2.3488923Z"/>
<path id="font_4_2" d="M.5269928-1.1599274C.5269928-.76693728 .43699647-.37095643 .18299866-.07196045 .16299439-.048965455 .125-.007965088 .083999637 .028030396 .07199097 .040039064 .069992069 .040039064 .055999757 .040039064 .04399109 .040039064 .034988405 .040039064 .034988405 .030029297 .034988405 .026031495 .038986207 .022033692 .040985109 .02003479 .07598877-.015960694 .14299011-.082962039 .20999146-.19096375 .37098695-.4489441 .44400025-.77394106 .44400025-1.1589356 .44400025-1.4279175 .4079895-1.7749176 .24299622-2.0729066 .1639862-2.2149049 .08099365-2.2978974 .038986207-2.3399049 .036987306-2.3428956 .034988405-2.3459016 .034988405-2.3488923 .034988405-2.358902 .04399109-2.358902 .055999757-2.358902 .069992069-2.358902 .07199097-2.358902 .08699036-2.3439027 .42199708-2.03891 .5269928-1.5809174 .5269928-1.1599274Z"/>
<path id="font_2_96" d="M.4889984 .37927247C.4889984 .43138124 .42399598 .4423828 .3909912 .4423828 .32199098 .4423828 .28599549 .39227296 .269989 .37026979 .25898744 .42337037 .21998596 .4423828 .18699646 .4423828 .15098572 .4423828 .1309967 .41937257 .114990238 .38926698 .09599304 .34925843 .08299255 .28826905 .08299255 .28826905 .08299255 .27825929 .09298706 .27825929 .09799194 .27825929 .11099243 .27825929 .11199951 .27926637 .116989139 .30126954 .1349945 .3712616 .1539917 .42037965 .18499756 .42037965 .21099854 .42037965 .21099854 .39126588 .21099854 .38026429 .21099854 .36427308 .20799256 .34526063 .20399475 .3292694L.1289978 .029251099C.1269989 .023254395 .12599182 .018249512 .12599182 .015258789 .12599182 .004257202 .13398743-.0107421879 .1539917-.0107421879 .18399048-.0107421879 .19099427 .018249512 .19299317 .026245118L.2579956 .28826905C.25898744 .29125978 .3039856 .42037965 .3899994 .42037965 .394989 .42037965 .4229889 .42037965 .44299317 .40628053 .4079895 .39526368 .40499879 .363266 .40499879 .3582611 .40499879 .34526063 .4139862 .32626344 .43998719 .32626344 .45799256 .32626344 .4889984 .340271 .4889984 .37927247Z"/>
<path id="font_2_81" d="M.5089874 .27833558C.5089874 .37335206 .44999696 .4423828 .36299134 .4423828 .23899842 .4423828 .10998535 .30033876 .10998535 .15429688 .10998535 .05126953 .17298889-.0107421879 .2559967-.0107421879 .37998963-.0107421879 .5089874 .13128662 .5089874 .27833558M.43899537 .31733705C.43899537 .2743225 .4169922 .17129517 .3849945 .11128235 .35598756 .056259157 .30499269 .011245728 .2559967 .011245728 .21699524 .011245728 .17999268 .042266847 .17999268 .11428833 .17999268 .16429138 .20599365 .2753296 .23799134 .3293457 .2749939 .3903656 .32299806 .42037965 .3619995 .42037965 .41099549 .42037965 .43899537 .37635804 .43899537 .31733705Z"/>
<path id="font_2_28" d="M.5249939 .14329529C.5249939 .1532898 .5169983 .1532898 .5099945 .1532898 .49798585 .1532898 .49699403 .15229798 .4909973 .13027954 .47698976 .07426453 .45799256 .011245728 .42399598 .011245728 .397995 .011245728 .397995 .038253786 .397995 .052261354 .397995 .059265138 .397995 .07527161 .40499879 .103271488L.47299195 .3753662C.47698976 .38935853 .47698976 .39135743 .47698976 .3963623 .47698976 .41737367 .45999146 .42237855 .44999696 .42237855 .41799928 .42237855 .41099549 .3883667 .4099884 .38336183 .3909912 .42637635 .35899354 .4423828 .32699586 .4423828 .21598816 .4423828 .09799194 .29032899 .09799194 .14428711 .09799194 .059265138 .14399719-.0107421879 .21899414-.0107421879 .25498963-.0107421879 .29899598 .010253906 .33898927 .059265138 .34999085 .010253906 .3869934-.0107421879 .42199708-.0107421879 .45899964-.0107421879 .47999574 .014251709 .49499513 .04525757 .5130005 .08326721 .5249939 .14329529 .5249939 .14329529M.34599305 .12428284C.33799745 .0922699 .27598573 .011245728 .22099304 .011245728 .17399597 .011245728 .1659851 .07026672 .1659851 .10028076 .1659851 .15029907 .19699097 .26733399 .21499634 .30934144 .23999024 .37036134 .28599549 .42037965 .32699586 .42037965 .37098695 .42037965 .3959961 .36836244 .3959961 .32633973 .3959961 .32633973 .394989 .31933595 .3929901 .31333924L.34599305 .12428284Z"/>
<path id="font_1_2" d="M.032989503-.17282105C.02999878-.18482971 .02999878-.18682862 .02999878-.18882752 .02999878-.2038269 .040985109-.21582031 .057998659-.21582031 .07899475-.21582031 .09098816-.1978302 .09298706-.19482422 .09799194-.18582154 .12998963-.05177307 .15699768 .056259157 .1769867 .01625061 .20899964-.0107421879 .2559967-.0107421879 .37298585-.0107421879 .5019989 .13027954 .5019989 .2793274 .5019989 .38536073 .43598939 .4423828 .36299134 .4423828 .2659912 .4423828 .16099549 .3423462 .1309967 .2203064L.032989503-.17282105M.25498963 .011245728C.18499756 .011245728 .16899109 .091278079 .16899109 .10028076 .16899109 .104278568 .17399597 .12428284 .1769867 .13728333 .20498657 .24932862 .21499634 .28533937 .23699951 .3253479 .27999879 .3983612 .32998658 .42037965 .36099244 .42037965 .397995 .42037965 .42999269 .39135743 .42999269 .32234193 .42999269 .26733399 .40098573 .1552887 .37399293 .106277469 .34098817 .043258668 .29299928 .011245728 .25498963 .011245728Z"/>
<path id="font_5_1" d="M.33499146 .63612368C.33499146 .6630554 .33299256 .6640625 .30499269 .6640625 .24099732 .6014404 .1499939 .6004486 .10899353 .6004486V.5644531C.1329956 .5644531 .19898987 .5644531 .2539978 .592453V.08203125C.2539978 .04899597 .2539978 .035995485 .1539917 .035995485H.115997318V0C.13398743 .0009918213 .25698854 .0039978029 .2939911 .0039978029 .32499696 .0039978029 .45098878 .0009918213 .47299195 0V.035995485H.43499757C.33499146 .035995485 .33499146 .04899597 .33499146 .08203125V.63612368Z"/>
<path id="font_5_2" d="M.5049896 .18203736H.47099305C.46798707 .16001892 .45799256 .100997928 .44499208 .09098816 .43699647 .084991458 .3600006 .084991458 .34599305 .084991458H.1619873C.2669983 .17803955 .3019867 .20603943 .3619995 .25306703 .43598939 .312088 .5049896 .374115 .5049896 .46914674 .5049896 .5900879 .39898683 .6640625 .2709961 .6640625 .14698792 .6640625 .06298828 .57710269 .06298828 .4851532 .06298828 .43414308 .10598755 .42915345 .115997318 .42915345 .13999939 .42915345 .16899109 .44615174 .16899109 .48214723 .16899109 .5001526 .1619873 .53515627 .10998535 .53515627 .14099121 .6060791 .20899964 .62805178 .2559967 .62805178 .35598756 .62805178 .4079895 .5501404 .4079895 .46914674 .4079895 .38212586 .34599305 .3130951 .31399537 .27708436L.07299805 .038986207C.06298828 .02999878 .06298828 .027999878 .06298828 0H.47499085L.5049896 .18203736Z"/>
<path id="font_2_126" d="M.6119995 .14324951C.6119995 .15324402 .60398867 .15324402 .5970001 .15324402 .58499148 .15324402 .58399966 .1522522 .5779877 .13024903 .56399539 .07424927 .54499819 .011245728 .5109863 .011245728 .4850006 .011245728 .4850006 .038253786 .4850006 .052246095 .4850006 .059249879 .4850006 .07525635 .49198915 .103256229L.6339874 .6712494C.6359863 .6772461 .6369934 .68125918 .6369934 .6842499 .6369934 .6942444 .6289978 .6942444 .61299136 .6942444H.59799197C.57699587 .6942444 .57598879 .69325259 .56999209 .6742554L.5609894 .6392517 .55999758 .6389923C.55999758 .64901736 .5589905 .674057 .519989 .69107058 .49499513 .70207217 .46299745 .7050781 .43598939 .7050781 .2689972 .7050781 .25 .6049347 .21798706 .43066407H.15299988C.13598633 .43066407 .125 .43066407 .125 .4116516 .125 .3996582 .13398743 .3996582 .1499939 .3996582H.21199036L.14199829 .03692627 .11099243-.099990848C.102996829-.1309967 .08999634-.18261719 .053985597-.18261719 .04899597-.18261719 .026992798-.18164063 .01499939-.16497803 .04499817-.1599884 .05899048-.13598633 .05899048-.115997318 .05899048-.09399414 .040985109-.083984378 .024993897-.083984378 0-.083984378-.025009156-.10398865-.025009156-.13899231-.025009156-.18562317 .019989014-.20462036 .053985597-.20462036 .14299011-.20462036 .18798828-.06201172 .21499634 .07989502L.2769928 .3996582H.5019989L.42999269 .11286926C.42900086 .10910034 .4249878 .09312439 .4249878 .07914734 .4249878 .026229859 .46099855-.0107421879 .5089874-.0107421879 .54599-.0107421879 .5669861 .014251709 .58200076 .045196535 .59999087 .08314514 .6119995 .14305115 .6119995 .14305115V.14324951M.5099945 .43066407H.2829895C.29499818 .49375917 .30999757 .57688906 .32499696 .6179657 .34298707 .6690521 .394989 .68307498 .43699647 .68307498 .44499208 .68307498 .48999024 .68307498 .5149994 .664032 .4889984 .6569824 .47599793 .63497927 .47599793 .61598208 .47599793 .5939789 .49398805 .5839844 .5099945 .5839844 .5299988 .5839844 .5469971 .5969696 .5519867 .60697939H.5529938L.5099945 .43066407Z"/>
<path id="font_2_43" d="M.46798707 .10417175C.46798707 .10916138 .45999146 .120147708 .45199586 .120147708 .44799806 .120147708 .44699098 .119155887 .43899537 .10916138 .36499024 .01524353 .27598573 .011245728 .25898744 .011245728 .20498657 .011245728 .17999268 .05621338 .17999268 .114151 .17999268 .16711426 .20698548 .27201844 .23298645 .31999208 .2689972 .3850708 .31900025 .42037965 .3639984 .42037965 .375 .42037965 .41999818 .41836549 .43499757 .37701417 .3849945 .37098695 .3849945 .32798768 .3849945 .32798768 .3849945 .31199647 .3959961 .29599 .4189911 .29599 .44599916 .29599 .46998597 .31799317 .46998597 .35598756 .46998597 .40524293 .4269867 .4423828 .36299134 .4423828 .23899842 .4423828 .10998535 .2999878 .10998535 .15411377 .10998535 .0552063 .16899109-.0107421879 .25698854-.0107421879 .3849945-.0107421879 .46798707 .08917236 .46798707 .10417175Z"/>
<path id="font_1_1" d="M.23098755 .35134889C.23599243 .37236024 .24598694 .41036988 .24598694 .41537477 .24598694 .43237306 .23399353 .4423828 .21699524 .4423828 .21398926 .4423828 .18598938 .44137574 .1769867 .40637208L.032989503-.17282105C.02999878-.18482971 .02999878-.18682862 .02999878-.18882752 .02999878-.2038269 .040985109-.21582031 .057998659-.21582031 .07899475-.21582031 .09098816-.1978302 .09298706-.19482422 .09700012-.18582154 .10998535-.13380432 .147995 .020248414 .17999268-.0067443849 .22499085-.0107421879 .24499512-.0107421879 .31498719-.0107421879 .35398866 .03425598 .37799073 .06227112 .3869934 .01725769 .42399598-.0107421879 .46798707-.0107421879 .5029907-.0107421879 .526001 .012252808 .5419922 .044265748 .5589905 .08027649 .57199099 .14129639 .57199099 .14329529 .57199099 .1532898 .5629883 .1532898 .55999758 .1532898 .5499878 .1532898 .548996 .14929199 .54599 .13528443 .5289917 .07026672 .5109863 .011245728 .46998597 .011245728 .44299317 .011245728 .43998719 .037261964 .43998719 .057266237 .43998719 .07926941 .45199586 .12628174 .45999146 .16130066L.48799134 .2693329C.4909973 .28433229 .5009918 .32234193 .5049896 .3373413 .5099945 .36035157 .519989 .3983612 .519989 .40437318 .519989 .42237855 .5059967 .43138124 .4909973 .43138124 .48599244 .43138124 .45999146 .43037416 .45199586 .3963623L.40499879 .20930481C.3929901 .15930176 .38198854 .11727905 .3789978 .107284549 .37799073 .10227966 .32998658 .011245728 .24899292 .011245728 .19898987 .011245728 .1749878 .044265748 .1749878 .09828186 .1749878 .12728882 .18199158 .1552887 .18899536 .18330384L.23098755 .35134889Z"/>
<path id="font_5_3" d="M.272995 .33428956C.35099793 .33428956 .40699769 .2803192 .40699769 .1733551 .40699769 .04940796 .33499146 .012466431 .2769928 .012466431 .23699951 .012466431 .14898682 .0234375 .10699463 .082351688 .1539917 .084350589 .16499329 .11735535 .16499329 .13835144 .16499329 .17034912 .14099121 .19335938 .10998535 .19335938 .08198547 .19335938 .053985597 .17634583 .053985597 .13534546 .053985597 .041412355 .1579895-.01953125 .2789917-.01953125 .41799928-.01953125 .5139923 .07336426 .5139923 .1733551 .5139923 .2513275 .44999696 .32929994 .33999635 .35229493 .44499208 .39024354 .48298646 .4650879 .48298646 .5260773 .48298646 .60505679 .3919983 .6640625 .2809906 .6640625 .16999817 .6640625 .084991458 .61006167 .084991458 .5300751 .084991458 .49606324 .10699463 .47706605 .13699341 .47706605 .16799927 .47706605 .18798828 .5000763 .18798828 .5280762 .18798828 .5570679 .16799927 .57806399 .13699341 .5800781 .17199707 .62405398 .24099732 .63505557 .27799989 .63505557 .32299806 .63505557 .38598634 .6130676 .38598634 .5260773 .38598634 .48406983 .37199403 .43814088 .34599305 .4072113 .31298829 .36927796 .2849884 .3672943 .23498535 .36428834 .20999146 .3623047 .20799256 .3623047 .20298767 .3612976 .20098877 .3612976 .19299317 .3592987 .19299317 .34829713 .19299317 .33428956 .20199585 .33428956 .21899414 .33428956H.272995Z"/>
</defs>
<path transform="matrix(1.00003,0,0,-1.00003,12.209923,390.7164)" stroke-width=".3985" stroke-linecap="butt" stroke-miterlimit="10" stroke-linejoin="miter" fill="none" stroke="#000000" d="M0 340.16304H45.35506L22.67752 379.44175Z"/>
<use data-text="A" xlink:href="#font_1_3" transform="matrix(9.962899,0,0,-9.962899,1.2175903,53.92926)"/>
<use data-text="B" xlink:href="#font_1_4" transform="matrix(9.962899,0,0,-9.962899,30.860482,7.7229006)"/>
<use data-text="C" xlink:href="#font_1_5" transform="matrix(9.962899,0,0,-9.962899,61.08839,53.92926)"/>
<path transform="matrix(1.00003,0,0,-1.00003,12.209923,390.7164)" stroke-width=".3985" stroke-linecap="butt" stroke-miterlimit="10" stroke-linejoin="miter" fill="none" stroke="#000000" d="M90.71013 340.16304H136.0652L113.38766 379.44175Z"/>
<use data-text="A" xlink:href="#font_1_3" transform="matrix(9.962899,0,0,-9.962899,91.93532,53.92926)"/>
<use data-text="B" xlink:href="#font_1_4" transform="matrix(9.962899,0,0,-9.962899,121.57821,7.7229006)"/>
<use data-text="C" xlink:href="#font_1_5" transform="matrix(9.962899,0,0,-9.962899,151.80612,53.92926)"/>
<use data-text="i" xlink:href="#font_2_66" transform="matrix(9.962899,0,0,-9.962899,63.67447,22.283326)"/>
<use data-text="d" xlink:href="#font_2_47" transform="matrix(9.962899,0,0,-9.962899,66.73308,22.283326)"/>
<use data-text="e" xlink:href="#font_2_50" transform="matrix(9.962899,0,0,-9.962899,71.82412,22.283326)"/>
<use data-text="n" xlink:href="#font_2_77" transform="matrix(9.962899,0,0,-9.962899,76.40705,22.283326)"/>
<use data-text="t" xlink:href="#font_2_105" transform="matrix(9.962899,0,0,-9.962899,82.0062,22.283326)"/>
<use data-text="i" xlink:href="#font_2_66" transform="matrix(9.962899,0,0,-9.962899,85.31389,22.283326)"/>
<use data-text="t" xlink:href="#font_2_105" transform="matrix(9.962899,0,0,-9.962899,88.3725,22.283326)"/>
<use data-text="y" xlink:href="#font_2_118" transform="matrix(9.962899,0,0,-9.962899,91.68018,22.283326)"/>
<path transform="matrix(1.00003,0,0,-1.00003,12.209923,390.7164)" stroke-width=".3985" stroke-linecap="butt" stroke-miterlimit="10" stroke-linejoin="miter" fill="none" stroke="#000000" d="M45.35742 362.85963H90.2566"/>
<path transform="matrix(1.00003,0,0,-1.00003,102.46923,27.845887)" stroke-width=".31879" stroke-linecap="round" stroke-linejoin="round" fill="none" stroke="#000000" d="M-1.19551 1.59401C-1.09587 .99626 0 .09961 .29886 0 0-.09961-1.09587-.99626-1.19551-1.59401"/>
<use data-text="i" xlink:href="#font_1_7" transform="matrix(9.962899,0,0,-9.962899,174.48578,30.336579)"/>
<use data-text="d" xlink:href="#font_1_6" transform="matrix(9.962899,0,0,-9.962899,177.92298,30.336579)"/>
<use data-text="=" xlink:href="#font_3_1" transform="matrix(9.962899,0,0,-9.962899,185.87113,30.336579)"/>
<use data-text="(" xlink:href="#font_4_1" transform="matrix(9.962899,0,0,-9.962899,196.38745,16.289155)"/>
<use data-text="A" xlink:href="#font_1_3" transform="matrix(9.962899,0,0,-9.962899,203.72167,24.2594)"/>
<use data-text="B" xlink:href="#font_1_4" transform="matrix(9.962899,0,0,-9.962899,221.14678,24.2594)"/>
<use data-text="C" xlink:href="#font_1_5" transform="matrix(9.962899,0,0,-9.962899,239.17963,24.2594)"/>
<use data-text="A" xlink:href="#font_1_3" transform="matrix(9.962899,0,0,-9.962899,203.72167,36.214754)"/>
<use data-text="B" xlink:href="#font_1_4" transform="matrix(9.962899,0,0,-9.962899,221.14678,36.214754)"/>
<use data-text="C" xlink:href="#font_1_5" transform="matrix(9.962899,0,0,-9.962899,239.17963,36.214754)"/>
<use data-text=")" xlink:href="#font_4_2" transform="matrix(9.962899,0,0,-9.962899,247.00997,16.289155)"/>
<path transform="matrix(1.00003,0,0,-1.00003,12.209923,390.7164)" stroke-width=".3985" stroke-linecap="butt" stroke-miterlimit="10" stroke-linejoin="miter" fill="none" stroke="#000000" d="M0 272.1304H45.35506L22.67752 311.40916Z"/>
<use data-text="A" xlink:href="#font_1_3" transform="matrix(9.962899,0,0,-9.962899,1.2175903,121.967319)"/>
<use data-text="B" xlink:href="#font_1_4" transform="matrix(9.962899,0,0,-9.962899,30.860482,75.76193)"/>
<use data-text="C" xlink:href="#font_1_5" transform="matrix(9.962899,0,0,-9.962899,61.08839,121.967319)"/>
<path transform="matrix(1.00003,0,0,-1.00003,12.209923,390.7164)" stroke-width=".3985" stroke-linecap="butt" stroke-miterlimit="10" stroke-linejoin="miter" fill="none" stroke="#000000" d="M90.71013 272.1304H136.0652L113.38766 311.40916Z"/>
<use data-text="C" xlink:href="#font_1_5" transform="matrix(9.962899,0,0,-9.962899,91.5743,121.967319)"/>
<use data-text="B" xlink:href="#font_1_4" transform="matrix(9.962899,0,0,-9.962899,151.80612,121.967319)"/>
<use data-text="A" xlink:href="#font_1_3" transform="matrix(9.962899,0,0,-9.962899,121.871219,75.76193)"/>
<use data-text="r" xlink:href="#font_2_96" transform="matrix(9.962899,0,0,-9.962899,63.00745,92.254428)"/>
<use data-text="o" xlink:href="#font_2_81" transform="matrix(9.962899,0,0,-9.962899,66.703678,92.254428)"/>
<use data-text="t" xlink:href="#font_2_105" transform="matrix(9.962899,0,0,-9.962899,71.79472,92.254428)"/>
<use data-text="a" xlink:href="#font_2_28" transform="matrix(9.962899,0,0,-9.962899,75.1024,92.254428)"/>
<use data-text="t" xlink:href="#font_2_105" transform="matrix(9.962899,0,0,-9.962899,80.19345,92.254428)"/>
<use data-text="i" xlink:href="#font_2_66" transform="matrix(9.962899,0,0,-9.962899,83.50113,92.254428)"/>
<use data-text="o" xlink:href="#font_2_81" transform="matrix(9.962899,0,0,-9.962899,86.55974,92.254428)"/>
<use data-text="n" xlink:href="#font_2_77" transform="matrix(9.962899,0,0,-9.962899,91.65079,92.254428)"/>
<path transform="matrix(1.00003,0,0,-1.00003,12.209923,390.7164)" stroke-width=".3985" stroke-linecap="butt" stroke-miterlimit="10" stroke-linejoin="miter" fill="none" stroke="#000000" d="M45.35742 294.82344H90.2566"/>
<path transform="matrix(1.00003,0,0,-1.00003,102.46923,95.884128)" stroke-width=".31879" stroke-linecap="round" stroke-linejoin="round" fill="none" stroke="#000000" d="M-1.19551 1.59401C-1.09587 .99626 0 .09961 .29886 0 0-.09961-1.09587-.99626-1.19551-1.59401"/>
<use data-text="&#x03c1;" xlink:href="#font_1_2" transform="matrix(9.962899,0,0,-9.962899,174.48578,98.3746)"/>
<use data-text="1" xlink:href="#font_5_1" transform="matrix(6.9740097,0,0,-6.9740097,179.63694,99.86862)"/>
<use data-text="=" xlink:href="#font_3_1" transform="matrix(9.962899,0,0,-9.962899,186.87317,98.3746)"/>
<use data-text="(" xlink:href="#font_4_1" transform="matrix(9.962899,0,0,-9.962899,197.39048,84.32718)"/>
<use data-text="A" xlink:href="#font_1_3" transform="matrix(9.962899,0,0,-9.962899,205.0157,92.297428)"/>
<use data-text="B" xlink:href="#font_1_4" transform="matrix(9.962899,0,0,-9.962899,222.73969,92.297428)"/>
<use data-text="C" xlink:href="#font_1_5" transform="matrix(9.962899,0,0,-9.962899,240.76258,92.297428)"/>
<use data-text="B" xlink:href="#font_1_4" transform="matrix(9.962899,0,0,-9.962899,204.7237,104.25278)"/>
<use data-text="C" xlink:href="#font_1_5" transform="matrix(9.962899,0,0,-9.962899,222.85617,104.25278)"/>
<use data-text="A" xlink:href="#font_1_3" transform="matrix(9.962899,0,0,-9.962899,240.94879,104.25278)"/>
<use data-text=")" xlink:href="#font_4_2" transform="matrix(9.962899,0,0,-9.962899,248.597,84.32718)"/>
<path transform="matrix(1.00003,0,0,-1.00003,12.209923,390.7164)" stroke-width=".3985" stroke-linecap="butt" stroke-miterlimit="10" stroke-linejoin="miter" fill="none" stroke="#000000" d="M0 204.09781H45.35506L22.67752 243.37654Z"/>
<use data-text="A" xlink:href="#font_1_3" transform="matrix(9.962899,0,0,-9.962899,1.2175903,190.00537)"/>
<use data-text="B" xlink:href="#font_1_4" transform="matrix(9.962899,0,0,-9.962899,30.860482,143.79999)"/>
<use data-text="C" xlink:href="#font_1_5" transform="matrix(9.962899,0,0,-9.962899,61.08839,190.00537)"/>
<path transform="matrix(1.00003,0,0,-1.00003,12.209923,390.7164)" stroke-width=".3985" stroke-linecap="butt" stroke-miterlimit="10" stroke-linejoin="miter" fill="none" stroke="#000000" d="M90.71013 204.09781H136.0652L113.38766 243.37654Z"/>
<use data-text="B" xlink:href="#font_1_4" transform="matrix(9.962899,0,0,-9.962899,91.3503,190.00537)"/>
<use data-text="A" xlink:href="#font_1_3" transform="matrix(9.962899,0,0,-9.962899,151.80612,190.00537)"/>
<use data-text="C" xlink:href="#font_1_5" transform="matrix(9.962899,0,0,-9.962899,121.69021,143.79999)"/>
<use data-text="r" xlink:href="#font_2_96" transform="matrix(9.962899,0,0,-9.962899,63.00745,160.29247)"/>
<use data-text="o" xlink:href="#font_2_81" transform="matrix(9.962899,0,0,-9.962899,66.703678,160.29247)"/>
<use data-text="t" xlink:href="#font_2_105" transform="matrix(9.962899,0,0,-9.962899,71.79472,160.29247)"/>
<use data-text="a" xlink:href="#font_2_28" transform="matrix(9.962899,0,0,-9.962899,75.1024,160.29247)"/>
<use data-text="t" xlink:href="#font_2_105" transform="matrix(9.962899,0,0,-9.962899,80.19345,160.29247)"/>
<use data-text="i" xlink:href="#font_2_66" transform="matrix(9.962899,0,0,-9.962899,83.50113,160.29247)"/>
<use data-text="o" xlink:href="#font_2_81" transform="matrix(9.962899,0,0,-9.962899,86.55974,160.29247)"/>
<use data-text="n" xlink:href="#font_2_77" transform="matrix(9.962899,0,0,-9.962899,91.65079,160.29247)"/>
<path transform="matrix(1.00003,0,0,-1.00003,12.209923,390.7164)" stroke-width=".3985" stroke-linecap="butt" stroke-miterlimit="10" stroke-linejoin="miter" fill="none" stroke="#000000" d="M45.35742 226.78725H90.2566"/>
<path transform="matrix(1.00003,0,0,-1.00003,102.46923,163.92235)" stroke-width=".31879" stroke-linecap="round" stroke-linejoin="round" fill="none" stroke="#000000" d="M-1.19551 1.59401C-1.09587 .99626 0 .09961 .29886 0 0-.09961-1.09587-.99626-1.19551-1.59401"/>
<use data-text="&#x03c1;" xlink:href="#font_1_2" transform="matrix(9.962899,0,0,-9.962899,174.48578,166.41266)"/>
<use data-text="2" xlink:href="#font_5_2" transform="matrix(6.9740097,0,0,-6.9740097,179.63694,167.90668)"/>
<use data-text="=" xlink:href="#font_3_1" transform="matrix(9.962899,0,0,-9.962899,186.87317,166.41266)"/>
<use data-text="(" xlink:href="#font_4_1" transform="matrix(9.962899,0,0,-9.962899,197.39048,152.36524)"/>
<use data-text="A" xlink:href="#font_1_3" transform="matrix(9.962899,0,0,-9.962899,204.9047,160.33548)"/>
<use data-text="B" xlink:href="#font_1_4" transform="matrix(9.962899,0,0,-9.962899,222.5191,160.33548)"/>
<use data-text="C" xlink:href="#font_1_5" transform="matrix(9.962899,0,0,-9.962899,240.65158,160.33548)"/>
<use data-text="C" xlink:href="#font_1_5" transform="matrix(9.962899,0,0,-9.962899,204.7237,172.29084)"/>
<use data-text="A" xlink:href="#font_1_3" transform="matrix(9.962899,0,0,-9.962899,222.80637,172.29084)"/>
<use data-text="B" xlink:href="#font_1_4" transform="matrix(9.962899,0,0,-9.962899,240.54032,172.29084)"/>
<use data-text=")" xlink:href="#font_4_2" transform="matrix(9.962899,0,0,-9.962899,248.597,152.36524)"/>
<path transform="matrix(1.00003,0,0,-1.00003,12.209923,390.7164)" stroke-width=".3985" stroke-linecap="butt" stroke-miterlimit="10" stroke-linejoin="miter" fill="none" stroke="#000000" d="M0 136.0652H45.35506L22.67752 175.34394Z"/>
<use data-text="A" xlink:href="#font_1_3" transform="matrix(9.962899,0,0,-9.962899,1.2175903,258.04444)"/>
<use data-text="B" xlink:href="#font_1_4" transform="matrix(9.962899,0,0,-9.962899,30.860482,211.83803)"/>
<use data-text="C" xlink:href="#font_1_5" transform="matrix(9.962899,0,0,-9.962899,61.08839,258.04444)"/>
<use data-text="r" xlink:href="#font_2_96" transform="matrix(9.962899,0,0,-9.962899,60.202367,226.39847)"/>
<use data-text="e" xlink:href="#font_2_50" transform="matrix(9.962899,0,0,-9.962899,63.898595,226.39847)"/>
<use data-text="f" xlink:href="#font_2_126" transform="matrix(9.962899,0,0,-9.962899,68.48152,226.39847)"/>
<use data-text="e" xlink:href="#font_2_50" transform="matrix(9.962899,0,0,-9.962899,74.33971,226.39847)"/>
<use data-text="c" xlink:href="#font_2_43" transform="matrix(9.962899,0,0,-9.962899,78.414539,226.39847)"/>
<use data-text="t" xlink:href="#font_2_105" transform="matrix(9.962899,0,0,-9.962899,82.99747,226.39847)"/>
<use data-text="i" xlink:href="#font_2_66" transform="matrix(9.962899,0,0,-9.962899,86.30516,226.39847)"/>
<use data-text="o" xlink:href="#font_2_81" transform="matrix(9.962899,0,0,-9.962899,89.36377,226.39847)"/>
<use data-text="n" xlink:href="#font_2_77" transform="matrix(9.962899,0,0,-9.962899,94.45482,226.39847)"/>
<path transform="matrix(1.00003,0,0,-1.00003,12.209923,390.7164)" stroke-width=".3985" stroke-linecap="butt" stroke-miterlimit="10" stroke-linejoin="miter" fill="none" stroke="#000000" d="M45.35742 158.75107H90.2566"/>
<path transform="matrix(1.00003,0,0,-1.00003,102.46923,231.96056)" stroke-width=".31879" stroke-linecap="round" stroke-linejoin="round" fill="none" stroke="#000000" d="M-1.19551 1.59401C-1.09587 .99626 0 .09961 .29886 0 0-.09961-1.09587-.99626-1.19551-1.59401"/>
<path transform="matrix(1.00003,0,0,-1.00003,12.209923,390.7164)" stroke-width=".3985" stroke-linecap="butt" stroke-miterlimit="10" stroke-linejoin="miter" fill="none" stroke="#000000" d="M90.71013 136.0652H136.0652L113.38766 175.34394Z"/>
<use data-text="A" xlink:href="#font_1_3" transform="matrix(9.962899,0,0,-9.962899,91.93532,258.04444)"/>
<use data-text="C" xlink:href="#font_1_5" transform="matrix(9.962899,0,0,-9.962899,121.69021,211.83803)"/>
<use data-text="B" xlink:href="#font_1_4" transform="matrix(9.962899,0,0,-9.962899,151.80612,258.04444)"/>
<use data-text="&#x00b5;" xlink:href="#font_1_1" transform="matrix(9.962899,0,0,-9.962899,174.48578,234.4517)"/>
<use data-text="1" xlink:href="#font_5_1" transform="matrix(6.9740097,0,0,-6.9740097,180.48896,235.94573)"/>
<use data-text="=" xlink:href="#font_3_1" transform="matrix(9.962899,0,0,-9.962899,187.72618,234.4517)"/>
<use data-text="(" xlink:href="#font_4_1" transform="matrix(9.962899,0,0,-9.962899,198.2425,220.40428)"/>
<use data-text="A" xlink:href="#font_1_3" transform="matrix(9.962899,0,0,-9.962899,205.57573,228.37453)"/>
<use data-text="B" xlink:href="#font_1_4" transform="matrix(9.962899,0,0,-9.962899,223.0108,228.37453)"/>
<use data-text="C" xlink:href="#font_1_5" transform="matrix(9.962899,0,0,-9.962899,241.14328,228.37453)"/>
<use data-text="A" xlink:href="#font_1_3" transform="matrix(9.962899,0,0,-9.962899,205.57573,240.32988)"/>
<use data-text="C" xlink:href="#font_1_5" transform="matrix(9.962899,0,0,-9.962899,223.12039,240.32988)"/>
<use data-text="B" xlink:href="#font_1_4" transform="matrix(9.962899,0,0,-9.962899,241.02371,240.32988)"/>
<use data-text=")" xlink:href="#font_4_2" transform="matrix(9.962899,0,0,-9.962899,249.08803,220.40428)"/>
<path transform="matrix(1.00003,0,0,-1.00003,12.209923,390.7164)" stroke-width=".3985" stroke-linecap="butt" stroke-miterlimit="10" stroke-linejoin="miter" fill="none" stroke="#000000" d="M0 68.0326H45.35506L22.67752 107.31134Z"/>
<use data-text="A" xlink:href="#font_1_3" transform="matrix(9.962899,0,0,-9.962899,1.2175903,326.08247)"/>
<use data-text="B" xlink:href="#font_1_4" transform="matrix(9.962899,0,0,-9.962899,30.860482,279.87608)"/>
<use data-text="C" xlink:href="#font_1_5" transform="matrix(9.962899,0,0,-9.962899,61.08839,326.08247)"/>
<use data-text="r" xlink:href="#font_2_96" transform="matrix(9.962899,0,0,-9.962899,60.202367,294.43653)"/>
<use data-text="e" xlink:href="#font_2_50" transform="matrix(9.962899,0,0,-9.962899,63.898595,294.43653)"/>
<use data-text="f" xlink:href="#font_2_126" transform="matrix(9.962899,0,0,-9.962899,68.48152,294.43653)"/>
<use data-text="e" xlink:href="#font_2_50" transform="matrix(9.962899,0,0,-9.962899,74.33971,294.43653)"/>
<use data-text="c" xlink:href="#font_2_43" transform="matrix(9.962899,0,0,-9.962899,78.414539,294.43653)"/>
<use data-text="t" xlink:href="#font_2_105" transform="matrix(9.962899,0,0,-9.962899,82.99747,294.43653)"/>
<use data-text="i" xlink:href="#font_2_66" transform="matrix(9.962899,0,0,-9.962899,86.30516,294.43653)"/>
<use data-text="o" xlink:href="#font_2_81" transform="matrix(9.962899,0,0,-9.962899,89.36377,294.43653)"/>
<use data-text="n" xlink:href="#font_2_77" transform="matrix(9.962899,0,0,-9.962899,94.45482,294.43653)"/>
<path transform="matrix(1.00003,0,0,-1.00003,12.209923,390.7164)" stroke-width=".3985" stroke-linecap="butt" stroke-miterlimit="10" stroke-linejoin="miter" fill="none" stroke="#000000" d="M45.35742 90.71487H90.2566"/>
<path transform="matrix(1.00003,0,0,-1.00003,102.46923,299.9988)" stroke-width=".31879" stroke-linecap="round" stroke-linejoin="round" fill="none" stroke="#000000" d="M-1.19551 1.59401C-1.09587 .99626 0 .09961 .29886 0 0-.09961-1.09587-.99626-1.19551-1.59401"/>
<path transform="matrix(1.00003,0,0,-1.00003,12.209923,390.7164)" stroke-width=".3985" stroke-linecap="butt" stroke-miterlimit="10" stroke-linejoin="miter" fill="none" stroke="#000000" d="M90.71013 68.0326H136.0652L113.38766 107.31134Z"/>
<use data-text="C" xlink:href="#font_1_5" transform="matrix(9.962899,0,0,-9.962899,91.5743,326.08247)"/>
<use data-text="B" xlink:href="#font_1_4" transform="matrix(9.962899,0,0,-9.962899,121.57821,279.87608)"/>
<use data-text="A" xlink:href="#font_1_3" transform="matrix(9.962899,0,0,-9.962899,151.80612,326.08247)"/>
<use data-text="&#x00b5;" xlink:href="#font_1_1" transform="matrix(9.962899,0,0,-9.962899,174.48578,302.48976)"/>
<use data-text="2" xlink:href="#font_5_2" transform="matrix(6.9740097,0,0,-6.9740097,180.48896,303.98377)"/>
<use data-text="=" xlink:href="#font_3_1" transform="matrix(9.962899,0,0,-9.962899,187.72618,302.48976)"/>
<use data-text="(" xlink:href="#font_4_1" transform="matrix(9.962899,0,0,-9.962899,198.2425,288.44233)"/>
<use data-text="A" xlink:href="#font_1_3" transform="matrix(9.962899,0,0,-9.962899,205.75673,296.41258)"/>
<use data-text="B" xlink:href="#font_1_4" transform="matrix(9.962899,0,0,-9.962899,223.37114,296.41258)"/>
<use data-text="C" xlink:href="#font_1_5" transform="matrix(9.962899,0,0,-9.962899,241.39402,296.41258)"/>
<use data-text="C" xlink:href="#font_1_5" transform="matrix(9.962899,0,0,-9.962899,205.57573,308.36793)"/>
<use data-text="B" xlink:href="#font_1_4" transform="matrix(9.962899,0,0,-9.962899,223.36948,308.36793)"/>
<use data-text="A" xlink:href="#font_1_3" transform="matrix(9.962899,0,0,-9.962899,241.57169,308.36793)"/>
<use data-text=")" xlink:href="#font_4_2" transform="matrix(9.962899,0,0,-9.962899,249.22504,288.44233)"/>
<path transform="matrix(1.00003,0,0,-1.00003,12.209923,390.7164)" stroke-width=".3985" stroke-linecap="butt" stroke-miterlimit="10" stroke-linejoin="miter" fill="none" stroke="#000000" d="M0 0H45.35506L22.67752 39.27873Z"/>
<use data-text="A" xlink:href="#font_1_3" transform="matrix(9.962899,0,0,-9.962899,1.2175903,394.1205)"/>
<use data-text="B" xlink:href="#font_1_4" transform="matrix(9.962899,0,0,-9.962899,30.860482,347.91413)"/>
<use data-text="C" xlink:href="#font_1_5" transform="matrix(9.962899,0,0,-9.962899,61.08839,394.1205)"/>
<use data-text="r" xlink:href="#font_2_96" transform="matrix(9.962899,0,0,-9.962899,60.202367,362.47456)"/>
<use data-text="e" xlink:href="#font_2_50" transform="matrix(9.962899,0,0,-9.962899,63.898595,362.47456)"/>
<use data-text="f" xlink:href="#font_2_126" transform="matrix(9.962899,0,0,-9.962899,68.48152,362.47456)"/>
<use data-text="e" xlink:href="#font_2_50" transform="matrix(9.962899,0,0,-9.962899,74.33971,362.47456)"/>
<use data-text="c" xlink:href="#font_2_43" transform="matrix(9.962899,0,0,-9.962899,78.414539,362.47456)"/>
<use data-text="t" xlink:href="#font_2_105" transform="matrix(9.962899,0,0,-9.962899,82.99747,362.47456)"/>
<use data-text="i" xlink:href="#font_2_66" transform="matrix(9.962899,0,0,-9.962899,86.30516,362.47456)"/>
<use data-text="o" xlink:href="#font_2_81" transform="matrix(9.962899,0,0,-9.962899,89.36377,362.47456)"/>
<use data-text="n" xlink:href="#font_2_77" transform="matrix(9.962899,0,0,-9.962899,94.45482,362.47456)"/>
<path transform="matrix(1.00003,0,0,-1.00003,12.209923,390.7164)" stroke-width=".3985" stroke-linecap="butt" stroke-miterlimit="10" stroke-linejoin="miter" fill="none" stroke="#000000" d="M45.35742 22.6787H90.2566"/>
<path transform="matrix(1.00003,0,0,-1.00003,102.46923,368.03703)" stroke-width=".31879" stroke-linecap="round" stroke-linejoin="round" fill="none" stroke="#000000" d="M-1.19551 1.59401C-1.09587 .99626 0 .09961 .29886 0 0-.09961-1.09587-.99626-1.19551-1.59401"/>
<path transform="matrix(1.00003,0,0,-1.00003,12.209923,390.7164)" stroke-width=".3985" stroke-linecap="butt" stroke-miterlimit="10" stroke-linejoin="miter" fill="none" stroke="#000000" d="M90.71013 0H136.0652L113.38766 39.27873Z"/>
<use data-text="B" xlink:href="#font_1_4" transform="matrix(9.962899,0,0,-9.962899,91.3503,394.1205)"/>
<use data-text="A" xlink:href="#font_1_3" transform="matrix(9.962899,0,0,-9.962899,121.871219,347.91413)"/>
<use data-text="C" xlink:href="#font_1_5" transform="matrix(9.962899,0,0,-9.962899,151.80612,394.1205)"/>
<use data-text="&#x00b5;" xlink:href="#font_1_1" transform="matrix(9.962899,0,0,-9.962899,174.48578,370.5278)"/>
<use data-text="3" xlink:href="#font_5_3" transform="matrix(6.9740097,0,0,-6.9740097,180.48896,372.02183)"/>
<use data-text="=" xlink:href="#font_3_1" transform="matrix(9.962899,0,0,-9.962899,187.72618,370.5278)"/>
<use data-text="(" xlink:href="#font_4_1" transform="matrix(9.962899,0,0,-9.962899,198.2425,356.48039)"/>
<use data-text="A" xlink:href="#font_1_3" transform="matrix(9.962899,0,0,-9.962899,205.86873,364.45063)"/>
<use data-text="B" xlink:href="#font_1_4" transform="matrix(9.962899,0,0,-9.962899,223.59273,364.45063)"/>
<use data-text="C" xlink:href="#font_1_5" transform="matrix(9.962899,0,0,-9.962899,241.61562,364.45063)"/>
<use data-text="B" xlink:href="#font_1_4" transform="matrix(9.962899,0,0,-9.962899,205.57573,376.40599)"/>
<use data-text="A" xlink:href="#font_1_3" transform="matrix(9.962899,0,0,-9.962899,223.88755,376.40599)"/>
<use data-text="C" xlink:href="#font_1_5" transform="matrix(9.962899,0,0,-9.962899,241.61154,376.40599)"/>
<use data-text=")" xlink:href="#font_4_2" transform="matrix(9.962899,0,0,-9.962899,249.44905,356.48039)"/>
</svg>
