<svg xmlns="http://www.w3.org/2000/svg" xmlns:xlink="http://www.w3.org/1999/xlink" xmlns:inkscape="http://www.inkscape.org/namespaces/inkscape" version="1.1" width="194" height="208" viewBox="0 0 194 208">
<defs>
<path id="font_1_66" d="M.35499574 .14328003C.35499574 .15628052 .34098817 .15628052 .33599855 .15628052 .31999208 .15628052 .31900025 .15228272 .31399537 .13528443 .29599 .070251468 .2630005 .018234253 .22099304 .018234253 .20199585 .018234253 .19898987 .032226564 .19898987 .050247194 .19898987 .07325745 .20498657 .09025574 .22099304 .13227844L.2869873 .3063507C.29499818 .32835389 .29899598 .33836366 .29899598 .35836793 .29899598 .4133911 .2579956 .44140626 .21598816 .44140626 .12098694 .44140626 .07998657 .30134584 .07998657 .28834535 .07998657 .27534486 .09298706 .27534486 .09899902 .27534486 .114990238 .27534486 .115997318 .27833558 .11999512 .29634095 .1349945 .3483734 .1659851 .4133911 .21398926 .4133911 .23199463 .4133911 .23599243 .40039063 .23599243 .38238526 .23599243 .359375 .22898865 .34036256 .21598816 .3053589L.1459961 .119277957C.14199829 .10926819 .1349945 .09126282 .1349945 .07325745 .1349945 .027236939 .16799927-.009765625 .21899414-.009765625 .31399537-.009765625 .35499574 .13127136 .35499574 .14328003M.37098695 .6082916C.37098695 .6432953 .34298707 .6542969 .32499696 .6542969 .29100038 .6542969 .2579956 .623291 .2579956 .58929446 .2579956 .55929568 .2809906 .5432892 .3039856 .5432892 .33699037 .5432892 .37098695 .57229617 .37098695 .6082916Z"/>
<path id="font_1_47" d="M.57499697 .14328003C.57499697 .15628052 .5609894 .15628052 .55599978 .15628052 .5389862 .15628052 .5389862 .1532898 .5329895 .12828064 .5139923 .051239015 .49299623 .018234253 .46598817 .018234253 .43798829 .018234253 .43798829 .050247194 .43798829 .0622406 .43798829 .06825256 .43798829 .07925415 .44099427 .09126282L.58399966 .66529849C.58499148 .6693115 .58699038 .67630007 .58699038 .68029788 .58699038 .6953125 .57099917 .6943054 .55999758 .69329836L.45599366 .6843109C.44198609 .68330386 .43099977 .682312 .43099977 .66430667 .43099977 .6502991 .44299317 .6502991 .45700074 .6502991 .5049896 .6502991 .5049896 .64430239 .5049896 .63531497 .5049896 .63031008 .5019989 .61932376 .5009918 .613327L.44400025 .38539125C.4229889 .4203949 .3939972 .44140626 .35198976 .44140626 .23399353 .44140626 .11299133 .29335023 .11299133 .15028382 .11299133 .054244996 .16999817-.009765625 .24499512-.009765625 .3039856-.009765625 .35299684 .034240724 .37399293 .058242799 .3829956 .021224976 .41600038-.009765625 .46398927-.009765625 .5-.009765625 .5239868 .01222229 .54100039 .04324341 .56199648 .08325195 .57499697 .14328003 .57499697 .14328003M.3809967 .13327027C.37298585 .0982666 .30699159 .018234253 .24798584 .018234253 .20098877 .018234253 .18598938 .069244388 .18598938 .10926819 .18598938 .15628052 .21499634 .27433778 .23999024 .32035829 .27999879 .39338685 .32398988 .4133911 .35198976 .4133911 .4149933 .4133911 .42599488 .32835389 .42599488 .31835938L.4229889 .3043518 .3809967 .13327027Z"/>
<path id="font_1_50" d="M.5019989 .1003418C.5019989 .10835266 .4889984 .12136841 .48199464 .12136841 .47599793 .12136841 .47499085 .11936951 .46598817 .10934448 .4119873 .043258668 .33299256 .018234253 .27799989 .018234253 .20899964 .018234253 .19299317 .08732605 .19299317 .13238526 .19299317 .15541077 .19999695 .19847107 .20698548 .22851563H.2639923C.3039856 .22851563 .4909973 .22851563 .4909973 .3544464 .4909973 .4044037 .44699098 .44140626 .3789978 .44140626 .2709961 .44140626 .11898804 .34744264 .11898804 .17042542 .11898804 .078308109 .17098999-.009765625 .2769928-.009765625 .42099-.009765625 .5019989 .08631897 .5019989 .1003418M.44699098 .3544464C.44699098 .2565155 .29299928 .2565155 .2559967 .2565155H.21499634C.24798584 .38041688 .33499146 .4133911 .3789978 .4133911 .4139862 .4133911 .44699098 .39440919 .44699098 .3544464Z"/>
<path id="font_1_77" d="M.6289978 .14328003C.6289978 .15628052 .61499026 .15628052 .6100006 .15628052 .59399417 .15628052 .59298709 .15228272 .58799746 .13528443 .56999209 .071243289 .5369873 .018234253 .49398805 .018234253 .47499085 .018234253 .47200013 .032226564 .47200013 .050247194 .47200013 .07325745 .47999574 .09425354 .4869995 .11427307 .5069885 .16729737 .5479889 .27534486 .5479889 .33335877 .5479889 .41940309 .4889984 .44140626 .43399049 .44140626 .34899903 .44140626 .3019867 .38438417 .2829895 .3613739 .2769928 .4073944 .23999024 .44140626 .19099427 .44140626 .15699768 .44140626 .1329956 .4223938 .11299133 .38739015 .09498596 .3533783 .07998657 .29335023 .07998657 .28834535 .07998657 .27534486 .09298706 .27534486 .09899902 .27534486 .114990238 .27534486 .115997318 .27833558 .12199402 .3023529 .13699341 .3613739 .15499878 .4133911 .18899536 .4133911 .21699524 .4133911 .21699524 .37838746 .21699524 .36938478 .21699524 .3553772 .21499634 .33937074 .21099854 .32536317L.13798523 .033233644C.13598633 .024230957 .1349945 .021224976 .1349945 .018234253 .1349945 .0022277833 .147995-.009765625 .16499329-.009765625 .19699097-.009765625 .20298767 .014221191 .21199036 .052246095L.23399353 .13827515C.23899842 .1592865 .23899842 .1612854 .25 .2033081L.2659912 .26834107C.2709961 .28434754 .3019867 .34336854 .33299256 .3723755 .3639984 .3993988 .3959961 .4133911 .43099977 .4133911 .46998597 .4133911 .48199464 .38539125 .48199464 .34736634 .48199464 .28933717 .43998719 .17529297 .42099 .12527466 .4139862 .10726929 .4079895 .09126282 .4079895 .07325745 .4079895 .027236939 .44099427-.009765625 .49198915-.009765625 .58699038-.009765625 .6289978 .12927246 .6289978 .14328003Z"/>
<path id="font_1_105" d="M.38198854 .14404297C.38198854 .15602112 .36799623 .15602112 .3639984 .15602112 .34899903 .15602112 .34799195 .1530304 .34298707 .14004517 .29899598 .03819275 .2519989 .018234253 .22099304 .018234253 .19599915 .018234253 .19198609 .04019165 .19198609 .062164308 .19198609 .06915283 .19198609 .07913208 .19499207 .09111023L.2709961 .3976593H.3619995C.3789978 .3976593 .3909912 .3976593 .3909912 .4166565 .3909912 .43066407 .3789978 .43066407 .36299134 .43066407H.2789917L.31498719 .5749054C.31900025 .5899353 .31900025 .5919342 .31900025 .5969391 .31900025 .61997988 .29899598 .625 .2899933 .625 .2579956 .625 .25 .5949402 .24798584 .58592227L.20899964 .43066407H.11898804C.100997928 .43066407 .08898926 .43066407 .08898926 .4116516 .08898926 .3976593 .101989749 .3976593 .116989139 .3976593H.20098877L.1309967 .11807251C.12599182 .09811401 .12599182 .09211731 .12599182 .08213806 .12599182 .023223877 .16999817-.009765625 .21899414-.009765625 .32398988-.009765625 .38198854 .13006592 .38198854 .14404297Z"/>
<path id="font_1_118" d="M.44198609-.008773804 .5399933 .38339234C.54299929 .39738465 .5439911 .39839173 .5439911 .40238954 .5439911 .42140199 .5299988 .43139649 .5139923 .43139649 .48199464 .43139649 .47399903 .40039063 .47200013 .39138795L.4039917 .11627197C.39898683 .0962677 .35699464 .018234253 .2899933 .018234253 .23098755 .018234253 .23098755 .07925415 .23098755 .0962677 .23098755 .15228272 .2559967 .22131348 .28799439 .3083496 .29599 .32835389 .2999878 .33836366 .2999878 .35836793 .2999878 .4133911 .25898744 .44140626 .21699524 .44140626 .12098694 .44140626 .07998657 .30134584 .07998657 .28834535 .07998657 .27534486 .09298706 .27534486 .09899902 .27534486 .114990238 .27534486 .115997318 .27833558 .11999512 .29634095 .13798523 .35836793 .17098999 .4133911 .21499634 .4133911 .23298645 .4133911 .23699951 .40039063 .23699951 .38238526 .23699951 .359375 .22898865 .33836366 .21998596 .3153534 .19198609 .23832703 .1639862 .1652832 .1639862 .11026001 .1639862 .019226075 .22898865-.009765625 .28599549-.009765625 .32998658-.009765625 .3639984 .01222229 .3809967 .027236939 .37199403-.011764526 .35899354-.062698367 .32099916-.112701419 .29499818-.14572144 .25698854-.17578125 .21299744-.17578125 .18699646-.17578125 .1619873-.1647644 .15098572-.1387024 .1789856-.13369751 .19599915-.110702518 .19599915-.08869934 .19599915-.07070923 .18299866-.05570984 .1599884-.05570984 .14399719-.05570984 .10899353-.06669617 .10899353-.11669922 .10899353-.16777039 .1519928-.20379639 .21199036-.20379639 .32398988-.20379639 .4189911-.09870911 .44198609-.008773804Z"/>
<path id="font_2_2" d="M.16899109 .07896423C.1599884 .040985109 .1579895 .032989503 .083999637 .032989503 .06498718 .032989503 .052993776 .032989503 .052993776 .01399231 .052993776 0 .06599426 0 .08299255 0H.45399476C.61898806 0 .74198916 .11694336 .74198916 .21388245 .74198916 .28684999 .67900088 .34580995 .57899478 .35681153 .69499209 .37879945 .79499819 .4547577 .79499819 .54267886 .79499819 .61763 .7220001 .6826172 .59599307 .6826172H.24699402C.22898865 .6826172 .21598816 .6826172 .21598816 .66360476 .21598816 .6496124 .22799683 .6496124 .24499512 .6496124 .27799989 .6496124 .30699159 .6496124 .30699159 .6336212 .30699159 .6296234 .30599977 .62861636 .30299378 .6156311L.16899109 .07896423M.32499696 .3688202 .38598634 .6126404C.394989 .64660647 .3959961 .6496124 .43699647 .6496124H.58099368C.67900088 .6496124 .70098879 .5856476 .70098879 .54467776 .70098879 .4597473 .6100006 .3688202 .48199464 .3688202H.32499696M.2559967 .032989503C.24699402 .034988405 .24398804 .034988405 .24398804 .041992189 .24398804 .049987794 .24598694 .0579834 .24798584 .0639801L.31799317 .3408203H.5209961C.6139984 .3408203 .644989 .2778473 .644989 .22187805 .644989 .12394714 .548996 .032989503 .42900086 .032989503H.2559967Z"/>
<path id="font_2_3" d="M.79599 .6770935C.7969971 .6810913 .798996 .687088 .798996 .6920929 .798996 .6990967 .79299929 .70410159 .7859955 .70410159 .7789917 .70410159 .776001 .7010956 .7679901 .6920929L.69799807 .61505129C.68899539 .628067 .6359863 .70410159 .5189972 .70410159 .2869873 .70410159 .052993776 .48893739 .052993776 .25872804 .052993776 .08457947 .18499756-.021484375 .34399415-.021484375 .47499085-.021484375 .58599856 .058547975 .6399994 .1366272 .6729889 .18566895 .6859894 .23370362 .6859894 .23971558 .6859894 .24871826 .6799927 .25273133 .67099 .25273133 .6589966 .25273133 .6569977 .24772644 .6539917 .2367096 .6119995 .098587039 .47698976 .011505127 .35699464 .011505127 .25498963 .011505127 .147995 .07156372 .147995 .22470093 .147995 .25672914 .15899658 .4238739 .269989 .548996 .34498597 .6330719 .44699098 .6710968 .526001 .6710968 .6519928 .6710968 .70399478 .5700073 .70399478 .4749298 .70399478 .46090699 .69999697 .44189454 .69999697 .42988587 .69999697 .41687013 .71299746 .41687013 .71699526 .41687013 .7299957 .41687013 .7319946 .42086793 .73599246 .43888856L.79599 .6770935Z"/>
<path id="font_2_1" d="M.18499756 .11885071C.13899231 .04597473 .09799194 .035980226 .06199646 .032989503 .051986696 .03199768 .039993287 .0309906 .039993287 .01399231 .039993287 .010986328 .041992189 0 .053985597 0 .06298828 0 .068984989 .0029907227 .13899231 .0029907227 .20698548 .0029907227 .22999573 0 .23498535 0 .23999024 0 .25498963 0 .25498963 .018997193 .25498963 .03199768 .24198914 .032989503 .23699951 .032989503 .21598816 .033996583 .19499207 .04197693 .19499207 .063934329 .19499207 .07891846 .20298767 .09188843 .22200012 .12084961L.2899933 .23066712H.56399539L.58499148 .061950685C.58499148 .047973634 .5669861 .032989503 .519989 .032989503 .5049896 .032989503 .49198915 .032989503 .49198915 .01399231 .49198915 .0129852299 .49299623 0 .5089874 0 .5189972 0 .5569916 .0019989014 .56599429 .0029907227H.6289978C.71899417 .0029907227 .73599246 0 .74398806 0 .7480011 0 .7639923 0 .7639923 .018997193 .7639923 .032989503 .7509918 .032989503 .7350006 .032989503 .6799927 .032989503 .67900088 .04197693 .6759949 .06694031L.5970001 .6848602C.59399417 .7068634 .59298709 .7138672 .57598879 .7138672 .55799868 .7138672 .5519867 .7038574 .54599 .6938629L.18499756 .11885071M.31098939 .26367188 .5179901 .5928192 .55999758 .26367188H.31098939Z"/>
<path id="font_2_4" d="M.16699219 .07896423C.1579895 .040985109 .1559906 .032989503 .08198547 .032989503 .06298828 .032989503 .050994874 .032989503 .050994874 .01399231 .050994874 0 .06399536 0 .08099365 0H.4249878C.6359863 0 .84599307 .20188904 .84599307 .42474366 .84599307 .577652 .74398806 .6826172 .59498599 .6826172H.24499512C.22698975 .6826172 .21398926 .6826172 .21398926 .66360476 .21398926 .6496124 .22599793 .6496124 .24299622 .6496124 .27598573 .6496124 .30499269 .6496124 .30499269 .6336212 .30499269 .6296234 .3039856 .62861636 .30099488 .6156311L.16699219 .07896423M.3880005 .6126251C.39698792 .64660647 .397995 .6496124 .43899537 .6496124H.55999758C.6769867 .6496124 .7559967 .58265689 .7559967 .46072389 .7559967 .42774964 .74198916 .2648468 .6549988 .15292359 .61099246 .096954349 .5249939 .032989503 .40699769 .032989503H.2579956C.24899292 .034988405 .24598694 .034988405 .24598694 .041992189 .24598694 .049987794 .24798584 .0579834 .25 .0639801L.3880005 .6126251Z"/>
<path id="font_3_2" d="M.31399537 .63708499C.31399537 .664032 .31199647 .66503909 .2849884 .66503909 .24398804 .6251831 .19099427 .6013489 .09599304 .6013489V.5683594C.12298584 .5683594 .1769867 .5683594 .23498535 .5953522V.08203125C.23498535 .04499817 .23199463 .032989503 .13699341 .032989503H.101989749V0C.14299011 .0029907227 .22898865 .0029907227 .27398683 .0029907227 .31900025 .0029907227 .4059906 .0029907227 .44699098 0V.032989503H.4119873C.31698609 .032989503 .31399537 .04499817 .31399537 .08203125V.63708499Z"/>
<path id="font_3_3" d="M.33198548 .36080934C.3880005 .38783265 .45599366 .4378662 .45599366 .5159302 .45599366 .6110077 .35899354 .66503909 .2659912 .66503909 .1599884 .66503909 .07398987 .59199526 .07398987 .49790956 .07398987 .46089173 .08699036 .42686463 .11199951 .39782716 .1289978 .3768158 .1329956 .3748169 .19499207 .3357849 .070999149 .2807312 .04399109 .20767212 .04399109 .15162659 .04399109 .041534425 .15499878-.021484375 .2639923-.021484375 .3869934-.021484375 .48599244 .061553956 .48599244 .16764832 .48599244 .23069763 .45199586 .2727356 .43598939 .28974916 .4189911 .30575563 .41799928 .3067627 .33198548 .36080934M.1769867 .45487977C.147995 .4718933 .12399292 .5009155 .12399292 .5359497 .12399292 .598999 .19299317 .6390381 .2639923 .6390381 .34199525 .6390381 .4059906 .5859833 .4059906 .5159302 .4059906 .45788575 .36099244 .408844 .3019867 .37982179L.1769867 .45487977M.22599793 .31776429C.22999573 .31576539 .34399415 .24571228 .36099244 .23469544 .3769989 .22569275 .42900086 .19366455 .42900086 .13360596 .42900086 .056549074 .34799195 .008514404 .2659912 .008514404 .1769867 .008514404 .100997928 .06956482 .100997928 .15162659 .100997928 .22668457 .15699768 .28573609 .22599793 .31776429Z"/>
<path id="font_3_1" d="M.4889984 .31877137C.4889984 .42585755 .47799684 .49090577 .44499208 .55496218 .40098573 .6430359 .31999208 .66503909 .2649994 .66503909 .13899231 .66503909 .09298706 .5709839 .07899475 .5429535 .042999269 .4698944 .040985109 .3708191 .040985109 .31877137 .040985109 .25271607 .04399109 .15162659 .09199524 .07156372 .13798523-.0024871827 .21199036-.021484375 .2649994-.021484375 .31298829-.021484375 .39898683-.0064849855 .44898988 .09257507 .48599244 .16464234 .4889984 .2537079 .4889984 .31877137M.2649994 .006515503C.23098755 .006515503 .1619873 .022521973 .14099121 .12760926 .12998963 .18466187 .12998963 .2787323 .12998963 .33078004 .12998963 .3998413 .12998963 .4698944 .14099121 .5249481 .1619873 .6270294 .23999024 .6370239 .2649994 .6370239 .29899598 .6370239 .36799623 .62002566 .3880005 .5289459 .3999939 .4738922 .3999939 .39883424 .3999939 .33078004 .3999939 .27172853 .3999939 .18165589 .3880005 .12561035 .36698915 .020523072 .2979889 .006515503 .2649994 .006515503Z"/>
<path id="font_4_1" d="M.54499819 .25C.54499819 .3768463 .44299317 .47679139 .31900025 .47679139 .19499207 .47679139 .09298706 .3758545 .09298706 .25 .09298706 .12313843 .19499207 .02319336 .31900025 .02319336 .44299317 .02319336 .54499819 .12413025 .54499819 .25M.31900025 .07519531C.22299195 .07519531 .14498902 .15209961 .14498902 .25 .14498902 .34788514 .22299195 .4248047 .31900025 .4248047 .4149933 .4248047 .49299623 .34788514 .49299623 .25 .49299623 .15209961 .4149933 .07519531 .31900025 .07519531Z"/>
<path id="font_1_96" d="M.5149994 .3723755C.5149994 .43040467 .44299317 .44140626 .40899659 .44140626 .35099793 .44140626 .30899049 .4093933 .2809906 .3723755 .27198792 .4104004 .23899842 .44140626 .19099427 .44140626 .15699768 .44140626 .1329956 .4223938 .11299133 .38739015 .09498596 .3533783 .07998657 .29335023 .07998657 .28834535 .07998657 .27534486 .09298706 .27534486 .09899902 .27534486 .114990238 .27534486 .115997318 .27835084 .12199402 .3023529 .13699341 .3613739 .15499878 .4133911 .18899536 .4133911 .21699524 .4133911 .21699524 .37838746 .21699524 .36938478 .21699524 .3553772 .21499634 .33937074 .21099854 .32536317L.13798523 .0332489C.13598633 .024246216 .1349945 .021240235 .1349945 .018234253 .1349945 .0022277833 .147995-.009765625 .16499329-.009765625 .19299317-.009765625 .20298767 .01322937 .20698548 .02923584L.2679901 .27433778C.2709961 .28834535 .31799317 .4133911 .4079895 .4133911 .4169922 .4133911 .44499208 .4123993 .46398927 .39738465 .43199159 .38539125 .42999269 .359375 .42999269 .3513794 .42999269 .32336427 .45199586 .3173523 .46499635 .3173523 .48399354 .3173523 .5149994 .33135987 .5149994 .3723755Z"/>
<path id="font_1_81" d="M.5399933 .27233888C.5399933 .37638856 .46998597 .44140626 .37998963 .44140626 .25099183 .44140626 .114990238 .3063507 .114990238 .1592865 .114990238 .049240114 .18998719-.009765625 .27398683-.009765625 .40699769-.009765625 .5399933 .12828064 .5399933 .27233888M.46499635 .3073578C.46499635 .27534486 .44999696 .17829895 .40899659 .11026001 .3769989 .055236818 .32299806 .018234253 .2749939 .018234253 .23699951 .018234253 .18998719 .04423523 .18998719 .12426758 .18998719 .16929627 .21099854 .26333619 .24299622 .31835938 .28599549 .39038087 .34498597 .4133911 .3789978 .4133911 .4269867 .4133911 .46499635 .37738038 .46499635 .3073578Z"/>
<path id="font_1_28" d="M.5649872 .14328003C.5649872 .15628052 .5509949 .15628052 .54599 .15628052 .5289917 .15628052 .5289917 .1532898 .522995 .12828064 .5039978 .051239015 .48298646 .018234253 .45599366 .018234253 .42799378 .018234253 .42799378 .050247194 .42799378 .0622406 .42799378 .069244388 .42799378 .07925415 .43099977 .09126282L.5009918 .37338258C.5019989 .37838746 .5049896 .38938905 .5049896 .39439393 .5049896 .4104004 .49198915 .4223938 .47499085 .4223938 .46099855 .4223938 .43899537 .4133911 .43399049 .38539125 .41299439 .4203949 .38398744 .44140626 .34199525 .44140626 .22399903 .44140626 .102996829 .29335023 .102996829 .15028382 .102996829 .054244996 .1599884-.009765625 .23498535-.009765625 .2939911-.009765625 .34298707 .034240724 .3639984 .058242799 .37298585 .021224976 .4059906-.009765625 .45399476-.009765625 .48999024-.009765625 .5139923 .01222229 .5309906 .04324341 .5519867 .08325195 .5649872 .14328003 .5649872 .14328003M.37098695 .13327027C.36299134 .0982666 .29699708 .018234253 .23799134 .018234253 .19099427 .018234253 .17599488 .069244388 .17599488 .10926819 .17599488 .15628052 .20498657 .27433778 .22999573 .32035829 .269989 .39338685 .31399537 .4133911 .34199525 .4133911 .40499879 .4133911 .41600038 .32835389 .41600038 .31835938L.41299439 .3043518 .37098695 .13327027Z"/>
<path id="font_1_126" d="M.6569977 .14303589C.6569977 .15602112 .6429901 .15602112 .6380005 .15602112 .62098696 .15602112 .62098696 .1530304 .61499026 .12806702 .59599307 .05117798 .57499697 .018234253 .5479889 .018234253 .519989 .018234253 .519989 .050186159 .519989 .062164308 .519989 .06915283 .519989 .07913208 .522995 .09111023L.6689911 .6820984C.6689911 .6940918 .6589966 .6940918 .6429901 .6940918H.6269989C.60398867 .6940918 .6029968 .6931 .59799197 .6750946 .59498599 .6620636 .59098818 .64904788 .58898928 .6400299H.58799746C.58599856 .6790924 .5519867 .70410159 .45298768 .70410159 .42199708 .70410159 .34098817 .70410159 .2919922 .6450348 .2579956 .6029663 .25099183 .5659027 .22599793 .43066407H.1559906C.13798523 .43066407 .12599182 .43066407 .12599182 .4116516 .12599182 .3976593 .13899231 .3976593 .1539917 .3976593H.21998596L.1499939 .029205323C.11099243-.17578125 .084991458-.17578125 .06399536-.17578125 .040985109-.17578125 .032989503-.16978455 .025985718-.16378784 .04598999-.15579224 .06098938-.13778687 .06098938-.11578369 .06098938-.08677673 .036987306-.08178711 .025985718-.08178711-.0030059815-.08178711-.025009156-.105789188-.025009156-.13677979-.025009156-.18078614 .019989014-.20379639 .06298828-.20379639 .1619873-.20379639 .20498657-.042770387 .22099304 .04119873L.2889862 .3976593H.5289917L.45899964 .11807251C.45399476 .09811401 .45399476 .09211731 .45399476 .08213806 .45399476 .021224976 .5-.009765625 .54599-.009765625 .58200076-.009765625 .60598757 .01222229 .6230011 .043182374 .6439972 .08312988 .6569977 .14303589 .6569977 .14303589M.5369873 .43066407H.29499818C.32499696 .57992556 .32499696 .58192446 .33399964 .6079712 .34599305 .6390228 .36898805 .6760864 .45399476 .6760864 .47399903 .6760864 .5099945 .6740875 .5329895 .6620636 .5279999 .6600647 .5019989 .6450348 .5019989 .61598208 .5019989 .5869293 .526001 .58192446 .5369873 .58192446 .5569916 .58192446 .57398989 .59495547 .57899478 .6039734H.5799866L.5369873 .43066407Z"/>
<path id="font_1_43" d="M.5019989 .1002655C.5019989 .10826111 .4889984 .121276859 .48199464 .121276859 .47599793 .121276859 .47499085 .119277957 .46598817 .10926819 .4119873 .04324341 .33299256 .018234253 .27799989 .018234253 .22499085 .018234253 .18998719 .056243898 .18998719 .12426758 .18998719 .17329407 .21299744 .26333619 .23799134 .3093567 .28399659 .39338685 .34599305 .4133911 .37998963 .4133911 .3919983 .4133911 .43499757 .4113922 .45298768 .37738038 .4099884 .3683777 .4099884 .33135987 .4099884 .32835389 .4099884 .3123474 .42099 .29534913 .44599916 .29534913 .47099305 .29534913 .49699403 .3153534 .49699403 .3553772 .49699403 .4053955 .44999696 .44140626 .37998963 .44140626 .25 .44140626 .114990238 .3063507 .114990238 .1592865 .114990238 .057250978 .18099976-.009765625 .2769928-.009765625 .42099-.009765625 .5019989 .086257938 .5019989 .1002655Z"/>
<path id="font_1_112" d="M.5209961 .3683777C.5209961 .43139649 .4909973 .44140626 .47599793 .44140626 .45498658 .44140626 .4269867 .42140199 .4269867 .39338685 .4269867 .37937928 .43399049 .3723755 .43998719 .36637879 .45999146 .34536744 .46699525 .3173523 .46699525 .29034425 .46699525 .2523346 .4149933 .018234253 .3019867 .018234253 .23199463 .018234253 .23199463 .087249759 .23199463 .102264408 .23199463 .14527893 .24699402 .1973114 .2809906 .28634645 .2889862 .3103485 .2999878 .33836366 .2999878 .35836793 .2999878 .4133911 .25898744 .44140626 .21699524 .44140626 .12098694 .44140626 .07998657 .30134584 .07998657 .28834535 .07998657 .27534486 .09298706 .27534486 .09899902 .27534486 .114990238 .27534486 .115997318 .27833558 .11999512 .29634095 .13798523 .35836793 .17098999 .4133911 .21499634 .4133911 .23298645 .4133911 .23699951 .40039063 .23699951 .38238526 .23699951 .359375 .22898865 .33836366 .21998596 .3153534 .18998719 .23332215 .16499329 .16629029 .16499329 .11526489 .16499329 .017227173 .23799134-.009765625 .29899598-.009765625 .46598817-.009765625 .5209961 .3173523 .5209961 .3683777Z"/>
<path id="font_1_72" d="M.2999878 .14324951C.2999878 .15625 .28599549 .15625 .2809906 .15625 .2649994 .15625 .2639923 .15223694 .2599945 .13624573 .24598694 .084228519 .22898865 .018234253 .19299317 .018234253 .16499329 .018234253 .16499329 .050231935 .16499329 .06222534 .16499329 .068237308 .16499329 .07923889 .16799927 .0912323L.31098939 .66529849C.31199647 .6693115 .31399537 .67630007 .31399537 .68029788 .31399537 .6953125 .2979889 .6943054 .2869873 .69329836L.18299866 .6843109C.16899109 .68330386 .1579895 .682312 .1579895 .66430667 .1579895 .6502991 .16999817 .6502991 .18399048 .6502991 .23199463 .6502991 .23199463 .64430239 .23199463 .6352997 .23199463 .6302948 .22898865 .6192932 .22799683 .6132965L.10398865 .11824036C.09899902 .098236087 .09899902 .09223938 .09899902 .082229617 .09899902 .021224976 .14498902-.009765625 .19099427-.009765625 .21199036-.009765625 .24299622-.0027770997 .2679901 .04522705 .28599549 .08123779 .2999878 .13923645 .2999878 .14324951Z"/>
<path id="font_1_116" d="M.5209961 .14427185C.5209961 .15628052 .5059967 .15628052 .5019989 .15628052 .4889984 .15628052 .4850006 .15327454 .48199464 .14326477 .44999696 .040252687 .3880005 .018234253 .35899354 .018234253 .32798768 .018234253 .30699159 .040252687 .30699159 .08125305 .30699159 .103256229 .31900025 .15127564 .32798768 .18528748L.3600006 .31536866C.37599183 .37738038 .4099884 .4133911 .44799806 .4133911 .47399903 .4133911 .4909973 .40037538 .49299623 .39938355 .48399354 .39637757 .45799256 .3803711 .45799256 .3513794 .45799256 .32337953 .47999574 .3173828 .49299623 .3173828 .5119934 .3173828 .54299929 .33137513 .54299929 .3723755 .54299929 .42739869 .48199464 .44140626 .44898988 .44140626 .4079895 .44140626 .37399293 .418396 .34700013 .3783722 .33499146 .40238954 .30499269 .44140626 .24398804 .44140626 .13899231 .44140626 .07998657 .31536866 .07998657 .2883606 .07998657 .27534486 .09298706 .27534486 .09899902 .27534486 .11199951 .27534486 .114990238 .27835084 .117996219 .2883606 .14898682 .38737489 .20899964 .4133911 .24198914 .4133911 .2749939 .4133911 .2939911 .38737489 .2939911 .3503723 .2939911 .33036805 .2889862 .30937196 .27799989 .26634217L.24598694 .13626099C.23699951 .103256229 .21598816 .018234253 .15299988 .018234253 .1309967 .018234253 .11399841 .027236939 .10798645 .03224182 .12799073 .040252687 .14299011 .058242799 .14299011 .08024597 .14299011 .10925293 .11898804 .11425781 .10798645 .11425781 .07899475 .11425781 .056991579 .08924866 .056991579 .059249879 .056991579 .011230469 .10798645-.009765625 .1519928-.009765625 .19699097-.009765625 .22999573 .018234253 .2539978 .053253175 .2709961 .016220093 .30899049-.009765625 .35699464-.009765625 .46099855-.009765625 .5209961 .11425781 .5209961 .14427185Z"/>
<path id="font_1_98" d="M.4189911 .15634156C.4189911 .24516297 .33099366 .26313783 .2979889 .27012635 .2539978 .2790985 .21998596 .28608705 .21998596 .32705689 .21998596 .35505677 .24499512 .4133911 .32299806 .4133911 .35499574 .4133911 .3889923 .40231324 .40098573 .37106324 .3659973 .36206056 .3659973 .33006288 .3659973 .33006288 .3659973 .3120575 .37998963 .3000641 .39698792 .3000641 .40098573 .3000641 .44099427 .3000641 .44099427 .35505677 .44099427 .4143982 .38198854 .44140626 .32499696 .44140626 .18998719 .44140626 .1579895 .33206178 .1579895 .29406739 .1579895 .26812745 .16899109 .24017334 .18998719 .22320557 .21199036 .20423889 .22299195 .20225525 .28199769 .18927002 .3039856 .18528748 .35699464 .17430115 .35699464 .12335205 .35699464 .09335327 .33099366 .018234253 .22099304 .018234253 .19999695 .018234253 .14099121 .021240235 .11999512 .067352298 .16499329 .0753479 .16499329 .113357547 .16499329 .11634827 .16499329 .13534546 .15098572 .14935303 .12998963 .14935303 .102996829 .14935303 .07798767 .12934876 .07798767 .08735657 .07798767 .03126526 .1329956-.009765625 .22099304-.009765625 .37799073-.009765625 .4189911 .10835266 .4189911 .15634156Z"/>
<path id="font_1_63" d="M.57499697 .14328003C.57499697 .15628052 .5609894 .15628052 .55599978 .15628052 .5399933 .15628052 .5389862 .15228272 .5339966 .13528443 .5159912 .071243289 .48298646 .018234253 .43998719 .018234253 .42099 .018234253 .41799928 .032226564 .41799928 .050247194 .41799928 .07325745 .42599488 .09425354 .43299867 .11427307 .45298768 .16729737 .49398805 .27534486 .49398805 .33335877 .49398805 .41940309 .43399049 .44140626 .37998963 .44140626 .30599977 .44140626 .2619934 .3993988 .23799134 .3743744L.31098939 .66529849C.31199647 .6693115 .31399537 .67630007 .31399537 .68029788 .31399537 .6953125 .2979889 .6943054 .2869873 .69329836L.18299866 .6843109C.16899109 .68330386 .1579895 .682312 .1579895 .66430667 .1579895 .6502991 .16999817 .6502991 .18399048 .6502991 .23199463 .6502991 .23199463 .64430239 .23199463 .63531497 .23199463 .63031008 .22898865 .61932376 .22799683 .613327L.08299255 .034240724C.08198547 .030227662 .07998657 .023223877 .07998657 .019226075 .07998657 .0052337648 .08999634-.009765625 .11099243-.009765625 .1269989-.009765625 .14199829 .0012207031 .14698792 .0152282719 .1499939 .020233155 .1749878 .12327576 .19299317 .19430542 .19799805 .2163086 .20399475 .23731995 .20899964 .25933839 .21499634 .28334046 .2689972 .4133911 .3769989 .4133911 .41799928 .4133911 .42799378 .38137818 .42799378 .34736634 .42799378 .28933717 .38598634 .17630005 .36698915 .12527466 .3600006 .10726929 .35398866 .09126282 .35398866 .07325745 .35398866 .027236939 .3869934-.009765625 .43798829-.009765625 .5329895-.009765625 .57499697 .12927246 .57499697 .14328003Z"/>
<path id="font_1_120" d="M.46499635 .14520264C.46499635 .15820313 .45199586 .15820313 .44599916 .15820313 .43099977 .15820313 .42999269 .15419007 .42599488 .14118958 .40899659 .09320068 .35798646 .05921936 .31199647 .05921936 .29100038 .05921936 .272995 .066223148 .24499512 .07620239 .20999146 .08920288 .19999695 .08920288 .16999817 .08920288L.24598694 .16520691 .35798646 .2662964C.41600038 .3253479 .41799928 .32635499 .43399049 .3463745 .45298768 .36940003 .48999024 .41740418 .48999024 .42939759 .48999024 .44140626 .47898866 .44140626 .47099305 .44140626 .45899964 .44140626 .45700074 .44039918 .45098878 .43139649 .41999818 .37939454 .4079895 .37039186 .3880005 .37039186 .36698915 .37039186 .35299684 .38639833 .33799745 .4044037 .31199647 .43240357 .2939911 .44140626 .269989 .44140626 .19299317 .44140626 .14399719 .3513794 .14399719 .32435609 .14399719 .3123474 .15699768 .3123474 .16299439 .3123474 .1749878 .3123474 .17799378 .31333924 .18199158 .323349 .20199585 .372406 .25498963 .372406 .26098634 .372406 .28199769 .372406 .3039856 .36439515 .31900025 .35838319 .35699464 .3443756 .3639984 .34336854 .38398744 .3423767 .35598756 .30833436 .29899598 .25828553 .2539978 .21824646 .22099304 .18821717 .18798828 .15919495 .15699768 .12719727 .102996829 .07022095 .06399536 .01222229 .06399536 .0022277833 .06399536-.009765625 .07598877-.009765625 .08299255-.009765625 .09599304-.009765625 .09700012-.008773804 .10499573 .0042266848 .117996219 .024230957 .14698792 .06121826 .18199158 .06121826 .19999695 .06121826 .20999146 .055221559 .23599243 .02722168 .25498963 .0042266848 .272995-.009765625 .3019867-.009765625 .4039917-.009765625 .46499635 .1151886 .46499635 .14520264Z"/>
</defs>
<path transform="matrix(1.00005,0,0,-1.00002,96.964099,203.07181)" stroke-width=".3985" stroke-linecap="butt" stroke-miterlimit="10" stroke-linejoin="miter" fill="none" stroke="#000000" d="M-85.04042 170.08086V198.42766H-35.43349V170.08086ZM-35.43349 198.42766"/>
<path transform="matrix(1.00005,0,0,-1.00002,96.964099,203.07181)" stroke-width=".3985" stroke-linecap="butt" stroke-miterlimit="10" stroke-linejoin="miter" fill="none" stroke="#000000" d="M35.43349 170.08086V198.42766H85.04042V170.08086ZM85.04042 198.42766"/>
<path transform="matrix(1.00005,0,0,-1.00002,96.964099,203.07181)" stroke-width=".3985" stroke-linecap="butt" stroke-miterlimit="10" stroke-linejoin="miter" fill="none" stroke="#000000" d="M-28.3468 184.25424H27.88852"/>
<path transform="matrix(1.00005,0,0,-1.00002,124.854007,18.813874)" stroke-width=".31879" stroke-linecap="round" stroke-linejoin="round" fill="none" stroke="#000000" d="M-1.19551 1.59401C-1.09587 .99626 0 .09961 .29886 0 0-.09961-1.09587-.99626-1.19551-1.59401"/>
<use data-text="i" xlink:href="#font_1_66" transform="matrix(7.970498,0,0,-7.9702599,82.76839,13.668015)"/>
<use data-text="d" xlink:href="#font_1_47" transform="matrix(7.970498,0,0,-7.9702599,85.39067,13.668015)"/>
<use data-text="e" xlink:href="#font_1_50" transform="matrix(7.970498,0,0,-7.9702599,89.76648,13.668015)"/>
<use data-text="n" xlink:href="#font_1_77" transform="matrix(7.970498,0,0,-7.9702599,93.70389,13.668015)"/>
<use data-text="t" xlink:href="#font_1_105" transform="matrix(7.970498,0,0,-7.9702599,98.5101,13.668015)"/>
<use data-text="i" xlink:href="#font_1_66" transform="matrix(7.970498,0,0,-7.9702599,101.35556,13.668015)"/>
<use data-text="t" xlink:href="#font_1_105" transform="matrix(7.970498,0,0,-7.9702599,103.97786,13.668015)"/>
<use data-text="y" xlink:href="#font_1_118" transform="matrix(7.970498,0,0,-7.9702599,106.82332,13.668015)"/>
<use data-text="B" xlink:href="#font_2_2" transform="matrix(7.970498,0,0,-7.9702599,65.0485,7.3628847)"/>
<use data-text="C" xlink:href="#font_2_3" transform="matrix(7.970498,0,0,-7.9702599,65.0485,35.71045)"/>
<use data-text="A" xlink:href="#font_2_1" transform="matrix(7.970498,0,0,-7.9702599,2.0563508,7.3628847)"/>
<use data-text="D" xlink:href="#font_2_4" transform="matrix(7.970498,0,0,-7.9702599,1.2163239,35.71045)"/>
<use data-text="B" xlink:href="#font_2_2" transform="matrix(7.970498,0,0,-7.9702599,185.52852,7.3628847)"/>
<use data-text="C" xlink:href="#font_2_3" transform="matrix(7.970498,0,0,-7.9702599,185.52852,35.71045)"/>
<use data-text="A" xlink:href="#font_2_1" transform="matrix(7.970498,0,0,-7.9702599,122.53638,7.3628847)"/>
<use data-text="D" xlink:href="#font_2_4" transform="matrix(7.970498,0,0,-7.9702599,121.696338,35.71045)"/>
<path transform="matrix(1.00005,0,0,-1.00002,96.964099,203.07181)" stroke-width=".3985" stroke-linecap="butt" stroke-miterlimit="10" stroke-linejoin="miter" fill="none" stroke="#000000" d="M-85.04042 113.38724V141.73404H-35.43349V113.38724ZM-35.43349 141.73404"/>
<path transform="matrix(1.00005,0,0,-1.00002,96.964099,203.07181)" stroke-width=".3985" stroke-linecap="butt" stroke-miterlimit="10" stroke-linejoin="miter" fill="none" stroke="#000000" d="M35.43349 113.38724V141.73404H85.04042V113.38724ZM85.04042 141.73404"/>
<path transform="matrix(1.00005,0,0,-1.00002,96.964099,203.07181)" stroke-width=".3985" stroke-linecap="butt" stroke-miterlimit="10" stroke-linejoin="miter" fill="none" stroke="#000000" d="M-28.3468 127.56062H27.88852"/>
<path transform="matrix(1.00005,0,0,-1.00002,124.854007,75.50863)" stroke-width=".31879" stroke-linecap="round" stroke-linejoin="round" fill="none" stroke="#000000" d="M-1.19551 1.59401C-1.09587 .99626 0 .09961 .29886 0 0-.09961-1.09587-.99626-1.19551-1.59401"/>
<use data-text="1" xlink:href="#font_3_2" transform="matrix(7.970498,0,0,-7.9702599,88.453678,71.98918)"/>
<use data-text="8" xlink:href="#font_3_3" transform="matrix(7.970498,0,0,-7.9702599,92.68599,71.98918)"/>
<use data-text="0" xlink:href="#font_3_1" transform="matrix(7.970498,0,0,-7.9702599,96.91832,71.98918)"/>
<use data-text="&#x25e6;" xlink:href="#font_4_1" transform="matrix(5.9778988,0,0,-5.97772,101.156299,69.17613)"/>
<use data-text="r" xlink:href="#font_1_96" transform="matrix(7.970498,0,0,-7.9702599,82.15036,84.241428)"/>
<use data-text="o" xlink:href="#font_1_81" transform="matrix(7.970498,0,0,-7.9702599,85.32262,84.241428)"/>
<use data-text="t" xlink:href="#font_1_105" transform="matrix(7.970498,0,0,-7.9702599,89.69841,84.241428)"/>
<use data-text="a" xlink:href="#font_1_28" transform="matrix(7.970498,0,0,-7.9702599,92.543888,84.241428)"/>
<use data-text="t" xlink:href="#font_1_105" transform="matrix(7.970498,0,0,-7.9702599,96.91968,84.241428)"/>
<use data-text="i" xlink:href="#font_1_66" transform="matrix(7.970498,0,0,-7.9702599,99.76514,84.241428)"/>
<use data-text="o" xlink:href="#font_1_81" transform="matrix(7.970498,0,0,-7.9702599,102.387439,84.241428)"/>
<use data-text="n" xlink:href="#font_1_77" transform="matrix(7.970498,0,0,-7.9702599,106.76323,84.241428)"/>
<use data-text="B" xlink:href="#font_2_2" transform="matrix(7.970498,0,0,-7.9702599,65.0485,64.05803)"/>
<use data-text="C" xlink:href="#font_2_3" transform="matrix(7.970498,0,0,-7.9702599,65.0485,92.405597)"/>
<use data-text="A" xlink:href="#font_2_1" transform="matrix(7.970498,0,0,-7.9702599,2.0563508,64.05803)"/>
<use data-text="D" xlink:href="#font_2_4" transform="matrix(7.970498,0,0,-7.9702599,1.2163239,92.405597)"/>
<use data-text="D" xlink:href="#font_2_4" transform="matrix(7.970498,0,0,-7.9702599,185.52852,64.05803)"/>
<use data-text="A" xlink:href="#font_2_1" transform="matrix(7.970498,0,0,-7.9702599,185.52852,92.405597)"/>
<use data-text="C" xlink:href="#font_2_3" transform="matrix(7.970498,0,0,-7.9702599,122.280368,64.05803)"/>
<use data-text="B" xlink:href="#font_2_2" transform="matrix(7.970498,0,0,-7.9702599,122.09835,92.405597)"/>
<path transform="matrix(1.00005,0,0,-1.00002,96.964099,203.07181)" stroke-width=".3985" stroke-linecap="butt" stroke-miterlimit="10" stroke-linejoin="miter" fill="none" stroke="#000000" d="M-85.04042 56.69362V85.04042H-35.43349V56.69362ZM-35.43349 85.04042"/>
<path transform="matrix(1.00005,0,0,-1.00002,96.964099,203.07181)" stroke-width=".3985" stroke-linecap="butt" stroke-miterlimit="10" stroke-linejoin="miter" fill="none" stroke="#000000" d="M35.43349 56.69362V85.04042H85.04042V56.69362ZM85.04042 85.04042"/>
<path transform="matrix(1.00005,0,0,-1.00002,96.964099,203.07181)" stroke-width=".3985" stroke-linecap="butt" stroke-miterlimit="10" stroke-linejoin="miter" fill="none" stroke="#000000" d="M-28.3468 70.867H27.88852"/>
<path transform="matrix(1.00005,0,0,-1.00002,124.854007,132.2034)" stroke-width=".31879" stroke-linecap="round" stroke-linejoin="round" fill="none" stroke="#000000" d="M-1.19551 1.59401C-1.09587 .99626 0 .09961 .29886 0 0-.09961-1.09587-.99626-1.19551-1.59401"/>
<use data-text="r" xlink:href="#font_1_96" transform="matrix(7.970498,0,0,-7.9702599,79.74724,127.05728)"/>
<use data-text="e" xlink:href="#font_1_50" transform="matrix(7.970498,0,0,-7.9702599,82.919498,127.05728)"/>
<use data-text="f" xlink:href="#font_1_126" transform="matrix(7.970498,0,0,-7.9702599,86.85692,127.05728)"/>
<use data-text="e" xlink:href="#font_1_50" transform="matrix(7.970498,0,0,-7.9702599,91.88629,127.05728)"/>
<use data-text="c" xlink:href="#font_1_43" transform="matrix(7.970498,0,0,-7.9702599,95.385349,127.05728)"/>
<use data-text="t" xlink:href="#font_1_105" transform="matrix(7.970498,0,0,-7.9702599,99.32277,127.05728)"/>
<use data-text="i" xlink:href="#font_1_66" transform="matrix(7.970498,0,0,-7.9702599,102.16823,127.05728)"/>
<use data-text="o" xlink:href="#font_1_81" transform="matrix(7.970498,0,0,-7.9702599,104.79053,127.05728)"/>
<use data-text="n" xlink:href="#font_1_77" transform="matrix(7.970498,0,0,-7.9702599,109.16632,127.05728)"/>
<use data-text="v" xlink:href="#font_1_112" transform="matrix(7.970498,0,0,-7.9702599,74.69798,141.26258)"/>
<use data-text="e" xlink:href="#font_1_50" transform="matrix(7.970498,0,0,-7.9702599,78.63541,141.26258)"/>
<use data-text="r" xlink:href="#font_1_96" transform="matrix(7.970498,0,0,-7.9702599,82.572818,141.26258)"/>
<use data-text="t" xlink:href="#font_1_105" transform="matrix(7.970498,0,0,-7.9702599,86.18346,141.26258)"/>
<use data-text="i" xlink:href="#font_1_66" transform="matrix(7.970498,0,0,-7.9702599,89.02893,141.26258)"/>
<use data-text="c" xlink:href="#font_1_43" transform="matrix(7.970498,0,0,-7.9702599,91.651218,141.26258)"/>
<use data-text="a" xlink:href="#font_1_28" transform="matrix(7.970498,0,0,-7.9702599,95.15027,141.26258)"/>
<use data-text="l" xlink:href="#font_1_72" transform="matrix(7.970498,0,0,-7.9702599,99.52606,141.26258)"/>
<use data-text="a" xlink:href="#font_1_28" transform="matrix(7.970498,0,0,-7.9702599,104.76268,141.26258)"/>
<use data-text="x" xlink:href="#font_1_116" transform="matrix(7.970498,0,0,-7.9702599,109.13847,141.26258)"/>
<use data-text="i" xlink:href="#font_1_66" transform="matrix(7.970498,0,0,-7.9702599,113.08388,141.26258)"/>
<use data-text="s" xlink:href="#font_1_98" transform="matrix(7.970498,0,0,-7.9702599,115.70618,141.26258)"/>
<use data-text="B" xlink:href="#font_2_2" transform="matrix(7.970498,0,0,-7.9702599,65.0485,120.75316)"/>
<use data-text="C" xlink:href="#font_2_3" transform="matrix(7.970498,0,0,-7.9702599,65.0485,149.10073)"/>
<use data-text="A" xlink:href="#font_2_1" transform="matrix(7.970498,0,0,-7.9702599,2.0563508,120.75316)"/>
<use data-text="D" xlink:href="#font_2_4" transform="matrix(7.970498,0,0,-7.9702599,1.2163239,149.10073)"/>
<use data-text="A" xlink:href="#font_2_1" transform="matrix(7.970498,0,0,-7.9702599,185.52852,120.75316)"/>
<use data-text="D" xlink:href="#font_2_4" transform="matrix(7.970498,0,0,-7.9702599,185.52852,149.10073)"/>
<use data-text="B" xlink:href="#font_2_2" transform="matrix(7.970498,0,0,-7.9702599,122.09835,120.75316)"/>
<use data-text="C" xlink:href="#font_2_3" transform="matrix(7.970498,0,0,-7.9702599,122.280368,149.10073)"/>
<path transform="matrix(1.00005,0,0,-1.00002,96.964099,203.07181)" stroke-width=".3985" stroke-linecap="butt" stroke-miterlimit="10" stroke-linejoin="miter" fill="none" stroke="#000000" d="M-85.04042 0V28.3468H-35.43349V0ZM-35.43349 28.3468"/>
<path transform="matrix(1.00005,0,0,-1.00002,96.964099,203.07181)" stroke-width=".3985" stroke-linecap="butt" stroke-miterlimit="10" stroke-linejoin="miter" fill="none" stroke="#000000" d="M35.43349 0V28.3468H85.04042V0ZM85.04042 28.3468"/>
<path transform="matrix(1.00005,0,0,-1.00002,96.964099,203.07181)" stroke-width=".3985" stroke-linecap="butt" stroke-miterlimit="10" stroke-linejoin="miter" fill="none" stroke="#000000" d="M-28.3468 14.17339H27.88852"/>
<path transform="matrix(1.00005,0,0,-1.00002,124.854007,188.89813)" stroke-width=".31879" stroke-linecap="round" stroke-linejoin="round" fill="none" stroke="#000000" d="M-1.19551 1.59401C-1.09587 .99626 0 .09961 .29886 0 0-.09961-1.09587-.99626-1.19551-1.59401"/>
<use data-text="r" xlink:href="#font_1_96" transform="matrix(7.970498,0,0,-7.9702599,79.74724,183.75243)"/>
<use data-text="e" xlink:href="#font_1_50" transform="matrix(7.970498,0,0,-7.9702599,82.919498,183.75243)"/>
<use data-text="f" xlink:href="#font_1_126" transform="matrix(7.970498,0,0,-7.9702599,86.85692,183.75243)"/>
<use data-text="e" xlink:href="#font_1_50" transform="matrix(7.970498,0,0,-7.9702599,91.88629,183.75243)"/>
<use data-text="c" xlink:href="#font_1_43" transform="matrix(7.970498,0,0,-7.9702599,95.385349,183.75243)"/>
<use data-text="t" xlink:href="#font_1_105" transform="matrix(7.970498,0,0,-7.9702599,99.32277,183.75243)"/>
<use data-text="i" xlink:href="#font_1_66" transform="matrix(7.970498,0,0,-7.9702599,102.16823,183.75243)"/>
<use data-text="o" xlink:href="#font_1_81" transform="matrix(7.970498,0,0,-7.9702599,104.79053,183.75243)"/>
<use data-text="n" xlink:href="#font_1_77" transform="matrix(7.970498,0,0,-7.9702599,109.16632,183.75243)"/>
<use data-text="h" xlink:href="#font_1_63" transform="matrix(7.970498,0,0,-7.9702599,69.66873,197.9577)"/>
<use data-text="o" xlink:href="#font_1_81" transform="matrix(7.970498,0,0,-7.9702599,74.044528,197.9577)"/>
<use data-text="r" xlink:href="#font_1_96" transform="matrix(7.970498,0,0,-7.9702599,78.42032,197.9577)"/>
<use data-text="i" xlink:href="#font_1_66" transform="matrix(7.970498,0,0,-7.9702599,82.03096,197.9577)"/>
<use data-text="z" xlink:href="#font_1_120" transform="matrix(7.970498,0,0,-7.9702599,84.65326,197.9577)"/>
<use data-text="o" xlink:href="#font_1_81" transform="matrix(7.970498,0,0,-7.9702599,88.1523,197.9577)"/>
<use data-text="n" xlink:href="#font_1_77" transform="matrix(7.970498,0,0,-7.9702599,92.52809,197.9577)"/>
<use data-text="t" xlink:href="#font_1_105" transform="matrix(7.970498,0,0,-7.9702599,97.334308,197.9577)"/>
<use data-text="a" xlink:href="#font_1_28" transform="matrix(7.970498,0,0,-7.9702599,100.17978,197.9577)"/>
<use data-text="l" xlink:href="#font_1_72" transform="matrix(7.970498,0,0,-7.9702599,104.55557,197.9577)"/>
<use data-text="a" xlink:href="#font_1_28" transform="matrix(7.970498,0,0,-7.9702599,109.79219,197.9577)"/>
<use data-text="x" xlink:href="#font_1_116" transform="matrix(7.970498,0,0,-7.9702599,114.167987,197.9577)"/>
<use data-text="i" xlink:href="#font_1_66" transform="matrix(7.970498,0,0,-7.9702599,118.11339,197.9577)"/>
<use data-text="s" xlink:href="#font_1_98" transform="matrix(7.970498,0,0,-7.9702599,120.73569,197.9577)"/>
<use data-text="B" xlink:href="#font_2_2" transform="matrix(7.970498,0,0,-7.9702599,65.0485,177.4473)"/>
<use data-text="C" xlink:href="#font_2_3" transform="matrix(7.970498,0,0,-7.9702599,65.0485,205.79486)"/>
<use data-text="A" xlink:href="#font_2_1" transform="matrix(7.970498,0,0,-7.9702599,2.0563508,177.4473)"/>
<use data-text="D" xlink:href="#font_2_4" transform="matrix(7.970498,0,0,-7.9702599,1.2163239,205.79486)"/>
<use data-text="C" xlink:href="#font_2_3" transform="matrix(7.970498,0,0,-7.9702599,185.52852,177.4473)"/>
<use data-text="B" xlink:href="#font_2_2" transform="matrix(7.970498,0,0,-7.9702599,185.52852,205.79486)"/>
<use data-text="D" xlink:href="#font_2_4" transform="matrix(7.970498,0,0,-7.9702599,121.696338,177.4473)"/>
<use data-text="A" xlink:href="#font_2_1" transform="matrix(7.970498,0,0,-7.9702599,122.53638,205.79486)"/>
</svg>
