<svg xmlns="http://www.w3.org/2000/svg" xmlns:xlink="http://www.w3.org/1999/xlink" xmlns:inkscape="http://www.inkscape.org/namespaces/inkscape" version="1.1" width="151" height="130" viewBox="0 0 151 130">
<path transform="matrix(1.00003,0,0,-1,3.5845414,127.303)" stroke-width=".3985" stroke-linecap="butt" stroke-miterlimit="10" stroke-linejoin="miter" fill="none" stroke="#000000" d="M0 0H99.21382M12.40169 12.40169H111.61554M24.80344 24.80344H124.01726"/>
<path transform="matrix(1.00003,0,0,-1,3.5845414,127.303)" d="M1.48813 0C1.48813 .82187 .82187 1.48813 0 1.48813-.82187 1.48813-1.48813 .82187-1.48813 0-1.48813-.82187-.82187-1.48813 0-1.48813 .82187-1.48813 1.48813-.82187 1.48813 0ZM0 0"/>
<path transform="matrix(1.00003,0,0,-1,3.5845414,127.303)" stroke-width=".3985" stroke-linecap="butt" stroke-miterlimit="10" stroke-linejoin="miter" fill="none" stroke="#000000" d="M1.48813 0C1.48813 .82187 .82187 1.48813 0 1.48813-.82187 1.48813-1.48813 .82187-1.48813 0-1.48813-.82187-.82187-1.48813 0-1.48813 .82187-1.48813 1.48813-.82187 1.48813 0ZM0 0"/>
<path transform="matrix(1.00003,0,0,-1,3.5845414,127.303)" d="M51.09505 0C51.09505 .82187 50.42879 1.48813 49.6069 1.48813 48.78502 1.48813 48.11877 .82187 48.11877 0 48.11877-.82187 48.78502-1.48813 49.6069-1.48813 50.42879-1.48813 51.09505-.82187 51.09505 0ZM49.6069 0"/>
<path transform="matrix(1.00003,0,0,-1,3.5845414,127.303)" stroke-width=".3985" stroke-linecap="butt" stroke-miterlimit="10" stroke-linejoin="miter" fill="none" stroke="#000000" d="M51.09505 0C51.09505 .82187 50.42879 1.48813 49.6069 1.48813 48.78502 1.48813 48.11877 .82187 48.11877 0 48.11877-.82187 48.78502-1.48813 49.6069-1.48813 50.42879-1.48813 51.09505-.82187 51.09505 0ZM49.6069 0"/>
<path transform="matrix(1.00003,0,0,-1,3.5845414,127.303)" d="M100.70195 0C100.70195 .82187 100.0357 1.48813 99.21382 1.48813 98.39194 1.48813 97.72568 .82187 97.72568 0 97.72568-.82187 98.39194-1.48813 99.21382-1.48813 100.0357-1.48813 100.70195-.82187 100.70195 0ZM99.21382 0"/>
<path transform="matrix(1.00003,0,0,-1,3.5845414,127.303)" stroke-width=".3985" stroke-linecap="butt" stroke-miterlimit="10" stroke-linejoin="miter" fill="none" stroke="#000000" d="M100.70195 0C100.70195 .82187 100.0357 1.48813 99.21382 1.48813 98.39194 1.48813 97.72568 .82187 97.72568 0 97.72568-.82187 98.39194-1.48813 99.21382-1.48813 100.0357-1.48813 100.70195-.82187 100.70195 0ZM99.21382 0"/>
<path transform="matrix(1.00003,0,0,-1,3.5845414,127.303)" d="M13.88983 12.40169C13.88983 13.22357 13.22357 13.88983 12.40169 13.88983 11.5798 13.88983 10.91356 13.22357 10.91356 12.40169 10.91356 11.5798 11.5798 10.91356 12.40169 10.91356 13.22357 10.91356 13.88983 11.5798 13.88983 12.40169ZM12.40169 12.40169"/>
<path transform="matrix(1.00003,0,0,-1,3.5845414,127.303)" stroke-width=".3985" stroke-linecap="butt" stroke-miterlimit="10" stroke-linejoin="miter" fill="none" stroke="#000000" d="M13.88983 12.40169C13.88983 13.22357 13.22357 13.88983 12.40169 13.88983 11.5798 13.88983 10.91356 13.22357 10.91356 12.40169 10.91356 11.5798 11.5798 10.91356 12.40169 10.91356 13.22357 10.91356 13.88983 11.5798 13.88983 12.40169ZM12.40169 12.40169"/>
<path transform="matrix(1.00003,0,0,-1,3.5845414,127.303)" d="M63.49675 12.40169C63.49675 13.22357 62.8305 13.88983 62.00862 13.88983 61.18674 13.88983 60.52048 13.22357 60.52048 12.40169 60.52048 11.5798 61.18674 10.91356 62.00862 10.91356 62.8305 10.91356 63.49675 11.5798 63.49675 12.40169ZM62.00862 12.40169"/>
<path transform="matrix(1.00003,0,0,-1,3.5845414,127.303)" stroke-width=".3985" stroke-linecap="butt" stroke-miterlimit="10" stroke-linejoin="miter" fill="none" stroke="#000000" d="M63.49675 12.40169C63.49675 13.22357 62.8305 13.88983 62.00862 13.88983 61.18674 13.88983 60.52048 13.22357 60.52048 12.40169 60.52048 11.5798 61.18674 10.91356 62.00862 10.91356 62.8305 10.91356 63.49675 11.5798 63.49675 12.40169ZM62.00862 12.40169"/>
<path transform="matrix(1.00003,0,0,-1,3.5845414,127.303)" d="M113.10367 12.40169C113.10367 13.22357 112.43741 13.88983 111.61554 13.88983 110.79366 13.88983 110.1274 13.22357 110.1274 12.40169 110.1274 11.5798 110.79366 10.91356 111.61554 10.91356 112.43741 10.91356 113.10367 11.5798 113.10367 12.40169ZM111.61554 12.40169"/>
<path transform="matrix(1.00003,0,0,-1,3.5845414,127.303)" stroke-width=".3985" stroke-linecap="butt" stroke-miterlimit="10" stroke-linejoin="miter" fill="none" stroke="#000000" d="M113.10367 12.40169C113.10367 13.22357 112.43741 13.88983 111.61554 13.88983 110.79366 13.88983 110.1274 13.22357 110.1274 12.40169 110.1274 11.5798 110.79366 10.91356 111.61554 10.91356 112.43741 10.91356 113.10367 11.5798 113.10367 12.40169ZM111.61554 12.40169"/>
<path transform="matrix(1.00003,0,0,-1,3.5845414,127.303)" d="M26.29156 24.80344C26.29156 25.62532 25.62532 26.29156 24.80344 26.29156 23.98155 26.29156 23.31529 25.62532 23.31529 24.80344 23.31529 23.98155 23.98155 23.31529 24.80344 23.31529 25.62532 23.31529 26.29156 23.98155 26.29156 24.80344ZM24.80344 24.80344"/>
<path transform="matrix(1.00003,0,0,-1,3.5845414,127.303)" stroke-width=".3985" stroke-linecap="butt" stroke-miterlimit="10" stroke-linejoin="miter" fill="none" stroke="#000000" d="M26.29156 24.80344C26.29156 25.62532 25.62532 26.29156 24.80344 26.29156 23.98155 26.29156 23.31529 25.62532 23.31529 24.80344 23.31529 23.98155 23.98155 23.31529 24.80344 23.31529 25.62532 23.31529 26.29156 23.98155 26.29156 24.80344ZM24.80344 24.80344"/>
<path transform="matrix(1.00003,0,0,-1,3.5845414,127.303)" d="M75.89848 24.80344C75.89848 25.62532 75.23222 26.29156 74.41035 26.29156 73.58847 26.29156 72.92221 25.62532 72.92221 24.80344 72.92221 23.98155 73.58847 23.31529 74.41035 23.31529 75.23222 23.31529 75.89848 23.98155 75.89848 24.80344ZM74.41035 24.80344"/>
<path transform="matrix(1.00003,0,0,-1,3.5845414,127.303)" stroke-width=".3985" stroke-linecap="butt" stroke-miterlimit="10" stroke-linejoin="miter" fill="none" stroke="#000000" d="M75.89848 24.80344C75.89848 25.62532 75.23222 26.29156 74.41035 26.29156 73.58847 26.29156 72.92221 25.62532 72.92221 24.80344 72.92221 23.98155 73.58847 23.31529 74.41035 23.31529 75.23222 23.31529 75.89848 23.98155 75.89848 24.80344ZM74.41035 24.80344"/>
<path transform="matrix(1.00003,0,0,-1,3.5845414,127.303)" d="M125.5054 24.80344C125.5054 25.62532 124.83914 26.29156 124.01726 26.29156 123.19537 26.29156 122.52913 25.62532 122.52913 24.80344 122.52913 23.98155 123.19537 23.31529 124.01726 23.31529 124.83914 23.31529 125.5054 23.98155 125.5054 24.80344ZM124.01726 24.80344"/>
<path transform="matrix(1.00003,0,0,-1,3.5845414,127.303)" stroke-width=".3985" stroke-linecap="butt" stroke-miterlimit="10" stroke-linejoin="miter" fill="none" stroke="#000000" d="M125.5054 24.80344C125.5054 25.62532 124.83914 26.29156 124.01726 26.29156 123.19537 26.29156 122.52913 25.62532 122.52913 24.80344 122.52913 23.98155 123.19537 23.31529 124.01726 23.31529 124.83914 23.31529 125.5054 23.98155 125.5054 24.80344ZM124.01726 24.80344"/>
<path transform="matrix(1.00003,0,0,-1,3.5845414,127.303)" stroke-width=".3985" stroke-linecap="butt" stroke-miterlimit="10" stroke-linejoin="miter" fill="none" stroke="#000000" d="M9.92122 49.6069H109.13506M22.32292 62.00862H121.53676M34.72466 74.41035H133.93849"/>
<path transform="matrix(1.00003,0,0,-1,3.5845414,127.303)" d="M11.40935 49.6069C11.40935 50.42879 10.74309 51.09505 9.92122 51.09505 9.09933 51.09505 8.43307 50.42879 8.43307 49.6069 8.43307 48.78502 9.09933 48.11877 9.92122 48.11877 10.74309 48.11877 11.40935 48.78502 11.40935 49.6069ZM9.92122 49.6069"/>
<path transform="matrix(1.00003,0,0,-1,3.5845414,127.303)" stroke-width=".3985" stroke-linecap="butt" stroke-miterlimit="10" stroke-linejoin="miter" fill="none" stroke="#000000" d="M11.40935 49.6069C11.40935 50.42879 10.74309 51.09505 9.92122 51.09505 9.09933 51.09505 8.43307 50.42879 8.43307 49.6069 8.43307 48.78502 9.09933 48.11877 9.92122 48.11877 10.74309 48.11877 11.40935 48.78502 11.40935 49.6069ZM9.92122 49.6069"/>
<path transform="matrix(1.00003,0,0,-1,3.5845414,127.303)" d="M61.01627 49.6069C61.01627 50.42879 60.35 51.09505 59.52812 51.09505 58.70625 51.09505 58.04 50.42879 58.04 49.6069 58.04 48.78502 58.70625 48.11877 59.52812 48.11877 60.35 48.11877 61.01627 48.78502 61.01627 49.6069ZM59.52812 49.6069"/>
<path transform="matrix(1.00003,0,0,-1,3.5845414,127.303)" stroke-width=".3985" stroke-linecap="butt" stroke-miterlimit="10" stroke-linejoin="miter" fill="none" stroke="#000000" d="M61.01627 49.6069C61.01627 50.42879 60.35 51.09505 59.52812 51.09505 58.70625 51.09505 58.04 50.42879 58.04 49.6069 58.04 48.78502 58.70625 48.11877 59.52812 48.11877 60.35 48.11877 61.01627 48.78502 61.01627 49.6069ZM59.52812 49.6069"/>
<path transform="matrix(1.00003,0,0,-1,3.5845414,127.303)" d="M110.6232 49.6069C110.6232 50.42879 109.95694 51.09505 109.13506 51.09505 108.31317 51.09505 107.64691 50.42879 107.64691 49.6069 107.64691 48.78502 108.31317 48.11877 109.13506 48.11877 109.95694 48.11877 110.6232 48.78502 110.6232 49.6069ZM109.13506 49.6069"/>
<path transform="matrix(1.00003,0,0,-1,3.5845414,127.303)" stroke-width=".3985" stroke-linecap="butt" stroke-miterlimit="10" stroke-linejoin="miter" fill="none" stroke="#000000" d="M110.6232 49.6069C110.6232 50.42879 109.95694 51.09505 109.13506 51.09505 108.31317 51.09505 107.64691 50.42879 107.64691 49.6069 107.64691 48.78502 108.31317 48.11877 109.13506 48.11877 109.95694 48.11877 110.6232 48.78502 110.6232 49.6069ZM109.13506 49.6069"/>
<path transform="matrix(1.00003,0,0,-1,3.5845414,127.303)" d="M23.81107 62.00862C23.81107 62.8305 23.1448 63.49675 22.32292 63.49675 21.50105 63.49675 20.8348 62.8305 20.8348 62.00862 20.8348 61.18674 21.50105 60.52048 22.32292 60.52048 23.1448 60.52048 23.81107 61.18674 23.81107 62.00862ZM22.32292 62.00862"/>
<path transform="matrix(1.00003,0,0,-1,3.5845414,127.303)" stroke-width=".3985" stroke-linecap="butt" stroke-miterlimit="10" stroke-linejoin="miter" fill="none" stroke="#000000" d="M23.81107 62.00862C23.81107 62.8305 23.1448 63.49675 22.32292 63.49675 21.50105 63.49675 20.8348 62.8305 20.8348 62.00862 20.8348 61.18674 21.50105 60.52048 22.32292 60.52048 23.1448 60.52048 23.81107 61.18674 23.81107 62.00862ZM22.32292 62.00862"/>
<path transform="matrix(1.00003,0,0,-1,3.5845414,127.303)" d="M73.41798 62.00862C73.41798 62.8305 72.75172 63.49675 71.92984 63.49675 71.10796 63.49675 70.4417 62.8305 70.4417 62.00862 70.4417 61.18674 71.10796 60.52048 71.92984 60.52048 72.75172 60.52048 73.41798 61.18674 73.41798 62.00862ZM71.92984 62.00862"/>
<path transform="matrix(1.00003,0,0,-1,3.5845414,127.303)" stroke-width=".3985" stroke-linecap="butt" stroke-miterlimit="10" stroke-linejoin="miter" fill="none" stroke="#000000" d="M73.41798 62.00862C73.41798 62.8305 72.75172 63.49675 71.92984 63.49675 71.10796 63.49675 70.4417 62.8305 70.4417 62.00862 70.4417 61.18674 71.10796 60.52048 71.92984 60.52048 72.75172 60.52048 73.41798 61.18674 73.41798 62.00862ZM71.92984 62.00862"/>
<path transform="matrix(1.00003,0,0,-1,3.5845414,127.303)" d="M123.02489 62.00862C123.02489 62.8305 122.35863 63.49675 121.53676 63.49675 120.71487 63.49675 120.04861 62.8305 120.04861 62.00862 120.04861 61.18674 120.71487 60.52048 121.53676 60.52048 122.35863 60.52048 123.02489 61.18674 123.02489 62.00862ZM121.53676 62.00862"/>
<path transform="matrix(1.00003,0,0,-1,3.5845414,127.303)" stroke-width=".3985" stroke-linecap="butt" stroke-miterlimit="10" stroke-linejoin="miter" fill="none" stroke="#000000" d="M123.02489 62.00862C123.02489 62.8305 122.35863 63.49675 121.53676 63.49675 120.71487 63.49675 120.04861 62.8305 120.04861 62.00862 120.04861 61.18674 120.71487 60.52048 121.53676 60.52048 122.35863 60.52048 123.02489 61.18674 123.02489 62.00862ZM121.53676 62.00862"/>
<path transform="matrix(1.00003,0,0,-1,3.5845414,127.303)" d="M36.2128 74.41035C36.2128 75.23222 35.54654 75.89848 34.72466 75.89848 33.90277 75.89848 33.23651 75.23222 33.23651 74.41035 33.23651 73.58847 33.90277 72.92221 34.72466 72.92221 35.54654 72.92221 36.2128 73.58847 36.2128 74.41035ZM34.72466 74.41035"/>
<path transform="matrix(1.00003,0,0,-1,3.5845414,127.303)" stroke-width=".3985" stroke-linecap="butt" stroke-miterlimit="10" stroke-linejoin="miter" fill="none" stroke="#000000" d="M36.2128 74.41035C36.2128 75.23222 35.54654 75.89848 34.72466 75.89848 33.90277 75.89848 33.23651 75.23222 33.23651 74.41035 33.23651 73.58847 33.90277 72.92221 34.72466 72.92221 35.54654 72.92221 36.2128 73.58847 36.2128 74.41035ZM34.72466 74.41035"/>
<path transform="matrix(1.00003,0,0,-1,3.5845414,127.303)" d="M85.81972 74.41035C85.81972 75.23222 85.15346 75.89848 84.33159 75.89848 83.5097 75.89848 82.84344 75.23222 82.84344 74.41035 82.84344 73.58847 83.5097 72.92221 84.33159 72.92221 85.15346 72.92221 85.81972 73.58847 85.81972 74.41035ZM84.33159 74.41035"/>
<path transform="matrix(1.00003,0,0,-1,3.5845414,127.303)" stroke-width=".3985" stroke-linecap="butt" stroke-miterlimit="10" stroke-linejoin="miter" fill="none" stroke="#000000" d="M85.81972 74.41035C85.81972 75.23222 85.15346 75.89848 84.33159 75.89848 83.5097 75.89848 82.84344 75.23222 82.84344 74.41035 82.84344 73.58847 83.5097 72.92221 84.33159 72.92221 85.15346 72.92221 85.81972 73.58847 85.81972 74.41035ZM84.33159 74.41035"/>
<path transform="matrix(1.00003,0,0,-1,3.5845414,127.303)" d="M135.42664 74.41035C135.42664 75.23222 134.76038 75.89848 133.93849 75.89848 133.11663 75.89848 132.45037 75.23222 132.45037 74.41035 132.45037 73.58847 133.11663 72.92221 133.93849 72.92221 134.76038 72.92221 135.42664 73.58847 135.42664 74.41035ZM133.93849 74.41035"/>
<path transform="matrix(1.00003,0,0,-1,3.5845414,127.303)" stroke-width=".3985" stroke-linecap="butt" stroke-miterlimit="10" stroke-linejoin="miter" fill="none" stroke="#000000" d="M135.42664 74.41035C135.42664 75.23222 134.76038 75.89848 133.93849 75.89848 133.11663 75.89848 132.45037 75.23222 132.45037 74.41035 132.45037 73.58847 133.11663 72.92221 133.93849 72.92221 134.76038 72.92221 135.42664 73.58847 135.42664 74.41035ZM133.93849 74.41035"/>
<path transform="matrix(1.00003,0,0,-1,3.5845414,127.303)" stroke-width=".3985" stroke-linecap="butt" stroke-miterlimit="10" stroke-linejoin="miter" fill="none" stroke="#000000" d="M19.84245 99.21382H119.05627M32.24416 111.61554H131.458M44.64589 124.01726H143.85973"/>
<path transform="matrix(1.00003,0,0,-1,3.5845414,127.303)" d="M21.33058 99.21382C21.33058 100.0357 20.66434 100.70195 19.84245 100.70195 19.02057 100.70195 18.35431 100.0357 18.35431 99.21382 18.35431 98.39194 19.02057 97.72568 19.84245 97.72568 20.66434 97.72568 21.33058 98.39194 21.33058 99.21382ZM19.84245 99.21382"/>
<path transform="matrix(1.00003,0,0,-1,3.5845414,127.303)" stroke-width=".3985" stroke-linecap="butt" stroke-miterlimit="10" stroke-linejoin="miter" fill="none" stroke="#000000" d="M21.33058 99.21382C21.33058 100.0357 20.66434 100.70195 19.84245 100.70195 19.02057 100.70195 18.35431 100.0357 18.35431 99.21382 18.35431 98.39194 19.02057 97.72568 19.84245 97.72568 20.66434 97.72568 21.33058 98.39194 21.33058 99.21382ZM19.84245 99.21382"/>
<path transform="matrix(1.00003,0,0,-1,3.5845414,127.303)" d="M70.9375 99.21382C70.9375 100.0357 70.27124 100.70195 69.44937 100.70195 68.62749 100.70195 67.96123 100.0357 67.96123 99.21382 67.96123 98.39194 68.62749 97.72568 69.44937 97.72568 70.27124 97.72568 70.9375 98.39194 70.9375 99.21382ZM69.44937 99.21382"/>
<path transform="matrix(1.00003,0,0,-1,3.5845414,127.303)" stroke-width=".3985" stroke-linecap="butt" stroke-miterlimit="10" stroke-linejoin="miter" fill="none" stroke="#000000" d="M70.9375 99.21382C70.9375 100.0357 70.27124 100.70195 69.44937 100.70195 68.62749 100.70195 67.96123 100.0357 67.96123 99.21382 67.96123 98.39194 68.62749 97.72568 69.44937 97.72568 70.27124 97.72568 70.9375 98.39194 70.9375 99.21382ZM69.44937 99.21382"/>
<path transform="matrix(1.00003,0,0,-1,3.5845414,127.303)" d="M120.54442 99.21382C120.54442 100.0357 119.87816 100.70195 119.05627 100.70195 118.23439 100.70195 117.56815 100.0357 117.56815 99.21382 117.56815 98.39194 118.23439 97.72568 119.05627 97.72568 119.87816 97.72568 120.54442 98.39194 120.54442 99.21382ZM119.05627 99.21382"/>
<path transform="matrix(1.00003,0,0,-1,3.5845414,127.303)" stroke-width=".3985" stroke-linecap="butt" stroke-miterlimit="10" stroke-linejoin="miter" fill="none" stroke="#000000" d="M120.54442 99.21382C120.54442 100.0357 119.87816 100.70195 119.05627 100.70195 118.23439 100.70195 117.56815 100.0357 117.56815 99.21382 117.56815 98.39194 118.23439 97.72568 119.05627 97.72568 119.87816 97.72568 120.54442 98.39194 120.54442 99.21382ZM119.05627 99.21382"/>
<path transform="matrix(1.00003,0,0,-1,3.5845414,127.303)" d="M33.73228 111.61554C33.73228 112.43741 33.06602 113.10367 32.24416 113.10367 31.42227 113.10367 30.75601 112.43741 30.75601 111.61554 30.75601 110.79366 31.42227 110.1274 32.24416 110.1274 33.06602 110.1274 33.73228 110.79366 33.73228 111.61554ZM32.24416 111.61554"/>
<path transform="matrix(1.00003,0,0,-1,3.5845414,127.303)" stroke-width=".3985" stroke-linecap="butt" stroke-miterlimit="10" stroke-linejoin="miter" fill="none" stroke="#000000" d="M33.73228 111.61554C33.73228 112.43741 33.06602 113.10367 32.24416 113.10367 31.42227 113.10367 30.75601 112.43741 30.75601 111.61554 30.75601 110.79366 31.42227 110.1274 32.24416 110.1274 33.06602 110.1274 33.73228 110.79366 33.73228 111.61554ZM32.24416 111.61554"/>
<path transform="matrix(1.00003,0,0,-1,3.5845414,127.303)" d="M83.33922 111.61554C83.33922 112.43741 82.67296 113.10367 81.85107 113.10367 81.02919 113.10367 80.36295 112.43741 80.36295 111.61554 80.36295 110.79366 81.02919 110.1274 81.85107 110.1274 82.67296 110.1274 83.33922 110.79366 83.33922 111.61554ZM81.85107 111.61554"/>
<path transform="matrix(1.00003,0,0,-1,3.5845414,127.303)" stroke-width=".3985" stroke-linecap="butt" stroke-miterlimit="10" stroke-linejoin="miter" fill="none" stroke="#000000" d="M83.33922 111.61554C83.33922 112.43741 82.67296 113.10367 81.85107 113.10367 81.02919 113.10367 80.36295 112.43741 80.36295 111.61554 80.36295 110.79366 81.02919 110.1274 81.85107 110.1274 82.67296 110.1274 83.33922 110.79366 83.33922 111.61554ZM81.85107 111.61554"/>
<path transform="matrix(1.00003,0,0,-1,3.5845414,127.303)" d="M132.94612 111.61554C132.94612 112.43741 132.27988 113.10367 131.458 113.10367 130.63611 113.10367 129.96985 112.43741 129.96985 111.61554 129.96985 110.79366 130.63611 110.1274 131.458 110.1274 132.27988 110.1274 132.94612 110.79366 132.94612 111.61554ZM131.458 111.61554"/>
<path transform="matrix(1.00003,0,0,-1,3.5845414,127.303)" stroke-width=".3985" stroke-linecap="butt" stroke-miterlimit="10" stroke-linejoin="miter" fill="none" stroke="#000000" d="M132.94612 111.61554C132.94612 112.43741 132.27988 113.10367 131.458 113.10367 130.63611 113.10367 129.96985 112.43741 129.96985 111.61554 129.96985 110.79366 130.63611 110.1274 131.458 110.1274 132.27988 110.1274 132.94612 110.79366 132.94612 111.61554ZM131.458 111.61554"/>
<path transform="matrix(1.00003,0,0,-1,3.5845414,127.303)" d="M46.13403 124.01726C46.13403 124.83914 45.46777 125.5054 44.64589 125.5054 43.824 125.5054 43.15776 124.83914 43.15776 124.01726 43.15776 123.19537 43.824 122.52913 44.64589 122.52913 45.46777 122.52913 46.13403 123.19537 46.13403 124.01726ZM44.64589 124.01726"/>
<path transform="matrix(1.00003,0,0,-1,3.5845414,127.303)" stroke-width=".3985" stroke-linecap="butt" stroke-miterlimit="10" stroke-linejoin="miter" fill="none" stroke="#000000" d="M46.13403 124.01726C46.13403 124.83914 45.46777 125.5054 44.64589 125.5054 43.824 125.5054 43.15776 124.83914 43.15776 124.01726 43.15776 123.19537 43.824 122.52913 44.64589 122.52913 45.46777 122.52913 46.13403 123.19537 46.13403 124.01726ZM44.64589 124.01726"/>
<path transform="matrix(1.00003,0,0,-1,3.5845414,127.303)" d="M95.74094 124.01726C95.74094 124.83914 95.07469 125.5054 94.2528 125.5054 93.43092 125.5054 92.76466 124.83914 92.76466 124.01726 92.76466 123.19537 93.43092 122.52913 94.2528 122.52913 95.07469 122.52913 95.74094 123.19537 95.74094 124.01726ZM94.2528 124.01726"/>
<path transform="matrix(1.00003,0,0,-1,3.5845414,127.303)" stroke-width=".3985" stroke-linecap="butt" stroke-miterlimit="10" stroke-linejoin="miter" fill="none" stroke="#000000" d="M95.74094 124.01726C95.74094 124.83914 95.07469 125.5054 94.2528 125.5054 93.43092 125.5054 92.76466 124.83914 92.76466 124.01726 92.76466 123.19537 93.43092 122.52913 94.2528 122.52913 95.07469 122.52913 95.74094 123.19537 95.74094 124.01726ZM94.2528 124.01726"/>
<path transform="matrix(1.00003,0,0,-1,3.5845414,127.303)" d="M145.34786 124.01726C145.34786 124.83914 144.6816 125.5054 143.85973 125.5054 143.03784 125.5054 142.37158 124.83914 142.37158 124.01726 142.37158 123.19537 143.03784 122.52913 143.85973 122.52913 144.6816 122.52913 145.34786 123.19537 145.34786 124.01726ZM143.85973 124.01726"/>
<path transform="matrix(1.00003,0,0,-1,3.5845414,127.303)" stroke-width=".3985" stroke-linecap="butt" stroke-miterlimit="10" stroke-linejoin="miter" fill="none" stroke="#000000" d="M145.34786 124.01726C145.34786 124.83914 144.6816 125.5054 143.85973 125.5054 143.03784 125.5054 142.37158 124.83914 142.37158 124.01726 142.37158 123.19537 143.03784 122.52913 143.85973 122.52913 144.6816 122.52913 145.34786 123.19537 145.34786 124.01726ZM143.85973 124.01726"/>
<path transform="matrix(1.00003,0,0,-1,3.5845414,127.303)" stroke-width=".3985" stroke-linecap="butt" stroke-miterlimit="10" stroke-linejoin="miter" fill="none" stroke="#000000" d="M0 0 19.84245 99.21382M12.40169 12.40169 32.24416 111.61554M24.80344 24.80344 44.64589 124.01726"/>
<path transform="matrix(1.00003,0,0,-1,3.5845414,127.303)" stroke-width=".3985" stroke-linecap="butt" stroke-miterlimit="10" stroke-linejoin="miter" fill="none" stroke="#000000" d="M49.6069 0 69.44937 99.21382M62.00862 12.40169 81.85107 111.61554M74.41035 24.80344 94.2528 124.01726"/>
<path transform="matrix(1.00003,0,0,-1,3.5845414,127.303)" stroke-width=".3985" stroke-linecap="butt" stroke-miterlimit="10" stroke-linejoin="miter" fill="none" stroke="#000000" d="M99.21382 0 119.05627 99.21382M111.61554 111.61554H131.458M124.01726 24.80344 143.85973 124.01726"/>
<path transform="matrix(1.00003,0,0,-1,3.5845414,127.303)" stroke-width=".3985" stroke-linecap="butt" stroke-miterlimit="10" stroke-linejoin="miter" fill="none" stroke="#000000" d="M0 0 24.80344 24.80344M49.6069 0 74.41035 24.80344M99.21382 0 124.01726 24.80344"/>
<path transform="matrix(1.00003,0,0,-1,3.5845414,127.303)" stroke-width=".3985" stroke-linecap="butt" stroke-miterlimit="10" stroke-linejoin="miter" fill="none" stroke="#000000" d="M9.92122 49.6069 34.72466 74.41035M59.52812 49.6069 84.33159 74.41035M109.13506 49.6069 133.93849 74.41035"/>
<path transform="matrix(1.00003,0,0,-1,3.5845414,127.303)" stroke-width=".3985" stroke-linecap="butt" stroke-miterlimit="10" stroke-linejoin="miter" fill="none" stroke="#000000" d="M19.84245 99.21382 44.64589 124.01726M69.44937 99.21382 94.2528 124.01726M119.05627 99.21382 143.85973 124.01726"/>
</svg>
