<svg xmlns="http://www.w3.org/2000/svg" xmlns:xlink="http://www.w3.org/1999/xlink" xmlns:inkscape="http://www.inkscape.org/namespaces/inkscape" version="1.1" width="316" height="124" viewBox="0 0 316 124">
<path transform="matrix(1.00006,0,0,-1.00003,2.0959855,101.01456)" stroke-width=".3985" stroke-linecap="butt" stroke-miterlimit="10" stroke-linejoin="miter" fill="none" stroke="#000000" d="M0 0 28.3468-21.2601 56.69362 0 85.04042-21.2601 113.38724 0 141.73404-21.2601 170.08086 0 198.42766-21.2601 226.77448 0 255.12128-21.2601 283.4681 0"/>
<path transform="matrix(1.00006,0,0,-1.00003,2.0959855,101.01456)" stroke-width=".3985" stroke-linecap="butt" stroke-miterlimit="10" stroke-linejoin="miter" fill="none" stroke="#000000" d="M0 14.17339 28.3468-7.08669 56.69362 14.17339 85.04042-7.08669 113.38724 14.17339 141.73404-7.08669 170.08086 14.17339 198.42766-7.08669 226.77448 14.17339 255.12128-7.08669 283.4681 14.17339 311.8149-7.08669"/>
<path transform="matrix(1.00006,0,0,-1.00003,2.0959855,101.01456)" stroke-width=".3985" stroke-linecap="butt" stroke-miterlimit="10" stroke-linejoin="miter" fill="none" stroke="#000000" d="M0 28.3468 28.3468 7.08669 56.69362 28.3468 85.04042 7.08669 113.38724 28.3468 141.73404 7.08669 170.08086 28.3468 198.42766 7.08669 226.77448 28.3468 255.12128 7.08669 283.4681 28.3468 311.8149 7.08669"/>
<path transform="matrix(1.00006,0,0,-1.00003,2.0959855,101.01456)" stroke-width=".3985" stroke-linecap="butt" stroke-miterlimit="10" stroke-linejoin="miter" fill="none" stroke="#000000" d="M0 42.5202 28.3468 21.2601 56.69362 42.5202 85.04042 21.2601 113.38724 42.5202 141.73404 21.2601 170.08086 42.5202 198.42766 21.2601 226.77448 42.5202 255.12128 21.2601 283.4681 42.5202 311.8149 21.2601"/>
<path transform="matrix(1.00006,0,0,-1.00003,2.0959855,101.01456)" stroke-width=".3985" stroke-linecap="butt" stroke-miterlimit="10" stroke-linejoin="miter" fill="none" stroke="#000000" d="M0 56.69362 28.3468 35.43349 56.69362 56.69362 85.04042 35.43349 113.38724 56.69362 141.73404 35.43349 170.08086 56.69362 198.42766 35.43349 226.77448 56.69362 255.12128 35.43349 283.4681 56.69362 311.8149 35.43349"/>
<path transform="matrix(1.00006,0,0,-1.00003,2.0959855,101.01456)" stroke-width=".3985" stroke-linecap="butt" stroke-miterlimit="10" stroke-linejoin="miter" fill="none" stroke="#000000" d="M0 70.867 28.3468 49.6069 56.69362 70.867 85.04042 49.6069 113.38724 70.867 141.73404 49.6069 170.08086 70.867 198.42766 49.6069 226.77448 70.867 255.12128 49.6069 283.4681 70.867 311.8149 49.6069"/>
<path transform="matrix(1.00006,0,0,-1.00003,2.0959855,101.01456)" stroke-width=".3985" stroke-linecap="butt" stroke-miterlimit="10" stroke-linejoin="miter" fill="none" stroke="#000000" d="M0 85.04042 28.3468 63.7803 56.69362 85.04042 85.04042 63.7803 113.38724 85.04042 141.73404 63.7803 170.08086 85.04042 198.42766 63.7803 226.77448 85.04042 255.12128 63.7803 283.4681 85.04042 311.8149 63.7803"/>
<path transform="matrix(1.00006,0,0,-1.00003,2.0959855,101.01456)" stroke-width=".3985" stroke-linecap="butt" stroke-miterlimit="10" stroke-linejoin="miter" fill="none" stroke="#000000" d="M0 99.21382 28.3468 77.95372 56.69362 99.21382 85.04042 77.95372 113.38724 99.21382 141.73404 77.95372 170.08086 99.21382 198.42766 77.95372 226.77448 99.21382 255.12128 77.95372 283.4681 99.21382"/>
<path transform="matrix(1.00006,0,0,-1.00003,2.0959855,101.01456)" stroke-width=".3985" stroke-linecap="butt" stroke-miterlimit="10" stroke-linejoin="miter" fill="none" stroke="#000000" d="M0 0V14.17339M0 28.3468V42.5202M0 56.69362V70.867M0 85.04042V99.21382"/>
<path transform="matrix(1.00006,0,0,-1.00003,2.0959855,101.01456)" stroke-width=".3985" stroke-linecap="butt" stroke-miterlimit="10" stroke-linejoin="miter" fill="none" stroke="#000000" d="M56.69362 0V14.17339M56.69362 28.3468V42.5202M56.69362 56.69362V70.867M56.69362 85.04042V99.21382"/>
<path transform="matrix(1.00006,0,0,-1.00003,2.0959855,101.01456)" stroke-width=".3985" stroke-linecap="butt" stroke-miterlimit="10" stroke-linejoin="miter" fill="none" stroke="#000000" d="M113.38724 0V14.17339M113.38724 28.3468V42.5202M113.38724 56.69362V70.867M113.38724 85.04042V99.21382"/>
<path transform="matrix(1.00006,0,0,-1.00003,2.0959855,101.01456)" stroke-width=".3985" stroke-linecap="butt" stroke-miterlimit="10" stroke-linejoin="miter" fill="none" stroke="#000000" d="M170.08086 0V14.17339M170.08086 28.3468V42.5202M170.08086 56.69362V70.867M170.08086 85.04042V99.21382"/>
<path transform="matrix(1.00006,0,0,-1.00003,2.0959855,101.01456)" stroke-width=".3985" stroke-linecap="butt" stroke-miterlimit="10" stroke-linejoin="miter" fill="none" stroke="#000000" d="M226.77448 0V14.17339M226.77448 28.3468V42.5202M226.77448 56.69362V70.867M226.77448 85.04042V99.21382"/>
<path transform="matrix(1.00006,0,0,-1.00003,2.0959855,101.01456)" stroke-width=".3985" stroke-linecap="butt" stroke-miterlimit="10" stroke-linejoin="miter" fill="none" stroke="#000000" d="M283.4681 0V14.17339M283.4681 28.3468V42.5202M283.4681 56.69362V70.867M283.4681 85.04042V99.21382"/>
<path transform="matrix(1.00006,0,0,-1.00003,2.0959855,101.01456)" stroke-width=".3985" stroke-linecap="butt" stroke-miterlimit="10" stroke-linejoin="miter" fill="none" stroke="#000000" d="M28.3468-7.08669V7.08669M28.3468 21.2601V35.43349M28.3468 49.6069V63.7803"/>
<path transform="matrix(1.00006,0,0,-1.00003,2.0959855,101.01456)" stroke-width=".3985" stroke-linecap="butt" stroke-miterlimit="10" stroke-linejoin="miter" fill="none" stroke="#000000" d="M85.04042-7.08669V7.08669M85.04042 21.2601V35.43349M85.04042 49.6069V63.7803"/>
<path transform="matrix(1.00006,0,0,-1.00003,2.0959855,101.01456)" stroke-width=".3985" stroke-linecap="butt" stroke-miterlimit="10" stroke-linejoin="miter" fill="none" stroke="#000000" d="M141.73404-7.08669V7.08669M141.73404 21.2601V35.43349M141.73404 49.6069V63.7803"/>
<path transform="matrix(1.00006,0,0,-1.00003,2.0959855,101.01456)" stroke-width=".3985" stroke-linecap="butt" stroke-miterlimit="10" stroke-linejoin="miter" fill="none" stroke="#000000" d="M198.42766-7.08669V7.08669M198.42766 21.2601V35.43349M198.42766 49.6069V63.7803"/>
<path transform="matrix(1.00006,0,0,-1.00003,2.0959855,101.01456)" stroke-width=".3985" stroke-linecap="butt" stroke-miterlimit="10" stroke-linejoin="miter" fill="none" stroke="#000000" d="M255.12128-7.08669V7.08669M255.12128 21.2601V35.43349M255.12128 49.6069V63.7803"/>
<path transform="matrix(1.00006,0,0,-1.00003,2.0959855,101.01456)" stroke-width=".3985" stroke-linecap="butt" stroke-miterlimit="10" stroke-linejoin="miter" fill="none" stroke="#000000" d="M311.8149-7.08669V7.08669M311.8149 21.2601V35.43349M311.8149 49.6069V63.7803"/>
</svg>
