<svg xmlns="http://www.w3.org/2000/svg" xmlns:xlink="http://www.w3.org/1999/xlink" xmlns:inkscape="http://www.inkscape.org/namespaces/inkscape" version="1.1" width="331" height="214" viewBox="0 0 331 214">
<defs>
<path id="font_1_97" d="M.49899293 .18579102C.49899293 .2858429 .43299867 .36791993 .34899903 .38793946L.22099304 .4189453C.15899658 .43388368 .11999512 .48773194 .11999512 .5458069 .11999512 .61595156 .17399597 .677063 .2519989 .677063 .4189911 .677063 .44099427 .5127411 .44699098 .46777345 .44799806 .461792 .44799806 .45581056 .45899964 .45581056 .47200013 .45581056 .47200013 .46080018 .47200013 .47973634V.68107607C.47200013 .69807437 .47200013 .7050781 .46099855 .7050781 .45399476 .7050781 .45298768 .70407107 .44599916 .69207766L.41099549 .63497927C.3809967 .66404727 .33999635 .7050781 .25099183 .7050781 .13999939 .7050781 .055999757 .61694338 .055999757 .5107422 .055999757 .42790223 .10899353 .35490418 .18699646 .32788087 .19799805 .32388307 .24899292 .3118744 .31900025 .29486085 .34599305 .28785707 .37599183 .280838 .4039917 .24382019 .4249878 .2177887 .43499757 .18478394 .43499757 .1517334 .43499757 .0806427 .3849945 .008529663 .30099488 .008529663 .27198792 .008529663 .19599915 .013534546 .14299011 .06260681 .084991458 .11668396 .08198547 .18078614 .08099365 .21679688 .07998657 .22679138 .07199097 .22679138 .068984989 .22679138 .055999757 .22679138 .055999757 .2197876 .055999757 .20178223V.0015258789C.055999757-.015472412 .055999757-.022460938 .066986087-.022460938 .07398987-.022460938 .07499695-.020462037 .08198547-.009475708 .08198547-.009475708 .084991458-.0054626467 .117996219 .047592164 .14898682 .013534546 .21299744-.022460938 .3019867-.022460938 .4189911-.022460938 .49899293 .07562256 .49899293 .18579102Z"/>
<path id="font_1_91" d="M.5269928-.1940918V-.16308594C.45999146-.16308594 .44898988-.16308594 .44898988-.117996219V.4423828H.4269867L.3889923 .35136415C.37599183 .379364 .33499146 .4423828 .25498963 .4423828 .13899231 .4423828 .033996583 .34535218 .033996583 .21531677 .033996583 .090270999 .1309967-.0107421879 .24699402-.0107421879 .31698609-.0107421879 .35798646 .03225708 .37998963 .061264039V-.117996219C.37998963-.16308594 .36898805-.16308594 .3019867-.16308594V-.1940918L.4139862-.19110108 .5269928-.1940918M.3829956 .1362915C.3829956 .104278568 .36499024 .07626343 .34298707 .052261354 .32998658 .038253786 .2979889 .011245728 .25099183 .011245728 .17799378 .011245728 .116989139 .10028076 .116989139 .21531677 .116989139 .3343506 .18699646 .41737367 .26098634 .41737367 .34098817 .41737367 .3829956 .33035279 .3829956 .2773285V.1362915Z"/>
<path id="font_1_109" d="M.5349884 0V.0309906C.46499635 .0309906 .45700074 .037994386 .45700074 .08705139V.4423828L.30999757 .43066407V.3996582C.37998963 .3996582 .3880005 .39266969 .3880005 .34373475V.16601563C.3880005 .07910156 .33999635 .011245728 .2669983 .011245728 .18299866 .011245728 .1789856 .058135988 .1789856 .11009216V.4423828L.03199768 .43066407V.3996582C.10998535 .3996582 .10998535 .39666749 .10998535 .3078003V.15802002C.10998535 .080093387 .10998535-.0107421879 .2619934-.0107421879 .31799317-.0107421879 .3619995 .017242432 .3909912 .07910156V-.0107421879L.5349884 0Z"/>
<path id="font_1_28" d="M.48298646 .08912659V.14511109H.45799256V.08912659C.45799256 .03112793 .43299867 .025131226 .42199708 .025131226 .3889923 .025131226 .3849945 .070129398 .3849945 .07511902V.27508546C.3849945 .31707765 .3849945 .3560791 .34899903 .39312745 .30999757 .43223573 .2599945 .4482422 .21199036 .4482422 .12998963 .4482422 .06098938 .40115357 .06098938 .335083 .06098938 .30508424 .08099365 .28808595 .10699463 .28808595 .1349945 .28808595 .15299988 .30807496 .15299988 .33407594 .15299988 .3460846 .147995 .37908937 .101989749 .38008119 .1289978 .41519166 .17799378 .426239 .20999146 .426239 .25898744 .426239 .31599427 .38710023 .31599427 .29808045V.26107789C.2649994 .25808717 .19499207 .25508119 .13198853 .22509766 .056991579 .19110108 .03199768 .13911438 .03199768 .09512329 .03199768 .014251709 .1289978-.0107421879 .19198609-.0107421879 .2579956-.0107421879 .3039856 .029251099 .32299806 .07624817 .32699586 .036132814 .35398866-.005859375 .40098573-.005859375 .42199708-.005859375 .48298646 .008132935 .48298646 .08912659M.31599427 .14013672C.31599427 .04525757 .24398804 .011245728 .19898987 .011245728 .1499939 .011245728 .10899353 .04624939 .10899353 .09625244 .10899353 .15124512 .15098572 .23425293 .31599427 .24024964V.14013672Z"/>
<path id="font_1_96" d="M.3639984 .38137818C.3639984 .41337586 .33299256 .4423828 .2899933 .4423828 .21699524 .4423828 .18099976 .37538148 .16699219 .3323822V.4423828L.027999878 .43066407V.3996582C.09799194 .3996582 .10598755 .39266969 .10598755 .34370423V.07595825C.10598755 .0309906 .09498596 .0309906 .027999878 .0309906V0L.14199829 .0029907227C.18199158 .0029907227 .22898865 .0029907227 .2689972 0V.0309906H.24798584C.17399597 .0309906 .17199707 .04197693 .17199707 .07795715V.23181153C.17199707 .33137513 .21398926 .42037965 .2899933 .42037965 .29699708 .42037965 .29899598 .42037965 .30099488 .41937257 .2979889 .41838075 .27799989 .40637208 .27799989 .3803711 .27799989 .35237123 .29899598 .33737184 .32099916 .33737184 .33898927 .33737184 .3639984 .3493805 .3639984 .38137818Z"/>
<path id="font_1_50" d="M.4149933 .11933899C.4149933 .12934876 .40699769 .13134766 .4019928 .13134766 .3929901 .13134766 .3909912 .12535095 .3889923 .11734009 .35398866 .014251709 .2639923 .014251709 .2539978 .014251709 .20399475 .014251709 .1639862 .044281007 .14099121 .08131409 .11099243 .12934876 .11099243 .19540406 .11099243 .23144531H.3899994C.4119873 .23144531 .4149933 .23144531 .4149933 .2524414 .4149933 .35131837 .36099244 .4482422 .23599243 .4482422 .11999512 .4482422 .027999878 .34532167 .027999878 .22042847 .027999878 .08631897 .1329956-.0107421879 .24798584-.0107421879 .36999513-.0107421879 .4149933 .10032654 .4149933 .11933899M.34899903 .2524414H.11199951C.117996219 .40126039 .20199585 .426239 .23599243 .426239 .33898927 .426239 .34899903 .2913971 .34899903 .2524414Z"/>
<path id="font_1_95" d="M.7319946 .08753967C.7319946 .09353638 .7319946 .104537967 .71899417 .104537967 .70799258 .104537967 .70799258 .09555054 .70700076 .08854675 .70098879 .017532349 .66600039-.00047302247 .6409912-.00047302247 .59199526-.00047302247 .58399966 .05053711 .56999209 .14355469L.5569916 .22355652C.5389862 .28756715 .48999024 .3205719 .43499757 .3395691 .5319977 .36357118 .6100006 .4245758 .6100006 .502594 .6100006 .5986023 .49598695 .6826172 .34899903 .6826172H.034988405V.6516113H.05899048C.13598633 .6516113 .13798523 .64060977 .13798523 .604599V.077545169C.13798523 .04197693 .13598633 .0309906 .05899048 .0309906H.034988405V0C.070999149 .0029907227 .14199829 .0029907227 .18099976 .0029907227 .21998596 .0029907227 .29100038 .0029907227 .32699586 0V.0309906H.30299378C.22599793 .0309906 .22399903 .04197693 .22399903 .077926639V.3305359H.33898927C.35499574 .3305359 .39698792 .3305359 .43199159 .29658509 .46998597 .26063539 .46998597 .22969055 .46998597 .16279602 .46998597 .09788513 .46998597 .05795288 .5109863 .019989014 .5519867-.016464234 .6069946-.022460938 .6369934-.022460938 .71499636-.022460938 .7319946 .059524537 .7319946 .087524417V.08753967M.5069885 .5025635C.5069885 .43354798 .48298646 .35253907 .33499146 .35253907H.22399903V.6116028C.22399903 .6345978 .22399903 .64660647 .24598694 .6496124 .2559967 .6516113 .2849884 .6516113 .30499269 .6516113 .394989 .6516113 .5069885 .6476135 .5069885 .5025635Z"/>
<path id="font_1_43" d="M.4149933 .119140628C.4149933 .12911988 .40499879 .12911988 .4019928 .12911988 .3929901 .12911988 .3909912 .12512207 .3889923 .119140628 .3600006 .026229859 .29499818 .014251709 .2579956 .014251709 .20498657 .014251709 .116989139 .0572052 .116989139 .21801758 .116989139 .38093568 .19898987 .42323304 .2519989 .42323304 .26098634 .42323304 .32398988 .42222596 .35899354 .38594056 .31799317 .38293458 .31199647 .3529358 .31199647 .3399353 .31199647 .31393434 .32998658 .2939453 .35798646 .2939453 .38398744 .2939453 .4039917 .3109436 .4039917 .34094239 .4039917 .40911866 .32798768 .4482422 .25099183 .4482422 .12599182 .4482422 .033996583 .3399353 .033996583 .21601868 .033996583 .08816528 .1329956-.0107421879 .24899292-.0107421879 .3829956-.0107421879 .4149933 .10914612 .4149933 .119140628Z"/>
<path id="font_1_105" d="M.33198548 .12385559V.18066406H.30699159V.12585449C.30699159 .052108766 .2769928 .014251709 .23999024 .014251709 .17298889 .014251709 .17298889 .10491943 .17298889 .12187195V.3996582H.31599427V.43066407H.17298889V.6142578H.147995C.14698792 .5324249 .116989139 .42565919 .018997193 .42166139V.3996582H.10398865V.12408447C.10398865 .0012512207 .19699097-.0107421879 .23298645-.0107421879 .3039856-.0107421879 .33198548 .060180665 .33198548 .12408447V.12385559Z"/>
<path id="font_1_77" d="M.5349884 0V.0309906C.48298646 .0309906 .45799256 .0309906 .45700074 .061019899V.25221253C.45700074 .3383026 .45700074 .36932374 .42599488 .405365 .4119873 .42237855 .3789978 .4423828 .32099916 .4423828 .24798584 .4423828 .20098877 .39935304 .17298889 .33729554V.4423828L.03199768 .43066407V.3996582C.101989749 .3996582 .10998535 .39266969 .10998535 .34370423V.07595825C.10998535 .0309906 .09899902 .0309906 .03199768 .0309906V0L.14498902 .0029907227 .25698854 0V.0309906C.18998719 .0309906 .1789856 .0309906 .1789856 .07595825V.25978089C.1789856 .36431886 .25 .42037965 .31399537 .42037965 .3769989 .42037965 .3880005 .36631776 .3880005 .30926515V.076034549C.3880005 .0309906 .3769989 .0309906 .30999757 .0309906V0L.4229889 .0029907227 .5349884 0Z"/>
<path id="font_1_59" d="M.4850006 .40411378C.4850006 .42111207 .47299195 .453125 .43399049 .453125 .4139862 .453125 .36999513 .44711305 .32798768 .40611268 .28599549 .43937684 .24398804 .4423828 .22200012 .4423828 .1289978 .4423828 .05999756 .37338258 .05999756 .29638673 .05999756 .25239564 .08198547 .21440125 .10699463 .19340515 .09399414 .17840576 .07598877 .14538574 .07598877 .11035156 .07598877 .07899475 .08898926 .04083252 .11999512 .020828248 .05999756 .003829956 .027999878-.039138795 .027999878-.07911682 .027999878-.15107727 .1269989-.20605469 .24899292-.20605469 .36698915-.20605469 .47099305-.15507508 .47099305-.07711792 .47099305-.042144777 .45700074 .008834839 .4059906 .036834718 .35299684 .064834598 .29499818 .064834598 .23399353 .064834598 .20899964 .064834598 .1659851 .064834598 .15899658 .065841678 .1269989 .069885257 .10598755 .101242069 .10598755 .13334656 .10598755 .13735962 .10598755 .16040039 .12298584 .18040467 .1619873 .15240479 .20298767 .14941406 .22200012 .14941406 .31498719 .14941406 .38398744 .21839905 .38398744 .2953949 .38398744 .3323822 .36799623 .36938478 .34298707 .39237977 .3789978 .42637635 .4149933 .43138124 .43299867 .43138124 .43299867 .43112184 .43998719 .43112184 .44299317 .43011476 .43199159 .42611695 .4269867 .41513063 .4269867 .40315248 .4269867 .38616944 .43998719 .37417604 .45599366 .37417604 .46598817 .37417604 .4850006 .3811798 .4850006 .4041443V.40411378M.30899049 .29626466C.30899049 .26930238 .30799867 .2373352 .29299928 .21235657 .2849884 .20037842 .2619934 .17240906 .22200012 .17240906 .1349945 .17240906 .1349945 .2722931 .1349945 .29527284 .1349945 .3222351 .13598633 .35420228 .15098572 .3791809 .15899658 .3913269 .18199158 .41937257 .22200012 .41937257 .30899049 .41937257 .30899049 .31922914 .30899049 .29618836V.29626466M.4189911-.07911682C.4189911-.13308716 .34799195-.18305969 .25-.18305969 .14898682-.18305969 .07998657-.13209534 .07998657-.07911682 .07998657-.03314209 .117996219 .003829956 .1619873 .0068359377H.22099304C.30699159 .0068359377 .4189911 .0068359377 .4189911-.07911682Z"/>
<path id="font_1_72" d="M.25498963 0V.0309906C.18798828 .0309906 .1769867 .0309906 .1769867 .07601929V.69433596L.032989503 .6826172V.6516113C.102996829 .6516113 .11099243 .64460757 .11099243 .5956421V.07595825C.11099243 .0309906 .099990848 .0309906 .032989503 .0309906V0L.14399719 .0029907227 .25498963 0Z"/>
<path id="font_1_63" d="M.5349884 0V.0309906C.48298646 .0309906 .45799256 .0309906 .45700074 .061019899V.25221253C.45700074 .3383026 .45700074 .36932374 .42599488 .405365 .4119873 .42237855 .3789978 .4423828 .32099916 .4423828 .23699951 .4423828 .19299317 .38233949 .1769867 .34629823H.17599488V.69433596L.03199768 .6826172V.6516113C.101989749 .6516113 .10998535 .64463809 .10998535 .59580996V.076034549C.10998535 .0309906 .09899902 .0309906 .03199768 .0309906V0L.14498902 .0029907227 .25698854 0V.0309906C.18998719 .0309906 .1789856 .0309906 .1789856 .076034549V.2602234C.1789856 .36431886 .25 .42037965 .31399537 .42037965 .3769989 .42037965 .3880005 .36631776 .3880005 .30926515V.076034549C.3880005 .0309906 .3769989 .0309906 .30999757 .0309906V0L.4229889 .0029907227 .5349884 0Z"/>
<path id="font_1_81" d="M.47099305 .21424866C.47099305 .34223939 .37098695 .4482422 .25 .4482422 .125 .4482422 .027999878 .3392334 .027999878 .21424866 .027999878 .085250858 .13198853-.0107421879 .24899292-.0107421879 .36999513-.0107421879 .47099305 .087249759 .47099305 .21424866M.3880005 .22224427C.3880005 .18624878 .3880005 .13224793 .3659973 .08824158 .34399415 .04324341 .2999878 .014251709 .25 .014251709 .20698548 .014251709 .16299439 .035247804 .13598633 .08125305 .11099243 .12524414 .11099243 .18624878 .11099243 .22224427 .11099243 .26124574 .11099243 .31523133 .1349945 .35923768 .1619873 .40522767 .20899964 .426239 .24899292 .426239 .29299928 .426239 .33599855 .40423585 .3619995 .36123658 .3880005 .3182373 .3880005 .26023866 .3880005 .22224427Z"/>
<path id="font_1_75" d="M.8129883 0V.0309906C.7609863 .0309906 .73599246 .0309906 .7350006 .061019899V.25221253C.7350006 .3383026 .7350006 .36932374 .70399478 .405365 .6899872 .42237855 .6569977 .4423828 .598999 .4423828 .5149994 .4423828 .47099305 .38233949 .45399476 .34429933 .43998719 .43138124 .3659973 .4423828 .32099916 .4423828 .24798584 .4423828 .20098877 .39935304 .17298889 .33729554V.4423828L.03199768 .43066407V.3996582C.101989749 .3996582 .10998535 .39266969 .10998535 .34370423V.07595825C.10998535 .0309906 .09899902 .0309906 .03199768 .0309906V0L.14498902 .0029907227 .25698854 0V.0309906C.18998719 .0309906 .1789856 .0309906 .1789856 .07595825V.25978089C.1789856 .36431886 .25 .42037965 .31399537 .42037965 .3769989 .42037965 .3880005 .36631776 .3880005 .30926515V.076034549C.3880005 .0309906 .3769989 .0309906 .30999757 .0309906V0L.4229889 .0029907227 .5349884 0V.0309906C.46798707 .0309906 .45700074 .0309906 .45700074 .076034549V.2602234C.45700074 .36431886 .5279999 .42037965 .59199526 .42037965 .6549988 .42037965 .66600039 .36631776 .66600039 .30926515V.076034549C.66600039 .0309906 .6549988 .0309906 .58799746 .0309906V0L.70098879 .0029907227 .8129883 0Z"/>
<path id="font_1_35" d="M.5209961 .2163086C.5209961 .34335328 .4229889 .4423828 .30899049 .4423828 .23098755 .4423828 .18798828 .39537049 .17199707 .3773651V.69433596L.027999878 .68333438V.6523285C.09799194 .6523285 .10598755 .6453247 .10598755 .596344V.00024414063H.1309967L.16699219 .06227112C.18199158 .039260866 .22399903-.0107421879 .2979889-.0107421879 .4169922-.0107421879 .5209961 .08728027 .5209961 .2163086M.43798829 .21731568C.43798829 .18029785 .43598939 .120285037 .40699769 .07527161 .38598634 .044265748 .34799195 .011245728 .2939911 .011245728 .24899292 .011260986 .21299744 .03526306 .18899536 .072265628 .1749878 .09326172 .1749878 .09625244 .1749878 .11425781V.32034303C.1749878 .3393402 .1749878 .3403473 .18598938 .35635377 .22499085 .41236878 .27999879 .42037965 .3039856 .42037965 .34899903 .42037965 .3849945 .3943634 .40899659 .35635377 .43499757 .31533814 .43798829 .25831605 .43798829 .21730042V.21731568Z"/>
<path id="font_1_66" d="M.24699402 0V.0309906C.18099976 .0309906 .1769867 .035995485 .1769867 .075042728V.4423828L.036987306 .43066407V.3996582C.101989749 .3996582 .11099243 .3936615 .11099243 .3447113V.07595825C.11099243 .0309906 .099990848 .0309906 .032989503 .0309906V0L.14299011 .0029907227C.17799378 .0029907227 .21299744 .0009918213 .24699402 0M.19198609 .603775C.19198609 .6307678 .16899109 .6567688 .13899231 .6567688 .10499573 .6567688 .084991458 .6287689 .084991458 .603775 .084991458 .57676699 .10798645 .55078127 .13798523 .55078127 .17199707 .55078127 .19198609 .5787811 .19198609 .603775Z"/>
<path id="font_1_83" d="M.6239929 .4967041C.6239929 .59465029 .5249939 .6826172 .3880005 .6826172H.034988405V.6516113H.05899048C.13598633 .6516113 .13798523 .64060977 .13798523 .6046295V.07795715C.13798523 .041992189 .13598633 .0309906 .05899048 .0309906H.034988405V0C.069992069 .0029907227 .14399719 .0029907227 .18199158 .0029907227 .21998596 .0029907227 .29499818 .0029907227 .32998658 0V.0309906H.30599977C.22898865 .0309906 .22698975 .041992189 .22698975 .07795715V.3157959H.3959961C.5159912 .3157959 .6239929 .39675904 .6239929 .4967041M.5209961 .4967041C.5209961 .4497223 .5209961 .34179688 .3619995 .34179688H.22399903V.6116333C.22399903 .64460757 .22599793 .6516113 .272995 .6516113H.3619995C.5209961 .6516113 .5209961 .54566958 .5209961 .4967041Z"/>
<path id="font_1_62" d="M.71598818 0V.0309906H.69200137C.61499026 .0309906 .61299136 .041992189 .61299136 .07797241V.6046448C.61299136 .640625 .61499026 .6516113 .69200137 .6516113H.71598818V.6826172C.68099978 .6796112 .6069946 .6796112 .56900027 .6796112 .5309906 .6796112 .45599366 .6796112 .42099 .6826172V.6516113H.44499208C.5219879 .6516113 .5239868 .640625 .5239868 .6046448V.37083436H.22499085V.6046448C.22499085 .640625 .22698975 .6516113 .3039856 .6516113H.32798768V.6826172C.29299928 .6796112 .21899414 .6796112 .18099976 .6796112 .14299011 .6796112 .067993167 .6796112 .032989503 .6826172V.6516113H.056991579C.13398743 .6516113 .13598633 .640625 .13598633 .6046448V.07797241C.13598633 .041992189 .13398743 .0309906 .056991579 .0309906H.032989503V0C.067993167 .0029907227 .14199829 .0029907227 .17999268 .0029907227 .21798706 .0029907227 .29299928 .0029907227 .32798768 0V.0309906H.3039856C.22698975 .0309906 .22499085 .041992189 .22499085 .07797241V.33984376H.5239868V.07797241C.5239868 .041992189 .5219879 .0309906 .44499208 .0309906H.42099V0C.45599366 .0029907227 .5299988 .0029907227 .56799319 .0029907227 .60598757 .0029907227 .68099978 .0029907227 .71598818 0Z"/>
<path id="font_1_116" d="M.5159912 0V.0309906C.46199037 .03125 .44400025 .0332489 .42099 .0622406L.2869873 .23493958C.31698609 .27287293 .35499574 .3217926 .3789978 .3477478 .4099884 .38368226 .45098878 .39866639 .49798585 .3996582V.43066407C.47200013 .4286499 .44198609 .42765809 .41600038 .42765809 .38598634 .42765809 .33299256 .42965699 .31999208 .43066407V.3996582C.34098817 .3973999 .34899903 .3843994 .34899903 .3684082 .34899903 .35240174 .33898927 .33940126 .33399964 .33340455L.27198792 .2554016 .19400025 .35639955C.18499756 .3664093 .18499756 .3684082 .18499756 .3744049 .18499756 .3894043 .19999695 .39840699 .21998596 .39941407V.43066407L.11199951 .42765809C.09098816 .42765809 .04399109 .4286499 .016998291 .43066407V.3996582C.08699036 .3996582 .08799744 .39865113 .1349945 .3387146L.23399353 .20982361C.18699646 .14988709 .18699646 .14788819 .13999939 .09094238 .09199524 .032989503 .032989503 .0309906 .011993408 .0309906V0C.037994386 .0019989014 .068984989 .0029907227 .09498596 .0029907227L.18998719 0V.0309906C.16799927 .034240724 .16099549 .04724121 .16099549 .0622406 .16099549 .084243778 .18998719 .117248538 .25099183 .1892395L.32699586 .08924866C.33499146 .07824707 .34799195 .0622406 .34799195 .056243898 .34799195 .04724121 .33898927 .03224182 .31199647 .03125V0L.41999818 .0029907227C.44699098 .0029907227 .48599244 .0019989014 .5159912 0Z"/>
</defs>
<use data-text="S" xlink:href="#font_1_97" transform="matrix(9.963098,0,0,-9.963098,30.641571,22.125504)"/>
<use data-text="q" xlink:href="#font_1_91" transform="matrix(9.963098,0,0,-9.963098,36.181047,22.125504)"/>
<use data-text="u" xlink:href="#font_1_109" transform="matrix(9.963098,0,0,-9.963098,41.44156,22.125504)"/>
<use data-text="a" xlink:href="#font_1_28" transform="matrix(9.963098,0,0,-9.963098,46.981035,22.125504)"/>
<use data-text="r" xlink:href="#font_1_96" transform="matrix(9.963098,0,0,-9.963098,51.962587,22.125504)"/>
<use data-text="e" xlink:href="#font_1_50" transform="matrix(9.963098,0,0,-9.963098,55.868104,22.125504)"/>
<path transform="matrix(1.00005,0,0,-1.00005,144.68527,211.84198)" stroke-width=".3985" stroke-linecap="butt" stroke-miterlimit="10" stroke-linejoin="miter" fill="none" stroke="#000000" d="M-56.69362 127.56062V184.25424H-141.73404V127.56062ZM-141.73404 184.25424"/>
<path transform="matrix(1.00005,0,0,-1.00005,144.68527,211.84198)" stroke-width=".3985" stroke-linecap="butt" stroke-miterlimit="10" stroke-linejoin="miter" fill="none" stroke="#000000" d="M-56.69362 155.90744H-141.73404M-85.04042 127.56062V184.25424M-113.38724 127.56062V184.25424"/>
<path transform="matrix(1.00005,0,0,-1.00005,144.68527,211.84198)" stroke-width="1.19553" stroke-linecap="butt" stroke-miterlimit="10" stroke-linejoin="miter" fill="none" stroke="#000000" d="M-141.73404 155.90744V184.25424H-113.38724V155.90744ZM-113.38724 184.25424"/>
<path transform="matrix(1.00005,0,0,-1.00005,144.68527,211.84198)" d="M-55.84325 127.56062C-55.84325 128.03028-56.22397 128.411-56.69362 128.411-57.16327 128.411-57.54398 128.03028-57.54398 127.56062-57.54398 127.09097-57.16327 126.71027-56.69362 126.71027-56.22397 126.71027-55.84325 127.09097-55.84325 127.56062ZM-56.69362 127.56062"/>
<path transform="matrix(1.00005,0,0,-1.00005,144.68527,211.84198)" stroke-width=".3985" stroke-linecap="butt" stroke-miterlimit="10" stroke-linejoin="miter" fill="none" stroke="#000000" d="M-55.84325 127.56062C-55.84325 128.03028-56.22397 128.411-56.69362 128.411-57.16327 128.411-57.54398 128.03028-57.54398 127.56062-57.54398 127.09097-57.16327 126.71027-56.69362 126.71027-56.22397 126.71027-55.84325 127.09097-55.84325 127.56062ZM-56.69362 127.56062"/>
<path transform="matrix(1.00005,0,0,-1.00005,144.68527,211.84198)" d="M-84.19005 127.56062C-84.19005 128.03028-84.57077 128.411-85.04042 128.411-85.51007 128.411-85.8908 128.03028-85.8908 127.56062-85.8908 127.09097-85.51007 126.71027-85.04042 126.71027-84.57077 126.71027-84.19005 127.09097-84.19005 127.56062ZM-85.04042 127.56062"/>
<path transform="matrix(1.00005,0,0,-1.00005,144.68527,211.84198)" stroke-width=".3985" stroke-linecap="butt" stroke-miterlimit="10" stroke-linejoin="miter" fill="none" stroke="#000000" d="M-84.19005 127.56062C-84.19005 128.03028-84.57077 128.411-85.04042 128.411-85.51007 128.411-85.8908 128.03028-85.8908 127.56062-85.8908 127.09097-85.51007 126.71027-85.04042 126.71027-84.57077 126.71027-84.19005 127.09097-84.19005 127.56062ZM-85.04042 127.56062"/>
<path transform="matrix(1.00005,0,0,-1.00005,144.68527,211.84198)" d="M-112.53687 127.56062C-112.53687 128.03028-112.91759 128.411-113.38724 128.411-113.85689 128.411-114.2376 128.03028-114.2376 127.56062-114.2376 127.09097-113.85689 126.71027-113.38724 126.71027-112.91759 126.71027-112.53687 127.09097-112.53687 127.56062ZM-113.38724 127.56062"/>
<path transform="matrix(1.00005,0,0,-1.00005,144.68527,211.84198)" stroke-width=".3985" stroke-linecap="butt" stroke-miterlimit="10" stroke-linejoin="miter" fill="none" stroke="#000000" d="M-112.53687 127.56062C-112.53687 128.03028-112.91759 128.411-113.38724 128.411-113.85689 128.411-114.2376 128.03028-114.2376 127.56062-114.2376 127.09097-113.85689 126.71027-113.38724 126.71027-112.91759 126.71027-112.53687 127.09097-112.53687 127.56062ZM-113.38724 127.56062"/>
<path transform="matrix(1.00005,0,0,-1.00005,144.68527,211.84198)" d="M-140.88367 127.56062C-140.88367 128.03028-141.26439 128.411-141.73404 128.411-142.20369 128.411-142.58441 128.03028-142.58441 127.56062-142.58441 127.09097-142.20369 126.71027-141.73404 126.71027-141.26439 126.71027-140.88367 127.09097-140.88367 127.56062ZM-141.73404 127.56062"/>
<path transform="matrix(1.00005,0,0,-1.00005,144.68527,211.84198)" stroke-width=".3985" stroke-linecap="butt" stroke-miterlimit="10" stroke-linejoin="miter" fill="none" stroke="#000000" d="M-140.88367 127.56062C-140.88367 128.03028-141.26439 128.411-141.73404 128.411-142.20369 128.411-142.58441 128.03028-142.58441 127.56062-142.58441 127.09097-142.20369 126.71027-141.73404 126.71027-141.26439 126.71027-140.88367 127.09097-140.88367 127.56062ZM-141.73404 127.56062"/>
<path transform="matrix(1.00005,0,0,-1.00005,144.68527,211.84198)" d="M-55.84325 155.90744C-55.84325 156.37709-56.22397 156.75782-56.69362 156.75782-57.16327 156.75782-57.54398 156.37709-57.54398 155.90744-57.54398 155.43779-57.16327 155.05707-56.69362 155.05707-56.22397 155.05707-55.84325 155.43779-55.84325 155.90744ZM-56.69362 155.90744"/>
<path transform="matrix(1.00005,0,0,-1.00005,144.68527,211.84198)" stroke-width=".3985" stroke-linecap="butt" stroke-miterlimit="10" stroke-linejoin="miter" fill="none" stroke="#000000" d="M-55.84325 155.90744C-55.84325 156.37709-56.22397 156.75782-56.69362 156.75782-57.16327 156.75782-57.54398 156.37709-57.54398 155.90744-57.54398 155.43779-57.16327 155.05707-56.69362 155.05707-56.22397 155.05707-55.84325 155.43779-55.84325 155.90744ZM-56.69362 155.90744"/>
<path transform="matrix(1.00005,0,0,-1.00005,144.68527,211.84198)" d="M-84.19005 155.90744C-84.19005 156.37709-84.57077 156.75782-85.04042 156.75782-85.51007 156.75782-85.8908 156.37709-85.8908 155.90744-85.8908 155.43779-85.51007 155.05707-85.04042 155.05707-84.57077 155.05707-84.19005 155.43779-84.19005 155.90744ZM-85.04042 155.90744"/>
<path transform="matrix(1.00005,0,0,-1.00005,144.68527,211.84198)" stroke-width=".3985" stroke-linecap="butt" stroke-miterlimit="10" stroke-linejoin="miter" fill="none" stroke="#000000" d="M-84.19005 155.90744C-84.19005 156.37709-84.57077 156.75782-85.04042 156.75782-85.51007 156.75782-85.8908 156.37709-85.8908 155.90744-85.8908 155.43779-85.51007 155.05707-85.04042 155.05707-84.57077 155.05707-84.19005 155.43779-84.19005 155.90744ZM-85.04042 155.90744"/>
<path transform="matrix(1.00005,0,0,-1.00005,144.68527,211.84198)" d="M-112.53687 155.90744C-112.53687 156.37709-112.91759 156.75782-113.38724 156.75782-113.85689 156.75782-114.2376 156.37709-114.2376 155.90744-114.2376 155.43779-113.85689 155.05707-113.38724 155.05707-112.91759 155.05707-112.53687 155.43779-112.53687 155.90744ZM-113.38724 155.90744"/>
<path transform="matrix(1.00005,0,0,-1.00005,144.68527,211.84198)" stroke-width=".3985" stroke-linecap="butt" stroke-miterlimit="10" stroke-linejoin="miter" fill="none" stroke="#000000" d="M-112.53687 155.90744C-112.53687 156.37709-112.91759 156.75782-113.38724 156.75782-113.85689 156.75782-114.2376 156.37709-114.2376 155.90744-114.2376 155.43779-113.85689 155.05707-113.38724 155.05707-112.91759 155.05707-112.53687 155.43779-112.53687 155.90744ZM-113.38724 155.90744"/>
<path transform="matrix(1.00005,0,0,-1.00005,144.68527,211.84198)" d="M-140.88367 155.90744C-140.88367 156.37709-141.26439 156.75782-141.73404 156.75782-142.20369 156.75782-142.58441 156.37709-142.58441 155.90744-142.58441 155.43779-142.20369 155.05707-141.73404 155.05707-141.26439 155.05707-140.88367 155.43779-140.88367 155.90744ZM-141.73404 155.90744"/>
<path transform="matrix(1.00005,0,0,-1.00005,144.68527,211.84198)" stroke-width=".3985" stroke-linecap="butt" stroke-miterlimit="10" stroke-linejoin="miter" fill="none" stroke="#000000" d="M-140.88367 155.90744C-140.88367 156.37709-141.26439 156.75782-141.73404 156.75782-142.20369 156.75782-142.58441 156.37709-142.58441 155.90744-142.58441 155.43779-142.20369 155.05707-141.73404 155.05707-141.26439 155.05707-140.88367 155.43779-140.88367 155.90744ZM-141.73404 155.90744"/>
<path transform="matrix(1.00005,0,0,-1.00005,144.68527,211.84198)" d="M-55.84325 184.25424C-55.84325 184.72389-56.22397 185.10462-56.69362 185.10462-57.16327 185.10462-57.54398 184.72389-57.54398 184.25424-57.54398 183.78459-57.16327 183.40389-56.69362 183.40389-56.22397 183.40389-55.84325 183.78459-55.84325 184.25424ZM-56.69362 184.25424"/>
<path transform="matrix(1.00005,0,0,-1.00005,144.68527,211.84198)" stroke-width=".3985" stroke-linecap="butt" stroke-miterlimit="10" stroke-linejoin="miter" fill="none" stroke="#000000" d="M-55.84325 184.25424C-55.84325 184.72389-56.22397 185.10462-56.69362 185.10462-57.16327 185.10462-57.54398 184.72389-57.54398 184.25424-57.54398 183.78459-57.16327 183.40389-56.69362 183.40389-56.22397 183.40389-55.84325 183.78459-55.84325 184.25424ZM-56.69362 184.25424"/>
<path transform="matrix(1.00005,0,0,-1.00005,144.68527,211.84198)" d="M-84.19005 184.25424C-84.19005 184.72389-84.57077 185.10462-85.04042 185.10462-85.51007 185.10462-85.8908 184.72389-85.8908 184.25424-85.8908 183.78459-85.51007 183.40389-85.04042 183.40389-84.57077 183.40389-84.19005 183.78459-84.19005 184.25424ZM-85.04042 184.25424"/>
<path transform="matrix(1.00005,0,0,-1.00005,144.68527,211.84198)" stroke-width=".3985" stroke-linecap="butt" stroke-miterlimit="10" stroke-linejoin="miter" fill="none" stroke="#000000" d="M-84.19005 184.25424C-84.19005 184.72389-84.57077 185.10462-85.04042 185.10462-85.51007 185.10462-85.8908 184.72389-85.8908 184.25424-85.8908 183.78459-85.51007 183.40389-85.04042 183.40389-84.57077 183.40389-84.19005 183.78459-84.19005 184.25424ZM-85.04042 184.25424"/>
<path transform="matrix(1.00005,0,0,-1.00005,144.68527,211.84198)" d="M-112.53687 184.25424C-112.53687 184.72389-112.91759 185.10462-113.38724 185.10462-113.85689 185.10462-114.2376 184.72389-114.2376 184.25424-114.2376 183.78459-113.85689 183.40389-113.38724 183.40389-112.91759 183.40389-112.53687 183.78459-112.53687 184.25424ZM-113.38724 184.25424"/>
<path transform="matrix(1.00005,0,0,-1.00005,144.68527,211.84198)" stroke-width=".3985" stroke-linecap="butt" stroke-miterlimit="10" stroke-linejoin="miter" fill="none" stroke="#000000" d="M-112.53687 184.25424C-112.53687 184.72389-112.91759 185.10462-113.38724 185.10462-113.85689 185.10462-114.2376 184.72389-114.2376 184.25424-114.2376 183.78459-113.85689 183.40389-113.38724 183.40389-112.91759 183.40389-112.53687 183.78459-112.53687 184.25424ZM-113.38724 184.25424"/>
<path transform="matrix(1.00005,0,0,-1.00005,144.68527,211.84198)" d="M-140.88367 184.25424C-140.88367 184.72389-141.26439 185.10462-141.73404 185.10462-142.20369 185.10462-142.58441 184.72389-142.58441 184.25424-142.58441 183.78459-142.20369 183.40389-141.73404 183.40389-141.26439 183.40389-140.88367 183.78459-140.88367 184.25424ZM-141.73404 184.25424"/>
<path transform="matrix(1.00005,0,0,-1.00005,144.68527,211.84198)" stroke-width=".3985" stroke-linecap="butt" stroke-miterlimit="10" stroke-linejoin="miter" fill="none" stroke="#000000" d="M-140.88367 184.25424C-140.88367 184.72389-141.26439 185.10462-141.73404 185.10462-142.20369 185.10462-142.58441 184.72389-142.58441 184.25424-142.58441 183.78459-142.20369 183.40389-141.73404 183.40389-141.26439 183.40389-140.88367 183.78459-140.88367 184.25424ZM-141.73404 184.25424"/>
<use data-text="R" xlink:href="#font_1_95" transform="matrix(9.963098,0,0,-9.963098,118.30795,7.831787)"/>
<use data-text="e" xlink:href="#font_1_50" transform="matrix(9.963098,0,0,-9.963098,125.64079,7.831787)"/>
<use data-text="c" xlink:href="#font_1_43" transform="matrix(9.963098,0,0,-9.963098,130.0644,7.831787)"/>
<use data-text="t" xlink:href="#font_1_105" transform="matrix(9.963098,0,0,-9.963098,134.48804,7.831787)"/>
<use data-text="a" xlink:href="#font_1_28" transform="matrix(9.963098,0,0,-9.963098,138.36368,7.831787)"/>
<use data-text="n" xlink:href="#font_1_77" transform="matrix(9.963098,0,0,-9.963098,143.34523,7.831787)"/>
<use data-text="g" xlink:href="#font_1_59" transform="matrix(9.963098,0,0,-9.963098,148.8847,7.831787)"/>
<use data-text="u" xlink:href="#font_1_109" transform="matrix(9.963098,0,0,-9.963098,153.86627,7.831787)"/>
<use data-text="l" xlink:href="#font_1_72" transform="matrix(9.963098,0,0,-9.963098,159.40576,7.831787)"/>
<use data-text="a" xlink:href="#font_1_28" transform="matrix(9.963098,0,0,-9.963098,162.17548,7.831787)"/>
<use data-text="r" xlink:href="#font_1_96" transform="matrix(9.963098,0,0,-9.963098,167.15702,7.831787)"/>
<path transform="matrix(1.00005,0,0,-1.00005,144.68527,211.84198)" stroke-width=".3985" stroke-linecap="butt" stroke-miterlimit="10" stroke-linejoin="miter" fill="none" stroke="#000000" d="M-28.3468 113.38724V198.42766H28.3468V113.38724ZM28.3468 198.42766H-28.3468"/>
<path transform="matrix(1.00005,0,0,-1.00005,144.68527,211.84198)" stroke-width=".3985" stroke-linecap="butt" stroke-miterlimit="10" stroke-linejoin="miter" fill="none" stroke="#000000" d="M0 113.38724V198.42766M-28.3468 155.90744H28.3468"/>
<path transform="matrix(1.00005,0,0,-1.00005,144.68527,211.84198)" stroke-width="1.19553" stroke-linecap="butt" stroke-miterlimit="10" stroke-linejoin="miter" fill="none" stroke="#000000" d="M-28.3468 155.90744V198.42766H0V155.90744ZM0 198.42766"/>
<path transform="matrix(1.00005,0,0,-1.00005,144.68527,211.84198)" d="M-27.49643 113.38724C-27.49643 113.85689-27.87715 114.2376-28.3468 114.2376-28.81645 114.2376-29.19717 113.85689-29.19717 113.38724-29.19717 112.91759-28.81645 112.53687-28.3468 112.53687-27.87715 112.53687-27.49643 112.91759-27.49643 113.38724ZM-28.3468 113.38724"/>
<path transform="matrix(1.00005,0,0,-1.00005,144.68527,211.84198)" stroke-width=".3985" stroke-linecap="butt" stroke-miterlimit="10" stroke-linejoin="miter" fill="none" stroke="#000000" d="M-27.49643 113.38724C-27.49643 113.85689-27.87715 114.2376-28.3468 114.2376-28.81645 114.2376-29.19717 113.85689-29.19717 113.38724-29.19717 112.91759-28.81645 112.53687-28.3468 112.53687-27.87715 112.53687-27.49643 112.91759-27.49643 113.38724ZM-28.3468 113.38724"/>
<path transform="matrix(1.00005,0,0,-1.00005,144.68527,211.84198)" d="M.85036 113.38724C.85036 113.85689 .46964 114.2376 0 114.2376-.46964 114.2376-.85036 113.85689-.85036 113.38724-.85036 112.91759-.46964 112.53687 0 112.53687 .46964 112.53687 .85036 112.91759 .85036 113.38724ZM0 113.38724"/>
<path transform="matrix(1.00005,0,0,-1.00005,144.68527,211.84198)" stroke-width=".3985" stroke-linecap="butt" stroke-miterlimit="10" stroke-linejoin="miter" fill="none" stroke="#000000" d="M.85036 113.38724C.85036 113.85689 .46964 114.2376 0 114.2376-.46964 114.2376-.85036 113.85689-.85036 113.38724-.85036 112.91759-.46964 112.53687 0 112.53687 .46964 112.53687 .85036 112.91759 .85036 113.38724ZM0 113.38724"/>
<path transform="matrix(1.00005,0,0,-1.00005,144.68527,211.84198)" d="M29.19717 113.38724C29.19717 113.85689 28.81645 114.2376 28.3468 114.2376 27.87715 114.2376 27.49643 113.85689 27.49643 113.38724 27.49643 112.91759 27.87715 112.53687 28.3468 112.53687 28.81645 112.53687 29.19717 112.91759 29.19717 113.38724ZM28.3468 113.38724"/>
<path transform="matrix(1.00005,0,0,-1.00005,144.68527,211.84198)" stroke-width=".3985" stroke-linecap="butt" stroke-miterlimit="10" stroke-linejoin="miter" fill="none" stroke="#000000" d="M29.19717 113.38724C29.19717 113.85689 28.81645 114.2376 28.3468 114.2376 27.87715 114.2376 27.49643 113.85689 27.49643 113.38724 27.49643 112.91759 27.87715 112.53687 28.3468 112.53687 28.81645 112.53687 29.19717 112.91759 29.19717 113.38724ZM28.3468 113.38724"/>
<path transform="matrix(1.00005,0,0,-1.00005,144.68527,211.84198)" d="M-27.49643 155.90744C-27.49643 156.37709-27.87715 156.75782-28.3468 156.75782-28.81645 156.75782-29.19717 156.37709-29.19717 155.90744-29.19717 155.43779-28.81645 155.05707-28.3468 155.05707-27.87715 155.05707-27.49643 155.43779-27.49643 155.90744ZM-28.3468 155.90744"/>
<path transform="matrix(1.00005,0,0,-1.00005,144.68527,211.84198)" stroke-width=".3985" stroke-linecap="butt" stroke-miterlimit="10" stroke-linejoin="miter" fill="none" stroke="#000000" d="M-27.49643 155.90744C-27.49643 156.37709-27.87715 156.75782-28.3468 156.75782-28.81645 156.75782-29.19717 156.37709-29.19717 155.90744-29.19717 155.43779-28.81645 155.05707-28.3468 155.05707-27.87715 155.05707-27.49643 155.43779-27.49643 155.90744ZM-28.3468 155.90744"/>
<path transform="matrix(1.00005,0,0,-1.00005,144.68527,211.84198)" d="M.85036 155.90744C.85036 156.37709 .46964 156.75782 0 156.75782-.46964 156.75782-.85036 156.37709-.85036 155.90744-.85036 155.43779-.46964 155.05707 0 155.05707 .46964 155.05707 .85036 155.43779 .85036 155.90744ZM0 155.90744"/>
<path transform="matrix(1.00005,0,0,-1.00005,144.68527,211.84198)" stroke-width=".3985" stroke-linecap="butt" stroke-miterlimit="10" stroke-linejoin="miter" fill="none" stroke="#000000" d="M.85036 155.90744C.85036 156.37709 .46964 156.75782 0 156.75782-.46964 156.75782-.85036 156.37709-.85036 155.90744-.85036 155.43779-.46964 155.05707 0 155.05707 .46964 155.05707 .85036 155.43779 .85036 155.90744ZM0 155.90744"/>
<path transform="matrix(1.00005,0,0,-1.00005,144.68527,211.84198)" d="M29.19717 155.90744C29.19717 156.37709 28.81645 156.75782 28.3468 156.75782 27.87715 156.75782 27.49643 156.37709 27.49643 155.90744 27.49643 155.43779 27.87715 155.05707 28.3468 155.05707 28.81645 155.05707 29.19717 155.43779 29.19717 155.90744ZM28.3468 155.90744"/>
<path transform="matrix(1.00005,0,0,-1.00005,144.68527,211.84198)" stroke-width=".3985" stroke-linecap="butt" stroke-miterlimit="10" stroke-linejoin="miter" fill="none" stroke="#000000" d="M29.19717 155.90744C29.19717 156.37709 28.81645 156.75782 28.3468 156.75782 27.87715 156.75782 27.49643 156.37709 27.49643 155.90744 27.49643 155.43779 27.87715 155.05707 28.3468 155.05707 28.81645 155.05707 29.19717 155.43779 29.19717 155.90744ZM28.3468 155.90744"/>
<path transform="matrix(1.00005,0,0,-1.00005,144.68527,211.84198)" d="M-27.49643 198.42766C-27.49643 198.89731-27.87715 199.27803-28.3468 199.27803-28.81645 199.27803-29.19717 198.89731-29.19717 198.42766-29.19717 197.95801-28.81645 197.57729-28.3468 197.57729-27.87715 197.57729-27.49643 197.95801-27.49643 198.42766ZM-28.3468 198.42766"/>
<path transform="matrix(1.00005,0,0,-1.00005,144.68527,211.84198)" stroke-width=".3985" stroke-linecap="butt" stroke-miterlimit="10" stroke-linejoin="miter" fill="none" stroke="#000000" d="M-27.49643 198.42766C-27.49643 198.89731-27.87715 199.27803-28.3468 199.27803-28.81645 199.27803-29.19717 198.89731-29.19717 198.42766-29.19717 197.95801-28.81645 197.57729-28.3468 197.57729-27.87715 197.57729-27.49643 197.95801-27.49643 198.42766ZM-28.3468 198.42766"/>
<path transform="matrix(1.00005,0,0,-1.00005,144.68527,211.84198)" d="M.85036 198.42766C.85036 198.89731 .46964 199.27803 0 199.27803-.46964 199.27803-.85036 198.89731-.85036 198.42766-.85036 197.95801-.46964 197.57729 0 197.57729 .46964 197.57729 .85036 197.95801 .85036 198.42766ZM0 198.42766"/>
<path transform="matrix(1.00005,0,0,-1.00005,144.68527,211.84198)" stroke-width=".3985" stroke-linecap="butt" stroke-miterlimit="10" stroke-linejoin="miter" fill="none" stroke="#000000" d="M.85036 198.42766C.85036 198.89731 .46964 199.27803 0 199.27803-.46964 199.27803-.85036 198.89731-.85036 198.42766-.85036 197.95801-.46964 197.57729 0 197.57729 .46964 197.57729 .85036 197.95801 .85036 198.42766ZM0 198.42766"/>
<path transform="matrix(1.00005,0,0,-1.00005,144.68527,211.84198)" d="M29.19717 198.42766C29.19717 198.89731 28.81645 199.27803 28.3468 199.27803 27.87715 199.27803 27.49643 198.89731 27.49643 198.42766 27.49643 197.95801 27.87715 197.57729 28.3468 197.57729 28.81645 197.57729 29.19717 197.95801 29.19717 198.42766ZM28.3468 198.42766"/>
<path transform="matrix(1.00005,0,0,-1.00005,144.68527,211.84198)" stroke-width=".3985" stroke-linecap="butt" stroke-miterlimit="10" stroke-linejoin="miter" fill="none" stroke="#000000" d="M29.19717 198.42766C29.19717 198.89731 28.81645 199.27803 28.3468 199.27803 27.87715 199.27803 27.49643 198.89731 27.49643 198.42766 27.49643 197.95801 27.87715 197.57729 28.3468 197.57729 28.81645 197.57729 29.19717 197.95801 29.19717 198.42766ZM28.3468 198.42766"/>
<use data-text="R" xlink:href="#font_1_95" transform="matrix(9.963098,0,0,-9.963098,233.10469,23.8396)"/>
<use data-text="h" xlink:href="#font_1_63" transform="matrix(9.963098,0,0,-9.963098,240.43753,23.8396)"/>
<use data-text="o" xlink:href="#font_1_81" transform="matrix(9.963098,0,0,-9.963098,245.977,23.8396)"/>
<use data-text="m" xlink:href="#font_1_75" transform="matrix(9.963098,0,0,-9.963098,250.95854,23.8396)"/>
<use data-text="b" xlink:href="#font_1_35" transform="matrix(9.963098,0,0,-9.963098,258.98878,23.8396)"/>
<use data-text="i" xlink:href="#font_1_66" transform="matrix(9.963098,0,0,-9.963098,264.52827,23.8396)"/>
<use data-text="c" xlink:href="#font_1_43" transform="matrix(9.963098,0,0,-9.963098,267.29798,23.8396)"/>
<path transform="matrix(1.00005,0,0,-1.00005,144.68527,211.84198)" stroke-width=".3985" stroke-linecap="butt" stroke-miterlimit="10" stroke-linejoin="miter" fill="none" stroke="#000000" d="M99.21382 127.56062H184.25424L150.23816 184.25424H65.19774Z"/>
<path transform="matrix(1.00005,0,0,-1.00005,144.68527,211.84198)" stroke-width=".3985" stroke-linecap="butt" stroke-miterlimit="10" stroke-linejoin="miter" fill="none" stroke="#000000" d="M82.20555 155.90744H167.24599"/>
<path transform="matrix(1.00005,0,0,-1.00005,144.68527,211.84198)" stroke-width=".3985" stroke-linecap="butt" stroke-miterlimit="10" stroke-linejoin="miter" fill="none" stroke="#000000" d="M127.56062 127.56062 93.54454 184.25424"/>
<path transform="matrix(1.00005,0,0,-1.00005,144.68527,211.84198)" stroke-width=".3985" stroke-linecap="butt" stroke-miterlimit="10" stroke-linejoin="miter" fill="none" stroke="#000000" d="M155.90744 127.56062 121.89136 184.25424"/>
<path transform="matrix(1.00005,0,0,-1.00005,144.68527,211.84198)" stroke-width="1.19553" stroke-linecap="butt" stroke-miterlimit="10" stroke-linejoin="miter" fill="none" stroke="#000000" d="M65.19774 184.25424H93.54454L110.55237 155.90744H82.20555Z"/>
<path transform="matrix(1.00005,0,0,-1.00005,144.68527,211.84198)" d="M100.0642 127.56062C100.0642 128.03028 99.68347 128.411 99.21382 128.411 98.74417 128.411 98.36345 128.03028 98.36345 127.56062 98.36345 127.09097 98.74417 126.71027 99.21382 126.71027 99.68347 126.71027 100.0642 127.09097 100.0642 127.56062ZM99.21382 127.56062"/>
<path transform="matrix(1.00005,0,0,-1.00005,144.68527,211.84198)" stroke-width=".3985" stroke-linecap="butt" stroke-miterlimit="10" stroke-linejoin="miter" fill="none" stroke="#000000" d="M100.0642 127.56062C100.0642 128.03028 99.68347 128.411 99.21382 128.411 98.74417 128.411 98.36345 128.03028 98.36345 127.56062 98.36345 127.09097 98.74417 126.71027 99.21382 126.71027 99.68347 126.71027 100.0642 127.09097 100.0642 127.56062ZM99.21382 127.56062"/>
<path transform="matrix(1.00005,0,0,-1.00005,144.68527,211.84198)" d="M128.411 127.56062C128.411 128.03028 128.03028 128.411 127.56062 128.411 127.09097 128.411 126.71027 128.03028 126.71027 127.56062 126.71027 127.09097 127.09097 126.71027 127.56062 126.71027 128.03028 126.71027 128.411 127.09097 128.411 127.56062ZM127.56062 127.56062"/>
<path transform="matrix(1.00005,0,0,-1.00005,144.68527,211.84198)" stroke-width=".3985" stroke-linecap="butt" stroke-miterlimit="10" stroke-linejoin="miter" fill="none" stroke="#000000" d="M128.411 127.56062C128.411 128.03028 128.03028 128.411 127.56062 128.411 127.09097 128.411 126.71027 128.03028 126.71027 127.56062 126.71027 127.09097 127.09097 126.71027 127.56062 126.71027 128.03028 126.71027 128.411 127.09097 128.411 127.56062ZM127.56062 127.56062"/>
<path transform="matrix(1.00005,0,0,-1.00005,144.68527,211.84198)" d="M156.75782 127.56062C156.75782 128.03028 156.37709 128.411 155.90744 128.411 155.43779 128.411 155.05707 128.03028 155.05707 127.56062 155.05707 127.09097 155.43779 126.71027 155.90744 126.71027 156.37709 126.71027 156.75782 127.09097 156.75782 127.56062ZM155.90744 127.56062"/>
<path transform="matrix(1.00005,0,0,-1.00005,144.68527,211.84198)" stroke-width=".3985" stroke-linecap="butt" stroke-miterlimit="10" stroke-linejoin="miter" fill="none" stroke="#000000" d="M156.75782 127.56062C156.75782 128.03028 156.37709 128.411 155.90744 128.411 155.43779 128.411 155.05707 128.03028 155.05707 127.56062 155.05707 127.09097 155.43779 126.71027 155.90744 126.71027 156.37709 126.71027 156.75782 127.09097 156.75782 127.56062ZM155.90744 127.56062"/>
<path transform="matrix(1.00005,0,0,-1.00005,144.68527,211.84198)" d="M185.10462 127.56062C185.10462 128.03028 184.72389 128.411 184.25424 128.411 183.78459 128.411 183.40389 128.03028 183.40389 127.56062 183.40389 127.09097 183.78459 126.71027 184.25424 126.71027 184.72389 126.71027 185.10462 127.09097 185.10462 127.56062ZM184.25424 127.56062"/>
<path transform="matrix(1.00005,0,0,-1.00005,144.68527,211.84198)" stroke-width=".3985" stroke-linecap="butt" stroke-miterlimit="10" stroke-linejoin="miter" fill="none" stroke="#000000" d="M185.10462 127.56062C185.10462 128.03028 184.72389 128.411 184.25424 128.411 183.78459 128.411 183.40389 128.03028 183.40389 127.56062 183.40389 127.09097 183.78459 126.71027 184.25424 126.71027 184.72389 126.71027 185.10462 127.09097 185.10462 127.56062ZM184.25424 127.56062"/>
<path transform="matrix(1.00005,0,0,-1.00005,144.68527,211.84198)" d="M83.05592 155.90744C83.05592 156.37709 82.6752 156.75782 82.20555 156.75782 81.7359 156.75782 81.3552 156.37709 81.3552 155.90744 81.3552 155.43779 81.7359 155.05707 82.20555 155.05707 82.6752 155.05707 83.05592 155.43779 83.05592 155.90744ZM82.20555 155.90744"/>
<path transform="matrix(1.00005,0,0,-1.00005,144.68527,211.84198)" stroke-width=".3985" stroke-linecap="butt" stroke-miterlimit="10" stroke-linejoin="miter" fill="none" stroke="#000000" d="M83.05592 155.90744C83.05592 156.37709 82.6752 156.75782 82.20555 156.75782 81.7359 156.75782 81.3552 156.37709 81.3552 155.90744 81.3552 155.43779 81.7359 155.05707 82.20555 155.05707 82.6752 155.05707 83.05592 155.43779 83.05592 155.90744ZM82.20555 155.90744"/>
<path transform="matrix(1.00005,0,0,-1.00005,144.68527,211.84198)" d="M111.40274 155.90744C111.40274 156.37709 111.02202 156.75782 110.55237 156.75782 110.08272 156.75782 109.702 156.37709 109.702 155.90744 109.702 155.43779 110.08272 155.05707 110.55237 155.05707 111.02202 155.05707 111.40274 155.43779 111.40274 155.90744ZM110.55237 155.90744"/>
<path transform="matrix(1.00005,0,0,-1.00005,144.68527,211.84198)" stroke-width=".3985" stroke-linecap="butt" stroke-miterlimit="10" stroke-linejoin="miter" fill="none" stroke="#000000" d="M111.40274 155.90744C111.40274 156.37709 111.02202 156.75782 110.55237 156.75782 110.08272 156.75782 109.702 156.37709 109.702 155.90744 109.702 155.43779 110.08272 155.05707 110.55237 155.05707 111.02202 155.05707 111.40274 155.43779 111.40274 155.90744ZM110.55237 155.90744"/>
<path transform="matrix(1.00005,0,0,-1.00005,144.68527,211.84198)" d="M139.74954 155.90744C139.74954 156.37709 139.36882 156.75782 138.89917 156.75782 138.42952 156.75782 138.04882 156.37709 138.04882 155.90744 138.04882 155.43779 138.42952 155.05707 138.89917 155.05707 139.36882 155.05707 139.74954 155.43779 139.74954 155.90744ZM138.89917 155.90744"/>
<path transform="matrix(1.00005,0,0,-1.00005,144.68527,211.84198)" stroke-width=".3985" stroke-linecap="butt" stroke-miterlimit="10" stroke-linejoin="miter" fill="none" stroke="#000000" d="M139.74954 155.90744C139.74954 156.37709 139.36882 156.75782 138.89917 156.75782 138.42952 156.75782 138.04882 156.37709 138.04882 155.90744 138.04882 155.43779 138.42952 155.05707 138.89917 155.05707 139.36882 155.05707 139.74954 155.43779 139.74954 155.90744ZM138.89917 155.90744"/>
<path transform="matrix(1.00005,0,0,-1.00005,144.68527,211.84198)" d="M168.09636 155.90744C168.09636 156.37709 167.71564 156.75782 167.24599 156.75782 166.77634 156.75782 166.39562 156.37709 166.39562 155.90744 166.39562 155.43779 166.77634 155.05707 167.24599 155.05707 167.71564 155.05707 168.09636 155.43779 168.09636 155.90744ZM167.24599 155.90744"/>
<path transform="matrix(1.00005,0,0,-1.00005,144.68527,211.84198)" stroke-width=".3985" stroke-linecap="butt" stroke-miterlimit="10" stroke-linejoin="miter" fill="none" stroke="#000000" d="M168.09636 155.90744C168.09636 156.37709 167.71564 156.75782 167.24599 156.75782 166.77634 156.75782 166.39562 156.37709 166.39562 155.90744 166.39562 155.43779 166.77634 155.05707 167.24599 155.05707 167.71564 155.05707 168.09636 155.43779 168.09636 155.90744ZM167.24599 155.90744"/>
<path transform="matrix(1.00005,0,0,-1.00005,144.68527,211.84198)" d="M66.04811 184.25424C66.04811 184.72389 65.66739 185.10462 65.19774 185.10462 64.72809 185.10462 64.34737 184.72389 64.34737 184.25424 64.34737 183.78459 64.72809 183.40389 65.19774 183.40389 65.66739 183.40389 66.04811 183.78459 66.04811 184.25424ZM65.19774 184.25424"/>
<path transform="matrix(1.00005,0,0,-1.00005,144.68527,211.84198)" stroke-width=".3985" stroke-linecap="butt" stroke-miterlimit="10" stroke-linejoin="miter" fill="none" stroke="#000000" d="M66.04811 184.25424C66.04811 184.72389 65.66739 185.10462 65.19774 185.10462 64.72809 185.10462 64.34737 184.72389 64.34737 184.25424 64.34737 183.78459 64.72809 183.40389 65.19774 183.40389 65.66739 183.40389 66.04811 183.78459 66.04811 184.25424ZM65.19774 184.25424"/>
<path transform="matrix(1.00005,0,0,-1.00005,144.68527,211.84198)" d="M94.39491 184.25424C94.39491 184.72389 94.01419 185.10462 93.54454 185.10462 93.07489 185.10462 92.69418 184.72389 92.69418 184.25424 92.69418 183.78459 93.07489 183.40389 93.54454 183.40389 94.01419 183.40389 94.39491 183.78459 94.39491 184.25424ZM93.54454 184.25424"/>
<path transform="matrix(1.00005,0,0,-1.00005,144.68527,211.84198)" stroke-width=".3985" stroke-linecap="butt" stroke-miterlimit="10" stroke-linejoin="miter" fill="none" stroke="#000000" d="M94.39491 184.25424C94.39491 184.72389 94.01419 185.10462 93.54454 185.10462 93.07489 185.10462 92.69418 184.72389 92.69418 184.25424 92.69418 183.78459 93.07489 183.40389 93.54454 183.40389 94.01419 183.40389 94.39491 183.78459 94.39491 184.25424ZM93.54454 184.25424"/>
<path transform="matrix(1.00005,0,0,-1.00005,144.68527,211.84198)" d="M122.74173 184.25424C122.74173 184.72389 122.36101 185.10462 121.89136 185.10462 121.4217 185.10462 121.04099 184.72389 121.04099 184.25424 121.04099 183.78459 121.4217 183.40389 121.89136 183.40389 122.36101 183.40389 122.74173 183.78459 122.74173 184.25424ZM121.89136 184.25424"/>
<path transform="matrix(1.00005,0,0,-1.00005,144.68527,211.84198)" stroke-width=".3985" stroke-linecap="butt" stroke-miterlimit="10" stroke-linejoin="miter" fill="none" stroke="#000000" d="M122.74173 184.25424C122.74173 184.72389 122.36101 185.10462 121.89136 185.10462 121.4217 185.10462 121.04099 184.72389 121.04099 184.25424 121.04099 183.78459 121.4217 183.40389 121.89136 183.40389 122.36101 183.40389 122.74173 183.78459 122.74173 184.25424ZM121.89136 184.25424"/>
<path transform="matrix(1.00005,0,0,-1.00005,144.68527,211.84198)" d="M151.08853 184.25424C151.08853 184.72389 150.70781 185.10462 150.23816 185.10462 149.76851 185.10462 149.3878 184.72389 149.3878 184.25424 149.3878 183.78459 149.76851 183.40389 150.23816 183.40389 150.70781 183.40389 151.08853 183.78459 151.08853 184.25424ZM150.23816 184.25424"/>
<path transform="matrix(1.00005,0,0,-1.00005,144.68527,211.84198)" stroke-width=".3985" stroke-linecap="butt" stroke-miterlimit="10" stroke-linejoin="miter" fill="none" stroke="#000000" d="M151.08853 184.25424C151.08853 184.72389 150.70781 185.10462 150.23816 185.10462 149.76851 185.10462 149.3878 184.72389 149.3878 184.25424 149.3878 183.78459 149.76851 183.40389 150.23816 183.40389 150.70781 183.40389 151.08853 183.78459 151.08853 184.25424ZM150.23816 184.25424"/>
<use data-text="P" xlink:href="#font_1_83" transform="matrix(9.963098,0,0,-9.963098,43.68622,121.22446)"/>
<use data-text="a" xlink:href="#font_1_28" transform="matrix(9.963098,0,0,-9.963098,50.202074,121.22446)"/>
<use data-text="r" xlink:href="#font_1_96" transform="matrix(9.963098,0,0,-9.963098,55.18361,121.22446)"/>
<use data-text="a" xlink:href="#font_1_28" transform="matrix(9.963098,0,0,-9.963098,59.08914,121.22446)"/>
<use data-text="l" xlink:href="#font_1_72" transform="matrix(9.963098,0,0,-9.963098,64.07068,121.22446)"/>
<use data-text="l" xlink:href="#font_1_72" transform="matrix(9.963098,0,0,-9.963098,66.84044,121.22446)"/>
<use data-text="e" xlink:href="#font_1_50" transform="matrix(9.963098,0,0,-9.963098,69.61018,121.22446)"/>
<use data-text="l" xlink:href="#font_1_72" transform="matrix(9.963098,0,0,-9.963098,74.03378,121.22446)"/>
<use data-text="o" xlink:href="#font_1_81" transform="matrix(9.963098,0,0,-9.963098,76.80353,121.22446)"/>
<use data-text="g" xlink:href="#font_1_59" transform="matrix(9.963098,0,0,-9.963098,81.785068,121.22446)"/>
<use data-text="r" xlink:href="#font_1_96" transform="matrix(9.963098,0,0,-9.963098,86.7666,121.22446)"/>
<use data-text="a" xlink:href="#font_1_28" transform="matrix(9.963098,0,0,-9.963098,90.67212,121.22446)"/>
<use data-text="m" xlink:href="#font_1_75" transform="matrix(9.963098,0,0,-9.963098,95.653659,121.22446)"/>
<path transform="matrix(1.00005,0,0,-1.00005,144.68527,211.84198)" stroke-width=".3985" stroke-linecap="butt" stroke-miterlimit="10" stroke-linejoin="miter" fill="none" stroke="#000000" d="M-28.3468 0H-85.04042L-99.21382 85.04042H-42.5202Z"/>
<path transform="matrix(1.00005,0,0,-1.00005,144.68527,211.84198)" stroke-width=".3985" stroke-linecap="butt" stroke-miterlimit="10" stroke-linejoin="miter" fill="none" stroke="#000000" d="M-56.69362 0-70.867 85.04042M-92.1271 42.5202H-35.43349"/>
<path transform="matrix(1.00005,0,0,-1.00005,144.68527,211.84198)" stroke-width="1.19553" stroke-linecap="butt" stroke-miterlimit="10" stroke-linejoin="miter" fill="none" stroke="#000000" d="M-92.1271 42.5202-99.21382 85.04042H-70.867L-63.7803 42.5202Z"/>
<path transform="matrix(1.00005,0,0,-1.00005,144.68527,211.84198)" d="M-27.49643 0C-27.49643 .46964-27.87715 .85036-28.3468 .85036-28.81645 .85036-29.19717 .46964-29.19717 0-29.19717-.46964-28.81645-.85036-28.3468-.85036-27.87715-.85036-27.49643-.46964-27.49643 0ZM-28.3468 0"/>
<path transform="matrix(1.00005,0,0,-1.00005,144.68527,211.84198)" stroke-width=".3985" stroke-linecap="butt" stroke-miterlimit="10" stroke-linejoin="miter" fill="none" stroke="#000000" d="M-27.49643 0C-27.49643 .46964-27.87715 .85036-28.3468 .85036-28.81645 .85036-29.19717 .46964-29.19717 0-29.19717-.46964-28.81645-.85036-28.3468-.85036-27.87715-.85036-27.49643-.46964-27.49643 0ZM-28.3468 0"/>
<path transform="matrix(1.00005,0,0,-1.00005,144.68527,211.84198)" d="M-55.84325 0C-55.84325 .46964-56.22397 .85036-56.69362 .85036-57.16327 .85036-57.54398 .46964-57.54398 0-57.54398-.46964-57.16327-.85036-56.69362-.85036-56.22397-.85036-55.84325-.46964-55.84325 0ZM-56.69362 0"/>
<path transform="matrix(1.00005,0,0,-1.00005,144.68527,211.84198)" stroke-width=".3985" stroke-linecap="butt" stroke-miterlimit="10" stroke-linejoin="miter" fill="none" stroke="#000000" d="M-55.84325 0C-55.84325 .46964-56.22397 .85036-56.69362 .85036-57.16327 .85036-57.54398 .46964-57.54398 0-57.54398-.46964-57.16327-.85036-56.69362-.85036-56.22397-.85036-55.84325-.46964-55.84325 0ZM-56.69362 0"/>
<path transform="matrix(1.00005,0,0,-1.00005,144.68527,211.84198)" d="M-84.19005 0C-84.19005 .46964-84.57077 .85036-85.04042 .85036-85.51007 .85036-85.8908 .46964-85.8908 0-85.8908-.46964-85.51007-.85036-85.04042-.85036-84.57077-.85036-84.19005-.46964-84.19005 0ZM-85.04042 0"/>
<path transform="matrix(1.00005,0,0,-1.00005,144.68527,211.84198)" stroke-width=".3985" stroke-linecap="butt" stroke-miterlimit="10" stroke-linejoin="miter" fill="none" stroke="#000000" d="M-84.19005 0C-84.19005 .46964-84.57077 .85036-85.04042 .85036-85.51007 .85036-85.8908 .46964-85.8908 0-85.8908-.46964-85.51007-.85036-85.04042-.85036-84.57077-.85036-84.19005-.46964-84.19005 0ZM-85.04042 0"/>
<path transform="matrix(1.00005,0,0,-1.00005,144.68527,211.84198)" d="M-34.58313 42.5202C-34.58313 42.98985-34.96384 43.37057-35.43349 43.37057-35.90314 43.37057-36.28386 42.98985-36.28386 42.5202-36.28386 42.05055-35.90314 41.66983-35.43349 41.66983-34.96384 41.66983-34.58313 42.05055-34.58313 42.5202ZM-35.43349 42.5202"/>
<path transform="matrix(1.00005,0,0,-1.00005,144.68527,211.84198)" stroke-width=".3985" stroke-linecap="butt" stroke-miterlimit="10" stroke-linejoin="miter" fill="none" stroke="#000000" d="M-34.58313 42.5202C-34.58313 42.98985-34.96384 43.37057-35.43349 43.37057-35.90314 43.37057-36.28386 42.98985-36.28386 42.5202-36.28386 42.05055-35.90314 41.66983-35.43349 41.66983-34.96384 41.66983-34.58313 42.05055-34.58313 42.5202ZM-35.43349 42.5202"/>
<path transform="matrix(1.00005,0,0,-1.00005,144.68527,211.84198)" d="M-62.92993 42.5202C-62.92993 42.98985-63.31065 43.37057-63.7803 43.37057-64.24995 43.37057-64.63068 42.98985-64.63068 42.5202-64.63068 42.05055-64.24995 41.66983-63.7803 41.66983-63.31065 41.66983-62.92993 42.05055-62.92993 42.5202ZM-63.7803 42.5202"/>
<path transform="matrix(1.00005,0,0,-1.00005,144.68527,211.84198)" stroke-width=".3985" stroke-linecap="butt" stroke-miterlimit="10" stroke-linejoin="miter" fill="none" stroke="#000000" d="M-62.92993 42.5202C-62.92993 42.98985-63.31065 43.37057-63.7803 43.37057-64.24995 43.37057-64.63068 42.98985-64.63068 42.5202-64.63068 42.05055-64.24995 41.66983-63.7803 41.66983-63.31065 41.66983-62.92993 42.05055-62.92993 42.5202ZM-63.7803 42.5202"/>
<path transform="matrix(1.00005,0,0,-1.00005,144.68527,211.84198)" d="M-91.27675 42.5202C-91.27675 42.98985-91.65747 43.37057-92.1271 43.37057-92.59676 43.37057-92.97748 42.98985-92.97748 42.5202-92.97748 42.05055-92.59676 41.66983-92.1271 41.66983-91.65747 41.66983-91.27675 42.05055-91.27675 42.5202ZM-92.1271 42.5202"/>
<path transform="matrix(1.00005,0,0,-1.00005,144.68527,211.84198)" stroke-width=".3985" stroke-linecap="butt" stroke-miterlimit="10" stroke-linejoin="miter" fill="none" stroke="#000000" d="M-91.27675 42.5202C-91.27675 42.98985-91.65747 43.37057-92.1271 43.37057-92.59676 43.37057-92.97748 42.98985-92.97748 42.5202-92.97748 42.05055-92.59676 41.66983-92.1271 41.66983-91.65747 41.66983-91.27675 42.05055-91.27675 42.5202ZM-92.1271 42.5202"/>
<path transform="matrix(1.00005,0,0,-1.00005,144.68527,211.84198)" d="M-41.66983 85.04042C-41.66983 85.51007-42.05055 85.8908-42.5202 85.8908-42.98985 85.8908-43.37057 85.51007-43.37057 85.04042-43.37057 84.57077-42.98985 84.19005-42.5202 84.19005-42.05055 84.19005-41.66983 84.57077-41.66983 85.04042ZM-42.5202 85.04042"/>
<path transform="matrix(1.00005,0,0,-1.00005,144.68527,211.84198)" stroke-width=".3985" stroke-linecap="butt" stroke-miterlimit="10" stroke-linejoin="miter" fill="none" stroke="#000000" d="M-41.66983 85.04042C-41.66983 85.51007-42.05055 85.8908-42.5202 85.8908-42.98985 85.8908-43.37057 85.51007-43.37057 85.04042-43.37057 84.57077-42.98985 84.19005-42.5202 84.19005-42.05055 84.19005-41.66983 84.57077-41.66983 85.04042ZM-42.5202 85.04042"/>
<path transform="matrix(1.00005,0,0,-1.00005,144.68527,211.84198)" d="M-70.01665 85.04042C-70.01665 85.51007-70.39735 85.8908-70.867 85.8908-71.33665 85.8908-71.71738 85.51007-71.71738 85.04042-71.71738 84.57077-71.33665 84.19005-70.867 84.19005-70.39735 84.19005-70.01665 84.57077-70.01665 85.04042ZM-70.867 85.04042"/>
<path transform="matrix(1.00005,0,0,-1.00005,144.68527,211.84198)" stroke-width=".3985" stroke-linecap="butt" stroke-miterlimit="10" stroke-linejoin="miter" fill="none" stroke="#000000" d="M-70.01665 85.04042C-70.01665 85.51007-70.39735 85.8908-70.867 85.8908-71.33665 85.8908-71.71738 85.51007-71.71738 85.04042-71.71738 84.57077-71.33665 84.19005-70.867 84.19005-70.39735 84.19005-70.01665 84.57077-70.01665 85.04042ZM-70.867 85.04042"/>
<path transform="matrix(1.00005,0,0,-1.00005,144.68527,211.84198)" d="M-98.36345 85.04042C-98.36345 85.51007-98.74417 85.8908-99.21382 85.8908-99.68347 85.8908-100.0642 85.51007-100.0642 85.04042-100.0642 84.57077-99.68347 84.19005-99.21382 84.19005-98.74417 84.19005-98.36345 84.57077-98.36345 85.04042ZM-99.21382 85.04042"/>
<path transform="matrix(1.00005,0,0,-1.00005,144.68527,211.84198)" stroke-width=".3985" stroke-linecap="butt" stroke-miterlimit="10" stroke-linejoin="miter" fill="none" stroke="#000000" d="M-98.36345 85.04042C-98.36345 85.51007-98.74417 85.8908-99.21382 85.8908-99.68347 85.8908-100.0642 85.51007-100.0642 85.04042-100.0642 84.57077-99.68347 84.19005-99.21382 84.19005-98.74417 84.19005-98.36345 84.57077-98.36345 85.04042ZM-99.21382 85.04042"/>
<use data-text="H" xlink:href="#font_1_62" transform="matrix(9.963098,0,0,-9.963098,178.68497,132.56403)"/>
<use data-text="e" xlink:href="#font_1_50" transform="matrix(9.963098,0,0,-9.963098,186.15729,132.56403)"/>
<use data-text="x" xlink:href="#font_1_116" transform="matrix(9.963098,0,0,-9.963098,190.58092,132.56403)"/>
<use data-text="a" xlink:href="#font_1_28" transform="matrix(9.963098,0,0,-9.963098,195.84143,132.56403)"/>
<use data-text="g" xlink:href="#font_1_59" transform="matrix(9.963098,0,0,-9.963098,200.82297,132.56403)"/>
<use data-text="o" xlink:href="#font_1_81" transform="matrix(9.963098,0,0,-9.963098,205.80452,132.56403)"/>
<use data-text="n" xlink:href="#font_1_77" transform="matrix(9.963098,0,0,-9.963098,210.78607,132.56403)"/>
<use data-text="a" xlink:href="#font_1_28" transform="matrix(9.963098,0,0,-9.963098,216.32556,132.56403)"/>
<use data-text="l" xlink:href="#font_1_72" transform="matrix(9.963098,0,0,-9.963098,221.3071,132.56403)"/>
<path transform="matrix(1.00005,0,0,-1.00005,144.68527,211.84198)" stroke-width=".3985" stroke-linecap="butt" stroke-miterlimit="10" stroke-linejoin="miter" fill="none" stroke="#000000" d="M56.69362 0H141.73404"/>
<path transform="matrix(1.00005,0,0,-1.00005,144.68527,211.84198)" stroke-width=".3985" stroke-linecap="butt" stroke-miterlimit="10" stroke-linejoin="miter" fill="none" stroke="#000000" d="M42.5202 24.54825H127.56062"/>
<path transform="matrix(1.00005,0,0,-1.00005,144.68527,211.84198)" stroke-width=".3985" stroke-linecap="butt" stroke-miterlimit="10" stroke-linejoin="miter" fill="none" stroke="#000000" d="M28.3468 49.09651H113.38724"/>
<path transform="matrix(1.00005,0,0,-1.00005,144.68527,211.84198)" stroke-width=".3985" stroke-linecap="butt" stroke-miterlimit="10" stroke-linejoin="miter" fill="none" stroke="#000000" d="M14.17339 73.6452H99.21382"/>
<path transform="matrix(1.00005,0,0,-1.00005,144.68527,211.84198)" stroke-width=".3985" stroke-linecap="butt" stroke-miterlimit="10" stroke-linejoin="miter" fill="none" stroke="#000000" d="M56.69362 0 14.17339 73.6452"/>
<path transform="matrix(1.00005,0,0,-1.00005,144.68527,211.84198)" stroke-width=".3985" stroke-linecap="butt" stroke-miterlimit="10" stroke-linejoin="miter" fill="none" stroke="#000000" d="M85.04042 0 42.5202 73.6452"/>
<path transform="matrix(1.00005,0,0,-1.00005,144.68527,211.84198)" stroke-width=".3985" stroke-linecap="butt" stroke-miterlimit="10" stroke-linejoin="miter" fill="none" stroke="#000000" d="M113.38724 0 70.867 73.6452"/>
<path transform="matrix(1.00005,0,0,-1.00005,144.68527,211.84198)" stroke-width=".3985" stroke-linecap="butt" stroke-miterlimit="10" stroke-linejoin="miter" fill="none" stroke="#000000" d="M141.73404 0 99.21382 73.6452"/>
<path transform="matrix(1.00005,0,0,-1.00005,144.68527,211.84198)" stroke-width=".3985" stroke-linecap="butt" stroke-miterlimit="10" stroke-linejoin="miter" fill="none" stroke="#000000" d="M56.69362 0 99.21382 73.6452"/>
<path transform="matrix(1.00005,0,0,-1.00005,144.68527,211.84198)" stroke-width=".3985" stroke-linecap="butt" stroke-miterlimit="10" stroke-linejoin="miter" fill="none" stroke="#000000" d="M85.04042 0 113.38724 49.09651"/>
<path transform="matrix(1.00005,0,0,-1.00005,144.68527,211.84198)" stroke-width=".3985" stroke-linecap="butt" stroke-miterlimit="10" stroke-linejoin="miter" fill="none" stroke="#000000" d="M113.38724 0 127.56062 24.54825"/>
<path transform="matrix(1.00005,0,0,-1.00005,144.68527,211.84198)" stroke-width=".3985" stroke-linecap="butt" stroke-miterlimit="10" stroke-linejoin="miter" fill="none" stroke="#000000" d="M42.5202 24.54825 70.867 73.6452"/>
<path transform="matrix(1.00005,0,0,-1.00005,144.68527,211.84198)" stroke-width=".3985" stroke-linecap="butt" stroke-miterlimit="10" stroke-linejoin="miter" fill="none" stroke="#000000" d="M28.3468 49.09651 42.5202 73.6452"/>
<path transform="matrix(1.00005,0,0,-1.00005,144.68527,211.84198)" stroke-width="1.19553" stroke-linecap="butt" stroke-miterlimit="10" stroke-linejoin="miter" fill="none" stroke="#000000" d="M42.5202 24.54825 28.3468 49.09651 42.5202 73.6452H70.867L85.04042 49.09651 70.867 24.54825Z"/>
<path transform="matrix(1.00005,0,0,-1.00005,144.68527,211.84198)" d="M57.54398 0C57.54398 .46964 57.16327 .85036 56.69362 .85036 56.22397 .85036 55.84325 .46964 55.84325 0 55.84325-.46964 56.22397-.85036 56.69362-.85036 57.16327-.85036 57.54398-.46964 57.54398 0ZM56.69362 0"/>
<path transform="matrix(1.00005,0,0,-1.00005,144.68527,211.84198)" stroke-width=".3985" stroke-linecap="butt" stroke-miterlimit="10" stroke-linejoin="miter" fill="none" stroke="#000000" d="M57.54398 0C57.54398 .46964 57.16327 .85036 56.69362 .85036 56.22397 .85036 55.84325 .46964 55.84325 0 55.84325-.46964 56.22397-.85036 56.69362-.85036 57.16327-.85036 57.54398-.46964 57.54398 0ZM56.69362 0"/>
<path transform="matrix(1.00005,0,0,-1.00005,144.68527,211.84198)" d="M85.8908 0C85.8908 .46964 85.51007 .85036 85.04042 .85036 84.57077 .85036 84.19005 .46964 84.19005 0 84.19005-.46964 84.57077-.85036 85.04042-.85036 85.51007-.85036 85.8908-.46964 85.8908 0ZM85.04042 0"/>
<path transform="matrix(1.00005,0,0,-1.00005,144.68527,211.84198)" stroke-width=".3985" stroke-linecap="butt" stroke-miterlimit="10" stroke-linejoin="miter" fill="none" stroke="#000000" d="M85.8908 0C85.8908 .46964 85.51007 .85036 85.04042 .85036 84.57077 .85036 84.19005 .46964 84.19005 0 84.19005-.46964 84.57077-.85036 85.04042-.85036 85.51007-.85036 85.8908-.46964 85.8908 0ZM85.04042 0"/>
<path transform="matrix(1.00005,0,0,-1.00005,144.68527,211.84198)" d="M114.2376 0C114.2376 .46964 113.85689 .85036 113.38724 .85036 112.91759 .85036 112.53687 .46964 112.53687 0 112.53687-.46964 112.91759-.85036 113.38724-.85036 113.85689-.85036 114.2376-.46964 114.2376 0ZM113.38724 0"/>
<path transform="matrix(1.00005,0,0,-1.00005,144.68527,211.84198)" stroke-width=".3985" stroke-linecap="butt" stroke-miterlimit="10" stroke-linejoin="miter" fill="none" stroke="#000000" d="M114.2376 0C114.2376 .46964 113.85689 .85036 113.38724 .85036 112.91759 .85036 112.53687 .46964 112.53687 0 112.53687-.46964 112.91759-.85036 113.38724-.85036 113.85689-.85036 114.2376-.46964 114.2376 0ZM113.38724 0"/>
<path transform="matrix(1.00005,0,0,-1.00005,144.68527,211.84198)" d="M142.58441 0C142.58441 .46964 142.20369 .85036 141.73404 .85036 141.26439 .85036 140.88367 .46964 140.88367 0 140.88367-.46964 141.26439-.85036 141.73404-.85036 142.20369-.85036 142.58441-.46964 142.58441 0ZM141.73404 0"/>
<path transform="matrix(1.00005,0,0,-1.00005,144.68527,211.84198)" stroke-width=".3985" stroke-linecap="butt" stroke-miterlimit="10" stroke-linejoin="miter" fill="none" stroke="#000000" d="M142.58441 0C142.58441 .46964 142.20369 .85036 141.73404 .85036 141.26439 .85036 140.88367 .46964 140.88367 0 140.88367-.46964 141.26439-.85036 141.73404-.85036 142.20369-.85036 142.58441-.46964 142.58441 0ZM141.73404 0"/>
<path transform="matrix(1.00005,0,0,-1.00005,144.68527,211.84198)" d="M43.37057 24.54825C43.37057 25.0179 42.98985 25.39862 42.5202 25.39862 42.05055 25.39862 41.66983 25.0179 41.66983 24.54825 41.66983 24.0786 42.05055 23.69789 42.5202 23.69789 42.98985 23.69789 43.37057 24.0786 43.37057 24.54825ZM42.5202 24.54825"/>
<path transform="matrix(1.00005,0,0,-1.00005,144.68527,211.84198)" stroke-width=".3985" stroke-linecap="butt" stroke-miterlimit="10" stroke-linejoin="miter" fill="none" stroke="#000000" d="M43.37057 24.54825C43.37057 25.0179 42.98985 25.39862 42.5202 25.39862 42.05055 25.39862 41.66983 25.0179 41.66983 24.54825 41.66983 24.0786 42.05055 23.69789 42.5202 23.69789 42.98985 23.69789 43.37057 24.0786 43.37057 24.54825ZM42.5202 24.54825"/>
<path transform="matrix(1.00005,0,0,-1.00005,144.68527,211.84198)" d="M71.71738 24.54825C71.71738 25.0179 71.33665 25.39862 70.867 25.39862 70.39735 25.39862 70.01665 25.0179 70.01665 24.54825 70.01665 24.0786 70.39735 23.69789 70.867 23.69789 71.33665 23.69789 71.71738 24.0786 71.71738 24.54825ZM70.867 24.54825"/>
<path transform="matrix(1.00005,0,0,-1.00005,144.68527,211.84198)" stroke-width=".3985" stroke-linecap="butt" stroke-miterlimit="10" stroke-linejoin="miter" fill="none" stroke="#000000" d="M71.71738 24.54825C71.71738 25.0179 71.33665 25.39862 70.867 25.39862 70.39735 25.39862 70.01665 25.0179 70.01665 24.54825 70.01665 24.0786 70.39735 23.69789 70.867 23.69789 71.33665 23.69789 71.71738 24.0786 71.71738 24.54825ZM70.867 24.54825"/>
<path transform="matrix(1.00005,0,0,-1.00005,144.68527,211.84198)" d="M100.0642 24.54825C100.0642 25.0179 99.68347 25.39862 99.21382 25.39862 98.74417 25.39862 98.36345 25.0179 98.36345 24.54825 98.36345 24.0786 98.74417 23.69789 99.21382 23.69789 99.68347 23.69789 100.0642 24.0786 100.0642 24.54825ZM99.21382 24.54825"/>
<path transform="matrix(1.00005,0,0,-1.00005,144.68527,211.84198)" stroke-width=".3985" stroke-linecap="butt" stroke-miterlimit="10" stroke-linejoin="miter" fill="none" stroke="#000000" d="M100.0642 24.54825C100.0642 25.0179 99.68347 25.39862 99.21382 25.39862 98.74417 25.39862 98.36345 25.0179 98.36345 24.54825 98.36345 24.0786 98.74417 23.69789 99.21382 23.69789 99.68347 23.69789 100.0642 24.0786 100.0642 24.54825ZM99.21382 24.54825"/>
<path transform="matrix(1.00005,0,0,-1.00005,144.68527,211.84198)" d="M128.411 24.54825C128.411 25.0179 128.03028 25.39862 127.56062 25.39862 127.09097 25.39862 126.71027 25.0179 126.71027 24.54825 126.71027 24.0786 127.09097 23.69789 127.56062 23.69789 128.03028 23.69789 128.411 24.0786 128.411 24.54825ZM127.56062 24.54825"/>
<path transform="matrix(1.00005,0,0,-1.00005,144.68527,211.84198)" stroke-width=".3985" stroke-linecap="butt" stroke-miterlimit="10" stroke-linejoin="miter" fill="none" stroke="#000000" d="M128.411 24.54825C128.411 25.0179 128.03028 25.39862 127.56062 25.39862 127.09097 25.39862 126.71027 25.0179 126.71027 24.54825 126.71027 24.0786 127.09097 23.69789 127.56062 23.69789 128.03028 23.69789 128.411 24.0786 128.411 24.54825ZM127.56062 24.54825"/>
<path transform="matrix(1.00005,0,0,-1.00005,144.68527,211.84198)" d="M29.19717 49.09651C29.19717 49.56616 28.81645 49.94688 28.3468 49.94688 27.87715 49.94688 27.49643 49.56616 27.49643 49.09651 27.49643 48.62686 27.87715 48.24614 28.3468 48.24614 28.81645 48.24614 29.19717 48.62686 29.19717 49.09651ZM28.3468 49.09651"/>
<path transform="matrix(1.00005,0,0,-1.00005,144.68527,211.84198)" stroke-width=".3985" stroke-linecap="butt" stroke-miterlimit="10" stroke-linejoin="miter" fill="none" stroke="#000000" d="M29.19717 49.09651C29.19717 49.56616 28.81645 49.94688 28.3468 49.94688 27.87715 49.94688 27.49643 49.56616 27.49643 49.09651 27.49643 48.62686 27.87715 48.24614 28.3468 48.24614 28.81645 48.24614 29.19717 48.62686 29.19717 49.09651ZM28.3468 49.09651"/>
<path transform="matrix(1.00005,0,0,-1.00005,144.68527,211.84198)" d="M57.54398 49.09651C57.54398 49.56616 57.16327 49.94688 56.69362 49.94688 56.22397 49.94688 55.84325 49.56616 55.84325 49.09651 55.84325 48.62686 56.22397 48.24614 56.69362 48.24614 57.16327 48.24614 57.54398 48.62686 57.54398 49.09651ZM56.69362 49.09651"/>
<path transform="matrix(1.00005,0,0,-1.00005,144.68527,211.84198)" stroke-width=".3985" stroke-linecap="butt" stroke-miterlimit="10" stroke-linejoin="miter" fill="none" stroke="#000000" d="M57.54398 49.09651C57.54398 49.56616 57.16327 49.94688 56.69362 49.94688 56.22397 49.94688 55.84325 49.56616 55.84325 49.09651 55.84325 48.62686 56.22397 48.24614 56.69362 48.24614 57.16327 48.24614 57.54398 48.62686 57.54398 49.09651ZM56.69362 49.09651"/>
<path transform="matrix(1.00005,0,0,-1.00005,144.68527,211.84198)" d="M85.8908 49.09651C85.8908 49.56616 85.51007 49.94688 85.04042 49.94688 84.57077 49.94688 84.19005 49.56616 84.19005 49.09651 84.19005 48.62686 84.57077 48.24614 85.04042 48.24614 85.51007 48.24614 85.8908 48.62686 85.8908 49.09651ZM85.04042 49.09651"/>
<path transform="matrix(1.00005,0,0,-1.00005,144.68527,211.84198)" stroke-width=".3985" stroke-linecap="butt" stroke-miterlimit="10" stroke-linejoin="miter" fill="none" stroke="#000000" d="M85.8908 49.09651C85.8908 49.56616 85.51007 49.94688 85.04042 49.94688 84.57077 49.94688 84.19005 49.56616 84.19005 49.09651 84.19005 48.62686 84.57077 48.24614 85.04042 48.24614 85.51007 48.24614 85.8908 48.62686 85.8908 49.09651ZM85.04042 49.09651"/>
<path transform="matrix(1.00005,0,0,-1.00005,144.68527,211.84198)" d="M114.2376 49.09651C114.2376 49.56616 113.85689 49.94688 113.38724 49.94688 112.91759 49.94688 112.53687 49.56616 112.53687 49.09651 112.53687 48.62686 112.91759 48.24614 113.38724 48.24614 113.85689 48.24614 114.2376 48.62686 114.2376 49.09651ZM113.38724 49.09651"/>
<path transform="matrix(1.00005,0,0,-1.00005,144.68527,211.84198)" stroke-width=".3985" stroke-linecap="butt" stroke-miterlimit="10" stroke-linejoin="miter" fill="none" stroke="#000000" d="M114.2376 49.09651C114.2376 49.56616 113.85689 49.94688 113.38724 49.94688 112.91759 49.94688 112.53687 49.56616 112.53687 49.09651 112.53687 48.62686 112.91759 48.24614 113.38724 48.24614 113.85689 48.24614 114.2376 48.62686 114.2376 49.09651ZM113.38724 49.09651"/>
<path transform="matrix(1.00005,0,0,-1.00005,144.68527,211.84198)" d="M15.02376 73.6452C15.02376 74.11485 14.64304 74.49557 14.17339 74.49557 13.70374 74.49557 13.32303 74.11485 13.32303 73.6452 13.32303 73.17555 13.70374 72.79483 14.17339 72.79483 14.64304 72.79483 15.02376 73.17555 15.02376 73.6452ZM14.17339 73.6452"/>
<path transform="matrix(1.00005,0,0,-1.00005,144.68527,211.84198)" stroke-width=".3985" stroke-linecap="butt" stroke-miterlimit="10" stroke-linejoin="miter" fill="none" stroke="#000000" d="M15.02376 73.6452C15.02376 74.11485 14.64304 74.49557 14.17339 74.49557 13.70374 74.49557 13.32303 74.11485 13.32303 73.6452 13.32303 73.17555 13.70374 72.79483 14.17339 72.79483 14.64304 72.79483 15.02376 73.17555 15.02376 73.6452ZM14.17339 73.6452"/>
<path transform="matrix(1.00005,0,0,-1.00005,144.68527,211.84198)" d="M43.37057 73.6452C43.37057 74.11485 42.98985 74.49557 42.5202 74.49557 42.05055 74.49557 41.66983 74.11485 41.66983 73.6452 41.66983 73.17555 42.05055 72.79483 42.5202 72.79483 42.98985 72.79483 43.37057 73.17555 43.37057 73.6452ZM42.5202 73.6452"/>
<path transform="matrix(1.00005,0,0,-1.00005,144.68527,211.84198)" stroke-width=".3985" stroke-linecap="butt" stroke-miterlimit="10" stroke-linejoin="miter" fill="none" stroke="#000000" d="M43.37057 73.6452C43.37057 74.11485 42.98985 74.49557 42.5202 74.49557 42.05055 74.49557 41.66983 74.11485 41.66983 73.6452 41.66983 73.17555 42.05055 72.79483 42.5202 72.79483 42.98985 72.79483 43.37057 73.17555 43.37057 73.6452ZM42.5202 73.6452"/>
<path transform="matrix(1.00005,0,0,-1.00005,144.68527,211.84198)" d="M71.71738 73.6452C71.71738 74.11485 71.33665 74.49557 70.867 74.49557 70.39735 74.49557 70.01665 74.11485 70.01665 73.6452 70.01665 73.17555 70.39735 72.79483 70.867 72.79483 71.33665 72.79483 71.71738 73.17555 71.71738 73.6452ZM70.867 73.6452"/>
<path transform="matrix(1.00005,0,0,-1.00005,144.68527,211.84198)" stroke-width=".3985" stroke-linecap="butt" stroke-miterlimit="10" stroke-linejoin="miter" fill="none" stroke="#000000" d="M71.71738 73.6452C71.71738 74.11485 71.33665 74.49557 70.867 74.49557 70.39735 74.49557 70.01665 74.11485 70.01665 73.6452 70.01665 73.17555 70.39735 72.79483 70.867 72.79483 71.33665 72.79483 71.71738 73.17555 71.71738 73.6452ZM70.867 73.6452"/>
<path transform="matrix(1.00005,0,0,-1.00005,144.68527,211.84198)" d="M100.0642 73.6452C100.0642 74.11485 99.68347 74.49557 99.21382 74.49557 98.74417 74.49557 98.36345 74.11485 98.36345 73.6452 98.36345 73.17555 98.74417 72.79483 99.21382 72.79483 99.68347 72.79483 100.0642 73.17555 100.0642 73.6452ZM99.21382 73.6452"/>
<path transform="matrix(1.00005,0,0,-1.00005,144.68527,211.84198)" stroke-width=".3985" stroke-linecap="butt" stroke-miterlimit="10" stroke-linejoin="miter" fill="none" stroke="#000000" d="M100.0642 73.6452C100.0642 74.11485 99.68347 74.49557 99.21382 74.49557 98.74417 74.49557 98.36345 74.11485 98.36345 73.6452 98.36345 73.17555 98.74417 72.79483 99.21382 72.79483 99.68347 72.79483 100.0642 73.17555 100.0642 73.6452ZM99.21382 73.6452"/>
</svg>
