<svg xmlns="http://www.w3.org/2000/svg" xmlns:xlink="http://www.w3.org/1999/xlink" xmlns:inkscape="http://www.inkscape.org/namespaces/inkscape" version="1.1" width="343" height="145" viewBox="0 0 343 145">
<defs>
<path id="font_1_1" d="M.33099366-.2400055C.33099366-.23701477 .33099366-.23500061 .31399537-.21800232 .18899536-.0920105 .15699768 .09700012 .15699768 .25 .15699768 .42399598 .19499207 .59799197 .31799317 .72299197 .33099366 .73498538 .33099366 .7369995 .33099366 .73999026 .33099366 .746994 .32699586 .75 .32099916 .75 .31098939 .75 .22099304 .6819916 .1619873 .5549927 .11099243 .44499208 .09899902 .33399964 .09899902 .25 .09899902 .17199707 .10998535 .050994874 .16499329-.06201172 .22499085-.18501282 .31098939-.25 .32099916-.25 .32699586-.25 .33099366-.24700928 .33099366-.2400055Z"/>
<path id="font_1_5" d="M.1269989 .07699585 .23298645 .18003845C.3889923 .31811524 .44898988 .3721466 .44898988 .47216798 .44898988 .5860901 .35899354 .6660156 .23699951 .6660156 .12399292 .6660156 .049987794 .57411196 .049987794 .48516847 .049987794 .4291687 .099990848 .4291687 .102996829 .4291687 .11999512 .4291687 .15499878 .44117738 .15499878 .48217774 .15499878 .5081787 .13699341 .5341797 .101989749 .5341797 .09399414 .5341797 .09199524 .5341797 .08898926 .5331726 .11199951 .59806826 .1659851 .63500979 .22399903 .63500979 .31498719 .63500979 .35798646 .5541382 .35798646 .47216798 .35798646 .39215089 .30799867 .31311036 .25299073 .25108338L.06098938 .036987306C.049987794 .025985718 .049987794 .023986817 .049987794 0H.42099L.44898988 .17404175H.42399598C.4189911 .14402771 .4119873 .1000061 .4019928 .084991458 .394989 .07699585 .32899476 .07699585 .30699159 .07699585H.1269989Z"/>
<path id="font_2_1" d="M.20298767 .0009918213C.20298767 .066986087 .17799378 .10598755 .13899231 .10598755 .10598755 .10598755 .085998538 .08099365 .085998538 .052993776 .085998538 .025985718 .10598755 0 .13899231 0 .15098572 0 .1639862 .0039978029 .17399597 .0129852299 .1769867 .01499939 .17799378 .015991211 .1789856 .015991211 .17999268 .015991211 .18099976 .01499939 .18099976 .0009918213 .18099976-.07316589 .1459961-.13328552 .11299133-.16635132 .101989749-.17736817 .101989749-.17936707 .101989749-.18237305 .101989749-.18936157 .10699463-.19335938 .11199951-.19335938 .12298584-.19335938 .20298767-.116256717 .20298767 .0009918213Z"/>
<path id="font_1_3" d="M.45999146 .31976319C.45999146 .39982606 .45498658 .47988893 .41999818 .5539398 .37399293 .65000918 .2919922 .6660156 .25 .6660156 .18998719 .6660156 .116989139 .64001467 .07598877 .54693606 .04399109 .47789 .038986207 .39982606 .038986207 .31976319 .038986207 .24472046 .042999269 .15464783 .083999637 .07859802 .1269989-.0024719239 .19999695-.022460938 .24899292-.022460938 .30299378-.022460938 .3789978-.0014648438 .4229889 .09359741 .45498658 .16265869 .45999146 .2407074 .45999146 .31976319M.24899292-.00047302247C.20999146-.00047302247 .15098572 .024551392 .1329956 .12062073 .12199402 .18066406 .12199402 .2727356 .12199402 .3317871 .12199402 .39582826 .12199402 .46188355 .12998963 .5159149 .14898682 .63500979 .22399903 .64401248 .24899292 .64401248 .28199769 .64401248 .34799195 .6259918 .36698915 .52693179 .3769989 .47088624 .3769989 .39482118 .3769989 .3317871 .3769989 .25672914 .3769989 .18867493 .3659973 .12461853 .35099793 .029556275 .2939911-.00047302247 .24899292-.00047302247Z"/>
<path id="font_1_2" d="M.2889862 .25C.2889862 .32798768 .27799989 .44898988 .22299195 .56199648 .16299439 .68499758 .07699585 .75 .066986087 .75 .06098938 .75 .056991579 .74598696 .056991579 .73999026 .056991579 .7369995 .056991579 .73498538 .07598877 .71699526 .17399597 .6179962 .23098755 .45899964 .23098755 .25 .23098755 .07899475 .19400025-.09700012 .069992069-.2230072 .056991579-.23500061 .056991579-.23701477 .056991579-.2400055 .056991579-.2460022 .06098938-.25 .066986087-.25 .07699585-.25 .16699219-.18200684 .22599793-.055007936 .2769928 .054992677 .2889862 .16600037 .2889862 .25Z"/>
<path id="font_1_4" d="M.2939911 .64004519C.2939911 .66400149 .2939911 .6660156 .2709961 .6660156 .20899964 .60227969 .12098694 .60227969 .08898926 .60227969V.57128909C.10899353 .57128909 .16799927 .57128909 .21998596 .5972748V.07902527C.21998596 .042999269 .21699524 .0309906 .1269989 .0309906H.09498596V0C.12998963 .0029907227 .21699524 .0029907227 .25698854 .0029907227 .29699708 .0029907227 .38398744 .0029907227 .4189911 0V.0309906H.3869934C.29699708 .0309906 .2939911 .041992189 .2939911 .07902527V.64004519Z"/>
<path id="font_3_1" d="M.6589966 .23046875C.6759949 .23046875 .69400027 .23046875 .69400027 .25045777 .69400027 .27046205 .6759949 .27046205 .6589966 .27046205H.117996219C.100997928 .27046205 .08299255 .27046205 .08299255 .25045777 .08299255 .23046875 .100997928 .23046875 .117996219 .23046875H.6589966Z"/>
</defs>
<path transform="matrix(1.00002,0,0,-1.00005,171.17807,72.66883)" stroke-width=".3985" stroke-linecap="butt" stroke-miterlimit="10" stroke-linejoin="miter" fill="none" stroke="#000000" d="M-170.08086-56.69362H170.08086"/>
<path transform="matrix(1.00002,0,0,-1.00005,171.17807,72.66883)" stroke-width=".3985" stroke-linecap="butt" stroke-miterlimit="10" stroke-linejoin="miter" fill="none" stroke="#000000" d="M-170.08086-28.3468H170.08086"/>
<path transform="matrix(1.00002,0,0,-1.00005,171.17807,72.66883)" stroke-width=".3985" stroke-linecap="butt" stroke-miterlimit="10" stroke-linejoin="miter" fill="none" stroke="#000000" d="M-170.08086 0H170.08086"/>
<path transform="matrix(1.00002,0,0,-1.00005,171.17807,72.66883)" stroke-width=".3985" stroke-linecap="butt" stroke-miterlimit="10" stroke-linejoin="miter" fill="none" stroke="#000000" d="M-170.08086 28.3468H170.08086"/>
<path transform="matrix(1.00002,0,0,-1.00005,171.17807,72.66883)" stroke-width=".3985" stroke-linecap="butt" stroke-miterlimit="10" stroke-linejoin="miter" fill="none" stroke="#000000" d="M-170.08086 56.69362H170.08086"/>
<path transform="matrix(1.00002,0,0,-1.00005,171.17807,72.66883)" stroke-width=".3985" stroke-linecap="butt" stroke-miterlimit="10" stroke-linejoin="miter" fill="none" stroke="#000000" d="M99.21382-70.867 170.08086 0"/>
<path transform="matrix(1.00002,0,0,-1.00005,171.17807,72.66883)" stroke-width=".3985" stroke-linecap="butt" stroke-miterlimit="10" stroke-linejoin="miter" fill="none" stroke="#000000" d="M42.5202-70.867 170.08086 56.69362"/>
<path transform="matrix(1.00002,0,0,-1.00005,171.17807,72.66883)" stroke-width=".3985" stroke-linecap="butt" stroke-miterlimit="10" stroke-linejoin="miter" fill="none" stroke="#000000" d="M-14.17339-70.867 127.56062 70.867"/>
<path transform="matrix(1.00002,0,0,-1.00005,171.17807,72.66883)" stroke-width=".3985" stroke-linecap="butt" stroke-miterlimit="10" stroke-linejoin="miter" fill="none" stroke="#000000" d="M-70.867-70.867 70.867 70.867"/>
<path transform="matrix(1.00002,0,0,-1.00005,171.17807,72.66883)" stroke-width=".3985" stroke-linecap="butt" stroke-miterlimit="10" stroke-linejoin="miter" fill="none" stroke="#000000" d="M-127.56062-70.867 14.17339 70.867"/>
<path transform="matrix(1.00002,0,0,-1.00005,171.17807,72.66883)" stroke-width=".3985" stroke-linecap="butt" stroke-miterlimit="10" stroke-linejoin="miter" fill="none" stroke="#000000" d="M-170.08086-56.69362-42.5202 70.867"/>
<path transform="matrix(1.00002,0,0,-1.00005,171.17807,72.66883)" stroke-width=".3985" stroke-linecap="butt" stroke-miterlimit="10" stroke-linejoin="miter" fill="none" stroke="#000000" d="M-170.08086 0-99.21382 70.867"/>
<path transform="matrix(1.00002,0,0,-1.00005,171.17807,72.66883)" stroke-width="1.19553" stroke-linecap="butt" stroke-miterlimit="10" stroke-linejoin="miter" fill="none" stroke="#000000" d="M0 0H55.7372"/>
<path transform="matrix(1.00002,0,0,-1.00005,226.91638,72.66883)" stroke-width=".9564" stroke-linecap="round" stroke-linejoin="round" fill="none" stroke="#000000" d="M-1.91284 2.55046C-1.75343 1.59402 0 .15938 .4782 0 0-.15938-1.75343-1.59402-1.91284-2.55046"/>
<path transform="matrix(1.00002,0,0,-1.00005,171.17807,72.66883)" stroke-width="1.19553" stroke-linecap="butt" stroke-miterlimit="10" stroke-linejoin="miter" fill="none" stroke="#000000" d="M0 0 27.67052 27.67053"/>
<path transform="matrix(.7071342,-.7071353,-.70711418,-.70715537,198.84912,44.996927)" stroke-width=".9564" stroke-linecap="round" stroke-linejoin="round" fill="none" stroke="#000000" d="M-1.91284 2.55046C-1.75343 1.59402 0 .15938 .4782 0 0-.15938-1.75343-1.59402-1.91284-2.55046"/>
<path transform="matrix(1.00002,0,0,-1.00005,171.17807,72.66883)" stroke-width="1.19553" stroke-linecap="butt" stroke-miterlimit="10" stroke-linejoin="miter" fill="none" stroke="#000000" d="M0 0-27.67052 27.67053"/>
<path transform="matrix(-.7071342,-.7071353,-.70711418,.70715537,143.50702,44.996927)" stroke-width=".9564" stroke-linecap="round" stroke-linejoin="round" fill="none" stroke="#000000" d="M-1.91284 2.55046C-1.75343 1.59402 0 .15938 .4782 0 0-.15938-1.75343-1.59402-1.91284-2.55046"/>
<path transform="matrix(1.00002,0,0,-1.00005,171.17807,72.66883)" stroke-width="1.19553" stroke-linecap="butt" stroke-miterlimit="10" stroke-linejoin="miter" fill="none" stroke="#000000" d="M0 0-27.67052-27.67053"/>
<path transform="matrix(-.7071342,.7071353,.70711418,.70715537,143.50702,100.34074)" stroke-width=".9564" stroke-linecap="round" stroke-linejoin="round" fill="none" stroke="#000000" d="M-1.91284 2.55046C-1.75343 1.59402 0 .15938 .4782 0 0-.15938-1.75343-1.59402-1.91284-2.55046"/>
<use data-text="(" xlink:href="#font_1_1" transform="matrix(9.962799,0,0,-9.963098,231.39228,83.66138)"/>
<use data-text="2" xlink:href="#font_1_5" transform="matrix(9.962799,0,0,-9.963098,235.2678,83.66138)"/>
<use data-text="," xlink:href="#font_2_1" transform="matrix(9.962799,0,0,-9.963098,240.24745,83.66138)"/>
<use data-text="0" xlink:href="#font_1_3" transform="matrix(9.962799,0,0,-9.963098,244.67555,83.66138)"/>
<use data-text=")" xlink:href="#font_1_2" transform="matrix(9.962799,0,0,-9.963098,249.65694,83.66138)"/>
<use data-text="(" xlink:href="#font_1_1" transform="matrix(9.962799,0,0,-9.963098,215.99697,38.310117)"/>
<use data-text="1" xlink:href="#font_1_4" transform="matrix(9.962799,0,0,-9.963098,219.8725,38.310117)"/>
<use data-text="," xlink:href="#font_2_1" transform="matrix(9.962799,0,0,-9.963098,224.85214,38.310117)"/>
<use data-text="1" xlink:href="#font_1_4" transform="matrix(9.962799,0,0,-9.963098,229.28025,38.310117)"/>
<use data-text=")" xlink:href="#font_1_2" transform="matrix(9.962799,0,0,-9.963098,234.26163,38.310117)"/>
<use data-text="(" xlink:href="#font_1_1" transform="matrix(9.962799,0,0,-9.963098,109.42183,38.310117)"/>
<use data-text="&#x2212;" xlink:href="#font_3_1" transform="matrix(9.962799,0,0,-9.963098,113.29593,38.310117)"/>
<use data-text="1" xlink:href="#font_1_4" transform="matrix(9.962799,0,0,-9.963098,121.045078,38.310117)"/>
<use data-text="," xlink:href="#font_2_1" transform="matrix(9.962799,0,0,-9.963098,126.02615,38.310117)"/>
<use data-text="1" xlink:href="#font_1_4" transform="matrix(9.962799,0,0,-9.963098,130.45426,38.310117)"/>
<use data-text=")" xlink:href="#font_1_2" transform="matrix(9.962799,0,0,-9.963098,135.43564,38.310117)"/>
<use data-text="(" xlink:href="#font_1_1" transform="matrix(9.962799,0,0,-9.963098,143.36151,112.009799)"/>
<use data-text="&#x2212;" xlink:href="#font_3_1" transform="matrix(9.962799,0,0,-9.963098,147.23561,112.009799)"/>
<use data-text="1" xlink:href="#font_1_4" transform="matrix(9.962799,0,0,-9.963098,154.98476,112.009799)"/>
<use data-text="," xlink:href="#font_2_1" transform="matrix(9.962799,0,0,-9.963098,159.96584,112.009799)"/>
<use data-text="&#x2212;" xlink:href="#font_3_1" transform="matrix(9.962799,0,0,-9.963098,164.39394,112.009799)"/>
<use data-text="1" xlink:href="#font_1_4" transform="matrix(9.962799,0,0,-9.963098,172.14308,112.009799)"/>
<use data-text=")" xlink:href="#font_1_2" transform="matrix(9.962799,0,0,-9.963098,177.12447,112.009799)"/>
</svg>
