<svg xmlns="http://www.w3.org/2000/svg" xmlns:xlink="http://www.w3.org/1999/xlink" xmlns:inkscape="http://www.inkscape.org/namespaces/inkscape" version="1.1" width="292" height="239" viewBox="0 0 292 239">
<defs>
<path id="font_1_1" d="M.2939911 .64004519C.2939911 .66400149 .2939911 .6660156 .2709961 .6660156 .20899964 .60227969 .12098694 .60227969 .08898926 .60227969V.57128909C.10899353 .57128909 .16799927 .57128909 .21998596 .5972748V.07902527C.21998596 .042999269 .21699524 .0309906 .1269989 .0309906H.09498596V0C.12998963 .0029907227 .21699524 .0029907227 .25698854 .0029907227 .29699708 .0029907227 .38398744 .0029907227 .4189911 0V.0309906H.3869934C.29699708 .0309906 .2939911 .041992189 .2939911 .07902527V.64004519Z"/>
<path id="font_1_2" d="M.1269989 .07699585 .23298645 .18003845C.3889923 .31811524 .44898988 .3721466 .44898988 .47216798 .44898988 .5860901 .35899354 .6660156 .23699951 .6660156 .12399292 .6660156 .049987794 .57411196 .049987794 .48516847 .049987794 .4291687 .099990848 .4291687 .102996829 .4291687 .11999512 .4291687 .15499878 .44117738 .15499878 .48217774 .15499878 .5081787 .13699341 .5341797 .101989749 .5341797 .09399414 .5341797 .09199524 .5341797 .08898926 .5331726 .11199951 .59806826 .1659851 .63500979 .22399903 .63500979 .31498719 .63500979 .35798646 .5541382 .35798646 .47216798 .35798646 .39215089 .30799867 .31311036 .25299073 .25108338L.06098938 .036987306C.049987794 .025985718 .049987794 .023986817 .049987794 0H.42099L.44898988 .17404175H.42399598C.4189911 .14402771 .4119873 .1000061 .4019928 .084991458 .394989 .07699585 .32899476 .07699585 .30699159 .07699585H.1269989Z"/>
<path id="font_1_3" d="M.2899933 .35191346C.37199403 .37893678 .42999269 .4490509 .42999269 .52809146 .42999269 .6100464 .34199525 .6660156 .24598694 .6660156 .14498902 .6660156 .068984989 .60606387 .068984989 .53009036 .068984989 .49710084 .09098816 .47808839 .11999512 .47808839 .15098572 .47808839 .17098999 .50009158 .17098999 .5290985 .17098999 .57910159 .12399292 .57910159 .10899353 .57910159 .13999939 .62802127 .20599365 .64100649 .24198914 .64100649 .2829895 .64100649 .33799745 .6190338 .33799745 .5290985 .33799745 .51708987 .33599855 .45906068 .30999757 .4149933 .27999879 .36691285 .24598694 .36390687 .22099304 .36291505 .21299744 .36190797 .18899536 .35990907 .18199158 .35990907 .17399597 .35890199 .16699219 .35791017 .16699219 .3479004 .16699219 .33691407 .17399597 .33691407 .19099427 .33691407H.23498535C.31698609 .33691407 .35398866 .2686615 .35398866 .17037964 .35398866 .034469606 .2849884 .0055389406 .24099732 .0055389406 .19799805 .0055389406 .12298584 .022491456 .08799744 .08137512 .12298584 .07637024 .1539917 .09837341 .1539917 .1363678 .1539917 .17237854 .1269989 .19238281 .09799194 .19238281 .07398987 .19238281 .041992189 .17837525 .041992189 .1343689 .041992189 .043441774 .1349945-.022460938 .24398804-.022460938 .3659973-.022460938 .45700074 .06838989 .45700074 .17037964 .45700074 .252594 .3939972 .33088685 .2899933 .35191346Z"/>
<path id="font_1_4" d="M.2939911 .16503906V.07800293C.2939911 .041992189 .2919922 .0309906 .21798706 .0309906H.19699097V0C.23799134 .0029907227 .2899933 .0029907227 .33198548 .0029907227 .37399293 .0029907227 .4269867 .0029907227 .46798707 0V.0309906H.44699098C.37298585 .0309906 .37098695 .041992189 .37098695 .07800293V.16503906H.47099305V.19602967H.37098695V.65075686C.37098695 .67074587 .37098695 .6767578 .35499574 .6767578 .34599305 .6767578 .34298707 .6767578 .33499146 .66474917L.027999878 .19602967V.16503906H.2939911M.2999878 .19602967H.055999757L.2999878 .5688019V.19602967Z"/>
<path id="font_1_5" d="M.44898988 .20022583C.44898988 .3193512 .36698915 .41944886 .25898744 .41944886 .21099854 .41944886 .16799927 .40345765 .13198853 .36842347V.5637665C.1519928 .5577698 .18499756 .55078127 .21699524 .55078127 .33999635 .55078127 .4099884 .6417694 .4099884 .6547699 .4099884 .6607666 .40699769 .6657715 .3999939 .6657715 .39898683 .6657715 .39698792 .6657715 .3919983 .66278079 .37199403 .6537781 .32299806 .6337738 .2559967 .6337738 .21598816 .6337738 .16999817 .6407776 .12298584 .6617737 .114990238 .66477969 .11299133 .66477969 .11099243 .66477969 .100997928 .66477969 .100997928 .6567688 .100997928 .6407776V.34439088C.100997928 .32637025 .100997928 .31835938 .114990238 .31835938 .12199402 .31835938 .12399292 .32136537 .12799073 .32736207 .13899231 .3433838 .17599488 .39746095 .25698854 .39746095 .30899049 .39746095 .33399964 .35139466 .34199525 .33337403 .35798646 .29632569 .3600006 .25727845 .3600006 .20722962 .3600006 .17222595 .3600006 .11222839 .33599855 .07035828 .31199647 .031463624 .2749939 .0055389406 .22898865 .0055389406 .1559906 .0055389406 .09899902 .058380128 .08198547 .11723328 .084991458 .1162262 .08799744 .115234378 .09899902 .115234378 .13198853 .115234378 .14898682 .14022827 .14898682 .16423035 .14898682 .18823242 .13198853 .21322632 .09899902 .21322632 .084991458 .21322632 .049987794 .20622254 .049987794 .16023255 .049987794 .07434082 .11898804-.022460938 .23098755-.022460938 .34700013-.022460938 .44898988 .073349 .44898988 .20022583Z"/>
<path id="font_1_6" d="M.13198853 .327713V.35173036C.13198853 .6047821 .2559967 .64100649 .30699159 .64100649 .33099366 .64100649 .37298585 .634964 .394989 .6007538 .37998963 .6007538 .33999635 .6007538 .33999635 .5557556 .33999635 .524765 .3639984 .5097656 .38598634 .5097656 .4019928 .5097656 .43199159 .51875308 .43199159 .5577545 .43199159 .6178589 .3880005 .6660156 .30499269 .6660156 .1769867 .6660156 .041992189 .5367584 .041992189 .31570436 .041992189 .048553468 .1579895-.022460938 .25099183-.022460938 .3619995-.022460938 .45700074 .07156372 .45700074 .2036438 .45700074 .33070375 .36799623 .4267578 .25698854 .4267578 .18899536 .4267578 .1519928 .37573243 .13198853 .327713M.25099183 .0055389406C.18798828 .0055389406 .1579895 .06556702 .1519928 .080566409 .13398743 .127594 .13398743 .2076416 .13398743 .22564698 .13398743 .30369569 .1659851 .40374757 .2559967 .40374757 .27198792 .40374757 .31799317 .40374757 .34899903 .34172059 .36698915 .30470277 .36698915 .2536621 .36698915 .20463562 .36698915 .15661621 .36698915 .10658264 .34999085 .0705719 .31999208 .010528564 .27398683 .0055389406 .25099183 .0055389406Z"/>
<path id="font_1_7" d="M.47599793 .609375C.4850006 .6213684 .4850006 .62338259 .4850006 .64437869H.24198914C.11999512 .64437869 .117996219 .65737918 .11399841 .67637637H.08898926L.055999757 .4702301H.08099365C.083999637 .48625184 .09298706 .5493469 .10598755 .56137087 .11299133 .5673828 .19099427 .5673828 .20399475 .5673828H.41099549C.3999939 .5513611 .32099916 .4421997 .29899598 .40914918 .20899964 .27394105 .17599488 .1347351 .17599488 .032577516 .17599488 .022567749 .17599488-.022460938 .22200012-.022460938 .2679901-.022460938 .2679901 .022567749 .2679901 .032577516V.08366394C.2679901 .13873291 .2709961 .19381714 .2789917 .24790955 .2829895 .27093507 .29699708 .35707093 .34098817 .41915895L.47599793 .609375Z"/>
<path id="font_1_8" d="M.16299439 .4569702C.116989139 .486969 .11299133 .52098086 .11299133 .5379791 .11299133 .598999 .17799378 .64100649 .24899292 .64100649 .32199098 .64100649 .38598634 .58898928 .38598634 .51698306 .38598634 .45996095 .34700013 .4119568 .2869873 .37695313L.16299439 .4569702M.30899049 .36193849C.3809967 .3989563 .42999269 .45095826 .42999269 .51698306 .42999269 .6090088 .34098817 .6660156 .25 .6660156 .1499939 .6660156 .068984989 .59199526 .068984989 .49897767 .068984989 .4809723 .070999149 .43595887 .11299133 .38894654 .12399292 .37695313 .16099549 .35194398 .18598938 .33494569 .12799073 .30592347 .041992189 .24984741 .041992189 .15072632 .041992189 .04458618 .14399719-.022460938 .24899292-.022460938 .3619995-.022460938 .45700074 .06060791 .45700074 .16773987 .45700074 .20379639 .44599916 .24885559 .4079895 .2909088 .3889923 .31193543 .37298585 .3219452 .30899049 .36193849M.20899964 .3199463 .33198548 .24183655C.3600006 .2228241 .40699769 .19277954 .40699769 .13169861 .40699769 .05760193 .33198548 .0055389406 .25 .0055389406 .1639862 .0055389406 .09199524 .067611698 .09199524 .15072632 .09199524 .20880127 .12399292 .27288819 .20899964 .3199463Z"/>
<path id="font_2_96" d="M.4889984 .37927247C.4889984 .43138124 .42399598 .4423828 .3909912 .4423828 .32199098 .4423828 .28599549 .39227296 .269989 .37026979 .25898744 .42337037 .21998596 .4423828 .18699646 .4423828 .15098572 .4423828 .1309967 .41937257 .114990238 .38926698 .09599304 .34925843 .08299255 .28826905 .08299255 .28826905 .08299255 .27825929 .09298706 .27825929 .09799194 .27825929 .11099243 .27825929 .11199951 .27926637 .116989139 .30126954 .1349945 .3712616 .1539917 .42037965 .18499756 .42037965 .21099854 .42037965 .21099854 .39126588 .21099854 .38026429 .21099854 .36427308 .20799256 .34526063 .20399475 .3292694L.1289978 .029251099C.1269989 .023254395 .12599182 .018249512 .12599182 .015258789 .12599182 .004257202 .13398743-.0107421879 .1539917-.0107421879 .18399048-.0107421879 .19099427 .018249512 .19299317 .026245118L.2579956 .28826905C.25898744 .29125978 .3039856 .42037965 .3899994 .42037965 .394989 .42037965 .4229889 .42037965 .44299317 .40628053 .4079895 .39526368 .40499879 .363266 .40499879 .3582611 .40499879 .34526063 .4139862 .32626344 .43998719 .32626344 .45799256 .32626344 .4889984 .340271 .4889984 .37927247Z"/>
<path id="font_2_81" d="M.5089874 .27833558C.5089874 .37335206 .44999696 .4423828 .36299134 .4423828 .23899842 .4423828 .10998535 .30033876 .10998535 .15429688 .10998535 .05126953 .17298889-.0107421879 .2559967-.0107421879 .37998963-.0107421879 .5089874 .13128662 .5089874 .27833558M.43899537 .31733705C.43899537 .2743225 .4169922 .17129517 .3849945 .11128235 .35598756 .056259157 .30499269 .011245728 .2559967 .011245728 .21699524 .011245728 .17999268 .042266847 .17999268 .11428833 .17999268 .16429138 .20599365 .2753296 .23799134 .3293457 .2749939 .3903656 .32299806 .42037965 .3619995 .42037965 .41099549 .42037965 .43899537 .37635804 .43899537 .31733705Z"/>
<path id="font_2_105" d="M.35598756 .14305115C.35598756 .1530304 .34799195 .1530304 .34098817 .1530304 .32899476 .1530304 .32899476 .15203858 .32099916 .13406372 .30299378 .086135867 .2630005 .011245728 .20599365 .011245728 .1789856 .011245728 .1789856 .036209108 .1789856 .05218506 .1789856 .059173585 .1789856 .075149539 .18598938 .10310364L.2599945 .3996582H.34498597C.3619995 .3996582 .37298585 .3996582 .37298585 .4186554 .37298585 .43066407 .3639984 .43066407 .34799195 .43066407H.2679901L.30499269 .57888796C.30899049 .59291079 .30899049 .5949249 .30899049 .5999298 .30899049 .6209564 .2919922 .62597659 .28199769 .62597659 .25698854 .62597659 .24699402 .6049347 .24299622 .5899048L.20399475 .43066407H.11898804C.101989749 .43066407 .09098816 .43066407 .09098816 .4116516 .09098816 .3996582 .099990848 .3996582 .115997318 .3996582H.19599915L.12399292 .113098148C.12298584 .10910034 .11898804 .09312439 .11898804 .07914734 .11898804 .029220581 .1519928-.0107421879 .20399475-.0107421879 .30499269-.0107421879 .35598756 .13806153 .35598756 .14305115Z"/>
<path id="font_2_28" d="M.5249939 .14329529C.5249939 .1532898 .5169983 .1532898 .5099945 .1532898 .49798585 .1532898 .49699403 .15229798 .4909973 .13027954 .47698976 .07426453 .45799256 .011245728 .42399598 .011245728 .397995 .011245728 .397995 .038253786 .397995 .052261354 .397995 .059265138 .397995 .07527161 .40499879 .103271488L.47299195 .3753662C.47698976 .38935853 .47698976 .39135743 .47698976 .3963623 .47698976 .41737367 .45999146 .42237855 .44999696 .42237855 .41799928 .42237855 .41099549 .3883667 .4099884 .38336183 .3909912 .42637635 .35899354 .4423828 .32699586 .4423828 .21598816 .4423828 .09799194 .29032899 .09799194 .14428711 .09799194 .059265138 .14399719-.0107421879 .21899414-.0107421879 .25498963-.0107421879 .29899598 .010253906 .33898927 .059265138 .34999085 .010253906 .3869934-.0107421879 .42199708-.0107421879 .45899964-.0107421879 .47999574 .014251709 .49499513 .04525757 .5130005 .08326721 .5249939 .14329529 .5249939 .14329529M.34599305 .12428284C.33799745 .0922699 .27598573 .011245728 .22099304 .011245728 .17399597 .011245728 .1659851 .07026672 .1659851 .10028076 .1659851 .15029907 .19699097 .26733399 .21499634 .30934144 .23999024 .37036134 .28599549 .42037965 .32699586 .42037965 .37098695 .42037965 .3959961 .36836244 .3959961 .32633973 .3959961 .32633973 .394989 .31933595 .3929901 .31333924L.34599305 .12428284Z"/>
<path id="font_2_66" d="M.33099366 .14329529C.33099366 .1532898 .32299806 .1532898 .31599427 .1532898 .30299378 .1532898 .30299378 .1512909 .29899598 .1362915 .29100038 .107284549 .2639923 .011245728 .20599365 .011245728 .19799805 .011245728 .18399048 .012252808 .18399048 .039260866 .18399048 .06526184 .19699097 .09828186 .20999146 .13528443L.27398683 .30633546C.28399659 .3353424 .28599549 .34335328 .28599549 .36235047 .28599549 .41737367 .24798584 .4423828 .21099854 .4423828 .116989139 .4423828 .08299255 .29333497 .08299255 .28833009 .08299255 .27833558 .09298706 .27833558 .09799194 .27833558 .11099243 .27833558 .11199951 .28033448 .115997318 .29434205 .125 .3273468 .15098572 .42037965 .20899964 .42037965 .21998596 .42037965 .23098755 .41537477 .23098755 .3923645 .23098755 .36836244 .21998596 .33935548 .21299744 .32034303L.18299866 .23731995 .1459961 .1382904C.13198853 .10028076 .12799073 .089279178 .12799073 .0692749 .12799073 .030258179 .1519928-.0107421879 .20399475-.0107421879 .2979889-.0107421879 .33099366 .13928223 .33099366 .14329529M.35798646 .61128237C.35798646 .6322937 .34298707 .6542969 .31298829 .6542969 .2809906 .6542969 .24899292 .623291 .24899292 .59129336 .24899292 .56929019 .2649994 .54829409 .2939911 .54829409 .32598878 .54829409 .35798646 .57928469 .35798646 .61128237Z"/>
<path id="font_2_77" d="M.58599856 .14329529C.58599856 .1532898 .5779877 .1532898 .57099917 .1532898 .55799868 .1532898 .55799868 .1512909 .55400088 .1362915 .54599 .10928345 .5189972 .011245728 .46099855 .011245728 .43998719 .011245728 .43899537 .026260376 .43899537 .040252687 .43899537 .06526184 .44898988 .091278079 .45700074 .11528015 .47698976 .16830445 .5179901 .28033448 .5179901 .3383484 .5179901 .42037965 .46299745 .4423828 .4139862 .4423828 .33198548 .4423828 .28399659 .38235475 .2709961 .36335755 .2639923 .41236878 .22999573 .4423828 .18699646 .4423828 .15098572 .4423828 .1309967 .41937257 .114990238 .38935853 .09599304 .34934999 .08299255 .28833009 .08299255 .28833009 .08299255 .27833558 .09298706 .27833558 .09799194 .27833558 .11099243 .27833558 .11199951 .2793274 .116989139 .30133058 .1349945 .37135316 .1539917 .42037965 .18499756 .42037965 .21099854 .42037965 .21099854 .39135743 .21099854 .38035584 .21099854 .36434938 .20799256 .34535218 .20399475 .3293457L.1289978 .029251099C.1269989 .023254395 .12599182 .018249512 .12599182 .015258789 .12599182 .004257202 .13398743-.0107421879 .1539917-.0107421879 .1659851-.0107421879 .18299866-.003753662 .18998719 .015258789L.22999573 .17529297C.23498535 .1973114 .24099732 .2183075 .24598694 .24032593 .25898744 .29133607 .25898744 .29232789 .27598573 .3213501 .2899933 .34535218 .33499146 .42037965 .41099549 .42037965 .45498658 .42037965 .45700074 .3753662 .45700074 .35435487 .45700074 .29232789 .41299439 .17329407 .39898683 .13328552 .38598634 .09927368 .3829956 .090270999 .3829956 .0692749 .3829956 .025253296 .41099549-.0107421879 .45899964-.0107421879 .5519867-.0107421879 .58599856 .1382904 .58599856 .14329529Z"/>
<path id="font_2_50" d="M.46798707 .10432434C.46798707 .10932922 .45999146 .12034607 .45199586 .12034607 .44799806 .12034607 .44699098 .11933899 .43899537 .10932922 .36499024 .015258789 .27598573 .011245728 .25898744 .011245728 .19400025 .011245728 .18299866 .08230591 .18299866 .12133789 .18299866 .15937805 .19299317 .204422 .19999695 .23144531H.23899842C.2689972 .23144531 .33599855 .23443604 .38398744 .25343324 .46299745 .2854309 .46299745 .35040284 .46299745 .35740663 .46299745 .40338136 .42599488 .4423828 .3619995 .4423828 .25698854 .4423828 .11399841 .34140016 .11399841 .16438294 .11399841 .0743103 .1619873-.0107421879 .25698854-.0107421879 .3849945-.0107421879 .46798707 .08930969 .46798707 .10432434M.4249878 .35940553C.4249878 .25343324 .2599945 .25343324 .22698975 .25343324H.20599365C.24899292 .41737367 .35198976 .42037965 .3619995 .42037965 .4019928 .42037965 .4249878 .39338685 .4249878 .35940553Z"/>
<path id="font_2_126" d="M.6119995 .14324951C.6119995 .15324402 .60398867 .15324402 .5970001 .15324402 .58499148 .15324402 .58399966 .1522522 .5779877 .13024903 .56399539 .07424927 .54499819 .011245728 .5109863 .011245728 .4850006 .011245728 .4850006 .038253786 .4850006 .052246095 .4850006 .059249879 .4850006 .07525635 .49198915 .103256229L.6339874 .6712494C.6359863 .6772461 .6369934 .68125918 .6369934 .6842499 .6369934 .6942444 .6289978 .6942444 .61299136 .6942444H.59799197C.57699587 .6942444 .57598879 .69325259 .56999209 .6742554L.5609894 .6392517 .55999758 .6389923C.55999758 .64901736 .5589905 .674057 .519989 .69107058 .49499513 .70207217 .46299745 .7050781 .43598939 .7050781 .2689972 .7050781 .25 .6049347 .21798706 .43066407H.15299988C.13598633 .43066407 .125 .43066407 .125 .4116516 .125 .3996582 .13398743 .3996582 .1499939 .3996582H.21199036L.14199829 .03692627 .11099243-.099990848C.102996829-.1309967 .08999634-.18261719 .053985597-.18261719 .04899597-.18261719 .026992798-.18164063 .01499939-.16497803 .04499817-.1599884 .05899048-.13598633 .05899048-.115997318 .05899048-.09399414 .040985109-.083984378 .024993897-.083984378 0-.083984378-.025009156-.10398865-.025009156-.13899231-.025009156-.18562317 .019989014-.20462036 .053985597-.20462036 .14299011-.20462036 .18798828-.06201172 .21499634 .07989502L.2769928 .3996582H.5019989L.42999269 .11286926C.42900086 .10910034 .4249878 .09312439 .4249878 .07914734 .4249878 .026229859 .46099855-.0107421879 .5089874-.0107421879 .54599-.0107421879 .5669861 .014251709 .58200076 .045196535 .59999087 .08314514 .6119995 .14305115 .6119995 .14305115V.14324951M.5099945 .43066407H.2829895C.29499818 .49375917 .30999757 .57688906 .32499696 .6179657 .34298707 .6690521 .394989 .68307498 .43699647 .68307498 .44499208 .68307498 .48999024 .68307498 .5149994 .664032 .4889984 .6569824 .47599793 .63497927 .47599793 .61598208 .47599793 .5939789 .49398805 .5839844 .5099945 .5839844 .5299988 .5839844 .5469971 .5969696 .5519867 .60697939H.5529938L.5099945 .43066407Z"/>
<path id="font_2_43" d="M.46798707 .10417175C.46798707 .10916138 .45999146 .120147708 .45199586 .120147708 .44799806 .120147708 .44699098 .119155887 .43899537 .10916138 .36499024 .01524353 .27598573 .011245728 .25898744 .011245728 .20498657 .011245728 .17999268 .05621338 .17999268 .114151 .17999268 .16711426 .20698548 .27201844 .23298645 .31999208 .2689972 .3850708 .31900025 .42037965 .3639984 .42037965 .375 .42037965 .41999818 .41836549 .43499757 .37701417 .3849945 .37098695 .3849945 .32798768 .3849945 .32798768 .3849945 .31199647 .3959961 .29599 .4189911 .29599 .44599916 .29599 .46998597 .31799317 .46998597 .35598756 .46998597 .40524293 .4269867 .4423828 .36299134 .4423828 .23899842 .4423828 .10998535 .2999878 .10998535 .15411377 .10998535 .0552063 .16899109-.0107421879 .25698854-.0107421879 .3849945-.0107421879 .46798707 .08917236 .46798707 .10417175Z"/>
</defs>
<path transform="matrix(1.00002,0,0,-1.00005,145.79163,181.95745)" stroke-width=".3985" stroke-linecap="butt" stroke-miterlimit="10" stroke-linejoin="miter" fill="none" stroke="#000000" d="M-58.6392 156.79734-90.71013 170.0815-122.78104 156.79734-136.0652 124.72643-122.78104 92.6555-90.71013 79.37135-58.6392 92.6555-45.35506 124.72643Z"/>
<use data-text="1" xlink:href="#font_1_1" transform="matrix(9.962799,0,0,-9.963098,52.583757,8.338776)"/>
<use data-text="2" xlink:href="#font_1_2" transform="matrix(9.962799,0,0,-9.963098,90.66852,21.624436)"/>
<use data-text="3" xlink:href="#font_1_3" transform="matrix(9.962799,0,0,-9.963098,103.95279,60.428369)"/>
<use data-text="4" xlink:href="#font_1_4" transform="matrix(9.962799,0,0,-9.963098,90.66852,99.23331)"/>
<use data-text="5" xlink:href="#font_1_5" transform="matrix(9.962799,0,0,-9.963098,52.583757,112.518978)"/>
<use data-text="6" xlink:href="#font_1_6" transform="matrix(9.962799,0,0,-9.963098,14.5,99.23331)"/>
<use data-text="7" xlink:href="#font_1_7" transform="matrix(9.962799,0,0,-9.963098,1.2147217,60.428369)"/>
<use data-text="8" xlink:href="#font_1_8" transform="matrix(9.962799,0,0,-9.963098,14.5,21.624436)"/>
<path transform="matrix(1.00002,0,0,-1.00005,145.79163,181.95745)" stroke-width=".3985" stroke-linecap="butt" stroke-miterlimit="10" stroke-linejoin="miter" fill="none" stroke="#000000" d="M122.78104 156.79734 90.71013 170.0815 58.6392 156.79734 45.35506 124.72643 58.6392 92.6555 90.71013 79.37135 122.78104 92.6555 136.0652 124.72643Z"/>
<use data-text="1" xlink:href="#font_1_1" transform="matrix(9.962799,0,0,-9.963098,201.94475,21.624436)"/>
<use data-text="2" xlink:href="#font_1_2" transform="matrix(9.962799,0,0,-9.963098,240.0285,8.338776)"/>
<use data-text="3" xlink:href="#font_1_3" transform="matrix(9.962799,0,0,-9.963098,272.10118,28.354767)"/>
<use data-text="4" xlink:href="#font_1_4" transform="matrix(9.962799,0,0,-9.963098,285.3864,67.15871)"/>
<use data-text="5" xlink:href="#font_1_5" transform="matrix(9.962799,0,0,-9.963098,266.09104,99.23331)"/>
<use data-text="6" xlink:href="#font_1_6" transform="matrix(9.962799,0,0,-9.963098,228.00727,112.518978)"/>
<use data-text="7" xlink:href="#font_1_7" transform="matrix(9.962799,0,0,-9.963098,195.93363,92.502979)"/>
<use data-text="8" xlink:href="#font_1_8" transform="matrix(9.962799,0,0,-9.963098,182.64836,60.428369)"/>
<path transform="matrix(1.00002,0,0,-1.00005,145.79163,181.95745)" stroke-width=".3985" stroke-linecap="butt" stroke-miterlimit="10" stroke-linejoin="miter" fill="none" stroke="#000000" d="M-27.21437 124.73297H26.7561"/>
<path transform="matrix(1.00002,0,0,-1.00005,172.54827,57.21824)" stroke-width=".31879" stroke-linecap="round" stroke-linejoin="round" fill="none" stroke="#000000" d="M-1.19551 1.59401C-1.09587 .99626 0 .09961 .29886 0 0-.09961-1.09587-.99626-1.19551-1.59401"/>
<use data-text="r" xlink:href="#font_2_96" transform="matrix(9.962799,0,0,-9.963098,128.55028,53.589036)"/>
<use data-text="o" xlink:href="#font_2_81" transform="matrix(9.962799,0,0,-9.963098,132.24649,53.589036)"/>
<use data-text="t" xlink:href="#font_2_105" transform="matrix(9.962799,0,0,-9.963098,137.33747,53.589036)"/>
<use data-text="a" xlink:href="#font_2_28" transform="matrix(9.962799,0,0,-9.963098,140.64513,53.589036)"/>
<use data-text="t" xlink:href="#font_2_105" transform="matrix(9.962799,0,0,-9.963098,145.7361,53.589036)"/>
<use data-text="i" xlink:href="#font_2_66" transform="matrix(9.962799,0,0,-9.963098,149.04376,53.589036)"/>
<use data-text="o" xlink:href="#font_2_81" transform="matrix(9.962799,0,0,-9.963098,152.10234,53.589036)"/>
<use data-text="n" xlink:href="#font_2_77" transform="matrix(9.962799,0,0,-9.963098,157.19333,53.589036)"/>
<path transform="matrix(1.00002,0,0,-1.00005,145.79163,181.95745)" stroke-width=".3985" stroke-linecap="butt" stroke-miterlimit="10" stroke-linejoin="miter" fill="none" stroke="#000000" d="M-58.6392 32.07089-90.71013 45.35506-122.78104 32.07089-136.0652 0-122.78104-32.07089-90.71013-45.35506-58.6392-32.07089-45.35506 0Z"/>
<use data-text="1" xlink:href="#font_1_1" transform="matrix(9.962799,0,0,-9.963098,52.583757,133.078)"/>
<use data-text="2" xlink:href="#font_1_2" transform="matrix(9.962799,0,0,-9.963098,90.66852,146.36367)"/>
<use data-text="3" xlink:href="#font_1_3" transform="matrix(9.962799,0,0,-9.963098,103.95279,185.1676)"/>
<use data-text="4" xlink:href="#font_1_4" transform="matrix(9.962799,0,0,-9.963098,90.66852,223.97254)"/>
<use data-text="5" xlink:href="#font_1_5" transform="matrix(9.962799,0,0,-9.963098,52.583757,237.25821)"/>
<use data-text="6" xlink:href="#font_1_6" transform="matrix(9.962799,0,0,-9.963098,14.5,223.97254)"/>
<use data-text="7" xlink:href="#font_1_7" transform="matrix(9.962799,0,0,-9.963098,1.2147217,185.1676)"/>
<use data-text="8" xlink:href="#font_1_8" transform="matrix(9.962799,0,0,-9.963098,14.5,146.36367)"/>
<path transform="matrix(1.00002,0,0,-1.00005,145.79163,181.95745)" stroke-width=".3985" stroke-linecap="butt" stroke-miterlimit="10" stroke-linejoin="miter" fill="none" stroke="#000000" d="M122.78104 32.07089 90.71013 45.35506 58.6392 32.07089 45.35506 0 58.6392-32.07089 90.71013-45.35506 122.78104-32.07089 136.0652 0Z"/>
<use data-text="1" xlink:href="#font_1_1" transform="matrix(9.962799,0,0,-9.963098,234.0174,133.078)"/>
<use data-text="2" xlink:href="#font_1_2" transform="matrix(9.962799,0,0,-9.963098,195.93363,146.36367)"/>
<use data-text="3" xlink:href="#font_1_3" transform="matrix(9.962799,0,0,-9.963098,182.64836,185.1676)"/>
<use data-text="4" xlink:href="#font_1_4" transform="matrix(9.962799,0,0,-9.963098,195.93363,223.97254)"/>
<use data-text="5" xlink:href="#font_1_5" transform="matrix(9.962799,0,0,-9.963098,234.0174,237.25821)"/>
<use data-text="6" xlink:href="#font_1_6" transform="matrix(9.962799,0,0,-9.963098,272.10118,223.97254)"/>
<use data-text="7" xlink:href="#font_1_7" transform="matrix(9.962799,0,0,-9.963098,285.3864,185.1676)"/>
<use data-text="8" xlink:href="#font_1_8" transform="matrix(9.962799,0,0,-9.963098,272.10118,146.36367)"/>
<path transform="matrix(1.00002,0,0,-1.00005,145.79163,181.95745)" stroke-width=".3985" stroke-linecap="butt" stroke-miterlimit="10" stroke-linejoin="miter" fill="none" stroke="#000000" d="M-27.21437 0H26.7561"/>
<path transform="matrix(1.00002,0,0,-1.00005,172.54827,181.95745)" stroke-width=".31879" stroke-linecap="round" stroke-linejoin="round" fill="none" stroke="#000000" d="M-1.19551 1.59401C-1.09587 .99626 0 .09961 .29886 0 0-.09961-1.09587-.99626-1.19551-1.59401"/>
<use data-text="r" xlink:href="#font_2_96" transform="matrix(9.962799,0,0,-9.963098,125.74622,176.39517)"/>
<use data-text="e" xlink:href="#font_2_50" transform="matrix(9.962799,0,0,-9.963098,129.44245,176.39517)"/>
<use data-text="f" xlink:href="#font_2_126" transform="matrix(9.962799,0,0,-9.963098,134.02533,176.39517)"/>
<use data-text="e" xlink:href="#font_2_50" transform="matrix(9.962799,0,0,-9.963098,139.88343,176.39517)"/>
<use data-text="c" xlink:href="#font_2_43" transform="matrix(9.962799,0,0,-9.963098,143.95822,176.39517)"/>
<use data-text="t" xlink:href="#font_2_105" transform="matrix(9.962799,0,0,-9.963098,148.5411,176.39517)"/>
<use data-text="i" xlink:href="#font_2_66" transform="matrix(9.962799,0,0,-9.963098,151.84879,176.39517)"/>
<use data-text="o" xlink:href="#font_2_81" transform="matrix(9.962799,0,0,-9.963098,154.90738,176.39517)"/>
<use data-text="n" xlink:href="#font_2_77" transform="matrix(9.962799,0,0,-9.963098,159.99835,176.39517)"/>
</svg>
