<svg xmlns="http://www.w3.org/2000/svg" xmlns:xlink="http://www.w3.org/1999/xlink" xmlns:inkscape="http://www.inkscape.org/namespaces/inkscape" version="1.1" width="140" height="147" viewBox="0 0 140 147">
<defs>
<path id="font_1_95" d="M.74198916 .09489441C.74198916 .10687256 .72898867 .10687256 .7259979 .10687256 .71299746 .10687256 .71099856 .10386658 .70799258 .09188843 .68899539 .0309906 .6579895 .0029907227 .6289978 .0029907227 .60598757 .0029907227 .59498599 .016998291 .59498599 .059951784 .59498599 .07791138 .598999 .11984253 .6009979 .13482666 .60398867 .15678406 .60899356 .20172119 .60899356 .22167969 .60899356 .2795868 .57499697 .31652833 .5249939 .33850099 .6369934 .3645172 .73399356 .44554139 .73399356 .53356936 .73399356 .6165924 .651001 .6826172 .5269928 .6826172H.25898744C.24198914 .6826172 .23098755 .6826172 .23098755 .6646118 .23098755 .6516113 .24198914 .6516113 .2579956 .6516113 .31599427 .6516113 .31599427 .64460757 .31599427 .6345978 .31599427 .6306 .31599427 .6286011 .31199647 .6145935L.1769867 .07292175C.16799927 .037979127 .1619873 .0309906 .09498596 .0309906 .07899475 .0309906 .067993167 .0309906 .067993167 .0129852299 .067993167 .0039978029 .07499695 0 .08299255 0 .11999512 0 .1599884 .0029907227 .19799805 .0029907227 .23699951 .0029907227 .27799989 0 .31498719 0 .32099916 0 .33399964 0 .33399964 .017990113 .33399964 .0309906 .32398988 .0309906 .30799867 .0309906 .25 .0309906 .25 .036987306 .25 .047958375 .25 .051956178 .25 .053955079 .2539978 .06892395L.31900025 .32850648H.43299867C.5169983 .32850648 .5319977 .27259828 .5319977 .24064636 .5319977 .22767639 .5309906 .21968079 .5269928 .20471192 .5119934 .14880371 .5019989 .11186218 .5019989 .0848999 .5019989-.018005372 .60598757-.022003174 .625-.022003174 .71099856-.022003174 .74198916 .08390808 .74198916 .09489441M.6439972 .5545807C.6439972 .51356509 .625 .43753053 .58099368 .40052796 .5329895 .3625183 .47698976 .35351563 .43199159 .35351563H.32499696L.3899994 .6156006C.39898683 .6516113 .40699769 .6516113 .43798829 .6516113H.5069885C.5389862 .6516113 .5779877 .64660647 .60598757 .62960818 .6439972 .604599 .6439972 .571579 .6439972 .5545807Z"/>
<path id="font_1_66" d="M.34098817 .14329529C.34098817 .1552887 .32798768 .1552887 .32398988 .1552887 .30999757 .1552887 .30899049 .15229798 .30299378 .13128662 .29299928 .09527588 .2649994 .014251709 .21099854 .014251709 .20298767 .014251709 .18998719 .01524353 .18998719 .042251588 .18998719 .059265138 .19599915 .08227539 .20698548 .11328125 .22099304 .15029907 .22099304 .15229798 .23799134 .19430542L.27198792 .28833009C.2809906 .31134034 .2919922 .34135438 .2919922 .36036683 .2919922 .40937806 .2579956 .4423828 .21299744 .4423828 .117996219 .4423828 .08099365 .29733277 .08099365 .28833009 .08099365 .27633668 .09298706 .27633668 .09799194 .27633668 .11199951 .27633668 .11299133 .28134156 .116989139 .29333497 .12399292 .3193512 .15098572 .41737367 .20999146 .41737367 .21998596 .41737367 .23098755 .41537477 .23098755 .38937379 .23098755 .36535646 .22399903 .34535218 .20698548 .29833985L.17199707 .205307 .14698792 .1362915C.13899231 .11528015 .12998963 .091278079 .12998963 .0712738 .12998963 .01725769 .16799927-.0107421879 .20899964-.0107421879 .3039856-.0107421879 .34098817 .1362915 .34098817 .14329529M.3619995 .6102905C.3619995 .6382904 .33999635 .6542969 .31698609 .6542969 .28599549 .6542969 .2519989 .62628176 .2519989 .59028628 .2519989 .5622864 .27398683 .54629519 .29699708 .54629519 .32798768 .54629519 .3619995 .57429507 .3619995 .6102905Z"/>
<path id="font_1_77" d="M.6029968 .14329529C.6029968 .1552887 .58999636 .1552887 .58599856 .1552887 .57199099 .1552887 .57099917 .15229798 .5649872 .13128662 .5549927 .09527588 .5269928 .014251709 .47299195 .014251709 .46499635 .014251709 .45199586 .01524353 .45199586 .042251588 .45199586 .06626892 .46398927 .09828186 .47200013 .120285037 .48999024 .16830445 .5309906 .2793274 .5309906 .3363495 .5309906 .4033661 .4909973 .4423828 .42099 .4423828 .34899903 .4423828 .30099488 .39837647 .2749939 .36636354 .2659912 .41638185 .22898865 .4423828 .18699646 .4423828 .1539917 .4423828 .1289978 .42237855 .11099243 .3843689 .09498596 .34934999 .08099365 .29333497 .08099365 .28933717 .08099365 .27633668 .09199524 .27633668 .09799194 .27633668 .11299133 .27633668 .11299133 .28033448 .117996219 .30033876 .13798523 .3803711 .15699768 .41737367 .18499756 .41737367 .20098877 .41737367 .21099854 .40837098 .21099854 .3773651 .21099854 .35635377 .20498657 .33035279 .20399475 .32635499L.13198853 .038253786C.12799073 .024246216 .12799073 .022247315 .12799073 .01725769 .12799073-.00074768069 .14199829-.0107421879 .15699768-.0107421879 .18899536-.0107421879 .19400025 .009246826 .20698548 .06427002L.22898865 .15029907 .26098634 .28033448C.2649994 .29333497 .29299928 .34535218 .31698609 .3693695 .33198548 .3843689 .36499024 .41737367 .4189911 .41737367 .45700074 .41737367 .46598817 .3843689 .46598817 .35235597 .46598817 .29434205 .4229889 .17630005 .4059906 .13128662 .3939972 .09828186 .3919983 .0922699 .3919983 .0712738 .3919983 .01725769 .42999269-.0107421879 .47099305-.0107421879 .56599429-.0107421879 .6029968 .1362915 .6029968 .14329529Z"/>
<path id="font_1_59" d="M.38398744-.06604004 .49398805 .3743286C.49798585 .38835145 .49798585 .39035035 .49798585 .39434815 .49798585 .4113617 .4850006 .42237855 .46899415 .42237855 .44898988 .42237855 .43299867 .4073639 .42799378 .38835145 .41600038 .4113617 .3899994 .4423828 .34199525 .4423828 .23399353 .4423828 .11199951 .30426026 .11199951 .15512085 .11199951 .04801941 .1769867 0 .23699951 0 .2769928 0 .31399537 .021987915 .34399415 .05001831L.32299806-.0340271C.31098939-.08303833 .30599977-.10305786 .27398683-.1370697 .24598694-.16908264 .21499634-.18008423 .17999268-.18008423 .14898682-.18008423 .12298584-.17507935 .10998535-.17108155 .11299133-.17007447 .13798523-.15608216 .13798523-.12705994 .13798523-.106048587 .12298584-.095047 .10398865-.095047 .085998538-.095047 .055999757-.109054569 .055999757-.14706421 .055999757-.18908692 .09799194-.20507813 .1789856-.20507813 .29299928-.20507813 .36698915-.13406372 .38398744-.06604004M.36499024 .13310242C.35598756 .09906006 .2939911 .024993897 .23999024 .024993897 .18499756 .024993897 .18199158 .09806824 .18199158 .113082889 .18199158 .16012573 .21099854 .27122499 .22799683 .31027223 .2579956 .37834168 .30499269 .41737367 .34199525 .41737367 .40499879 .41737367 .41299439 .33229066 .41299439 .32829286 .41299439 .32528688 .4119873 .32228089 .4099884 .31427003L.36499024 .13310242Z"/>
<path id="font_1_98" d="M.40299989 .15620423C.40299989 .18418885 .3929901 .21018982 .37298585 .23118592 .34700013 .25717164 .32398988 .2621765 .2789917 .27116395 .24899292 .27816773 .21299744 .28515626 .21299744 .32815553 .21299744 .3461609 .22898865 .41737367 .31599427 .41737367 .34599305 .41737367 .38198854 .4053192 .3919983 .37016297 .35499574 .36315919 .35499574 .33015443 .35499574 .33015443 .35499574 .32115174 .36099244 .30215455 .3849945 .30215455 .40699769 .30215455 .42799378 .31915284 .42799378 .3561554 .42799378 .40130616 .3880005 .4423828 .31599427 .4423828 .19898987 .4423828 .15499878 .3491516 .15499878 .29415895 .15499878 .21618653 .22200012 .20219422 .2519989 .19519043 .29899598 .18519593 .34399415 .17520142 .34399415 .12321472 .34399415 .09422302 .31999208 .014251709 .21099854 .014251709 .18499756 .014251709 .1289978 .021255494 .11299133 .068237308 .1599884 .07322693 .1599884 .115219119 .1599884 .115219119 .1599884 .14221192 .13699341 .14820862 .12599182 .14820862 .11999512 .14820862 .07598877 .14520264 .07598877 .08622742 .07598877 .03024292 .1289978-.0107421879 .21099854-.0107421879 .3639984-.0107421879 .40299989 .11122131 .40299989 .15620423Z"/>
<path id="font_1_42" d="M.82699587 .68006899C.8279877 .6840668 .82899478 .68907168 .82899478 .69407656 .82899478 .7050781 .81700137 .7050781 .8109894 .7050781L.73599246 .61802676C.69299319 .68907168 .6299896 .7050781 .57899478 .7050781 .36799623 .7050781 .15098572 .47990418 .15098572 .24671936 .15098572 .08859253 .2559967-.022460938 .4039917-.022460938 .49798585-.022460938 .59799197 .030548096 .6669922 .1306305 .69999697 .17767334 .71598818 .23170471 .71598818 .23872376 .71598818 .25073243 .70599368 .25073243 .69898989 .25073243 .69200137 .25073243 .68499758 .25073243 .6819916 .24272156 .6239929 .05456543 .48399354 .008529663 .4149933 .008529663 .32998658 .008529663 .23799134 .064575199 .23799134 .21069336 .23799134 .27674867 .2649994 .4368744 .34999085 .5439606 .42099 .6330414 .5119934 .67407229 .58599856 .67407229 .6859894 .67407229 .73399356 .59199526 .73399356 .48692323 .73399356 .45289613 .7299957 .4368744 .7299957 .4308777 .7299957 .41886903 .7409973 .41886903 .746994 .41886903 .7609863 .41886903 .7619934 .42286683 .7659912 .43788148L.82699587 .68006899Z"/>
<path id="font_1_81" d="M.5209961 .2753296C.5209961 .37036134 .46099855 .4423828 .36898805 .4423828 .24198914 .4423828 .11099243 .30134584 .11099243 .1552887 .11099243 .06227112 .16899109-.0107421879 .2630005-.0107421879 .3929901-.0107421879 .5209961 .1342926 .5209961 .2753296M.44799806 .31333924C.44799806 .27833558 .42900086 .16429138 .38398744 .09527588 .35198976 .04626465 .30499269 .014251709 .2630005 .014251709 .22799683 .014251709 .18399048 .038253786 .18399048 .119277957 .18399048 .15829468 .20399475 .26333619 .24299622 .32835389 .27598573 .38536073 .32699586 .41737367 .36898805 .41737367 .41299439 .41737367 .44799806 .38136292 .44799806 .31333924Z"/>
<path id="font_1_75" d="M.8659973 .14329529C.8659973 .1552887 .8529968 .1552887 .848999 .1552887 .83499148 .1552887 .83399966 .15229798 .8279877 .13128662 .81799319 .09527588 .7899933 .014251709 .73599246 .014251709 .7279968 .014251709 .71499636 .01524353 .71499636 .042251588 .71499636 .06626892 .72698977 .09828186 .7350006 .120285037 .7529907 .16830445 .7939911 .2793274 .7939911 .3363495 .7939911 .4033661 .7539978 .4423828 .6839905 .4423828 .61499026 .4423828 .56599429 .40437318 .5309906 .35635377 .522995 .41438294 .47999574 .4423828 .42199708 .4423828 .36698915 .4423828 .31698609 .41838075 .2749939 .36535646 .2659912 .41737367 .22799683 .4423828 .18699646 .4423828 .1539917 .4423828 .1289978 .42237855 .11099243 .3843689 .09498596 .34934999 .08099365 .29333497 .08099365 .28933717 .08099365 .27633668 .09199524 .27633668 .09799194 .27633668 .11299133 .27633668 .11299133 .28033448 .117996219 .30033876 .13798523 .3803711 .15699768 .41737367 .18499756 .41737367 .20098877 .41737367 .21099854 .40837098 .21099854 .3773651 .21099854 .35635377 .20498657 .33035279 .20399475 .32635499L.13198853 .038253786C.12799073 .024246216 .12799073 .022247315 .12799073 .01725769 .12799073-.00074768069 .14199829-.0107421879 .15699768-.0107421879 .18899536-.0107421879 .19400025 .009246826 .20698548 .06427002L.22898865 .15029907 .26098634 .28033448C.2630005 .28733827 .28799439 .3423462 .32699586 .379364 .35499574 .40538026 .3889923 .41737367 .4189911 .41737367 .44898988 .41737367 .46699525 .39736939 .46699525 .35134889 .46699525 .3333435 .46099855 .30334474 .45799256 .29034425L.394989 .038253786C.3909912 .024246216 .3909912 .022247315 .3909912 .01725769 .3909912-.00074768069 .40499879-.0107421879 .41999818-.0107421879 .45199586-.0107421879 .45700074 .009246826 .46998597 .06427002L.49198915 .15029907 .5239868 .28033448C.5279999 .29333497 .55599978 .34535218 .5799866 .3693695 .59498599 .3843689 .6279907 .41737367 .6819916 .41737367 .7200012 .41737367 .72898867 .3843689 .72898867 .35235597 .72898867 .29434205 .6859894 .17630005 .6689911 .13128662 .6569977 .09828186 .6549988 .0922699 .6549988 .0712738 .6549988 .01725769 .69299319-.0107421879 .73399356-.0107421879 .82899478-.0107421879 .8659973 .1362915 .8659973 .14329529Z"/>
<path id="font_1_109" d="M.57699587 .14329529C.57699587 .1552887 .56399539 .1552887 .55999758 .1552887 .54499819 .1552887 .5439911 .1512909 .5399933 .1322937 .522995 .06626892 .5049896 .014251709 .47200013 .014251709 .45298768 .014251709 .44599916 .030258179 .44599916 .055267335 .44599916 .06427002 .44898988 .08627319 .45399476 .106277469L.522995 .38237C.5269928 .39637757 .5269928 .39837647 .5269928 .4033661 .5269928 .42137147 .5130005 .43138124 .49798585 .43138124 .46598817 .43138124 .45799256 .40037538 .45599366 .39137269L.3849945 .104278568C.37799073 .07727051 .33699037 .014251709 .2769928 .014251709 .22599793 .014251709 .22200012 .06626892 .22200012 .091278079 .22200012 .14428711 .24499512 .21331787 .2789917 .30633546 .28799439 .3293457 .2919922 .3403473 .2919922 .36036683 .2919922 .40937806 .2579956 .4423828 .21299744 .4423828 .117996219 .4423828 .08099365 .29733277 .08099365 .28833009 .08099365 .27633668 .09298706 .27633668 .09799194 .27633668 .11199951 .27633668 .11299133 .28134156 .116989139 .29333497 .12399292 .3193512 .15098572 .41737367 .20999146 .41737367 .21998596 .41737367 .23098755 .41537477 .23098755 .38937379 .23098755 .36436463 .21998596 .3343506 .21299744 .31533814 .16699219 .19230652 .15699768 .1512909 .15699768 .107284549 .15699768 .009246826 .22799683-.0107421879 .27398683-.0107421879 .31599427-.0107421879 .35299684 .008255005 .3869934 .04925537 .4019928 .0052490236 .43798829-.0107421879 .47099305-.0107421879 .5169983-.0107421879 .5379944 .029251099 .54599 .04626465 .56399539 .08326721 .57699587 .1402893 .57699587 .14329529Z"/>
<path id="font_1_105" d="M.3659973 .14405823C.3659973 .1550293 .35299684 .1550293 .34999085 .1550293 .33699037 .1550293 .33599855 .15203858 .32998658 .13806153 .3019867 .06816101 .2599945 .014251709 .21199036 .014251709 .20098877 .014251709 .18399048 .01625061 .18399048 .05519104 .18399048 .06417847 .18699646 .086135867 .19198609 .10610962L.2649994 .3996582H.35099793C.36799623 .3996582 .3789978 .3996582 .3789978 .41766358 .3789978 .43066407 .36898805 .43066407 .35299684 .43066407H.272995L.30999757 .5778961C.31399537 .59191897 .31399537 .59391787 .31399537 .59791567 .31399537 .61494448 .30099488 .62597659 .2849884 .62597659 .2579956 .62597659 .24699402 .6039276 .24299622 .5868988L.20399475 .43066407H.11898804C.101989749 .43066407 .09098816 .43066407 .09098816 .4126587 .09098816 .3996582 .100997928 .3996582 .116989139 .3996582H.19599915L.125 .114089969C.125 .114089969 .11999512 .09512329 .11999512 .08015442 .11999512 .035217287 .15098572-.0107421879 .20999146-.0107421879 .31098939-.0107421879 .3659973 .13406372 .3659973 .14405823Z"/>
<path id="font_1_28" d="M.54100039 .14329529C.54100039 .1552887 .5279999 .1552887 .5239868 .1552887 .5089874 .1552887 .5079956 .1512909 .5039978 .1322937 .4869995 .06626892 .46899415 .014251709 .43598939 .014251709 .4169922 .014251709 .4099884 .030258179 .4099884 .055267335 .4099884 .06427002 .41299439 .08627319 .41799928 .106277469L.4850006 .37435914C.4889984 .3883667 .4889984 .3903656 .4889984 .3943634 .4889984 .41137696 .47599793 .42237855 .45999146 .42237855 .44699098 .42237855 .4249878 .41438294 .4189911 .3863678 .40899659 .40637208 .3829956 .4423828 .33299256 .4423828 .22099304 .4423828 .099990848 .29733277 .099990848 .14628601 .099990848 .044265748 .15899658-.0107421879 .22499085-.0107421879 .2849884-.0107421879 .32899476 .037261964 .34799195 .058258058 .35899354 .014251709 .3939972-.0107421879 .43499757-.0107421879 .48098756-.0107421879 .5019989 .029251099 .5099945 .04626465 .5279999 .08326721 .54100039 .1402893 .54100039 .14329529M.35398866 .12528992C.34498597 .091278079 .28199769 .014251709 .22799683 .014251709 .17298889 .014251709 .16999817 .088272098 .16999817 .103271488 .16999817 .15429688 .19999695 .264328 .21499634 .30233766 .24099732 .36535646 .2889862 .41737367 .33299256 .41737367 .3939972 .41737367 .40299989 .3333435 .40299989 .32635499 .40299989 .3213501 .40299989 .32034303 .3999939 .3103485L.35398866 .12528992Z"/>
<path id="font_1_112" d="M.5029907 .3733673C.5029907 .42938233 .47599793 .4423828 .45999146 .4423828 .43899537 .4423828 .4119873 .42137147 .4119873 .39637757 .4119873 .3863678 .4139862 .38136292 .42199708 .37236024 .43299867 .35935975 .45199586 .33735658 .45199586 .29034425 .45199586 .2603302 .4039917 .014251709 .2889862 .014251709 .22799683 .014251709 .22299195 .0712738 .22299195 .09727478 .22299195 .14529419 .24398804 .21131897 .2789917 .30734254 .28799439 .3293457 .2919922 .3403473 .2919922 .36036683 .2919922 .40937806 .2579956 .4423828 .21299744 .4423828 .117996219 .4423828 .08099365 .29733277 .08099365 .28833009 .08099365 .27633668 .09298706 .27633668 .09799194 .27633668 .11199951 .27633668 .11299133 .28134156 .116989139 .29333497 .12399292 .3193512 .15098572 .41737367 .20999146 .41737367 .21998596 .41737367 .23098755 .41537477 .23098755 .38937379 .23098755 .36436463 .21998596 .3343506 .21299744 .31533814 .1579895 .16729737 .1579895 .14329529 .1579895 .11227417 .1579895 .09727478 .1579895 .051254274 .19198609 .021255494 .22299195-.0067443849 .2649994-.0107421879 .28599549-.0107421879 .45199586-.0107421879 .5029907 .33035279 .5029907 .3733673Z"/>
<path id="font_1_50" d="M.48199464 .10134888C.47799684 .114364627 .46899415 .12036133 .46299745 .12036133 .45799256 .12036133 .45599366 .11836243 .44898988 .10935974 .3919983 .03627014 .31098939 .014251709 .2649994 .014251709 .19699097 .014251709 .18699646 .09033203 .18699646 .12536621 .18699646 .13337708 .18699646 .16542053 .20298767 .22949219H.23199463C.30699159 .22949219 .35899354 .2374878 .394989 .2514801 .46499635 .27946473 .47399903 .33543397 .47399903 .3564148 .47399903 .40138246 .43598939 .4423828 .36799623 .4423828 .2659912 .4423828 .115997318 .3484192 .115997318 .16741944 .115997318 .05529785 .1789856-.0107421879 .2639923-.0107421879 .35598756-.0107421879 .44400025 .039276124 .48199464 .10134888M.43299867 .35742188C.43299867 .25448609 .27398683 .25448609 .20899964 .25448609 .25498963 .41438294 .35398866 .41737367 .36799623 .41737367 .4119873 .41737367 .43299867 .38739015 .43299867 .35742188Z"/>
<path id="font_1_114" d="M.71299746 .3733673C.71299746 .42938233 .6859894 .4423828 .66999819 .4423828 .6489868 .4423828 .621994 .42137147 .621994 .39637757 .621994 .3863678 .6239929 .38136292 .6319885 .37236024 .6429901 .35935975 .6619873 .33735658 .6619873 .29034425 .6619873 .2513275 .6289978 .1402893 .6139984 .106277469 .59999087 .07426453 .57099917 .014251709 .5119934 .014251709 .44898988 .014251709 .44599916 .07527161 .44599916 .09727478 .44599916 .12628174 .45298768 .15429688 .45999146 .18130493L.49899293 .33735658C.5039978 .35935975 .5139923 .39736939 .5139923 .4033661 .5139923 .42137147 .5 .43138124 .4850006 .43138124 .46899415 .43138124 .45098878 .42337037 .44400025 .3943634L.3889923 .17530823C.3880005 .17030335 .3809967 .14228821 .3809967 .11727905 .3809967 .09727478 .37298585 .07727051 .35398866 .05026245 .33699037 .026260376 .31799317 .014251709 .29599 .014251709 .22399903 .014251709 .22399903 .08427429 .22399903 .10127258 .22399903 .14628601 .23899842 .1973114 .27799989 .30433656 .28799439 .33035279 .2919922 .3403473 .2919922 .36036683 .2919922 .40937806 .2579956 .4423828 .21299744 .4423828 .117996219 .4423828 .08099365 .29733277 .08099365 .28833009 .08099365 .27633668 .09298706 .27633668 .09799194 .27633668 .11199951 .27633668 .11299133 .28134156 .116989139 .29333497 .12399292 .3193512 .15098572 .41737367 .20999146 .41737367 .21998596 .41737367 .23098755 .41537477 .23098755 .38937379 .23098755 .36436463 .21998596 .3343506 .21299744 .31533814 .16799927 .19430542 .1579895 .15429688 .1579895 .11428833 .1579895 .007247925 .24499512-.0107421879 .29299928-.0107421879 .33299256-.0107421879 .3659973 .009246826 .3919983 .052261354 .4189911-.002746582 .47799684-.0107421879 .5089874-.0107421879 .58599856-.0107421879 .6259918 .057266237 .644989 .103271488 .6759949 .17530823 .71299746 .3173523 .71299746 .3733673Z"/>
<path id="font_1_63" d="M.5509949 .14329529C.5509949 .1552887 .5379944 .1552887 .5339966 .1552887 .519989 .1552887 .5189972 .15229798 .5130005 .13128662 .5029907 .09527588 .47499085 .014251709 .42099 .014251709 .41299439 .014251709 .3999939 .01524353 .3999939 .042251588 .3999939 .06626892 .4119873 .09828186 .41999818 .120285037 .43798829 .16830445 .47898866 .2793274 .47898866 .3363495 .47898866 .4033661 .43899537 .4423828 .36898805 .4423828 .31399537 .4423828 .269989 .41737367 .23498535 .3803711L.30499269 .66230776C.30799867 .67630007 .30899049 .6773071 .30899049 .68029788 .30899049 .69329836 .2999878 .6953125 .2829895 .69329836L.1789856 .6843109C.1639862 .68330386 .1539917 .682312 .1539917 .66529849 .1539917 .652298 .1639862 .652298 .18099976 .652298 .22799683 .652298 .22799683 .64430239 .22799683 .63531497 .22799683 .63531497 .22799683 .62831118 .22399903 .61331179L.07998657 .037261964C.07598877 .023254395 .07598877 .021255494 .07598877 .01725769 .07598877 .002243042 .08699036-.0107421879 .10598755-.0107421879 .13699341-.0107421879 .14299011 .014251709 .1499939 .044265748 .1619873 .08728027 .1619873 .089279178 .17199707 .13027954L.20399475 .2603302C.21499634 .30134584 .23498535 .33935548 .2649994 .3693695 .27999879 .3843689 .31298829 .41737367 .36698915 .41737367 .40499879 .41737367 .4139862 .3843689 .4139862 .35235597 .4139862 .29434205 .37098695 .17630005 .35398866 .13128662 .34199525 .09828186 .33999635 .0922699 .33999635 .0712738 .33999635 .01725769 .37799073-.0107421879 .4189911-.0107421879 .5139923-.0107421879 .5509949 .1362915 .5509949 .14329529Z"/>
<path id="font_1_65" d="M.34098817 .017990113C.34098817 .0309906 .32998658 .0309906 .31399537 .0309906 .2519989 .0309906 .2519989 .037994386 .2519989 .048980714 .2519989 .052978517 .2519989 .054977418 .2559967 .06896973L.3909912 .6096344C.39898683 .6416168 .40299989 .6516113 .47499085 .6516113 .49398805 .6516113 .5039978 .6516113 .5039978 .6696167 .5039978 .6786041 .49699403 .6826172 .4889984 .6826172 .44999696 .6826172 .4079895 .6796112 .36799623 .6796112 .32699586 .6796112 .2849884 .6826172 .24499512 .6826172 .23999024 .6826172 .22599793 .6826172 .22599793 .6646118 .22599793 .6516113 .23599243 .6516113 .2519989 .6516113 .2869873 .6516113 .31498719 .6516113 .31498719 .63461306 .31498719 .63461306 .31498719 .6276245 .31098939 .6126251L.17599488 .07296753C.16799927 .039993287 .16099549 .0309906 .09498596 .0309906 .07299805 .0309906 .06298828 .0309906 .06298828 .0129852299 .06298828 .009994507 .06399536 0 .07699585 0 .115997318 0 .15899658 .0029907227 .19898987 .0029907227 .23999024 .0029907227 .28199769 0 .32199098 0 .32798768 0 .34098817 0 .34098817 .017990113Z"/>
<path id="font_1_47" d="M.5509949 .14329529C.5509949 .1552887 .5379944 .1552887 .5339966 .1552887 .5189972 .1552887 .5179901 .1512909 .5139923 .1322937 .49699403 .06626892 .47898866 .014251709 .44599916 .014251709 .4269867 .014251709 .41999818 .030258179 .41999818 .055267335 .41999818 .06427002 .4229889 .08627319 .42799378 .106277469L.5669861 .66230776C.56999209 .6753082 .57099917 .6773071 .57099917 .68029788 .57099917 .69329836 .56199648 .6953125 .54499819 .69329836L.44099427 .6843109C.42599488 .68330386 .41600038 .682312 .41600038 .66529849 .41600038 .652298 .42599488 .652298 .44299317 .652298 .48999024 .652298 .48999024 .64430239 .48999024 .63531497 .48999024 .62931826 .48999024 .62731936 .48599244 .61331179L.42900086 .3863678C.4189911 .40637208 .3929901 .4423828 .34298707 .4423828 .23098755 .4423828 .10998535 .29733277 .10998535 .14628601 .10998535 .044265748 .16899109-.0107421879 .23498535-.0107421879 .29499818-.0107421879 .33898927 .037261964 .35798646 .058258058 .36898805 .014251709 .4039917-.0107421879 .44499208-.0107421879 .4909973-.0107421879 .5119934 .029251099 .519989 .04626465 .5379944 .08326721 .5509949 .1402893 .5509949 .14329529M.3639984 .12528992C.35499574 .091278079 .2919922 .014251709 .23799134 .014251709 .18299866 .014251709 .17999268 .088272098 .17999268 .103271488 .17999268 .15429688 .20999146 .264328 .22499085 .30233766 .25099183 .36535646 .29899598 .41737367 .34298707 .41737367 .4039917 .41737367 .41299439 .3333435 .41299439 .32635499 .41299439 .3213501 .41299439 .32034303 .4099884 .3103485L.3639984 .12528992Z"/>
<path id="font_1_118" d="M.42599488-.003753662 .5219879 .38237C.526001 .39736939 .526001 .3993683 .526001 .4033661 .526001 .42137147 .5119934 .43138124 .49699403 .43138124 .47999574 .43138124 .46299745 .42237855 .45599366 .3943634L.3829956 .104278568C.37298585 .06326294 .32798768 .014251709 .2769928 .014251709 .22698975 .014251709 .22200012 .06427002 .22200012 .091278079 .22200012 .14428711 .24499512 .21331787 .2789917 .30633546 .28799439 .3293457 .2919922 .3403473 .2919922 .36036683 .2919922 .40937806 .2579956 .4423828 .21299744 .4423828 .117996219 .4423828 .08099365 .29733277 .08099365 .28833009 .08099365 .27633668 .09298706 .27633668 .09799194 .27633668 .11199951 .27633668 .11299133 .28134156 .116989139 .29333497 .12399292 .3193512 .15098572 .41737367 .20999146 .41737367 .21998596 .41737367 .23098755 .41537477 .23098755 .38937379 .23098755 .36436463 .21998596 .3343506 .21299744 .31533814 .16699219 .19230652 .15699768 .1512909 .15699768 .107284549 .15699768 .0012512207 .23999024-.0107421879 .272995-.0107421879 .2919922-.0107421879 .32699586-.007751465 .36299134 .024246216 .32998658-.12471008 .25698854-.1796875 .20098877-.1796875 .17399597-.1796875 .14698792-.16569519 .13899231-.13670349 .18598938-.13171387 .18699646-.09172058 .18699646-.08872986 .18699646-.068725589 .17098999-.056732179 .15299988-.056732179 .13598633-.056732179 .102996829-.067733768 .102996829-.11772156 .102996829-.17070008 .14498902-.20469666 .20098877-.20469666 .31098939-.20469666 .40299989-.096725467 .42599488-.003753662Z"/>
<path id="font_1_96" d="M.49899293 .3773651C.49899293 .41937257 .45199586 .4423828 .397995 .4423828 .33799745 .4423828 .2979889 .40637208 .27398683 .37236024 .2630005 .41737367 .22799683 .4423828 .18699646 .4423828 .1539917 .4423828 .1289978 .42237855 .11099243 .3843689 .09498596 .34934999 .08099365 .29333497 .08099365 .28933717 .08099365 .27633668 .09199524 .27633668 .09799194 .27633668 .11299133 .27633668 .11299133 .28033448 .117996219 .30033876 .13798523 .38035584 .15699768 .41737367 .18499756 .41737367 .20098877 .41737367 .21099854 .40837098 .21099854 .3773651 .21099854 .35635377 .20498657 .33035279 .20399475 .32633973L.13198853 .038269044C.12799073 .024261475 .12799073 .022262574 .12799073 .01725769 .12799073-.00074768069 .14199829-.0107421879 .15699768-.0107421879 .17098999-.0107421879 .18998719-.0047454836 .19799805 .026260376L.2630005 .28733827C.2649994 .29434205 .30899049 .41737367 .3959961 .41737367 .4019928 .41737367 .42999269 .41737367 .45098878 .40237428 .42099 .3923645 .41600038 .36836244 .41600038 .35635377 .41600038 .3363495 .43099977 .32434083 .44999696 .32434083 .47599793 .32434083 .49899293 .34635926 .49899293 .3773651Z"/>
<path id="font_1_72" d="M.28799439 .14326477C.28799439 .15525818 .2749939 .15525818 .2709961 .15525818 .2559967 .15525818 .25498963 .15126038 .25099183 .13226319 .22799683 .040252687 .20899964 .014251709 .18399048 .014251709 .16499329 .014251709 .1579895 .030258179 .1579895 .055252077 .1579895 .06425476 .16099549 .086257938 .1659851 .10626221L.30499269 .66230776C.30799867 .6753082 .30899049 .6773071 .30899049 .68029788 .30899049 .69329836 .2999878 .6953125 .2829895 .69329836L.1789856 .6843109C.1639862 .68330386 .1539917 .682312 .1539917 .66529849 .1539917 .652298 .1639862 .652298 .18099976 .652298 .22799683 .652298 .22799683 .64430239 .22799683 .6352997 .22799683 .6352997 .22799683 .62831118 .22399903 .61331179L.09899902 .11425781C.09899902 .11425781 .09399414 .09526062 .09399414 .08026123 .09399414 .03225708 .12799073-.0107421879 .18299866-.0107421879 .22799683-.0107421879 .24798584 .026245118 .25698854 .04525757 .2749939 .08125305 .28799439 .14025879 .28799439 .14326477Z"/>
<path id="font_1_46" d="M.79299929 .43574525C.79299929 .5676575 .71699526 .6826172 .57499697 .6826172H.25898744C.24198914 .6826172 .23098755 .6826172 .23098755 .6646118 .23098755 .6516113 .24198914 .6516113 .2579956 .6516113 .31599427 .6516113 .31599427 .64460757 .31599427 .63461306 .31599427 .63061526 .31599427 .62861636 .31199647 .614624L.1769867 .07296753C.16799927 .037994386 .1619873 .0309906 .09498596 .0309906 .07899475 .0309906 .067993167 .0309906 .067993167 .0129852299 .067993167 0 .07899475 0 .09498596 0H.40499879C.59999087 0 .79299929 .21287537 .79299929 .43574525M.71099856 .4717102C.71099856 .41775514 .6839905 .2508545 .6139984 .1539154 .5609894 .080963138 .47999574 .0309906 .3880005 .0309906H.2769928C.2599945 .0309906 .2579956 .0309906 .24798584 .033996583 .24798584 .04399109 .24798584 .048980714 .2519989 .06297302L.3899994 .6156311C.39898683 .6516113 .40699769 .6516113 .43798829 .6516113H.54299929C.644989 .6516113 .71099856 .5856476 .71099856 .4717102Z"/>
<path id="font_1_54" d="M.7220001 .47798158 .7449951 .66567996C.7449951 .6796875 .73399356 .6796875 .71798709 .6796875H.25698854C.24099732 .6796875 .22898865 .6796875 .22898865 .6616821 .22898865 .64868167 .23899842 .64868167 .25498963 .64868167 .31298829 .64868167 .31298829 .64268496 .31298829 .63171389 .31298829 .62771609 .31298829 .62571719 .30899049 .6107483L.1749878 .073013309C.1659851 .037994386 .1599884 .0309906 .09298706 .0309906 .07699585 .0309906 .06599426 .0309906 .06599426 .0129852299 .06599426 .0039978029 .07299805 0 .08099365 0 .11999512 0 .16299439 .0029907227 .20298767 .0029907227 .24798584 .0029907227 .29499818 0 .33898927 0 .34599305 0 .35899354 0 .35899354 .017990113 .35899354 .0309906 .34799195 .0309906 .33198548 .0309906H.32398988C.2519989 .0309906 .2519989 .039001466 .2519989 .052001954 .2519989 .057006837 .2519989 .059005739 .2559967 .074020389L.31900025 .3251953H.4079895C.47698976 .3251953 .48199464 .30917359 .48199464 .28315736 .48199464 .26914979 .47799684 .25013734 .47499085 .23612976 .47399903 .23213196 .47200013 .2241211 .47200013 .22111511 .47200013 .20811463 .48399354 .20811463 .48799134 .20811463 .5019989 .20811463 .5029907 .21211243 .5069885 .2281189L.56199648 .44703675C.5629883 .45202638 .5649872 .457016 .5649872 .4600067 .5649872 .47299195 .5519867 .47299195 .5479889 .47299195 .5339966 .47299195 .5329895 .46899415 .5269928 .44802857 .5089874 .3751526 .4850006 .3561859 .4099884 .3561859H.32699586L.3909912 .6147461C.39898683 .64868167 .40699769 .64868167 .43899537 .64868167H.5629883C.68299868 .64868167 .69299319 .60775759 .69299319 .54585269 .69299319 .5398712 .69299319 .51490786 .6879883 .4819641L.68699648 .46998597C.68699648 .4550171 .69799807 .4550171 .70399478 .4550171 .71899417 .4550171 .7200012 .4610138 .7220001 .47798158Z"/>
</defs>
<use data-text="R" xlink:href="#font_1_95" transform="matrix(8.9664,0,0,-8.967117,60.681,8.04361)"/>
<use data-text="i" xlink:href="#font_1_66" transform="matrix(8.9664,0,0,-8.967117,67.17267,8.04361)"/>
<use data-text="n" xlink:href="#font_1_77" transform="matrix(8.9664,0,0,-8.967117,69.997089,8.04361)"/>
<use data-text="g" xlink:href="#font_1_59" transform="matrix(8.9664,0,0,-8.967117,75.1707,8.04361)"/>
<use data-text="s" xlink:href="#font_1_98" transform="matrix(8.9664,0,0,-8.967117,79.40285,8.04361)"/>
<use data-text="C" xlink:href="#font_1_42" transform="matrix(8.9664,0,0,-8.967117,-.14300537,47.524766)"/>
<use data-text="o" xlink:href="#font_1_81" transform="matrix(8.9664,0,0,-8.967117,6.447296,47.524766)"/>
<use data-text="m" xlink:href="#font_1_75" transform="matrix(8.9664,0,0,-8.967117,11.154663,47.524766)"/>
<use data-text="m" xlink:href="#font_1_75" transform="matrix(8.9664,0,0,-8.967117,18.686432,47.524766)"/>
<use data-text="u" xlink:href="#font_1_109" transform="matrix(8.9664,0,0,-8.967117,26.2182,47.524766)"/>
<use data-text="t" xlink:href="#font_1_105" transform="matrix(8.9664,0,0,-8.967117,31.158692,47.524766)"/>
<use data-text="a" xlink:href="#font_1_28" transform="matrix(8.9664,0,0,-8.967117,34.216234,47.524766)"/>
<use data-text="t" xlink:href="#font_1_105" transform="matrix(8.9664,0,0,-8.967117,38.9236,47.524766)"/>
<use data-text="i" xlink:href="#font_1_66" transform="matrix(8.9664,0,0,-8.967117,41.98114,47.524766)"/>
<use data-text="v" xlink:href="#font_1_112" transform="matrix(8.9664,0,0,-8.967117,44.805559,47.524766)"/>
<use data-text="e" xlink:href="#font_1_50" transform="matrix(8.9664,0,0,-8.967117,49.037706,47.524766)"/>
<use data-text="R" xlink:href="#font_1_95" transform="matrix(8.9664,0,0,-8.967117,15.32399,59.480718)"/>
<use data-text="i" xlink:href="#font_1_66" transform="matrix(8.9664,0,0,-8.967117,21.806702,59.480718)"/>
<use data-text="n" xlink:href="#font_1_77" transform="matrix(8.9664,0,0,-8.967117,24.631119,59.480718)"/>
<use data-text="g" xlink:href="#font_1_59" transform="matrix(8.9664,0,0,-8.967117,29.804734,59.480718)"/>
<use data-text="s" xlink:href="#font_1_98" transform="matrix(8.9664,0,0,-8.967117,34.03688,59.480718)"/>
<use data-text="R" xlink:href="#font_1_95" transform="matrix(8.9664,0,0,-8.967117,96.026,47.479764)"/>
<use data-text="i" xlink:href="#font_1_66" transform="matrix(8.9664,0,0,-8.967117,102.51767,47.479764)"/>
<use data-text="n" xlink:href="#font_1_77" transform="matrix(8.9664,0,0,-8.967117,105.34209,47.479764)"/>
<use data-text="g" xlink:href="#font_1_59" transform="matrix(8.9664,0,0,-8.967117,110.5157,47.479764)"/>
<use data-text="s" xlink:href="#font_1_98" transform="matrix(8.9664,0,0,-8.967117,114.74785,47.479764)"/>
<use data-text="w" xlink:href="#font_1_114" transform="matrix(8.9664,0,0,-8.967117,121.82234,47.479764)"/>
<use data-text="i" xlink:href="#font_1_66" transform="matrix(8.9664,0,0,-8.967117,127.93742,47.479764)"/>
<use data-text="t" xlink:href="#font_1_105" transform="matrix(8.9664,0,0,-8.967117,130.76184,47.479764)"/>
<use data-text="h" xlink:href="#font_1_63" transform="matrix(8.9664,0,0,-8.967117,133.81938,47.479764)"/>
<use data-text="I" xlink:href="#font_1_65" transform="matrix(8.9664,0,0,-8.967117,101.744,59.435716)"/>
<use data-text="d" xlink:href="#font_1_47" transform="matrix(8.9664,0,0,-8.967117,105.29469,59.435716)"/>
<use data-text="e" xlink:href="#font_1_50" transform="matrix(8.9664,0,0,-8.967117,110.00206,59.435716)"/>
<use data-text="n" xlink:href="#font_1_77" transform="matrix(8.9664,0,0,-8.967117,114.23421,59.435716)"/>
<use data-text="t" xlink:href="#font_1_105" transform="matrix(8.9664,0,0,-8.967117,119.40782,59.435716)"/>
<use data-text="i" xlink:href="#font_1_66" transform="matrix(8.9664,0,0,-8.967117,122.46536,59.435716)"/>
<use data-text="t" xlink:href="#font_1_105" transform="matrix(8.9664,0,0,-8.967117,125.28978,59.435716)"/>
<use data-text="y" xlink:href="#font_1_118" transform="matrix(8.9664,0,0,-8.967117,128.34732,59.435716)"/>
<use data-text="I" xlink:href="#font_1_65" transform="matrix(8.9664,0,0,-8.967117,11.436005,93.71146)"/>
<use data-text="n" xlink:href="#font_1_77" transform="matrix(8.9664,0,0,-8.967117,14.986694,93.71146)"/>
<use data-text="t" xlink:href="#font_1_105" transform="matrix(8.9664,0,0,-8.967117,20.160309,93.71146)"/>
<use data-text="e" xlink:href="#font_1_50" transform="matrix(8.9664,0,0,-8.967117,23.21785,93.71146)"/>
<use data-text="g" xlink:href="#font_1_59" transform="matrix(8.9664,0,0,-8.967117,26.992707,93.71146)"/>
<use data-text="r" xlink:href="#font_1_96" transform="matrix(8.9664,0,0,-8.967117,31.224854,93.71146)"/>
<use data-text="a" xlink:href="#font_1_28" transform="matrix(8.9664,0,0,-8.967117,34.641054,93.71146)"/>
<use data-text="l" xlink:href="#font_1_72" transform="matrix(8.9664,0,0,-8.967117,39.34842,93.71146)"/>
<use data-text="D" xlink:href="#font_1_46" transform="matrix(8.9664,0,0,-8.967117,8.733002,105.66741)"/>
<use data-text="o" xlink:href="#font_1_81" transform="matrix(8.9664,0,0,-8.967117,15.681961,105.66741)"/>
<use data-text="m" xlink:href="#font_1_75" transform="matrix(8.9664,0,0,-8.967117,20.389328,105.66741)"/>
<use data-text="a" xlink:href="#font_1_28" transform="matrix(8.9664,0,0,-8.967117,27.921097,105.66741)"/>
<use data-text="i" xlink:href="#font_1_66" transform="matrix(8.9664,0,0,-8.967117,32.628465,105.66741)"/>
<use data-text="n" xlink:href="#font_1_77" transform="matrix(8.9664,0,0,-8.967117,35.45288,105.66741)"/>
<use data-text="s" xlink:href="#font_1_98" transform="matrix(8.9664,0,0,-8.967117,40.626497,105.66741)"/>
<use data-text="D" xlink:href="#font_1_46" transform="matrix(8.9664,0,0,-8.967117,100.627,92.787387)"/>
<use data-text="i" xlink:href="#font_1_66" transform="matrix(8.9664,0,0,-8.967117,107.57596,92.787387)"/>
<use data-text="v" xlink:href="#font_1_112" transform="matrix(8.9664,0,0,-8.967117,110.400379,92.787387)"/>
<use data-text="i" xlink:href="#font_1_66" transform="matrix(8.9664,0,0,-8.967117,114.63252,92.787387)"/>
<use data-text="s" xlink:href="#font_1_98" transform="matrix(8.9664,0,0,-8.967117,117.45694,92.787387)"/>
<use data-text="i" xlink:href="#font_1_66" transform="matrix(8.9664,0,0,-8.967117,121.222827,92.787387)"/>
<use data-text="o" xlink:href="#font_1_81" transform="matrix(8.9664,0,0,-8.967117,124.04724,92.787387)"/>
<use data-text="n" xlink:href="#font_1_77" transform="matrix(8.9664,0,0,-8.967117,128.75461,92.787387)"/>
<use data-text="R" xlink:href="#font_1_95" transform="matrix(8.9664,0,0,-8.967117,106.037998,104.74334)"/>
<use data-text="i" xlink:href="#font_1_66" transform="matrix(8.9664,0,0,-8.967117,112.520709,104.74334)"/>
<use data-text="n" xlink:href="#font_1_77" transform="matrix(8.9664,0,0,-8.967117,115.34512,104.74334)"/>
<use data-text="g" xlink:href="#font_1_59" transform="matrix(8.9664,0,0,-8.967117,120.51874,104.74334)"/>
<use data-text="s" xlink:href="#font_1_98" transform="matrix(8.9664,0,0,-8.967117,124.750888,104.74334)"/>
<use data-text="F" xlink:href="#font_1_54" transform="matrix(8.9664,0,0,-8.967117,59.976999,145.05057)"/>
<use data-text="i" xlink:href="#font_1_66" transform="matrix(8.9664,0,0,-8.967117,65.98449,145.05057)"/>
<use data-text="e" xlink:href="#font_1_50" transform="matrix(8.9664,0,0,-8.967117,68.80891,145.05057)"/>
<use data-text="l" xlink:href="#font_1_72" transform="matrix(8.9664,0,0,-8.967117,73.04105,145.05057)"/>
<use data-text="d" xlink:href="#font_1_47" transform="matrix(8.9664,0,0,-8.967117,75.39025,145.05057)"/>
<use data-text="s" xlink:href="#font_1_98" transform="matrix(8.9664,0,0,-8.967117,80.09762,145.05057)"/>
<path transform="matrix(1,0,0,-1.00008,71.92,73.94188)" stroke-width=".3985" stroke-linecap="butt" stroke-miterlimit="10" stroke-linejoin="miter" fill="none" stroke="#000000" d="M-7.97023 60.06592-45.35742 34.63406"/>
<path transform="matrix(1,0,0,-1.00008,71.92,73.94188)" stroke-width=".3985" stroke-linecap="butt" stroke-miterlimit="10" stroke-linejoin="miter" fill="none" stroke="#000000" d="M7.97023 60.06592 45.35742 34.63406"/>
<path transform="matrix(1,0,0,-1.00008,71.92,73.94188)" stroke-width=".3985" stroke-linecap="butt" stroke-miterlimit="10" stroke-linejoin="miter" fill="none" stroke="#000000" d="M-45.35742 10.72333V-10.72333"/>
<path transform="matrix(1,0,0,-1.00008,71.92,73.94188)" stroke-width=".3985" stroke-linecap="butt" stroke-miterlimit="10" stroke-linejoin="miter" fill="none" stroke="#000000" d="M21.44669 22.6787-21.44669-22.6787"/>
<path transform="matrix(1,0,0,-1.00008,71.92,73.94188)" stroke-width=".3985" stroke-linecap="butt" stroke-miterlimit="10" stroke-linejoin="miter" fill="none" stroke="#000000" d="M45.35742 10.72333V-10.72333"/>
<path transform="matrix(1,0,0,-1.00008,71.92,73.94188)" stroke-width=".3985" stroke-linecap="butt" stroke-miterlimit="10" stroke-linejoin="miter" fill="none" stroke="#000000" d="M-45.35742-38.61919-7.97023-60.06592"/>
<path transform="matrix(1,0,0,-1.00008,71.92,73.94188)" stroke-width=".3985" stroke-linecap="butt" stroke-miterlimit="10" stroke-linejoin="miter" fill="none" stroke="#000000" d="M45.35742-38.61919 7.97023-60.06592"/>
</svg>
