<?xml version="1.0" encoding="utf-8" standalone="no"?>
<!DOCTYPE svg PUBLIC "-//W3C//DTD SVG 1.1//EN"
  "http://www.w3.org/Graphics/SVG/1.1/DTD/svg11.dtd">
<svg xmlns:xlink="http://www.w3.org/1999/xlink" width="452.562525pt" height="336.418125pt" viewBox="0 0 452.562525 336.418125" xmlns="http://www.w3.org/2000/svg" version="1.1">
 <metadata>
  <rdf:RDF xmlns:dc="http://purl.org/dc/elements/1.1/" xmlns:cc="http://creativecommons.org/ns#" xmlns:rdf="http://www.w3.org/1999/02/22-rdf-syntax-ns#">
   <cc:Work>
    <dc:type rdf:resource="http://purl.org/dc/dcmitype/StillImage"/>
    <dc:date>2023-10-16T22:01:50.071991</dc:date>
    <dc:format>image/svg+xml</dc:format>
    <dc:creator>
     <cc:Agent>
      <dc:title>Matplotlib v3.6.2, https://matplotlib.org/</dc:title>
     </cc:Agent>
    </dc:creator>
   </cc:Work>
  </rdf:RDF>
 </metadata>
 <defs>
  <style type="text/css">*{stroke-linejoin: round; stroke-linecap: butt}</style>
 </defs>
 <g id="figure_1">
  <g id="patch_1">
   <path d="M 0 336.418125 
L 452.562525 336.418125 
L 452.562525 0 
L 0 0 
z
" style="fill: #ffffff"/>
  </g>
  <g id="axes_1">
   <g id="patch_2">
    <path d="M 33.418382 302.54 
L 433.902525 302.54 
L 433.902525 23.7 
L 33.418382 23.7 
z
" style="fill: #ffffff"/>
   </g>
   <g id="matplotlib.axis_1">
    <g id="xtick_1">
     <g id="line2d_1">
      <defs>
       <path id="m45cd2c723b" d="M 0 0 
L 0 3.5 
" style="stroke: #000000; stroke-width: 0.8"/>
      </defs>
      <g>
       <use xlink:href="#m45cd2c723b" x="41.12" y="312.54" style="stroke: #000000; stroke-width: 0.8"/>
      </g>
     </g>
     <g id="text_1">
      <!-- 0 -->
      <g transform="translate(37.93875 327.138437) scale(0.1 -0.1)">
       <defs>
        <path id="DejaVuSans-30" d="M 2034 4250 
Q 1547 4250 1301 3770 
Q 1056 3291 1056 2328 
Q 1056 1369 1301 889 
Q 1547 409 2034 409 
Q 2525 409 2770 889 
Q 3016 1369 3016 2328 
Q 3016 3291 2770 3770 
Q 2525 4250 2034 4250 
z
M 2034 4750 
Q 2819 4750 3233 4129 
Q 3647 3509 3647 2328 
Q 3647 1150 3233 529 
Q 2819 -91 2034 -91 
Q 1250 -91 836 529 
Q 422 1150 422 2328 
Q 422 3509 836 4129 
Q 1250 4750 2034 4750 
z
" transform="scale(0.015625)"/>
       </defs>
       <use xlink:href="#DejaVuSans-30"/>
      </g>
     </g>
    </g>
    <g id="xtick_2">
     <g id="line2d_2">
      <g>
       <use xlink:href="#m45cd2c723b" x="118.136181" y="312.54" style="stroke: #000000; stroke-width: 0.8"/>
      </g>
     </g>
     <g id="text_2">
      <!-- 20 -->
      <g transform="translate(111.773681 327.138437) scale(0.1 -0.1)">
       <defs>
        <path id="DejaVuSans-32" d="M 1228 531 
L 3431 531 
L 3431 0 
L 469 0 
L 469 531 
Q 828 903 1448 1529 
Q 2069 2156 2228 2338 
Q 2531 2678 2651 2914 
Q 2772 3150 2772 3378 
Q 2772 3750 2511 3984 
Q 2250 4219 1831 4219 
Q 1534 4219 1204 4116 
Q 875 4013 500 3803 
L 500 4441 
Q 881 4594 1212 4672 
Q 1544 4750 1819 4750 
Q 2544 4750 2975 4387 
Q 3406 4025 3406 3419 
Q 3406 3131 3298 2873 
Q 3191 2616 2906 2266 
Q 2828 2175 2409 1742 
Q 1991 1309 1228 531 
z
" transform="scale(0.015625)"/>
       </defs>
       <use xlink:href="#DejaVuSans-32"/>
       <use xlink:href="#DejaVuSans-30" x="63.623047"/>
      </g>
     </g>
    </g>
    <g id="xtick_3">
     <g id="line2d_3">
      <g>
       <use xlink:href="#m45cd2c723b" x="195.152363" y="312.54" style="stroke: #000000; stroke-width: 0.8"/>
      </g>
     </g>
     <g id="text_3">
      <!-- 40 -->
      <g transform="translate(188.789863 327.138437) scale(0.1 -0.1)">
       <defs>
        <path id="DejaVuSans-34" d="M 2419 4116 
L 825 1625 
L 2419 1625 
L 2419 4116 
z
M 2253 4666 
L 3047 4666 
L 3047 1625 
L 3713 1625 
L 3713 1100 
L 3047 1100 
L 3047 0 
L 2419 0 
L 2419 1100 
L 313 1100 
L 313 1709 
L 2253 4666 
z
" transform="scale(0.015625)"/>
       </defs>
       <use xlink:href="#DejaVuSans-34"/>
       <use xlink:href="#DejaVuSans-30" x="63.623047"/>
      </g>
     </g>
    </g>
    <g id="xtick_4">
     <g id="line2d_4">
      <g>
       <use xlink:href="#m45cd2c723b" x="272.168544" y="312.54" style="stroke: #000000; stroke-width: 0.8"/>
      </g>
     </g>
     <g id="text_4">
      <!-- 60 -->
      <g transform="translate(265.806044 327.138437) scale(0.1 -0.1)">
       <defs>
        <path id="DejaVuSans-36" d="M 2113 2584 
Q 1688 2584 1439 2293 
Q 1191 2003 1191 1497 
Q 1191 994 1439 701 
Q 1688 409 2113 409 
Q 2538 409 2786 701 
Q 3034 994 3034 1497 
Q 3034 2003 2786 2293 
Q 2538 2584 2113 2584 
z
M 3366 4563 
L 3366 3988 
Q 3128 4100 2886 4159 
Q 2644 4219 2406 4219 
Q 1781 4219 1451 3797 
Q 1122 3375 1075 2522 
Q 1259 2794 1537 2939 
Q 1816 3084 2150 3084 
Q 2853 3084 3261 2657 
Q 3669 2231 3669 1497 
Q 3669 778 3244 343 
Q 2819 -91 2113 -91 
Q 1303 -91 875 529 
Q 447 1150 447 2328 
Q 447 3434 972 4092 
Q 1497 4750 2381 4750 
Q 2619 4750 2861 4703 
Q 3103 4656 3366 4563 
z
" transform="scale(0.015625)"/>
       </defs>
       <use xlink:href="#DejaVuSans-36"/>
       <use xlink:href="#DejaVuSans-30" x="63.623047"/>
      </g>
     </g>
    </g>
    <g id="xtick_5">
     <g id="line2d_5">
      <g>
       <use xlink:href="#m45cd2c723b" x="349.184725" y="312.54" style="stroke: #000000; stroke-width: 0.8"/>
      </g>
     </g>
     <g id="text_5">
      <!-- 80 -->
      <g transform="translate(342.822225 327.138437) scale(0.1 -0.1)">
       <defs>
        <path id="DejaVuSans-38" d="M 2034 2216 
Q 1584 2216 1326 1975 
Q 1069 1734 1069 1313 
Q 1069 891 1326 650 
Q 1584 409 2034 409 
Q 2484 409 2743 651 
Q 3003 894 3003 1313 
Q 3003 1734 2745 1975 
Q 2488 2216 2034 2216 
z
M 1403 2484 
Q 997 2584 770 2862 
Q 544 3141 544 3541 
Q 544 4100 942 4425 
Q 1341 4750 2034 4750 
Q 2731 4750 3128 4425 
Q 3525 4100 3525 3541 
Q 3525 3141 3298 2862 
Q 3072 2584 2669 2484 
Q 3125 2378 3379 2068 
Q 3634 1759 3634 1313 
Q 3634 634 3220 271 
Q 2806 -91 2034 -91 
Q 1263 -91 848 271 
Q 434 634 434 1313 
Q 434 1759 690 2068 
Q 947 2378 1403 2484 
z
M 1172 3481 
Q 1172 3119 1398 2916 
Q 1625 2713 2034 2713 
Q 2441 2713 2670 2916 
Q 2900 3119 2900 3481 
Q 2900 3844 2670 4047 
Q 2441 4250 2034 4250 
Q 1625 4250 1398 4047 
Q 1172 3844 1172 3481 
z
" transform="scale(0.015625)"/>
       </defs>
       <use xlink:href="#DejaVuSans-38"/>
       <use xlink:href="#DejaVuSans-30" x="63.623047"/>
      </g>
     </g>
    </g>
    <g id="xtick_6">
     <g id="line2d_6">
      <g>
       <use xlink:href="#m45cd2c723b" x="426.200906" y="312.54" style="stroke: #000000; stroke-width: 0.8"/>
      </g>
     </g>
     <g id="text_6">
      <!-- 100 -->
      <g transform="translate(416.657156 327.138437) scale(0.1 -0.1)">
       <defs>
        <path id="DejaVuSans-31" d="M 794 531 
L 1825 531 
L 1825 4091 
L 703 3866 
L 703 4441 
L 1819 4666 
L 2450 4666 
L 2450 531 
L 3481 531 
L 3481 0 
L 794 0 
L 794 531 
z
" transform="scale(0.015625)"/>
       </defs>
       <use xlink:href="#DejaVuSans-31"/>
       <use xlink:href="#DejaVuSans-30" x="63.623047"/>
       <use xlink:href="#DejaVuSans-30" x="127.246094"/>
      </g>
     </g>
    </g>
    <g id="xtick_7">
     <g id="line2d_7">
      <defs>
       <path id="m36fa2b89b0" d="M 0 0 
L 0 2 
" style="stroke: #000000; stroke-width: 0.6"/>
      </defs>
      <g>
       <use xlink:href="#m36fa2b89b0" x="60.374045" y="312.54" style="stroke: #000000; stroke-width: 0.6"/>
      </g>
     </g>
    </g>
    <g id="xtick_8">
     <g id="line2d_8">
      <g>
       <use xlink:href="#m36fa2b89b0" x="79.628091" y="312.54" style="stroke: #000000; stroke-width: 0.6"/>
      </g>
     </g>
    </g>
    <g id="xtick_9">
     <g id="line2d_9">
      <g>
       <use xlink:href="#m36fa2b89b0" x="98.882136" y="312.54" style="stroke: #000000; stroke-width: 0.6"/>
      </g>
     </g>
    </g>
    <g id="xtick_10">
     <g id="line2d_10">
      <g>
       <use xlink:href="#m36fa2b89b0" x="137.390227" y="312.54" style="stroke: #000000; stroke-width: 0.6"/>
      </g>
     </g>
    </g>
    <g id="xtick_11">
     <g id="line2d_11">
      <g>
       <use xlink:href="#m36fa2b89b0" x="156.644272" y="312.54" style="stroke: #000000; stroke-width: 0.6"/>
      </g>
     </g>
    </g>
    <g id="xtick_12">
     <g id="line2d_12">
      <g>
       <use xlink:href="#m36fa2b89b0" x="175.898317" y="312.54" style="stroke: #000000; stroke-width: 0.6"/>
      </g>
     </g>
    </g>
    <g id="xtick_13">
     <g id="line2d_13">
      <g>
       <use xlink:href="#m36fa2b89b0" x="214.406408" y="312.54" style="stroke: #000000; stroke-width: 0.6"/>
      </g>
     </g>
    </g>
    <g id="xtick_14">
     <g id="line2d_14">
      <g>
       <use xlink:href="#m36fa2b89b0" x="233.660453" y="312.54" style="stroke: #000000; stroke-width: 0.6"/>
      </g>
     </g>
    </g>
    <g id="xtick_15">
     <g id="line2d_15">
      <g>
       <use xlink:href="#m36fa2b89b0" x="252.914499" y="312.54" style="stroke: #000000; stroke-width: 0.6"/>
      </g>
     </g>
    </g>
    <g id="xtick_16">
     <g id="line2d_16">
      <g>
       <use xlink:href="#m36fa2b89b0" x="291.422589" y="312.54" style="stroke: #000000; stroke-width: 0.6"/>
      </g>
     </g>
    </g>
    <g id="xtick_17">
     <g id="line2d_17">
      <g>
       <use xlink:href="#m36fa2b89b0" x="310.676635" y="312.54" style="stroke: #000000; stroke-width: 0.6"/>
      </g>
     </g>
    </g>
    <g id="xtick_18">
     <g id="line2d_18">
      <g>
       <use xlink:href="#m36fa2b89b0" x="329.93068" y="312.54" style="stroke: #000000; stroke-width: 0.6"/>
      </g>
     </g>
    </g>
    <g id="xtick_19">
     <g id="line2d_19">
      <g>
       <use xlink:href="#m36fa2b89b0" x="368.438771" y="312.54" style="stroke: #000000; stroke-width: 0.6"/>
      </g>
     </g>
    </g>
    <g id="xtick_20">
     <g id="line2d_20">
      <g>
       <use xlink:href="#m36fa2b89b0" x="387.692816" y="312.54" style="stroke: #000000; stroke-width: 0.6"/>
      </g>
     </g>
    </g>
    <g id="xtick_21">
     <g id="line2d_21">
      <g>
       <use xlink:href="#m36fa2b89b0" x="406.946861" y="312.54" style="stroke: #000000; stroke-width: 0.6"/>
      </g>
     </g>
    </g>
    <g id="text_7">
     <!-- $t$ -->
     <g transform="translate(441.902525 312.54) scale(0.16 -0.16)">
      <defs>
       <path id="Cmmi10-74" d="M 397 519 
Q 397 613 416 697 
L 878 2534 
L 206 2534 
Q 141 2534 141 2619 
Q 166 2759 225 2759 
L 934 2759 
L 1191 3803 
Q 1216 3888 1291 3947 
Q 1366 4006 1459 4006 
Q 1541 4006 1595 3957 
Q 1650 3909 1650 3828 
Q 1650 3809 1648 3798 
Q 1647 3788 1644 3775 
L 1388 2759 
L 2047 2759 
Q 2113 2759 2113 2675 
Q 2109 2659 2100 2621 
Q 2091 2584 2075 2559 
Q 2059 2534 2028 2534 
L 1331 2534 
L 872 684 
Q 825 503 825 372 
Q 825 97 1013 97 
Q 1294 97 1511 361 
Q 1728 625 1844 941 
Q 1869 978 1894 978 
L 1972 978 
Q 1997 978 2012 961 
Q 2028 944 2028 922 
Q 2028 909 2022 903 
Q 1881 516 1612 222 
Q 1344 -72 997 -72 
Q 744 -72 570 93 
Q 397 259 397 519 
z
" transform="scale(0.015625)"/>
      </defs>
      <use xlink:href="#Cmmi10-74" transform="translate(0 0.40625)"/>
     </g>
    </g>
   </g>
   <g id="matplotlib.axis_2">
    <g id="ytick_1">
     <g id="line2d_22">
      <defs>
       <path id="mdcf9c643f7" d="M 0 0 
L -3.5 0 
" style="stroke: #000000; stroke-width: 0.8"/>
      </defs>
      <g>
       <use xlink:href="#mdcf9c643f7" x="41.12" y="298.106131" style="stroke: #000000; stroke-width: 0.8"/>
      </g>
     </g>
     <g id="text_8">
      <!-- 30 -->
      <g transform="translate(21.395 301.90535) scale(0.1 -0.1)">
       <defs>
        <path id="DejaVuSans-33" d="M 2597 2516 
Q 3050 2419 3304 2112 
Q 3559 1806 3559 1356 
Q 3559 666 3084 287 
Q 2609 -91 1734 -91 
Q 1441 -91 1130 -33 
Q 819 25 488 141 
L 488 750 
Q 750 597 1062 519 
Q 1375 441 1716 441 
Q 2309 441 2620 675 
Q 2931 909 2931 1356 
Q 2931 1769 2642 2001 
Q 2353 2234 1838 2234 
L 1294 2234 
L 1294 2753 
L 1863 2753 
Q 2328 2753 2575 2939 
Q 2822 3125 2822 3475 
Q 2822 3834 2567 4026 
Q 2313 4219 1838 4219 
Q 1578 4219 1281 4162 
Q 984 4106 628 3988 
L 628 4550 
Q 988 4650 1302 4700 
Q 1616 4750 1894 4750 
Q 2613 4750 3031 4423 
Q 3450 4097 3450 3541 
Q 3450 3153 3228 2886 
Q 3006 2619 2597 2516 
z
" transform="scale(0.015625)"/>
       </defs>
       <use xlink:href="#DejaVuSans-33"/>
       <use xlink:href="#DejaVuSans-30" x="63.623047"/>
      </g>
     </g>
    </g>
    <g id="ytick_2">
     <g id="line2d_23">
      <g>
       <use xlink:href="#mdcf9c643f7" x="41.12" y="244.971142" style="stroke: #000000; stroke-width: 0.8"/>
      </g>
     </g>
     <g id="text_9">
      <!-- 40 -->
      <g transform="translate(21.395 248.770361) scale(0.1 -0.1)">
       <use xlink:href="#DejaVuSans-34"/>
       <use xlink:href="#DejaVuSans-30" x="63.623047"/>
      </g>
     </g>
    </g>
    <g id="ytick_3">
     <g id="line2d_24">
      <g>
       <use xlink:href="#mdcf9c643f7" x="41.12" y="191.836153" style="stroke: #000000; stroke-width: 0.8"/>
      </g>
     </g>
     <g id="text_10">
      <!-- 50 -->
      <g transform="translate(21.395 195.635371) scale(0.1 -0.1)">
       <defs>
        <path id="DejaVuSans-35" d="M 691 4666 
L 3169 4666 
L 3169 4134 
L 1269 4134 
L 1269 2991 
Q 1406 3038 1543 3061 
Q 1681 3084 1819 3084 
Q 2600 3084 3056 2656 
Q 3513 2228 3513 1497 
Q 3513 744 3044 326 
Q 2575 -91 1722 -91 
Q 1428 -91 1123 -41 
Q 819 9 494 109 
L 494 744 
Q 775 591 1075 516 
Q 1375 441 1709 441 
Q 2250 441 2565 725 
Q 2881 1009 2881 1497 
Q 2881 1984 2565 2268 
Q 2250 2553 1709 2553 
Q 1456 2553 1204 2497 
Q 953 2441 691 2322 
L 691 4666 
z
" transform="scale(0.015625)"/>
       </defs>
       <use xlink:href="#DejaVuSans-35"/>
       <use xlink:href="#DejaVuSans-30" x="63.623047"/>
      </g>
     </g>
    </g>
    <g id="ytick_4">
     <g id="line2d_25">
      <g>
       <use xlink:href="#mdcf9c643f7" x="41.12" y="138.701163" style="stroke: #000000; stroke-width: 0.8"/>
      </g>
     </g>
     <g id="text_11">
      <!-- 60 -->
      <g transform="translate(21.395 142.500382) scale(0.1 -0.1)">
       <use xlink:href="#DejaVuSans-36"/>
       <use xlink:href="#DejaVuSans-30" x="63.623047"/>
      </g>
     </g>
    </g>
    <g id="ytick_5">
     <g id="line2d_26">
      <g>
       <use xlink:href="#mdcf9c643f7" x="41.12" y="85.566174" style="stroke: #000000; stroke-width: 0.8"/>
      </g>
     </g>
     <g id="text_12">
      <!-- 70 -->
      <g transform="translate(21.395 89.365393) scale(0.1 -0.1)">
       <defs>
        <path id="DejaVuSans-37" d="M 525 4666 
L 3525 4666 
L 3525 4397 
L 1831 0 
L 1172 0 
L 2766 4134 
L 525 4134 
L 525 4666 
z
" transform="scale(0.015625)"/>
       </defs>
       <use xlink:href="#DejaVuSans-37"/>
       <use xlink:href="#DejaVuSans-30" x="63.623047"/>
      </g>
     </g>
    </g>
    <g id="ytick_6">
     <g id="line2d_27">
      <g>
       <use xlink:href="#mdcf9c643f7" x="41.12" y="32.431184" style="stroke: #000000; stroke-width: 0.8"/>
      </g>
     </g>
     <g id="text_13">
      <!-- 80 -->
      <g transform="translate(21.395 36.230403) scale(0.1 -0.1)">
       <use xlink:href="#DejaVuSans-38"/>
       <use xlink:href="#DejaVuSans-30" x="63.623047"/>
      </g>
     </g>
    </g>
    <g id="ytick_7">
     <g id="line2d_28">
      <defs>
       <path id="m1b6b468c36" d="M 0 0 
L -2 0 
" style="stroke: #000000; stroke-width: 0.6"/>
      </defs>
      <g>
       <use xlink:href="#m1b6b468c36" x="41.12" y="287.479134" style="stroke: #000000; stroke-width: 0.6"/>
      </g>
     </g>
    </g>
    <g id="ytick_8">
     <g id="line2d_29">
      <g>
       <use xlink:href="#m1b6b468c36" x="41.12" y="276.852136" style="stroke: #000000; stroke-width: 0.6"/>
      </g>
     </g>
    </g>
    <g id="ytick_9">
     <g id="line2d_30">
      <g>
       <use xlink:href="#m1b6b468c36" x="41.12" y="266.225138" style="stroke: #000000; stroke-width: 0.6"/>
      </g>
     </g>
    </g>
    <g id="ytick_10">
     <g id="line2d_31">
      <g>
       <use xlink:href="#m1b6b468c36" x="41.12" y="255.59814" style="stroke: #000000; stroke-width: 0.6"/>
      </g>
     </g>
    </g>
    <g id="ytick_11">
     <g id="line2d_32">
      <g>
       <use xlink:href="#m1b6b468c36" x="41.12" y="234.344144" style="stroke: #000000; stroke-width: 0.6"/>
      </g>
     </g>
    </g>
    <g id="ytick_12">
     <g id="line2d_33">
      <g>
       <use xlink:href="#m1b6b468c36" x="41.12" y="223.717146" style="stroke: #000000; stroke-width: 0.6"/>
      </g>
     </g>
    </g>
    <g id="ytick_13">
     <g id="line2d_34">
      <g>
       <use xlink:href="#m1b6b468c36" x="41.12" y="213.090148" style="stroke: #000000; stroke-width: 0.6"/>
      </g>
     </g>
    </g>
    <g id="ytick_14">
     <g id="line2d_35">
      <g>
       <use xlink:href="#m1b6b468c36" x="41.12" y="202.46315" style="stroke: #000000; stroke-width: 0.6"/>
      </g>
     </g>
    </g>
    <g id="ytick_15">
     <g id="line2d_36">
      <g>
       <use xlink:href="#m1b6b468c36" x="41.12" y="181.209155" style="stroke: #000000; stroke-width: 0.6"/>
      </g>
     </g>
    </g>
    <g id="ytick_16">
     <g id="line2d_37">
      <g>
       <use xlink:href="#m1b6b468c36" x="41.12" y="170.582157" style="stroke: #000000; stroke-width: 0.6"/>
      </g>
     </g>
    </g>
    <g id="ytick_17">
     <g id="line2d_38">
      <g>
       <use xlink:href="#m1b6b468c36" x="41.12" y="159.955159" style="stroke: #000000; stroke-width: 0.6"/>
      </g>
     </g>
    </g>
    <g id="ytick_18">
     <g id="line2d_39">
      <g>
       <use xlink:href="#m1b6b468c36" x="41.12" y="149.328161" style="stroke: #000000; stroke-width: 0.6"/>
      </g>
     </g>
    </g>
    <g id="ytick_19">
     <g id="line2d_40">
      <g>
       <use xlink:href="#m1b6b468c36" x="41.12" y="128.074165" style="stroke: #000000; stroke-width: 0.6"/>
      </g>
     </g>
    </g>
    <g id="ytick_20">
     <g id="line2d_41">
      <g>
       <use xlink:href="#m1b6b468c36" x="41.12" y="117.447167" style="stroke: #000000; stroke-width: 0.6"/>
      </g>
     </g>
    </g>
    <g id="ytick_21">
     <g id="line2d_42">
      <g>
       <use xlink:href="#m1b6b468c36" x="41.12" y="106.82017" style="stroke: #000000; stroke-width: 0.6"/>
      </g>
     </g>
    </g>
    <g id="ytick_22">
     <g id="line2d_43">
      <g>
       <use xlink:href="#m1b6b468c36" x="41.12" y="96.193172" style="stroke: #000000; stroke-width: 0.6"/>
      </g>
     </g>
    </g>
    <g id="ytick_23">
     <g id="line2d_44">
      <g>
       <use xlink:href="#m1b6b468c36" x="41.12" y="74.939176" style="stroke: #000000; stroke-width: 0.6"/>
      </g>
     </g>
    </g>
    <g id="ytick_24">
     <g id="line2d_45">
      <g>
       <use xlink:href="#m1b6b468c36" x="41.12" y="64.312178" style="stroke: #000000; stroke-width: 0.6"/>
      </g>
     </g>
    </g>
    <g id="ytick_25">
     <g id="line2d_46">
      <g>
       <use xlink:href="#m1b6b468c36" x="41.12" y="53.68518" style="stroke: #000000; stroke-width: 0.6"/>
      </g>
     </g>
    </g>
    <g id="ytick_26">
     <g id="line2d_47">
      <g>
       <use xlink:href="#m1b6b468c36" x="41.12" y="43.058182" style="stroke: #000000; stroke-width: 0.6"/>
      </g>
     </g>
    </g>
    <g id="text_14">
     <!-- $H(t), L(t)$ -->
     <g transform="translate(7.2 11.7) scale(0.16 -0.16)">
      <defs>
       <path id="Cmmi10-48" d="M 300 0 
Q 238 0 238 84 
Q 241 100 250 139 
Q 259 178 276 201 
Q 294 225 319 225 
Q 709 225 863 269 
Q 947 297 984 441 
L 1863 3956 
Q 1875 4019 1875 4044 
Q 1875 4113 1797 4122 
Q 1678 4147 1338 4147 
Q 1275 4147 1275 4231 
Q 1297 4313 1309 4342 
Q 1322 4372 1381 4372 
L 3103 4372 
Q 3169 4372 3169 4288 
Q 3166 4272 3156 4234 
Q 3147 4197 3131 4172 
Q 3116 4147 3084 4147 
Q 2694 4147 2541 4103 
Q 2456 4072 2419 3928 
L 2034 2388 
L 3956 2388 
L 4347 3956 
Q 4359 4019 4359 4044 
Q 4359 4113 4281 4122 
Q 4159 4147 3822 4147 
Q 3756 4147 3756 4231 
Q 3778 4313 3790 4342 
Q 3803 4372 3866 4372 
L 5588 4372 
Q 5650 4372 5650 4288 
Q 5647 4272 5637 4233 
Q 5628 4194 5611 4170 
Q 5594 4147 5569 4147 
Q 5178 4147 5025 4103 
Q 4941 4075 4903 3928 
L 4025 416 
Q 4013 353 4013 325 
Q 4013 259 4091 250 
Q 4213 225 4550 225 
Q 4616 225 4616 141 
Q 4597 66 4578 33 
Q 4559 0 4506 0 
L 2784 0 
Q 2719 0 2719 84 
Q 2731 131 2737 153 
Q 2744 175 2761 200 
Q 2778 225 2803 225 
Q 3194 225 3347 269 
Q 3431 297 3469 441 
L 3897 2163 
L 1978 2163 
L 1544 416 
Q 1528 338 1528 325 
Q 1528 259 1606 250 
Q 1728 225 2069 225 
Q 2131 225 2131 141 
Q 2109 56 2095 28 
Q 2081 0 2022 0 
L 300 0 
z
" transform="scale(0.015625)"/>
       <path id="Cmr10-28" d="M 1984 -1588 
Q 1628 -1306 1370 -942 
Q 1113 -578 948 -165 
Q 784 247 703 697 
Q 622 1147 622 1600 
Q 622 2059 703 2509 
Q 784 2959 951 3375 
Q 1119 3791 1378 4153 
Q 1638 4516 1984 4788 
Q 1984 4800 2016 4800 
L 2075 4800 
Q 2094 4800 2109 4783 
Q 2125 4766 2125 4744 
Q 2125 4716 2113 4703 
Q 1800 4397 1592 4047 
Q 1384 3697 1257 3301 
Q 1131 2906 1075 2482 
Q 1019 2059 1019 1600 
Q 1019 -434 2106 -1491 
Q 2125 -1509 2125 -1544 
Q 2125 -1559 2108 -1579 
Q 2091 -1600 2075 -1600 
L 2016 -1600 
Q 1984 -1600 1984 -1588 
z
" transform="scale(0.015625)"/>
       <path id="Cmr10-29" d="M 416 -1600 
Q 359 -1600 359 -1544 
Q 359 -1516 372 -1503 
Q 1466 -434 1466 1600 
Q 1466 3634 384 4691 
Q 359 4706 359 4744 
Q 359 4766 376 4783 
Q 394 4800 416 4800 
L 475 4800 
Q 494 4800 506 4788 
Q 966 4425 1272 3906 
Q 1578 3388 1720 2800 
Q 1863 2213 1863 1600 
Q 1863 1147 1786 708 
Q 1709 269 1542 -157 
Q 1375 -584 1119 -945 
Q 863 -1306 506 -1588 
Q 494 -1600 475 -1600 
L 416 -1600 
z
" transform="scale(0.015625)"/>
       <path id="Cmmi10-3b" d="M 634 -1153 
Q 634 -1125 659 -1100 
Q 891 -878 1019 -587 
Q 1147 -297 1147 25 
L 1147 103 
Q 1044 0 891 0 
Q 744 0 641 103 
Q 538 206 538 353 
Q 538 503 641 603 
Q 744 703 891 703 
Q 1119 703 1216 492 
Q 1313 281 1313 25 
Q 1313 -331 1170 -651 
Q 1028 -972 769 -1228 
Q 744 -1241 728 -1241 
Q 697 -1241 665 -1212 
Q 634 -1184 634 -1153 
z
" transform="scale(0.015625)"/>
       <path id="Cmmi10-4c" d="M 300 0 
Q 238 0 238 84 
Q 241 100 250 139 
Q 259 178 276 201 
Q 294 225 319 225 
Q 709 225 863 269 
Q 947 297 984 441 
L 1863 3956 
Q 1875 4019 1875 4044 
Q 1875 4113 1797 4122 
Q 1678 4147 1338 4147 
Q 1275 4147 1275 4231 
Q 1297 4313 1309 4342 
Q 1322 4372 1381 4372 
L 3272 4372 
Q 3328 4372 3328 4288 
Q 3319 4222 3306 4184 
Q 3294 4147 3244 4147 
Q 2772 4147 2613 4116 
Q 2456 4088 2419 3928 
L 1544 416 
Q 1516 338 1516 275 
Q 1516 225 1734 225 
L 2328 225 
Q 2831 225 3143 425 
Q 3456 625 3606 876 
Q 3756 1128 3857 1398 
Q 3959 1669 4006 1678 
L 4063 1678 
Q 4128 1678 4128 1594 
L 3559 44 
Q 3550 0 3500 0 
L 300 0 
z
" transform="scale(0.015625)"/>
      </defs>
      <use xlink:href="#Cmmi10-48"/>
      <use xlink:href="#Cmr10-28" transform="translate(83.105469 0)"/>
      <use xlink:href="#Cmmi10-74" transform="translate(121.923828 0)"/>
      <use xlink:href="#Cmr10-29" transform="translate(158.007812 0)"/>
      <use xlink:href="#Cmmi10-3b" transform="translate(196.826172 0)"/>
      <use xlink:href="#Cmmi10-4c" transform="translate(242.070312 0)"/>
      <use xlink:href="#Cmr10-28" transform="translate(310.087891 0)"/>
      <use xlink:href="#Cmmi10-74" transform="translate(348.90625 0)"/>
      <use xlink:href="#Cmr10-29" transform="translate(384.990234 0)"/>
     </g>
    </g>
   </g>
   <g id="line2d_48">
    <path d="M 41.12 85.566174 
L 44.585728 120.299375 
L 47.666375 150.434885 
L 49.976861 170.724647 
L 51.902265 185.503395 
L 53.442589 195.762418 
L 54.982913 204.572723 
L 56.523236 211.923465 
L 57.678479 216.488001 
L 58.833722 220.254386 
L 59.988964 223.239855 
L 61.144207 225.463497 
L 61.914369 226.532441 
L 62.684531 227.277401 
L 63.454693 227.704069 
L 64.224854 227.817941 
L 64.995016 227.624278 
L 65.765178 227.128081 
L 66.53534 226.334078 
L 67.305502 225.24673 
L 68.460744 223.074844 
L 69.615987 220.265683 
L 70.77123 216.831756 
L 71.926473 212.785171 
L 73.466796 206.457882 
L 75.00712 199.094342 
L 76.547443 190.730833 
L 78.472848 178.939644 
L 80.398252 165.772941 
L 82.708738 148.386028 
L 85.789385 123.18021 
L 92.335761 68.722564 
L 94.261165 54.922001 
L 95.801489 45.47529 
L 96.956731 39.571366 
L 98.111974 34.85236 
L 98.882136 32.435226 
L 99.652298 30.645114 
L 100.42246 29.514136 
L 100.807541 29.20425 
L 101.192621 29.068434 
L 101.577702 29.108877 
L 101.962783 29.32729 
L 102.347864 29.724883 
L 103.118026 31.059837 
L 103.888188 33.112773 
L 104.65835 35.873838 
L 105.428511 39.324169 
L 106.583754 45.729008 
L 107.738997 53.491472 
L 109.27932 65.661414 
L 111.204725 83.122334 
L 114.285372 113.820927 
L 117.7511 148.056535 
L 120.061586 168.619509 
L 121.98699 183.673049 
L 123.527314 194.167644 
L 125.067638 203.218795 
L 126.607961 210.809967 
L 127.763204 215.552218 
L 128.918447 219.492923 
L 130.073689 222.648708 
L 131.228932 225.038372 
L 131.999094 226.215574 
L 132.769256 227.06688 
L 133.539418 227.598033 
L 134.309579 227.8146 
L 135.079741 227.721924 
L 135.849903 227.325091 
L 136.620065 226.62892 
L 137.390227 225.637961 
L 138.160388 224.356506 
L 139.315631 221.898471 
L 140.470874 218.808825 
L 141.626117 215.099841 
L 143.16644 209.21204 
L 144.706764 202.274616 
L 146.247087 194.321332 
L 148.172492 183.014342 
L 150.097897 170.289156 
L 152.408382 153.352733 
L 155.103948 131.755437 
L 163.575728 62.030937 
L 165.116052 51.577931 
L 166.656376 42.70229 
L 167.811618 37.308979 
L 168.966861 33.165781 
L 169.737023 31.164801 
L 170.507185 29.812967 
L 170.892265 29.389543 
L 171.277346 29.138492 
L 171.662427 29.062308 
L 172.047508 29.163018 
L 172.432589 29.442166 
L 172.81767 29.900788 
L 173.587832 31.357956 
L 174.357994 33.532065 
L 175.128155 36.411736 
L 176.283398 42.007146 
L 177.438641 49.0365 
L 178.593884 57.353451 
L 180.134207 70.129511 
L 182.059612 88.10467 
L 190.146311 166.480653 
L 192.071715 181.804831 
L 193.612039 192.533428 
L 195.152363 201.825004 
L 196.692686 209.656981 
L 197.847929 214.577575 
L 199.003172 218.693412 
L 200.158414 222.020431 
L 201.313657 224.577074 
L 202.083819 225.863173 
L 202.853981 226.821452 
L 203.624143 227.457698 
L 204.394304 227.777542 
L 205.164466 227.786406 
L 205.934628 227.489463 
L 206.70479 226.891621 
L 207.474952 225.997518 
L 208.245113 224.811528 
L 209.400356 222.494241 
L 210.555599 219.542569 
L 211.710842 215.968891 
L 212.866084 211.78529 
L 214.406408 205.279761 
L 215.946732 197.743692 
L 217.487055 189.214562 
L 219.41246 177.228901 
L 221.337864 163.886542 
L 223.64835 146.323733 
L 226.728997 120.969741 
L 232.505211 72.652422 
L 234.430615 58.378432 
L 235.970939 48.410803 
L 237.126181 42.033681 
L 238.281424 36.774608 
L 239.051586 33.963462 
L 239.821748 31.755317 
L 240.59191 30.18571 
L 241.362071 29.284829 
L 241.747152 29.092902 
L 242.132233 29.076584 
L 242.517314 29.237739 
L 242.902395 29.577742 
L 243.672557 30.797197 
L 244.442719 32.735381 
L 245.21288 35.38388 
L 245.983042 38.725277 
L 247.138285 44.976576 
L 248.293528 52.601179 
L 249.833851 64.617929 
L 251.759256 81.944576 
L 254.454822 108.659782 
L 258.305631 146.89212 
L 260.616117 167.584572 
L 262.541521 182.770135 
L 264.081845 193.378623 
L 265.622168 202.546641 
L 267.162492 210.25476 
L 268.317735 215.083579 
L 269.472978 219.109267 
L 270.62822 222.348128 
L 271.783463 224.818794 
L 272.553625 226.048821 
L 273.323787 226.952018 
L 274.093948 227.534151 
L 274.86411 227.800819 
L 275.634272 227.757403 
L 276.404434 227.409033 
L 277.174596 226.76057 
L 277.944757 225.816606 
L 278.714919 224.581475 
L 279.870162 222.19174 
L 281.025405 219.16905 
L 282.180647 215.525728 
L 283.720971 209.723446 
L 285.261295 202.869039 
L 286.801618 194.995849 
L 288.727023 183.783776 
L 290.652427 171.14577 
L 292.962913 154.299567 
L 295.658479 132.778811 
L 304.130259 62.926167 
L 305.670583 52.363316 
L 307.210906 43.346993 
L 308.366149 37.828615 
L 309.521392 33.545009 
L 310.291554 31.442911 
L 311.061715 29.984879 
L 311.831877 29.2001 
L 312.216958 29.067566 
L 312.602039 29.111329 
L 312.98712 29.333088 
L 313.372201 29.734045 
L 314.142363 31.07574 
L 314.912525 33.135367 
L 315.682686 35.902987 
L 316.452848 39.359654 
L 317.608091 45.773411 
L 318.763334 53.543862 
L 320.303657 65.722652 
L 322.229062 83.191277 
L 325.309709 113.894106 
L 328.775437 148.124323 
L 331.085923 168.679673 
L 333.011327 183.725476 
L 334.551651 194.213411 
L 336.091974 203.257738 
L 337.632298 210.842085 
L 338.787541 215.579288 
L 339.942783 219.515038 
L 341.098026 222.665982 
L 342.253269 225.050924 
L 343.023431 226.225048 
L 343.793592 227.07333 
L 344.563754 227.601511 
L 345.333916 227.815158 
L 346.104078 227.71961 
L 346.87424 227.319952 
L 347.644402 226.621001 
L 348.414563 225.627302 
L 349.184725 224.343146 
L 350.339968 221.881129 
L 351.495211 218.787579 
L 352.650453 215.074767 
L 354.190777 209.181981 
L 355.731101 202.239717 
L 357.271424 194.281766 
L 359.196829 182.96925 
L 361.122233 170.238992 
L 363.432719 153.297334 
L 366.128285 131.695624 
L 374.600065 61.978918 
L 376.140389 51.532401 
L 377.680712 42.665046 
L 378.835955 37.279089 
L 379.991198 33.144134 
L 380.76136 31.149084 
L 381.531521 29.803471 
L 381.916602 29.383249 
L 382.301683 29.135452 
L 382.686764 29.062564 
L 383.071845 29.166603 
L 383.456926 29.449105 
L 383.842007 29.911094 
L 384.612169 31.375 
L 385.38233 33.555784 
L 386.152492 36.441978 
L 387.307735 42.046712 
L 388.462978 49.084598 
L 389.61822 57.409051 
L 391.158544 70.193194 
L 393.083949 88.175009 
L 401.170648 166.541762 
L 403.096052 181.858326 
L 404.636376 192.580311 
L 406.176699 201.865077 
L 407.717023 209.690221 
L 408.872266 214.60575 
L 410.027508 218.716609 
L 411.182751 222.03876 
L 412.337994 224.590654 
L 413.108156 225.873657 
L 413.878317 226.828894 
L 414.648479 227.462151 
L 415.418641 227.779059 
L 416.188803 227.785035 
L 416.958965 227.485252 
L 417.729127 226.884615 
L 418.499288 225.987759 
L 419.26945 224.799056 
L 420.424693 222.477769 
L 421.579936 219.522176 
L 422.735178 215.944654 
L 423.890421 211.757283 
L 425.430745 205.246852 
L 426.200906 201.603071 
L 426.200906 201.603071 
" clip-path="url(#p846d0d321e)" style="fill: none; stroke: #ff0000; stroke-linecap: square"/>
   </g>
   <g id="line2d_49">
    <path d="M 41.12 191.836153 
L 42.275243 188.251058 
L 43.430485 185.504282 
L 44.200647 184.159369 
L 44.970809 183.210924 
L 45.740971 182.660073 
L 46.511133 182.503475 
L 47.281295 182.733625 
L 48.051456 183.339233 
L 48.821618 184.305653 
L 49.59178 185.615358 
L 50.747023 188.179462 
L 51.902265 191.395906 
L 53.442589 196.558896 
L 54.982913 202.538645 
L 56.908317 210.862242 
L 59.988964 225.304592 
L 65.380097 250.702609 
L 68.075663 262.251734 
L 70.386149 271.134677 
L 72.311553 277.69093 
L 74.236958 283.397049 
L 75.777282 287.307688 
L 77.317605 290.606015 
L 78.472848 292.661932 
L 79.628091 294.347504 
L 80.783333 295.65167 
L 81.938576 296.563117 
L 82.708738 296.94682 
L 83.4789 297.147234 
L 84.249062 297.160719 
L 85.019223 296.983567 
L 85.789385 296.612026 
L 86.559547 296.042328 
L 87.329709 295.270741 
L 88.484951 293.726886 
L 89.640194 291.709092 
L 90.795437 289.207381 
L 91.95068 286.21424 
L 93.491003 281.452865 
L 95.031327 275.816625 
L 96.571651 269.333155 
L 98.497055 260.128452 
L 100.807541 247.740802 
L 104.65835 225.377518 
L 107.353916 210.219669 
L 109.27932 200.644448 
L 110.819644 194.158658 
L 111.974887 190.135233 
L 113.13013 186.918048 
L 113.900291 185.248178 
L 114.670453 183.970303 
L 115.440615 183.089411 
L 116.210777 182.605853 
L 116.980939 182.515559 
L 117.7511 182.810351 
L 118.521262 183.478338 
L 119.291424 184.504351 
L 120.061586 185.870422 
L 121.216829 188.512263 
L 122.372071 191.797529 
L 123.912395 197.037622 
L 125.452719 203.077538 
L 127.763204 213.209436 
L 131.614013 231.484074 
L 135.849903 251.287737 
L 138.545469 262.781599 
L 140.855955 271.605413 
L 142.781359 278.106128 
L 144.706764 283.75214 
L 146.247087 287.611861 
L 147.787411 290.85697 
L 148.942654 292.871517 
L 150.097897 294.514475 
L 151.253139 295.774763 
L 152.408382 296.641029 
L 153.178544 296.993865 
L 153.948706 297.162799 
L 154.718867 297.14418 
L 155.489029 296.934288 
L 156.259191 296.529367 
L 157.029353 295.925653 
L 158.184596 294.639224 
L 159.339838 292.885094 
L 160.495081 290.652329 
L 161.650324 287.931925 
L 162.805566 284.717823 
L 164.34589 279.661919 
L 165.886214 273.737545 
L 167.426537 266.981498 
L 169.351942 257.475965 
L 171.662427 244.822761 
L 178.593884 205.564985 
L 180.134207 198.341087 
L 181.674531 192.266788 
L 182.829774 188.595367 
L 183.985016 185.75662 
L 184.755178 184.34852 
L 185.52534 183.336277 
L 186.295502 182.721754 
L 187.065664 182.502309 
L 187.835825 182.671083 
L 188.605987 183.217362 
L 189.376149 184.12701 
L 190.146311 185.382929 
L 191.301554 187.872699 
L 192.456796 191.02316 
L 193.99712 196.111976 
L 195.537444 202.033568 
L 197.462848 210.306232 
L 200.543495 224.712144 
L 205.934628 250.147711 
L 208.630194 261.748283 
L 210.94068 270.68661 
L 212.866084 277.295022 
L 214.791489 283.057672 
L 216.331812 287.016235 
L 217.872136 290.36467 
L 219.027379 292.459546 
L 220.182622 294.18525 
L 221.337864 295.530742 
L 222.493107 296.484741 
L 223.263269 296.897514 
L 224.033431 297.127575 
L 224.803592 297.171297 
L 225.573754 297.02498 
L 226.343916 296.684876 
L 227.114078 296.147221 
L 227.88424 295.40827 
L 229.039482 293.91444 
L 230.194725 291.947844 
L 231.349968 289.498299 
L 232.505211 286.557977 
L 234.045534 281.86725 
L 235.585858 276.30051 
L 237.126181 269.883322 
L 239.051586 260.752817 
L 241.362071 248.432893 
L 244.8278 228.353255 
L 247.908447 210.878522 
L 249.833851 201.214311 
L 251.374175 194.633753 
L 252.529418 190.528179 
L 253.68466 187.221836 
L 254.454822 185.489864 
L 255.224984 184.148644 
L 255.995146 183.203924 
L 256.765308 182.656787 
L 257.535469 182.503851 
L 258.305631 182.737576 
L 259.075793 183.346635 
L 259.845955 184.316355 
L 260.616117 185.629183 
L 261.771359 188.1976 
L 262.926602 191.417866 
L 264.466926 196.585146 
L 266.007249 202.568251 
L 267.932654 210.894774 
L 271.013301 225.339187 
L 276.404434 250.734937 
L 279.1 262.281036 
L 281.410486 271.160732 
L 283.33589 277.713931 
L 285.261295 283.416742 
L 286.801618 287.324579 
L 288.341942 290.619975 
L 289.497185 292.673615 
L 290.652427 294.356839 
L 291.80767 295.65859 
L 292.962913 296.567549 
L 293.733075 296.949552 
L 294.503236 297.148233 
L 295.273398 297.15995 
L 296.04356 296.980996 
L 296.813722 296.607616 
L 297.583884 296.036045 
L 298.354046 295.26255 
L 299.509288 293.715771 
L 300.664531 291.694985 
L 301.819774 289.190226 
L 302.975016 286.194001 
L 304.51534 281.428503 
L 306.055664 275.788212 
L 307.595987 269.300884 
L 309.521392 260.091875 
L 311.831877 247.700319 
L 315.682686 225.335455 
L 318.378253 210.181354 
L 320.303657 200.611398 
L 321.843981 194.131185 
L 322.999224 190.112582 
L 324.154466 186.90062 
L 324.924628 185.234383 
L 325.69479 183.960209 
L 326.464952 183.083044 
L 327.235114 182.603194 
L 328.005275 182.516549 
L 328.775437 182.814897 
L 329.545599 183.486311 
L 330.315761 184.515596 
L 331.085923 185.884758 
L 332.241165 188.530858 
L 333.396408 191.81989 
L 334.936732 197.064193 
L 336.477055 203.107385 
L 338.787541 213.242526 
L 342.63835 231.518715 
L 346.87424 251.319942 
L 349.569806 262.810731 
L 351.880292 271.63127 
L 353.805696 278.128912 
L 355.731101 283.7716 
L 357.271424 287.628507 
L 358.811748 290.870675 
L 359.966991 292.882938 
L 361.122233 294.523541 
L 362.277476 295.781405 
L 363.432719 296.645175 
L 364.202881 296.996305 
L 364.973042 297.1635 
L 365.743204 297.143107 
L 366.513366 296.931407 
L 367.283528 296.524641 
L 368.05369 295.919048 
L 369.208932 294.629737 
L 370.364175 292.872651 
L 371.519418 290.636867 
L 372.67466 287.913396 
L 373.829903 284.696201 
L 375.370227 279.636187 
L 376.91055 273.707811 
L 378.450874 266.948004 
L 380.376279 257.438374 
L 382.686764 244.781662 
L 389.61822 205.528877 
L 391.158544 198.309781 
L 392.698868 192.24141 
L 393.85411 188.575007 
L 395.009353 185.741616 
L 395.779515 184.337199 
L 396.549677 183.328679 
L 397.319839 182.717874 
L 398.09 182.502103 
L 398.860162 182.674467 
L 399.630324 183.22422 
L 400.400486 184.137194 
L 401.170648 185.396266 
L 402.32589 187.890398 
L 403.481133 191.044736 
L 405.021457 196.137917 
L 406.56178 202.062938 
L 408.487185 210.338616 
L 411.567832 224.746712 
L 416.958965 250.180154 
L 419.654531 261.777744 
L 421.965017 270.712851 
L 423.890421 277.318227 
L 425.815826 283.077584 
L 426.200906 284.122228 
L 426.200906 284.122228 
" clip-path="url(#p846d0d321e)" style="fill: none; stroke: #0000ff; stroke-linecap: square"/>
   </g>
   <g id="patch_3">
    <path d="M 41.12 302.54 
L 41.12 23.7 
" style="fill: none; stroke: #000000; stroke-width: 0.8; stroke-linejoin: miter; stroke-linecap: square"/>
   </g>
   <g id="patch_4">
    <path d="M 33.418382 312.54 
L 433.902525 312.54 
" style="fill: none; stroke: #000000; stroke-width: 0.8; stroke-linejoin: miter; stroke-linecap: square"/>
   </g>
   <g id="legend_1">
    <g id="patch_5">
     <path d="M 393.702525 63.096875 
L 430.902525 63.096875 
L 430.902525 30.7 
L 393.702525 30.7 
z
" style="fill: #4c4c4c; opacity: 0.5; stroke: #4c4c4c; stroke-linejoin: miter"/>
    </g>
    <g id="patch_6">
     <path d="M 391.702525 61.096875 
L 428.902525 61.096875 
L 428.902525 28.7 
L 391.702525 28.7 
z
" style="fill: #ffffff; stroke: #cccccc; stroke-linejoin: miter"/>
    </g>
    <g id="line2d_50">
     <path d="M 400.702525 38.798437 
L 395.202525 38.798437 
" style="fill: none; stroke: #ff0000; stroke-linecap: square"/>
    </g>
    <g id="text_15">
     <!-- $H(t)$ -->
     <g style="fill: #ff0000" transform="translate(403.202525 42.298437) scale(0.1 -0.1)">
      <use xlink:href="#Cmmi10-48"/>
      <use xlink:href="#Cmr10-28" transform="translate(83.105469 0)"/>
      <use xlink:href="#Cmmi10-74" transform="translate(121.923828 0)"/>
      <use xlink:href="#Cmr10-29" transform="translate(158.007812 0)"/>
     </g>
    </g>
    <g id="line2d_51">
     <path d="M 400.702525 49.096875 
L 395.202525 49.096875 
" style="fill: none; stroke: #0000ff; stroke-linecap: square"/>
    </g>
    <g id="text_16">
     <!-- $L(t)$ -->
     <g style="fill: #0000ff" transform="translate(403.202525 52.596875) scale(0.1 -0.1)">
      <use xlink:href="#Cmmi10-4c"/>
      <use xlink:href="#Cmr10-28" transform="translate(68.017578 0)"/>
      <use xlink:href="#Cmmi10-74" transform="translate(106.835938 0)"/>
      <use xlink:href="#Cmr10-29" transform="translate(142.919922 0)"/>
     </g>
    </g>
   </g>
  </g>
 </g>
 <defs>
  <clipPath id="p846d0d321e">
   <rect x="33.418382" y="23.7" width="400.484143" height="278.84"/>
  </clipPath>
 </defs>
</svg>
