<?xml version="1.0" encoding="utf-8" standalone="no"?>
<!DOCTYPE svg PUBLIC "-//W3C//DTD SVG 1.1//EN"
  "http://www.w3.org/Graphics/SVG/1.1/DTD/svg11.dtd">
<svg xmlns:xlink="http://www.w3.org/1999/xlink" width="452.807854pt" height="336.82pt" viewBox="0 0 452.807854 336.82" xmlns="http://www.w3.org/2000/svg" version="1.1">
 <metadata>
  <rdf:RDF xmlns:dc="http://purl.org/dc/elements/1.1/" xmlns:cc="http://creativecommons.org/ns#" xmlns:rdf="http://www.w3.org/1999/02/22-rdf-syntax-ns#">
   <cc:Work>
    <dc:type rdf:resource="http://purl.org/dc/dcmitype/StillImage"/>
    <dc:date>2024-12-17T10:13:14.335121</dc:date>
    <dc:format>image/svg+xml</dc:format>
    <dc:creator>
     <cc:Agent>
      <dc:title>Matplotlib v3.6.2, https://matplotlib.org/</dc:title>
     </cc:Agent>
    </dc:creator>
   </cc:Work>
  </rdf:RDF>
 </metadata>
 <defs>
  <style type="text/css">*{stroke-linejoin: round; stroke-linecap: butt}</style>
 </defs>
 <g id="figure_1">
  <g id="patch_1">
   <path d="M 0 336.82 
L 452.807854 336.82 
L 452.807854 0 
L 0 0 
z
" style="fill: #ffffff"/>
  </g>
  <g id="axes_1">
   <g id="patch_2">
    <path d="M 108.538277 329.62 
L 434.147854 329.62 
L 434.147854 23.7 
L 108.538277 23.7 
z
" style="fill: #ffffff"/>
   </g>
   <g id="matplotlib.axis_1">
    <g id="xtick_1">
     <g id="line2d_1">
      <defs>
       <path id="m88a709b155" d="M 0 0 
L 0 3.5 
" style="stroke: #000000; stroke-width: 0.8"/>
      </defs>
      <g>
       <use xlink:href="#m88a709b155" x="114.8" y="177.242721" style="stroke: #000000; stroke-width: 0.8"/>
      </g>
     </g>
    </g>
    <g id="xtick_2">
     <g id="line2d_2">
      <g>
       <use xlink:href="#m88a709b155" x="146.108613" y="177.242721" style="stroke: #000000; stroke-width: 0.8"/>
      </g>
     </g>
     <g id="text_1">
      <!-- $\pi$ -->
      <g transform="translate(143.258613 191.841159) scale(0.1 -0.1)">
       <defs>
        <path id="Cmmi10-bc" d="M 647 109 
Q 647 144 672 213 
Q 850 584 1004 942 
Q 1159 1300 1282 1639 
Q 1406 1978 1509 2363 
L 1100 2363 
Q 866 2363 662 2216 
Q 459 2069 325 1844 
Q 313 1819 288 1819 
L 213 1819 
Q 153 1819 153 1881 
Q 153 1894 166 1919 
Q 375 2275 614 2517 
Q 853 2759 1153 2759 
L 3475 2759 
Q 3541 2759 3587 2715 
Q 3634 2672 3634 2597 
Q 3634 2503 3567 2433 
Q 3500 2363 3406 2363 
L 2591 2363 
Q 2488 1859 2478 1381 
Q 2478 766 2694 269 
Q 2713 231 2713 191 
Q 2713 122 2672 62 
Q 2631 3 2567 -34 
Q 2503 -72 2431 -72 
Q 2263 -72 2200 203 
Q 2138 478 2138 738 
Q 2138 1103 2200 1442 
Q 2263 1781 2400 2363 
L 1703 2363 
Q 1197 313 1094 103 
Q 1003 -72 844 -72 
Q 766 -72 706 -20 
Q 647 31 647 109 
z
" transform="scale(0.015625)"/>
       </defs>
       <use xlink:href="#Cmmi10-bc" transform="translate(0 0.890625)"/>
      </g>
     </g>
    </g>
    <g id="xtick_3">
     <g id="line2d_3">
      <g>
       <use xlink:href="#m88a709b155" x="177.417226" y="177.242721" style="stroke: #000000; stroke-width: 0.8"/>
      </g>
     </g>
     <g id="text_2">
      <!-- $2 \, \pi$ -->
      <g transform="translate(171.317226 191.841159) scale(0.1 -0.1)">
       <defs>
        <path id="Cmr10-32" d="M 319 0 
L 319 172 
Q 319 188 331 206 
L 1325 1306 
Q 1550 1550 1690 1715 
Q 1831 1881 1968 2097 
Q 2106 2313 2186 2536 
Q 2266 2759 2266 3009 
Q 2266 3272 2169 3511 
Q 2072 3750 1880 3894 
Q 1688 4038 1416 4038 
Q 1138 4038 916 3870 
Q 694 3703 603 3438 
Q 628 3444 672 3444 
Q 816 3444 917 3347 
Q 1019 3250 1019 3097 
Q 1019 2950 917 2848 
Q 816 2747 672 2747 
Q 522 2747 420 2851 
Q 319 2956 319 3097 
Q 319 3338 409 3548 
Q 500 3759 670 3923 
Q 841 4088 1055 4175 
Q 1269 4263 1509 4263 
Q 1875 4263 2190 4108 
Q 2506 3953 2690 3670 
Q 2875 3388 2875 3009 
Q 2875 2731 2753 2481 
Q 2631 2231 2440 2026 
Q 2250 1822 1953 1562 
Q 1656 1303 1563 1216 
L 838 519 
L 1453 519 
Q 1906 519 2211 526 
Q 2516 534 2534 550 
Q 2609 631 2688 1141 
L 2875 1141 
L 2694 0 
L 319 0 
z
" transform="scale(0.015625)"/>
       </defs>
       <use xlink:href="#Cmr10-32" transform="translate(0 0.390625)"/>
       <use xlink:href="#Cmmi10-bc" transform="translate(64.632454 0.390625)"/>
      </g>
     </g>
    </g>
    <g id="xtick_4">
     <g id="line2d_4">
      <g>
       <use xlink:href="#m88a709b155" x="208.72584" y="177.242721" style="stroke: #000000; stroke-width: 0.8"/>
      </g>
     </g>
     <g id="text_3">
      <!-- $3 \, \pi$ -->
      <g transform="translate(202.62584 191.841159) scale(0.1 -0.1)">
       <defs>
        <path id="Cmr10-33" d="M 609 494 
Q 759 275 1012 169 
Q 1266 63 1556 63 
Q 1928 63 2084 380 
Q 2241 697 2241 1100 
Q 2241 1281 2208 1462 
Q 2175 1644 2097 1800 
Q 2019 1956 1883 2050 
Q 1747 2144 1550 2144 
L 1125 2144 
Q 1069 2144 1069 2203 
L 1069 2259 
Q 1069 2309 1125 2309 
L 1478 2338 
Q 1703 2338 1851 2506 
Q 2000 2675 2069 2917 
Q 2138 3159 2138 3378 
Q 2138 3684 1994 3881 
Q 1850 4078 1556 4078 
Q 1313 4078 1091 3986 
Q 869 3894 738 3706 
Q 750 3709 759 3711 
Q 769 3713 781 3713 
Q 925 3713 1022 3613 
Q 1119 3513 1119 3372 
Q 1119 3234 1022 3134 
Q 925 3034 781 3034 
Q 641 3034 541 3134 
Q 441 3234 441 3372 
Q 441 3647 606 3850 
Q 772 4053 1033 4158 
Q 1294 4263 1556 4263 
Q 1750 4263 1965 4205 
Q 2181 4147 2356 4039 
Q 2531 3931 2642 3762 
Q 2753 3594 2753 3378 
Q 2753 3109 2633 2881 
Q 2513 2653 2303 2487 
Q 2094 2322 1844 2241 
Q 2122 2188 2372 2031 
Q 2622 1875 2773 1631 
Q 2925 1388 2925 1106 
Q 2925 753 2731 467 
Q 2538 181 2222 20 
Q 1906 -141 1556 -141 
Q 1256 -141 954 -26 
Q 653 88 461 316 
Q 269 544 269 863 
Q 269 1022 375 1128 
Q 481 1234 641 1234 
Q 744 1234 830 1186 
Q 916 1138 964 1050 
Q 1013 963 1013 863 
Q 1013 706 903 600 
Q 794 494 641 494 
L 609 494 
z
" transform="scale(0.015625)"/>
       </defs>
       <use xlink:href="#Cmr10-33" transform="translate(0 0.390625)"/>
       <use xlink:href="#Cmmi10-bc" transform="translate(64.632454 0.390625)"/>
      </g>
     </g>
    </g>
    <g id="xtick_5">
     <g id="line2d_5">
      <g>
       <use xlink:href="#m88a709b155" x="240.034453" y="177.242721" style="stroke: #000000; stroke-width: 0.8"/>
      </g>
     </g>
     <g id="text_4">
      <!-- $4 \, \pi$ -->
      <g transform="translate(233.934453 191.841159) scale(0.1 -0.1)">
       <defs>
        <path id="Cmr10-34" d="M 178 1056 
L 178 1281 
L 2156 4231 
Q 2178 4263 2222 4263 
L 2316 4263 
Q 2388 4263 2388 4191 
L 2388 1281 
L 3016 1281 
L 3016 1056 
L 2388 1056 
L 2388 428 
Q 2388 297 2575 261 
Q 2763 225 3009 225 
L 3009 0 
L 1247 0 
L 1247 225 
Q 1494 225 1681 261 
Q 1869 297 1869 428 
L 1869 1056 
L 178 1056 
z
M 391 1281 
L 1906 1281 
L 1906 3547 
L 391 1281 
z
" transform="scale(0.015625)"/>
       </defs>
       <use xlink:href="#Cmr10-34" transform="translate(0 0.390625)"/>
       <use xlink:href="#Cmmi10-bc" transform="translate(64.632454 0.390625)"/>
      </g>
     </g>
    </g>
    <g id="xtick_6">
     <g id="line2d_6">
      <g>
       <use xlink:href="#m88a709b155" x="271.343066" y="177.242721" style="stroke: #000000; stroke-width: 0.8"/>
      </g>
     </g>
     <g id="text_5">
      <!-- $5 \, \pi$ -->
      <g transform="translate(265.243066 191.841159) scale(0.1 -0.1)">
       <defs>
        <path id="Cmr10-35" d="M 556 728 
Q 622 541 758 387 
Q 894 234 1080 148 
Q 1266 63 1466 63 
Q 1928 63 2103 422 
Q 2278 781 2278 1294 
Q 2278 1516 2270 1667 
Q 2263 1819 2228 1959 
Q 2169 2184 2020 2353 
Q 1872 2522 1656 2522 
Q 1441 2522 1286 2456 
Q 1131 2391 1034 2303 
Q 938 2216 863 2119 
Q 788 2022 769 2016 
L 697 2016 
Q 681 2016 657 2036 
Q 634 2056 634 2075 
L 634 4213 
Q 634 4228 654 4245 
Q 675 4263 697 4263 
L 716 4263 
Q 1147 4056 1631 4056 
Q 2106 4056 2547 4263 
L 2566 4263 
Q 2588 4263 2606 4247 
Q 2625 4231 2625 4213 
L 2625 4153 
Q 2625 4122 2613 4122 
Q 2394 3831 2064 3668 
Q 1734 3506 1381 3506 
Q 1125 3506 856 3578 
L 856 2369 
Q 1069 2541 1236 2614 
Q 1403 2688 1663 2688 
Q 2016 2688 2295 2484 
Q 2575 2281 2725 1954 
Q 2875 1628 2875 1288 
Q 2875 903 2686 575 
Q 2497 247 2172 53 
Q 1847 -141 1466 -141 
Q 1150 -141 886 21 
Q 622 184 470 459 
Q 319 734 319 1044 
Q 319 1188 412 1278 
Q 506 1369 647 1369 
Q 788 1369 883 1276 
Q 978 1184 978 1044 
Q 978 906 883 811 
Q 788 716 647 716 
Q 625 716 597 720 
Q 569 725 556 728 
z
" transform="scale(0.015625)"/>
       </defs>
       <use xlink:href="#Cmr10-35" transform="translate(0 0.390625)"/>
       <use xlink:href="#Cmmi10-bc" transform="translate(64.632454 0.390625)"/>
      </g>
     </g>
    </g>
    <g id="xtick_7">
     <g id="line2d_7">
      <g>
       <use xlink:href="#m88a709b155" x="302.651679" y="177.242721" style="stroke: #000000; stroke-width: 0.8"/>
      </g>
     </g>
     <g id="text_6">
      <!-- $6 \, \pi$ -->
      <g transform="translate(296.551679 191.841159) scale(0.1 -0.1)">
       <defs>
        <path id="Cmr10-36" d="M 1600 -141 
Q 1203 -141 937 70 
Q 672 281 526 617 
Q 381 953 325 1322 
Q 269 1691 269 2069 
Q 269 2575 466 3084 
Q 663 3594 1045 3928 
Q 1428 4263 1953 4263 
Q 2172 4263 2361 4180 
Q 2550 4097 2658 3936 
Q 2766 3775 2766 3547 
Q 2766 3416 2677 3327 
Q 2588 3238 2456 3238 
Q 2331 3238 2240 3328 
Q 2150 3419 2150 3547 
Q 2150 3672 2240 3762 
Q 2331 3853 2456 3853 
L 2491 3853 
Q 2409 3969 2261 4023 
Q 2113 4078 1953 4078 
Q 1759 4078 1595 3993 
Q 1431 3909 1300 3765 
Q 1169 3622 1081 3448 
Q 994 3275 945 3053 
Q 897 2831 884 2637 
Q 872 2444 872 2150 
Q 984 2413 1190 2580 
Q 1397 2747 1656 2747 
Q 1941 2747 2175 2631 
Q 2409 2516 2578 2311 
Q 2747 2106 2836 1843 
Q 2925 1581 2925 1313 
Q 2925 938 2758 598 
Q 2591 259 2287 59 
Q 1984 -141 1600 -141 
z
M 1600 63 
Q 1847 63 1997 175 
Q 2147 288 2217 473 
Q 2288 659 2305 848 
Q 2322 1038 2322 1313 
Q 2322 1675 2287 1931 
Q 2253 2188 2100 2383 
Q 1947 2578 1631 2578 
Q 1372 2578 1205 2403 
Q 1038 2228 961 1961 
Q 884 1694 884 1447 
Q 884 1363 891 1319 
Q 891 1309 889 1303 
Q 888 1297 884 1288 
Q 884 1013 940 731 
Q 997 450 1156 256 
Q 1316 63 1600 63 
z
" transform="scale(0.015625)"/>
       </defs>
       <use xlink:href="#Cmr10-36" transform="translate(0 0.390625)"/>
       <use xlink:href="#Cmmi10-bc" transform="translate(64.632454 0.390625)"/>
      </g>
     </g>
    </g>
    <g id="xtick_8">
     <g id="line2d_8">
      <g>
       <use xlink:href="#m88a709b155" x="333.960292" y="177.242721" style="stroke: #000000; stroke-width: 0.8"/>
      </g>
     </g>
     <g id="text_7">
      <!-- $7 \, \pi$ -->
      <g transform="translate(327.860292 191.841159) scale(0.1 -0.1)">
       <defs>
        <path id="Cmr10-37" d="M 1113 166 
Q 1113 522 1175 862 
Q 1238 1203 1358 1536 
Q 1478 1869 1648 2189 
Q 1819 2509 2022 2791 
L 2606 3603 
L 1875 3603 
Q 738 3603 703 3572 
Q 619 3469 544 2981 
L 359 2981 
L 569 4325 
L 756 4325 
L 756 4306 
Q 756 4191 1147 4156 
Q 1538 4122 1913 4122 
L 3103 4122 
L 3103 3956 
Q 3103 3950 3101 3947 
Q 3100 3944 3097 3938 
L 2216 2700 
Q 1891 2219 1809 1631 
Q 1728 1044 1728 166 
Q 1728 41 1637 -50 
Q 1547 -141 1422 -141 
Q 1294 -141 1203 -50 
Q 1113 41 1113 166 
z
" transform="scale(0.015625)"/>
       </defs>
       <use xlink:href="#Cmr10-37" transform="translate(0 0.421875)"/>
       <use xlink:href="#Cmmi10-bc" transform="translate(64.632454 0.421875)"/>
      </g>
     </g>
    </g>
    <g id="xtick_9">
     <g id="line2d_9">
      <g>
       <use xlink:href="#m88a709b155" x="365.268905" y="177.242721" style="stroke: #000000; stroke-width: 0.8"/>
      </g>
     </g>
     <g id="text_8">
      <!-- $8 \, \pi$ -->
      <g transform="translate(359.168905 191.841159) scale(0.1 -0.1)">
       <defs>
        <path id="Cmr10-38" d="M 269 972 
Q 269 1356 522 1651 
Q 775 1947 1172 2144 
L 934 2297 
Q 716 2441 578 2680 
Q 441 2919 441 3181 
Q 441 3488 602 3734 
Q 763 3981 1030 4122 
Q 1297 4263 1600 4263 
Q 1884 4263 2148 4147 
Q 2413 4031 2583 3815 
Q 2753 3600 2753 3303 
Q 2753 3088 2651 2903 
Q 2550 2719 2373 2572 
Q 2197 2425 1997 2322 
L 2363 2088 
Q 2616 1922 2770 1653 
Q 2925 1384 2925 1088 
Q 2925 741 2739 456 
Q 2553 172 2247 15 
Q 1941 -141 1600 -141 
Q 1269 -141 961 -6 
Q 653 128 461 383 
Q 269 638 269 972 
z
M 616 972 
Q 616 719 755 509 
Q 894 300 1122 181 
Q 1350 63 1600 63 
Q 1972 63 2275 280 
Q 2578 497 2578 856 
Q 2578 978 2529 1098 
Q 2481 1219 2395 1317 
Q 2309 1416 2203 1478 
L 1344 2034 
Q 1144 1928 976 1765 
Q 809 1603 712 1400 
Q 616 1197 616 972 
z
M 1056 2925 
L 1831 2425 
Q 2100 2581 2272 2803 
Q 2444 3025 2444 3303 
Q 2444 3519 2323 3698 
Q 2203 3878 2009 3978 
Q 1816 4078 1594 4078 
Q 1400 4078 1203 4003 
Q 1006 3928 878 3779 
Q 750 3631 750 3431 
Q 750 3131 1056 2925 
z
" transform="scale(0.015625)"/>
       </defs>
       <use xlink:href="#Cmr10-38" transform="translate(0 0.390625)"/>
       <use xlink:href="#Cmmi10-bc" transform="translate(64.632454 0.390625)"/>
      </g>
     </g>
    </g>
    <g id="xtick_10">
     <g id="line2d_10">
      <g>
       <use xlink:href="#m88a709b155" x="396.577519" y="177.242721" style="stroke: #000000; stroke-width: 0.8"/>
      </g>
     </g>
     <g id="text_9">
      <!-- $9 \, \pi$ -->
      <g transform="translate(390.477519 191.841159) scale(0.1 -0.1)">
       <defs>
        <path id="Cmr10-39" d="M 722 269 
Q 897 63 1331 63 
Q 1575 63 1786 228 
Q 1997 394 2113 634 
Q 2247 906 2284 1214 
Q 2322 1522 2322 1978 
Q 2213 1719 2008 1553 
Q 1803 1388 1538 1388 
Q 1166 1388 873 1589 
Q 581 1791 425 2120 
Q 269 2450 269 2822 
Q 269 3206 444 3539 
Q 619 3872 928 4067 
Q 1238 4263 1631 4263 
Q 2019 4263 2280 4052 
Q 2541 3841 2678 3508 
Q 2816 3175 2870 2803 
Q 2925 2431 2925 2069 
Q 2925 1575 2744 1061 
Q 2563 547 2202 203 
Q 1841 -141 1331 -141 
Q 953 -141 690 37 
Q 428 216 428 575 
Q 428 706 517 795 
Q 606 884 738 884 
Q 866 884 955 795 
Q 1044 706 1044 575 
Q 1044 450 953 359 
Q 863 269 738 269 
L 722 269 
z
M 1563 1556 
Q 1825 1556 1992 1732 
Q 2159 1909 2234 2171 
Q 2309 2434 2309 2694 
L 2309 2816 
L 2309 2841 
Q 2309 3322 2168 3700 
Q 2028 4078 1631 4078 
Q 1378 4078 1220 3967 
Q 1063 3856 988 3672 
Q 913 3488 892 3278 
Q 872 3069 872 2822 
Q 872 2459 906 2203 
Q 941 1947 1094 1751 
Q 1247 1556 1563 1556 
z
" transform="scale(0.015625)"/>
       </defs>
       <use xlink:href="#Cmr10-39" transform="translate(0 0.390625)"/>
       <use xlink:href="#Cmmi10-bc" transform="translate(64.632454 0.390625)"/>
      </g>
     </g>
    </g>
    <g id="xtick_11">
     <g id="line2d_11">
      <g>
       <use xlink:href="#m88a709b155" x="427.886132" y="177.242721" style="stroke: #000000; stroke-width: 0.8"/>
      </g>
     </g>
     <g id="text_10">
      <!-- $10 \, \pi$ -->
      <g transform="translate(419.286132 191.841159) scale(0.1 -0.1)">
       <defs>
        <path id="Cmr10-31" d="M 594 0 
L 594 225 
Q 1394 225 1394 428 
L 1394 3788 
Q 1063 3628 556 3628 
L 556 3853 
Q 1341 3853 1741 4263 
L 1831 4263 
Q 1853 4263 1873 4245 
Q 1894 4228 1894 4206 
L 1894 428 
Q 1894 225 2694 225 
L 2694 0 
L 594 0 
z
" transform="scale(0.015625)"/>
        <path id="Cmr10-30" d="M 1600 -141 
Q 816 -141 533 504 
Q 250 1150 250 2041 
Q 250 2597 351 3087 
Q 453 3578 754 3920 
Q 1056 4263 1600 4263 
Q 2022 4263 2290 4056 
Q 2559 3850 2700 3523 
Q 2841 3197 2892 2823 
Q 2944 2450 2944 2041 
Q 2944 1491 2842 1011 
Q 2741 531 2444 195 
Q 2147 -141 1600 -141 
z
M 1600 25 
Q 1956 25 2131 390 
Q 2306 756 2347 1200 
Q 2388 1644 2388 2144 
Q 2388 2625 2347 3031 
Q 2306 3438 2132 3767 
Q 1959 4097 1600 4097 
Q 1238 4097 1063 3765 
Q 888 3434 847 3029 
Q 806 2625 806 2144 
Q 806 1788 823 1472 
Q 841 1156 916 820 
Q 991 484 1158 254 
Q 1325 25 1600 25 
z
" transform="scale(0.015625)"/>
       </defs>
       <use xlink:href="#Cmr10-31" transform="translate(0 0.390625)"/>
       <use xlink:href="#Cmr10-30" transform="translate(50 0.390625)"/>
       <use xlink:href="#Cmmi10-bc" transform="translate(114.632454 0.390625)"/>
      </g>
     </g>
    </g>
    <g id="xtick_12">
     <g id="line2d_12">
      <defs>
       <path id="m8d613b13a0" d="M 0 0 
L 0 2 
" style="stroke: #000000; stroke-width: 0.6"/>
      </defs>
      <g>
       <use xlink:href="#m8d613b13a0" x="122.627153" y="177.242721" style="stroke: #000000; stroke-width: 0.6"/>
      </g>
     </g>
    </g>
    <g id="xtick_13">
     <g id="line2d_13">
      <g>
       <use xlink:href="#m8d613b13a0" x="130.454307" y="177.242721" style="stroke: #000000; stroke-width: 0.6"/>
      </g>
     </g>
    </g>
    <g id="xtick_14">
     <g id="line2d_14">
      <g>
       <use xlink:href="#m8d613b13a0" x="138.28146" y="177.242721" style="stroke: #000000; stroke-width: 0.6"/>
      </g>
     </g>
    </g>
    <g id="xtick_15">
     <g id="line2d_15">
      <g>
       <use xlink:href="#m8d613b13a0" x="153.935766" y="177.242721" style="stroke: #000000; stroke-width: 0.6"/>
      </g>
     </g>
    </g>
    <g id="xtick_16">
     <g id="line2d_16">
      <g>
       <use xlink:href="#m8d613b13a0" x="161.76292" y="177.242721" style="stroke: #000000; stroke-width: 0.6"/>
      </g>
     </g>
    </g>
    <g id="xtick_17">
     <g id="line2d_17">
      <g>
       <use xlink:href="#m8d613b13a0" x="169.590073" y="177.242721" style="stroke: #000000; stroke-width: 0.6"/>
      </g>
     </g>
    </g>
    <g id="xtick_18">
     <g id="line2d_18">
      <g>
       <use xlink:href="#m8d613b13a0" x="185.24438" y="177.242721" style="stroke: #000000; stroke-width: 0.6"/>
      </g>
     </g>
    </g>
    <g id="xtick_19">
     <g id="line2d_19">
      <g>
       <use xlink:href="#m8d613b13a0" x="193.071533" y="177.242721" style="stroke: #000000; stroke-width: 0.6"/>
      </g>
     </g>
    </g>
    <g id="xtick_20">
     <g id="line2d_20">
      <g>
       <use xlink:href="#m8d613b13a0" x="200.898686" y="177.242721" style="stroke: #000000; stroke-width: 0.6"/>
      </g>
     </g>
    </g>
    <g id="xtick_21">
     <g id="line2d_21">
      <g>
       <use xlink:href="#m8d613b13a0" x="216.552993" y="177.242721" style="stroke: #000000; stroke-width: 0.6"/>
      </g>
     </g>
    </g>
    <g id="xtick_22">
     <g id="line2d_22">
      <g>
       <use xlink:href="#m8d613b13a0" x="224.380146" y="177.242721" style="stroke: #000000; stroke-width: 0.6"/>
      </g>
     </g>
    </g>
    <g id="xtick_23">
     <g id="line2d_23">
      <g>
       <use xlink:href="#m8d613b13a0" x="232.207299" y="177.242721" style="stroke: #000000; stroke-width: 0.6"/>
      </g>
     </g>
    </g>
    <g id="xtick_24">
     <g id="line2d_24">
      <g>
       <use xlink:href="#m8d613b13a0" x="247.861606" y="177.242721" style="stroke: #000000; stroke-width: 0.6"/>
      </g>
     </g>
    </g>
    <g id="xtick_25">
     <g id="line2d_25">
      <g>
       <use xlink:href="#m8d613b13a0" x="255.688759" y="177.242721" style="stroke: #000000; stroke-width: 0.6"/>
      </g>
     </g>
    </g>
    <g id="xtick_26">
     <g id="line2d_26">
      <g>
       <use xlink:href="#m8d613b13a0" x="263.515913" y="177.242721" style="stroke: #000000; stroke-width: 0.6"/>
      </g>
     </g>
    </g>
    <g id="xtick_27">
     <g id="line2d_27">
      <g>
       <use xlink:href="#m8d613b13a0" x="279.170219" y="177.242721" style="stroke: #000000; stroke-width: 0.6"/>
      </g>
     </g>
    </g>
    <g id="xtick_28">
     <g id="line2d_28">
      <g>
       <use xlink:href="#m8d613b13a0" x="286.997372" y="177.242721" style="stroke: #000000; stroke-width: 0.6"/>
      </g>
     </g>
    </g>
    <g id="xtick_29">
     <g id="line2d_29">
      <g>
       <use xlink:href="#m8d613b13a0" x="294.824526" y="177.242721" style="stroke: #000000; stroke-width: 0.6"/>
      </g>
     </g>
    </g>
    <g id="xtick_30">
     <g id="line2d_30">
      <g>
       <use xlink:href="#m8d613b13a0" x="310.478832" y="177.242721" style="stroke: #000000; stroke-width: 0.6"/>
      </g>
     </g>
    </g>
    <g id="xtick_31">
     <g id="line2d_31">
      <g>
       <use xlink:href="#m8d613b13a0" x="318.305986" y="177.242721" style="stroke: #000000; stroke-width: 0.6"/>
      </g>
     </g>
    </g>
    <g id="xtick_32">
     <g id="line2d_32">
      <g>
       <use xlink:href="#m8d613b13a0" x="326.133139" y="177.242721" style="stroke: #000000; stroke-width: 0.6"/>
      </g>
     </g>
    </g>
    <g id="xtick_33">
     <g id="line2d_33">
      <g>
       <use xlink:href="#m8d613b13a0" x="341.787446" y="177.242721" style="stroke: #000000; stroke-width: 0.6"/>
      </g>
     </g>
    </g>
    <g id="xtick_34">
     <g id="line2d_34">
      <g>
       <use xlink:href="#m8d613b13a0" x="349.614599" y="177.242721" style="stroke: #000000; stroke-width: 0.6"/>
      </g>
     </g>
    </g>
    <g id="xtick_35">
     <g id="line2d_35">
      <g>
       <use xlink:href="#m8d613b13a0" x="357.441752" y="177.242721" style="stroke: #000000; stroke-width: 0.6"/>
      </g>
     </g>
    </g>
    <g id="xtick_36">
     <g id="line2d_36">
      <g>
       <use xlink:href="#m8d613b13a0" x="373.096059" y="177.242721" style="stroke: #000000; stroke-width: 0.6"/>
      </g>
     </g>
    </g>
    <g id="xtick_37">
     <g id="line2d_37">
      <g>
       <use xlink:href="#m8d613b13a0" x="380.923212" y="177.242721" style="stroke: #000000; stroke-width: 0.6"/>
      </g>
     </g>
    </g>
    <g id="xtick_38">
     <g id="line2d_38">
      <g>
       <use xlink:href="#m8d613b13a0" x="388.750365" y="177.242721" style="stroke: #000000; stroke-width: 0.6"/>
      </g>
     </g>
    </g>
    <g id="xtick_39">
     <g id="line2d_39">
      <g>
       <use xlink:href="#m8d613b13a0" x="404.404672" y="177.242721" style="stroke: #000000; stroke-width: 0.6"/>
      </g>
     </g>
    </g>
    <g id="xtick_40">
     <g id="line2d_40">
      <g>
       <use xlink:href="#m8d613b13a0" x="412.231825" y="177.242721" style="stroke: #000000; stroke-width: 0.6"/>
      </g>
     </g>
    </g>
    <g id="xtick_41">
     <g id="line2d_41">
      <g>
       <use xlink:href="#m8d613b13a0" x="420.058979" y="177.242721" style="stroke: #000000; stroke-width: 0.6"/>
      </g>
     </g>
    </g>
    <g id="text_11">
     <!-- $t$ -->
     <g transform="translate(442.147854 177.242721) scale(0.16 -0.16)">
      <defs>
       <path id="Cmmi10-74" d="M 397 519 
Q 397 613 416 697 
L 878 2534 
L 206 2534 
Q 141 2534 141 2619 
Q 166 2759 225 2759 
L 934 2759 
L 1191 3803 
Q 1216 3888 1291 3947 
Q 1366 4006 1459 4006 
Q 1541 4006 1595 3957 
Q 1650 3909 1650 3828 
Q 1650 3809 1648 3798 
Q 1647 3788 1644 3775 
L 1388 2759 
L 2047 2759 
Q 2113 2759 2113 2675 
Q 2109 2659 2100 2621 
Q 2091 2584 2075 2559 
Q 2059 2534 2028 2534 
L 1331 2534 
L 872 684 
Q 825 503 825 372 
Q 825 97 1013 97 
Q 1294 97 1511 361 
Q 1728 625 1844 941 
Q 1869 978 1894 978 
L 1972 978 
Q 1997 978 2012 961 
Q 2028 944 2028 922 
Q 2028 909 2022 903 
Q 1881 516 1612 222 
Q 1344 -72 997 -72 
Q 744 -72 570 93 
Q 397 259 397 519 
z
" transform="scale(0.015625)"/>
      </defs>
      <use xlink:href="#Cmmi10-74" transform="translate(0 0.40625)"/>
     </g>
    </g>
   </g>
   <g id="matplotlib.axis_2">
    <g id="ytick_1">
     <g id="line2d_42">
      <defs>
       <path id="m516d52b173" d="M 0 0 
L -3.5 0 
" style="stroke: #000000; stroke-width: 0.8"/>
      </defs>
      <g>
       <use xlink:href="#m516d52b173" x="114.8" y="315.673638" style="stroke: #000000; stroke-width: 0.8"/>
      </g>
     </g>
     <g id="text_12">
      <!-- $-0.30000000000000004$ -->
      <g transform="translate(7.2 319.472856) scale(0.1 -0.1)">
       <defs>
        <path id="Cmsy10-a1" d="M 653 1472 
Q 600 1472 565 1512 
Q 531 1553 531 1600 
Q 531 1647 565 1687 
Q 600 1728 653 1728 
L 4325 1728 
Q 4375 1728 4408 1687 
Q 4441 1647 4441 1600 
Q 4441 1553 4408 1512 
Q 4375 1472 4325 1472 
L 653 1472 
z
" transform="scale(0.015625)"/>
        <path id="Cmmi10-3a" d="M 538 353 
Q 538 497 644 600 
Q 750 703 891 703 
Q 978 703 1062 656 
Q 1147 609 1194 525 
Q 1241 441 1241 353 
Q 1241 213 1137 106 
Q 1034 0 891 0 
Q 750 0 644 106 
Q 538 213 538 353 
z
" transform="scale(0.015625)"/>
       </defs>
       <use xlink:href="#Cmsy10-a1" transform="translate(0 0.390625)"/>
       <use xlink:href="#Cmr10-30" transform="translate(77.685547 0.390625)"/>
       <use xlink:href="#Cmmi10-3a" transform="translate(127.685547 0.390625)"/>
       <use xlink:href="#Cmr10-33" transform="translate(155.371094 0.390625)"/>
       <use xlink:href="#Cmr10-30" transform="translate(205.371094 0.390625)"/>
       <use xlink:href="#Cmr10-30" transform="translate(255.371094 0.390625)"/>
       <use xlink:href="#Cmr10-30" transform="translate(305.371094 0.390625)"/>
       <use xlink:href="#Cmr10-30" transform="translate(355.371094 0.390625)"/>
       <use xlink:href="#Cmr10-30" transform="translate(405.371094 0.390625)"/>
       <use xlink:href="#Cmr10-30" transform="translate(455.371094 0.390625)"/>
       <use xlink:href="#Cmr10-30" transform="translate(505.371094 0.390625)"/>
       <use xlink:href="#Cmr10-30" transform="translate(555.371094 0.390625)"/>
       <use xlink:href="#Cmr10-30" transform="translate(605.371094 0.390625)"/>
       <use xlink:href="#Cmr10-30" transform="translate(655.371094 0.390625)"/>
       <use xlink:href="#Cmr10-30" transform="translate(705.371094 0.390625)"/>
       <use xlink:href="#Cmr10-30" transform="translate(755.371094 0.390625)"/>
       <use xlink:href="#Cmr10-30" transform="translate(805.371094 0.390625)"/>
       <use xlink:href="#Cmr10-30" transform="translate(855.371094 0.390625)"/>
       <use xlink:href="#Cmr10-30" transform="translate(905.371094 0.390625)"/>
       <use xlink:href="#Cmr10-34" transform="translate(955.371094 0.390625)"/>
      </g>
     </g>
    </g>
    <g id="ytick_2">
     <g id="line2d_43">
      <g>
       <use xlink:href="#m516d52b173" x="114.8" y="269.529999" style="stroke: #000000; stroke-width: 0.8"/>
      </g>
     </g>
     <g id="text_13">
      <!-- $-0.2$ -->
      <g transform="translate(87.2 273.329218) scale(0.1 -0.1)">
       <use xlink:href="#Cmsy10-a1" transform="translate(0 0.390625)"/>
       <use xlink:href="#Cmr10-30" transform="translate(77.685547 0.390625)"/>
       <use xlink:href="#Cmmi10-3a" transform="translate(127.685547 0.390625)"/>
       <use xlink:href="#Cmr10-32" transform="translate(155.371094 0.390625)"/>
      </g>
     </g>
    </g>
    <g id="ytick_3">
     <g id="line2d_44">
      <g>
       <use xlink:href="#m516d52b173" x="114.8" y="223.38636" style="stroke: #000000; stroke-width: 0.8"/>
      </g>
     </g>
     <g id="text_14">
      <!-- $-0.09999999999999998$ -->
      <g transform="translate(7.2 227.185579) scale(0.1 -0.1)">
       <use xlink:href="#Cmsy10-a1" transform="translate(0 0.390625)"/>
       <use xlink:href="#Cmr10-30" transform="translate(77.685547 0.390625)"/>
       <use xlink:href="#Cmmi10-3a" transform="translate(127.685547 0.390625)"/>
       <use xlink:href="#Cmr10-30" transform="translate(155.371094 0.390625)"/>
       <use xlink:href="#Cmr10-39" transform="translate(205.371094 0.390625)"/>
       <use xlink:href="#Cmr10-39" transform="translate(255.371094 0.390625)"/>
       <use xlink:href="#Cmr10-39" transform="translate(305.371094 0.390625)"/>
       <use xlink:href="#Cmr10-39" transform="translate(355.371094 0.390625)"/>
       <use xlink:href="#Cmr10-39" transform="translate(405.371094 0.390625)"/>
       <use xlink:href="#Cmr10-39" transform="translate(455.371094 0.390625)"/>
       <use xlink:href="#Cmr10-39" transform="translate(505.371094 0.390625)"/>
       <use xlink:href="#Cmr10-39" transform="translate(555.371094 0.390625)"/>
       <use xlink:href="#Cmr10-39" transform="translate(605.371094 0.390625)"/>
       <use xlink:href="#Cmr10-39" transform="translate(655.371094 0.390625)"/>
       <use xlink:href="#Cmr10-39" transform="translate(705.371094 0.390625)"/>
       <use xlink:href="#Cmr10-39" transform="translate(755.371094 0.390625)"/>
       <use xlink:href="#Cmr10-39" transform="translate(805.371094 0.390625)"/>
       <use xlink:href="#Cmr10-39" transform="translate(855.371094 0.390625)"/>
       <use xlink:href="#Cmr10-39" transform="translate(905.371094 0.390625)"/>
       <use xlink:href="#Cmr10-38" transform="translate(955.371094 0.390625)"/>
      </g>
     </g>
    </g>
    <g id="ytick_4">
     <g id="line2d_45">
      <g>
       <use xlink:href="#m516d52b173" x="114.8" y="177.242721" style="stroke: #000000; stroke-width: 0.8"/>
      </g>
     </g>
    </g>
    <g id="ytick_5">
     <g id="line2d_46">
      <g>
       <use xlink:href="#m516d52b173" x="114.8" y="131.099082" style="stroke: #000000; stroke-width: 0.8"/>
      </g>
     </g>
     <g id="text_15">
      <!-- $0.09999999999999998$ -->
      <g transform="translate(15 134.898301) scale(0.1 -0.1)">
       <use xlink:href="#Cmr10-30" transform="translate(0 0.390625)"/>
       <use xlink:href="#Cmmi10-3a" transform="translate(50 0.390625)"/>
       <use xlink:href="#Cmr10-30" transform="translate(77.685547 0.390625)"/>
       <use xlink:href="#Cmr10-39" transform="translate(127.685547 0.390625)"/>
       <use xlink:href="#Cmr10-39" transform="translate(177.685547 0.390625)"/>
       <use xlink:href="#Cmr10-39" transform="translate(227.685547 0.390625)"/>
       <use xlink:href="#Cmr10-39" transform="translate(277.685547 0.390625)"/>
       <use xlink:href="#Cmr10-39" transform="translate(327.685547 0.390625)"/>
       <use xlink:href="#Cmr10-39" transform="translate(377.685547 0.390625)"/>
       <use xlink:href="#Cmr10-39" transform="translate(427.685547 0.390625)"/>
       <use xlink:href="#Cmr10-39" transform="translate(477.685547 0.390625)"/>
       <use xlink:href="#Cmr10-39" transform="translate(527.685547 0.390625)"/>
       <use xlink:href="#Cmr10-39" transform="translate(577.685547 0.390625)"/>
       <use xlink:href="#Cmr10-39" transform="translate(627.685547 0.390625)"/>
       <use xlink:href="#Cmr10-39" transform="translate(677.685547 0.390625)"/>
       <use xlink:href="#Cmr10-39" transform="translate(727.685547 0.390625)"/>
       <use xlink:href="#Cmr10-39" transform="translate(777.685547 0.390625)"/>
       <use xlink:href="#Cmr10-39" transform="translate(827.685547 0.390625)"/>
       <use xlink:href="#Cmr10-38" transform="translate(877.685547 0.390625)"/>
      </g>
     </g>
    </g>
    <g id="ytick_6">
     <g id="line2d_47">
      <g>
       <use xlink:href="#m516d52b173" x="114.8" y="84.955444" style="stroke: #000000; stroke-width: 0.8"/>
      </g>
     </g>
     <g id="text_16">
      <!-- $0.20000000000000007$ -->
      <g transform="translate(15 88.754662) scale(0.1 -0.1)">
       <use xlink:href="#Cmr10-30" transform="translate(0 0.421875)"/>
       <use xlink:href="#Cmmi10-3a" transform="translate(50 0.421875)"/>
       <use xlink:href="#Cmr10-32" transform="translate(77.685547 0.421875)"/>
       <use xlink:href="#Cmr10-30" transform="translate(127.685547 0.421875)"/>
       <use xlink:href="#Cmr10-30" transform="translate(177.685547 0.421875)"/>
       <use xlink:href="#Cmr10-30" transform="translate(227.685547 0.421875)"/>
       <use xlink:href="#Cmr10-30" transform="translate(277.685547 0.421875)"/>
       <use xlink:href="#Cmr10-30" transform="translate(327.685547 0.421875)"/>
       <use xlink:href="#Cmr10-30" transform="translate(377.685547 0.421875)"/>
       <use xlink:href="#Cmr10-30" transform="translate(427.685547 0.421875)"/>
       <use xlink:href="#Cmr10-30" transform="translate(477.685547 0.421875)"/>
       <use xlink:href="#Cmr10-30" transform="translate(527.685547 0.421875)"/>
       <use xlink:href="#Cmr10-30" transform="translate(577.685547 0.421875)"/>
       <use xlink:href="#Cmr10-30" transform="translate(627.685547 0.421875)"/>
       <use xlink:href="#Cmr10-30" transform="translate(677.685547 0.421875)"/>
       <use xlink:href="#Cmr10-30" transform="translate(727.685547 0.421875)"/>
       <use xlink:href="#Cmr10-30" transform="translate(777.685547 0.421875)"/>
       <use xlink:href="#Cmr10-30" transform="translate(827.685547 0.421875)"/>
       <use xlink:href="#Cmr10-37" transform="translate(877.685547 0.421875)"/>
      </g>
     </g>
    </g>
    <g id="ytick_7">
     <g id="line2d_48">
      <g>
       <use xlink:href="#m516d52b173" x="114.8" y="38.811805" style="stroke: #000000; stroke-width: 0.8"/>
      </g>
     </g>
     <g id="text_17">
      <!-- $0.30000000000000004$ -->
      <g transform="translate(15 42.611023) scale(0.1 -0.1)">
       <use xlink:href="#Cmr10-30" transform="translate(0 0.390625)"/>
       <use xlink:href="#Cmmi10-3a" transform="translate(50 0.390625)"/>
       <use xlink:href="#Cmr10-33" transform="translate(77.685547 0.390625)"/>
       <use xlink:href="#Cmr10-30" transform="translate(127.685547 0.390625)"/>
       <use xlink:href="#Cmr10-30" transform="translate(177.685547 0.390625)"/>
       <use xlink:href="#Cmr10-30" transform="translate(227.685547 0.390625)"/>
       <use xlink:href="#Cmr10-30" transform="translate(277.685547 0.390625)"/>
       <use xlink:href="#Cmr10-30" transform="translate(327.685547 0.390625)"/>
       <use xlink:href="#Cmr10-30" transform="translate(377.685547 0.390625)"/>
       <use xlink:href="#Cmr10-30" transform="translate(427.685547 0.390625)"/>
       <use xlink:href="#Cmr10-30" transform="translate(477.685547 0.390625)"/>
       <use xlink:href="#Cmr10-30" transform="translate(527.685547 0.390625)"/>
       <use xlink:href="#Cmr10-30" transform="translate(577.685547 0.390625)"/>
       <use xlink:href="#Cmr10-30" transform="translate(627.685547 0.390625)"/>
       <use xlink:href="#Cmr10-30" transform="translate(677.685547 0.390625)"/>
       <use xlink:href="#Cmr10-30" transform="translate(727.685547 0.390625)"/>
       <use xlink:href="#Cmr10-30" transform="translate(777.685547 0.390625)"/>
       <use xlink:href="#Cmr10-30" transform="translate(827.685547 0.390625)"/>
       <use xlink:href="#Cmr10-34" transform="translate(877.685547 0.390625)"/>
      </g>
     </g>
    </g>
    <g id="ytick_8">
     <g id="line2d_49">
      <defs>
       <path id="m53e0510395" d="M 0 0 
L -2 0 
" style="stroke: #000000; stroke-width: 0.6"/>
      </defs>
      <g>
       <use xlink:href="#m53e0510395" x="114.8" y="324.902365" style="stroke: #000000; stroke-width: 0.6"/>
      </g>
     </g>
    </g>
    <g id="ytick_9">
     <g id="line2d_50">
      <g>
       <use xlink:href="#m53e0510395" x="114.8" y="306.44491" style="stroke: #000000; stroke-width: 0.6"/>
      </g>
     </g>
    </g>
    <g id="ytick_10">
     <g id="line2d_51">
      <g>
       <use xlink:href="#m53e0510395" x="114.8" y="297.216182" style="stroke: #000000; stroke-width: 0.6"/>
      </g>
     </g>
    </g>
    <g id="ytick_11">
     <g id="line2d_52">
      <g>
       <use xlink:href="#m53e0510395" x="114.8" y="287.987454" style="stroke: #000000; stroke-width: 0.6"/>
      </g>
     </g>
    </g>
    <g id="ytick_12">
     <g id="line2d_53">
      <g>
       <use xlink:href="#m53e0510395" x="114.8" y="278.758727" style="stroke: #000000; stroke-width: 0.6"/>
      </g>
     </g>
    </g>
    <g id="ytick_13">
     <g id="line2d_54">
      <g>
       <use xlink:href="#m53e0510395" x="114.8" y="260.301271" style="stroke: #000000; stroke-width: 0.6"/>
      </g>
     </g>
    </g>
    <g id="ytick_14">
     <g id="line2d_55">
      <g>
       <use xlink:href="#m53e0510395" x="114.8" y="251.072543" style="stroke: #000000; stroke-width: 0.6"/>
      </g>
     </g>
    </g>
    <g id="ytick_15">
     <g id="line2d_56">
      <g>
       <use xlink:href="#m53e0510395" x="114.8" y="241.843816" style="stroke: #000000; stroke-width: 0.6"/>
      </g>
     </g>
    </g>
    <g id="ytick_16">
     <g id="line2d_57">
      <g>
       <use xlink:href="#m53e0510395" x="114.8" y="232.615088" style="stroke: #000000; stroke-width: 0.6"/>
      </g>
     </g>
    </g>
    <g id="ytick_17">
     <g id="line2d_58">
      <g>
       <use xlink:href="#m53e0510395" x="114.8" y="214.157632" style="stroke: #000000; stroke-width: 0.6"/>
      </g>
     </g>
    </g>
    <g id="ytick_18">
     <g id="line2d_59">
      <g>
       <use xlink:href="#m53e0510395" x="114.8" y="204.928905" style="stroke: #000000; stroke-width: 0.6"/>
      </g>
     </g>
    </g>
    <g id="ytick_19">
     <g id="line2d_60">
      <g>
       <use xlink:href="#m53e0510395" x="114.8" y="195.700177" style="stroke: #000000; stroke-width: 0.6"/>
      </g>
     </g>
    </g>
    <g id="ytick_20">
     <g id="line2d_61">
      <g>
       <use xlink:href="#m53e0510395" x="114.8" y="186.471449" style="stroke: #000000; stroke-width: 0.6"/>
      </g>
     </g>
    </g>
    <g id="ytick_21">
     <g id="line2d_62">
      <g>
       <use xlink:href="#m53e0510395" x="114.8" y="168.013993" style="stroke: #000000; stroke-width: 0.6"/>
      </g>
     </g>
    </g>
    <g id="ytick_22">
     <g id="line2d_63">
      <g>
       <use xlink:href="#m53e0510395" x="114.8" y="158.785266" style="stroke: #000000; stroke-width: 0.6"/>
      </g>
     </g>
    </g>
    <g id="ytick_23">
     <g id="line2d_64">
      <g>
       <use xlink:href="#m53e0510395" x="114.8" y="149.556538" style="stroke: #000000; stroke-width: 0.6"/>
      </g>
     </g>
    </g>
    <g id="ytick_24">
     <g id="line2d_65">
      <g>
       <use xlink:href="#m53e0510395" x="114.8" y="140.32781" style="stroke: #000000; stroke-width: 0.6"/>
      </g>
     </g>
    </g>
    <g id="ytick_25">
     <g id="line2d_66">
      <g>
       <use xlink:href="#m53e0510395" x="114.8" y="121.870355" style="stroke: #000000; stroke-width: 0.6"/>
      </g>
     </g>
    </g>
    <g id="ytick_26">
     <g id="line2d_67">
      <g>
       <use xlink:href="#m53e0510395" x="114.8" y="112.641627" style="stroke: #000000; stroke-width: 0.6"/>
      </g>
     </g>
    </g>
    <g id="ytick_27">
     <g id="line2d_68">
      <g>
       <use xlink:href="#m53e0510395" x="114.8" y="103.412899" style="stroke: #000000; stroke-width: 0.6"/>
      </g>
     </g>
    </g>
    <g id="ytick_28">
     <g id="line2d_69">
      <g>
       <use xlink:href="#m53e0510395" x="114.8" y="94.184171" style="stroke: #000000; stroke-width: 0.6"/>
      </g>
     </g>
    </g>
    <g id="ytick_29">
     <g id="line2d_70">
      <g>
       <use xlink:href="#m53e0510395" x="114.8" y="75.726716" style="stroke: #000000; stroke-width: 0.6"/>
      </g>
     </g>
    </g>
    <g id="ytick_30">
     <g id="line2d_71">
      <g>
       <use xlink:href="#m53e0510395" x="114.8" y="66.497988" style="stroke: #000000; stroke-width: 0.6"/>
      </g>
     </g>
    </g>
    <g id="ytick_31">
     <g id="line2d_72">
      <g>
       <use xlink:href="#m53e0510395" x="114.8" y="57.26926" style="stroke: #000000; stroke-width: 0.6"/>
      </g>
     </g>
    </g>
    <g id="ytick_32">
     <g id="line2d_73">
      <g>
       <use xlink:href="#m53e0510395" x="114.8" y="48.040532" style="stroke: #000000; stroke-width: 0.6"/>
      </g>
     </g>
    </g>
    <g id="ytick_33">
     <g id="line2d_74">
      <g>
       <use xlink:href="#m53e0510395" x="114.8" y="29.583077" style="stroke: #000000; stroke-width: 0.6"/>
      </g>
     </g>
    </g>
    <g id="text_18">
     <!-- $x(t)$ -->
     <g transform="translate(101.12 11.7) scale(0.16 -0.16)">
      <defs>
       <path id="Cmmi10-78" d="M 500 184 
Q 613 97 819 97 
Q 1019 97 1172 289 
Q 1325 481 1381 709 
L 1672 1844 
Q 1741 2153 1741 2266 
Q 1741 2425 1652 2544 
Q 1563 2663 1403 2663 
Q 1200 2663 1022 2536 
Q 844 2409 722 2214 
Q 600 2019 550 1819 
Q 538 1778 500 1778 
L 422 1778 
Q 372 1778 372 1838 
L 372 1856 
Q 434 2094 584 2320 
Q 734 2547 951 2687 
Q 1169 2828 1416 2828 
Q 1650 2828 1839 2703 
Q 2028 2578 2106 2363 
Q 2216 2559 2386 2693 
Q 2556 2828 2759 2828 
Q 2897 2828 3040 2779 
Q 3184 2731 3275 2631 
Q 3366 2531 3366 2381 
Q 3366 2219 3261 2101 
Q 3156 1984 2994 1984 
Q 2891 1984 2822 2050 
Q 2753 2116 2753 2216 
Q 2753 2350 2845 2451 
Q 2938 2553 3066 2572 
Q 2950 2663 2747 2663 
Q 2541 2663 2389 2472 
Q 2238 2281 2175 2047 
L 1894 916 
Q 1825 659 1825 494 
Q 1825 331 1917 214 
Q 2009 97 2163 97 
Q 2463 97 2698 361 
Q 2934 625 3009 941 
Q 3022 978 3059 978 
L 3138 978 
Q 3163 978 3178 961 
Q 3194 944 3194 922 
Q 3194 916 3188 903 
Q 3097 522 2806 225 
Q 2516 -72 2150 -72 
Q 1916 -72 1727 54 
Q 1538 181 1459 397 
Q 1359 209 1182 68 
Q 1006 -72 806 -72 
Q 669 -72 523 -23 
Q 378 25 287 125 
Q 197 225 197 378 
Q 197 528 301 651 
Q 406 775 563 775 
Q 669 775 741 711 
Q 813 647 813 544 
Q 813 409 723 309 
Q 634 209 500 184 
z
" transform="scale(0.015625)"/>
       <path id="Cmr10-28" d="M 1984 -1588 
Q 1628 -1306 1370 -942 
Q 1113 -578 948 -165 
Q 784 247 703 697 
Q 622 1147 622 1600 
Q 622 2059 703 2509 
Q 784 2959 951 3375 
Q 1119 3791 1378 4153 
Q 1638 4516 1984 4788 
Q 1984 4800 2016 4800 
L 2075 4800 
Q 2094 4800 2109 4783 
Q 2125 4766 2125 4744 
Q 2125 4716 2113 4703 
Q 1800 4397 1592 4047 
Q 1384 3697 1257 3301 
Q 1131 2906 1075 2482 
Q 1019 2059 1019 1600 
Q 1019 -434 2106 -1491 
Q 2125 -1509 2125 -1544 
Q 2125 -1559 2108 -1579 
Q 2091 -1600 2075 -1600 
L 2016 -1600 
Q 1984 -1600 1984 -1588 
z
" transform="scale(0.015625)"/>
       <path id="Cmr10-29" d="M 416 -1600 
Q 359 -1600 359 -1544 
Q 359 -1516 372 -1503 
Q 1466 -434 1466 1600 
Q 1466 3634 384 4691 
Q 359 4706 359 4744 
Q 359 4766 376 4783 
Q 394 4800 416 4800 
L 475 4800 
Q 494 4800 506 4788 
Q 966 4425 1272 3906 
Q 1578 3388 1720 2800 
Q 1863 2213 1863 1600 
Q 1863 1147 1786 708 
Q 1709 269 1542 -157 
Q 1375 -584 1119 -945 
Q 863 -1306 506 -1588 
Q 494 -1600 475 -1600 
L 416 -1600 
z
" transform="scale(0.015625)"/>
      </defs>
      <use xlink:href="#Cmmi10-78"/>
      <use xlink:href="#Cmr10-28" transform="translate(57.080078 0)"/>
      <use xlink:href="#Cmmi10-74" transform="translate(95.898438 0)"/>
      <use xlink:href="#Cmr10-29" transform="translate(131.982422 0)"/>
     </g>
    </g>
   </g>
   <g id="line2d_75">
    <path d="M 114.8 177.242721 
L 115.307762 175.005951 
L 115.815525 170.051997 
L 116.323287 166.61353 
L 116.577169 166.841775 
L 116.83105 168.835027 
L 118.477984 204.202849 
L 118.686229 205.476158 
L 118.894474 204.705082 
L 119.102719 201.747754 
L 119.519209 189.571999 
L 120.96626 132.608386 
L 121.192059 131.316657 
L 121.417858 133.834225 
L 121.643658 140.197591 
L 122.095256 162.920246 
L 123.26139 233.664231 
L 123.627942 240.336922 
L 123.750126 239.647673 
L 123.994495 233.719038 
L 124.483231 205.409861 
L 125.806379 104.016157 
L 126.019978 98.604708 
L 126.233576 98.767327 
L 126.447175 104.680205 
L 126.874372 132.34877 
L 128.284972 263.611771 
L 128.453101 269.558461 
L 128.621231 271.470403 
L 128.789361 269.178011 
L 129.12562 252.248477 
L 129.630009 201.839473 
L 130.638788 87.630984 
L 130.975047 71.074784 
L 131.090012 69.562837 
L 131.204977 70.291575 
L 131.434907 78.458432 
L 131.779801 106.199393 
L 132.166673 153.866753 
L 133.11835 275.081478 
L 133.390257 292.32073 
L 133.526211 296.118861 
L 133.662165 296.478053 
L 133.798119 293.353696 
L 134.070026 276.987197 
L 134.410738 239.959361 
L 135.799416 57.320478 
L 136.043778 48.228163 
L 136.165959 48.167201 
L 136.28814 51.149107 
L 136.532503 65.968348 
L 136.899046 107.498892 
L 138.256261 301.500195 
L 138.501688 313.350037 
L 138.624401 314.518147 
L 138.747115 312.431562 
L 138.992542 298.707918 
L 139.360682 257.012663 
L 140.895912 39.217488 
L 141.093687 34.235767 
L 141.177326 34.765502 
L 141.344605 40.521673 
L 141.511885 52.321055 
L 141.846443 91.813761 
L 143.351956 316.249146 
L 143.602874 323.736923 
L 143.686514 323.027723 
L 143.829243 318.11845 
L 144.114701 295.029902 
L 144.602706 223.284974 
L 145.638534 54.548659 
L 145.98381 31.391393 
L 146.070129 29.75534 
L 146.156448 29.849198 
L 146.329086 35.201804 
L 146.501724 47.197242 
L 146.847 88.572316 
L 148.306084 313.243859 
L 148.561032 323.471224 
L 148.688507 323.016216 
L 148.943455 311.056705 
L 149.325878 268.545426 
L 150.090724 136.926553 
L 150.582787 64.523861 
L 150.893302 39.47537 
L 151.04856 34.6375 
L 151.203818 35.208524 
L 151.359076 41.14523 
L 151.669592 67.933151 
L 151.980108 110.811414 
L 153.161393 293.209728 
L 153.411131 310.277632 
L 153.536 313.956269 
L 153.660869 314.271444 
L 153.785738 311.23194 
L 154.035476 295.53462 
L 154.410083 251.603651 
L 155.699914 64.718268 
L 155.996298 49.133558 
L 156.095092 47.838681 
L 156.193887 48.534971 
L 156.391476 55.784632 
L 156.696986 81.067128 
L 157.24043 155.477168 
L 158.082251 271.216171 
L 158.37518 291.606276 
L 158.62431 296.729972 
L 158.748874 294.916639 
L 158.998004 282.890871 
L 159.371698 246.897556 
L 160.822032 76.420556 
L 161.053385 69.771826 
L 161.169062 69.855755 
L 161.400414 76.709883 
L 161.747443 101.93531 
L 162.094472 140.163619 
L 163.071398 250.741678 
L 163.39704 268.300061 
L 163.614135 271.465003 
L 163.722682 270.414091 
L 163.943171 263.093526 
L 164.278993 240.270332 
L 165.835187 102.274201 
L 166.048091 98.112493 
L 166.260996 99.654898 
L 166.4739 106.604695 
L 166.899709 133.704767 
L 168.021062 224.44765 
L 168.382733 238.283244 
L 168.563568 240.317802 
L 168.744404 239.05675 
L 168.925239 234.688199 
L 169.28691 218.142943 
L 170.552759 140.969682 
L 170.812466 133.581902 
L 171.072172 131.278873 
L 173.387195 205.173887 
L 173.694401 204.637167 
L 174.001608 200.14921 
L 175.126252 172.757359 
L 175.381367 168.890602 
L 175.636482 166.857154 
L 175.891598 166.608324 
L 176.146713 167.83921 
L 176.656944 172.650564 
L 177.240871 176.956081 
L 177.532835 177.118965 
L 177.824798 175.765625 
L 178.814437 167.070522 
L 179.061847 166.516353 
L 179.309256 167.515447 
L 179.556666 170.2464 
L 179.804076 174.6449 
L 180.756685 198.565843 
L 181.26519 205.388735 
L 181.456159 205.121593 
L 181.647128 203.032388 
L 182.029065 193.436112 
L 182.601972 168.956164 
L 183.411977 135.928125 
L 183.614478 132.215482 
L 183.816979 131.338621 
L 184.019481 133.535106 
L 184.221982 138.83587 
L 184.687295 161.373103 
L 185.850576 232.657914 
L 186.083233 238.946733 
L 186.270168 240.319239 
L 186.457104 238.17155 
L 186.830975 223.46559 
L 187.204846 197.147719 
L 188.200605 114.987864 
L 188.615196 98.911385 
L 188.822492 98.41479 
L 189.029788 103.336756 
L 189.364196 122.12351 
L 189.745534 156.49554 
L 190.757315 255.512002 
L 191.092868 270.054589 
L 191.260645 271.410212 
L 191.428421 268.570681 
L 191.70805 254.721013 
L 192.043607 224.992363 
L 193.385834 79.208631 
L 193.644214 70.116698 
L 193.773404 69.706908 
L 193.902594 72.138969 
L 194.160975 85.330454 
L 194.607421 130.52032 
L 195.735818 275.102065 
L 196.056816 294.089418 
L 196.189747 296.631764 
L 196.322679 295.860569 
L 196.588541 284.430213 
L 196.987336 245.172346 
L 198.439819 55.961913 
L 198.699174 47.882191 
L 198.828852 48.926726 
L 199.088207 61.166158 
L 199.477239 102.161133 
L 200.980679 308.193299 
L 201.17069 314.238781 
L 201.265696 314.365502 
L 201.455708 308.781517 
L 201.745069 286.049435 
L 202.043118 247.498607 
L 203.359716 48.915806 
L 203.666115 34.600169 
L 203.819315 35.224546 
L 203.972515 41.098513 
L 204.278915 67.615281 
L 204.738514 136.02052 
L 205.764332 299.952393 
L 206.045909 320.049083 
L 206.186697 323.569077 
L 206.327485 322.532769 
L 206.609062 307.031182 
L 207.031427 254.704879 
L 208.352117 45.534046 
L 208.604629 31.288985 
L 208.730885 29.586039 
L 208.857141 31.584179 
L 209.109653 46.390032 
L 209.488422 92.195819 
L 210.916968 312.805538 
L 211.153749 323.129095 
L 211.272139 323.499652 
L 211.390529 320.647683 
L 211.651826 303.390209 
L 211.993914 261.09049 
L 213.388179 46.998749 
L 213.696126 34.3223 
L 213.798776 34.793753 
L 214.004074 42.757103 
L 214.312022 70.888817 
L 214.825269 148.778839 
L 215.663285 281.299598 
L 216.042916 310.878083 
L 216.169459 314.188092 
L 216.296003 314.040346 
L 216.422546 310.455828 
L 216.675633 293.49171 
L 217.055264 247.562761 
L 218.2582 69.799042 
L 218.525519 51.957011 
L 218.659179 48.287584 
L 218.792838 48.25664 
L 218.926498 51.838488 
L 219.193817 69.232974 
L 219.628589 121.026837 
L 220.689398 270.261069 
L 221.025585 292.959098 
L 221.193679 296.652534 
L 221.361773 295.027968 
L 221.529867 288.222146 
L 221.896472 257.474965 
L 222.690515 150.749805 
L 223.286048 85.665383 
L 223.5764 71.388229 
L 223.721575 69.528311 
L 223.866751 71.246497 
L 224.157102 84.880551 
L 224.447454 110.129182 
L 225.780745 257.184139 
L 226.124516 270.788136 
L 226.296401 271.043756 
L 226.508835 265.403396 
L 226.933702 237.007279 
L 228.355194 106.055365 
L 228.594744 98.857081 
L 228.714519 97.966454 
L 228.834294 98.878235 
L 229.077624 106.014544 
L 229.44829 128.396488 
L 230.807399 232.480252 
L 230.930954 236.629231 
L 231.157878 240.244368 
L 231.384801 238.664787 
L 231.611724 232.260137 
L 232.06557 208.281001 
L 232.994785 148.613751 
L 233.491676 132.565225 
L 233.740122 131.422046 
L 233.988567 134.74317 
L 234.485459 151.826665 
L 235.51229 196.300522 
L 235.832028 203.447305 
L 236.151766 205.470961 
L 236.471503 202.723607 
L 236.791241 196.365292 
L 237.750454 172.628675 
L 238.070192 168.13175 
L 238.38431 166.520631 
L 238.903174 168.962771 
L 239.422038 174.090947 
L 239.940902 177.161586 
L 240.459766 175.64058 
L 241.398695 167.243216 
L 241.711671 166.553036 
L 242.024647 168.389616 
L 242.337623 172.985227 
L 243.687547 203.926252 
L 243.868539 205.340156 
L 244.049532 205.252802 
L 244.230525 203.53777 
L 244.411518 200.162429 
L 244.726463 190.592864 
L 246.092081 134.493744 
L 246.267193 131.847641 
L 246.442305 131.366562 
L 246.639842 133.593722 
L 247.034917 146.733118 
L 247.232455 157.096894 
L 248.351865 227.845555 
L 248.681125 238.610688 
L 248.845755 240.313782 
L 249.010385 239.307461 
L 249.175015 235.54302 
L 249.339645 229.094814 
L 249.84123 195.571655 
L 250.844401 113.426036 
L 251.22059 99.100727 
L 251.345986 97.972031 
L 251.505689 99.393789 
L 251.825095 111.773666 
L 252.304204 150.566702 
L 253.317159 251.6137 
L 253.594579 266.750347 
L 253.871998 271.433304 
L 254.010708 269.508537 
L 254.288128 257.18622 
L 254.704257 220.310956 
L 256.023194 78.122077 
L 256.259239 70.148148 
L 256.377262 69.61765 
L 256.495285 71.458829 
L 256.73133 82.143939 
L 257.093621 114.826383 
L 257.697438 195.834542 
L 258.422019 280.610812 
L 258.755483 296.036541 
L 258.84742 296.750133 
L 258.939357 295.870602 
L 259.12323 289.358609 
L 259.399041 268.366061 
L 259.679383 235.433998 
L 260.940921 63.756692 
L 261.221263 49.293308 
L 261.361434 47.855716 
L 261.501605 50.421688 
L 261.802409 69.046631 
L 262.219555 119.877857 
L 263.373864 291.688856 
L 263.630377 309.763165 
L 263.758633 313.806819 
L 263.88689 314.328298 
L 264.015147 311.29608 
L 264.228379 298.595877 
L 264.548227 263.516293 
L 264.868076 214.230623 
L 265.868667 58.615615 
L 266.163991 37.760236 
L 266.311653 34.317363 
L 266.459315 35.768164 
L 266.754639 53.056297 
L 267.197625 109.608539 
L 268.5088 311.099708 
L 268.829878 323.721799 
L 268.919551 323.053145 
L 269.098895 316.203604 
L 269.367912 292.942131 
L 269.905946 211.070876 
L 270.866715 55.19904 
L 271.179285 32.692666 
L 271.33557 29.589613 
L 271.491855 32.151058 
L 271.804425 53.657039 
L 272.273281 119.255234 
L 273.313361 292.39079 
L 273.625151 318.254734 
L 273.833011 323.726624 
L 273.936941 322.738622 
L 274.144802 313.415087 
L 274.386787 291.079823 
L 274.735768 241.45391 
L 275.895863 56.365598 
L 276.212252 36.17665 
L 276.349862 34.218071 
L 276.487472 36.516838 
L 276.762692 53.426764 
L 277.175522 104.744223 
L 278.512136 302.714107 
L 278.806508 314.393844 
L 278.904632 314.159908 
L 279.10088 307.523076 
L 279.395252 283.245592 
L 279.983996 198.245951 
L 280.777212 79.594591 
L 281.094499 54.163461 
L 281.253142 48.665571 
L 281.385517 47.989348 
L 281.517891 50.869152 
L 281.782641 66.780074 
L 282.179765 111.746168 
L 283.503555 285.936753 
L 283.76839 296.220913 
L 283.900807 296.441994 
L 284.033224 293.385482 
L 284.298059 277.990556 
L 284.638485 242.987505 
L 285.990541 79.944054 
L 286.258779 70.109048 
L 286.423013 70.093259 
L 286.587246 74.593162 
L 286.915714 95.920029 
L 287.408415 149.989622 
L 288.256312 246.833719 
L 288.595471 267.096273 
L 288.76505 271.081551 
L 288.950192 270.533126 
L 289.135333 265.014046 
L 289.505616 240.936442 
L 290.986748 105.425926 
L 291.17189 99.561088 
L 291.357031 98.010065 
L 291.542173 100.734971 
L 291.905775 117.29691 
L 292.441157 160.001257 
L 293.154999 218.487356 
L 293.498403 235.138898 
L 293.670105 239.224021 
L 293.841807 240.310494 
L 294.013509 238.451744 
L 294.356913 226.790397 
L 294.969435 188.866208 
L 295.509534 153.951476 
L 296.049633 133.531242 
L 296.319682 131.297597 
L 296.589732 134.404183 
L 296.859781 142.071731 
L 298.388862 202.484858 
L 298.640668 205.272338 
L 298.892474 204.927079 
L 299.14428 201.835809 
L 299.860251 184.497142 
L 300.576222 169.373202 
L 300.876556 166.833134 
L 301.17689 166.749148 
L 302.245195 175.773153 
L 302.712832 177.208006 
L 303.180469 174.831111 
L 304.075945 166.944486 
L 304.503785 167.23895 
L 306.524684 205.453726 
L 306.803775 204.107587 
L 307.082867 198.838173 
L 307.64105 178.16054 
L 308.584911 137.558275 
L 308.820877 132.568314 
L 309.056842 131.356736 
L 309.292808 134.314652 
L 309.528773 141.452774 
L 310.06269 170.327556 
L 310.863565 222.637153 
L 311.264003 237.927101 
L 311.397482 239.954008 
L 311.530962 240.232172 
L 311.664441 238.704128 
L 311.909454 231.21793 
L 312.399481 200.367184 
L 313.624547 105.338633 
L 313.955496 97.984972 
L 314.12097 99.357031 
L 314.286445 104.181744 
L 314.617393 123.533232 
L 314.948342 153.269323 
L 316.008317 256.566521 
L 316.314289 269.776662 
L 316.467275 271.47398 
L 316.620261 269.690206 
L 316.926232 255.823181 
L 317.38519 213.172965 
L 318.537003 84.337463 
L 318.827165 71.06481 
L 318.923886 69.651223 
L 319.020607 69.82045 
L 319.214049 74.930816 
L 319.504211 93.9909 
L 319.924673 141.212644 
L 320.995677 277.215557 
L 321.288136 293.990206 
L 321.483108 296.70162 
L 321.580595 295.378171 
L 321.775567 287.41001 
L 321.97054 272.710353 
L 322.52997 201.849704 
L 323.441116 73.988949 
L 323.761277 51.772927 
L 323.89921 48.18103 
L 324.037143 48.439556 
L 324.175075 52.5699 
L 324.45094 71.948105 
L 324.864738 124.062226 
L 326.091183 300.249976 
L 326.352099 313.321074 
L 326.482558 314.489406 
L 326.613016 311.980044 
L 326.873932 296.221934 
L 327.265307 249.327457 
L 328.703482 41.499212 
L 328.965443 34.219099 
L 329.096641 36.344313 
L 329.359036 51.925865 
L 329.752629 99.911999 
L 331.139225 312.066184 
L 331.364066 322.687545 
L 331.476486 323.707079 
L 331.588906 321.813921 
L 331.813746 309.482333 
L 332.200439 264.674496 
L 333.747214 34.833461 
L 333.960292 29.583077 
L 334.044472 30.406699 
L 334.212833 36.940355 
L 334.381194 49.715123 
L 334.717915 91.446576 
L 336.17966 314.690698 
L 336.440568 323.691898 
L 336.527538 323.22868 
L 336.614507 321.028688 
L 336.884484 303.557326 
L 337.28945 251.688092 
L 338.585968 49.865155 
L 338.840697 35.857809 
L 338.968062 34.219404 
L 339.095427 36.229194 
L 339.350156 50.847931 
L 339.73225 95.676929 
L 341.159771 304.75956 
L 341.445276 314.520965 
L 341.588028 312.831148 
L 341.873532 296.702836 
L 342.179241 263.007688 
L 343.722557 53.627946 
L 343.973531 47.831001 
L 344.099018 49.735425 
L 344.349993 62.805314 
L 344.554882 81.737959 
L 345.169549 167.562477 
L 345.88666 266.603535 
L 346.289366 293.985113 
L 346.48954 296.673447 
L 346.589627 295.191093 
L 346.789802 286.758197 
L 346.989976 271.612682 
L 347.590499 198.027174 
L 348.387 96.618425 
L 348.671812 76.512193 
L 348.842838 70.669948 
L 349.013865 69.787285 
L 349.184891 73.826402 
L 349.526944 95.400283 
L 349.868997 130.903049 
L 350.895155 248.575845 
L 351.237208 267.93614 
L 351.409849 271.323554 
L 351.58249 270.265835 
L 351.755132 264.904001 
L 352.100414 242.813841 
L 352.840697 166.96777 
L 353.507777 110.11854 
L 353.841317 98.684292 
L 353.952496 97.967713 
L 354.063676 98.803678 
L 354.174856 101.148977 
L 354.569116 120.300938 
L 354.741016 132.88481 
L 355.855902 223.507753 
L 356.227531 238.139965 
L 356.413345 240.313733 
L 356.59916 239.007638 
L 356.784974 234.426225 
L 357.156603 217.10165 
L 358.527488 136.851293 
L 358.825136 131.550262 
L 358.97396 131.419181 
L 359.122784 132.898899 
L 359.271608 135.865379 
L 359.569256 145.520446 
L 360.759849 196.689573 
L 361.12539 204.207274 
L 361.30816 205.445959 
L 361.490931 205.054159 
L 361.856471 200.086152 
L 363.16563 169.738787 
L 363.401534 167.339303 
L 363.637438 166.509305 
L 364.109247 168.714441 
L 364.798064 175.300596 
L 365.142473 177.094808 
L 365.486882 176.806709 
L 366.39684 168.992592 
L 366.851819 166.520964 
L 367.306798 168.914299 
L 367.577106 173.080275 
L 368.722625 200.880777 
L 368.951729 204.253725 
L 369.180833 205.495978 
L 369.409937 204.23543 
L 369.624892 200.63965 
L 370.054801 186.957587 
L 371.385676 133.37108 
L 371.641778 131.281269 
L 371.89788 134.058603 
L 372.153982 141.763838 
L 372.605126 165.489038 
L 373.507414 224.019299 
L 373.958558 239.309362 
L 374.098375 240.33765 
L 374.238192 239.401582 
L 374.517826 231.591001 
L 374.79746 216.428518 
L 375.636361 146.158564 
L 376.195629 107.356561 
L 376.38591 100.544223 
L 376.576191 97.978229 
L 376.766472 99.938397 
L 377.111816 114.944017 
L 377.577006 154.429617 
L 378.66245 258.801267 
L 378.972577 270.569114 
L 379.12764 271.325704 
L 379.282704 268.493555 
L 379.437767 262.115413 
L 379.855203 229.167794 
L 381.263505 77.817439 
L 381.575492 69.528943 
L 381.731486 71.503931 
L 382.043474 87.607901 
L 382.355461 117.966148 
L 383.677366 282.133689 
L 383.917712 294.370993 
L 384.037886 296.606745 
L 384.158059 296.13459 
L 384.382277 288.01685 
L 384.694411 262.092155 
L 385.110591 207.367794 
L 386.052363 74.571661 
L 386.3806 51.690065 
L 386.553918 47.867272 
L 386.640576 48.238915 
L 386.813894 53.562345 
L 387.073871 72.494925 
L 387.593824 141.465969 
L 388.534132 284.195661 
L 388.862842 309.673339 
L 389.081983 314.546567 
L 389.191553 313.10686 
L 389.410693 302.555731 
L 389.743951 268.653464 
L 390.191327 199.033371 
L 391.086078 60.343962 
L 391.415805 37.104525 
L 391.627884 34.514316 
L 391.839962 41.994888 
L 392.15808 70.865524 
L 392.582237 134.641639 
L 393.483546 285.059249 
L 393.801648 315.094909 
L 393.960699 322.186134 
L 394.119749 323.527496 
L 394.2788 319.053756 
L 394.502696 303.26834 
L 394.838541 261.555808 
L 396.358575 35.124613 
L 396.550978 29.665015 
L 396.64718 30.147269 
L 396.839584 37.500642 
L 397.128189 63.469815 
L 397.609198 136.947748 
L 398.499945 286.73178 
L 398.881693 319.302373 
L 399.008943 323.186659 
L 399.136192 323.351773 
L 399.263442 319.799453 
L 399.517941 302.02273 
L 399.842204 261.598546 
L 401.2293 47.795851 
L 401.527822 34.506599 
L 401.627329 34.48064 
L 401.826343 41.055256 
L 402.145534 68.747711 
L 402.506065 119.947929 
L 403.587656 289.082745 
L 403.948187 312.699714 
L 404.050592 314.4631 
L 404.152996 313.95848 
L 404.357806 306.252639 
L 404.66502 279.307303 
L 405.177044 205.11429 
L 406.063339 74.239593 
L 406.381124 51.797842 
L 406.540016 47.969833 
L 406.698909 49.283237 
L 406.857801 55.641134 
L 407.175586 82.115666 
L 407.49337 122.911305 
L 408.550368 271.142042 
L 408.86644 292.540085 
L 408.971798 295.690153 
L 409.11925 296.590811 
L 409.266702 293.419756 
L 409.561605 275.604385 
L 409.856509 244.9868 
L 411.183577 82.511833 
L 411.383435 72.680581 
L 411.560538 69.547612 
L 411.737641 71.737654 
L 411.914743 79.054913 
L 412.268949 107.060524 
L 413.862873 268.204825 
L 414.039976 271.397682 
L 414.217078 269.917145 
L 414.44383 261.498419 
L 414.670581 246.598731 
L 415.413152 171.77175 
L 415.991289 118.386868 
L 416.280358 103.090507 
L 416.569427 97.967547 
L 416.713961 99.346087 
L 417.00303 109.466892 
L 417.436633 139.222944 
L 418.469153 223.282301 
L 418.880072 238.824217 
L 419.01178 240.253826 
L 419.143488 239.92591 
L 419.406904 234.270727 
L 419.67032 222.843682 
L 421.015251 141.213692 
L 421.428652 131.646202 
L 421.635353 131.694784 
L 421.842053 134.782307 
L 422.048754 140.510309 
L 423.633705 202.663627 
L 423.926593 205.448593 
L 424.21948 204.080002 
L 424.512368 199.298015 
L 425.659307 171.620586 
L 426.086333 166.945113 
L 426.513359 167.196573 
L 427.542939 176.181823 
L 427.886132 177.242721 
L 427.886132 177.242721 
" clip-path="url(#p61db93b734)" style="fill: none; stroke: #0000ff; stroke-linecap: square"/>
   </g>
   <g id="patch_3">
    <path d="M 114.8 329.62 
L 114.8 23.7 
" style="fill: none; stroke: #000000; stroke-width: 0.8; stroke-linejoin: miter; stroke-linecap: square"/>
   </g>
   <g id="patch_4">
    <path d="M 108.538277 177.242721 
L 434.147854 177.242721 
" style="fill: none; stroke: #000000; stroke-width: 0.8; stroke-linejoin: miter; stroke-linecap: square"/>
   </g>
  </g>
 </g>
 <defs>
  <clipPath id="p61db93b734">
   <rect x="108.538277" y="23.7" width="325.609577" height="305.92"/>
  </clipPath>
 </defs>
</svg>
