<?xml version="1.0" encoding="utf-8" standalone="no"?>
<!DOCTYPE svg PUBLIC "-//W3C//DTD SVG 1.1//EN"
  "http://www.w3.org/Graphics/SVG/1.1/DTD/svg11.dtd">
<svg xmlns:xlink="http://www.w3.org/1999/xlink" width="451.455739pt" height="336.82pt" viewBox="0 0 451.455739 336.82" xmlns="http://www.w3.org/2000/svg" version="1.1">
 <metadata>
  <rdf:RDF xmlns:dc="http://purl.org/dc/elements/1.1/" xmlns:cc="http://creativecommons.org/ns#" xmlns:rdf="http://www.w3.org/1999/02/22-rdf-syntax-ns#">
   <cc:Work>
    <dc:type rdf:resource="http://purl.org/dc/dcmitype/StillImage"/>
    <dc:date>2024-12-17T09:51:57.903360</dc:date>
    <dc:format>image/svg+xml</dc:format>
    <dc:creator>
     <cc:Agent>
      <dc:title>Matplotlib v3.6.2, https://matplotlib.org/</dc:title>
     </cc:Agent>
    </dc:creator>
   </cc:Work>
  </rdf:RDF>
 </metadata>
 <defs>
  <style type="text/css">*{stroke-linejoin: round; stroke-linecap: butt}</style>
 </defs>
 <g id="figure_1">
  <g id="patch_1">
   <path d="M 0 336.82 
L 451.455739 336.82 
L 451.455739 0 
L 0 0 
z
" style="fill: #ffffff"/>
  </g>
  <g id="axes_1">
   <g id="patch_2">
    <path d="M 26.996162 329.62 
L 432.795739 329.62 
L 432.795739 23.7 
L 26.996162 23.7 
z
" style="fill: #ffffff"/>
   </g>
   <g id="matplotlib.axis_1">
    <g id="xtick_1">
     <g id="line2d_1">
      <defs>
       <path id="m5ec05257a6" d="M 0 0 
L 0 3.5 
" style="stroke: #000000; stroke-width: 0.8"/>
      </defs>
      <g>
       <use xlink:href="#m5ec05257a6" x="34.8" y="175.080668" style="stroke: #000000; stroke-width: 0.8"/>
      </g>
     </g>
    </g>
    <g id="xtick_2">
     <g id="line2d_2">
      <g>
       <use xlink:href="#m5ec05257a6" x="132.347975" y="175.080668" style="stroke: #000000; stroke-width: 0.8"/>
      </g>
     </g>
     <g id="text_1">
      <!-- $\pi$ -->
      <g transform="translate(129.497975 189.679105) scale(0.1 -0.1)">
       <defs>
        <path id="Cmmi10-bc" d="M 647 109 
Q 647 144 672 213 
Q 850 584 1004 942 
Q 1159 1300 1282 1639 
Q 1406 1978 1509 2363 
L 1100 2363 
Q 866 2363 662 2216 
Q 459 2069 325 1844 
Q 313 1819 288 1819 
L 213 1819 
Q 153 1819 153 1881 
Q 153 1894 166 1919 
Q 375 2275 614 2517 
Q 853 2759 1153 2759 
L 3475 2759 
Q 3541 2759 3587 2715 
Q 3634 2672 3634 2597 
Q 3634 2503 3567 2433 
Q 3500 2363 3406 2363 
L 2591 2363 
Q 2488 1859 2478 1381 
Q 2478 766 2694 269 
Q 2713 231 2713 191 
Q 2713 122 2672 62 
Q 2631 3 2567 -34 
Q 2503 -72 2431 -72 
Q 2263 -72 2200 203 
Q 2138 478 2138 738 
Q 2138 1103 2200 1442 
Q 2263 1781 2400 2363 
L 1703 2363 
Q 1197 313 1094 103 
Q 1003 -72 844 -72 
Q 766 -72 706 -20 
Q 647 31 647 109 
z
" transform="scale(0.015625)"/>
       </defs>
       <use xlink:href="#Cmmi10-bc" transform="translate(0 0.890625)"/>
      </g>
     </g>
    </g>
    <g id="xtick_3">
     <g id="line2d_3">
      <g>
       <use xlink:href="#m5ec05257a6" x="229.895951" y="175.080668" style="stroke: #000000; stroke-width: 0.8"/>
      </g>
     </g>
     <g id="text_2">
      <!-- $2 \, \pi$ -->
      <g transform="translate(223.795951 189.679105) scale(0.1 -0.1)">
       <defs>
        <path id="Cmr10-32" d="M 319 0 
L 319 172 
Q 319 188 331 206 
L 1325 1306 
Q 1550 1550 1690 1715 
Q 1831 1881 1968 2097 
Q 2106 2313 2186 2536 
Q 2266 2759 2266 3009 
Q 2266 3272 2169 3511 
Q 2072 3750 1880 3894 
Q 1688 4038 1416 4038 
Q 1138 4038 916 3870 
Q 694 3703 603 3438 
Q 628 3444 672 3444 
Q 816 3444 917 3347 
Q 1019 3250 1019 3097 
Q 1019 2950 917 2848 
Q 816 2747 672 2747 
Q 522 2747 420 2851 
Q 319 2956 319 3097 
Q 319 3338 409 3548 
Q 500 3759 670 3923 
Q 841 4088 1055 4175 
Q 1269 4263 1509 4263 
Q 1875 4263 2190 4108 
Q 2506 3953 2690 3670 
Q 2875 3388 2875 3009 
Q 2875 2731 2753 2481 
Q 2631 2231 2440 2026 
Q 2250 1822 1953 1562 
Q 1656 1303 1563 1216 
L 838 519 
L 1453 519 
Q 1906 519 2211 526 
Q 2516 534 2534 550 
Q 2609 631 2688 1141 
L 2875 1141 
L 2694 0 
L 319 0 
z
" transform="scale(0.015625)"/>
       </defs>
       <use xlink:href="#Cmr10-32" transform="translate(0 0.390625)"/>
       <use xlink:href="#Cmmi10-bc" transform="translate(64.632454 0.390625)"/>
      </g>
     </g>
    </g>
    <g id="xtick_4">
     <g id="line2d_4">
      <g>
       <use xlink:href="#m5ec05257a6" x="327.443926" y="175.080668" style="stroke: #000000; stroke-width: 0.8"/>
      </g>
     </g>
     <g id="text_3">
      <!-- $3 \, \pi$ -->
      <g transform="translate(321.343926 189.679105) scale(0.1 -0.1)">
       <defs>
        <path id="Cmr10-33" d="M 609 494 
Q 759 275 1012 169 
Q 1266 63 1556 63 
Q 1928 63 2084 380 
Q 2241 697 2241 1100 
Q 2241 1281 2208 1462 
Q 2175 1644 2097 1800 
Q 2019 1956 1883 2050 
Q 1747 2144 1550 2144 
L 1125 2144 
Q 1069 2144 1069 2203 
L 1069 2259 
Q 1069 2309 1125 2309 
L 1478 2338 
Q 1703 2338 1851 2506 
Q 2000 2675 2069 2917 
Q 2138 3159 2138 3378 
Q 2138 3684 1994 3881 
Q 1850 4078 1556 4078 
Q 1313 4078 1091 3986 
Q 869 3894 738 3706 
Q 750 3709 759 3711 
Q 769 3713 781 3713 
Q 925 3713 1022 3613 
Q 1119 3513 1119 3372 
Q 1119 3234 1022 3134 
Q 925 3034 781 3034 
Q 641 3034 541 3134 
Q 441 3234 441 3372 
Q 441 3647 606 3850 
Q 772 4053 1033 4158 
Q 1294 4263 1556 4263 
Q 1750 4263 1965 4205 
Q 2181 4147 2356 4039 
Q 2531 3931 2642 3762 
Q 2753 3594 2753 3378 
Q 2753 3109 2633 2881 
Q 2513 2653 2303 2487 
Q 2094 2322 1844 2241 
Q 2122 2188 2372 2031 
Q 2622 1875 2773 1631 
Q 2925 1388 2925 1106 
Q 2925 753 2731 467 
Q 2538 181 2222 20 
Q 1906 -141 1556 -141 
Q 1256 -141 954 -26 
Q 653 88 461 316 
Q 269 544 269 863 
Q 269 1022 375 1128 
Q 481 1234 641 1234 
Q 744 1234 830 1186 
Q 916 1138 964 1050 
Q 1013 963 1013 863 
Q 1013 706 903 600 
Q 794 494 641 494 
L 609 494 
z
" transform="scale(0.015625)"/>
       </defs>
       <use xlink:href="#Cmr10-33" transform="translate(0 0.390625)"/>
       <use xlink:href="#Cmmi10-bc" transform="translate(64.632454 0.390625)"/>
      </g>
     </g>
    </g>
    <g id="xtick_5">
     <g id="line2d_5">
      <g>
       <use xlink:href="#m5ec05257a6" x="424.991901" y="175.080668" style="stroke: #000000; stroke-width: 0.8"/>
      </g>
     </g>
     <g id="text_4">
      <!-- $4 \, \pi$ -->
      <g transform="translate(418.891901 189.679105) scale(0.1 -0.1)">
       <defs>
        <path id="Cmr10-34" d="M 178 1056 
L 178 1281 
L 2156 4231 
Q 2178 4263 2222 4263 
L 2316 4263 
Q 2388 4263 2388 4191 
L 2388 1281 
L 3016 1281 
L 3016 1056 
L 2388 1056 
L 2388 428 
Q 2388 297 2575 261 
Q 2763 225 3009 225 
L 3009 0 
L 1247 0 
L 1247 225 
Q 1494 225 1681 261 
Q 1869 297 1869 428 
L 1869 1056 
L 178 1056 
z
M 391 1281 
L 1906 1281 
L 1906 3547 
L 391 1281 
z
" transform="scale(0.015625)"/>
       </defs>
       <use xlink:href="#Cmr10-34" transform="translate(0 0.390625)"/>
       <use xlink:href="#Cmmi10-bc" transform="translate(64.632454 0.390625)"/>
      </g>
     </g>
    </g>
    <g id="xtick_6">
     <g id="line2d_6">
      <defs>
       <path id="m4f88680238" d="M 0 0 
L 0 2 
" style="stroke: #000000; stroke-width: 0.6"/>
      </defs>
      <g>
       <use xlink:href="#m4f88680238" x="59.186994" y="175.080668" style="stroke: #000000; stroke-width: 0.6"/>
      </g>
     </g>
    </g>
    <g id="xtick_7">
     <g id="line2d_7">
      <g>
       <use xlink:href="#m4f88680238" x="83.573988" y="175.080668" style="stroke: #000000; stroke-width: 0.6"/>
      </g>
     </g>
    </g>
    <g id="xtick_8">
     <g id="line2d_8">
      <g>
       <use xlink:href="#m4f88680238" x="107.960981" y="175.080668" style="stroke: #000000; stroke-width: 0.6"/>
      </g>
     </g>
    </g>
    <g id="xtick_9">
     <g id="line2d_9">
      <g>
       <use xlink:href="#m4f88680238" x="156.734969" y="175.080668" style="stroke: #000000; stroke-width: 0.6"/>
      </g>
     </g>
    </g>
    <g id="xtick_10">
     <g id="line2d_10">
      <g>
       <use xlink:href="#m4f88680238" x="181.121963" y="175.080668" style="stroke: #000000; stroke-width: 0.6"/>
      </g>
     </g>
    </g>
    <g id="xtick_11">
     <g id="line2d_11">
      <g>
       <use xlink:href="#m4f88680238" x="205.508957" y="175.080668" style="stroke: #000000; stroke-width: 0.6"/>
      </g>
     </g>
    </g>
    <g id="xtick_12">
     <g id="line2d_12">
      <g>
       <use xlink:href="#m4f88680238" x="254.282944" y="175.080668" style="stroke: #000000; stroke-width: 0.6"/>
      </g>
     </g>
    </g>
    <g id="xtick_13">
     <g id="line2d_13">
      <g>
       <use xlink:href="#m4f88680238" x="278.669938" y="175.080668" style="stroke: #000000; stroke-width: 0.6"/>
      </g>
     </g>
    </g>
    <g id="xtick_14">
     <g id="line2d_14">
      <g>
       <use xlink:href="#m4f88680238" x="303.056932" y="175.080668" style="stroke: #000000; stroke-width: 0.6"/>
      </g>
     </g>
    </g>
    <g id="xtick_15">
     <g id="line2d_15">
      <g>
       <use xlink:href="#m4f88680238" x="351.83092" y="175.080668" style="stroke: #000000; stroke-width: 0.6"/>
      </g>
     </g>
    </g>
    <g id="xtick_16">
     <g id="line2d_16">
      <g>
       <use xlink:href="#m4f88680238" x="376.217913" y="175.080668" style="stroke: #000000; stroke-width: 0.6"/>
      </g>
     </g>
    </g>
    <g id="xtick_17">
     <g id="line2d_17">
      <g>
       <use xlink:href="#m4f88680238" x="400.604907" y="175.080668" style="stroke: #000000; stroke-width: 0.6"/>
      </g>
     </g>
    </g>
    <g id="text_5">
     <!-- $t$ -->
     <g transform="translate(440.795739 175.080668) scale(0.16 -0.16)">
      <defs>
       <path id="Cmmi10-74" d="M 397 519 
Q 397 613 416 697 
L 878 2534 
L 206 2534 
Q 141 2534 141 2619 
Q 166 2759 225 2759 
L 934 2759 
L 1191 3803 
Q 1216 3888 1291 3947 
Q 1366 4006 1459 4006 
Q 1541 4006 1595 3957 
Q 1650 3909 1650 3828 
Q 1650 3809 1648 3798 
Q 1647 3788 1644 3775 
L 1388 2759 
L 2047 2759 
Q 2113 2759 2113 2675 
Q 2109 2659 2100 2621 
Q 2091 2584 2075 2559 
Q 2059 2534 2028 2534 
L 1331 2534 
L 872 684 
Q 825 503 825 372 
Q 825 97 1013 97 
Q 1294 97 1511 361 
Q 1728 625 1844 941 
Q 1869 978 1894 978 
L 1972 978 
Q 1997 978 2012 961 
Q 2028 944 2028 922 
Q 2028 909 2022 903 
Q 1881 516 1612 222 
Q 1344 -72 997 -72 
Q 744 -72 570 93 
Q 397 259 397 519 
z
" transform="scale(0.015625)"/>
      </defs>
      <use xlink:href="#Cmmi10-74" transform="translate(0 0.40625)"/>
     </g>
    </g>
   </g>
   <g id="matplotlib.axis_2">
    <g id="ytick_1">
     <g id="line2d_18">
      <defs>
       <path id="m6b8a68b2a5" d="M 0 0 
L -3.5 0 
" style="stroke: #000000; stroke-width: 0.8"/>
      </defs>
      <g>
       <use xlink:href="#m6b8a68b2a5" x="34.8" y="318.534339" style="stroke: #000000; stroke-width: 0.8"/>
      </g>
     </g>
     <g id="text_6">
      <!-- $-2.0$ -->
      <g transform="translate(7.2 322.333558) scale(0.1 -0.1)">
       <defs>
        <path id="Cmsy10-a1" d="M 653 1472 
Q 600 1472 565 1512 
Q 531 1553 531 1600 
Q 531 1647 565 1687 
Q 600 1728 653 1728 
L 4325 1728 
Q 4375 1728 4408 1687 
Q 4441 1647 4441 1600 
Q 4441 1553 4408 1512 
Q 4375 1472 4325 1472 
L 653 1472 
z
" transform="scale(0.015625)"/>
        <path id="Cmmi10-3a" d="M 538 353 
Q 538 497 644 600 
Q 750 703 891 703 
Q 978 703 1062 656 
Q 1147 609 1194 525 
Q 1241 441 1241 353 
Q 1241 213 1137 106 
Q 1034 0 891 0 
Q 750 0 644 106 
Q 538 213 538 353 
z
" transform="scale(0.015625)"/>
        <path id="Cmr10-30" d="M 1600 -141 
Q 816 -141 533 504 
Q 250 1150 250 2041 
Q 250 2597 351 3087 
Q 453 3578 754 3920 
Q 1056 4263 1600 4263 
Q 2022 4263 2290 4056 
Q 2559 3850 2700 3523 
Q 2841 3197 2892 2823 
Q 2944 2450 2944 2041 
Q 2944 1491 2842 1011 
Q 2741 531 2444 195 
Q 2147 -141 1600 -141 
z
M 1600 25 
Q 1956 25 2131 390 
Q 2306 756 2347 1200 
Q 2388 1644 2388 2144 
Q 2388 2625 2347 3031 
Q 2306 3438 2132 3767 
Q 1959 4097 1600 4097 
Q 1238 4097 1063 3765 
Q 888 3434 847 3029 
Q 806 2625 806 2144 
Q 806 1788 823 1472 
Q 841 1156 916 820 
Q 991 484 1158 254 
Q 1325 25 1600 25 
z
" transform="scale(0.015625)"/>
       </defs>
       <use xlink:href="#Cmsy10-a1" transform="translate(0 0.390625)"/>
       <use xlink:href="#Cmr10-32" transform="translate(77.685547 0.390625)"/>
       <use xlink:href="#Cmmi10-3a" transform="translate(127.685547 0.390625)"/>
       <use xlink:href="#Cmr10-30" transform="translate(155.371094 0.390625)"/>
      </g>
     </g>
    </g>
    <g id="ytick_2">
     <g id="line2d_19">
      <g>
       <use xlink:href="#m6b8a68b2a5" x="34.8" y="282.670921" style="stroke: #000000; stroke-width: 0.8"/>
      </g>
     </g>
     <g id="text_7">
      <!-- $-1.5$ -->
      <g transform="translate(7.2 286.47014) scale(0.1 -0.1)">
       <defs>
        <path id="Cmr10-31" d="M 594 0 
L 594 225 
Q 1394 225 1394 428 
L 1394 3788 
Q 1063 3628 556 3628 
L 556 3853 
Q 1341 3853 1741 4263 
L 1831 4263 
Q 1853 4263 1873 4245 
Q 1894 4228 1894 4206 
L 1894 428 
Q 1894 225 2694 225 
L 2694 0 
L 594 0 
z
" transform="scale(0.015625)"/>
        <path id="Cmr10-35" d="M 556 728 
Q 622 541 758 387 
Q 894 234 1080 148 
Q 1266 63 1466 63 
Q 1928 63 2103 422 
Q 2278 781 2278 1294 
Q 2278 1516 2270 1667 
Q 2263 1819 2228 1959 
Q 2169 2184 2020 2353 
Q 1872 2522 1656 2522 
Q 1441 2522 1286 2456 
Q 1131 2391 1034 2303 
Q 938 2216 863 2119 
Q 788 2022 769 2016 
L 697 2016 
Q 681 2016 657 2036 
Q 634 2056 634 2075 
L 634 4213 
Q 634 4228 654 4245 
Q 675 4263 697 4263 
L 716 4263 
Q 1147 4056 1631 4056 
Q 2106 4056 2547 4263 
L 2566 4263 
Q 2588 4263 2606 4247 
Q 2625 4231 2625 4213 
L 2625 4153 
Q 2625 4122 2613 4122 
Q 2394 3831 2064 3668 
Q 1734 3506 1381 3506 
Q 1125 3506 856 3578 
L 856 2369 
Q 1069 2541 1236 2614 
Q 1403 2688 1663 2688 
Q 2016 2688 2295 2484 
Q 2575 2281 2725 1954 
Q 2875 1628 2875 1288 
Q 2875 903 2686 575 
Q 2497 247 2172 53 
Q 1847 -141 1466 -141 
Q 1150 -141 886 21 
Q 622 184 470 459 
Q 319 734 319 1044 
Q 319 1188 412 1278 
Q 506 1369 647 1369 
Q 788 1369 883 1276 
Q 978 1184 978 1044 
Q 978 906 883 811 
Q 788 716 647 716 
Q 625 716 597 720 
Q 569 725 556 728 
z
" transform="scale(0.015625)"/>
       </defs>
       <use xlink:href="#Cmsy10-a1" transform="translate(0 0.390625)"/>
       <use xlink:href="#Cmr10-31" transform="translate(77.685547 0.390625)"/>
       <use xlink:href="#Cmmi10-3a" transform="translate(127.685547 0.390625)"/>
       <use xlink:href="#Cmr10-35" transform="translate(155.371094 0.390625)"/>
      </g>
     </g>
    </g>
    <g id="ytick_3">
     <g id="line2d_20">
      <g>
       <use xlink:href="#m6b8a68b2a5" x="34.8" y="246.807503" style="stroke: #000000; stroke-width: 0.8"/>
      </g>
     </g>
     <g id="text_8">
      <!-- $-1.0$ -->
      <g transform="translate(7.2 250.606722) scale(0.1 -0.1)">
       <use xlink:href="#Cmsy10-a1" transform="translate(0 0.390625)"/>
       <use xlink:href="#Cmr10-31" transform="translate(77.685547 0.390625)"/>
       <use xlink:href="#Cmmi10-3a" transform="translate(127.685547 0.390625)"/>
       <use xlink:href="#Cmr10-30" transform="translate(155.371094 0.390625)"/>
      </g>
     </g>
    </g>
    <g id="ytick_4">
     <g id="line2d_21">
      <g>
       <use xlink:href="#m6b8a68b2a5" x="34.8" y="210.944086" style="stroke: #000000; stroke-width: 0.8"/>
      </g>
     </g>
     <g id="text_9">
      <!-- $-0.5$ -->
      <g transform="translate(7.2 214.743304) scale(0.1 -0.1)">
       <use xlink:href="#Cmsy10-a1" transform="translate(0 0.390625)"/>
       <use xlink:href="#Cmr10-30" transform="translate(77.685547 0.390625)"/>
       <use xlink:href="#Cmmi10-3a" transform="translate(127.685547 0.390625)"/>
       <use xlink:href="#Cmr10-35" transform="translate(155.371094 0.390625)"/>
      </g>
     </g>
    </g>
    <g id="ytick_5">
     <g id="line2d_22">
      <g>
       <use xlink:href="#m6b8a68b2a5" x="34.8" y="175.080668" style="stroke: #000000; stroke-width: 0.8"/>
      </g>
     </g>
    </g>
    <g id="ytick_6">
     <g id="line2d_23">
      <g>
       <use xlink:href="#m6b8a68b2a5" x="34.8" y="139.21725" style="stroke: #000000; stroke-width: 0.8"/>
      </g>
     </g>
     <g id="text_10">
      <!-- $0.5$ -->
      <g transform="translate(15 143.016469) scale(0.1 -0.1)">
       <use xlink:href="#Cmr10-30" transform="translate(0 0.390625)"/>
       <use xlink:href="#Cmmi10-3a" transform="translate(50 0.390625)"/>
       <use xlink:href="#Cmr10-35" transform="translate(77.685547 0.390625)"/>
      </g>
     </g>
    </g>
    <g id="ytick_7">
     <g id="line2d_24">
      <g>
       <use xlink:href="#m6b8a68b2a5" x="34.8" y="103.353832" style="stroke: #000000; stroke-width: 0.8"/>
      </g>
     </g>
     <g id="text_11">
      <!-- $1.0$ -->
      <g transform="translate(15 107.153051) scale(0.1 -0.1)">
       <use xlink:href="#Cmr10-31" transform="translate(0 0.390625)"/>
       <use xlink:href="#Cmmi10-3a" transform="translate(50 0.390625)"/>
       <use xlink:href="#Cmr10-30" transform="translate(77.685547 0.390625)"/>
      </g>
     </g>
    </g>
    <g id="ytick_8">
     <g id="line2d_25">
      <g>
       <use xlink:href="#m6b8a68b2a5" x="34.8" y="67.490414" style="stroke: #000000; stroke-width: 0.8"/>
      </g>
     </g>
     <g id="text_12">
      <!-- $1.5$ -->
      <g transform="translate(15 71.289633) scale(0.1 -0.1)">
       <use xlink:href="#Cmr10-31" transform="translate(0 0.390625)"/>
       <use xlink:href="#Cmmi10-3a" transform="translate(50 0.390625)"/>
       <use xlink:href="#Cmr10-35" transform="translate(77.685547 0.390625)"/>
      </g>
     </g>
    </g>
    <g id="ytick_9">
     <g id="line2d_26">
      <g>
       <use xlink:href="#m6b8a68b2a5" x="34.8" y="31.626996" style="stroke: #000000; stroke-width: 0.8"/>
      </g>
     </g>
     <g id="text_13">
      <!-- $2.0$ -->
      <g transform="translate(15 35.426215) scale(0.1 -0.1)">
       <use xlink:href="#Cmr10-32" transform="translate(0 0.390625)"/>
       <use xlink:href="#Cmmi10-3a" transform="translate(50 0.390625)"/>
       <use xlink:href="#Cmr10-30" transform="translate(77.685547 0.390625)"/>
      </g>
     </g>
    </g>
    <g id="ytick_10">
     <g id="line2d_27">
      <defs>
       <path id="m9f0b9e82bd" d="M 0 0 
L -2 0 
" style="stroke: #000000; stroke-width: 0.6"/>
      </defs>
      <g>
       <use xlink:href="#m9f0b9e82bd" x="34.8" y="325.707023" style="stroke: #000000; stroke-width: 0.6"/>
      </g>
     </g>
    </g>
    <g id="ytick_11">
     <g id="line2d_28">
      <g>
       <use xlink:href="#m9f0b9e82bd" x="34.8" y="311.361656" style="stroke: #000000; stroke-width: 0.6"/>
      </g>
     </g>
    </g>
    <g id="ytick_12">
     <g id="line2d_29">
      <g>
       <use xlink:href="#m9f0b9e82bd" x="34.8" y="304.188972" style="stroke: #000000; stroke-width: 0.6"/>
      </g>
     </g>
    </g>
    <g id="ytick_13">
     <g id="line2d_30">
      <g>
       <use xlink:href="#m9f0b9e82bd" x="34.8" y="297.016288" style="stroke: #000000; stroke-width: 0.6"/>
      </g>
     </g>
    </g>
    <g id="ytick_14">
     <g id="line2d_31">
      <g>
       <use xlink:href="#m9f0b9e82bd" x="34.8" y="289.843605" style="stroke: #000000; stroke-width: 0.6"/>
      </g>
     </g>
    </g>
    <g id="ytick_15">
     <g id="line2d_32">
      <g>
       <use xlink:href="#m9f0b9e82bd" x="34.8" y="275.498238" style="stroke: #000000; stroke-width: 0.6"/>
      </g>
     </g>
    </g>
    <g id="ytick_16">
     <g id="line2d_33">
      <g>
       <use xlink:href="#m9f0b9e82bd" x="34.8" y="268.325554" style="stroke: #000000; stroke-width: 0.6"/>
      </g>
     </g>
    </g>
    <g id="ytick_17">
     <g id="line2d_34">
      <g>
       <use xlink:href="#m9f0b9e82bd" x="34.8" y="261.152871" style="stroke: #000000; stroke-width: 0.6"/>
      </g>
     </g>
    </g>
    <g id="ytick_18">
     <g id="line2d_35">
      <g>
       <use xlink:href="#m9f0b9e82bd" x="34.8" y="253.980187" style="stroke: #000000; stroke-width: 0.6"/>
      </g>
     </g>
    </g>
    <g id="ytick_19">
     <g id="line2d_36">
      <g>
       <use xlink:href="#m9f0b9e82bd" x="34.8" y="239.63482" style="stroke: #000000; stroke-width: 0.6"/>
      </g>
     </g>
    </g>
    <g id="ytick_20">
     <g id="line2d_37">
      <g>
       <use xlink:href="#m9f0b9e82bd" x="34.8" y="232.462136" style="stroke: #000000; stroke-width: 0.6"/>
      </g>
     </g>
    </g>
    <g id="ytick_21">
     <g id="line2d_38">
      <g>
       <use xlink:href="#m9f0b9e82bd" x="34.8" y="225.289453" style="stroke: #000000; stroke-width: 0.6"/>
      </g>
     </g>
    </g>
    <g id="ytick_22">
     <g id="line2d_39">
      <g>
       <use xlink:href="#m9f0b9e82bd" x="34.8" y="218.116769" style="stroke: #000000; stroke-width: 0.6"/>
      </g>
     </g>
    </g>
    <g id="ytick_23">
     <g id="line2d_40">
      <g>
       <use xlink:href="#m9f0b9e82bd" x="34.8" y="203.771402" style="stroke: #000000; stroke-width: 0.6"/>
      </g>
     </g>
    </g>
    <g id="ytick_24">
     <g id="line2d_41">
      <g>
       <use xlink:href="#m9f0b9e82bd" x="34.8" y="196.598718" style="stroke: #000000; stroke-width: 0.6"/>
      </g>
     </g>
    </g>
    <g id="ytick_25">
     <g id="line2d_42">
      <g>
       <use xlink:href="#m9f0b9e82bd" x="34.8" y="189.426035" style="stroke: #000000; stroke-width: 0.6"/>
      </g>
     </g>
    </g>
    <g id="ytick_26">
     <g id="line2d_43">
      <g>
       <use xlink:href="#m9f0b9e82bd" x="34.8" y="182.253351" style="stroke: #000000; stroke-width: 0.6"/>
      </g>
     </g>
    </g>
    <g id="ytick_27">
     <g id="line2d_44">
      <g>
       <use xlink:href="#m9f0b9e82bd" x="34.8" y="167.907984" style="stroke: #000000; stroke-width: 0.6"/>
      </g>
     </g>
    </g>
    <g id="ytick_28">
     <g id="line2d_45">
      <g>
       <use xlink:href="#m9f0b9e82bd" x="34.8" y="160.735301" style="stroke: #000000; stroke-width: 0.6"/>
      </g>
     </g>
    </g>
    <g id="ytick_29">
     <g id="line2d_46">
      <g>
       <use xlink:href="#m9f0b9e82bd" x="34.8" y="153.562617" style="stroke: #000000; stroke-width: 0.6"/>
      </g>
     </g>
    </g>
    <g id="ytick_30">
     <g id="line2d_47">
      <g>
       <use xlink:href="#m9f0b9e82bd" x="34.8" y="146.389933" style="stroke: #000000; stroke-width: 0.6"/>
      </g>
     </g>
    </g>
    <g id="ytick_31">
     <g id="line2d_48">
      <g>
       <use xlink:href="#m9f0b9e82bd" x="34.8" y="132.044566" style="stroke: #000000; stroke-width: 0.6"/>
      </g>
     </g>
    </g>
    <g id="ytick_32">
     <g id="line2d_49">
      <g>
       <use xlink:href="#m9f0b9e82bd" x="34.8" y="124.871883" style="stroke: #000000; stroke-width: 0.6"/>
      </g>
     </g>
    </g>
    <g id="ytick_33">
     <g id="line2d_50">
      <g>
       <use xlink:href="#m9f0b9e82bd" x="34.8" y="117.699199" style="stroke: #000000; stroke-width: 0.6"/>
      </g>
     </g>
    </g>
    <g id="ytick_34">
     <g id="line2d_51">
      <g>
       <use xlink:href="#m9f0b9e82bd" x="34.8" y="110.526516" style="stroke: #000000; stroke-width: 0.6"/>
      </g>
     </g>
    </g>
    <g id="ytick_35">
     <g id="line2d_52">
      <g>
       <use xlink:href="#m9f0b9e82bd" x="34.8" y="96.181148" style="stroke: #000000; stroke-width: 0.6"/>
      </g>
     </g>
    </g>
    <g id="ytick_36">
     <g id="line2d_53">
      <g>
       <use xlink:href="#m9f0b9e82bd" x="34.8" y="89.008465" style="stroke: #000000; stroke-width: 0.6"/>
      </g>
     </g>
    </g>
    <g id="ytick_37">
     <g id="line2d_54">
      <g>
       <use xlink:href="#m9f0b9e82bd" x="34.8" y="81.835781" style="stroke: #000000; stroke-width: 0.6"/>
      </g>
     </g>
    </g>
    <g id="ytick_38">
     <g id="line2d_55">
      <g>
       <use xlink:href="#m9f0b9e82bd" x="34.8" y="74.663098" style="stroke: #000000; stroke-width: 0.6"/>
      </g>
     </g>
    </g>
    <g id="ytick_39">
     <g id="line2d_56">
      <g>
       <use xlink:href="#m9f0b9e82bd" x="34.8" y="60.317731" style="stroke: #000000; stroke-width: 0.6"/>
      </g>
     </g>
    </g>
    <g id="ytick_40">
     <g id="line2d_57">
      <g>
       <use xlink:href="#m9f0b9e82bd" x="34.8" y="53.145047" style="stroke: #000000; stroke-width: 0.6"/>
      </g>
     </g>
    </g>
    <g id="ytick_41">
     <g id="line2d_58">
      <g>
       <use xlink:href="#m9f0b9e82bd" x="34.8" y="45.972363" style="stroke: #000000; stroke-width: 0.6"/>
      </g>
     </g>
    </g>
    <g id="ytick_42">
     <g id="line2d_59">
      <g>
       <use xlink:href="#m9f0b9e82bd" x="34.8" y="38.79968" style="stroke: #000000; stroke-width: 0.6"/>
      </g>
     </g>
    </g>
    <g id="ytick_43">
     <g id="line2d_60">
      <g>
       <use xlink:href="#m9f0b9e82bd" x="34.8" y="24.454313" style="stroke: #000000; stroke-width: 0.6"/>
      </g>
     </g>
    </g>
    <g id="text_14">
     <!-- $x(t)$ -->
     <g transform="translate(21.12 11.7) scale(0.16 -0.16)">
      <defs>
       <path id="Cmmi10-78" d="M 500 184 
Q 613 97 819 97 
Q 1019 97 1172 289 
Q 1325 481 1381 709 
L 1672 1844 
Q 1741 2153 1741 2266 
Q 1741 2425 1652 2544 
Q 1563 2663 1403 2663 
Q 1200 2663 1022 2536 
Q 844 2409 722 2214 
Q 600 2019 550 1819 
Q 538 1778 500 1778 
L 422 1778 
Q 372 1778 372 1838 
L 372 1856 
Q 434 2094 584 2320 
Q 734 2547 951 2687 
Q 1169 2828 1416 2828 
Q 1650 2828 1839 2703 
Q 2028 2578 2106 2363 
Q 2216 2559 2386 2693 
Q 2556 2828 2759 2828 
Q 2897 2828 3040 2779 
Q 3184 2731 3275 2631 
Q 3366 2531 3366 2381 
Q 3366 2219 3261 2101 
Q 3156 1984 2994 1984 
Q 2891 1984 2822 2050 
Q 2753 2116 2753 2216 
Q 2753 2350 2845 2451 
Q 2938 2553 3066 2572 
Q 2950 2663 2747 2663 
Q 2541 2663 2389 2472 
Q 2238 2281 2175 2047 
L 1894 916 
Q 1825 659 1825 494 
Q 1825 331 1917 214 
Q 2009 97 2163 97 
Q 2463 97 2698 361 
Q 2934 625 3009 941 
Q 3022 978 3059 978 
L 3138 978 
Q 3163 978 3178 961 
Q 3194 944 3194 922 
Q 3194 916 3188 903 
Q 3097 522 2806 225 
Q 2516 -72 2150 -72 
Q 1916 -72 1727 54 
Q 1538 181 1459 397 
Q 1359 209 1182 68 
Q 1006 -72 806 -72 
Q 669 -72 523 -23 
Q 378 25 287 125 
Q 197 225 197 378 
Q 197 528 301 651 
Q 406 775 563 775 
Q 669 775 741 711 
Q 813 647 813 544 
Q 813 409 723 309 
Q 634 209 500 184 
z
" transform="scale(0.015625)"/>
       <path id="Cmr10-28" d="M 1984 -1588 
Q 1628 -1306 1370 -942 
Q 1113 -578 948 -165 
Q 784 247 703 697 
Q 622 1147 622 1600 
Q 622 2059 703 2509 
Q 784 2959 951 3375 
Q 1119 3791 1378 4153 
Q 1638 4516 1984 4788 
Q 1984 4800 2016 4800 
L 2075 4800 
Q 2094 4800 2109 4783 
Q 2125 4766 2125 4744 
Q 2125 4716 2113 4703 
Q 1800 4397 1592 4047 
Q 1384 3697 1257 3301 
Q 1131 2906 1075 2482 
Q 1019 2059 1019 1600 
Q 1019 -434 2106 -1491 
Q 2125 -1509 2125 -1544 
Q 2125 -1559 2108 -1579 
Q 2091 -1600 2075 -1600 
L 2016 -1600 
Q 1984 -1600 1984 -1588 
z
" transform="scale(0.015625)"/>
       <path id="Cmr10-29" d="M 416 -1600 
Q 359 -1600 359 -1544 
Q 359 -1516 372 -1503 
Q 1466 -434 1466 1600 
Q 1466 3634 384 4691 
Q 359 4706 359 4744 
Q 359 4766 376 4783 
Q 394 4800 416 4800 
L 475 4800 
Q 494 4800 506 4788 
Q 966 4425 1272 3906 
Q 1578 3388 1720 2800 
Q 1863 2213 1863 1600 
Q 1863 1147 1786 708 
Q 1709 269 1542 -157 
Q 1375 -584 1119 -945 
Q 863 -1306 506 -1588 
Q 494 -1600 475 -1600 
L 416 -1600 
z
" transform="scale(0.015625)"/>
      </defs>
      <use xlink:href="#Cmmi10-78"/>
      <use xlink:href="#Cmr10-28" transform="translate(57.080078 0)"/>
      <use xlink:href="#Cmmi10-74" transform="translate(95.898438 0)"/>
      <use xlink:href="#Cmr10-29" transform="translate(131.982422 0)"/>
     </g>
    </g>
   </g>
   <g id="line2d_61">
    <path d="M 34.8 175.080668 
L 35.469372 175.014742 
L 36.138744 174.825739 
L 39.604928 173.305987 
L 40.218166 173.273669 
L 40.831403 173.397759 
L 41.50711 173.732033 
L 42.182817 174.272308 
L 43.534231 175.860058 
L 45.522231 178.559219 
L 46.792386 179.683812 
L 47.238787 179.848114 
L 47.685188 179.865288 
L 48.131589 179.724825 
L 48.601539 179.4008 
L 49.071488 178.896608 
L 50.011387 177.385401 
L 51.307127 174.469721 
L 53.238073 169.78272 
L 54.190882 168.093818 
L 54.826089 167.421131 
L 55.143692 167.248586 
L 55.480217 167.194725 
L 55.954134 167.353345 
L 56.428052 167.791452 
L 56.901969 168.505523 
L 57.849804 170.696071 
L 58.797638 173.695669 
L 61.614115 183.405293 
L 62.446326 185.213372 
L 62.971189 185.863031 
L 63.496051 186.079372 
L 63.758482 186.016392 
L 64.283345 185.541141 
L 64.810641 184.599971 
L 65.340372 183.210948 
L 66.134967 180.397803 
L 67.243745 175.42938 
L 69.297598 165.874747 
L 70.153227 162.972106 
L 70.692145 161.74823 
L 71.231063 161.078048 
L 71.500522 160.966124 
L 71.769982 161.008129 
L 72.10359 161.275897 
L 72.437198 161.78193 
L 73.104415 163.487112 
L 73.781195 166.081973 
L 74.796365 171.26095 
L 77.815188 188.21635 
L 78.475475 190.570944 
L 79.135762 191.972256 
L 79.465906 192.274654 
L 79.79605 192.298073 
L 80.126193 192.038012 
L 80.56665 191.250641 
L 81.007107 189.973041 
L 81.667791 187.203352 
L 82.325486 183.570644 
L 83.637883 174.61641 
L 85.390928 162.50031 
L 86.138718 158.54339 
L 86.88475 155.87274 
L 87.382106 154.935788 
L 87.827113 154.719389 
L 88.219773 155.030782 
L 88.612433 155.813184 
L 89.201423 157.842064 
L 89.771215 160.707735 
L 90.625903 166.390167 
L 91.48059 173.207399 
L 93.304459 188.148215 
L 94.034007 192.956802 
L 94.75224 196.408363 
L 95.406222 198.187086 
L 95.733213 198.537967 
L 96.060204 198.515161 
L 96.387194 198.115028 
L 96.714185 197.340004 
L 97.368167 194.705449 
L 97.955367 191.209305 
L 98.542566 186.809987 
L 98.934032 183.47844 
L 101.834159 157.044825 
L 102.485084 152.803254 
L 103.160234 149.820123 
L 103.642633 148.703618 
L 103.883833 148.48363 
L 104.125033 148.494497 
L 104.366232 148.737733 
L 104.848631 149.917212 
L 105.261385 151.640338 
L 105.880514 155.372716 
L 106.706021 162.174169 
L 107.737904 172.662727 
L 109.796627 193.88881 
L 110.622123 200.083192 
L 111.241245 203.169256 
L 111.653993 204.365128 
L 112.066741 204.82467 
L 112.262129 204.779038 
L 112.457518 204.563111 
L 112.848295 203.622876 
L 113.239072 202.018737 
L 113.629849 199.780904 
L 114.212942 195.364891 
L 115.145086 186.127085 
L 118.503892 149.191854 
L 119.220804 144.671615 
L 119.607481 143.156539 
L 119.994157 142.343756 
L 120.187496 142.209059 
L 120.380834 142.257939 
L 120.721048 142.790784 
L 121.061262 143.888494 
L 121.571582 146.55954 
L 122.25201 151.881166 
L 123.102544 160.86323 
L 124.181625 174.583925 
L 125.925953 196.58243 
L 126.818974 204.983606 
L 127.502293 209.156974 
L 127.957839 210.6629 
L 128.185612 211.008524 
L 128.413385 211.076516 
L 128.687573 210.787592 
L 128.961762 210.094632 
L 129.373044 208.310814 
L 129.784327 205.668738 
L 130.332703 200.916997 
L 131.269333 190.118665 
L 132.925435 166.719492 
L 134.077212 151.39659 
L 134.897769 142.95945 
L 135.62188 138.061914 
L 136.02425 136.547032 
L 136.249546 136.099878 
L 136.474842 135.947106 
L 136.700139 136.091187 
L 136.925435 136.532339 
L 137.376027 138.295419 
L 137.82662 141.193048 
L 138.502509 147.48647 
L 139.403694 158.851012 
L 141.157912 185.732602 
L 142.494108 204.227221 
L 143.213471 211.442438 
L 143.752994 215.095225 
L 144.239383 216.928139 
L 144.482578 217.29765 
L 144.725773 217.294911 
L 144.968968 216.918294 
L 145.33376 215.656943 
L 145.698552 213.578558 
L 146.274607 208.72594 
L 147.04268 199.629077 
L 148.002771 185.148884 
L 150.400935 146.623991 
L 151.281533 136.542204 
L 151.809892 132.500345 
L 152.33825 130.200775 
L 152.69049 129.694051 
L 152.866609 129.755415 
L 153.183066 130.39446 
L 153.604078 132.286072 
L 154.025091 135.32666 
L 154.58644 141.038341 
L 155.288127 150.473097 
L 156.332855 167.838508 
L 158.533538 205.59029 
L 159.437125 216.567466 
L 159.961381 220.762377 
L 160.372394 222.769175 
L 160.646403 223.446931 
L 160.920411 223.584141 
L 161.19442 223.176908 
L 161.468428 222.227444 
L 161.879441 219.806438 
L 162.388152 215.230912 
L 163.131566 205.743494 
L 163.874979 193.615208 
L 167.13717 135.85968 
L 167.793834 128.722165 
L 168.270825 125.345001 
L 168.616483 123.935194 
L 168.846922 123.498073 
L 169.07736 123.469294 
L 169.307799 123.850489 
L 169.653457 125.186542 
L 170.068087 127.972137 
L 170.666909 134.140018 
L 171.415436 144.964016 
L 172.163964 158.425557 
L 175.103955 214.421048 
L 175.77862 222.862473 
L 176.271688 227.055221 
L 176.629823 228.941274 
L 176.987957 229.803447 
L 177.167024 229.843011 
L 177.346092 229.620011 
L 177.704226 228.38922 
L 178.062361 226.129436 
L 178.599563 220.899298 
L 179.340352 210.439881 
L 180.205835 194.48958 
L 183.264593 132.976267 
L 183.982942 123.746605 
L 184.521704 119.329456 
L 184.868607 117.739451 
L 185.21551 117.174171 
L 185.388961 117.281193 
L 185.735864 118.275148 
L 186.080469 120.279412 
L 186.593933 125.074271 
L 187.27855 134.541349 
L 188.134322 150.388324 
L 189.499347 180.789194 
L 190.910885 211.046418 
L 191.65752 223.492805 
L 192.273045 230.854374 
L 192.70191 234.172068 
L 193.097013 235.808148 
L 193.315397 236.109279 
L 193.533782 235.975955 
L 193.752166 235.407931 
L 194.079743 233.747927 
L 194.516512 230.065628 
L 194.95328 224.795097 
L 195.608434 214.232938 
L 196.481971 196.252274 
L 199.55342 127.84895 
L 200.338444 117.082141 
L 200.927212 112.395134 
L 201.270633 111.133844 
L 201.442343 110.923194 
L 201.614054 110.994964 
L 201.785764 111.34942 
L 202.129184 112.901216 
L 202.472605 115.555838 
L 202.987736 121.507842 
L 203.674577 132.75334 
L 204.613445 152.903104 
L 207.732245 225.503631 
L 208.391616 235.062856 
L 208.860544 239.566741 
L 209.329472 241.976228 
L 209.485781 242.296293 
L 209.65511 242.366571 
L 209.824439 242.148538 
L 210.163096 240.85028 
L 210.501754 238.419334 
L 211.053116 232.142602 
L 211.691229 221.619305 
L 212.542047 203.204633 
L 214.175129 160.846619 
L 215.399941 131.308592 
L 216.193278 116.789522 
L 216.867146 108.605432 
L 217.34848 105.455893 
L 217.694616 104.666352 
L 217.867685 104.743047 
L 218.040753 105.134859 
L 218.38689 106.857786 
L 218.838484 110.945484 
L 219.365771 118.205133 
L 219.998516 130.056066 
L 221.036177 155.098888 
L 223.835841 227.266728 
L 224.49115 238.531717 
L 225.078014 245.254233 
L 225.565123 248.136765 
L 225.889862 248.631742 
L 226.052232 248.44513 
L 226.376971 247.204922 
L 226.701711 244.823658 
L 227.18882 239.190776 
L 227.776501 229.356271 
L 228.627123 210.224218 
L 229.888567 175.294977 
L 231.590532 128.933955 
L 232.391444 112.569835 
L 233.031821 103.623571 
L 233.544122 99.552243 
L 233.800273 98.61208 
L 234.044049 98.411511 
L 234.275451 98.850764 
L 234.506853 99.9012 
L 234.853956 102.606194 
L 235.316759 108.246254 
L 235.895264 118.312937 
L 236.705171 137.129363 
L 238.004226 174.454144 
L 239.600336 220.175066 
L 240.498148 239.764906 
L 241.096689 248.730776 
L 241.587549 253.201142 
L 241.880877 254.548183 
L 242.076429 254.881323 
L 242.174205 254.877148 
L 242.369757 254.526805 
L 242.663085 253.149666 
L 243.076663 249.501774 
L 243.550368 242.976808 
L 244.181974 230.738973 
L 244.971481 210.784465 
L 246.434642 166.259127 
L 247.859541 124.842476 
L 248.681527 106.839525 
L 249.298016 97.668527 
L 249.709009 93.938862 
L 250.017254 92.472119 
L 250.22275 92.142774 
L 250.325499 92.174107 
L 250.530995 92.629159 
L 250.83924 94.28764 
L 251.213265 97.843704 
L 251.75582 105.866885 
L 252.434013 120.175295 
L 253.375035 146.155899 
L 256.456306 238.623176 
L 257.201192 252.440424 
L 257.721907 258.410117 
L 258.112443 260.701885 
L 258.3728 261.152321 
L 258.502979 261.051028 
L 258.763336 260.195432 
L 259.153872 257.296095 
L 259.648703 250.92992 
L 260.256457 239.310744 
L 260.940784 221.95746 
L 262.081328 186.230732 
L 264.090845 121.737965 
L 264.935124 101.738054 
L 265.497976 92.536636 
L 265.920116 88.147861 
L 266.324485 86.097136 
L 266.459274 85.893542 
L 266.594064 85.931872 
L 266.863643 86.734354 
L 267.133222 88.498117 
L 267.537591 92.906319 
L 268.07675 101.904853 
L 268.744266 117.446481 
L 269.745541 147.711227 
L 272.672539 242.276407 
L 273.35271 256.368771 
L 273.862839 263.355722 
L 274.293206 266.615357 
L 274.580118 267.391871 
L 274.723574 267.355269 
L 274.86703 267.034835 
L 275.153942 265.545928 
L 275.58431 261.228234 
L 276.014678 254.512632 
L 276.644175 240.754343 
L 277.36291 220.2721 
L 278.526383 180.283912 
L 280.387939 116.814783 
L 281.191013 96.600763 
L 281.753822 86.749479 
L 282.176739 82.043942 
L 282.458683 80.272722 
L 282.740628 79.623512 
L 282.963394 79.911256 
L 283.208775 81.045449 
L 283.53595 83.874699 
L 283.863125 88.169865 
L 284.353887 97.213158 
L 285.008237 113.610816 
L 285.932481 143.306294 
L 288.919073 246.570676 
L 289.59616 261.645759 
L 290.114936 269.293208 
L 290.529957 272.720464 
L 290.826558 273.641179 
L 290.91565 273.665414 
L 291.093832 273.363193 
L 291.361106 272.035641 
L 291.71747 268.655227 
L 292.162927 261.93071 
L 292.697474 250.456903 
L 293.410204 230.189401 
L 294.511255 191.112714 
L 296.569788 115.337951 
L 297.453083 91.331676 
L 298.113123 79.502185 
L 298.525647 75.193646 
L 298.873358 73.519752 
L 299.07375 73.385207 
L 299.274142 73.860673 
L 299.57473 75.712426 
L 299.975514 80.267922 
L 300.476494 89.162184 
L 301.077669 104.089592 
L 301.779041 126.356338 
L 303.050851 174.837957 
L 304.692439 236.471744 
L 305.490678 259.275948 
L 306.081669 271.204975 
L 306.621085 277.781683 
L 306.890794 279.420082 
L 307.160502 279.927822 
L 307.295356 279.754788 
L 307.565064 278.555852 
L 307.969627 274.651263 
L 308.485515 266.14416 
L 309.120572 250.710271 
L 309.892455 225.846441 
L 311.05028 180.653771 
L 312.806559 112.341504 
L 313.644393 87.748865 
L 314.312468 74.461112 
L 314.785747 69.019387 
L 315.069714 67.439557 
L 315.259026 67.104214 
L 315.353682 67.15316 
L 315.542993 67.684446 
L 315.750784 68.93029 
L 316.090187 72.436965 
L 316.542725 79.858551 
L 317.108397 93.227586 
L 317.8296 115.909426 
L 318.974999 160.748938 
L 321.026456 242.770753 
L 321.833383 266.443006 
L 322.478926 279.197715 
L 322.963082 284.590728 
L 323.246589 285.986629 
L 323.36871 286.179002 
L 323.490831 286.123974 
L 323.735073 285.271922 
L 324.101436 282.154075 
L 324.467798 276.882351 
L 324.956282 266.682136 
L 325.572091 249.18317 
L 326.394905 219.357485 
L 329.861375 83.728615 
L 330.497857 69.809198 
L 331.007041 63.174807 
L 331.348499 61.127149 
L 331.519228 60.844417 
L 331.689957 61.058871 
L 331.946051 62.311389 
L 332.287509 65.700058 
L 332.714331 72.61542 
L 333.226518 84.596449 
L 333.879963 105.004656 
L 334.868771 144.028734 
L 337.498427 254.017649 
L 338.268069 275.9338 
L 338.817722 286.303696 
L 339.229804 290.835199 
L 339.559469 292.360174 
L 339.724301 292.41071 
L 339.889134 291.985011 
L 340.120637 290.5857 
L 340.493354 286.392415 
L 340.866071 279.880205 
L 341.462418 264.977583 
L 342.207852 239.683917 
L 343.236943 196.305038 
L 345.473081 99.453735 
L 346.276909 74.487846 
L 346.879781 61.914561 
L 347.257912 57.09953 
L 347.535564 55.156 
L 347.813216 54.589924 
L 347.952042 54.826857 
L 348.186019 56.009583 
L 348.471468 58.772129 
L 348.852067 64.657377 
L 349.422966 77.937182 
L 350.089015 99.398215 
L 350.945364 134.233093 
L 353.979005 265.774505 
L 354.672487 284.731763 
L 355.250389 294.640907 
L 355.59713 297.768189 
L 355.828291 298.635343 
L 355.943872 298.699753 
L 356.059452 298.517481 
L 356.290613 297.414127 
L 356.637354 293.929602 
L 357.099676 285.968573 
L 357.632078 272.41267 
L 358.334973 248.262688 
L 359.186381 211.862214 
L 361.946658 87.599365 
L 362.709799 64.780917 
L 363.243998 54.337291 
L 363.625569 49.983433 
L 363.931786 48.445736 
L 364.085376 48.340596 
L 364.238965 48.682032 
L 364.469349 50.029364 
L 364.776528 53.368314 
L 365.237296 61.583866 
L 365.774858 75.717187 
L 366.50995 101.897594 
L 367.607242 151.366437 
L 369.753464 252.433757 
L 370.639388 282.869738 
L 371.303831 297.714261 
L 371.746793 303.207101 
L 372.060628 304.842928 
L 372.245337 304.915542 
L 372.430045 304.326486 
L 372.707107 302.208174 
L 373.076524 297.117311 
L 373.538294 287.258257 
L 374.184773 267.505531 
L 374.923606 237.884318 
L 376.111159 180.500516 
L 377.851071 97.145378 
L 378.716733 66.180852 
L 379.36598 50.655903 
L 379.824127 44.323973 
L 380.099015 42.473926 
L 380.282273 42.069593 
L 380.373903 42.117473 
L 380.557161 42.71347 
L 380.832049 44.852207 
L 381.198567 49.989176 
L 381.656713 59.937057 
L 382.298118 79.87595 
L 383.055325 110.899233 
L 384.262885 170.712318 
L 386.028351 256.896788 
L 386.884739 287.716534 
L 387.455664 301.696556 
L 387.931435 308.704365 
L 388.216897 310.76231 
L 388.407205 311.219671 
L 388.537218 311.108964 
L 388.797244 309.857666 
L 389.057269 307.243482 
L 389.447307 300.823885 
L 389.93224 288.862904 
L 390.578818 266.747784 
L 391.395518 230.752928 
L 393.19692 137.127671 
L 394.364247 82.786754 
L 395.15276 55.820929 
L 395.654542 44.213951 
L 396.041729 38.577044 
L 396.428916 35.98234 
L 396.557979 35.806638 
L 396.687041 35.977393 
L 396.913075 37.110138 
L 397.252127 40.78166 
L 397.704195 49.257287 
L 398.269281 65.235407 
L 398.947384 91.29049 
L 399.851521 134.735333 
L 402.621207 274.596035 
L 403.321018 298.129548 
L 403.920857 311.287398 
L 404.31116 315.981591 
L 404.582313 317.36665 
L 404.763082 317.423552 
L 404.94385 316.78567 
L 405.215003 314.532375 
L 405.57654 309.147253 
L 405.995546 299.629714 
L 406.543249 282.284969 
L 407.269184 251.989042 
L 408.40994 193.042747 
L 410.363319 89.928149 
L 411.200005 56.947028 
L 411.797638 40.657283 
L 412.275745 32.706729 
L 412.634324 29.906379 
L 412.873378 29.583077 
L 412.992904 29.887118 
L 413.231958 31.424323 
L 413.590538 36.026332 
L 414.068644 46.305758 
L 414.651735 64.773412 
L 415.421517 97.607533 
L 416.446951 151.562257 
L 418.53902 264.227747 
L 419.377777 297.375851 
L 419.97689 313.480844 
L 420.441811 320.946412 
L 420.758174 323.357333 
L 420.969083 323.736923 
L 421.074537 323.556448 
L 421.285445 322.455784 
L 421.601808 318.970259 
L 422.023625 310.982314 
L 422.550896 295.932527 
L 423.183622 271.276719 
L 424.031145 229.452044 
L 424.991901 175.080668 
L 424.991901 175.080668 
" clip-path="url(#p781afa8a5f)" style="fill: none; stroke: #0000ff; stroke-linecap: square"/>
   </g>
   <g id="patch_3">
    <path d="M 34.8 329.62 
L 34.8 23.7 
" style="fill: none; stroke: #000000; stroke-width: 0.8; stroke-linejoin: miter; stroke-linecap: square"/>
   </g>
   <g id="patch_4">
    <path d="M 26.996162 175.080668 
L 432.795739 175.080668 
" style="fill: none; stroke: #000000; stroke-width: 0.8; stroke-linejoin: miter; stroke-linecap: square"/>
   </g>
  </g>
 </g>
 <defs>
  <clipPath id="p781afa8a5f">
   <rect x="26.996162" y="23.7" width="405.799577" height="305.92"/>
  </clipPath>
 </defs>
</svg>
