<?xml version="1.0" encoding="utf-8" standalone="no"?>
<!DOCTYPE svg PUBLIC "-//W3C//DTD SVG 1.1//EN"
  "http://www.w3.org/Graphics/SVG/1.1/DTD/svg11.dtd">
<svg xmlns:xlink="http://www.w3.org/1999/xlink" width="452.606487pt" height="338.866753pt" viewBox="0 0 452.606487 338.866753" xmlns="http://www.w3.org/2000/svg" version="1.1">
 <metadata>
  <rdf:RDF xmlns:dc="http://purl.org/dc/elements/1.1/" xmlns:cc="http://creativecommons.org/ns#" xmlns:rdf="http://www.w3.org/1999/02/22-rdf-syntax-ns#">
   <cc:Work>
    <dc:type rdf:resource="http://purl.org/dc/dcmitype/StillImage"/>
    <dc:date>2025-02-04T09:35:26.675455</dc:date>
    <dc:format>image/svg+xml</dc:format>
    <dc:creator>
     <cc:Agent>
      <dc:title>Matplotlib v3.6.2, https://matplotlib.org/</dc:title>
     </cc:Agent>
    </dc:creator>
   </cc:Work>
  </rdf:RDF>
 </metadata>
 <defs>
  <style type="text/css">*{stroke-linejoin: round; stroke-linecap: butt}</style>
 </defs>
 <g id="figure_1">
  <g id="patch_1">
   <path d="M 0 338.866753 
L 452.606487 338.866753 
L 452.606487 0 
L 0 0 
z
" style="fill: #ffffff"/>
  </g>
  <g id="axes_1">
   <g id="patch_2">
    <path d="M 35.691294 325.272774 
L 433.391487 325.272774 
L 433.391487 7.2 
L 35.691294 7.2 
z
" style="fill: #ffffff"/>
   </g>
   <g id="matplotlib.axis_1">
    <g id="xtick_1">
     <g id="line2d_1">
      <defs>
       <path id="mc44f51cb50" d="M 0 0 
L 0 3.5 
" style="stroke: #000000; stroke-width: 0.8"/>
      </defs>
      <g>
       <use xlink:href="#mc44f51cb50" x="43.339375" y="213.255875" style="stroke: #000000; stroke-width: 0.8"/>
      </g>
     </g>
    </g>
    <g id="xtick_2">
     <g id="line2d_2">
      <g>
       <use xlink:href="#mc44f51cb50" x="119.820181" y="213.255875" style="stroke: #000000; stroke-width: 0.8"/>
      </g>
     </g>
     <g id="text_1">
      <!-- 2 -->
      <g transform="translate(116.002681 229.374) scale(0.12 -0.12)">
       <defs>
        <path id="DejaVuSans-32" d="M 1228 531 
L 3431 531 
L 3431 0 
L 469 0 
L 469 531 
Q 828 903 1448 1529 
Q 2069 2156 2228 2338 
Q 2531 2678 2651 2914 
Q 2772 3150 2772 3378 
Q 2772 3750 2511 3984 
Q 2250 4219 1831 4219 
Q 1534 4219 1204 4116 
Q 875 4013 500 3803 
L 500 4441 
Q 881 4594 1212 4672 
Q 1544 4750 1819 4750 
Q 2544 4750 2975 4387 
Q 3406 4025 3406 3419 
Q 3406 3131 3298 2873 
Q 3191 2616 2906 2266 
Q 2828 2175 2409 1742 
Q 1991 1309 1228 531 
z
" transform="scale(0.015625)"/>
       </defs>
       <use xlink:href="#DejaVuSans-32"/>
      </g>
     </g>
    </g>
    <g id="xtick_3">
     <g id="line2d_3">
      <g>
       <use xlink:href="#mc44f51cb50" x="196.300987" y="213.255875" style="stroke: #000000; stroke-width: 0.8"/>
      </g>
     </g>
     <g id="text_2">
      <!-- 4 -->
      <g transform="translate(192.483487 229.374) scale(0.12 -0.12)">
       <defs>
        <path id="DejaVuSans-34" d="M 2419 4116 
L 825 1625 
L 2419 1625 
L 2419 4116 
z
M 2253 4666 
L 3047 4666 
L 3047 1625 
L 3713 1625 
L 3713 1100 
L 3047 1100 
L 3047 0 
L 2419 0 
L 2419 1100 
L 313 1100 
L 313 1709 
L 2253 4666 
z
" transform="scale(0.015625)"/>
       </defs>
       <use xlink:href="#DejaVuSans-34"/>
      </g>
     </g>
    </g>
    <g id="xtick_4">
     <g id="line2d_4">
      <g>
       <use xlink:href="#mc44f51cb50" x="272.781794" y="213.255875" style="stroke: #000000; stroke-width: 0.8"/>
      </g>
     </g>
     <g id="text_3">
      <!-- 6 -->
      <g transform="translate(268.964294 229.374) scale(0.12 -0.12)">
       <defs>
        <path id="DejaVuSans-36" d="M 2113 2584 
Q 1688 2584 1439 2293 
Q 1191 2003 1191 1497 
Q 1191 994 1439 701 
Q 1688 409 2113 409 
Q 2538 409 2786 701 
Q 3034 994 3034 1497 
Q 3034 2003 2786 2293 
Q 2538 2584 2113 2584 
z
M 3366 4563 
L 3366 3988 
Q 3128 4100 2886 4159 
Q 2644 4219 2406 4219 
Q 1781 4219 1451 3797 
Q 1122 3375 1075 2522 
Q 1259 2794 1537 2939 
Q 1816 3084 2150 3084 
Q 2853 3084 3261 2657 
Q 3669 2231 3669 1497 
Q 3669 778 3244 343 
Q 2819 -91 2113 -91 
Q 1303 -91 875 529 
Q 447 1150 447 2328 
Q 447 3434 972 4092 
Q 1497 4750 2381 4750 
Q 2619 4750 2861 4703 
Q 3103 4656 3366 4563 
z
" transform="scale(0.015625)"/>
       </defs>
       <use xlink:href="#DejaVuSans-36"/>
      </g>
     </g>
    </g>
    <g id="xtick_5">
     <g id="line2d_5">
      <g>
       <use xlink:href="#mc44f51cb50" x="349.2626" y="213.255875" style="stroke: #000000; stroke-width: 0.8"/>
      </g>
     </g>
     <g id="text_4">
      <!-- 8 -->
      <g transform="translate(345.4451 229.374) scale(0.12 -0.12)">
       <defs>
        <path id="DejaVuSans-38" d="M 2034 2216 
Q 1584 2216 1326 1975 
Q 1069 1734 1069 1313 
Q 1069 891 1326 650 
Q 1584 409 2034 409 
Q 2484 409 2743 651 
Q 3003 894 3003 1313 
Q 3003 1734 2745 1975 
Q 2488 2216 2034 2216 
z
M 1403 2484 
Q 997 2584 770 2862 
Q 544 3141 544 3541 
Q 544 4100 942 4425 
Q 1341 4750 2034 4750 
Q 2731 4750 3128 4425 
Q 3525 4100 3525 3541 
Q 3525 3141 3298 2862 
Q 3072 2584 2669 2484 
Q 3125 2378 3379 2068 
Q 3634 1759 3634 1313 
Q 3634 634 3220 271 
Q 2806 -91 2034 -91 
Q 1263 -91 848 271 
Q 434 634 434 1313 
Q 434 1759 690 2068 
Q 947 2378 1403 2484 
z
M 1172 3481 
Q 1172 3119 1398 2916 
Q 1625 2713 2034 2713 
Q 2441 2713 2670 2916 
Q 2900 3119 2900 3481 
Q 2900 3844 2670 4047 
Q 2441 4250 2034 4250 
Q 1625 4250 1398 4047 
Q 1172 3844 1172 3481 
z
" transform="scale(0.015625)"/>
       </defs>
       <use xlink:href="#DejaVuSans-38"/>
      </g>
     </g>
    </g>
    <g id="xtick_6">
     <g id="line2d_6">
      <g>
       <use xlink:href="#mc44f51cb50" x="425.743406" y="213.255875" style="stroke: #000000; stroke-width: 0.8"/>
      </g>
     </g>
     <g id="text_5">
      <!-- 10 -->
      <g transform="translate(418.108406 229.374) scale(0.12 -0.12)">
       <defs>
        <path id="DejaVuSans-31" d="M 794 531 
L 1825 531 
L 1825 4091 
L 703 3866 
L 703 4441 
L 1819 4666 
L 2450 4666 
L 2450 531 
L 3481 531 
L 3481 0 
L 794 0 
L 794 531 
z
" transform="scale(0.015625)"/>
        <path id="DejaVuSans-30" d="M 2034 4250 
Q 1547 4250 1301 3770 
Q 1056 3291 1056 2328 
Q 1056 1369 1301 889 
Q 1547 409 2034 409 
Q 2525 409 2770 889 
Q 3016 1369 3016 2328 
Q 3016 3291 2770 3770 
Q 2525 4250 2034 4250 
z
M 2034 4750 
Q 2819 4750 3233 4129 
Q 3647 3509 3647 2328 
Q 3647 1150 3233 529 
Q 2819 -91 2034 -91 
Q 1250 -91 836 529 
Q 422 1150 422 2328 
Q 422 3509 836 4129 
Q 1250 4750 2034 4750 
z
" transform="scale(0.015625)"/>
       </defs>
       <use xlink:href="#DejaVuSans-31"/>
       <use xlink:href="#DejaVuSans-30" x="63.623047"/>
      </g>
     </g>
    </g>
    <g id="xtick_7">
     <g id="line2d_7">
      <defs>
       <path id="m27d4c17471" d="M 0 0 
L 0 2 
" style="stroke: #000000; stroke-width: 0.6"/>
      </defs>
      <g>
       <use xlink:href="#m27d4c17471" x="62.459577" y="213.255875" style="stroke: #000000; stroke-width: 0.6"/>
      </g>
     </g>
    </g>
    <g id="xtick_8">
     <g id="line2d_8">
      <g>
       <use xlink:href="#m27d4c17471" x="81.579778" y="213.255875" style="stroke: #000000; stroke-width: 0.6"/>
      </g>
     </g>
    </g>
    <g id="xtick_9">
     <g id="line2d_9">
      <g>
       <use xlink:href="#m27d4c17471" x="100.69998" y="213.255875" style="stroke: #000000; stroke-width: 0.6"/>
      </g>
     </g>
    </g>
    <g id="xtick_10">
     <g id="line2d_10">
      <g>
       <use xlink:href="#m27d4c17471" x="138.940383" y="213.255875" style="stroke: #000000; stroke-width: 0.6"/>
      </g>
     </g>
    </g>
    <g id="xtick_11">
     <g id="line2d_11">
      <g>
       <use xlink:href="#m27d4c17471" x="158.060584" y="213.255875" style="stroke: #000000; stroke-width: 0.6"/>
      </g>
     </g>
    </g>
    <g id="xtick_12">
     <g id="line2d_12">
      <g>
       <use xlink:href="#m27d4c17471" x="177.180786" y="213.255875" style="stroke: #000000; stroke-width: 0.6"/>
      </g>
     </g>
    </g>
    <g id="xtick_13">
     <g id="line2d_13">
      <g>
       <use xlink:href="#m27d4c17471" x="215.421189" y="213.255875" style="stroke: #000000; stroke-width: 0.6"/>
      </g>
     </g>
    </g>
    <g id="xtick_14">
     <g id="line2d_14">
      <g>
       <use xlink:href="#m27d4c17471" x="234.541391" y="213.255875" style="stroke: #000000; stroke-width: 0.6"/>
      </g>
     </g>
    </g>
    <g id="xtick_15">
     <g id="line2d_15">
      <g>
       <use xlink:href="#m27d4c17471" x="253.661592" y="213.255875" style="stroke: #000000; stroke-width: 0.6"/>
      </g>
     </g>
    </g>
    <g id="xtick_16">
     <g id="line2d_16">
      <g>
       <use xlink:href="#m27d4c17471" x="291.901995" y="213.255875" style="stroke: #000000; stroke-width: 0.6"/>
      </g>
     </g>
    </g>
    <g id="xtick_17">
     <g id="line2d_17">
      <g>
       <use xlink:href="#m27d4c17471" x="311.022197" y="213.255875" style="stroke: #000000; stroke-width: 0.6"/>
      </g>
     </g>
    </g>
    <g id="xtick_18">
     <g id="line2d_18">
      <g>
       <use xlink:href="#m27d4c17471" x="330.142398" y="213.255875" style="stroke: #000000; stroke-width: 0.6"/>
      </g>
     </g>
    </g>
    <g id="xtick_19">
     <g id="line2d_19">
      <g>
       <use xlink:href="#m27d4c17471" x="368.382801" y="213.255875" style="stroke: #000000; stroke-width: 0.6"/>
      </g>
     </g>
    </g>
    <g id="xtick_20">
     <g id="line2d_20">
      <g>
       <use xlink:href="#m27d4c17471" x="387.503003" y="213.255875" style="stroke: #000000; stroke-width: 0.6"/>
      </g>
     </g>
    </g>
    <g id="xtick_21">
     <g id="line2d_21">
      <g>
       <use xlink:href="#m27d4c17471" x="406.623205" y="213.255875" style="stroke: #000000; stroke-width: 0.6"/>
      </g>
     </g>
    </g>
    <g id="text_6">
     <!-- $t$ -->
     <g transform="translate(441.391487 213.255875) scale(0.19 -0.19)">
      <defs>
       <path id="Cmmi10-74" d="M 397 519 
Q 397 613 416 697 
L 878 2534 
L 206 2534 
Q 141 2534 141 2619 
Q 166 2759 225 2759 
L 934 2759 
L 1191 3803 
Q 1216 3888 1291 3947 
Q 1366 4006 1459 4006 
Q 1541 4006 1595 3957 
Q 1650 3909 1650 3828 
Q 1650 3809 1648 3798 
Q 1647 3788 1644 3775 
L 1388 2759 
L 2047 2759 
Q 2113 2759 2113 2675 
Q 2109 2659 2100 2621 
Q 2091 2584 2075 2559 
Q 2059 2534 2028 2534 
L 1331 2534 
L 872 684 
Q 825 503 825 372 
Q 825 97 1013 97 
Q 1294 97 1511 361 
Q 1728 625 1844 941 
Q 1869 978 1894 978 
L 1972 978 
Q 1997 978 2012 961 
Q 2028 944 2028 922 
Q 2028 909 2022 903 
Q 1881 516 1612 222 
Q 1344 -72 997 -72 
Q 744 -72 570 93 
Q 397 259 397 519 
z
" transform="scale(0.015625)"/>
      </defs>
      <use xlink:href="#Cmmi10-74" transform="translate(0 0.40625)"/>
     </g>
    </g>
   </g>
   <g id="matplotlib.axis_2">
    <g id="ytick_1">
     <g id="line2d_22">
      <defs>
       <path id="m69a60de224" d="M 0 0 
L -3.5 0 
" style="stroke: #000000; stroke-width: 0.8"/>
      </defs>
      <g>
       <use xlink:href="#m69a60de224" x="43.339375" y="324.612066" style="stroke: #000000; stroke-width: 0.8"/>
      </g>
     </g>
     <g id="text_7">
      <!-- −1.5 -->
      <g transform="translate(7.2 329.171128) scale(0.12 -0.12)">
       <defs>
        <path id="DejaVuSans-2212" d="M 678 2272 
L 4684 2272 
L 4684 1741 
L 678 1741 
L 678 2272 
z
" transform="scale(0.015625)"/>
        <path id="DejaVuSans-2e" d="M 684 794 
L 1344 794 
L 1344 0 
L 684 0 
L 684 794 
z
" transform="scale(0.015625)"/>
        <path id="DejaVuSans-35" d="M 691 4666 
L 3169 4666 
L 3169 4134 
L 1269 4134 
L 1269 2991 
Q 1406 3038 1543 3061 
Q 1681 3084 1819 3084 
Q 2600 3084 3056 2656 
Q 3513 2228 3513 1497 
Q 3513 744 3044 326 
Q 2575 -91 1722 -91 
Q 1428 -91 1123 -41 
Q 819 9 494 109 
L 494 744 
Q 775 591 1075 516 
Q 1375 441 1709 441 
Q 2250 441 2565 725 
Q 2881 1009 2881 1497 
Q 2881 1984 2565 2268 
Q 2250 2553 1709 2553 
Q 1456 2553 1204 2497 
Q 953 2441 691 2322 
L 691 4666 
z
" transform="scale(0.015625)"/>
       </defs>
       <use xlink:href="#DejaVuSans-2212"/>
       <use xlink:href="#DejaVuSans-31" x="83.789062"/>
       <use xlink:href="#DejaVuSans-2e" x="147.412109"/>
       <use xlink:href="#DejaVuSans-35" x="179.199219"/>
      </g>
     </g>
    </g>
    <g id="ytick_2">
     <g id="line2d_23">
      <g>
       <use xlink:href="#m69a60de224" x="43.339375" y="287.493336" style="stroke: #000000; stroke-width: 0.8"/>
      </g>
     </g>
     <g id="text_8">
      <!-- −1.0 -->
      <g transform="translate(7.2 292.052398) scale(0.12 -0.12)">
       <use xlink:href="#DejaVuSans-2212"/>
       <use xlink:href="#DejaVuSans-31" x="83.789062"/>
       <use xlink:href="#DejaVuSans-2e" x="147.412109"/>
       <use xlink:href="#DejaVuSans-30" x="179.199219"/>
      </g>
     </g>
    </g>
    <g id="ytick_3">
     <g id="line2d_24">
      <g>
       <use xlink:href="#m69a60de224" x="43.339375" y="250.374605" style="stroke: #000000; stroke-width: 0.8"/>
      </g>
     </g>
     <g id="text_9">
      <!-- −0.5 -->
      <g transform="translate(7.2 254.933668) scale(0.12 -0.12)">
       <use xlink:href="#DejaVuSans-2212"/>
       <use xlink:href="#DejaVuSans-30" x="83.789062"/>
       <use xlink:href="#DejaVuSans-2e" x="147.412109"/>
       <use xlink:href="#DejaVuSans-35" x="179.199219"/>
      </g>
     </g>
    </g>
    <g id="ytick_4">
     <g id="line2d_25">
      <g>
       <use xlink:href="#m69a60de224" x="43.339375" y="213.255875" style="stroke: #000000; stroke-width: 0.8"/>
      </g>
     </g>
    </g>
    <g id="ytick_5">
     <g id="line2d_26">
      <g>
       <use xlink:href="#m69a60de224" x="43.339375" y="176.137145" style="stroke: #000000; stroke-width: 0.8"/>
      </g>
     </g>
     <g id="text_10">
      <!-- 0.5 -->
      <g transform="translate(17.255625 180.696208) scale(0.12 -0.12)">
       <use xlink:href="#DejaVuSans-30"/>
       <use xlink:href="#DejaVuSans-2e" x="63.623047"/>
       <use xlink:href="#DejaVuSans-35" x="95.410156"/>
      </g>
     </g>
    </g>
    <g id="ytick_6">
     <g id="line2d_27">
      <g>
       <use xlink:href="#m69a60de224" x="43.339375" y="139.018415" style="stroke: #000000; stroke-width: 0.8"/>
      </g>
     </g>
     <g id="text_11">
      <!-- 1.0 -->
      <g transform="translate(17.255625 143.577477) scale(0.12 -0.12)">
       <use xlink:href="#DejaVuSans-31"/>
       <use xlink:href="#DejaVuSans-2e" x="63.623047"/>
       <use xlink:href="#DejaVuSans-30" x="95.410156"/>
      </g>
     </g>
    </g>
    <g id="ytick_7">
     <g id="line2d_28">
      <g>
       <use xlink:href="#m69a60de224" x="43.339375" y="101.899685" style="stroke: #000000; stroke-width: 0.8"/>
      </g>
     </g>
     <g id="text_12">
      <!-- 1.5 -->
      <g transform="translate(17.255625 106.458747) scale(0.12 -0.12)">
       <use xlink:href="#DejaVuSans-31"/>
       <use xlink:href="#DejaVuSans-2e" x="63.623047"/>
       <use xlink:href="#DejaVuSans-35" x="95.410156"/>
      </g>
     </g>
    </g>
    <g id="ytick_8">
     <g id="line2d_29">
      <g>
       <use xlink:href="#m69a60de224" x="43.339375" y="64.780955" style="stroke: #000000; stroke-width: 0.8"/>
      </g>
     </g>
     <g id="text_13">
      <!-- 2.0 -->
      <g transform="translate(17.255625 69.340017) scale(0.12 -0.12)">
       <use xlink:href="#DejaVuSans-32"/>
       <use xlink:href="#DejaVuSans-2e" x="63.623047"/>
       <use xlink:href="#DejaVuSans-30" x="95.410156"/>
      </g>
     </g>
    </g>
    <g id="ytick_9">
     <g id="line2d_30">
      <g>
       <use xlink:href="#m69a60de224" x="43.339375" y="27.662224" style="stroke: #000000; stroke-width: 0.8"/>
      </g>
     </g>
     <g id="text_14">
      <!-- 2.5 -->
      <g transform="translate(17.255625 32.221287) scale(0.12 -0.12)">
       <use xlink:href="#DejaVuSans-32"/>
       <use xlink:href="#DejaVuSans-2e" x="63.623047"/>
       <use xlink:href="#DejaVuSans-35" x="95.410156"/>
      </g>
     </g>
    </g>
    <g id="ytick_10">
     <g id="line2d_31">
      <defs>
       <path id="m44057bc261" d="M 0 0 
L -2 0 
" style="stroke: #000000; stroke-width: 0.6"/>
      </defs>
      <g>
       <use xlink:href="#m44057bc261" x="43.339375" y="317.18832" style="stroke: #000000; stroke-width: 0.6"/>
      </g>
     </g>
    </g>
    <g id="ytick_11">
     <g id="line2d_32">
      <g>
       <use xlink:href="#m44057bc261" x="43.339375" y="309.764574" style="stroke: #000000; stroke-width: 0.6"/>
      </g>
     </g>
    </g>
    <g id="ytick_12">
     <g id="line2d_33">
      <g>
       <use xlink:href="#m44057bc261" x="43.339375" y="302.340828" style="stroke: #000000; stroke-width: 0.6"/>
      </g>
     </g>
    </g>
    <g id="ytick_13">
     <g id="line2d_34">
      <g>
       <use xlink:href="#m44057bc261" x="43.339375" y="294.917082" style="stroke: #000000; stroke-width: 0.6"/>
      </g>
     </g>
    </g>
    <g id="ytick_14">
     <g id="line2d_35">
      <g>
       <use xlink:href="#m44057bc261" x="43.339375" y="280.06959" style="stroke: #000000; stroke-width: 0.6"/>
      </g>
     </g>
    </g>
    <g id="ytick_15">
     <g id="line2d_36">
      <g>
       <use xlink:href="#m44057bc261" x="43.339375" y="272.645844" style="stroke: #000000; stroke-width: 0.6"/>
      </g>
     </g>
    </g>
    <g id="ytick_16">
     <g id="line2d_37">
      <g>
       <use xlink:href="#m44057bc261" x="43.339375" y="265.222098" style="stroke: #000000; stroke-width: 0.6"/>
      </g>
     </g>
    </g>
    <g id="ytick_17">
     <g id="line2d_38">
      <g>
       <use xlink:href="#m44057bc261" x="43.339375" y="257.798352" style="stroke: #000000; stroke-width: 0.6"/>
      </g>
     </g>
    </g>
    <g id="ytick_18">
     <g id="line2d_39">
      <g>
       <use xlink:href="#m44057bc261" x="43.339375" y="242.950859" style="stroke: #000000; stroke-width: 0.6"/>
      </g>
     </g>
    </g>
    <g id="ytick_19">
     <g id="line2d_40">
      <g>
       <use xlink:href="#m44057bc261" x="43.339375" y="235.527113" style="stroke: #000000; stroke-width: 0.6"/>
      </g>
     </g>
    </g>
    <g id="ytick_20">
     <g id="line2d_41">
      <g>
       <use xlink:href="#m44057bc261" x="43.339375" y="228.103367" style="stroke: #000000; stroke-width: 0.6"/>
      </g>
     </g>
    </g>
    <g id="ytick_21">
     <g id="line2d_42">
      <g>
       <use xlink:href="#m44057bc261" x="43.339375" y="220.679621" style="stroke: #000000; stroke-width: 0.6"/>
      </g>
     </g>
    </g>
    <g id="ytick_22">
     <g id="line2d_43">
      <g>
       <use xlink:href="#m44057bc261" x="43.339375" y="205.832129" style="stroke: #000000; stroke-width: 0.6"/>
      </g>
     </g>
    </g>
    <g id="ytick_23">
     <g id="line2d_44">
      <g>
       <use xlink:href="#m44057bc261" x="43.339375" y="198.408383" style="stroke: #000000; stroke-width: 0.6"/>
      </g>
     </g>
    </g>
    <g id="ytick_24">
     <g id="line2d_45">
      <g>
       <use xlink:href="#m44057bc261" x="43.339375" y="190.984637" style="stroke: #000000; stroke-width: 0.6"/>
      </g>
     </g>
    </g>
    <g id="ytick_25">
     <g id="line2d_46">
      <g>
       <use xlink:href="#m44057bc261" x="43.339375" y="183.560891" style="stroke: #000000; stroke-width: 0.6"/>
      </g>
     </g>
    </g>
    <g id="ytick_26">
     <g id="line2d_47">
      <g>
       <use xlink:href="#m44057bc261" x="43.339375" y="168.713399" style="stroke: #000000; stroke-width: 0.6"/>
      </g>
     </g>
    </g>
    <g id="ytick_27">
     <g id="line2d_48">
      <g>
       <use xlink:href="#m44057bc261" x="43.339375" y="161.289653" style="stroke: #000000; stroke-width: 0.6"/>
      </g>
     </g>
    </g>
    <g id="ytick_28">
     <g id="line2d_49">
      <g>
       <use xlink:href="#m44057bc261" x="43.339375" y="153.865907" style="stroke: #000000; stroke-width: 0.6"/>
      </g>
     </g>
    </g>
    <g id="ytick_29">
     <g id="line2d_50">
      <g>
       <use xlink:href="#m44057bc261" x="43.339375" y="146.442161" style="stroke: #000000; stroke-width: 0.6"/>
      </g>
     </g>
    </g>
    <g id="ytick_30">
     <g id="line2d_51">
      <g>
       <use xlink:href="#m44057bc261" x="43.339375" y="131.594669" style="stroke: #000000; stroke-width: 0.6"/>
      </g>
     </g>
    </g>
    <g id="ytick_31">
     <g id="line2d_52">
      <g>
       <use xlink:href="#m44057bc261" x="43.339375" y="124.170923" style="stroke: #000000; stroke-width: 0.6"/>
      </g>
     </g>
    </g>
    <g id="ytick_32">
     <g id="line2d_53">
      <g>
       <use xlink:href="#m44057bc261" x="43.339375" y="116.747177" style="stroke: #000000; stroke-width: 0.6"/>
      </g>
     </g>
    </g>
    <g id="ytick_33">
     <g id="line2d_54">
      <g>
       <use xlink:href="#m44057bc261" x="43.339375" y="109.323431" style="stroke: #000000; stroke-width: 0.6"/>
      </g>
     </g>
    </g>
    <g id="ytick_34">
     <g id="line2d_55">
      <g>
       <use xlink:href="#m44057bc261" x="43.339375" y="94.475939" style="stroke: #000000; stroke-width: 0.6"/>
      </g>
     </g>
    </g>
    <g id="ytick_35">
     <g id="line2d_56">
      <g>
       <use xlink:href="#m44057bc261" x="43.339375" y="87.052193" style="stroke: #000000; stroke-width: 0.6"/>
      </g>
     </g>
    </g>
    <g id="ytick_36">
     <g id="line2d_57">
      <g>
       <use xlink:href="#m44057bc261" x="43.339375" y="79.628447" style="stroke: #000000; stroke-width: 0.6"/>
      </g>
     </g>
    </g>
    <g id="ytick_37">
     <g id="line2d_58">
      <g>
       <use xlink:href="#m44057bc261" x="43.339375" y="72.204701" style="stroke: #000000; stroke-width: 0.6"/>
      </g>
     </g>
    </g>
    <g id="ytick_38">
     <g id="line2d_59">
      <g>
       <use xlink:href="#m44057bc261" x="43.339375" y="57.357209" style="stroke: #000000; stroke-width: 0.6"/>
      </g>
     </g>
    </g>
    <g id="ytick_39">
     <g id="line2d_60">
      <g>
       <use xlink:href="#m44057bc261" x="43.339375" y="49.933463" style="stroke: #000000; stroke-width: 0.6"/>
      </g>
     </g>
    </g>
    <g id="ytick_40">
     <g id="line2d_61">
      <g>
       <use xlink:href="#m44057bc261" x="43.339375" y="42.509717" style="stroke: #000000; stroke-width: 0.6"/>
      </g>
     </g>
    </g>
    <g id="ytick_41">
     <g id="line2d_62">
      <g>
       <use xlink:href="#m44057bc261" x="43.339375" y="35.08597" style="stroke: #000000; stroke-width: 0.6"/>
      </g>
     </g>
    </g>
    <g id="ytick_42">
     <g id="line2d_63">
      <g>
       <use xlink:href="#m44057bc261" x="43.339375" y="20.238478" style="stroke: #000000; stroke-width: 0.6"/>
      </g>
     </g>
    </g>
    <g id="ytick_43">
     <g id="line2d_64">
      <g>
       <use xlink:href="#m44057bc261" x="43.339375" y="12.814732" style="stroke: #000000; stroke-width: 0.6"/>
      </g>
     </g>
    </g>
   </g>
   <g id="line2d_65">
    <path d="M 43.339375 176.137145 
L 45.393944 174.391664 
L 46.810122 173.444187 
L 48.291591 172.639284 
L 50.853194 171.617192 
L 53.211211 171.006501 
L 55.126917 170.693698 
L 57.112872 170.509839 
L 59.842432 170.446032 
L 63.891983 170.66425 
L 68.590175 171.27127 
L 72.368879 171.978212 
L 77.283529 173.148772 
L 83.027032 174.851509 
L 88.985735 176.990983 
L 92.828181 178.571922 
L 97.513852 180.712462 
L 103.073869 183.549484 
L 107.752571 186.175721 
L 112.608068 189.115273 
L 118.06467 192.650936 
L 123.656393 196.488012 
L 131.996062 202.498827 
L 152.428472 217.452561 
L 159.068651 221.959382 
L 164.690388 225.489921 
L 167.361198 227.055044 
L 173.566664 230.366511 
L 178.019005 232.429404 
L 180.793079 233.569803 
L 185.686557 235.291914 
L 189.466252 236.356331 
L 193.951092 237.305637 
L 197.84088 237.845583 
L 201.26074 238.099214 
L 205.331565 238.129832 
L 209.719606 237.833924 
L 213.493898 237.310393 
L 218.89561 236.141072 
L 222.641831 235.051671 
L 225.310754 234.143326 
L 230.926127 231.896147 
L 234.802752 230.100377 
L 239.540914 227.665748 
L 244.778817 224.711043 
L 250.291052 221.363223 
L 257.689206 216.608062 
L 275.744322 204.806284 
L 281.297538 201.425561 
L 285.738569 198.89563 
L 291.485459 195.911003 
L 295.93262 193.864793 
L 298.405604 192.838044 
L 302.479659 191.333719 
L 307.39637 189.84937 
L 310.951732 189.014805 
L 313.914063 188.478659 
L 318.744448 187.923444 
L 322.06837 187.775048 
L 325.304366 187.815038 
L 326.873746 187.899941 
L 332.498346 188.552666 
L 336.270863 189.290225 
L 340.49115 190.390693 
L 344.457722 191.67857 
L 348.776737 193.343782 
L 353.988829 195.688569 
L 360.629353 199.140997 
L 366.40545 202.492818 
L 372.882276 206.538444 
L 382.819596 213.076754 
L 394.557666 220.779971 
L 401.275099 224.915808 
L 406.258831 227.758897 
L 410.553076 230.012961 
L 414.71369 231.995742 
L 419.202542 233.88572 
L 421.019137 234.571194 
L 425.743406 236.125093 
L 425.743406 236.125093 
" clip-path="url(#pd3017cb62f)" style="fill: none; stroke: #0000ff; stroke-linecap: square"/>
   </g>
   <g id="line2d_66">
    <path d="M 43.339375 176.137145 
L 44.892971 183.069423 
L 46.590746 189.410734 
L 47.770655 193.174841 
L 49.4255 197.705493 
L 50.747131 200.787974 
L 52.132259 203.586981 
L 53.517388 206.009393 
L 55.221361 208.556337 
L 56.757922 210.512751 
L 57.977973 211.874815 
L 59.838482 213.682831 
L 61.47905 215.0566 
L 64.386603 217.107775 
L 67.788979 219.074799 
L 71.218615 220.766547 
L 78.988979 224.115117 
L 100.389599 232.81022 
L 108.152977 235.714707 
L 114.065333 237.665346 
L 120.034997 239.31343 
L 123.101408 240.009667 
L 128.311071 240.926846 
L 132.566466 241.406018 
L 137.294623 241.632855 
L 140.820755 241.583432 
L 144.337453 241.343266 
L 147.026952 241.029516 
L 150.899728 240.379292 
L 154.463953 239.575451 
L 158.570238 238.410081 
L 163.629587 236.634735 
L 167.451574 235.058163 
L 173.167669 232.352544 
L 179.139145 229.131506 
L 186.38958 224.7785 
L 192.966168 220.523499 
L 219.742269 202.754686 
L 224.095958 200.169477 
L 230.430904 196.73396 
L 234.891167 194.590726 
L 239.271981 192.738985 
L 244.4328 190.911635 
L 248.013744 189.88498 
L 252.324128 188.925552 
L 254.127911 188.616354 
L 258.792749 188.075249 
L 262.25111 187.918007 
L 266.549276 188.013948 
L 269.391015 188.254074 
L 274.008141 188.939922 
L 278.128154 189.853468 
L 281.76545 190.887504 
L 286.150241 192.403619 
L 288.932305 193.509877 
L 293.769903 195.680009 
L 299.236441 198.470375 
L 304.94011 201.704374 
L 309.904157 204.731902 
L 319.723286 211.095046 
L 332.803169 219.723089 
L 339.926431 224.170384 
L 345.877797 227.603448 
L 351.20183 230.383594 
L 354.167455 231.791866 
L 357.605696 233.284726 
L 362.507727 235.130944 
L 366.888989 236.478262 
L 371.239047 237.51497 
L 376.761564 238.378298 
L 382.014347 238.7145 
L 385.749791 238.661916 
L 389.190151 238.399231 
L 394.111563 237.670923 
L 400.079252 236.247878 
L 405.692508 234.398679 
L 407.728345 233.613262 
L 411.466701 232.022573 
L 416.206322 229.750405 
L 421.14849 227.112268 
L 425.743406 224.451235 
L 425.743406 224.451235 
" clip-path="url(#pd3017cb62f)" style="fill: none; stroke: #ff0000; stroke-linecap: square"/>
   </g>
   <g id="line2d_67">
    <path d="M 43.339375 139.018415 
L 44.861746 136.451553 
L 46.405055 134.55468 
L 47.589678 133.506165 
L 48.774301 132.760487 
L 50.051888 132.249489 
L 52.008293 131.960229 
L 53.575121 132.081537 
L 55.14195 132.455823 
L 57.637465 133.462161 
L 60.415579 135.02063 
L 64.583335 137.918348 
L 67.491525 140.182466 
L 74.067839 145.647722 
L 98.126976 166.325357 
L 112.742742 179.142442 
L 144.510186 207.365285 
L 151.06032 212.789896 
L 157.80178 218.023862 
L 164.150491 222.537698 
L 167.933689 225.001012 
L 171.851653 227.352277 
L 176.585763 229.898403 
L 178.914184 231.024609 
L 182.854669 232.730873 
L 187.420465 234.380386 
L 190.865308 235.383357 
L 194.453137 236.201072 
L 198.172768 236.800336 
L 202.709614 237.185663 
L 206.05923 237.226386 
L 210.757441 236.938138 
L 214.159465 236.4824 
L 218.645945 235.574054 
L 221.809117 234.731355 
L 226.389288 233.230358 
L 230.582932 231.583592 
L 234.830607 229.673106 
L 240.949201 226.543881 
L 246.267091 223.521724 
L 251.844937 220.119578 
L 262.342485 213.334724 
L 275.08901 205.073792 
L 281.938466 200.929197 
L 287.637431 197.766513 
L 293.227977 194.990055 
L 297.717459 193.03551 
L 302.507388 191.253828 
L 307.580652 189.739365 
L 311.490794 188.850617 
L 317.176785 188.011765 
L 322.060086 187.73291 
L 326.417328 187.833128 
L 330.019558 188.163941 
L 332.970068 188.600118 
L 337.531925 189.560886 
L 341.199646 190.577464 
L 345.45975 192.01824 
L 348.655956 193.272579 
L 353.400581 195.388151 
L 357.546416 197.462095 
L 361.498577 199.611606 
L 368.656568 203.857305 
L 375.687409 208.346778 
L 399.115161 223.613566 
L 404.178526 226.594439 
L 407.510689 228.43166 
L 413.829463 231.588313 
L 417.122018 233.04004 
L 421.17204 234.623551 
L 425.743406 236.122284 
L 425.743406 236.122284 
" clip-path="url(#pd3017cb62f)" style="fill: none; stroke: #0000ff; stroke-linecap: square"/>
   </g>
   <g id="line2d_68">
    <path d="M 43.339375 139.018415 
L 44.66183 155.677325 
L 45.955396 169.660907 
L 47.491315 183.712923 
L 48.857659 194.217666 
L 50.103216 202.389648 
L 51.711897 211.249785 
L 52.758192 216.127122 
L 54.003891 221.149144 
L 55.641101 226.631772 
L 56.758783 229.749694 
L 57.902674 232.489981 
L 59.238024 235.188226 
L 60.615381 237.486794 
L 61.229333 238.372935 
L 62.457237 239.920897 
L 63.541549 241.067606 
L 65.533096 242.724998 
L 67.647405 243.976473 
L 69.519959 244.751851 
L 70.994003 245.192831 
L 72.468047 245.516747 
L 74.293561 245.791877 
L 78.92315 246.090281 
L 100.286291 246.467499 
L 122.738185 247.665862 
L 127.58856 247.639265 
L 131.284548 247.482113 
L 135.013656 247.185182 
L 138.94908 246.705817 
L 142.344759 246.14539 
L 148.533358 244.754213 
L 152.623586 243.564477 
L 158.020508 241.663359 
L 162.097535 239.981857 
L 167.674194 237.355553 
L 173.926513 233.998255 
L 177.956459 231.628924 
L 184.688401 227.371908 
L 190.932999 223.166614 
L 204.220938 213.83507 
L 213.606679 207.357799 
L 219.16921 203.729614 
L 224.566736 200.4411 
L 229.496314 197.689087 
L 233.719496 195.555509 
L 238.035991 193.614997 
L 241.486744 192.253656 
L 245.176341 190.997401 
L 249.52969 189.79422 
L 252.540776 189.14585 
L 256.864221 188.485914 
L 260.135601 188.202846 
L 265.225847 188.13687 
L 268.004789 188.293205 
L 272.70597 188.863491 
L 275.718443 189.427228 
L 279.092578 190.237263 
L 283.259175 191.488306 
L 287.924886 193.200031 
L 292.045955 194.964989 
L 297.08034 197.41146 
L 302.20378 200.187089 
L 307.62271 203.381013 
L 314.331236 207.607278 
L 327.437642 216.254352 
L 334.834106 221.050925 
L 342.37508 225.644494 
L 348.556059 229.061297 
L 352.900156 231.222079 
L 357.944225 233.439695 
L 361.966403 234.959071 
L 366.679808 236.433888 
L 370.405827 237.352243 
L 374.165535 238.047551 
L 376.973684 238.411167 
L 382.546654 238.730536 
L 386.400832 238.635781 
L 390.277474 238.280884 
L 394.669998 237.568817 
L 398.450839 236.699052 
L 403.035168 235.338524 
L 405.991471 234.291749 
L 411.061906 232.207874 
L 413.561323 231.055803 
L 417.993137 228.829572 
L 424.220721 225.355803 
L 425.743406 224.454043 
L 425.743406 224.454043 
" clip-path="url(#pd3017cb62f)" style="fill: none; stroke: #ff0000; stroke-linecap: square"/>
   </g>
   <g id="line2d_69">
    <path d="M 43.339375 101.899685 
L 44.695207 98.460719 
L 46.05104 95.938323 
L 47.453813 94.147683 
L 48.752718 93.120096 
L 50.051623 92.606832 
L 51.481797 92.544501 
L 52.072163 92.652047 
L 53.252897 93.070401 
L 55.039216 94.144075 
L 56.827884 95.647627 
L 57.722218 96.529215 
L 60.985178 100.293116 
L 63.269517 103.291297 
L 68.148324 110.222479 
L 79.869491 127.356258 
L 86.110364 136.043694 
L 91.023518 142.590301 
L 96.234526 149.273406 
L 104.078594 158.908539 
L 113.597209 170.066656 
L 122.234779 179.787286 
L 129.168725 187.325004 
L 135.274186 193.743355 
L 141.917053 200.449471 
L 148.565641 206.810303 
L 154.84762 212.430602 
L 158.702374 215.662103 
L 161.62405 217.989384 
L 166.017746 221.274799 
L 169.859422 223.920847 
L 174.955614 227.079599 
L 179.106878 229.337583 
L 181.165507 230.347523 
L 184.882779 231.980534 
L 188.499534 233.327725 
L 190.495206 233.966898 
L 194.583838 235.041311 
L 198.842644 235.820946 
L 202.269777 236.195619 
L 206.024111 236.348333 
L 210.506731 236.182089 
L 214.488123 235.723364 
L 217.931712 235.097939 
L 219.914488 234.644668 
L 225.389874 233.055684 
L 229.254189 231.653567 
L 234.430647 229.44469 
L 239.418967 226.997589 
L 243.917966 224.561042 
L 248.948974 221.625239 
L 257.300237 216.403285 
L 278.514114 202.829706 
L 285.169099 198.988193 
L 290.681744 196.114455 
L 295.801202 193.753666 
L 299.241492 192.356469 
L 302.711432 191.115218 
L 307.317723 189.745836 
L 309.781181 189.150288 
L 313.376653 188.458911 
L 317.780423 187.907725 
L 321.126394 187.711001 
L 326.15532 187.779821 
L 330.390784 188.176694 
L 333.120307 188.594609 
L 336.901002 189.378985 
L 340.271 190.27378 
L 344.166792 191.528633 
L 348.000439 192.98224 
L 352.154627 194.785446 
L 356.280954 196.791014 
L 361.384075 199.53206 
L 368.531116 203.767089 
L 375.395549 208.145596 
L 398.806648 223.419842 
L 402.909012 225.861936 
L 409.329931 229.382614 
L 413.831554 231.585445 
L 418.927932 233.771295 
L 422.187509 234.980578 
L 425.743406 236.119476 
L 425.743406 236.119476 
" clip-path="url(#pd3017cb62f)" style="fill: none; stroke: #0000ff; stroke-linecap: square"/>
   </g>
   <g id="line2d_70">
    <path d="M 43.339375 101.899685 
L 44.853028 132.854934 
L 46.225982 156.506329 
L 47.75907 178.679389 
L 49.292159 197.051302 
L 50.573772 209.924859 
L 51.854072 220.844627 
L 53.115727 229.960198 
L 54.020017 235.611414 
L 55.662207 244.242271 
L 56.932378 249.669686 
L 58.18293 254.108012 
L 59.433483 257.771162 
L 60.477211 260.31274 
L 61.956577 263.223821 
L 63.264788 265.219969 
L 64.572999 266.758308 
L 65.946268 267.957101 
L 67.452678 268.863247 
L 68.959089 269.417585 
L 70.479359 269.687771 
L 71.845138 269.730023 
L 73.199403 269.620726 
L 74.553669 269.390253 
L 77.91424 268.446941 
L 82.0959 266.860738 
L 90.615166 263.400045 
L 95.589206 261.613568 
L 100.823993 260.014042 
L 105.414126 258.832353 
L 110.767206 257.657623 
L 120.878661 255.744188 
L 129.447143 254.073304 
L 136.069986 252.541755 
L 138.855287 251.804258 
L 142.469921 250.749359 
L 148.738041 248.628594 
L 152.528293 247.153076 
L 158.230233 244.647771 
L 163.823715 241.857053 
L 169.39798 238.761102 
L 173.490391 236.302812 
L 178.985766 232.782643 
L 186.216946 227.836717 
L 195.379134 221.234564 
L 211.631636 209.450299 
L 218.646429 204.692964 
L 223.541947 201.600747 
L 229.160811 198.347664 
L 235.371035 195.190972 
L 239.992163 193.183217 
L 242.388271 192.266775 
L 248.249245 190.407195 
L 252.575748 189.39933 
L 256.967061 188.706053 
L 260.659824 188.385506 
L 264.174426 188.30514 
L 267.363765 188.421829 
L 269.302408 188.580385 
L 273.037524 189.070362 
L 275.30057 189.483509 
L 279.099924 190.369221 
L 284.071152 191.877359 
L 286.636972 192.802788 
L 290.702997 194.461049 
L 294.888697 196.395545 
L 298.087119 198.014734 
L 304.680553 201.684204 
L 310.076606 204.95563 
L 318.974816 210.691128 
L 335.767925 221.669254 
L 341.393174 225.095226 
L 346.039014 227.737146 
L 351.201575 230.422923 
L 356.435426 232.828577 
L 361.13322 234.678689 
L 363.866817 235.608786 
L 368.336543 236.882495 
L 370.977918 237.484988 
L 375.963515 238.306196 
L 379.446139 238.628687 
L 382.793052 238.740845 
L 387.558666 238.564562 
L 390.79778 238.220604 
L 394.197659 237.667361 
L 399.091451 236.534386 
L 402.805114 235.419646 
L 408.035212 233.498741 
L 412.427404 231.592162 
L 417.765811 228.952572 
L 423.976127 225.501847 
L 425.743406 224.456852 
L 425.743406 224.456852 
" clip-path="url(#pd3017cb62f)" style="fill: none; stroke: #ff0000; stroke-linecap: square"/>
   </g>
   <g id="line2d_71">
    <path d="M 43.339375 64.780955 
L 44.434809 60.99476 
L 45.595203 57.916805 
L 46.755597 55.676262 
L 47.55276 54.564697 
L 48.349924 53.764184 
L 49.173968 53.232503 
L 49.998013 52.972281 
L 50.822057 52.956477 
L 51.646102 53.160413 
L 52.556258 53.614026 
L 53.983845 54.745195 
L 55.631885 56.582677 
L 57.279924 58.8753 
L 58.49134 60.791962 
L 61.527044 66.225993 
L 64.102129 71.309504 
L 70.260062 84.208199 
L 76.180894 96.625231 
L 82.678501 109.607899 
L 87.049597 117.845147 
L 91.522952 125.854299 
L 96.326938 134.010423 
L 100.227595 140.324632 
L 106.302655 149.674005 
L 111.904595 157.839879 
L 117.626949 165.790367 
L 123.699418 173.840489 
L 129.725928 181.460897 
L 136.702573 189.828772 
L 140.683103 194.377229 
L 145.66158 199.820624 
L 150.660672 204.992862 
L 156.468035 210.599617 
L 159.778602 213.587456 
L 165.845759 218.638626 
L 170.969328 222.446205 
L 174.44755 224.7769 
L 178.790057 227.384455 
L 181.250705 228.708194 
L 185.100521 230.549775 
L 188.635808 231.989174 
L 193.235139 233.494361 
L 197.289333 234.472715 
L 200.119599 234.96148 
L 204.151117 235.382888 
L 208.485376 235.479653 
L 212.529228 235.243831 
L 216.238279 234.758796 
L 219.756211 234.069701 
L 224.007887 232.953042 
L 227.895068 231.675955 
L 232.407646 229.909854 
L 235.979533 228.31474 
L 241.426952 225.586573 
L 247.127171 222.410991 
L 254.555925 217.908133 
L 266.425254 210.289822 
L 274.896968 204.90402 
L 281.128337 201.155455 
L 286.73652 198.032948 
L 292.493963 195.150772 
L 297.351197 193.023702 
L 300.412728 191.843636 
L 304.83227 190.377851 
L 308.921218 189.287491 
L 311.882533 188.665075 
L 315.505183 188.101189 
L 319.480395 187.738417 
L 324.624303 187.672939 
L 325.123073 187.690937 
L 330.490838 188.155879 
L 333.289916 188.593207 
L 336.891607 189.348065 
L 340.313079 190.259864 
L 344.271285 191.541791 
L 348.301333 193.08382 
L 352.182183 194.778927 
L 357.154925 197.224188 
L 362.410483 200.099614 
L 368.908578 203.988818 
L 375.896614 208.462966 
L 398.266491 223.083177 
L 404.248084 226.624021 
L 410.257548 229.85166 
L 415.412951 232.296784 
L 420.035047 234.19595 
L 424.572601 235.762971 
L 425.743406 236.116667 
L 425.743406 236.116667 
" clip-path="url(#pd3017cb62f)" style="fill: none; stroke: #0000ff; stroke-linecap: square"/>
   </g>
   <g id="line2d_72">
    <path d="M 43.339375 64.780955 
L 44.7933 106.273622 
L 46.115955 138.249455 
L 47.43861 165.488542 
L 48.715074 187.883694 
L 50.015 207.28434 
L 51.393308 224.609327 
L 52.823869 239.557259 
L 54.148212 251.035082 
L 55.501571 260.756468 
L 56.619077 267.459665 
L 57.760365 273.229634 
L 58.925435 278.137681 
L 60.035549 282.006664 
L 61.153126 285.205777 
L 62.190774 287.627774 
L 63.533728 290.082302 
L 64.424047 291.340105 
L 65.314366 292.339699 
L 66.204685 293.10891 
L 67.095004 293.672952 
L 68.254939 294.137479 
L 69.537743 294.344755 
L 70.820546 294.281455 
L 72.118758 293.988905 
L 73.165993 293.613507 
L 74.646364 292.909401 
L 76.126735 292.043026 
L 79.328647 289.788164 
L 85.518367 284.778095 
L 90.704464 280.595269 
L 95.427787 277.086032 
L 99.356775 274.448541 
L 103.18319 272.130003 
L 106.432834 270.341435 
L 109.906296 268.591592 
L 115.859883 265.905666 
L 121.386334 263.658652 
L 141.432602 255.818295 
L 146.702594 253.503111 
L 152.328011 250.811887 
L 156.896682 248.439186 
L 161.876542 245.652546 
L 168.683253 241.507647 
L 175.674439 236.875139 
L 183.59354 231.245857 
L 193.06639 224.156289 
L 209.638203 211.655333 
L 215.486875 207.480615 
L 220.308607 204.223844 
L 225.661199 200.859304 
L 230.011326 198.355774 
L 235.493757 195.54031 
L 238.972994 193.970558 
L 243.610521 192.162343 
L 247.374948 190.947123 
L 248.066435 190.749392 
L 252.168963 189.743391 
L 256.755969 188.964831 
L 261.307901 188.561191 
L 264.382083 188.498272 
L 267.68667 188.61886 
L 272.165943 189.090328 
L 276.938845 189.97382 
L 280.973994 191.01615 
L 284.716247 192.213124 
L 290.105758 194.300812 
L 293.311155 195.730439 
L 296.624068 197.341979 
L 302.426931 200.455041 
L 308.196747 203.853827 
L 315.713221 208.6043 
L 338.466334 223.36716 
L 345.490974 227.458683 
L 350.271813 229.981005 
L 355.971086 232.646677 
L 361.627102 234.869966 
L 363.486409 235.500374 
L 368.662101 236.975385 
L 373.181968 237.91072 
L 377.460641 238.480344 
L 381.546968 238.73075 
L 384.711035 238.725546 
L 387.132917 238.604046 
L 391.757941 238.090987 
L 395.083238 237.497693 
L 398.474864 236.704244 
L 403.072199 235.336378 
L 406.096693 234.261527 
L 409.702919 232.809182 
L 414.089924 230.809867 
L 418.46121 228.588504 
L 422.967387 226.08977 
L 425.743406 224.459661 
L 425.743406 224.459661 
" clip-path="url(#pd3017cb62f)" style="fill: none; stroke: #ff0000; stroke-linecap: square"/>
   </g>
   <g id="line2d_73">
    <path d="M 43.339375 27.662224 
L 44.393411 23.101444 
L 45.447447 19.562211 
L 46.150138 17.709765 
L 47.173343 15.660641 
L 47.960805 14.555985 
L 48.748267 13.820244 
L 49.501231 13.429711 
L 50.254194 13.316784 
L 51.007157 13.455785 
L 51.76012 13.823093 
L 52.959408 14.826467 
L 54.191965 16.321556 
L 55.661134 18.615864 
L 57.32131 21.751169 
L 59.582293 26.724179 
L 62.19822 33.180394 
L 66.877399 45.735432 
L 75.591438 69.639549 
L 81.282953 84.423005 
L 86.769812 97.723289 
L 90.497904 106.209351 
L 94.491721 114.826754 
L 98.603154 123.221189 
L 103.342441 132.351797 
L 106.325558 137.82683 
L 111.91749 147.582739 
L 117.224459 156.293499 
L 121.902841 163.576406 
L 125.898844 169.525961 
L 131.742396 177.802471 
L 135.727677 183.167649 
L 141.057829 189.99292 
L 147.368095 197.547214 
L 151.152322 201.795162 
L 155.77162 206.681453 
L 161.28309 212.06142 
L 165.724588 216.022749 
L 170.674842 220.024683 
L 173.640794 222.205846 
L 176.905683 224.413354 
L 181.941867 227.410149 
L 185.852483 229.387183 
L 186.668361 229.760484 
L 190.982661 231.507329 
L 195.583638 232.946481 
L 200.06164 233.926111 
L 203.813269 234.428915 
L 207.740598 234.64888 
L 209.645156 234.644532 
L 214.540063 234.308943 
L 218.327897 233.738832 
L 221.700287 233.013491 
L 225.455153 231.976582 
L 229.281423 230.686295 
L 232.767832 229.319951 
L 237.658484 227.125637 
L 241.889635 224.996107 
L 247.067866 222.145057 
L 253.999758 218.005368 
L 265.383101 210.777575 
L 275.422959 204.435518 
L 281.183923 201.000107 
L 286.887238 197.846974 
L 292.763016 194.934308 
L 298.229228 192.593204 
L 302.855311 190.927863 
L 306.625274 189.804103 
L 310.270452 188.928619 
L 314.856905 188.134862 
L 317.924847 187.801058 
L 321.032344 187.627047 
L 323.658694 187.60979 
L 327.453174 187.795234 
L 331.914484 188.329133 
L 334.859064 188.865541 
L 338.312238 189.676375 
L 342.309463 190.851805 
L 346.79784 192.45946 
L 351.979576 194.666273 
L 356.57032 196.904803 
L 360.74123 199.141618 
L 365.824205 202.089301 
L 373.72304 207.03643 
L 386.825413 215.709565 
L 395.814617 221.550868 
L 401.036327 224.752793 
L 406.32395 227.77585 
L 411.752846 230.589944 
L 416.791455 232.890096 
L 419.733379 234.077765 
L 424.057553 235.597734 
L 425.743406 236.113858 
L 425.743406 236.113858 
" clip-path="url(#pd3017cb62f)" style="fill: none; stroke: #0000ff; stroke-linecap: square"/>
   </g>
   <g id="line2d_74">
    <path d="M 43.339375 27.662224 
L 44.725187 78.521957 
L 46.194793 123.98701 
L 47.538351 159.001602 
L 48.96889 190.390613 
L 50.359516 215.90261 
L 51.551481 234.386232 
L 52.896971 252.006526 
L 54.248942 266.714219 
L 55.436346 277.490742 
L 56.659024 286.773769 
L 57.849524 294.271969 
L 59.089454 300.678386 
L 60.154757 305.185305 
L 61.220059 308.885698 
L 62.19437 311.646457 
L 63.115052 313.76975 
L 64.035735 315.472789 
L 65.298783 317.20808 
L 66.561832 318.342344 
L 67.788881 318.95513 
L 68.906319 319.15599 
L 70.023756 319.066241 
L 70.842566 318.840741 
L 72.431824 318.077987 
L 73.202273 317.576715 
L 74.859939 316.26291 
L 77.875515 313.265381 
L 82.167599 308.244987 
L 90.556256 297.998949 
L 95.847755 292.055293 
L 99.722084 288.10632 
L 103.885268 284.254955 
L 108.543059 280.396096 
L 112.945911 277.130478 
L 117.376677 274.152567 
L 124.352126 269.925746 
L 130.851678 266.298916 
L 148.860651 256.415602 
L 155.584889 252.423539 
L 162.557896 247.992856 
L 169.687648 243.136773 
L 175.421617 239.004684 
L 183.341822 233.020009 
L 196.639652 222.557078 
L 206.241399 215.0377 
L 213.526165 209.578259 
L 221.006541 204.362933 
L 225.020744 201.780921 
L 228.782138 199.52495 
L 234.382157 196.496971 
L 238.763742 194.433201 
L 243.329223 192.593663 
L 244.236574 192.267699 
L 248.530014 190.91047 
L 252.469253 189.941972 
L 257.037059 189.160668 
L 260.956391 188.788083 
L 264.546586 188.689867 
L 269.336584 188.919378 
L 274.15612 189.559606 
L 277.623553 190.267089 
L 282.451158 191.581906 
L 286.139236 192.832009 
L 290.999673 194.781285 
L 296.114965 197.169262 
L 300.478401 199.446118 
L 306.731626 203.02949 
L 312.868504 206.827192 
L 322.554117 213.142308 
L 334.083293 220.666772 
L 340.917149 224.865723 
L 346.403244 227.980537 
L 351.902268 230.803284 
L 357.368063 233.253773 
L 360.745797 234.568671 
L 365.26552 236.068271 
L 370.529503 237.414556 
L 375.201428 238.228934 
L 379.370859 238.642816 
L 383.953349 238.751022 
L 387.491039 238.585093 
L 391.740301 238.100472 
L 395.174545 237.485046 
L 399.40226 236.460545 
L 399.900617 236.320875 
L 405.078682 234.643122 
L 410.310156 232.551392 
L 414.071549 230.822552 
L 419.991654 227.76525 
L 425.743406 224.462469 
L 425.743406 224.462469 
" clip-path="url(#pd3017cb62f)" style="fill: none; stroke: #ff0000; stroke-linecap: square"/>
   </g>
   <g id="patch_3">
    <path d="M 43.339375 325.272774 
L 43.339375 7.2 
" style="fill: none; stroke: #000000; stroke-width: 0.8; stroke-linejoin: miter; stroke-linecap: square"/>
   </g>
   <g id="patch_4">
    <path d="M 35.691294 213.255875 
L 433.391487 213.255875 
" style="fill: none; stroke: #000000; stroke-width: 0.8; stroke-linejoin: miter; stroke-linecap: square"/>
   </g>
   <g id="legend_1">
    <g id="patch_5">
     <path d="M 388.091487 46.596875 
L 430.391487 46.596875 
L 430.391487 14.2 
L 388.091487 14.2 
z
" style="fill: #4c4c4c; opacity: 0.5; stroke: #4c4c4c; stroke-linejoin: miter"/>
    </g>
    <g id="patch_6">
     <path d="M 386.091487 44.596875 
L 428.391487 44.596875 
L 428.391487 12.2 
L 386.091487 12.2 
z
" style="fill: #ffffff; stroke: #cccccc; stroke-linejoin: miter"/>
    </g>
    <g id="line2d_75">
     <path d="M 395.091487 22.298438 
L 389.591487 22.298438 
" style="fill: none; stroke: #0000ff; stroke-linecap: square"/>
    </g>
    <g id="text_15">
     <!-- $x(t)$ -->
     <g transform="translate(397.591487 25.798438) scale(0.1 -0.1)">
      <defs>
       <path id="Cmmi10-78" d="M 500 184 
Q 613 97 819 97 
Q 1019 97 1172 289 
Q 1325 481 1381 709 
L 1672 1844 
Q 1741 2153 1741 2266 
Q 1741 2425 1652 2544 
Q 1563 2663 1403 2663 
Q 1200 2663 1022 2536 
Q 844 2409 722 2214 
Q 600 2019 550 1819 
Q 538 1778 500 1778 
L 422 1778 
Q 372 1778 372 1838 
L 372 1856 
Q 434 2094 584 2320 
Q 734 2547 951 2687 
Q 1169 2828 1416 2828 
Q 1650 2828 1839 2703 
Q 2028 2578 2106 2363 
Q 2216 2559 2386 2693 
Q 2556 2828 2759 2828 
Q 2897 2828 3040 2779 
Q 3184 2731 3275 2631 
Q 3366 2531 3366 2381 
Q 3366 2219 3261 2101 
Q 3156 1984 2994 1984 
Q 2891 1984 2822 2050 
Q 2753 2116 2753 2216 
Q 2753 2350 2845 2451 
Q 2938 2553 3066 2572 
Q 2950 2663 2747 2663 
Q 2541 2663 2389 2472 
Q 2238 2281 2175 2047 
L 1894 916 
Q 1825 659 1825 494 
Q 1825 331 1917 214 
Q 2009 97 2163 97 
Q 2463 97 2698 361 
Q 2934 625 3009 941 
Q 3022 978 3059 978 
L 3138 978 
Q 3163 978 3178 961 
Q 3194 944 3194 922 
Q 3194 916 3188 903 
Q 3097 522 2806 225 
Q 2516 -72 2150 -72 
Q 1916 -72 1727 54 
Q 1538 181 1459 397 
Q 1359 209 1182 68 
Q 1006 -72 806 -72 
Q 669 -72 523 -23 
Q 378 25 287 125 
Q 197 225 197 378 
Q 197 528 301 651 
Q 406 775 563 775 
Q 669 775 741 711 
Q 813 647 813 544 
Q 813 409 723 309 
Q 634 209 500 184 
z
" transform="scale(0.015625)"/>
       <path id="Cmr10-28" d="M 1984 -1588 
Q 1628 -1306 1370 -942 
Q 1113 -578 948 -165 
Q 784 247 703 697 
Q 622 1147 622 1600 
Q 622 2059 703 2509 
Q 784 2959 951 3375 
Q 1119 3791 1378 4153 
Q 1638 4516 1984 4788 
Q 1984 4800 2016 4800 
L 2075 4800 
Q 2094 4800 2109 4783 
Q 2125 4766 2125 4744 
Q 2125 4716 2113 4703 
Q 1800 4397 1592 4047 
Q 1384 3697 1257 3301 
Q 1131 2906 1075 2482 
Q 1019 2059 1019 1600 
Q 1019 -434 2106 -1491 
Q 2125 -1509 2125 -1544 
Q 2125 -1559 2108 -1579 
Q 2091 -1600 2075 -1600 
L 2016 -1600 
Q 1984 -1600 1984 -1588 
z
" transform="scale(0.015625)"/>
       <path id="Cmr10-29" d="M 416 -1600 
Q 359 -1600 359 -1544 
Q 359 -1516 372 -1503 
Q 1466 -434 1466 1600 
Q 1466 3634 384 4691 
Q 359 4706 359 4744 
Q 359 4766 376 4783 
Q 394 4800 416 4800 
L 475 4800 
Q 494 4800 506 4788 
Q 966 4425 1272 3906 
Q 1578 3388 1720 2800 
Q 1863 2213 1863 1600 
Q 1863 1147 1786 708 
Q 1709 269 1542 -157 
Q 1375 -584 1119 -945 
Q 863 -1306 506 -1588 
Q 494 -1600 475 -1600 
L 416 -1600 
z
" transform="scale(0.015625)"/>
      </defs>
      <use xlink:href="#Cmmi10-78"/>
      <use xlink:href="#Cmr10-28" transform="translate(57.080078 0)"/>
      <use xlink:href="#Cmmi10-74" transform="translate(95.898438 0)"/>
      <use xlink:href="#Cmr10-29" transform="translate(131.982422 0)"/>
     </g>
    </g>
    <g id="line2d_76">
     <path d="M 395.091487 32.596875 
L 389.591487 32.596875 
" style="fill: none; stroke: #ff0000; stroke-linecap: square"/>
    </g>
    <g id="text_16">
     <!-- $dx/dt$ -->
     <g transform="translate(397.591487 36.096875) scale(0.1 -0.1)">
      <defs>
       <path id="Cmmi10-64" d="M 1113 -72 
Q 709 -72 476 233 
Q 244 538 244 953 
Q 244 1363 456 1803 
Q 669 2244 1030 2536 
Q 1391 2828 1806 2828 
Q 1994 2828 2145 2723 
Q 2297 2619 2381 2444 
L 2741 3872 
Q 2766 3981 2772 4044 
Q 2772 4147 2356 4147 
Q 2291 4147 2291 4231 
Q 2294 4247 2305 4287 
Q 2316 4328 2333 4350 
Q 2350 4372 2381 4372 
L 3244 4441 
Q 3322 4441 3322 4359 
L 2400 678 
Q 2356 572 2356 372 
Q 2356 97 2541 97 
Q 2741 97 2845 351 
Q 2950 606 3022 941 
Q 3034 978 3072 978 
L 3150 978 
Q 3175 978 3190 956 
Q 3206 934 3206 916 
Q 3094 469 2961 198 
Q 2828 -72 2528 -72 
Q 2313 -72 2147 54 
Q 1981 181 1941 391 
Q 1528 -72 1113 -72 
z
M 1119 97 
Q 1350 97 1567 270 
Q 1784 444 1941 678 
Q 1947 684 1947 703 
L 2297 2113 
Q 2259 2338 2131 2500 
Q 2003 2663 1791 2663 
Q 1575 2663 1389 2486 
Q 1203 2309 1075 2069 
Q 950 1813 836 1366 
Q 722 919 722 672 
Q 722 450 817 273 
Q 913 97 1119 97 
z
" transform="scale(0.015625)"/>
       <path id="Cmmi10-3d" d="M 359 -1472 
Q 359 -1453 366 -1447 
L 2591 4722 
Q 2603 4759 2634 4779 
Q 2666 4800 2706 4800 
Q 2763 4800 2798 4765 
Q 2834 4731 2834 4672 
L 2834 4647 
L 609 -1522 
Q 572 -1600 488 -1600 
Q 434 -1600 396 -1562 
Q 359 -1525 359 -1472 
z
" transform="scale(0.015625)"/>
      </defs>
      <use xlink:href="#Cmmi10-64"/>
      <use xlink:href="#Cmmi10-78" transform="translate(52.001953 0)"/>
      <use xlink:href="#Cmmi10-3d" transform="translate(109.082031 0)"/>
      <use xlink:href="#Cmmi10-64" transform="translate(159.082031 0)"/>
      <use xlink:href="#Cmmi10-74" transform="translate(211.083984 0)"/>
     </g>
    </g>
   </g>
  </g>
 </g>
 <defs>
  <clipPath id="pd3017cb62f">
   <rect x="35.691294" y="7.2" width="397.700192" height="318.072774"/>
  </clipPath>
 </defs>
</svg>
