<?xml version="1.0" encoding="utf-8" standalone="no"?>
<!DOCTYPE svg PUBLIC "-//W3C//DTD SVG 1.1//EN"
  "http://www.w3.org/Graphics/SVG/1.1/DTD/svg11.dtd">
<svg xmlns:xlink="http://www.w3.org/1999/xlink" width="452.606487pt" height="338.4pt" viewBox="0 0 452.606487 338.4" xmlns="http://www.w3.org/2000/svg" version="1.1">
 <metadata>
  <rdf:RDF xmlns:dc="http://purl.org/dc/elements/1.1/" xmlns:cc="http://creativecommons.org/ns#" xmlns:rdf="http://www.w3.org/1999/02/22-rdf-syntax-ns#">
   <cc:Work>
    <dc:type rdf:resource="http://purl.org/dc/dcmitype/StillImage"/>
    <dc:date>2024-12-17T09:23:54.558277</dc:date>
    <dc:format>image/svg+xml</dc:format>
    <dc:creator>
     <cc:Agent>
      <dc:title>Matplotlib v3.6.2, https://matplotlib.org/</dc:title>
     </cc:Agent>
    </dc:creator>
   </cc:Work>
  </rdf:RDF>
 </metadata>
 <defs>
  <style type="text/css">*{stroke-linejoin: round; stroke-linecap: butt}</style>
 </defs>
 <g id="figure_1">
  <g id="patch_1">
   <path d="M 0 338.4 
L 452.606487 338.4 
L 452.606487 0 
L 0 0 
z
" style="fill: #ffffff"/>
  </g>
  <g id="axes_1">
   <g id="patch_2">
    <path d="M 35.691294 331.2 
L 433.391487 331.2 
L 433.391487 7.2 
L 35.691294 7.2 
z
" style="fill: #ffffff"/>
   </g>
   <g id="matplotlib.axis_1">
    <g id="xtick_1">
     <g id="line2d_1">
      <defs>
       <path id="m554f0c5741" d="M 0 0 
L 0 3.5 
" style="stroke: #000000; stroke-width: 0.8"/>
      </defs>
      <g>
       <use xlink:href="#m554f0c5741" x="43.339375" y="211.704844" style="stroke: #000000; stroke-width: 0.8"/>
      </g>
     </g>
    </g>
    <g id="xtick_2">
     <g id="line2d_2">
      <g>
       <use xlink:href="#m554f0c5741" x="119.820181" y="211.704844" style="stroke: #000000; stroke-width: 0.8"/>
      </g>
     </g>
     <g id="text_1">
      <!-- 2 -->
      <g transform="translate(116.002681 227.822969) scale(0.12 -0.12)">
       <defs>
        <path id="DejaVuSans-32" d="M 1228 531 
L 3431 531 
L 3431 0 
L 469 0 
L 469 531 
Q 828 903 1448 1529 
Q 2069 2156 2228 2338 
Q 2531 2678 2651 2914 
Q 2772 3150 2772 3378 
Q 2772 3750 2511 3984 
Q 2250 4219 1831 4219 
Q 1534 4219 1204 4116 
Q 875 4013 500 3803 
L 500 4441 
Q 881 4594 1212 4672 
Q 1544 4750 1819 4750 
Q 2544 4750 2975 4387 
Q 3406 4025 3406 3419 
Q 3406 3131 3298 2873 
Q 3191 2616 2906 2266 
Q 2828 2175 2409 1742 
Q 1991 1309 1228 531 
z
" transform="scale(0.015625)"/>
       </defs>
       <use xlink:href="#DejaVuSans-32"/>
      </g>
     </g>
    </g>
    <g id="xtick_3">
     <g id="line2d_3">
      <g>
       <use xlink:href="#m554f0c5741" x="196.300987" y="211.704844" style="stroke: #000000; stroke-width: 0.8"/>
      </g>
     </g>
     <g id="text_2">
      <!-- 4 -->
      <g transform="translate(192.483487 227.822969) scale(0.12 -0.12)">
       <defs>
        <path id="DejaVuSans-34" d="M 2419 4116 
L 825 1625 
L 2419 1625 
L 2419 4116 
z
M 2253 4666 
L 3047 4666 
L 3047 1625 
L 3713 1625 
L 3713 1100 
L 3047 1100 
L 3047 0 
L 2419 0 
L 2419 1100 
L 313 1100 
L 313 1709 
L 2253 4666 
z
" transform="scale(0.015625)"/>
       </defs>
       <use xlink:href="#DejaVuSans-34"/>
      </g>
     </g>
    </g>
    <g id="xtick_4">
     <g id="line2d_4">
      <g>
       <use xlink:href="#m554f0c5741" x="272.781794" y="211.704844" style="stroke: #000000; stroke-width: 0.8"/>
      </g>
     </g>
     <g id="text_3">
      <!-- 6 -->
      <g transform="translate(268.964294 227.822969) scale(0.12 -0.12)">
       <defs>
        <path id="DejaVuSans-36" d="M 2113 2584 
Q 1688 2584 1439 2293 
Q 1191 2003 1191 1497 
Q 1191 994 1439 701 
Q 1688 409 2113 409 
Q 2538 409 2786 701 
Q 3034 994 3034 1497 
Q 3034 2003 2786 2293 
Q 2538 2584 2113 2584 
z
M 3366 4563 
L 3366 3988 
Q 3128 4100 2886 4159 
Q 2644 4219 2406 4219 
Q 1781 4219 1451 3797 
Q 1122 3375 1075 2522 
Q 1259 2794 1537 2939 
Q 1816 3084 2150 3084 
Q 2853 3084 3261 2657 
Q 3669 2231 3669 1497 
Q 3669 778 3244 343 
Q 2819 -91 2113 -91 
Q 1303 -91 875 529 
Q 447 1150 447 2328 
Q 447 3434 972 4092 
Q 1497 4750 2381 4750 
Q 2619 4750 2861 4703 
Q 3103 4656 3366 4563 
z
" transform="scale(0.015625)"/>
       </defs>
       <use xlink:href="#DejaVuSans-36"/>
      </g>
     </g>
    </g>
    <g id="xtick_5">
     <g id="line2d_5">
      <g>
       <use xlink:href="#m554f0c5741" x="349.2626" y="211.704844" style="stroke: #000000; stroke-width: 0.8"/>
      </g>
     </g>
     <g id="text_4">
      <!-- 8 -->
      <g transform="translate(345.4451 227.822969) scale(0.12 -0.12)">
       <defs>
        <path id="DejaVuSans-38" d="M 2034 2216 
Q 1584 2216 1326 1975 
Q 1069 1734 1069 1313 
Q 1069 891 1326 650 
Q 1584 409 2034 409 
Q 2484 409 2743 651 
Q 3003 894 3003 1313 
Q 3003 1734 2745 1975 
Q 2488 2216 2034 2216 
z
M 1403 2484 
Q 997 2584 770 2862 
Q 544 3141 544 3541 
Q 544 4100 942 4425 
Q 1341 4750 2034 4750 
Q 2731 4750 3128 4425 
Q 3525 4100 3525 3541 
Q 3525 3141 3298 2862 
Q 3072 2584 2669 2484 
Q 3125 2378 3379 2068 
Q 3634 1759 3634 1313 
Q 3634 634 3220 271 
Q 2806 -91 2034 -91 
Q 1263 -91 848 271 
Q 434 634 434 1313 
Q 434 1759 690 2068 
Q 947 2378 1403 2484 
z
M 1172 3481 
Q 1172 3119 1398 2916 
Q 1625 2713 2034 2713 
Q 2441 2713 2670 2916 
Q 2900 3119 2900 3481 
Q 2900 3844 2670 4047 
Q 2441 4250 2034 4250 
Q 1625 4250 1398 4047 
Q 1172 3844 1172 3481 
z
" transform="scale(0.015625)"/>
       </defs>
       <use xlink:href="#DejaVuSans-38"/>
      </g>
     </g>
    </g>
    <g id="xtick_6">
     <g id="line2d_6">
      <g>
       <use xlink:href="#m554f0c5741" x="425.743406" y="211.704844" style="stroke: #000000; stroke-width: 0.8"/>
      </g>
     </g>
     <g id="text_5">
      <!-- 10 -->
      <g transform="translate(418.108406 227.822969) scale(0.12 -0.12)">
       <defs>
        <path id="DejaVuSans-31" d="M 794 531 
L 1825 531 
L 1825 4091 
L 703 3866 
L 703 4441 
L 1819 4666 
L 2450 4666 
L 2450 531 
L 3481 531 
L 3481 0 
L 794 0 
L 794 531 
z
" transform="scale(0.015625)"/>
        <path id="DejaVuSans-30" d="M 2034 4250 
Q 1547 4250 1301 3770 
Q 1056 3291 1056 2328 
Q 1056 1369 1301 889 
Q 1547 409 2034 409 
Q 2525 409 2770 889 
Q 3016 1369 3016 2328 
Q 3016 3291 2770 3770 
Q 2525 4250 2034 4250 
z
M 2034 4750 
Q 2819 4750 3233 4129 
Q 3647 3509 3647 2328 
Q 3647 1150 3233 529 
Q 2819 -91 2034 -91 
Q 1250 -91 836 529 
Q 422 1150 422 2328 
Q 422 3509 836 4129 
Q 1250 4750 2034 4750 
z
" transform="scale(0.015625)"/>
       </defs>
       <use xlink:href="#DejaVuSans-31"/>
       <use xlink:href="#DejaVuSans-30" x="63.623047"/>
      </g>
     </g>
    </g>
    <g id="xtick_7">
     <g id="line2d_7">
      <defs>
       <path id="mb3891cbc36" d="M 0 0 
L 0 2 
" style="stroke: #000000; stroke-width: 0.6"/>
      </defs>
      <g>
       <use xlink:href="#mb3891cbc36" x="62.459577" y="211.704844" style="stroke: #000000; stroke-width: 0.6"/>
      </g>
     </g>
    </g>
    <g id="xtick_8">
     <g id="line2d_8">
      <g>
       <use xlink:href="#mb3891cbc36" x="81.579778" y="211.704844" style="stroke: #000000; stroke-width: 0.6"/>
      </g>
     </g>
    </g>
    <g id="xtick_9">
     <g id="line2d_9">
      <g>
       <use xlink:href="#mb3891cbc36" x="100.69998" y="211.704844" style="stroke: #000000; stroke-width: 0.6"/>
      </g>
     </g>
    </g>
    <g id="xtick_10">
     <g id="line2d_10">
      <g>
       <use xlink:href="#mb3891cbc36" x="138.940383" y="211.704844" style="stroke: #000000; stroke-width: 0.6"/>
      </g>
     </g>
    </g>
    <g id="xtick_11">
     <g id="line2d_11">
      <g>
       <use xlink:href="#mb3891cbc36" x="158.060584" y="211.704844" style="stroke: #000000; stroke-width: 0.6"/>
      </g>
     </g>
    </g>
    <g id="xtick_12">
     <g id="line2d_12">
      <g>
       <use xlink:href="#mb3891cbc36" x="177.180786" y="211.704844" style="stroke: #000000; stroke-width: 0.6"/>
      </g>
     </g>
    </g>
    <g id="xtick_13">
     <g id="line2d_13">
      <g>
       <use xlink:href="#mb3891cbc36" x="215.421189" y="211.704844" style="stroke: #000000; stroke-width: 0.6"/>
      </g>
     </g>
    </g>
    <g id="xtick_14">
     <g id="line2d_14">
      <g>
       <use xlink:href="#mb3891cbc36" x="234.541391" y="211.704844" style="stroke: #000000; stroke-width: 0.6"/>
      </g>
     </g>
    </g>
    <g id="xtick_15">
     <g id="line2d_15">
      <g>
       <use xlink:href="#mb3891cbc36" x="253.661592" y="211.704844" style="stroke: #000000; stroke-width: 0.6"/>
      </g>
     </g>
    </g>
    <g id="xtick_16">
     <g id="line2d_16">
      <g>
       <use xlink:href="#mb3891cbc36" x="291.901995" y="211.704844" style="stroke: #000000; stroke-width: 0.6"/>
      </g>
     </g>
    </g>
    <g id="xtick_17">
     <g id="line2d_17">
      <g>
       <use xlink:href="#mb3891cbc36" x="311.022197" y="211.704844" style="stroke: #000000; stroke-width: 0.6"/>
      </g>
     </g>
    </g>
    <g id="xtick_18">
     <g id="line2d_18">
      <g>
       <use xlink:href="#mb3891cbc36" x="330.142398" y="211.704844" style="stroke: #000000; stroke-width: 0.6"/>
      </g>
     </g>
    </g>
    <g id="xtick_19">
     <g id="line2d_19">
      <g>
       <use xlink:href="#mb3891cbc36" x="368.382801" y="211.704844" style="stroke: #000000; stroke-width: 0.6"/>
      </g>
     </g>
    </g>
    <g id="xtick_20">
     <g id="line2d_20">
      <g>
       <use xlink:href="#mb3891cbc36" x="387.503003" y="211.704844" style="stroke: #000000; stroke-width: 0.6"/>
      </g>
     </g>
    </g>
    <g id="xtick_21">
     <g id="line2d_21">
      <g>
       <use xlink:href="#mb3891cbc36" x="406.623205" y="211.704844" style="stroke: #000000; stroke-width: 0.6"/>
      </g>
     </g>
    </g>
    <g id="text_6">
     <!-- $t$ -->
     <g transform="translate(441.391487 211.704844) scale(0.19 -0.19)">
      <defs>
       <path id="Cmmi10-74" d="M 397 519 
Q 397 613 416 697 
L 878 2534 
L 206 2534 
Q 141 2534 141 2619 
Q 166 2759 225 2759 
L 934 2759 
L 1191 3803 
Q 1216 3888 1291 3947 
Q 1366 4006 1459 4006 
Q 1541 4006 1595 3957 
Q 1650 3909 1650 3828 
Q 1650 3809 1648 3798 
Q 1647 3788 1644 3775 
L 1388 2759 
L 2047 2759 
Q 2113 2759 2113 2675 
Q 2109 2659 2100 2621 
Q 2091 2584 2075 2559 
Q 2059 2534 2028 2534 
L 1331 2534 
L 872 684 
Q 825 503 825 372 
Q 825 97 1013 97 
Q 1294 97 1511 361 
Q 1728 625 1844 941 
Q 1869 978 1894 978 
L 1972 978 
Q 1997 978 2012 961 
Q 2028 944 2028 922 
Q 2028 909 2022 903 
Q 1881 516 1612 222 
Q 1344 -72 997 -72 
Q 744 -72 570 93 
Q 397 259 397 519 
z
" transform="scale(0.015625)"/>
      </defs>
      <use xlink:href="#Cmmi10-74" transform="translate(0 0.40625)"/>
     </g>
    </g>
   </g>
   <g id="matplotlib.axis_2">
    <g id="ytick_1">
     <g id="line2d_22">
      <defs>
       <path id="mc4b74eca38" d="M 0 0 
L -3.5 0 
" style="stroke: #000000; stroke-width: 0.8"/>
      </defs>
      <g>
       <use xlink:href="#mc4b74eca38" x="43.339375" y="322.603489" style="stroke: #000000; stroke-width: 0.8"/>
      </g>
     </g>
     <g id="text_7">
      <!-- −1.5 -->
      <g transform="translate(7.2 327.162551) scale(0.12 -0.12)">
       <defs>
        <path id="DejaVuSans-2212" d="M 678 2272 
L 4684 2272 
L 4684 1741 
L 678 1741 
L 678 2272 
z
" transform="scale(0.015625)"/>
        <path id="DejaVuSans-2e" d="M 684 794 
L 1344 794 
L 1344 0 
L 684 0 
L 684 794 
z
" transform="scale(0.015625)"/>
        <path id="DejaVuSans-35" d="M 691 4666 
L 3169 4666 
L 3169 4134 
L 1269 4134 
L 1269 2991 
Q 1406 3038 1543 3061 
Q 1681 3084 1819 3084 
Q 2600 3084 3056 2656 
Q 3513 2228 3513 1497 
Q 3513 744 3044 326 
Q 2575 -91 1722 -91 
Q 1428 -91 1123 -41 
Q 819 9 494 109 
L 494 744 
Q 775 591 1075 516 
Q 1375 441 1709 441 
Q 2250 441 2565 725 
Q 2881 1009 2881 1497 
Q 2881 1984 2565 2268 
Q 2250 2553 1709 2553 
Q 1456 2553 1204 2497 
Q 953 2441 691 2322 
L 691 4666 
z
" transform="scale(0.015625)"/>
       </defs>
       <use xlink:href="#DejaVuSans-2212"/>
       <use xlink:href="#DejaVuSans-31" x="83.789062"/>
       <use xlink:href="#DejaVuSans-2e" x="147.412109"/>
       <use xlink:href="#DejaVuSans-35" x="179.199219"/>
      </g>
     </g>
    </g>
    <g id="ytick_2">
     <g id="line2d_23">
      <g>
       <use xlink:href="#mc4b74eca38" x="43.339375" y="285.637274" style="stroke: #000000; stroke-width: 0.8"/>
      </g>
     </g>
     <g id="text_8">
      <!-- −1.0 -->
      <g transform="translate(7.2 290.196336) scale(0.12 -0.12)">
       <use xlink:href="#DejaVuSans-2212"/>
       <use xlink:href="#DejaVuSans-31" x="83.789062"/>
       <use xlink:href="#DejaVuSans-2e" x="147.412109"/>
       <use xlink:href="#DejaVuSans-30" x="179.199219"/>
      </g>
     </g>
    </g>
    <g id="ytick_3">
     <g id="line2d_24">
      <g>
       <use xlink:href="#mc4b74eca38" x="43.339375" y="248.671059" style="stroke: #000000; stroke-width: 0.8"/>
      </g>
     </g>
     <g id="text_9">
      <!-- −0.5 -->
      <g transform="translate(7.2 253.230121) scale(0.12 -0.12)">
       <use xlink:href="#DejaVuSans-2212"/>
       <use xlink:href="#DejaVuSans-30" x="83.789062"/>
       <use xlink:href="#DejaVuSans-2e" x="147.412109"/>
       <use xlink:href="#DejaVuSans-35" x="179.199219"/>
      </g>
     </g>
    </g>
    <g id="ytick_4">
     <g id="line2d_25">
      <g>
       <use xlink:href="#mc4b74eca38" x="43.339375" y="211.704844" style="stroke: #000000; stroke-width: 0.8"/>
      </g>
     </g>
    </g>
    <g id="ytick_5">
     <g id="line2d_26">
      <g>
       <use xlink:href="#mc4b74eca38" x="43.339375" y="174.738629" style="stroke: #000000; stroke-width: 0.8"/>
      </g>
     </g>
     <g id="text_10">
      <!-- 0.5 -->
      <g transform="translate(17.255625 179.297691) scale(0.12 -0.12)">
       <use xlink:href="#DejaVuSans-30"/>
       <use xlink:href="#DejaVuSans-2e" x="63.623047"/>
       <use xlink:href="#DejaVuSans-35" x="95.410156"/>
      </g>
     </g>
    </g>
    <g id="ytick_6">
     <g id="line2d_27">
      <g>
       <use xlink:href="#mc4b74eca38" x="43.339375" y="137.772414" style="stroke: #000000; stroke-width: 0.8"/>
      </g>
     </g>
     <g id="text_11">
      <!-- 1.0 -->
      <g transform="translate(17.255625 142.331477) scale(0.12 -0.12)">
       <use xlink:href="#DejaVuSans-31"/>
       <use xlink:href="#DejaVuSans-2e" x="63.623047"/>
       <use xlink:href="#DejaVuSans-30" x="95.410156"/>
      </g>
     </g>
    </g>
    <g id="ytick_7">
     <g id="line2d_28">
      <g>
       <use xlink:href="#mc4b74eca38" x="43.339375" y="100.806199" style="stroke: #000000; stroke-width: 0.8"/>
      </g>
     </g>
     <g id="text_12">
      <!-- 1.5 -->
      <g transform="translate(17.255625 105.365262) scale(0.12 -0.12)">
       <use xlink:href="#DejaVuSans-31"/>
       <use xlink:href="#DejaVuSans-2e" x="63.623047"/>
       <use xlink:href="#DejaVuSans-35" x="95.410156"/>
      </g>
     </g>
    </g>
    <g id="ytick_8">
     <g id="line2d_29">
      <g>
       <use xlink:href="#mc4b74eca38" x="43.339375" y="63.839984" style="stroke: #000000; stroke-width: 0.8"/>
      </g>
     </g>
     <g id="text_13">
      <!-- 2.0 -->
      <g transform="translate(17.255625 68.399047) scale(0.12 -0.12)">
       <use xlink:href="#DejaVuSans-32"/>
       <use xlink:href="#DejaVuSans-2e" x="63.623047"/>
       <use xlink:href="#DejaVuSans-30" x="95.410156"/>
      </g>
     </g>
    </g>
    <g id="ytick_9">
     <g id="line2d_30">
      <g>
       <use xlink:href="#mc4b74eca38" x="43.339375" y="26.873769" style="stroke: #000000; stroke-width: 0.8"/>
      </g>
     </g>
     <g id="text_14">
      <!-- 2.5 -->
      <g transform="translate(17.255625 31.432832) scale(0.12 -0.12)">
       <use xlink:href="#DejaVuSans-32"/>
       <use xlink:href="#DejaVuSans-2e" x="63.623047"/>
       <use xlink:href="#DejaVuSans-35" x="95.410156"/>
      </g>
     </g>
    </g>
    <g id="ytick_10">
     <g id="line2d_31">
      <defs>
       <path id="me19615747d" d="M 0 0 
L -2 0 
" style="stroke: #000000; stroke-width: 0.6"/>
      </defs>
      <g>
       <use xlink:href="#me19615747d" x="43.339375" y="329.996731" style="stroke: #000000; stroke-width: 0.6"/>
      </g>
     </g>
    </g>
    <g id="ytick_11">
     <g id="line2d_32">
      <g>
       <use xlink:href="#me19615747d" x="43.339375" y="315.210246" style="stroke: #000000; stroke-width: 0.6"/>
      </g>
     </g>
    </g>
    <g id="ytick_12">
     <g id="line2d_33">
      <g>
       <use xlink:href="#me19615747d" x="43.339375" y="307.817003" style="stroke: #000000; stroke-width: 0.6"/>
      </g>
     </g>
    </g>
    <g id="ytick_13">
     <g id="line2d_34">
      <g>
       <use xlink:href="#me19615747d" x="43.339375" y="300.42376" style="stroke: #000000; stroke-width: 0.6"/>
      </g>
     </g>
    </g>
    <g id="ytick_14">
     <g id="line2d_35">
      <g>
       <use xlink:href="#me19615747d" x="43.339375" y="293.030517" style="stroke: #000000; stroke-width: 0.6"/>
      </g>
     </g>
    </g>
    <g id="ytick_15">
     <g id="line2d_36">
      <g>
       <use xlink:href="#me19615747d" x="43.339375" y="278.244031" style="stroke: #000000; stroke-width: 0.6"/>
      </g>
     </g>
    </g>
    <g id="ytick_16">
     <g id="line2d_37">
      <g>
       <use xlink:href="#me19615747d" x="43.339375" y="270.850788" style="stroke: #000000; stroke-width: 0.6"/>
      </g>
     </g>
    </g>
    <g id="ytick_17">
     <g id="line2d_38">
      <g>
       <use xlink:href="#me19615747d" x="43.339375" y="263.457545" style="stroke: #000000; stroke-width: 0.6"/>
      </g>
     </g>
    </g>
    <g id="ytick_18">
     <g id="line2d_39">
      <g>
       <use xlink:href="#me19615747d" x="43.339375" y="256.064302" style="stroke: #000000; stroke-width: 0.6"/>
      </g>
     </g>
    </g>
    <g id="ytick_19">
     <g id="line2d_40">
      <g>
       <use xlink:href="#me19615747d" x="43.339375" y="241.277816" style="stroke: #000000; stroke-width: 0.6"/>
      </g>
     </g>
    </g>
    <g id="ytick_20">
     <g id="line2d_41">
      <g>
       <use xlink:href="#me19615747d" x="43.339375" y="233.884573" style="stroke: #000000; stroke-width: 0.6"/>
      </g>
     </g>
    </g>
    <g id="ytick_21">
     <g id="line2d_42">
      <g>
       <use xlink:href="#me19615747d" x="43.339375" y="226.49133" style="stroke: #000000; stroke-width: 0.6"/>
      </g>
     </g>
    </g>
    <g id="ytick_22">
     <g id="line2d_43">
      <g>
       <use xlink:href="#me19615747d" x="43.339375" y="219.098087" style="stroke: #000000; stroke-width: 0.6"/>
      </g>
     </g>
    </g>
    <g id="ytick_23">
     <g id="line2d_44">
      <g>
       <use xlink:href="#me19615747d" x="43.339375" y="204.311601" style="stroke: #000000; stroke-width: 0.6"/>
      </g>
     </g>
    </g>
    <g id="ytick_24">
     <g id="line2d_45">
      <g>
       <use xlink:href="#me19615747d" x="43.339375" y="196.918358" style="stroke: #000000; stroke-width: 0.6"/>
      </g>
     </g>
    </g>
    <g id="ytick_25">
     <g id="line2d_46">
      <g>
       <use xlink:href="#me19615747d" x="43.339375" y="189.525115" style="stroke: #000000; stroke-width: 0.6"/>
      </g>
     </g>
    </g>
    <g id="ytick_26">
     <g id="line2d_47">
      <g>
       <use xlink:href="#me19615747d" x="43.339375" y="182.131872" style="stroke: #000000; stroke-width: 0.6"/>
      </g>
     </g>
    </g>
    <g id="ytick_27">
     <g id="line2d_48">
      <g>
       <use xlink:href="#me19615747d" x="43.339375" y="167.345386" style="stroke: #000000; stroke-width: 0.6"/>
      </g>
     </g>
    </g>
    <g id="ytick_28">
     <g id="line2d_49">
      <g>
       <use xlink:href="#me19615747d" x="43.339375" y="159.952143" style="stroke: #000000; stroke-width: 0.6"/>
      </g>
     </g>
    </g>
    <g id="ytick_29">
     <g id="line2d_50">
      <g>
       <use xlink:href="#me19615747d" x="43.339375" y="152.5589" style="stroke: #000000; stroke-width: 0.6"/>
      </g>
     </g>
    </g>
    <g id="ytick_30">
     <g id="line2d_51">
      <g>
       <use xlink:href="#me19615747d" x="43.339375" y="145.165657" style="stroke: #000000; stroke-width: 0.6"/>
      </g>
     </g>
    </g>
    <g id="ytick_31">
     <g id="line2d_52">
      <g>
       <use xlink:href="#me19615747d" x="43.339375" y="130.379171" style="stroke: #000000; stroke-width: 0.6"/>
      </g>
     </g>
    </g>
    <g id="ytick_32">
     <g id="line2d_53">
      <g>
       <use xlink:href="#me19615747d" x="43.339375" y="122.985928" style="stroke: #000000; stroke-width: 0.6"/>
      </g>
     </g>
    </g>
    <g id="ytick_33">
     <g id="line2d_54">
      <g>
       <use xlink:href="#me19615747d" x="43.339375" y="115.592685" style="stroke: #000000; stroke-width: 0.6"/>
      </g>
     </g>
    </g>
    <g id="ytick_34">
     <g id="line2d_55">
      <g>
       <use xlink:href="#me19615747d" x="43.339375" y="108.199442" style="stroke: #000000; stroke-width: 0.6"/>
      </g>
     </g>
    </g>
    <g id="ytick_35">
     <g id="line2d_56">
      <g>
       <use xlink:href="#me19615747d" x="43.339375" y="93.412956" style="stroke: #000000; stroke-width: 0.6"/>
      </g>
     </g>
    </g>
    <g id="ytick_36">
     <g id="line2d_57">
      <g>
       <use xlink:href="#me19615747d" x="43.339375" y="86.019713" style="stroke: #000000; stroke-width: 0.6"/>
      </g>
     </g>
    </g>
    <g id="ytick_37">
     <g id="line2d_58">
      <g>
       <use xlink:href="#me19615747d" x="43.339375" y="78.62647" style="stroke: #000000; stroke-width: 0.6"/>
      </g>
     </g>
    </g>
    <g id="ytick_38">
     <g id="line2d_59">
      <g>
       <use xlink:href="#me19615747d" x="43.339375" y="71.233227" style="stroke: #000000; stroke-width: 0.6"/>
      </g>
     </g>
    </g>
    <g id="ytick_39">
     <g id="line2d_60">
      <g>
       <use xlink:href="#me19615747d" x="43.339375" y="56.446741" style="stroke: #000000; stroke-width: 0.6"/>
      </g>
     </g>
    </g>
    <g id="ytick_40">
     <g id="line2d_61">
      <g>
       <use xlink:href="#me19615747d" x="43.339375" y="49.053498" style="stroke: #000000; stroke-width: 0.6"/>
      </g>
     </g>
    </g>
    <g id="ytick_41">
     <g id="line2d_62">
      <g>
       <use xlink:href="#me19615747d" x="43.339375" y="41.660255" style="stroke: #000000; stroke-width: 0.6"/>
      </g>
     </g>
    </g>
    <g id="ytick_42">
     <g id="line2d_63">
      <g>
       <use xlink:href="#me19615747d" x="43.339375" y="34.267012" style="stroke: #000000; stroke-width: 0.6"/>
      </g>
     </g>
    </g>
    <g id="ytick_43">
     <g id="line2d_64">
      <g>
       <use xlink:href="#me19615747d" x="43.339375" y="19.480526" style="stroke: #000000; stroke-width: 0.6"/>
      </g>
     </g>
    </g>
    <g id="ytick_44">
     <g id="line2d_65">
      <g>
       <use xlink:href="#me19615747d" x="43.339375" y="12.087283" style="stroke: #000000; stroke-width: 0.6"/>
      </g>
     </g>
    </g>
   </g>
   <g id="line2d_66">
    <path d="M 43.339375 174.738629 
L 44.448775 173.77056 
L 45.558176 172.994146 
L 46.62913 172.404438 
L 48.184791 171.789064 
L 49.740451 171.415261 
L 52.411153 171.218322 
L 53.973886 171.306797 
L 56.375464 171.66078 
L 60.626681 172.729812 
L 65.785405 174.434653 
L 81.221079 179.845938 
L 86.732024 181.534293 
L 93.983534 183.482238 
L 100.682105 185.015503 
L 106.537721 186.166108 
L 115.062338 187.566274 
L 123.391459 188.669233 
L 131.904934 189.5762 
L 140.686482 190.323501 
L 151.957301 191.063033 
L 164.131934 191.651544 
L 179.445989 192.169669 
L 200.30408 192.61197 
L 227.248822 192.920329 
L 265.882002 193.111988 
L 338.120472 193.205141 
L 425.743406 193.220058 
L 425.743406 193.220058 
" clip-path="url(#p91129111fa)" style="fill: none; stroke: #0000ff; stroke-linecap: square"/>
   </g>
   <g id="line2d_67">
    <path d="M 43.339375 174.738629 
L 44.738443 183.475777 
L 46.137511 190.890364 
L 47.362346 196.441897 
L 48.555223 201.113711 
L 50.109597 206.258183 
L 51.481557 210.035015 
L 52.853517 213.199495 
L 54.118626 215.648979 
L 55.383735 217.709111 
L 57.372638 220.28134 
L 59.338404 222.164105 
L 60.862205 223.257123 
L 61.700125 223.742782 
L 63.375967 224.503975 
L 65.00621 225.015666 
L 67.522584 225.453809 
L 70.03278 225.566516 
L 74.203934 225.267965 
L 78.662114 224.544763 
L 83.246743 223.586436 
L 100.050193 219.898326 
L 108.910831 218.28167 
L 115.96152 217.201704 
L 125.551509 215.997737 
L 134.893979 215.072775 
L 146.773642 214.175697 
L 158.470139 213.525242 
L 171.908838 212.986027 
L 189.485643 212.513976 
L 209.94605 212.178713 
L 241.117601 211.914567 
L 289.859346 211.76347 
L 400.169142 211.70812 
L 425.743406 211.706522 
L 425.743406 211.706522 
" clip-path="url(#p91129111fa)" style="fill: none; stroke: #ff0000; stroke-linecap: square"/>
   </g>
   <g id="line2d_68">
    <path d="M 43.339375 137.772414 
L 44.456963 135.853556 
L 45.228758 134.790589 
L 46.000553 133.920203 
L 46.772348 133.22526 
L 47.544143 132.689997 
L 48.424998 132.255721 
L 49.956491 131.893513 
L 50.60713 131.872152 
L 51.908407 132.033196 
L 53.845195 132.696843 
L 55.142214 133.371263 
L 57.86774 135.239146 
L 61.214993 138.102236 
L 63.948636 140.710254 
L 77.289752 153.889382 
L 82.636695 158.653247 
L 86.075917 161.473663 
L 90.595306 164.881623 
L 95.50621 168.210606 
L 100.962732 171.480948 
L 104.109023 173.177145 
L 108.854447 175.495874 
L 113.953687 177.695601 
L 117.456962 179.048911 
L 122.799459 180.891362 
L 127.565232 182.333238 
L 133.161289 183.813569 
L 138.920984 185.127935 
L 144.691306 186.260961 
L 150.367961 187.220895 
L 159.975043 188.55377 
L 169.414827 189.574776 
L 180.88004 190.519478 
L 192.95945 191.251384 
L 205.783573 191.812766 
L 224.050311 192.347864 
L 245.65918 192.725102 
L 274.437494 192.987743 
L 317.228993 193.145314 
L 411.414565 193.215227 
L 425.743406 193.217261 
L 425.743406 193.217261 
" clip-path="url(#p91129111fa)" style="fill: none; stroke: #0000ff; stroke-linecap: square"/>
   </g>
   <g id="line2d_69">
    <path d="M 43.339375 137.772414 
L 44.684183 157.003146 
L 45.949793 172.488446 
L 47.215404 185.770324 
L 48.686734 198.813678 
L 49.946541 208.209944 
L 51.210975 216.220127 
L 52.550738 223.359413 
L 53.794618 228.910105 
L 54.907093 233.108095 
L 56.059376 236.78703 
L 57.320828 240.130333 
L 58.719934 243.114177 
L 60.147526 245.486958 
L 61.497932 247.20003 
L 62.771152 248.411455 
L 63.879308 249.190866 
L 65.28332 249.862779 
L 66.687332 250.234118 
L 68.423144 250.349526 
L 69.60831 250.247151 
L 71.386618 249.869689 
L 72.843616 249.397065 
L 75.703764 248.150335 
L 80.235962 245.629694 
L 87.351661 241.161039 
L 95.284251 236.293209 
L 100.618743 233.31577 
L 104.439806 231.361819 
L 108.613461 229.401733 
L 114.496464 226.937513 
L 118.544746 225.432066 
L 124.008224 223.624477 
L 130.788206 221.700789 
L 136.442399 220.33255 
L 142.576747 219.057146 
L 151.068347 217.595157 
L 158.259029 216.586241 
L 167.782881 215.510511 
L 178.101818 214.610629 
L 190.178816 213.823778 
L 203.169021 213.21351 
L 218.997784 212.70215 
L 239.364245 212.290346 
L 263.465165 212.0166 
L 302.639768 211.816765 
L 371.298425 211.723429 
L 425.743406 211.709319 
L 425.743406 211.709319 
" clip-path="url(#p91129111fa)" style="fill: none; stroke: #ff0000; stroke-linecap: square"/>
   </g>
   <g id="line2d_70">
    <path d="M 43.339375 100.806199 
L 44.480701 97.889969 
L 45.505139 95.888123 
L 46.529576 94.398683 
L 47.594141 93.32922 
L 48.658705 92.687728 
L 49.301623 92.484741 
L 49.944542 92.407352 
L 51.230378 92.589881 
L 52.496192 93.151333 
L 54.404715 94.582897 
L 56.218746 96.458336 
L 57.828818 98.443483 
L 60.190197 101.752278 
L 62.384267 105.116319 
L 68.408149 114.983228 
L 73.963258 124.057894 
L 78.873101 131.617542 
L 81.473228 135.38302 
L 85.579461 140.961395 
L 89.170896 145.463512 
L 92.422591 149.240634 
L 97.265206 154.360801 
L 101.778645 158.623386 
L 104.737002 161.170303 
L 108.556589 164.19122 
L 113.286494 167.548547 
L 115.558515 169.02254 
L 121.607181 172.551416 
L 125.750502 174.669271 
L 129.606057 176.445715 
L 134.940572 178.627633 
L 140.478629 180.59384 
L 146.544646 182.445338 
L 152.771164 184.06415 
L 160.195041 185.679788 
L 167.609123 187.00889 
L 173.400517 187.881974 
L 181.376968 188.887257 
L 190.633161 189.819091 
L 201.201528 190.640706 
L 212.028341 191.27712 
L 226.225201 191.880204 
L 242.262144 192.339733 
L 263.574746 192.716582 
L 292.995294 192.987693 
L 336.598878 193.146903 
L 425.743406 193.214464 
L 425.743406 193.214464 
" clip-path="url(#p91129111fa)" style="fill: none; stroke: #0000ff; stroke-linecap: square"/>
   </g>
   <g id="line2d_71">
    <path d="M 43.339375 100.806199 
L 44.661624 130.378305 
L 46.166903 158.796961 
L 47.653585 182.169941 
L 48.966814 199.496273 
L 50.377952 215.13665 
L 51.707771 227.441337 
L 52.837185 236.283206 
L 54.163274 245.025334 
L 55.157841 250.559962 
L 56.32069 256.056233 
L 57.647034 261.199891 
L 58.906832 265.122364 
L 59.724515 267.227867 
L 61.217744 270.293655 
L 62.710973 272.491226 
L 64.105363 273.884964 
L 64.846113 274.402295 
L 65.586863 274.782191 
L 67.068364 275.177311 
L 68.043671 275.20563 
L 69.856426 274.851966 
L 71.478696 274.167535 
L 72.91067 273.333624 
L 74.342643 272.327008 
L 76.467911 270.587445 
L 78.0824 269.119774 
L 83.136096 264.064961 
L 91.49704 255.412935 
L 96.434765 250.615037 
L 101.90232 245.748516 
L 105.887227 242.52286 
L 110.993965 238.783104 
L 115.677177 235.724192 
L 119.985528 233.200873 
L 123.268547 231.451019 
L 128.884538 228.773489 
L 135.645717 226.01952 
L 140.465523 224.329197 
L 145.432069 222.794568 
L 151.372535 221.200964 
L 157.778088 219.7375 
L 165.645919 218.244386 
L 173.345394 217.052056 
L 181.031387 216.078557 
L 190.840448 215.089054 
L 202.126407 214.224187 
L 213.685957 213.566964 
L 228.243819 212.977396 
L 245.181324 212.522023 
L 267.681615 212.158558 
L 298.08493 211.909721 
L 347.524502 211.761079 
L 425.743406 211.712116 
L 425.743406 211.712116 
" clip-path="url(#p91129111fa)" style="fill: none; stroke: #ff0000; stroke-linecap: square"/>
   </g>
   <g id="line2d_72">
    <path d="M 43.339375 63.839984 
L 44.365667 60.306395 
L 45.391959 57.574812 
L 46.290057 55.768782 
L 47.188154 54.448931 
L 47.903716 53.711059 
L 48.619277 53.225604 
L 49.334839 52.97067 
L 50.517288 53.001243 
L 50.984176 53.153125 
L 52.027816 53.746534 
L 53.238679 54.82392 
L 54.449541 56.256722 
L 55.66014 57.987178 
L 57.996837 61.990012 
L 59.964991 65.86257 
L 62.20454 70.639908 
L 67.643323 83.021173 
L 74.061358 97.615446 
L 78.497594 107.114823 
L 81.506556 113.17635 
L 85.602736 120.886135 
L 89.968462 128.402887 
L 93.673721 134.227603 
L 94.969989 136.149213 
L 99.276486 142.120962 
L 102.733976 146.480804 
L 106.434218 150.749301 
L 110.668593 155.169443 
L 113.901359 158.237463 
L 117.54227 161.401694 
L 119.933664 163.32432 
L 123.269019 165.815044 
L 125.53178 167.386392 
L 130.328926 170.427596 
L 133.869603 172.441062 
L 139.571935 175.317646 
L 144.107379 177.318996 
L 147.197257 178.552932 
L 153.313968 180.720658 
L 159.608458 182.617635 
L 167.154787 184.516523 
L 171.773236 185.50682 
L 179.430541 186.906771 
L 186.761255 188.00837 
L 195.394015 189.061887 
L 205.506927 190.028535 
L 214.670058 190.708916 
L 227.71965 191.435422 
L 242.179317 191.997852 
L 257.918102 192.410784 
L 279.020233 192.754712 
L 309.844238 193.013156 
L 356.624243 193.160361 
L 425.743406 193.211667 
L 425.743406 193.211667 
" clip-path="url(#p91129111fa)" style="fill: none; stroke: #0000ff; stroke-linecap: square"/>
   </g>
   <g id="line2d_73">
    <path d="M 43.339375 63.839984 
L 44.689913 104.844086 
L 46.040452 139.699268 
L 47.491145 171.241359 
L 48.895689 196.781598 
L 50.223906 217.049215 
L 51.676731 235.50749 
L 52.892437 248.381278 
L 54.3553 261.206327 
L 55.552071 269.824106 
L 56.94809 278.046396 
L 58.298139 284.383072 
L 59.310675 288.233521 
L 60.430844 291.706036 
L 61.718742 294.803997 
L 63.01327 297.084737 
L 63.802557 298.117421 
L 64.630605 298.942019 
L 65.458653 299.526955 
L 66.281761 299.894181 
L 67.104869 300.069013 
L 67.927977 300.070775 
L 69.408091 299.693789 
L 70.065097 299.389294 
L 72.140975 297.970308 
L 72.992881 297.218699 
L 75.828961 294.185014 
L 77.802435 291.719512 
L 81.366994 286.831812 
L 93.035692 270.134556 
L 98.737987 262.674894 
L 102.836939 257.772011 
L 106.375144 253.862789 
L 110.226531 249.94299 
L 114.407616 246.067403 
L 117.478964 243.458597 
L 122.058816 239.916942 
L 126.983287 236.535726 
L 132.298025 233.33115 
L 137.346295 230.666231 
L 140.430273 229.201018 
L 146.223645 226.745896 
L 151.322277 224.870662 
L 156.588536 223.178201 
L 162.140492 221.62852 
L 167.759165 220.272948 
L 174.487424 218.890878 
L 182.538674 217.526723 
L 189.529543 216.554084 
L 198.687138 215.521431 
L 208.594013 214.650386 
L 220.181706 213.880375 
L 233.428183 213.243446 
L 248.907819 212.731263 
L 268.450663 212.320556 
L 293.887258 212.021433 
L 329.113583 211.830862 
L 396.925243 211.726238 
L 425.743406 211.714913 
L 425.743406 211.714913 
" clip-path="url(#p91129111fa)" style="fill: none; stroke: #ff0000; stroke-linecap: square"/>
   </g>
   <g id="line2d_74">
    <path d="M 43.339375 26.873769 
L 44.397282 22.344022 
L 45.413244 19.006105 
L 46.429206 16.543903 
L 47.106514 15.33791 
L 48.012301 14.214093 
L 48.918088 13.59458 
L 49.558016 13.430769 
L 50.197944 13.473287 
L 50.837872 13.705526 
L 51.979932 14.543558 
L 52.482065 15.066951 
L 53.373227 16.203027 
L 55.092015 19.040876 
L 55.91964 20.663813 
L 58.395055 26.285448 
L 61.346276 34.047224 
L 65.294228 45.38493 
L 74.705943 72.831244 
L 79.290521 85.253893 
L 82.29265 92.877445 
L 86.414728 102.637711 
L 89.358641 109.102712 
L 93.273066 117.060563 
L 97.937599 125.635228 
L 100.750984 130.357848 
L 102.273469 132.780286 
L 106.969241 139.69758 
L 110.747006 144.697439 
L 114.516171 149.228555 
L 118.693601 153.764096 
L 122.562488 157.55038 
L 125.036009 159.779812 
L 129.817311 163.704026 
L 131.113388 164.686412 
L 135.595105 167.838996 
L 138.875686 169.924179 
L 144.301181 173.004217 
L 150.472092 176.016124 
L 154.704421 177.818389 
L 160.619383 180.025507 
L 165.856028 181.714166 
L 171.575722 183.31274 
L 178.132425 184.874003 
L 185.079167 186.260656 
L 192.727204 187.522463 
L 200.049551 188.515643 
L 208.082733 189.407317 
L 218.047447 190.282328 
L 229.716097 191.055331 
L 242.715436 191.679656 
L 260.059622 192.241954 
L 278.749426 192.620742 
L 304.640355 192.916365 
L 343.597582 193.111483 
L 415.846484 193.205069 
L 425.743406 193.20887 
L 425.743406 193.20887 
" clip-path="url(#p91129111fa)" style="fill: none; stroke: #0000ff; stroke-linecap: square"/>
   </g>
   <g id="line2d_75">
    <path d="M 43.339375 26.873769 
L 44.599678 75.517588 
L 46.050896 123.107441 
L 47.51605 163.285524 
L 48.992885 196.959796 
L 50.292896 221.744707 
L 51.528296 241.659663 
L 52.755577 258.387262 
L 54.068159 273.345412 
L 55.414807 285.966238 
L 56.687506 295.705 
L 57.533034 301.144034 
L 58.58774 306.906678 
L 59.637655 311.636994 
L 60.90437 316.171431 
L 61.648524 318.305069 
L 63.045257 321.384066 
L 63.743624 322.51941 
L 64.9791 323.951738 
L 65.516209 324.367098 
L 66.407066 324.808284 
L 67.297923 324.969231 
L 68.188779 324.880423 
L 69.079636 324.569503 
L 70.015363 324.031152 
L 70.951091 323.301628 
L 72.707013 321.4974 
L 73.443765 320.597496 
L 75.939733 317.063243 
L 77.851497 313.975104 
L 81.690057 307.186724 
L 94.048544 284.628086 
L 98.459345 277.290405 
L 102.296503 271.373735 
L 105.659002 266.559632 
L 108.65622 262.558238 
L 112.912179 257.330347 
L 116.708125 253.0943 
L 119.624231 250.09661 
L 123.356049 246.563937 
L 129.195688 241.66142 
L 134.074371 238.089821 
L 137.419312 235.887428 
L 140.860792 233.811542 
L 144.467639 231.825645 
L 149.485446 229.354734 
L 154.655722 227.124735 
L 157.924657 225.862205 
L 163.467493 223.952815 
L 170.12653 221.995934 
L 176.36266 220.447658 
L 184.070522 218.85183 
L 191.27945 217.623955 
L 200.256937 216.385458 
L 210.231714 215.310809 
L 220.161574 214.486154 
L 232.156912 213.737291 
L 246.227673 213.111599 
L 264.132272 212.585643 
L 284.972821 212.215574 
L 311.655053 211.959036 
L 354.595266 211.787541 
L 425.743406 211.71771 
L 425.743406 211.71771 
" clip-path="url(#p91129111fa)" style="fill: none; stroke: #ff0000; stroke-linecap: square"/>
   </g>
   <g id="patch_3">
    <path d="M 43.339375 331.2 
L 43.339375 7.2 
" style="fill: none; stroke: #000000; stroke-width: 0.8; stroke-linejoin: miter; stroke-linecap: square"/>
   </g>
   <g id="patch_4">
    <path d="M 35.691294 211.704844 
L 433.391487 211.704844 
" style="fill: none; stroke: #000000; stroke-width: 0.8; stroke-linejoin: miter; stroke-linecap: square"/>
   </g>
   <g id="legend_1">
    <g id="patch_5">
     <path d="M 388.091487 46.596875 
L 430.391487 46.596875 
L 430.391487 14.2 
L 388.091487 14.2 
z
" style="fill: #4c4c4c; opacity: 0.5; stroke: #4c4c4c; stroke-linejoin: miter"/>
    </g>
    <g id="patch_6">
     <path d="M 386.091487 44.596875 
L 428.391487 44.596875 
L 428.391487 12.2 
L 386.091487 12.2 
z
" style="fill: #ffffff; stroke: #cccccc; stroke-linejoin: miter"/>
    </g>
    <g id="line2d_76">
     <path d="M 395.091487 22.298438 
L 389.591487 22.298438 
" style="fill: none; stroke: #0000ff; stroke-linecap: square"/>
    </g>
    <g id="text_15">
     <!-- $x(t)$ -->
     <g transform="translate(397.591487 25.798438) scale(0.1 -0.1)">
      <defs>
       <path id="Cmmi10-78" d="M 500 184 
Q 613 97 819 97 
Q 1019 97 1172 289 
Q 1325 481 1381 709 
L 1672 1844 
Q 1741 2153 1741 2266 
Q 1741 2425 1652 2544 
Q 1563 2663 1403 2663 
Q 1200 2663 1022 2536 
Q 844 2409 722 2214 
Q 600 2019 550 1819 
Q 538 1778 500 1778 
L 422 1778 
Q 372 1778 372 1838 
L 372 1856 
Q 434 2094 584 2320 
Q 734 2547 951 2687 
Q 1169 2828 1416 2828 
Q 1650 2828 1839 2703 
Q 2028 2578 2106 2363 
Q 2216 2559 2386 2693 
Q 2556 2828 2759 2828 
Q 2897 2828 3040 2779 
Q 3184 2731 3275 2631 
Q 3366 2531 3366 2381 
Q 3366 2219 3261 2101 
Q 3156 1984 2994 1984 
Q 2891 1984 2822 2050 
Q 2753 2116 2753 2216 
Q 2753 2350 2845 2451 
Q 2938 2553 3066 2572 
Q 2950 2663 2747 2663 
Q 2541 2663 2389 2472 
Q 2238 2281 2175 2047 
L 1894 916 
Q 1825 659 1825 494 
Q 1825 331 1917 214 
Q 2009 97 2163 97 
Q 2463 97 2698 361 
Q 2934 625 3009 941 
Q 3022 978 3059 978 
L 3138 978 
Q 3163 978 3178 961 
Q 3194 944 3194 922 
Q 3194 916 3188 903 
Q 3097 522 2806 225 
Q 2516 -72 2150 -72 
Q 1916 -72 1727 54 
Q 1538 181 1459 397 
Q 1359 209 1182 68 
Q 1006 -72 806 -72 
Q 669 -72 523 -23 
Q 378 25 287 125 
Q 197 225 197 378 
Q 197 528 301 651 
Q 406 775 563 775 
Q 669 775 741 711 
Q 813 647 813 544 
Q 813 409 723 309 
Q 634 209 500 184 
z
" transform="scale(0.015625)"/>
       <path id="Cmr10-28" d="M 1984 -1588 
Q 1628 -1306 1370 -942 
Q 1113 -578 948 -165 
Q 784 247 703 697 
Q 622 1147 622 1600 
Q 622 2059 703 2509 
Q 784 2959 951 3375 
Q 1119 3791 1378 4153 
Q 1638 4516 1984 4788 
Q 1984 4800 2016 4800 
L 2075 4800 
Q 2094 4800 2109 4783 
Q 2125 4766 2125 4744 
Q 2125 4716 2113 4703 
Q 1800 4397 1592 4047 
Q 1384 3697 1257 3301 
Q 1131 2906 1075 2482 
Q 1019 2059 1019 1600 
Q 1019 -434 2106 -1491 
Q 2125 -1509 2125 -1544 
Q 2125 -1559 2108 -1579 
Q 2091 -1600 2075 -1600 
L 2016 -1600 
Q 1984 -1600 1984 -1588 
z
" transform="scale(0.015625)"/>
       <path id="Cmr10-29" d="M 416 -1600 
Q 359 -1600 359 -1544 
Q 359 -1516 372 -1503 
Q 1466 -434 1466 1600 
Q 1466 3634 384 4691 
Q 359 4706 359 4744 
Q 359 4766 376 4783 
Q 394 4800 416 4800 
L 475 4800 
Q 494 4800 506 4788 
Q 966 4425 1272 3906 
Q 1578 3388 1720 2800 
Q 1863 2213 1863 1600 
Q 1863 1147 1786 708 
Q 1709 269 1542 -157 
Q 1375 -584 1119 -945 
Q 863 -1306 506 -1588 
Q 494 -1600 475 -1600 
L 416 -1600 
z
" transform="scale(0.015625)"/>
      </defs>
      <use xlink:href="#Cmmi10-78"/>
      <use xlink:href="#Cmr10-28" transform="translate(57.080078 0)"/>
      <use xlink:href="#Cmmi10-74" transform="translate(95.898438 0)"/>
      <use xlink:href="#Cmr10-29" transform="translate(131.982422 0)"/>
     </g>
    </g>
    <g id="line2d_77">
     <path d="M 395.091487 32.596875 
L 389.591487 32.596875 
" style="fill: none; stroke: #ff0000; stroke-linecap: square"/>
    </g>
    <g id="text_16">
     <!-- $dx/dt$ -->
     <g transform="translate(397.591487 36.096875) scale(0.1 -0.1)">
      <defs>
       <path id="Cmmi10-64" d="M 1113 -72 
Q 709 -72 476 233 
Q 244 538 244 953 
Q 244 1363 456 1803 
Q 669 2244 1030 2536 
Q 1391 2828 1806 2828 
Q 1994 2828 2145 2723 
Q 2297 2619 2381 2444 
L 2741 3872 
Q 2766 3981 2772 4044 
Q 2772 4147 2356 4147 
Q 2291 4147 2291 4231 
Q 2294 4247 2305 4287 
Q 2316 4328 2333 4350 
Q 2350 4372 2381 4372 
L 3244 4441 
Q 3322 4441 3322 4359 
L 2400 678 
Q 2356 572 2356 372 
Q 2356 97 2541 97 
Q 2741 97 2845 351 
Q 2950 606 3022 941 
Q 3034 978 3072 978 
L 3150 978 
Q 3175 978 3190 956 
Q 3206 934 3206 916 
Q 3094 469 2961 198 
Q 2828 -72 2528 -72 
Q 2313 -72 2147 54 
Q 1981 181 1941 391 
Q 1528 -72 1113 -72 
z
M 1119 97 
Q 1350 97 1567 270 
Q 1784 444 1941 678 
Q 1947 684 1947 703 
L 2297 2113 
Q 2259 2338 2131 2500 
Q 2003 2663 1791 2663 
Q 1575 2663 1389 2486 
Q 1203 2309 1075 2069 
Q 950 1813 836 1366 
Q 722 919 722 672 
Q 722 450 817 273 
Q 913 97 1119 97 
z
" transform="scale(0.015625)"/>
       <path id="Cmmi10-3d" d="M 359 -1472 
Q 359 -1453 366 -1447 
L 2591 4722 
Q 2603 4759 2634 4779 
Q 2666 4800 2706 4800 
Q 2763 4800 2798 4765 
Q 2834 4731 2834 4672 
L 2834 4647 
L 609 -1522 
Q 572 -1600 488 -1600 
Q 434 -1600 396 -1562 
Q 359 -1525 359 -1472 
z
" transform="scale(0.015625)"/>
      </defs>
      <use xlink:href="#Cmmi10-64"/>
      <use xlink:href="#Cmmi10-78" transform="translate(52.001953 0)"/>
      <use xlink:href="#Cmmi10-3d" transform="translate(109.082031 0)"/>
      <use xlink:href="#Cmmi10-64" transform="translate(159.082031 0)"/>
      <use xlink:href="#Cmmi10-74" transform="translate(211.083984 0)"/>
     </g>
    </g>
   </g>
  </g>
 </g>
 <defs>
  <clipPath id="p91129111fa">
   <rect x="35.691294" y="7.2" width="397.700192" height="324"/>
  </clipPath>
 </defs>
</svg>
