<?xml version="1.0" encoding="utf-8" standalone="no"?>
<!DOCTYPE svg PUBLIC "-//W3C//DTD SVG 1.1//EN"
  "http://www.w3.org/Graphics/SVG/1.1/DTD/svg11.dtd">
<svg xmlns:xlink="http://www.w3.org/1999/xlink" width="452.807854pt" height="336.82pt" viewBox="0 0 452.807854 336.82" xmlns="http://www.w3.org/2000/svg" version="1.1">
 <metadata>
  <rdf:RDF xmlns:dc="http://purl.org/dc/elements/1.1/" xmlns:cc="http://creativecommons.org/ns#" xmlns:rdf="http://www.w3.org/1999/02/22-rdf-syntax-ns#">
   <cc:Work>
    <dc:type rdf:resource="http://purl.org/dc/dcmitype/StillImage"/>
    <dc:date>2024-12-17T10:32:00.254362</dc:date>
    <dc:format>image/svg+xml</dc:format>
    <dc:creator>
     <cc:Agent>
      <dc:title>Matplotlib v3.6.2, https://matplotlib.org/</dc:title>
     </cc:Agent>
    </dc:creator>
   </cc:Work>
  </rdf:RDF>
 </metadata>
 <defs>
  <style type="text/css">*{stroke-linejoin: round; stroke-linecap: butt}</style>
 </defs>
 <g id="figure_1">
  <g id="patch_1">
   <path d="M 0 336.82 
L 452.807854 336.82 
L 452.807854 0 
L 0 0 
z
" style="fill: #ffffff"/>
  </g>
  <g id="axes_1">
   <g id="patch_2">
    <path d="M 108.538277 329.62 
L 434.147854 329.62 
L 434.147854 23.7 
L 108.538277 23.7 
z
" style="fill: #ffffff"/>
   </g>
   <g id="matplotlib.axis_1">
    <g id="xtick_1">
     <g id="line2d_1">
      <defs>
       <path id="md86d3ddead" d="M 0 0 
L 0 3.5 
" style="stroke: #000000; stroke-width: 0.8"/>
      </defs>
      <g>
       <use xlink:href="#md86d3ddead" x="114.8" y="176.660855" style="stroke: #000000; stroke-width: 0.8"/>
      </g>
     </g>
    </g>
    <g id="xtick_2">
     <g id="line2d_2">
      <g>
       <use xlink:href="#md86d3ddead" x="146.108613" y="176.660855" style="stroke: #000000; stroke-width: 0.8"/>
      </g>
     </g>
     <g id="text_1">
      <!-- $\pi$ -->
      <g transform="translate(143.258613 191.259292) scale(0.1 -0.1)">
       <defs>
        <path id="Cmmi10-bc" d="M 647 109 
Q 647 144 672 213 
Q 850 584 1004 942 
Q 1159 1300 1282 1639 
Q 1406 1978 1509 2363 
L 1100 2363 
Q 866 2363 662 2216 
Q 459 2069 325 1844 
Q 313 1819 288 1819 
L 213 1819 
Q 153 1819 153 1881 
Q 153 1894 166 1919 
Q 375 2275 614 2517 
Q 853 2759 1153 2759 
L 3475 2759 
Q 3541 2759 3587 2715 
Q 3634 2672 3634 2597 
Q 3634 2503 3567 2433 
Q 3500 2363 3406 2363 
L 2591 2363 
Q 2488 1859 2478 1381 
Q 2478 766 2694 269 
Q 2713 231 2713 191 
Q 2713 122 2672 62 
Q 2631 3 2567 -34 
Q 2503 -72 2431 -72 
Q 2263 -72 2200 203 
Q 2138 478 2138 738 
Q 2138 1103 2200 1442 
Q 2263 1781 2400 2363 
L 1703 2363 
Q 1197 313 1094 103 
Q 1003 -72 844 -72 
Q 766 -72 706 -20 
Q 647 31 647 109 
z
" transform="scale(0.015625)"/>
       </defs>
       <use xlink:href="#Cmmi10-bc" transform="translate(0 0.890625)"/>
      </g>
     </g>
    </g>
    <g id="xtick_3">
     <g id="line2d_3">
      <g>
       <use xlink:href="#md86d3ddead" x="177.417226" y="176.660855" style="stroke: #000000; stroke-width: 0.8"/>
      </g>
     </g>
     <g id="text_2">
      <!-- $2 \, \pi$ -->
      <g transform="translate(171.317226 191.259292) scale(0.1 -0.1)">
       <defs>
        <path id="Cmr10-32" d="M 319 0 
L 319 172 
Q 319 188 331 206 
L 1325 1306 
Q 1550 1550 1690 1715 
Q 1831 1881 1968 2097 
Q 2106 2313 2186 2536 
Q 2266 2759 2266 3009 
Q 2266 3272 2169 3511 
Q 2072 3750 1880 3894 
Q 1688 4038 1416 4038 
Q 1138 4038 916 3870 
Q 694 3703 603 3438 
Q 628 3444 672 3444 
Q 816 3444 917 3347 
Q 1019 3250 1019 3097 
Q 1019 2950 917 2848 
Q 816 2747 672 2747 
Q 522 2747 420 2851 
Q 319 2956 319 3097 
Q 319 3338 409 3548 
Q 500 3759 670 3923 
Q 841 4088 1055 4175 
Q 1269 4263 1509 4263 
Q 1875 4263 2190 4108 
Q 2506 3953 2690 3670 
Q 2875 3388 2875 3009 
Q 2875 2731 2753 2481 
Q 2631 2231 2440 2026 
Q 2250 1822 1953 1562 
Q 1656 1303 1563 1216 
L 838 519 
L 1453 519 
Q 1906 519 2211 526 
Q 2516 534 2534 550 
Q 2609 631 2688 1141 
L 2875 1141 
L 2694 0 
L 319 0 
z
" transform="scale(0.015625)"/>
       </defs>
       <use xlink:href="#Cmr10-32" transform="translate(0 0.390625)"/>
       <use xlink:href="#Cmmi10-bc" transform="translate(64.632454 0.390625)"/>
      </g>
     </g>
    </g>
    <g id="xtick_4">
     <g id="line2d_4">
      <g>
       <use xlink:href="#md86d3ddead" x="208.72584" y="176.660855" style="stroke: #000000; stroke-width: 0.8"/>
      </g>
     </g>
     <g id="text_3">
      <!-- $3 \, \pi$ -->
      <g transform="translate(202.62584 191.259292) scale(0.1 -0.1)">
       <defs>
        <path id="Cmr10-33" d="M 609 494 
Q 759 275 1012 169 
Q 1266 63 1556 63 
Q 1928 63 2084 380 
Q 2241 697 2241 1100 
Q 2241 1281 2208 1462 
Q 2175 1644 2097 1800 
Q 2019 1956 1883 2050 
Q 1747 2144 1550 2144 
L 1125 2144 
Q 1069 2144 1069 2203 
L 1069 2259 
Q 1069 2309 1125 2309 
L 1478 2338 
Q 1703 2338 1851 2506 
Q 2000 2675 2069 2917 
Q 2138 3159 2138 3378 
Q 2138 3684 1994 3881 
Q 1850 4078 1556 4078 
Q 1313 4078 1091 3986 
Q 869 3894 738 3706 
Q 750 3709 759 3711 
Q 769 3713 781 3713 
Q 925 3713 1022 3613 
Q 1119 3513 1119 3372 
Q 1119 3234 1022 3134 
Q 925 3034 781 3034 
Q 641 3034 541 3134 
Q 441 3234 441 3372 
Q 441 3647 606 3850 
Q 772 4053 1033 4158 
Q 1294 4263 1556 4263 
Q 1750 4263 1965 4205 
Q 2181 4147 2356 4039 
Q 2531 3931 2642 3762 
Q 2753 3594 2753 3378 
Q 2753 3109 2633 2881 
Q 2513 2653 2303 2487 
Q 2094 2322 1844 2241 
Q 2122 2188 2372 2031 
Q 2622 1875 2773 1631 
Q 2925 1388 2925 1106 
Q 2925 753 2731 467 
Q 2538 181 2222 20 
Q 1906 -141 1556 -141 
Q 1256 -141 954 -26 
Q 653 88 461 316 
Q 269 544 269 863 
Q 269 1022 375 1128 
Q 481 1234 641 1234 
Q 744 1234 830 1186 
Q 916 1138 964 1050 
Q 1013 963 1013 863 
Q 1013 706 903 600 
Q 794 494 641 494 
L 609 494 
z
" transform="scale(0.015625)"/>
       </defs>
       <use xlink:href="#Cmr10-33" transform="translate(0 0.390625)"/>
       <use xlink:href="#Cmmi10-bc" transform="translate(64.632454 0.390625)"/>
      </g>
     </g>
    </g>
    <g id="xtick_5">
     <g id="line2d_5">
      <g>
       <use xlink:href="#md86d3ddead" x="240.034453" y="176.660855" style="stroke: #000000; stroke-width: 0.8"/>
      </g>
     </g>
     <g id="text_4">
      <!-- $4 \, \pi$ -->
      <g transform="translate(233.934453 191.259292) scale(0.1 -0.1)">
       <defs>
        <path id="Cmr10-34" d="M 178 1056 
L 178 1281 
L 2156 4231 
Q 2178 4263 2222 4263 
L 2316 4263 
Q 2388 4263 2388 4191 
L 2388 1281 
L 3016 1281 
L 3016 1056 
L 2388 1056 
L 2388 428 
Q 2388 297 2575 261 
Q 2763 225 3009 225 
L 3009 0 
L 1247 0 
L 1247 225 
Q 1494 225 1681 261 
Q 1869 297 1869 428 
L 1869 1056 
L 178 1056 
z
M 391 1281 
L 1906 1281 
L 1906 3547 
L 391 1281 
z
" transform="scale(0.015625)"/>
       </defs>
       <use xlink:href="#Cmr10-34" transform="translate(0 0.390625)"/>
       <use xlink:href="#Cmmi10-bc" transform="translate(64.632454 0.390625)"/>
      </g>
     </g>
    </g>
    <g id="xtick_6">
     <g id="line2d_6">
      <g>
       <use xlink:href="#md86d3ddead" x="271.343066" y="176.660855" style="stroke: #000000; stroke-width: 0.8"/>
      </g>
     </g>
     <g id="text_5">
      <!-- $5 \, \pi$ -->
      <g transform="translate(265.243066 191.259292) scale(0.1 -0.1)">
       <defs>
        <path id="Cmr10-35" d="M 556 728 
Q 622 541 758 387 
Q 894 234 1080 148 
Q 1266 63 1466 63 
Q 1928 63 2103 422 
Q 2278 781 2278 1294 
Q 2278 1516 2270 1667 
Q 2263 1819 2228 1959 
Q 2169 2184 2020 2353 
Q 1872 2522 1656 2522 
Q 1441 2522 1286 2456 
Q 1131 2391 1034 2303 
Q 938 2216 863 2119 
Q 788 2022 769 2016 
L 697 2016 
Q 681 2016 657 2036 
Q 634 2056 634 2075 
L 634 4213 
Q 634 4228 654 4245 
Q 675 4263 697 4263 
L 716 4263 
Q 1147 4056 1631 4056 
Q 2106 4056 2547 4263 
L 2566 4263 
Q 2588 4263 2606 4247 
Q 2625 4231 2625 4213 
L 2625 4153 
Q 2625 4122 2613 4122 
Q 2394 3831 2064 3668 
Q 1734 3506 1381 3506 
Q 1125 3506 856 3578 
L 856 2369 
Q 1069 2541 1236 2614 
Q 1403 2688 1663 2688 
Q 2016 2688 2295 2484 
Q 2575 2281 2725 1954 
Q 2875 1628 2875 1288 
Q 2875 903 2686 575 
Q 2497 247 2172 53 
Q 1847 -141 1466 -141 
Q 1150 -141 886 21 
Q 622 184 470 459 
Q 319 734 319 1044 
Q 319 1188 412 1278 
Q 506 1369 647 1369 
Q 788 1369 883 1276 
Q 978 1184 978 1044 
Q 978 906 883 811 
Q 788 716 647 716 
Q 625 716 597 720 
Q 569 725 556 728 
z
" transform="scale(0.015625)"/>
       </defs>
       <use xlink:href="#Cmr10-35" transform="translate(0 0.390625)"/>
       <use xlink:href="#Cmmi10-bc" transform="translate(64.632454 0.390625)"/>
      </g>
     </g>
    </g>
    <g id="xtick_7">
     <g id="line2d_7">
      <g>
       <use xlink:href="#md86d3ddead" x="302.651679" y="176.660855" style="stroke: #000000; stroke-width: 0.8"/>
      </g>
     </g>
     <g id="text_6">
      <!-- $6 \, \pi$ -->
      <g transform="translate(296.551679 191.259292) scale(0.1 -0.1)">
       <defs>
        <path id="Cmr10-36" d="M 1600 -141 
Q 1203 -141 937 70 
Q 672 281 526 617 
Q 381 953 325 1322 
Q 269 1691 269 2069 
Q 269 2575 466 3084 
Q 663 3594 1045 3928 
Q 1428 4263 1953 4263 
Q 2172 4263 2361 4180 
Q 2550 4097 2658 3936 
Q 2766 3775 2766 3547 
Q 2766 3416 2677 3327 
Q 2588 3238 2456 3238 
Q 2331 3238 2240 3328 
Q 2150 3419 2150 3547 
Q 2150 3672 2240 3762 
Q 2331 3853 2456 3853 
L 2491 3853 
Q 2409 3969 2261 4023 
Q 2113 4078 1953 4078 
Q 1759 4078 1595 3993 
Q 1431 3909 1300 3765 
Q 1169 3622 1081 3448 
Q 994 3275 945 3053 
Q 897 2831 884 2637 
Q 872 2444 872 2150 
Q 984 2413 1190 2580 
Q 1397 2747 1656 2747 
Q 1941 2747 2175 2631 
Q 2409 2516 2578 2311 
Q 2747 2106 2836 1843 
Q 2925 1581 2925 1313 
Q 2925 938 2758 598 
Q 2591 259 2287 59 
Q 1984 -141 1600 -141 
z
M 1600 63 
Q 1847 63 1997 175 
Q 2147 288 2217 473 
Q 2288 659 2305 848 
Q 2322 1038 2322 1313 
Q 2322 1675 2287 1931 
Q 2253 2188 2100 2383 
Q 1947 2578 1631 2578 
Q 1372 2578 1205 2403 
Q 1038 2228 961 1961 
Q 884 1694 884 1447 
Q 884 1363 891 1319 
Q 891 1309 889 1303 
Q 888 1297 884 1288 
Q 884 1013 940 731 
Q 997 450 1156 256 
Q 1316 63 1600 63 
z
" transform="scale(0.015625)"/>
       </defs>
       <use xlink:href="#Cmr10-36" transform="translate(0 0.390625)"/>
       <use xlink:href="#Cmmi10-bc" transform="translate(64.632454 0.390625)"/>
      </g>
     </g>
    </g>
    <g id="xtick_8">
     <g id="line2d_8">
      <g>
       <use xlink:href="#md86d3ddead" x="333.960292" y="176.660855" style="stroke: #000000; stroke-width: 0.8"/>
      </g>
     </g>
     <g id="text_7">
      <!-- $7 \, \pi$ -->
      <g transform="translate(327.860292 191.259292) scale(0.1 -0.1)">
       <defs>
        <path id="Cmr10-37" d="M 1113 166 
Q 1113 522 1175 862 
Q 1238 1203 1358 1536 
Q 1478 1869 1648 2189 
Q 1819 2509 2022 2791 
L 2606 3603 
L 1875 3603 
Q 738 3603 703 3572 
Q 619 3469 544 2981 
L 359 2981 
L 569 4325 
L 756 4325 
L 756 4306 
Q 756 4191 1147 4156 
Q 1538 4122 1913 4122 
L 3103 4122 
L 3103 3956 
Q 3103 3950 3101 3947 
Q 3100 3944 3097 3938 
L 2216 2700 
Q 1891 2219 1809 1631 
Q 1728 1044 1728 166 
Q 1728 41 1637 -50 
Q 1547 -141 1422 -141 
Q 1294 -141 1203 -50 
Q 1113 41 1113 166 
z
" transform="scale(0.015625)"/>
       </defs>
       <use xlink:href="#Cmr10-37" transform="translate(0 0.421875)"/>
       <use xlink:href="#Cmmi10-bc" transform="translate(64.632454 0.421875)"/>
      </g>
     </g>
    </g>
    <g id="xtick_9">
     <g id="line2d_9">
      <g>
       <use xlink:href="#md86d3ddead" x="365.268905" y="176.660855" style="stroke: #000000; stroke-width: 0.8"/>
      </g>
     </g>
     <g id="text_8">
      <!-- $8 \, \pi$ -->
      <g transform="translate(359.168905 191.259292) scale(0.1 -0.1)">
       <defs>
        <path id="Cmr10-38" d="M 269 972 
Q 269 1356 522 1651 
Q 775 1947 1172 2144 
L 934 2297 
Q 716 2441 578 2680 
Q 441 2919 441 3181 
Q 441 3488 602 3734 
Q 763 3981 1030 4122 
Q 1297 4263 1600 4263 
Q 1884 4263 2148 4147 
Q 2413 4031 2583 3815 
Q 2753 3600 2753 3303 
Q 2753 3088 2651 2903 
Q 2550 2719 2373 2572 
Q 2197 2425 1997 2322 
L 2363 2088 
Q 2616 1922 2770 1653 
Q 2925 1384 2925 1088 
Q 2925 741 2739 456 
Q 2553 172 2247 15 
Q 1941 -141 1600 -141 
Q 1269 -141 961 -6 
Q 653 128 461 383 
Q 269 638 269 972 
z
M 616 972 
Q 616 719 755 509 
Q 894 300 1122 181 
Q 1350 63 1600 63 
Q 1972 63 2275 280 
Q 2578 497 2578 856 
Q 2578 978 2529 1098 
Q 2481 1219 2395 1317 
Q 2309 1416 2203 1478 
L 1344 2034 
Q 1144 1928 976 1765 
Q 809 1603 712 1400 
Q 616 1197 616 972 
z
M 1056 2925 
L 1831 2425 
Q 2100 2581 2272 2803 
Q 2444 3025 2444 3303 
Q 2444 3519 2323 3698 
Q 2203 3878 2009 3978 
Q 1816 4078 1594 4078 
Q 1400 4078 1203 4003 
Q 1006 3928 878 3779 
Q 750 3631 750 3431 
Q 750 3131 1056 2925 
z
" transform="scale(0.015625)"/>
       </defs>
       <use xlink:href="#Cmr10-38" transform="translate(0 0.390625)"/>
       <use xlink:href="#Cmmi10-bc" transform="translate(64.632454 0.390625)"/>
      </g>
     </g>
    </g>
    <g id="xtick_10">
     <g id="line2d_10">
      <g>
       <use xlink:href="#md86d3ddead" x="396.577519" y="176.660855" style="stroke: #000000; stroke-width: 0.8"/>
      </g>
     </g>
     <g id="text_9">
      <!-- $9 \, \pi$ -->
      <g transform="translate(390.477519 191.259292) scale(0.1 -0.1)">
       <defs>
        <path id="Cmr10-39" d="M 722 269 
Q 897 63 1331 63 
Q 1575 63 1786 228 
Q 1997 394 2113 634 
Q 2247 906 2284 1214 
Q 2322 1522 2322 1978 
Q 2213 1719 2008 1553 
Q 1803 1388 1538 1388 
Q 1166 1388 873 1589 
Q 581 1791 425 2120 
Q 269 2450 269 2822 
Q 269 3206 444 3539 
Q 619 3872 928 4067 
Q 1238 4263 1631 4263 
Q 2019 4263 2280 4052 
Q 2541 3841 2678 3508 
Q 2816 3175 2870 2803 
Q 2925 2431 2925 2069 
Q 2925 1575 2744 1061 
Q 2563 547 2202 203 
Q 1841 -141 1331 -141 
Q 953 -141 690 37 
Q 428 216 428 575 
Q 428 706 517 795 
Q 606 884 738 884 
Q 866 884 955 795 
Q 1044 706 1044 575 
Q 1044 450 953 359 
Q 863 269 738 269 
L 722 269 
z
M 1563 1556 
Q 1825 1556 1992 1732 
Q 2159 1909 2234 2171 
Q 2309 2434 2309 2694 
L 2309 2816 
L 2309 2841 
Q 2309 3322 2168 3700 
Q 2028 4078 1631 4078 
Q 1378 4078 1220 3967 
Q 1063 3856 988 3672 
Q 913 3488 892 3278 
Q 872 3069 872 2822 
Q 872 2459 906 2203 
Q 941 1947 1094 1751 
Q 1247 1556 1563 1556 
z
" transform="scale(0.015625)"/>
       </defs>
       <use xlink:href="#Cmr10-39" transform="translate(0 0.390625)"/>
       <use xlink:href="#Cmmi10-bc" transform="translate(64.632454 0.390625)"/>
      </g>
     </g>
    </g>
    <g id="xtick_11">
     <g id="line2d_11">
      <g>
       <use xlink:href="#md86d3ddead" x="427.886132" y="176.660855" style="stroke: #000000; stroke-width: 0.8"/>
      </g>
     </g>
     <g id="text_10">
      <!-- $10 \, \pi$ -->
      <g transform="translate(419.286132 191.259292) scale(0.1 -0.1)">
       <defs>
        <path id="Cmr10-31" d="M 594 0 
L 594 225 
Q 1394 225 1394 428 
L 1394 3788 
Q 1063 3628 556 3628 
L 556 3853 
Q 1341 3853 1741 4263 
L 1831 4263 
Q 1853 4263 1873 4245 
Q 1894 4228 1894 4206 
L 1894 428 
Q 1894 225 2694 225 
L 2694 0 
L 594 0 
z
" transform="scale(0.015625)"/>
        <path id="Cmr10-30" d="M 1600 -141 
Q 816 -141 533 504 
Q 250 1150 250 2041 
Q 250 2597 351 3087 
Q 453 3578 754 3920 
Q 1056 4263 1600 4263 
Q 2022 4263 2290 4056 
Q 2559 3850 2700 3523 
Q 2841 3197 2892 2823 
Q 2944 2450 2944 2041 
Q 2944 1491 2842 1011 
Q 2741 531 2444 195 
Q 2147 -141 1600 -141 
z
M 1600 25 
Q 1956 25 2131 390 
Q 2306 756 2347 1200 
Q 2388 1644 2388 2144 
Q 2388 2625 2347 3031 
Q 2306 3438 2132 3767 
Q 1959 4097 1600 4097 
Q 1238 4097 1063 3765 
Q 888 3434 847 3029 
Q 806 2625 806 2144 
Q 806 1788 823 1472 
Q 841 1156 916 820 
Q 991 484 1158 254 
Q 1325 25 1600 25 
z
" transform="scale(0.015625)"/>
       </defs>
       <use xlink:href="#Cmr10-31" transform="translate(0 0.390625)"/>
       <use xlink:href="#Cmr10-30" transform="translate(50 0.390625)"/>
       <use xlink:href="#Cmmi10-bc" transform="translate(114.632454 0.390625)"/>
      </g>
     </g>
    </g>
    <g id="xtick_12">
     <g id="line2d_12">
      <defs>
       <path id="mfb56d8c07b" d="M 0 0 
L 0 2 
" style="stroke: #000000; stroke-width: 0.6"/>
      </defs>
      <g>
       <use xlink:href="#mfb56d8c07b" x="122.627153" y="176.660855" style="stroke: #000000; stroke-width: 0.6"/>
      </g>
     </g>
    </g>
    <g id="xtick_13">
     <g id="line2d_13">
      <g>
       <use xlink:href="#mfb56d8c07b" x="130.454307" y="176.660855" style="stroke: #000000; stroke-width: 0.6"/>
      </g>
     </g>
    </g>
    <g id="xtick_14">
     <g id="line2d_14">
      <g>
       <use xlink:href="#mfb56d8c07b" x="138.28146" y="176.660855" style="stroke: #000000; stroke-width: 0.6"/>
      </g>
     </g>
    </g>
    <g id="xtick_15">
     <g id="line2d_15">
      <g>
       <use xlink:href="#mfb56d8c07b" x="153.935766" y="176.660855" style="stroke: #000000; stroke-width: 0.6"/>
      </g>
     </g>
    </g>
    <g id="xtick_16">
     <g id="line2d_16">
      <g>
       <use xlink:href="#mfb56d8c07b" x="161.76292" y="176.660855" style="stroke: #000000; stroke-width: 0.6"/>
      </g>
     </g>
    </g>
    <g id="xtick_17">
     <g id="line2d_17">
      <g>
       <use xlink:href="#mfb56d8c07b" x="169.590073" y="176.660855" style="stroke: #000000; stroke-width: 0.6"/>
      </g>
     </g>
    </g>
    <g id="xtick_18">
     <g id="line2d_18">
      <g>
       <use xlink:href="#mfb56d8c07b" x="185.24438" y="176.660855" style="stroke: #000000; stroke-width: 0.6"/>
      </g>
     </g>
    </g>
    <g id="xtick_19">
     <g id="line2d_19">
      <g>
       <use xlink:href="#mfb56d8c07b" x="193.071533" y="176.660855" style="stroke: #000000; stroke-width: 0.6"/>
      </g>
     </g>
    </g>
    <g id="xtick_20">
     <g id="line2d_20">
      <g>
       <use xlink:href="#mfb56d8c07b" x="200.898686" y="176.660855" style="stroke: #000000; stroke-width: 0.6"/>
      </g>
     </g>
    </g>
    <g id="xtick_21">
     <g id="line2d_21">
      <g>
       <use xlink:href="#mfb56d8c07b" x="216.552993" y="176.660855" style="stroke: #000000; stroke-width: 0.6"/>
      </g>
     </g>
    </g>
    <g id="xtick_22">
     <g id="line2d_22">
      <g>
       <use xlink:href="#mfb56d8c07b" x="224.380146" y="176.660855" style="stroke: #000000; stroke-width: 0.6"/>
      </g>
     </g>
    </g>
    <g id="xtick_23">
     <g id="line2d_23">
      <g>
       <use xlink:href="#mfb56d8c07b" x="232.207299" y="176.660855" style="stroke: #000000; stroke-width: 0.6"/>
      </g>
     </g>
    </g>
    <g id="xtick_24">
     <g id="line2d_24">
      <g>
       <use xlink:href="#mfb56d8c07b" x="247.861606" y="176.660855" style="stroke: #000000; stroke-width: 0.6"/>
      </g>
     </g>
    </g>
    <g id="xtick_25">
     <g id="line2d_25">
      <g>
       <use xlink:href="#mfb56d8c07b" x="255.688759" y="176.660855" style="stroke: #000000; stroke-width: 0.6"/>
      </g>
     </g>
    </g>
    <g id="xtick_26">
     <g id="line2d_26">
      <g>
       <use xlink:href="#mfb56d8c07b" x="263.515913" y="176.660855" style="stroke: #000000; stroke-width: 0.6"/>
      </g>
     </g>
    </g>
    <g id="xtick_27">
     <g id="line2d_27">
      <g>
       <use xlink:href="#mfb56d8c07b" x="279.170219" y="176.660855" style="stroke: #000000; stroke-width: 0.6"/>
      </g>
     </g>
    </g>
    <g id="xtick_28">
     <g id="line2d_28">
      <g>
       <use xlink:href="#mfb56d8c07b" x="286.997372" y="176.660855" style="stroke: #000000; stroke-width: 0.6"/>
      </g>
     </g>
    </g>
    <g id="xtick_29">
     <g id="line2d_29">
      <g>
       <use xlink:href="#mfb56d8c07b" x="294.824526" y="176.660855" style="stroke: #000000; stroke-width: 0.6"/>
      </g>
     </g>
    </g>
    <g id="xtick_30">
     <g id="line2d_30">
      <g>
       <use xlink:href="#mfb56d8c07b" x="310.478832" y="176.660855" style="stroke: #000000; stroke-width: 0.6"/>
      </g>
     </g>
    </g>
    <g id="xtick_31">
     <g id="line2d_31">
      <g>
       <use xlink:href="#mfb56d8c07b" x="318.305986" y="176.660855" style="stroke: #000000; stroke-width: 0.6"/>
      </g>
     </g>
    </g>
    <g id="xtick_32">
     <g id="line2d_32">
      <g>
       <use xlink:href="#mfb56d8c07b" x="326.133139" y="176.660855" style="stroke: #000000; stroke-width: 0.6"/>
      </g>
     </g>
    </g>
    <g id="xtick_33">
     <g id="line2d_33">
      <g>
       <use xlink:href="#mfb56d8c07b" x="341.787446" y="176.660855" style="stroke: #000000; stroke-width: 0.6"/>
      </g>
     </g>
    </g>
    <g id="xtick_34">
     <g id="line2d_34">
      <g>
       <use xlink:href="#mfb56d8c07b" x="349.614599" y="176.660855" style="stroke: #000000; stroke-width: 0.6"/>
      </g>
     </g>
    </g>
    <g id="xtick_35">
     <g id="line2d_35">
      <g>
       <use xlink:href="#mfb56d8c07b" x="357.441752" y="176.660855" style="stroke: #000000; stroke-width: 0.6"/>
      </g>
     </g>
    </g>
    <g id="xtick_36">
     <g id="line2d_36">
      <g>
       <use xlink:href="#mfb56d8c07b" x="373.096059" y="176.660855" style="stroke: #000000; stroke-width: 0.6"/>
      </g>
     </g>
    </g>
    <g id="xtick_37">
     <g id="line2d_37">
      <g>
       <use xlink:href="#mfb56d8c07b" x="380.923212" y="176.660855" style="stroke: #000000; stroke-width: 0.6"/>
      </g>
     </g>
    </g>
    <g id="xtick_38">
     <g id="line2d_38">
      <g>
       <use xlink:href="#mfb56d8c07b" x="388.750365" y="176.660855" style="stroke: #000000; stroke-width: 0.6"/>
      </g>
     </g>
    </g>
    <g id="xtick_39">
     <g id="line2d_39">
      <g>
       <use xlink:href="#mfb56d8c07b" x="404.404672" y="176.660855" style="stroke: #000000; stroke-width: 0.6"/>
      </g>
     </g>
    </g>
    <g id="xtick_40">
     <g id="line2d_40">
      <g>
       <use xlink:href="#mfb56d8c07b" x="412.231825" y="176.660855" style="stroke: #000000; stroke-width: 0.6"/>
      </g>
     </g>
    </g>
    <g id="xtick_41">
     <g id="line2d_41">
      <g>
       <use xlink:href="#mfb56d8c07b" x="420.058979" y="176.660855" style="stroke: #000000; stroke-width: 0.6"/>
      </g>
     </g>
    </g>
    <g id="text_11">
     <!-- $t$ -->
     <g transform="translate(442.147854 176.660855) scale(0.16 -0.16)">
      <defs>
       <path id="Cmmi10-74" d="M 397 519 
Q 397 613 416 697 
L 878 2534 
L 206 2534 
Q 141 2534 141 2619 
Q 166 2759 225 2759 
L 934 2759 
L 1191 3803 
Q 1216 3888 1291 3947 
Q 1366 4006 1459 4006 
Q 1541 4006 1595 3957 
Q 1650 3909 1650 3828 
Q 1650 3809 1648 3798 
Q 1647 3788 1644 3775 
L 1388 2759 
L 2047 2759 
Q 2113 2759 2113 2675 
Q 2109 2659 2100 2621 
Q 2091 2584 2075 2559 
Q 2059 2534 2028 2534 
L 1331 2534 
L 872 684 
Q 825 503 825 372 
Q 825 97 1013 97 
Q 1294 97 1511 361 
Q 1728 625 1844 941 
Q 1869 978 1894 978 
L 1972 978 
Q 1997 978 2012 961 
Q 2028 944 2028 922 
Q 2028 909 2022 903 
Q 1881 516 1612 222 
Q 1344 -72 997 -72 
Q 744 -72 570 93 
Q 397 259 397 519 
z
" transform="scale(0.015625)"/>
      </defs>
      <use xlink:href="#Cmmi10-74" transform="translate(0 0.40625)"/>
     </g>
    </g>
   </g>
   <g id="matplotlib.axis_2">
    <g id="ytick_1">
     <g id="line2d_42">
      <defs>
       <path id="me3ea9bba41" d="M 0 0 
L -3.5 0 
" style="stroke: #000000; stroke-width: 0.8"/>
      </defs>
      <g>
       <use xlink:href="#me3ea9bba41" x="114.8" y="314.546299" style="stroke: #000000; stroke-width: 0.8"/>
      </g>
     </g>
     <g id="text_12">
      <!-- $-0.30000000000000004$ -->
      <g transform="translate(7.2 318.345518) scale(0.1 -0.1)">
       <defs>
        <path id="Cmsy10-a1" d="M 653 1472 
Q 600 1472 565 1512 
Q 531 1553 531 1600 
Q 531 1647 565 1687 
Q 600 1728 653 1728 
L 4325 1728 
Q 4375 1728 4408 1687 
Q 4441 1647 4441 1600 
Q 4441 1553 4408 1512 
Q 4375 1472 4325 1472 
L 653 1472 
z
" transform="scale(0.015625)"/>
        <path id="Cmmi10-3a" d="M 538 353 
Q 538 497 644 600 
Q 750 703 891 703 
Q 978 703 1062 656 
Q 1147 609 1194 525 
Q 1241 441 1241 353 
Q 1241 213 1137 106 
Q 1034 0 891 0 
Q 750 0 644 106 
Q 538 213 538 353 
z
" transform="scale(0.015625)"/>
       </defs>
       <use xlink:href="#Cmsy10-a1" transform="translate(0 0.390625)"/>
       <use xlink:href="#Cmr10-30" transform="translate(77.685547 0.390625)"/>
       <use xlink:href="#Cmmi10-3a" transform="translate(127.685547 0.390625)"/>
       <use xlink:href="#Cmr10-33" transform="translate(155.371094 0.390625)"/>
       <use xlink:href="#Cmr10-30" transform="translate(205.371094 0.390625)"/>
       <use xlink:href="#Cmr10-30" transform="translate(255.371094 0.390625)"/>
       <use xlink:href="#Cmr10-30" transform="translate(305.371094 0.390625)"/>
       <use xlink:href="#Cmr10-30" transform="translate(355.371094 0.390625)"/>
       <use xlink:href="#Cmr10-30" transform="translate(405.371094 0.390625)"/>
       <use xlink:href="#Cmr10-30" transform="translate(455.371094 0.390625)"/>
       <use xlink:href="#Cmr10-30" transform="translate(505.371094 0.390625)"/>
       <use xlink:href="#Cmr10-30" transform="translate(555.371094 0.390625)"/>
       <use xlink:href="#Cmr10-30" transform="translate(605.371094 0.390625)"/>
       <use xlink:href="#Cmr10-30" transform="translate(655.371094 0.390625)"/>
       <use xlink:href="#Cmr10-30" transform="translate(705.371094 0.390625)"/>
       <use xlink:href="#Cmr10-30" transform="translate(755.371094 0.390625)"/>
       <use xlink:href="#Cmr10-30" transform="translate(805.371094 0.390625)"/>
       <use xlink:href="#Cmr10-30" transform="translate(855.371094 0.390625)"/>
       <use xlink:href="#Cmr10-30" transform="translate(905.371094 0.390625)"/>
       <use xlink:href="#Cmr10-34" transform="translate(955.371094 0.390625)"/>
      </g>
     </g>
    </g>
    <g id="ytick_2">
     <g id="line2d_43">
      <g>
       <use xlink:href="#me3ea9bba41" x="114.8" y="268.584485" style="stroke: #000000; stroke-width: 0.8"/>
      </g>
     </g>
     <g id="text_13">
      <!-- $-0.2$ -->
      <g transform="translate(87.2 272.383703) scale(0.1 -0.1)">
       <use xlink:href="#Cmsy10-a1" transform="translate(0 0.390625)"/>
       <use xlink:href="#Cmr10-30" transform="translate(77.685547 0.390625)"/>
       <use xlink:href="#Cmmi10-3a" transform="translate(127.685547 0.390625)"/>
       <use xlink:href="#Cmr10-32" transform="translate(155.371094 0.390625)"/>
      </g>
     </g>
    </g>
    <g id="ytick_3">
     <g id="line2d_44">
      <g>
       <use xlink:href="#me3ea9bba41" x="114.8" y="222.62267" style="stroke: #000000; stroke-width: 0.8"/>
      </g>
     </g>
     <g id="text_14">
      <!-- $-0.09999999999999998$ -->
      <g transform="translate(7.2 226.421889) scale(0.1 -0.1)">
       <use xlink:href="#Cmsy10-a1" transform="translate(0 0.390625)"/>
       <use xlink:href="#Cmr10-30" transform="translate(77.685547 0.390625)"/>
       <use xlink:href="#Cmmi10-3a" transform="translate(127.685547 0.390625)"/>
       <use xlink:href="#Cmr10-30" transform="translate(155.371094 0.390625)"/>
       <use xlink:href="#Cmr10-39" transform="translate(205.371094 0.390625)"/>
       <use xlink:href="#Cmr10-39" transform="translate(255.371094 0.390625)"/>
       <use xlink:href="#Cmr10-39" transform="translate(305.371094 0.390625)"/>
       <use xlink:href="#Cmr10-39" transform="translate(355.371094 0.390625)"/>
       <use xlink:href="#Cmr10-39" transform="translate(405.371094 0.390625)"/>
       <use xlink:href="#Cmr10-39" transform="translate(455.371094 0.390625)"/>
       <use xlink:href="#Cmr10-39" transform="translate(505.371094 0.390625)"/>
       <use xlink:href="#Cmr10-39" transform="translate(555.371094 0.390625)"/>
       <use xlink:href="#Cmr10-39" transform="translate(605.371094 0.390625)"/>
       <use xlink:href="#Cmr10-39" transform="translate(655.371094 0.390625)"/>
       <use xlink:href="#Cmr10-39" transform="translate(705.371094 0.390625)"/>
       <use xlink:href="#Cmr10-39" transform="translate(755.371094 0.390625)"/>
       <use xlink:href="#Cmr10-39" transform="translate(805.371094 0.390625)"/>
       <use xlink:href="#Cmr10-39" transform="translate(855.371094 0.390625)"/>
       <use xlink:href="#Cmr10-39" transform="translate(905.371094 0.390625)"/>
       <use xlink:href="#Cmr10-38" transform="translate(955.371094 0.390625)"/>
      </g>
     </g>
    </g>
    <g id="ytick_4">
     <g id="line2d_45">
      <g>
       <use xlink:href="#me3ea9bba41" x="114.8" y="176.660855" style="stroke: #000000; stroke-width: 0.8"/>
      </g>
     </g>
    </g>
    <g id="ytick_5">
     <g id="line2d_46">
      <g>
       <use xlink:href="#me3ea9bba41" x="114.8" y="130.69904" style="stroke: #000000; stroke-width: 0.8"/>
      </g>
     </g>
     <g id="text_15">
      <!-- $0.09999999999999998$ -->
      <g transform="translate(15 134.498259) scale(0.1 -0.1)">
       <use xlink:href="#Cmr10-30" transform="translate(0 0.390625)"/>
       <use xlink:href="#Cmmi10-3a" transform="translate(50 0.390625)"/>
       <use xlink:href="#Cmr10-30" transform="translate(77.685547 0.390625)"/>
       <use xlink:href="#Cmr10-39" transform="translate(127.685547 0.390625)"/>
       <use xlink:href="#Cmr10-39" transform="translate(177.685547 0.390625)"/>
       <use xlink:href="#Cmr10-39" transform="translate(227.685547 0.390625)"/>
       <use xlink:href="#Cmr10-39" transform="translate(277.685547 0.390625)"/>
       <use xlink:href="#Cmr10-39" transform="translate(327.685547 0.390625)"/>
       <use xlink:href="#Cmr10-39" transform="translate(377.685547 0.390625)"/>
       <use xlink:href="#Cmr10-39" transform="translate(427.685547 0.390625)"/>
       <use xlink:href="#Cmr10-39" transform="translate(477.685547 0.390625)"/>
       <use xlink:href="#Cmr10-39" transform="translate(527.685547 0.390625)"/>
       <use xlink:href="#Cmr10-39" transform="translate(577.685547 0.390625)"/>
       <use xlink:href="#Cmr10-39" transform="translate(627.685547 0.390625)"/>
       <use xlink:href="#Cmr10-39" transform="translate(677.685547 0.390625)"/>
       <use xlink:href="#Cmr10-39" transform="translate(727.685547 0.390625)"/>
       <use xlink:href="#Cmr10-39" transform="translate(777.685547 0.390625)"/>
       <use xlink:href="#Cmr10-39" transform="translate(827.685547 0.390625)"/>
       <use xlink:href="#Cmr10-38" transform="translate(877.685547 0.390625)"/>
      </g>
     </g>
    </g>
    <g id="ytick_6">
     <g id="line2d_47">
      <g>
       <use xlink:href="#me3ea9bba41" x="114.8" y="84.737225" style="stroke: #000000; stroke-width: 0.8"/>
      </g>
     </g>
     <g id="text_16">
      <!-- $0.20000000000000007$ -->
      <g transform="translate(15 88.536444) scale(0.1 -0.1)">
       <use xlink:href="#Cmr10-30" transform="translate(0 0.421875)"/>
       <use xlink:href="#Cmmi10-3a" transform="translate(50 0.421875)"/>
       <use xlink:href="#Cmr10-32" transform="translate(77.685547 0.421875)"/>
       <use xlink:href="#Cmr10-30" transform="translate(127.685547 0.421875)"/>
       <use xlink:href="#Cmr10-30" transform="translate(177.685547 0.421875)"/>
       <use xlink:href="#Cmr10-30" transform="translate(227.685547 0.421875)"/>
       <use xlink:href="#Cmr10-30" transform="translate(277.685547 0.421875)"/>
       <use xlink:href="#Cmr10-30" transform="translate(327.685547 0.421875)"/>
       <use xlink:href="#Cmr10-30" transform="translate(377.685547 0.421875)"/>
       <use xlink:href="#Cmr10-30" transform="translate(427.685547 0.421875)"/>
       <use xlink:href="#Cmr10-30" transform="translate(477.685547 0.421875)"/>
       <use xlink:href="#Cmr10-30" transform="translate(527.685547 0.421875)"/>
       <use xlink:href="#Cmr10-30" transform="translate(577.685547 0.421875)"/>
       <use xlink:href="#Cmr10-30" transform="translate(627.685547 0.421875)"/>
       <use xlink:href="#Cmr10-30" transform="translate(677.685547 0.421875)"/>
       <use xlink:href="#Cmr10-30" transform="translate(727.685547 0.421875)"/>
       <use xlink:href="#Cmr10-30" transform="translate(777.685547 0.421875)"/>
       <use xlink:href="#Cmr10-30" transform="translate(827.685547 0.421875)"/>
       <use xlink:href="#Cmr10-37" transform="translate(877.685547 0.421875)"/>
      </g>
     </g>
    </g>
    <g id="ytick_7">
     <g id="line2d_48">
      <g>
       <use xlink:href="#me3ea9bba41" x="114.8" y="38.775411" style="stroke: #000000; stroke-width: 0.8"/>
      </g>
     </g>
     <g id="text_17">
      <!-- $0.30000000000000004$ -->
      <g transform="translate(15 42.574629) scale(0.1 -0.1)">
       <use xlink:href="#Cmr10-30" transform="translate(0 0.390625)"/>
       <use xlink:href="#Cmmi10-3a" transform="translate(50 0.390625)"/>
       <use xlink:href="#Cmr10-33" transform="translate(77.685547 0.390625)"/>
       <use xlink:href="#Cmr10-30" transform="translate(127.685547 0.390625)"/>
       <use xlink:href="#Cmr10-30" transform="translate(177.685547 0.390625)"/>
       <use xlink:href="#Cmr10-30" transform="translate(227.685547 0.390625)"/>
       <use xlink:href="#Cmr10-30" transform="translate(277.685547 0.390625)"/>
       <use xlink:href="#Cmr10-30" transform="translate(327.685547 0.390625)"/>
       <use xlink:href="#Cmr10-30" transform="translate(377.685547 0.390625)"/>
       <use xlink:href="#Cmr10-30" transform="translate(427.685547 0.390625)"/>
       <use xlink:href="#Cmr10-30" transform="translate(477.685547 0.390625)"/>
       <use xlink:href="#Cmr10-30" transform="translate(527.685547 0.390625)"/>
       <use xlink:href="#Cmr10-30" transform="translate(577.685547 0.390625)"/>
       <use xlink:href="#Cmr10-30" transform="translate(627.685547 0.390625)"/>
       <use xlink:href="#Cmr10-30" transform="translate(677.685547 0.390625)"/>
       <use xlink:href="#Cmr10-30" transform="translate(727.685547 0.390625)"/>
       <use xlink:href="#Cmr10-30" transform="translate(777.685547 0.390625)"/>
       <use xlink:href="#Cmr10-30" transform="translate(827.685547 0.390625)"/>
       <use xlink:href="#Cmr10-34" transform="translate(877.685547 0.390625)"/>
      </g>
     </g>
    </g>
    <g id="ytick_8">
     <g id="line2d_49">
      <defs>
       <path id="m6640829aaa" d="M 0 0 
L -2 0 
" style="stroke: #000000; stroke-width: 0.6"/>
      </defs>
      <g>
       <use xlink:href="#m6640829aaa" x="114.8" y="323.738662" style="stroke: #000000; stroke-width: 0.6"/>
      </g>
     </g>
    </g>
    <g id="ytick_9">
     <g id="line2d_50">
      <g>
       <use xlink:href="#m6640829aaa" x="114.8" y="305.353936" style="stroke: #000000; stroke-width: 0.6"/>
      </g>
     </g>
    </g>
    <g id="ytick_10">
     <g id="line2d_51">
      <g>
       <use xlink:href="#m6640829aaa" x="114.8" y="296.161573" style="stroke: #000000; stroke-width: 0.6"/>
      </g>
     </g>
    </g>
    <g id="ytick_11">
     <g id="line2d_52">
      <g>
       <use xlink:href="#m6640829aaa" x="114.8" y="286.969211" style="stroke: #000000; stroke-width: 0.6"/>
      </g>
     </g>
    </g>
    <g id="ytick_12">
     <g id="line2d_53">
      <g>
       <use xlink:href="#m6640829aaa" x="114.8" y="277.776848" style="stroke: #000000; stroke-width: 0.6"/>
      </g>
     </g>
    </g>
    <g id="ytick_13">
     <g id="line2d_54">
      <g>
       <use xlink:href="#m6640829aaa" x="114.8" y="259.392122" style="stroke: #000000; stroke-width: 0.6"/>
      </g>
     </g>
    </g>
    <g id="ytick_14">
     <g id="line2d_55">
      <g>
       <use xlink:href="#m6640829aaa" x="114.8" y="250.199759" style="stroke: #000000; stroke-width: 0.6"/>
      </g>
     </g>
    </g>
    <g id="ytick_15">
     <g id="line2d_56">
      <g>
       <use xlink:href="#m6640829aaa" x="114.8" y="241.007396" style="stroke: #000000; stroke-width: 0.6"/>
      </g>
     </g>
    </g>
    <g id="ytick_16">
     <g id="line2d_57">
      <g>
       <use xlink:href="#m6640829aaa" x="114.8" y="231.815033" style="stroke: #000000; stroke-width: 0.6"/>
      </g>
     </g>
    </g>
    <g id="ytick_17">
     <g id="line2d_58">
      <g>
       <use xlink:href="#m6640829aaa" x="114.8" y="213.430307" style="stroke: #000000; stroke-width: 0.6"/>
      </g>
     </g>
    </g>
    <g id="ytick_18">
     <g id="line2d_59">
      <g>
       <use xlink:href="#m6640829aaa" x="114.8" y="204.237944" style="stroke: #000000; stroke-width: 0.6"/>
      </g>
     </g>
    </g>
    <g id="ytick_19">
     <g id="line2d_60">
      <g>
       <use xlink:href="#m6640829aaa" x="114.8" y="195.045581" style="stroke: #000000; stroke-width: 0.6"/>
      </g>
     </g>
    </g>
    <g id="ytick_20">
     <g id="line2d_61">
      <g>
       <use xlink:href="#m6640829aaa" x="114.8" y="185.853218" style="stroke: #000000; stroke-width: 0.6"/>
      </g>
     </g>
    </g>
    <g id="ytick_21">
     <g id="line2d_62">
      <g>
       <use xlink:href="#m6640829aaa" x="114.8" y="167.468492" style="stroke: #000000; stroke-width: 0.6"/>
      </g>
     </g>
    </g>
    <g id="ytick_22">
     <g id="line2d_63">
      <g>
       <use xlink:href="#m6640829aaa" x="114.8" y="158.276129" style="stroke: #000000; stroke-width: 0.6"/>
      </g>
     </g>
    </g>
    <g id="ytick_23">
     <g id="line2d_64">
      <g>
       <use xlink:href="#m6640829aaa" x="114.8" y="149.083766" style="stroke: #000000; stroke-width: 0.6"/>
      </g>
     </g>
    </g>
    <g id="ytick_24">
     <g id="line2d_65">
      <g>
       <use xlink:href="#m6640829aaa" x="114.8" y="139.891403" style="stroke: #000000; stroke-width: 0.6"/>
      </g>
     </g>
    </g>
    <g id="ytick_25">
     <g id="line2d_66">
      <g>
       <use xlink:href="#m6640829aaa" x="114.8" y="121.506677" style="stroke: #000000; stroke-width: 0.6"/>
      </g>
     </g>
    </g>
    <g id="ytick_26">
     <g id="line2d_67">
      <g>
       <use xlink:href="#m6640829aaa" x="114.8" y="112.314314" style="stroke: #000000; stroke-width: 0.6"/>
      </g>
     </g>
    </g>
    <g id="ytick_27">
     <g id="line2d_68">
      <g>
       <use xlink:href="#m6640829aaa" x="114.8" y="103.121951" style="stroke: #000000; stroke-width: 0.6"/>
      </g>
     </g>
    </g>
    <g id="ytick_28">
     <g id="line2d_69">
      <g>
       <use xlink:href="#m6640829aaa" x="114.8" y="93.929588" style="stroke: #000000; stroke-width: 0.6"/>
      </g>
     </g>
    </g>
    <g id="ytick_29">
     <g id="line2d_70">
      <g>
       <use xlink:href="#m6640829aaa" x="114.8" y="75.544862" style="stroke: #000000; stroke-width: 0.6"/>
      </g>
     </g>
    </g>
    <g id="ytick_30">
     <g id="line2d_71">
      <g>
       <use xlink:href="#m6640829aaa" x="114.8" y="66.352499" style="stroke: #000000; stroke-width: 0.6"/>
      </g>
     </g>
    </g>
    <g id="ytick_31">
     <g id="line2d_72">
      <g>
       <use xlink:href="#m6640829aaa" x="114.8" y="57.160136" style="stroke: #000000; stroke-width: 0.6"/>
      </g>
     </g>
    </g>
    <g id="ytick_32">
     <g id="line2d_73">
      <g>
       <use xlink:href="#m6640829aaa" x="114.8" y="47.967774" style="stroke: #000000; stroke-width: 0.6"/>
      </g>
     </g>
    </g>
    <g id="ytick_33">
     <g id="line2d_74">
      <g>
       <use xlink:href="#m6640829aaa" x="114.8" y="29.583048" style="stroke: #000000; stroke-width: 0.6"/>
      </g>
     </g>
    </g>
    <g id="text_18">
     <!-- $x(t)$ -->
     <g transform="translate(101.12 11.7) scale(0.16 -0.16)">
      <defs>
       <path id="Cmmi10-78" d="M 500 184 
Q 613 97 819 97 
Q 1019 97 1172 289 
Q 1325 481 1381 709 
L 1672 1844 
Q 1741 2153 1741 2266 
Q 1741 2425 1652 2544 
Q 1563 2663 1403 2663 
Q 1200 2663 1022 2536 
Q 844 2409 722 2214 
Q 600 2019 550 1819 
Q 538 1778 500 1778 
L 422 1778 
Q 372 1778 372 1838 
L 372 1856 
Q 434 2094 584 2320 
Q 734 2547 951 2687 
Q 1169 2828 1416 2828 
Q 1650 2828 1839 2703 
Q 2028 2578 2106 2363 
Q 2216 2559 2386 2693 
Q 2556 2828 2759 2828 
Q 2897 2828 3040 2779 
Q 3184 2731 3275 2631 
Q 3366 2531 3366 2381 
Q 3366 2219 3261 2101 
Q 3156 1984 2994 1984 
Q 2891 1984 2822 2050 
Q 2753 2116 2753 2216 
Q 2753 2350 2845 2451 
Q 2938 2553 3066 2572 
Q 2950 2663 2747 2663 
Q 2541 2663 2389 2472 
Q 2238 2281 2175 2047 
L 1894 916 
Q 1825 659 1825 494 
Q 1825 331 1917 214 
Q 2009 97 2163 97 
Q 2463 97 2698 361 
Q 2934 625 3009 941 
Q 3022 978 3059 978 
L 3138 978 
Q 3163 978 3178 961 
Q 3194 944 3194 922 
Q 3194 916 3188 903 
Q 3097 522 2806 225 
Q 2516 -72 2150 -72 
Q 1916 -72 1727 54 
Q 1538 181 1459 397 
Q 1359 209 1182 68 
Q 1006 -72 806 -72 
Q 669 -72 523 -23 
Q 378 25 287 125 
Q 197 225 197 378 
Q 197 528 301 651 
Q 406 775 563 775 
Q 669 775 741 711 
Q 813 647 813 544 
Q 813 409 723 309 
Q 634 209 500 184 
z
" transform="scale(0.015625)"/>
       <path id="Cmr10-28" d="M 1984 -1588 
Q 1628 -1306 1370 -942 
Q 1113 -578 948 -165 
Q 784 247 703 697 
Q 622 1147 622 1600 
Q 622 2059 703 2509 
Q 784 2959 951 3375 
Q 1119 3791 1378 4153 
Q 1638 4516 1984 4788 
Q 1984 4800 2016 4800 
L 2075 4800 
Q 2094 4800 2109 4783 
Q 2125 4766 2125 4744 
Q 2125 4716 2113 4703 
Q 1800 4397 1592 4047 
Q 1384 3697 1257 3301 
Q 1131 2906 1075 2482 
Q 1019 2059 1019 1600 
Q 1019 -434 2106 -1491 
Q 2125 -1509 2125 -1544 
Q 2125 -1559 2108 -1579 
Q 2091 -1600 2075 -1600 
L 2016 -1600 
Q 1984 -1600 1984 -1588 
z
" transform="scale(0.015625)"/>
       <path id="Cmr10-29" d="M 416 -1600 
Q 359 -1600 359 -1544 
Q 359 -1516 372 -1503 
Q 1466 -434 1466 1600 
Q 1466 3634 384 4691 
Q 359 4706 359 4744 
Q 359 4766 376 4783 
Q 394 4800 416 4800 
L 475 4800 
Q 494 4800 506 4788 
Q 966 4425 1272 3906 
Q 1578 3388 1720 2800 
Q 1863 2213 1863 1600 
Q 1863 1147 1786 708 
Q 1709 269 1542 -157 
Q 1375 -584 1119 -945 
Q 863 -1306 506 -1588 
Q 494 -1600 475 -1600 
L 416 -1600 
z
" transform="scale(0.015625)"/>
      </defs>
      <use xlink:href="#Cmmi10-78"/>
      <use xlink:href="#Cmr10-28" transform="translate(57.080078 0)"/>
      <use xlink:href="#Cmmi10-74" transform="translate(95.898438 0)"/>
      <use xlink:href="#Cmr10-29" transform="translate(131.982422 0)"/>
     </g>
    </g>
   </g>
   <g id="line2d_75">
    <path d="M 114.8 176.660855 
L 115.296806 174.521668 
L 115.793612 169.714485 
L 116.271519 166.219596 
L 116.510473 166.079198 
L 116.749426 167.447521 
L 116.98838 170.433452 
L 117.227334 174.929989 
L 118.242869 200.002597 
L 118.511682 203.84765 
L 118.780496 204.699853 
L 119.04931 202.033943 
L 119.318124 195.7638 
L 119.855751 174.515298 
L 120.560358 142.762491 
L 121.030096 131.468906 
L 121.264965 131.30219 
L 121.499834 135.290105 
L 121.734703 143.344175 
L 122.230127 171.031516 
L 123.226231 231.593104 
L 123.425451 237.379276 
L 123.624672 239.5041 
L 123.823893 237.671335 
L 124.092299 228.904336 
L 124.360704 213.546665 
L 125.971138 99.090161 
L 126.169192 97.842777 
L 126.367246 101.516115 
L 126.763354 122.98435 
L 127.159463 159.205337 
L 128.080672 250.594452 
L 128.474499 269.083702 
L 128.605774 270.515739 
L 128.737049 269.395736 
L 128.9996 259.5336 
L 129.393427 227.652292 
L 130.842414 75.34674 
L 130.995821 70.4758 
L 131.149229 69.49877 
L 131.302636 72.508753 
L 131.609451 90.115929 
L 132.069673 140.335821 
L 133.117785 274.066189 
L 133.49994 294.601443 
L 133.627325 295.665322 
L 133.75471 293.683563 
L 134.00948 280.75431 
L 134.391635 241.594569 
L 135.818848 56.069841 
L 136.084008 47.799854 
L 136.216589 48.958209 
L 136.48175 61.828834 
L 136.879491 104.505304 
L 138.302189 303.563623 
L 138.575521 313.319681 
L 138.70243 312.448645 
L 138.956249 300.439753 
L 139.336977 259.427361 
L 139.463887 240.887797 
L 140.649803 56.973037 
L 140.973235 36.210267 
L 141.081046 34.274271 
L 141.188856 34.940876 
L 141.33012 39.738842 
L 141.612646 62.019135 
L 142.036436 121.204064 
L 143.166543 300.791086 
L 143.449069 319.690258 
L 143.569779 322.413347 
L 143.690489 321.79786 
L 143.931909 310.664498 
L 144.294038 271.599489 
L 144.897588 169.055927 
L 145.588015 59.880016 
L 145.899398 34.625904 
L 146.106986 29.583354 
L 146.210781 30.790943 
L 146.418369 40.561198 
L 146.729752 72.057404 
L 147.041134 119.293226 
L 148.022496 284.670232 
L 148.408357 317.960122 
L 148.536977 321.979953 
L 148.665597 322.216365 
L 148.794217 318.66931 
L 149.051457 300.71668 
L 149.437318 250.883952 
L 150.667872 55.643945 
L 150.96806 36.449032 
L 151.118154 34.20407 
L 151.268249 37.001099 
L 151.568437 57.071053 
L 152.054156 122.358643 
L 153.167341 292.71777 
L 153.439971 310.312832 
L 153.61417 313.425655 
L 153.70127 312.532996 
L 153.875469 305.930966 
L 154.049668 293.238445 
L 154.398066 252.432734 
L 155.791658 57.961435 
L 156.052956 48.07409 
L 156.140055 47.837024 
L 156.238592 49.421239 
L 156.435665 58.321436 
L 156.731274 84.618205 
L 157.447937 187.251232 
L 158.097426 271.666641 
L 158.48712 294.303659 
L 158.617017 295.693319 
L 158.746915 293.921719 
L 159.006711 281.283957 
L 159.387643 244.133298 
L 160.722802 81.78001 
L 161.011345 70.145745 
L 161.107526 69.370361 
L 161.203707 70.161309 
L 161.299888 72.492949 
L 161.492251 81.564507 
L 161.876975 114.715158 
L 163.222293 259.794912 
L 163.536736 270.193405 
L 163.64155 270.411131 
L 163.746364 269.008306 
L 163.984424 260.084284 
L 164.222485 244.102828 
L 164.698605 197.89504 
L 165.531816 117.393055 
L 165.869714 100.929246 
L 166.088582 97.70055 
L 166.198017 98.342373 
L 166.307451 100.447643 
L 166.526319 108.761921 
L 167.034489 144.392605 
L 168.050828 225.27504 
L 168.431956 238.34171 
L 168.558998 239.477042 
L 168.788 237.454868 
L 169.017002 230.592493 
L 169.475007 205.855696 
L 170.391015 147.491235 
L 170.845231 132.600361 
L 170.985412 131.076727 
L 171.265773 132.412484 
L 171.546134 138.984836 
L 171.826495 149.533589 
L 172.947939 197.159178 
L 173.213469 202.743022 
L 173.478999 204.790269 
L 173.744529 203.458308 
L 174.010059 199.309762 
L 175.07218 173.226928 
L 175.385408 168.295093 
L 175.755236 165.992802 
L 176.125065 167.144428 
L 176.864722 174.056622 
L 177.23455 176.354694 
L 177.604379 176.339646 
L 178.773676 166.744353 
L 181.662229 202.105476 
L 181.982305 194.321358 
L 182.302381 182.199019 
L 183.18449 142.510472 
L 183.426447 135.159064 
L 183.668404 131.289293 
L 183.910361 131.559314 
L 184.15421 136.301103 
L 184.641906 158.144028 
L 185.861148 232.2431 
L 186.092205 238.265061 
L 186.323263 239.242134 
L 186.55432 234.838475 
L 186.93582 216.341383 
L 187.38715 180.978689 
L 188.289809 109.687459 
L 188.590696 99.047448 
L 188.741139 97.697422 
L 188.891582 99.178384 
L 189.192469 110.577232 
L 189.460814 129.349522 
L 190.960903 265.196354 
L 191.238924 270.516736 
L 191.377934 268.920645 
L 191.640067 258.187865 
L 192.033268 225.308887 
L 193.475003 74.689177 
L 193.621605 70.317228 
L 193.768207 69.510605 
L 193.914809 72.346289 
L 194.208014 88.629594 
L 194.64782 135.253632 
L 195.829108 281.380302 
L 196.124431 294.743391 
L 196.222871 295.69878 
L 196.334287 294.586485 
L 196.557118 285.436624 
L 196.891365 255.810751 
L 197.559859 160.280343 
L 198.20917 73.572261 
L 198.514642 52.182088 
L 198.71829 47.748508 
L 198.820114 48.672955 
L 199.023762 56.786777 
L 199.329234 83.539766 
L 199.832767 155.670816 
L 200.724042 287.491776 
L 201.021133 309.010321 
L 201.219194 313.424567 
L 201.333544 312.142788 
L 201.562242 301.251446 
L 201.905291 266.015583 
L 202.362688 194.378839 
L 203.180063 66.057805 
L 203.573898 36.73625 
L 203.705177 34.238767 
L 203.836455 35.599043 
L 204.099012 49.691343 
L 204.492847 95.838096 
L 205.986537 316.089081 
L 206.254691 322.48059 
L 206.388768 319.512475 
L 206.656922 301.634052 
L 207.059153 249.447704 
L 208.279649 52.052327 
L 208.575408 32.197521 
L 208.723287 29.583803 
L 208.871166 32.023572 
L 209.166925 51.554328 
L 209.491119 92.356219 
L 210.858288 307.245927 
L 211.124231 321.379269 
L 211.257202 322.472466 
L 211.390174 319.513997 
L 211.656117 301.910622 
L 212.055032 250.807367 
L 213.345867 50.249338 
L 213.663454 34.650246 
L 213.816706 35.097165 
L 213.969957 40.75572 
L 214.276461 66.603045 
L 214.736217 133.115246 
L 215.655727 279.449795 
L 215.962231 305.89636 
L 216.220819 313.422924 
L 216.350113 311.807379 
L 216.618043 297.37989 
L 217.033953 249.779811 
L 218.281682 67.550575 
L 218.558956 50.617048 
L 218.697592 47.833069 
L 218.806004 48.375972 
L 219.022827 56.485811 
L 219.348061 84.569137 
L 219.998531 176.908539 
L 220.685258 268.917463 
L 221.06488 293.254199 
L 221.19142 295.58586 
L 221.317961 294.910656 
L 221.571042 284.792447 
L 221.950664 250.513839 
L 223.440808 76.161958 
L 223.74254 69.399039 
L 223.893405 71.777332 
L 224.195137 87.363352 
L 224.496868 115.000819 
L 225.70629 251.185086 
L 226.010518 267.243496 
L 226.162632 270.273486 
L 226.314746 269.861465 
L 226.46686 266.084778 
L 226.789006 248.025089 
L 227.299102 199.699794 
L 228.201261 113.997811 
L 228.562124 99.139443 
L 228.742556 97.749952 
L 228.922987 100.404304 
L 229.283851 116.656317 
L 229.825146 159.595946 
L 230.694867 226.645359 
L 231.076511 238.724426 
L 231.203725 239.507587 
L 231.447952 236.522599 
L 231.692179 228.176479 
L 232.180634 200.001846 
L 233.157543 141.004845 
L 233.375974 134.285319 
L 233.594405 131.124959 
L 233.812835 131.549997 
L 234.031266 135.303498 
L 234.468128 150.586968 
L 235.565914 197.179726 
L 235.896376 203.580162 
L 236.226838 204.530845 
L 236.579764 200.223742 
L 237.91922 169.349653 
L 238.1999 166.589708 
L 238.480581 166.015784 
L 238.761261 167.275449 
L 239.704265 175.680431 
L 240.0186 176.658529 
L 240.332935 175.855429 
L 240.647269 173.517802 
L 241.275939 167.506583 
L 241.621989 165.977737 
L 241.96804 167.306854 
L 242.314091 171.985488 
L 242.660142 179.581657 
L 243.672405 203.059627 
L 243.874858 204.670706 
L 244.07731 204.405643 
L 244.279763 202.100403 
L 244.584149 194.804567 
L 244.888535 183.525462 
L 245.781239 143.263767 
L 246.065172 134.662269 
L 246.349105 130.940958 
L 246.491071 131.23758 
L 246.633037 133.058077 
L 246.991192 144.294318 
L 247.349347 163.613632 
L 248.397138 229.056151 
L 248.72862 238.545825 
L 248.894361 239.472706 
L 249.060102 237.637248 
L 249.391584 225.755841 
L 249.723066 204.30733 
L 250.91294 109.385622 
L 251.108367 101.445624 
L 251.316799 97.790419 
L 251.525231 99.512943 
L 251.733663 106.667833 
L 252.150526 135.583455 
L 253.504124 261.961711 
L 253.6862 268.580835 
L 253.868276 270.492211 
L 254.050351 267.489413 
L 254.412921 247.338971 
L 254.954403 190.201924 
L 255.856873 88.625642 
L 256.217861 70.727425 
L 256.398355 69.613988 
L 256.578848 74.014721 
L 256.939836 98.529978 
L 257.490672 165.823545 
L 258.231355 262.776206 
L 258.601696 290.314896 
L 258.753783 294.958594 
L 258.90587 295.324501 
L 259.086502 290.127923 
L 259.447766 262.46964 
L 259.989662 189.424001 
L 260.779197 78.28533 
L 261.064711 55.432486 
L 261.350225 47.751704 
L 261.492982 50.067512 
L 261.778496 66.798619 
L 262.206768 117.640783 
L 263.443172 296.757125 
L 263.674068 310.419418 
L 263.789515 313.135291 
L 263.904963 312.994504 
L 264.135858 304.163291 
L 264.482201 271.185142 
L 264.89754 208.526794 
L 265.832053 62.264545 
L 266.143558 38.580808 
L 266.354504 34.214211 
L 266.459977 35.761224 
L 266.670923 46.213368 
L 266.987342 78.693901 
L 267.409235 144.940358 
L 268.369499 297.669254 
L 268.692522 320.007398 
L 268.800196 322.376076 
L 268.90787 322.088089 
L 269.123219 313.597616 
L 269.446242 282.53981 
L 269.96815 199.129913 
L 270.796619 62.840968 
L 271.107295 35.977312 
L 271.347688 29.585523 
L 271.484521 31.89561 
L 271.758189 49.10145 
L 272.116714 93.625863 
L 273.473517 307.082036 
L 273.754744 321.670926 
L 273.895358 322.274521 
L 274.035972 318.355982 
L 274.3172 297.611344 
L 274.739041 240.082567 
L 275.891456 56.684776 
L 276.161064 37.953667 
L 276.347619 34.197526 
L 276.440896 35.242304 
L 276.627451 43.082634 
L 276.907283 68.154395 
L 277.280393 121.018272 
L 278.289391 281.303425 
L 278.607335 307.388141 
L 278.766307 312.767632 
L 278.925279 312.725878 
L 279.084251 307.29849 
L 279.402195 281.490527 
L 279.879111 214.784606 
L 280.741149 83.372554 
L 281.107182 53.444309 
L 281.291849 48.024665 
L 281.384183 47.90582 
L 281.56885 52.814577 
L 281.845852 72.251673 
L 282.399854 143.45703 
L 283.323191 270.867966 
L 283.692526 293.559524 
L 283.877193 295.592277 
L 284.046053 291.881109 
L 284.383773 269.653072 
L 284.890352 208.99975 
L 285.807302 93.031563 
L 286.15484 72.322736 
L 286.380551 69.500361 
L 286.493406 71.314841 
L 286.719116 81.100858 
L 287.057682 109.095212 
L 288.510569 262.589364 
L 288.785592 270.320281 
L 288.923103 269.9792 
L 289.060614 266.880429 
L 289.335637 253.039462 
L 289.610659 230.773336 
L 290.935413 107.486344 
L 291.245296 98.155473 
L 291.400238 97.999071 
L 291.598486 102.089696 
L 291.994981 122.891353 
L 293.418753 231.447327 
L 293.635019 237.808414 
L 293.851286 239.453256 
L 294.000772 237.863343 
L 294.299743 228.596719 
L 294.7482 203.315804 
L 295.645114 146.556804 
L 295.944086 135.492845 
L 296.243057 130.968367 
L 296.449127 131.750741 
L 296.655198 135.466533 
L 297.067338 149.80775 
L 298.167448 196.743786 
L 298.443278 202.675544 
L 298.719107 204.795773 
L 298.994937 203.281175 
L 299.254002 199.119516 
L 300.516121 169.636099 
L 300.758583 166.979883 
L 301.001045 165.981431 
L 301.48597 168.114584 
L 302.416033 176.154367 
L 302.861171 176.259326 
L 303.751448 168.697748 
L 304.212193 166.006133 
L 304.442565 166.361588 
L 304.672937 168.175619 
L 305.133682 176.141111 
L 305.963148 197.283623 
L 306.33187 203.537975 
L 306.516231 204.742114 
L 306.700592 204.366752 
L 306.884953 202.295537 
L 307.069314 198.514693 
L 307.440497 186.219909 
L 308.554045 138.027089 
L 308.897275 131.333781 
L 309.068889 131.003766 
L 309.240504 132.883835 
L 309.583734 143.232136 
L 309.926963 161.170793 
L 310.997467 228.330123 
L 311.327314 238.275245 
L 311.504233 239.489581 
L 311.681151 237.561976 
L 312.034988 224.378172 
L 312.565743 185.849617 
L 313.464118 112.953072 
L 313.763576 100.393279 
L 313.913305 97.917223 
L 314.063035 98.210521 
L 314.212764 101.327672 
L 314.512222 115.739967 
L 314.961409 154.10282 
L 315.94815 251.703584 
L 316.235356 266.638208 
L 316.378959 269.962714 
L 316.522562 270.281472 
L 316.666165 267.531657 
L 316.953371 253.08133 
L 317.240577 228.115897 
L 318.670347 76.435405 
L 318.841419 70.595892 
L 319.01249 69.586675 
L 319.183561 73.532967 
L 319.448342 89.092044 
L 319.845512 130.579181 
L 321.147623 286.72079 
L 321.44927 295.68871 
L 321.600094 293.853004 
L 321.901741 277.643033 
L 322.354212 226.76807 
L 323.495979 68.753993 
L 323.85603 48.819508 
L 323.976048 47.773946 
L 324.096065 49.653717 
L 324.336099 62.027343 
L 324.690834 99.111249 
L 325.034938 150.405183 
L 325.883337 279.51536 
L 326.272932 309.727987 
L 326.402797 313.089401 
L 326.532662 312.83958 
L 326.770071 303.074638 
L 327.126185 267.781133 
L 327.482299 214.007215 
L 328.431936 64.130701 
L 328.731434 39.963702 
L 328.881184 34.876631 
L 329.030933 34.775718 
L 329.180682 39.683726 
L 329.480181 63.732721 
L 329.62993 82.055245 
L 330.97827 296.799036 
L 331.278959 318.847042 
L 331.429304 322.475092 
L 331.531855 321.98117 
L 331.736958 313.817172 
L 332.044613 284.891734 
L 332.454818 222.445983 
L 333.475323 56.000574 
L 333.745454 34.898945 
L 333.880519 30.319848 
L 334.015585 29.937174 
L 334.15065 33.761967 
L 334.420781 53.474232 
L 334.825977 108.158999 
L 336.014125 300.182837 
L 336.327306 320.530685 
L 336.483896 322.520293 
L 336.596807 320.465377 
L 336.822629 307.822405 
L 337.161362 269.895664 
L 337.838827 154.754697 
L 338.474091 60.147069 
L 338.84133 35.815965 
L 338.93314 34.286549 
L 339.02495 34.647817 
L 339.20857 40.980255 
L 339.484 63.625353 
L 339.75943 99.421214 
L 341.072991 297.374861 
L 341.353446 312.162877 
L 341.446931 313.403757 
L 341.540416 312.761663 
L 341.727386 305.917639 
L 342.007842 282.746241 
L 342.568752 202.950887 
L 343.316633 88.221434 
L 343.690574 55.174372 
L 343.979028 47.775515 
L 344.123254 50.385736 
L 344.411708 67.635727 
L 344.844389 118.017897 
L 345.999489 276.063079 
L 346.318979 293.812982 
L 346.425475 295.583243 
L 346.531971 295.22244 
L 346.744964 288.236768 
L 347.064454 263.539138 
L 347.383943 225.803495 
L 348.389937 96.087241 
L 348.767185 72.47901 
L 348.892934 69.736198 
L 349.018683 69.675796 
L 349.144432 72.268 
L 349.395931 84.963256 
L 349.651336 106.71669 
L 351.183767 265.060259 
L 351.439173 270.502929 
L 351.541467 269.964744 
L 351.643761 267.899253 
L 353.714574 101.126564 
L 353.875628 98.025355 
L 354.036682 98.188388 
L 354.197736 101.528148 
L 354.519845 116.752864 
L 355.003007 154.560913 
L 355.808278 219.967126 
L 356.130386 234.794606 
L 356.413236 239.483098 
L 356.535032 239.014238 
L 356.778624 233.825167 
L 357.265809 209.749286 
L 358.297916 144.92538 
L 358.555943 135.635733 
L 358.81397 131.225193 
L 359.071997 131.815014 
L 359.330024 136.974733 
L 359.909215 160.038884 
L 360.845864 198.378727 
L 361.203323 204.250181 
L 361.382052 204.783892 
L 361.560781 203.814715 
L 361.91824 198.141463 
L 362.980866 172.139086 
L 363.335075 167.308959 
L 363.791025 166.198474 
L 364.246975 169.435835 
L 364.702925 173.939201 
L 365.158875 176.549158 
L 365.513952 176.113805 
L 365.869029 173.63394 
L 366.579184 167.024644 
L 366.845672 165.986946 
L 367.112161 166.641567 
L 367.378649 169.274255 
L 367.645138 173.854552 
L 368.919676 203.21227 
L 369.12826 204.729032 
L 369.421992 203.408155 
L 369.715724 197.764248 
L 370.303188 175.512915 
L 371.184384 137.640871 
L 371.478116 131.677747 
L 371.741855 131.368946 
L 372.005594 136.292676 
L 372.269333 146.269721 
L 372.533071 160.496396 
L 373.588027 227.142174 
L 373.921997 237.90205 
L 374.088982 239.499 
L 374.255967 238.313975 
L 374.507894 231.202916 
L 375.011748 200.08797 
L 376.145421 109.486052 
L 376.407181 99.761592 
L 376.542979 97.834654 
L 376.678776 98.193756 
L 376.814573 100.876871 
L 377.086168 113.020506 
L 377.357763 133.192089 
L 378.748085 262.417586 
L 379.007248 270.095542 
L 379.13683 270.305818 
L 379.266412 268.016442 
L 379.525575 256.098143 
L 379.784739 235.323791 
L 381.389534 72.38818 
L 381.50772 69.802519 
L 381.664569 69.988745 
L 381.821418 74.341085 
L 382.135115 94.941023 
L 382.448812 128.837377 
L 383.703602 282.944389 
L 384.017299 295.363209 
L 384.12837 295.453036 
L 384.239442 293.224936 
L 384.461585 281.961113 
L 384.7948 249.757121 
L 384.905872 235.683398 
L 386.128703 67.413596 
L 386.462961 49.044548 
L 386.587824 47.7581 
L 386.712687 49.636931 
L 386.962413 62.712706 
L 387.337002 102.961017 
L 388.814835 306.162298 
L 389.05088 313.359167 
L 389.168902 312.497987 
L 389.404946 301.881926 
L 389.759013 265.74714 
L 390.349124 170.811966 
L 391.104536 58.360527 
L 391.428283 36.646188 
L 391.536199 34.37683 
L 391.644115 34.712342 
L 391.859947 43.153899 
L 392.204433 76.450962 
L 392.590397 135.636256 
L 393.579786 295.14666 
L 393.896301 318.851786 
L 394.054558 322.523638 
L 394.212815 320.459354 
L 394.371073 312.729278 
L 394.693347 280.927968 
L 395.015621 232.171437 
L 395.982445 68.732766 
L 396.385288 33.844212 
L 396.546425 29.695067 
L 396.626993 29.866599 
L 396.788131 34.693071 
L 397.127096 63.207746 
L 397.660579 145.711625 
L 398.49814 285.498147 
L 398.916921 319.599015 
L 399.084433 322.576282 
L 399.168189 321.650764 
L 399.335702 315.03119 
L 399.503214 302.33832 
L 399.838238 261.274424 
L 401.260482 45.445438 
L 401.567051 34.211562 
L 401.712362 36.194282 
L 402.002983 53.856638 
L 402.438914 108.912763 
L 403.568862 286.144181 
L 403.918116 310.641181 
L 404.032791 313.197343 
L 404.147465 312.922634 
L 404.376815 304.013068 
L 404.72084 271.731052 
L 405.064865 222.593364 
L 405.985973 82.208646 
L 406.294246 55.930027 
L 406.448383 49.473462 
L 406.602519 47.801747 
L 406.756656 50.937312 
L 407.038953 68.50201 
L 407.4624 118.128649 
L 408.59159 273.921251 
L 408.873887 291.793369 
L 409.015036 295.328315 
L 409.161925 295.037446 
L 409.308814 290.751285 
L 409.602591 271.074641 
L 409.896369 239.26266 
L 411.071479 90.539232 
L 411.365256 73.130756 
L 411.52802 69.564151 
L 411.690784 70.484933 
L 411.853548 75.78683 
L 412.179076 98.214114 
L 412.667368 152.574515 
L 413.464215 243.770438 
L 413.800321 265.033247 
L 413.968374 269.721443 
L 414.136428 270.213285 
L 414.304481 266.570464 
L 414.640587 248.032425 
L 414.976693 217.964191 
L 415.985012 118.470538 
L 416.426707 98.903713 
L 416.600079 97.773365 
L 416.773452 100.37335 
L 417.120197 115.706747 
L 417.466942 141.311142 
L 418.474688 222.83131 
L 418.805189 236.40461 
L 418.970439 239.166561 
L 419.13569 239.164352 
L 419.30094 236.491407 
L 419.631441 224.068262 
L 419.796691 215.022993 
L 420.994277 141.588283 
L 421.390318 131.586913 
L 421.607497 131.102893 
L 421.824677 134.001223 
L 422.259036 147.99707 
L 423.3771 196.031785 
L 423.610362 201.573966 
L 423.843625 204.407843 
L 424.076888 204.538949 
L 424.310151 202.233167 
L 424.776676 192.380047 
L 425.581157 172.454032 
L 425.849317 168.352722 
L 426.103919 166.322607 
L 426.358521 166.064069 
L 426.867724 169.470252 
L 427.376928 174.42112 
L 427.886132 176.660855 
L 427.886132 176.660855 
" clip-path="url(#pc8db028a31)" style="fill: none; stroke: #0000ff; stroke-linecap: square"/>
   </g>
   <g id="line2d_76">
    <path d="M 114.8 176.660855 
L 120.638473 134.191676 
L 124.34733 108.87352 
L 127.216726 90.849022 
L 130.366683 73.119344 
L 131.597925 66.868372 
L 134.600531 53.424717 
L 136.160632 47.524806 
L 138.964323 38.930486 
L 140.030915 36.36789 
L 140.954902 34.472367 
L 143.878029 30.503101 
L 145.444147 29.664769 
L 146.778029 29.665991 
L 147.772394 30.095165 
L 148.834834 30.956691 
L 151.11652 34.201067 
L 152.279379 36.575598 
L 154.521283 42.490482 
L 155.209297 44.649781 
L 157.353534 52.375549 
L 160.097209 64.342855 
L 161.800882 72.859406 
L 164.612684 88.541246 
L 166.305402 98.847485 
L 170.656904 127.726759 
L 174.12411 152.471036 
L 184.134976 225.298593 
L 186.806586 243.41158 
L 190.203632 264.673274 
L 192.764382 279.045632 
L 194.332004 287.025193 
L 197.020669 299.097166 
L 199.172933 307.16682 
L 201.274807 313.580887 
L 202.68524 317.035763 
L 204.747673 320.818863 
L 205.914218 322.277755 
L 207.682002 323.537013 
L 209.520418 323.621808 
L 211.014592 322.770051 
L 212.517666 321.085181 
L 214.802786 316.955485 
L 216.555158 312.536915 
L 219.009569 304.592804 
L 221.14259 296.110363 
L 222.989866 287.656007 
L 224.781061 278.547776 
L 227.302215 264.352705 
L 230.554973 244.003468 
L 235.799912 207.673404 
L 246.76572 127.928994 
L 249.529503 109.216116 
L 252.915465 88.090107 
L 254.868569 77.027567 
L 257.21301 65.0196 
L 260.675592 50.149572 
L 262.628278 43.419128 
L 264.55324 38.03472 
L 266.364943 34.146586 
L 267.173303 32.789814 
L 268.607036 30.966579 
L 270.14215 29.849932 
L 272.172676 29.710431 
L 273.352798 30.330077 
L 276.045342 33.657135 
L 277.609294 36.791825 
L 279.224927 40.933678 
L 281.1506 47.031965 
L 284.313711 59.641845 
L 286.597434 70.595413 
L 287.827619 77.082167 
L 290.906488 94.921436 
L 293.704221 112.831958 
L 298.169787 143.866544 
L 310.915414 235.907706 
L 312.390076 245.69628 
L 314.797144 260.839139 
L 317.716996 277.542377 
L 320.246384 290.276773 
L 323.382997 303.510223 
L 326.402559 313.291398 
L 327.906122 317.005844 
L 329.704937 320.399399 
L 331.579889 322.691018 
L 334.215051 323.726649 
L 334.829976 323.598677 
L 336.751154 322.299214 
L 338.270764 320.312677 
L 339.213312 318.660202 
L 340.909313 314.890096 
L 342.437456 310.635567 
L 343.928004 305.727155 
L 346.33057 296.31012 
L 348.760293 285.021296 
L 350.986923 273.259289 
L 354.179087 254.336383 
L 357.837102 230.238942 
L 361.136659 206.935134 
L 372.373701 125.337093 
L 375.354476 105.373937 
L 378.164411 88.004746 
L 379.92235 78.012343 
L 381.910692 67.638377 
L 384.218763 56.962168 
L 386.73157 47.166126 
L 388.974895 40.153275 
L 390.807435 35.703145 
L 391.784996 33.814254 
L 393.334242 31.525895 
L 394.137179 30.684047 
L 396.590107 29.583077 
L 398.087494 30.004901 
L 399.335445 30.988776 
L 401.692348 34.399275 
L 403.148548 37.503665 
L 404.593324 41.317484 
L 407.034183 49.363294 
L 409.789065 60.727236 
L 410.721819 65.088057 
L 412.776935 75.543954 
L 415.896555 93.428412 
L 417.810536 105.438328 
L 421.454251 130.018822 
L 426.195831 164.202906 
L 427.886132 176.660855 
L 427.886132 176.660855 
" clip-path="url(#pc8db028a31)" style="fill: none; stroke: #ff0000; stroke-width: 3; stroke-linecap: square"/>
   </g>
   <g id="line2d_77">
    <path d="M 114.8 176.660855 
L 120.52984 218.361941 
L 123.686504 240.084234 
L 126.757598 259.698634 
L 129.323987 274.598753 
L 130.731636 282.097507 
L 133.556073 295.522982 
L 135.10515 301.889746 
L 136.701145 307.658243 
L 138.015899 311.781087 
L 139.215582 315.030693 
L 141.70481 320.16332 
L 142.636123 321.512214 
L 144.089784 322.984861 
L 146.01168 323.736923 
L 147.409775 323.425379 
L 149.848953 321.156542 
L 150.949659 319.421766 
L 152.535289 316.159239 
L 154.419162 311.138165 
L 155.680989 307.100509 
L 157.147056 301.754185 
L 159.782636 290.463444 
L 161.889548 279.997755 
L 164.299295 266.621019 
L 167.530127 246.663251 
L 171.354409 220.712249 
L 176.939151 180.188282 
L 183.520473 132.324909 
L 184.973154 122.230822 
L 188.744765 97.501312 
L 191.852648 79.211492 
L 194.341377 66.25081 
L 196.794519 55.157051 
L 198.303958 49.234926 
L 199.510695 45.024342 
L 200.831572 40.968971 
L 203.483378 34.641232 
L 204.467529 32.926933 
L 205.688072 31.287942 
L 207.832633 29.730707 
L 208.683512 29.583379 
L 210.053645 29.909288 
L 213.089673 33.094042 
L 214.654294 36.041197 
L 216.023097 39.330522 
L 216.805429 41.502402 
L 218.588577 47.224911 
L 221.443301 58.519543 
L 222.684076 64.198352 
L 225.747315 80.033734 
L 229.884732 104.960256 
L 232.024646 119.133778 
L 235.3933 142.721989 
L 246.76272 225.371832 
L 249.781633 245.7535 
L 252.687808 263.884719 
L 254.143614 272.294022 
L 257.23087 288.387864 
L 260.002132 300.56588 
L 260.913616 304.058886 
L 262.61005 309.845574 
L 265.071579 316.517879 
L 268.099864 321.795904 
L 269.764738 323.277773 
L 270.158998 323.479212 
L 272.076975 323.638969 
L 274.260223 322.166225 
L 275.382094 320.729149 
L 276.097213 319.574626 
L 279.019727 312.964122 
L 279.884654 310.43872 
L 282.034499 303.081877 
L 284.119513 294.542394 
L 286.56735 282.879968 
L 288.111879 274.685776 
L 290.600933 260.265051 
L 293.998547 238.526184 
L 297.227266 216.195839 
L 303.472673 170.604377 
L 309.266494 128.740592 
L 312.55657 106.543023 
L 316.242106 83.967889 
L 317.454844 77.195697 
L 319.907822 64.647733 
L 321.522408 57.3024 
L 324.030763 47.459689 
L 325.689479 42.065069 
L 326.705211 39.219416 
L 329.303985 33.578229 
L 329.923852 32.588719 
L 331.804278 30.442672 
L 334.039733 29.584216 
L 334.352289 29.611491 
L 335.972714 30.332076 
L 338.018397 32.620959 
L 340.150099 36.618471 
L 340.873987 38.34278 
L 343.836833 47.27331 
L 345.296159 52.73569 
L 347.442956 61.969011 
L 351.035427 80.332599 
L 351.87923 85.12271 
L 355.442624 107.053474 
L 360.042747 138.536895 
L 367.642023 194.130975 
L 372.89108 231.544721 
L 376.091825 252.657062 
L 378.46587 267.081687 
L 380.264075 277.165086 
L 381.957519 285.914971 
L 384.441929 297.308923 
L 386.221408 304.328454 
L 388.39543 311.519254 
L 389.359134 314.198465 
L 391.054392 318.127943 
L 392.606064 320.828675 
L 394.961975 323.255794 
L 396.247793 323.718538 
L 397.858393 323.435069 
L 398.89983 322.74147 
L 400.389688 321.056721 
L 403.326695 315.38692 
L 404.020286 313.603147 
L 406.180341 306.996556 
L 406.944657 304.288031 
L 408.690487 297.404316 
L 411.165192 286.074519 
L 412.802267 277.641928 
L 415.254203 263.757364 
L 418.387657 244.128052 
L 421.922555 220.013019 
L 426.899097 183.941302 
L 427.886132 176.660855 
L 427.886132 176.660855 
" clip-path="url(#pc8db028a31)" style="fill: none; stroke: #ff0000; stroke-width: 3; stroke-linecap: square"/>
   </g>
   <g id="patch_3">
    <path d="M 114.8 329.62 
L 114.8 23.7 
" style="fill: none; stroke: #000000; stroke-width: 0.8; stroke-linejoin: miter; stroke-linecap: square"/>
   </g>
   <g id="patch_4">
    <path d="M 108.538277 176.660855 
L 434.147854 176.660855 
" style="fill: none; stroke: #000000; stroke-width: 0.8; stroke-linejoin: miter; stroke-linecap: square"/>
   </g>
   <g id="legend_1">
    <g id="patch_5">
     <path d="M 115.538277 194.858437 
L 196.338277 194.858437 
L 196.338277 162.461562 
L 115.538277 162.461562 
z
" style="fill: #4c4c4c; opacity: 0.5; stroke: #4c4c4c; stroke-linejoin: miter"/>
    </g>
    <g id="patch_6">
     <path d="M 113.538277 192.858437 
L 194.338277 192.858437 
L 194.338277 160.461562 
L 113.538277 160.461562 
z
" style="fill: #ffffff; stroke: #cccccc; stroke-linejoin: miter"/>
    </g>
    <g id="line2d_78">
     <path d="M 122.538277 170.56 
L 117.038277 170.56 
" style="fill: none; stroke: #0000ff; stroke-linecap: square"/>
    </g>
    <g id="text_19">
     <!-- $x(t)$ -->
     <g transform="translate(125.038277 174.06) scale(0.1 -0.1)">
      <use xlink:href="#Cmmi10-78"/>
      <use xlink:href="#Cmr10-28" transform="translate(57.080078 0)"/>
      <use xlink:href="#Cmmi10-74" transform="translate(95.898438 0)"/>
      <use xlink:href="#Cmr10-29" transform="translate(131.982422 0)"/>
     </g>
    </g>
    <g id="line2d_79">
     <path d="M 122.538277 180.858437 
L 117.038277 180.858437 
" style="fill: none; stroke: #ff0000; stroke-width: 3; stroke-linecap: square"/>
    </g>
    <g id="text_20">
     <!-- $|(A/2 \overline{\omega} \delta) \sin \delta t|$ -->
     <g transform="translate(125.038277 184.358437) scale(0.1 -0.1)">
      <defs>
       <path id="Cmsy10-6a" d="M 763 -1484 
L 763 4684 
Q 763 4734 800 4767 
Q 838 4800 891 4800 
Q 938 4800 978 4767 
Q 1019 4734 1019 4684 
L 1019 -1484 
Q 1019 -1534 978 -1567 
Q 938 -1600 891 -1600 
Q 838 -1600 800 -1567 
Q 763 -1534 763 -1484 
z
" transform="scale(0.015625)"/>
       <path id="Cmmi10-41" d="M 288 0 
Q 225 0 225 84 
Q 250 225 306 225 
Q 566 225 755 328 
Q 944 431 1081 647 
Q 1094 659 1094 659 
L 3378 4513 
Q 3428 4581 3500 4581 
L 3584 4581 
Q 3603 4581 3622 4573 
Q 3641 4566 3655 4548 
Q 3669 4531 3669 4513 
L 4056 378 
Q 4056 350 4084 294 
Q 4147 225 4563 225 
Q 4628 225 4628 141 
Q 4606 56 4592 28 
Q 4578 0 4519 0 
L 2919 0 
Q 2859 0 2859 84 
Q 2894 225 2944 225 
Q 3450 225 3481 397 
L 3384 1453 
L 1806 1453 
L 1294 594 
Q 1247 525 1247 434 
Q 1247 322 1355 273 
Q 1463 225 1594 225 
Q 1656 225 1656 141 
Q 1634 50 1621 25 
Q 1609 0 1550 0 
L 288 0 
z
M 1931 1678 
L 3359 1678 
L 3169 3750 
L 1931 1678 
z
" transform="scale(0.015625)"/>
       <path id="Cmmi10-3d" d="M 359 -1472 
Q 359 -1453 366 -1447 
L 2591 4722 
Q 2603 4759 2634 4779 
Q 2666 4800 2706 4800 
Q 2763 4800 2798 4765 
Q 2834 4731 2834 4672 
L 2834 4647 
L 609 -1522 
Q 572 -1600 488 -1600 
Q 434 -1600 396 -1562 
Q 359 -1525 359 -1472 
z
" transform="scale(0.015625)"/>
       <path id="Cmmi10-21" d="M 775 -72 
Q 413 -72 252 193 
Q 91 459 91 844 
Q 91 1097 136 1339 
Q 181 1581 273 1829 
Q 366 2078 484 2295 
Q 603 2513 750 2719 
Q 778 2759 825 2759 
Q 866 2759 891 2734 
Q 916 2709 916 2675 
Q 916 2641 897 2613 
Q 313 1809 313 1131 
Q 313 838 448 627 
Q 584 416 863 416 
Q 1103 416 1308 556 
Q 1513 697 1663 916 
Q 1663 1028 1702 1265 
Q 1741 1503 1823 1689 
Q 1906 1875 2022 1875 
Q 2169 1875 2169 1703 
Q 2169 1603 2126 1451 
Q 2084 1300 2032 1169 
Q 1981 1038 1906 872 
Q 1981 416 2363 416 
Q 2584 416 2807 544 
Q 3031 672 3203 880 
Q 3375 1088 3473 1328 
Q 3572 1569 3572 1784 
Q 3572 1978 3511 2086 
Q 3450 2194 3350 2312 
Q 3250 2431 3250 2503 
Q 3250 2628 3356 2731 
Q 3463 2834 3584 2834 
Q 3741 2834 3806 2692 
Q 3872 2550 3872 2369 
Q 3872 2075 3755 1628 
Q 3638 1181 3488 884 
Q 3281 481 2970 204 
Q 2659 -72 2272 -72 
Q 2025 -72 1873 76 
Q 1722 225 1678 481 
Q 1500 228 1272 78 
Q 1044 -72 775 -72 
z
" transform="scale(0.015625)"/>
       <path id="Cmmi10-b1" d="M 1281 -97 
Q 1059 -97 868 -14 
Q 678 69 536 225 
Q 394 381 325 573 
Q 256 766 256 991 
Q 256 1391 445 1767 
Q 634 2144 961 2419 
Q 1288 2694 1672 2791 
Q 1484 3138 1386 3389 
Q 1288 3641 1288 3903 
Q 1288 4097 1378 4245 
Q 1469 4394 1628 4478 
Q 1788 4563 1984 4563 
Q 2175 4563 2741 4434 
Q 2888 4400 2888 4263 
Q 2888 4156 2809 4068 
Q 2731 3981 2625 3981 
Q 2547 3981 2484 4017 
Q 2422 4053 2287 4143 
Q 2153 4234 2047 4282 
Q 1941 4331 1825 4331 
Q 1694 4331 1589 4251 
Q 1484 4172 1484 4044 
Q 1484 3841 1664 3577 
Q 1844 3313 2175 2900 
Q 2553 2419 2553 1838 
Q 2553 1550 2470 1215 
Q 2388 881 2230 584 
Q 2072 288 1826 95 
Q 1581 -97 1281 -97 
z
M 1294 78 
Q 1544 78 1723 337 
Q 1903 597 1995 955 
Q 2088 1313 2088 1556 
Q 2088 2034 1753 2631 
Q 1416 2538 1172 2238 
Q 928 1938 803 1547 
Q 678 1156 678 806 
Q 678 500 837 289 
Q 997 78 1294 78 
z
" transform="scale(0.015625)"/>
       <path id="Cmr10-73" d="M 213 -19 
L 213 1025 
Q 213 1075 269 1075 
L 347 1075 
Q 384 1075 397 1025 
Q 575 97 1259 97 
Q 1563 97 1767 234 
Q 1972 372 1972 659 
Q 1972 866 1812 1011 
Q 1653 1156 1434 1209 
L 1006 1294 
Q 791 1341 614 1437 
Q 438 1534 325 1695 
Q 213 1856 213 2069 
Q 213 2350 361 2529 
Q 509 2709 746 2789 
Q 984 2869 1259 2869 
Q 1588 2869 1831 2694 
L 2016 2853 
Q 2016 2869 2047 2869 
L 2094 2869 
Q 2113 2869 2128 2851 
Q 2144 2834 2144 2816 
L 2144 1978 
Q 2144 1919 2094 1919 
L 2016 1919 
Q 1959 1919 1959 1978 
Q 1959 2313 1773 2516 
Q 1588 2719 1253 2719 
Q 966 2719 755 2612 
Q 544 2506 544 2247 
Q 544 2069 695 1955 
Q 847 1841 1050 1791 
L 1484 1709 
Q 1703 1659 1892 1540 
Q 2081 1422 2192 1240 
Q 2303 1059 2303 831 
Q 2303 600 2223 429 
Q 2144 259 2001 146 
Q 1859 34 1665 -19 
Q 1472 -72 1259 -72 
Q 859 -72 575 197 
L 341 -56 
Q 341 -72 306 -72 
L 269 -72 
Q 213 -72 213 -19 
z
" transform="scale(0.015625)"/>
       <path id="Cmr10-69" d="M 197 0 
L 197 225 
Q 416 225 556 259 
Q 697 294 697 428 
L 697 2175 
Q 697 2422 601 2478 
Q 506 2534 225 2534 
L 225 2759 
L 1147 2828 
L 1147 428 
Q 1147 294 1269 259 
Q 1391 225 1594 225 
L 1594 0 
L 197 0 
z
M 469 3928 
Q 469 4069 575 4175 
Q 681 4281 819 4281 
Q 909 4281 993 4234 
Q 1078 4188 1125 4103 
Q 1172 4019 1172 3928 
Q 1172 3791 1065 3684 
Q 959 3578 819 3578 
Q 681 3578 575 3684 
Q 469 3791 469 3928 
z
" transform="scale(0.015625)"/>
       <path id="Cmr10-6e" d="M 191 0 
L 191 225 
Q 409 225 550 259 
Q 691 294 691 428 
L 691 2175 
Q 691 2347 639 2423 
Q 588 2500 491 2517 
Q 394 2534 191 2534 
L 191 2759 
L 1119 2828 
L 1119 2203 
Q 1247 2478 1498 2653 
Q 1750 2828 2047 2828 
Q 2491 2828 2714 2615 
Q 2938 2403 2938 1966 
L 2938 428 
Q 2938 294 3078 259 
Q 3219 225 3438 225 
L 3438 0 
L 1972 0 
L 1972 225 
Q 2191 225 2331 259 
Q 2472 294 2472 428 
L 2472 1947 
Q 2472 2259 2381 2461 
Q 2291 2663 2009 2663 
Q 1638 2663 1398 2366 
Q 1159 2069 1159 1691 
L 1159 428 
Q 1159 294 1300 259 
Q 1441 225 1656 225 
L 1656 0 
L 191 0 
z
" transform="scale(0.015625)"/>
      </defs>
      <use xlink:href="#Cmsy10-6a"/>
      <use xlink:href="#Cmr10-28" transform="translate(27.685547 0)"/>
      <use xlink:href="#Cmmi10-41" transform="translate(66.503906 0)"/>
      <use xlink:href="#Cmmi10-3d" transform="translate(141.503906 0)"/>
      <use xlink:href="#Cmr10-32" transform="translate(191.503906 0)"/>
      <use xlink:href="#Cmmi10-21" transform="translate(241.503906 0.5)"/>
      <use xlink:href="#Cmmi10-b1" transform="translate(303.710938 0)"/>
      <use xlink:href="#Cmr10-29" transform="translate(348.095703 0)"/>
      <use xlink:href="#Cmr10-73" transform="translate(386.914062 0)"/>
      <use xlink:href="#Cmr10-69" transform="translate(426.318359 0)"/>
      <use xlink:href="#Cmr10-6e" transform="translate(454.003906 0)"/>
      <use xlink:href="#Cmmi10-b1" transform="translate(524.153938 0)"/>
      <use xlink:href="#Cmmi10-74" transform="translate(568.538704 0)"/>
      <use xlink:href="#Cmsy10-6a" transform="translate(604.622688 0)"/>
      <path d="M 241.503906 56.53125 
L 241.503906 62.78125 
L 303.710938 62.78125 
L 303.710938 56.53125 
L 241.503906 56.53125 
z
"/>
     </g>
    </g>
   </g>
  </g>
 </g>
 <defs>
  <clipPath id="pc8db028a31">
   <rect x="108.538277" y="23.7" width="325.609577" height="305.92"/>
  </clipPath>
 </defs>
</svg>
