<?xml version="1.0" encoding="utf-8" standalone="no"?>
<!DOCTYPE svg PUBLIC "-//W3C//DTD SVG 1.1//EN"
  "http://www.w3.org/Graphics/SVG/1.1/DTD/svg11.dtd">
<svg xmlns:xlink="http://www.w3.org/1999/xlink" width="365.050569pt" height="338.374219pt" viewBox="0 0 365.050569 338.374219" xmlns="http://www.w3.org/2000/svg" version="1.1">
 <metadata>
  <rdf:RDF xmlns:dc="http://purl.org/dc/elements/1.1/" xmlns:cc="http://creativecommons.org/ns#" xmlns:rdf="http://www.w3.org/1999/02/22-rdf-syntax-ns#">
   <cc:Work>
    <dc:type rdf:resource="http://purl.org/dc/dcmitype/StillImage"/>
    <dc:date>2025-02-04T09:34:48.674743</dc:date>
    <dc:format>image/svg+xml</dc:format>
    <dc:creator>
     <cc:Agent>
      <dc:title>Matplotlib v3.6.2, https://matplotlib.org/</dc:title>
     </cc:Agent>
    </dc:creator>
   </cc:Work>
  </rdf:RDF>
 </metadata>
 <defs>
  <style type="text/css">*{stroke-linejoin: round; stroke-linecap: butt}</style>
 </defs>
 <g id="figure_1">
  <g id="patch_1">
   <path d="M -0 338.374219 
L 365.050569 338.374219 
L 365.050569 0 
L -0 0 
z
" style="fill: #ffffff"/>
  </g>
  <g id="axes_1">
   <g id="patch_2">
    <path d="M 7.2 331.174219 
L 343.840569 331.174219 
L 343.840569 24.894219 
L 7.2 24.894219 
z
" style="fill: #ffffff"/>
   </g>
   <g id="matplotlib.axis_1">
    <g id="xtick_1">
     <g id="line2d_1">
      <defs>
       <path id="m50bc8e1664" d="M 0 0 
L 0 3.5 
" style="stroke: #000000; stroke-width: 0.8"/>
      </defs>
      <g>
       <use xlink:href="#m50bc8e1664" x="22.442013" y="130.70448" style="stroke: #000000; stroke-width: 0.8"/>
      </g>
     </g>
     <g id="text_1">
      <!-- −1.0 -->
      <g transform="translate(7.872326 146.822605) scale(0.12 -0.12)">
       <defs>
        <path id="DejaVuSans-2212" d="M 678 2272 
L 4684 2272 
L 4684 1741 
L 678 1741 
L 678 2272 
z
" transform="scale(0.015625)"/>
        <path id="DejaVuSans-31" d="M 794 531 
L 1825 531 
L 1825 4091 
L 703 3866 
L 703 4441 
L 1819 4666 
L 2450 4666 
L 2450 531 
L 3481 531 
L 3481 0 
L 794 0 
L 794 531 
z
" transform="scale(0.015625)"/>
        <path id="DejaVuSans-2e" d="M 684 794 
L 1344 794 
L 1344 0 
L 684 0 
L 684 794 
z
" transform="scale(0.015625)"/>
        <path id="DejaVuSans-30" d="M 2034 4250 
Q 1547 4250 1301 3770 
Q 1056 3291 1056 2328 
Q 1056 1369 1301 889 
Q 1547 409 2034 409 
Q 2525 409 2770 889 
Q 3016 1369 3016 2328 
Q 3016 3291 2770 3770 
Q 2525 4250 2034 4250 
z
M 2034 4750 
Q 2819 4750 3233 4129 
Q 3647 3509 3647 2328 
Q 3647 1150 3233 529 
Q 2819 -91 2034 -91 
Q 1250 -91 836 529 
Q 422 1150 422 2328 
Q 422 3509 836 4129 
Q 1250 4750 2034 4750 
z
" transform="scale(0.015625)"/>
       </defs>
       <use xlink:href="#DejaVuSans-2212"/>
       <use xlink:href="#DejaVuSans-31" x="83.789062"/>
       <use xlink:href="#DejaVuSans-2e" x="147.412109"/>
       <use xlink:href="#DejaVuSans-30" x="179.199219"/>
      </g>
     </g>
    </g>
    <g id="xtick_2">
     <g id="line2d_2">
      <g>
       <use xlink:href="#m50bc8e1664" x="74.005788" y="130.70448" style="stroke: #000000; stroke-width: 0.8"/>
      </g>
     </g>
     <g id="text_2">
      <!-- −0.5 -->
      <g transform="translate(59.4361 146.822605) scale(0.12 -0.12)">
       <defs>
        <path id="DejaVuSans-35" d="M 691 4666 
L 3169 4666 
L 3169 4134 
L 1269 4134 
L 1269 2991 
Q 1406 3038 1543 3061 
Q 1681 3084 1819 3084 
Q 2600 3084 3056 2656 
Q 3513 2228 3513 1497 
Q 3513 744 3044 326 
Q 2575 -91 1722 -91 
Q 1428 -91 1123 -41 
Q 819 9 494 109 
L 494 744 
Q 775 591 1075 516 
Q 1375 441 1709 441 
Q 2250 441 2565 725 
Q 2881 1009 2881 1497 
Q 2881 1984 2565 2268 
Q 2250 2553 1709 2553 
Q 1456 2553 1204 2497 
Q 953 2441 691 2322 
L 691 4666 
z
" transform="scale(0.015625)"/>
       </defs>
       <use xlink:href="#DejaVuSans-2212"/>
       <use xlink:href="#DejaVuSans-30" x="83.789062"/>
       <use xlink:href="#DejaVuSans-2e" x="147.412109"/>
       <use xlink:href="#DejaVuSans-35" x="179.199219"/>
      </g>
     </g>
    </g>
    <g id="xtick_3">
     <g id="line2d_3">
      <g>
       <use xlink:href="#m50bc8e1664" x="125.569562" y="130.70448" style="stroke: #000000; stroke-width: 0.8"/>
      </g>
     </g>
    </g>
    <g id="xtick_4">
     <g id="line2d_4">
      <g>
       <use xlink:href="#m50bc8e1664" x="177.133336" y="130.70448" style="stroke: #000000; stroke-width: 0.8"/>
      </g>
     </g>
     <g id="text_3">
      <!-- 0.5 -->
      <g transform="translate(167.591461 146.822605) scale(0.12 -0.12)">
       <use xlink:href="#DejaVuSans-30"/>
       <use xlink:href="#DejaVuSans-2e" x="63.623047"/>
       <use xlink:href="#DejaVuSans-35" x="95.410156"/>
      </g>
     </g>
    </g>
    <g id="xtick_5">
     <g id="line2d_5">
      <g>
       <use xlink:href="#m50bc8e1664" x="228.69711" y="130.70448" style="stroke: #000000; stroke-width: 0.8"/>
      </g>
     </g>
     <g id="text_4">
      <!-- 1.0 -->
      <g transform="translate(219.155235 146.822605) scale(0.12 -0.12)">
       <use xlink:href="#DejaVuSans-31"/>
       <use xlink:href="#DejaVuSans-2e" x="63.623047"/>
       <use xlink:href="#DejaVuSans-30" x="95.410156"/>
      </g>
     </g>
    </g>
    <g id="xtick_6">
     <g id="line2d_6">
      <g>
       <use xlink:href="#m50bc8e1664" x="280.260884" y="130.70448" style="stroke: #000000; stroke-width: 0.8"/>
      </g>
     </g>
     <g id="text_5">
      <!-- 1.5 -->
      <g transform="translate(270.719009 146.822605) scale(0.12 -0.12)">
       <use xlink:href="#DejaVuSans-31"/>
       <use xlink:href="#DejaVuSans-2e" x="63.623047"/>
       <use xlink:href="#DejaVuSans-35" x="95.410156"/>
      </g>
     </g>
    </g>
    <g id="xtick_7">
     <g id="line2d_7">
      <g>
       <use xlink:href="#m50bc8e1664" x="331.824659" y="130.70448" style="stroke: #000000; stroke-width: 0.8"/>
      </g>
     </g>
     <g id="text_6">
      <!-- 2.0 -->
      <g transform="translate(322.282784 146.822605) scale(0.12 -0.12)">
       <defs>
        <path id="DejaVuSans-32" d="M 1228 531 
L 3431 531 
L 3431 0 
L 469 0 
L 469 531 
Q 828 903 1448 1529 
Q 2069 2156 2228 2338 
Q 2531 2678 2651 2914 
Q 2772 3150 2772 3378 
Q 2772 3750 2511 3984 
Q 2250 4219 1831 4219 
Q 1534 4219 1204 4116 
Q 875 4013 500 3803 
L 500 4441 
Q 881 4594 1212 4672 
Q 1544 4750 1819 4750 
Q 2544 4750 2975 4387 
Q 3406 4025 3406 3419 
Q 3406 3131 3298 2873 
Q 3191 2616 2906 2266 
Q 2828 2175 2409 1742 
Q 1991 1309 1228 531 
z
" transform="scale(0.015625)"/>
       </defs>
       <use xlink:href="#DejaVuSans-32"/>
       <use xlink:href="#DejaVuSans-2e" x="63.623047"/>
       <use xlink:href="#DejaVuSans-30" x="95.410156"/>
      </g>
     </g>
    </g>
    <g id="xtick_8">
     <g id="line2d_8">
      <defs>
       <path id="mc18e3d674a" d="M 0 0 
L 0 2 
" style="stroke: #000000; stroke-width: 0.6"/>
      </defs>
      <g>
       <use xlink:href="#mc18e3d674a" x="12.129259" y="130.70448" style="stroke: #000000; stroke-width: 0.6"/>
      </g>
     </g>
    </g>
    <g id="xtick_9">
     <g id="line2d_9">
      <g>
       <use xlink:href="#mc18e3d674a" x="32.754768" y="130.70448" style="stroke: #000000; stroke-width: 0.6"/>
      </g>
     </g>
    </g>
    <g id="xtick_10">
     <g id="line2d_10">
      <g>
       <use xlink:href="#mc18e3d674a" x="43.067523" y="130.70448" style="stroke: #000000; stroke-width: 0.6"/>
      </g>
     </g>
    </g>
    <g id="xtick_11">
     <g id="line2d_11">
      <g>
       <use xlink:href="#mc18e3d674a" x="53.380278" y="130.70448" style="stroke: #000000; stroke-width: 0.6"/>
      </g>
     </g>
    </g>
    <g id="xtick_12">
     <g id="line2d_12">
      <g>
       <use xlink:href="#mc18e3d674a" x="63.693033" y="130.70448" style="stroke: #000000; stroke-width: 0.6"/>
      </g>
     </g>
    </g>
    <g id="xtick_13">
     <g id="line2d_13">
      <g>
       <use xlink:href="#mc18e3d674a" x="84.318542" y="130.70448" style="stroke: #000000; stroke-width: 0.6"/>
      </g>
     </g>
    </g>
    <g id="xtick_14">
     <g id="line2d_14">
      <g>
       <use xlink:href="#mc18e3d674a" x="94.631297" y="130.70448" style="stroke: #000000; stroke-width: 0.6"/>
      </g>
     </g>
    </g>
    <g id="xtick_15">
     <g id="line2d_15">
      <g>
       <use xlink:href="#mc18e3d674a" x="104.944052" y="130.70448" style="stroke: #000000; stroke-width: 0.6"/>
      </g>
     </g>
    </g>
    <g id="xtick_16">
     <g id="line2d_16">
      <g>
       <use xlink:href="#mc18e3d674a" x="115.256807" y="130.70448" style="stroke: #000000; stroke-width: 0.6"/>
      </g>
     </g>
    </g>
    <g id="xtick_17">
     <g id="line2d_17">
      <g>
       <use xlink:href="#mc18e3d674a" x="135.882317" y="130.70448" style="stroke: #000000; stroke-width: 0.6"/>
      </g>
     </g>
    </g>
    <g id="xtick_18">
     <g id="line2d_18">
      <g>
       <use xlink:href="#mc18e3d674a" x="146.195072" y="130.70448" style="stroke: #000000; stroke-width: 0.6"/>
      </g>
     </g>
    </g>
    <g id="xtick_19">
     <g id="line2d_19">
      <g>
       <use xlink:href="#mc18e3d674a" x="156.507826" y="130.70448" style="stroke: #000000; stroke-width: 0.6"/>
      </g>
     </g>
    </g>
    <g id="xtick_20">
     <g id="line2d_20">
      <g>
       <use xlink:href="#mc18e3d674a" x="166.820581" y="130.70448" style="stroke: #000000; stroke-width: 0.6"/>
      </g>
     </g>
    </g>
    <g id="xtick_21">
     <g id="line2d_21">
      <g>
       <use xlink:href="#mc18e3d674a" x="187.446091" y="130.70448" style="stroke: #000000; stroke-width: 0.6"/>
      </g>
     </g>
    </g>
    <g id="xtick_22">
     <g id="line2d_22">
      <g>
       <use xlink:href="#mc18e3d674a" x="197.758846" y="130.70448" style="stroke: #000000; stroke-width: 0.6"/>
      </g>
     </g>
    </g>
    <g id="xtick_23">
     <g id="line2d_23">
      <g>
       <use xlink:href="#mc18e3d674a" x="208.071601" y="130.70448" style="stroke: #000000; stroke-width: 0.6"/>
      </g>
     </g>
    </g>
    <g id="xtick_24">
     <g id="line2d_24">
      <g>
       <use xlink:href="#mc18e3d674a" x="218.384355" y="130.70448" style="stroke: #000000; stroke-width: 0.6"/>
      </g>
     </g>
    </g>
    <g id="xtick_25">
     <g id="line2d_25">
      <g>
       <use xlink:href="#mc18e3d674a" x="239.009865" y="130.70448" style="stroke: #000000; stroke-width: 0.6"/>
      </g>
     </g>
    </g>
    <g id="xtick_26">
     <g id="line2d_26">
      <g>
       <use xlink:href="#mc18e3d674a" x="249.32262" y="130.70448" style="stroke: #000000; stroke-width: 0.6"/>
      </g>
     </g>
    </g>
    <g id="xtick_27">
     <g id="line2d_27">
      <g>
       <use xlink:href="#mc18e3d674a" x="259.635375" y="130.70448" style="stroke: #000000; stroke-width: 0.6"/>
      </g>
     </g>
    </g>
    <g id="xtick_28">
     <g id="line2d_28">
      <g>
       <use xlink:href="#mc18e3d674a" x="269.94813" y="130.70448" style="stroke: #000000; stroke-width: 0.6"/>
      </g>
     </g>
    </g>
    <g id="xtick_29">
     <g id="line2d_29">
      <g>
       <use xlink:href="#mc18e3d674a" x="290.573639" y="130.70448" style="stroke: #000000; stroke-width: 0.6"/>
      </g>
     </g>
    </g>
    <g id="xtick_30">
     <g id="line2d_30">
      <g>
       <use xlink:href="#mc18e3d674a" x="300.886394" y="130.70448" style="stroke: #000000; stroke-width: 0.6"/>
      </g>
     </g>
    </g>
    <g id="xtick_31">
     <g id="line2d_31">
      <g>
       <use xlink:href="#mc18e3d674a" x="311.199149" y="130.70448" style="stroke: #000000; stroke-width: 0.6"/>
      </g>
     </g>
    </g>
    <g id="xtick_32">
     <g id="line2d_32">
      <g>
       <use xlink:href="#mc18e3d674a" x="321.511904" y="130.70448" style="stroke: #000000; stroke-width: 0.6"/>
      </g>
     </g>
    </g>
    <g id="xtick_33">
     <g id="line2d_33">
      <g>
       <use xlink:href="#mc18e3d674a" x="342.137413" y="130.70448" style="stroke: #000000; stroke-width: 0.6"/>
      </g>
     </g>
    </g>
    <g id="text_7">
     <!-- $x$ -->
     <g transform="translate(351.840569 130.70448) scale(0.19 -0.19)">
      <defs>
       <path id="Cmmi10-78" d="M 500 184 
Q 613 97 819 97 
Q 1019 97 1172 289 
Q 1325 481 1381 709 
L 1672 1844 
Q 1741 2153 1741 2266 
Q 1741 2425 1652 2544 
Q 1563 2663 1403 2663 
Q 1200 2663 1022 2536 
Q 844 2409 722 2214 
Q 600 2019 550 1819 
Q 538 1778 500 1778 
L 422 1778 
Q 372 1778 372 1838 
L 372 1856 
Q 434 2094 584 2320 
Q 734 2547 951 2687 
Q 1169 2828 1416 2828 
Q 1650 2828 1839 2703 
Q 2028 2578 2106 2363 
Q 2216 2559 2386 2693 
Q 2556 2828 2759 2828 
Q 2897 2828 3040 2779 
Q 3184 2731 3275 2631 
Q 3366 2531 3366 2381 
Q 3366 2219 3261 2101 
Q 3156 1984 2994 1984 
Q 2891 1984 2822 2050 
Q 2753 2116 2753 2216 
Q 2753 2350 2845 2451 
Q 2938 2553 3066 2572 
Q 2950 2663 2747 2663 
Q 2541 2663 2389 2472 
Q 2238 2281 2175 2047 
L 1894 916 
Q 1825 659 1825 494 
Q 1825 331 1917 214 
Q 2009 97 2163 97 
Q 2463 97 2698 361 
Q 2934 625 3009 941 
Q 3022 978 3059 978 
L 3138 978 
Q 3163 978 3178 961 
Q 3194 944 3194 922 
Q 3194 916 3188 903 
Q 3097 522 2806 225 
Q 2516 -72 2150 -72 
Q 1916 -72 1727 54 
Q 1538 181 1459 397 
Q 1359 209 1182 68 
Q 1006 -72 806 -72 
Q 669 -72 523 -23 
Q 378 25 287 125 
Q 197 225 197 378 
Q 197 528 301 651 
Q 406 775 563 775 
Q 669 775 741 711 
Q 813 647 813 544 
Q 813 409 723 309 
Q 634 209 500 184 
z
" transform="scale(0.015625)"/>
      </defs>
      <use xlink:href="#Cmmi10-78" transform="translate(0 0.8125)"/>
     </g>
    </g>
   </g>
   <g id="matplotlib.axis_2">
    <g id="ytick_1">
     <g id="line2d_34">
      <defs>
       <path id="ma3e584e5b7" d="M 0 0 
L -3.5 0 
" style="stroke: #000000; stroke-width: 0.8"/>
      </defs>
      <g>
       <use xlink:href="#ma3e584e5b7" x="125.569562" y="316.334067" style="stroke: #000000; stroke-width: 0.8"/>
      </g>
     </g>
     <g id="text_8">
      <!-- −6 -->
      <g transform="translate(100.878937 320.893129) scale(0.12 -0.12)">
       <defs>
        <path id="DejaVuSans-36" d="M 2113 2584 
Q 1688 2584 1439 2293 
Q 1191 2003 1191 1497 
Q 1191 994 1439 701 
Q 1688 409 2113 409 
Q 2538 409 2786 701 
Q 3034 994 3034 1497 
Q 3034 2003 2786 2293 
Q 2538 2584 2113 2584 
z
M 3366 4563 
L 3366 3988 
Q 3128 4100 2886 4159 
Q 2644 4219 2406 4219 
Q 1781 4219 1451 3797 
Q 1122 3375 1075 2522 
Q 1259 2794 1537 2939 
Q 1816 3084 2150 3084 
Q 2853 3084 3261 2657 
Q 3669 2231 3669 1497 
Q 3669 778 3244 343 
Q 2819 -91 2113 -91 
Q 1303 -91 875 529 
Q 447 1150 447 2328 
Q 447 3434 972 4092 
Q 1497 4750 2381 4750 
Q 2619 4750 2861 4703 
Q 3103 4656 3366 4563 
z
" transform="scale(0.015625)"/>
       </defs>
       <use xlink:href="#DejaVuSans-2212"/>
       <use xlink:href="#DejaVuSans-36" x="83.789062"/>
      </g>
     </g>
    </g>
    <g id="ytick_2">
     <g id="line2d_35">
      <g>
       <use xlink:href="#ma3e584e5b7" x="125.569562" y="254.457538" style="stroke: #000000; stroke-width: 0.8"/>
      </g>
     </g>
     <g id="text_9">
      <!-- −4 -->
      <g transform="translate(100.878937 259.0166) scale(0.12 -0.12)">
       <defs>
        <path id="DejaVuSans-34" d="M 2419 4116 
L 825 1625 
L 2419 1625 
L 2419 4116 
z
M 2253 4666 
L 3047 4666 
L 3047 1625 
L 3713 1625 
L 3713 1100 
L 3047 1100 
L 3047 0 
L 2419 0 
L 2419 1100 
L 313 1100 
L 313 1709 
L 2253 4666 
z
" transform="scale(0.015625)"/>
       </defs>
       <use xlink:href="#DejaVuSans-2212"/>
       <use xlink:href="#DejaVuSans-34" x="83.789062"/>
      </g>
     </g>
    </g>
    <g id="ytick_3">
     <g id="line2d_36">
      <g>
       <use xlink:href="#ma3e584e5b7" x="125.569562" y="192.581009" style="stroke: #000000; stroke-width: 0.8"/>
      </g>
     </g>
     <g id="text_10">
      <!-- −2 -->
      <g transform="translate(100.878937 197.140071) scale(0.12 -0.12)">
       <use xlink:href="#DejaVuSans-2212"/>
       <use xlink:href="#DejaVuSans-32" x="83.789062"/>
      </g>
     </g>
    </g>
    <g id="ytick_4">
     <g id="line2d_37">
      <g>
       <use xlink:href="#ma3e584e5b7" x="125.569562" y="130.70448" style="stroke: #000000; stroke-width: 0.8"/>
      </g>
     </g>
    </g>
    <g id="ytick_5">
     <g id="line2d_38">
      <g>
       <use xlink:href="#ma3e584e5b7" x="125.569562" y="68.827951" style="stroke: #000000; stroke-width: 0.8"/>
      </g>
     </g>
     <g id="text_11">
      <!-- 2 -->
      <g transform="translate(110.934562 73.387013) scale(0.12 -0.12)">
       <use xlink:href="#DejaVuSans-32"/>
      </g>
     </g>
    </g>
    <g id="ytick_6">
     <g id="line2d_39">
      <defs>
       <path id="md522ab70ac" d="M 0 0 
L -2 0 
" style="stroke: #000000; stroke-width: 0.6"/>
      </defs>
      <g>
       <use xlink:href="#md522ab70ac" x="125.569562" y="300.864935" style="stroke: #000000; stroke-width: 0.6"/>
      </g>
     </g>
    </g>
    <g id="ytick_7">
     <g id="line2d_40">
      <g>
       <use xlink:href="#md522ab70ac" x="125.569562" y="285.395802" style="stroke: #000000; stroke-width: 0.6"/>
      </g>
     </g>
    </g>
    <g id="ytick_8">
     <g id="line2d_41">
      <g>
       <use xlink:href="#md522ab70ac" x="125.569562" y="269.92667" style="stroke: #000000; stroke-width: 0.6"/>
      </g>
     </g>
    </g>
    <g id="ytick_9">
     <g id="line2d_42">
      <g>
       <use xlink:href="#md522ab70ac" x="125.569562" y="238.988406" style="stroke: #000000; stroke-width: 0.6"/>
      </g>
     </g>
    </g>
    <g id="ytick_10">
     <g id="line2d_43">
      <g>
       <use xlink:href="#md522ab70ac" x="125.569562" y="223.519273" style="stroke: #000000; stroke-width: 0.6"/>
      </g>
     </g>
    </g>
    <g id="ytick_11">
     <g id="line2d_44">
      <g>
       <use xlink:href="#md522ab70ac" x="125.569562" y="208.050141" style="stroke: #000000; stroke-width: 0.6"/>
      </g>
     </g>
    </g>
    <g id="ytick_12">
     <g id="line2d_45">
      <g>
       <use xlink:href="#md522ab70ac" x="125.569562" y="177.111877" style="stroke: #000000; stroke-width: 0.6"/>
      </g>
     </g>
    </g>
    <g id="ytick_13">
     <g id="line2d_46">
      <g>
       <use xlink:href="#md522ab70ac" x="125.569562" y="161.642744" style="stroke: #000000; stroke-width: 0.6"/>
      </g>
     </g>
    </g>
    <g id="ytick_14">
     <g id="line2d_47">
      <g>
       <use xlink:href="#md522ab70ac" x="125.569562" y="146.173612" style="stroke: #000000; stroke-width: 0.6"/>
      </g>
     </g>
    </g>
    <g id="ytick_15">
     <g id="line2d_48">
      <g>
       <use xlink:href="#md522ab70ac" x="125.569562" y="115.235348" style="stroke: #000000; stroke-width: 0.6"/>
      </g>
     </g>
    </g>
    <g id="ytick_16">
     <g id="line2d_49">
      <g>
       <use xlink:href="#md522ab70ac" x="125.569562" y="99.766215" style="stroke: #000000; stroke-width: 0.6"/>
      </g>
     </g>
    </g>
    <g id="ytick_17">
     <g id="line2d_50">
      <g>
       <use xlink:href="#md522ab70ac" x="125.569562" y="84.297083" style="stroke: #000000; stroke-width: 0.6"/>
      </g>
     </g>
    </g>
    <g id="ytick_18">
     <g id="line2d_51">
      <g>
       <use xlink:href="#md522ab70ac" x="125.569562" y="53.358819" style="stroke: #000000; stroke-width: 0.6"/>
      </g>
     </g>
    </g>
    <g id="ytick_19">
     <g id="line2d_52">
      <g>
       <use xlink:href="#md522ab70ac" x="125.569562" y="37.889686" style="stroke: #000000; stroke-width: 0.6"/>
      </g>
     </g>
    </g>
    <g id="text_12">
     <!-- $y$ -->
     <g transform="translate(120.819562 12.904219) scale(0.19 -0.19)">
      <defs>
       <path id="Cmmi10-79" d="M 538 -916 
Q 672 -1147 1006 -1147 
Q 1309 -1147 1531 -934 
Q 1753 -722 1889 -420 
Q 2025 -119 2100 197 
Q 1816 -72 1484 -72 
Q 1231 -72 1053 15 
Q 875 103 776 276 
Q 678 450 678 697 
Q 678 906 734 1126 
Q 791 1347 892 1617 
Q 994 1888 1069 2088 
Q 1153 2322 1153 2472 
Q 1153 2663 1013 2663 
Q 759 2663 595 2402 
Q 431 2141 353 1819 
Q 341 1778 300 1778 
L 225 1778 
Q 172 1778 172 1838 
L 172 1856 
Q 275 2238 487 2533 
Q 700 2828 1025 2828 
Q 1253 2828 1411 2678 
Q 1569 2528 1569 2297 
Q 1569 2178 1516 2047 
Q 1488 1969 1388 1706 
Q 1288 1444 1234 1272 
Q 1181 1100 1147 934 
Q 1113 769 1113 603 
Q 1113 391 1203 244 
Q 1294 97 1491 97 
Q 1888 97 2203 581 
L 2688 2553 
Q 2709 2638 2787 2698 
Q 2866 2759 2956 2759 
Q 3034 2759 3092 2709 
Q 3150 2659 3150 2578 
Q 3150 2541 3144 2528 
L 2509 -19 
Q 2425 -347 2200 -647 
Q 1975 -947 1658 -1130 
Q 1341 -1313 997 -1313 
Q 831 -1313 668 -1248 
Q 506 -1184 406 -1056 
Q 306 -928 306 -756 
Q 306 -581 409 -453 
Q 513 -325 684 -325 
Q 788 -325 858 -389 
Q 928 -453 928 -556 
Q 928 -703 818 -812 
Q 709 -922 563 -922 
Q 556 -919 550 -917 
Q 544 -916 538 -916 
z
" transform="scale(0.015625)"/>
      </defs>
      <use xlink:href="#Cmmi10-79" transform="translate(0 0.8125)"/>
     </g>
    </g>
   </g>
   <g id="line2d_53">
    <path d="M 331.824659 68.827951 
L 333.132581 76.768384 
L 334.26177 84.65221 
L 335.213563 92.474071 
L 335.98942 100.22873 
L 336.590918 107.911065 
L 337.019747 115.516078 
L 337.277707 123.038894 
L 337.366711 130.474764 
L 337.248504 139.456374 
L 336.883818 148.292425 
L 336.276792 156.97499 
L 335.431777 165.496443 
L 334.572744 172.299037 
L 333.562033 178.986566 
L 332.402273 185.555385 
L 331.096173 192.001985 
L 329.64652 198.322995 
L 328.056173 204.515182 
L 326.328065 210.575453 
L 324.465196 216.500854 
L 322.388849 222.515249 
L 320.173666 228.377822 
L 317.82323 234.085736 
L 315.341189 239.636319 
L 312.731249 245.027061 
L 309.997175 250.255619 
L 307.142785 255.319813 
L 304.171945 260.217626 
L 298.975794 268.001173 
L 293.485771 275.310488 
L 287.720471 282.139238 
L 281.698708 288.482313 
L 276.964373 292.973932 
L 272.101367 297.181739 
L 267.118099 301.104874 
L 262.022997 304.742863 
L 251.531042 311.163398 
L 240.692901 316.44703 
L 232.953026 319.467991 
L 225.099602 321.943582 
L 209.141487 325.284219 
L 169.054419 324.705718 
L 162.788045 323.524157 
L 147.785665 319.512572 
L 140.418098 316.923571 
L 133.159557 313.964378 
L 126.224142 310.748062 
L 119.417694 307.20987 
L 112.75223 303.364066 
L 106.239216 299.225263 
L 97.528035 293.064996 
L 89.154177 286.415985 
L 81.1423 279.319015 
L 73.514898 271.815485 
L 67.021857 264.778826 
L 60.867139 257.479433 
L 55.062426 249.947648 
L 49.617968 242.213761 
L 45.590379 236.001677 
L 41.795329 229.697606 
L 38.235965 223.316043 
L 34.914899 216.871338 
L 32.080673 210.918061 
L 29.449812 204.934397 
L 27.023169 198.930977 
L 24.801238 192.918262 
L 22.78416 186.906527 
L 20.97173 180.905849 
L 19.363402 174.926091 
L 17.9583 168.976892 
L 16.939973 164.040065 
L 16.061608 159.136438 
L 15.322186 154.271229 
L 14.29585 145.152025 
L 13.773688 136.688709 
L 13.679809 128.423317 
L 13.790153 124.372865 
L 14.318065 116.451643 
L 15.006111 110.46155 
L 15.929628 104.638541 
L 16.826334 100.139267 
L 17.863653 95.75599 
L 19.037843 91.492993 
L 20.345033 87.35431 
L 21.781226 83.343721 
L 23.34231 79.464755 
L 25.024067 75.720687 
L 26.822177 72.114536 
L 28.985204 68.214693 
L 32.050764 63.342551 
L 35.338604 58.796499 
L 38.833188 54.582499 
L 42.518728 50.705291 
L 47.059609 46.594659 
L 51.814846 42.955095 
L 56.758332 39.788092 
L 61.863936 37.093042 
L 67.495989 34.721953 
L 73.252922 32.886 
L 85.015803 30.784219 
L 100.57341 31.055049 
L 108.527229 32.451714 
L 116.336641 34.641944 
L 122.933613 37.137658 
L 129.338822 40.150307 
L 133.387895 42.369993 
L 137.332139 44.780646 
L 141.16317 47.370736 
L 144.873131 50.128523 
L 148.503705 53.083771 
L 151.995221 56.18663 
L 155.658892 59.746354 
L 159.139558 63.451807 
L 162.430305 67.286187 
L 165.52506 71.232733 
L 167.973848 74.628819 
L 170.277444 78.082707 
L 172.433604 81.584658 
L 174.440496 85.125058 
L 176.749441 89.615695 
L 178.818321 94.13372 
L 180.646156 98.661186 
L 182.23291 103.18068 
L 183.825511 108.59048 
L 184.784156 112.566159 
L 185.554461 116.495465 
L 186.13889 120.36785 
L 186.540396 124.173246 
L 186.792458 128.911664 
L 186.761028 133.507148 
L 186.455316 137.942512 
L 185.88553 142.202014 
L 184.87449 147.039255 
L 183.523101 151.583785 
L 181.571387 156.435855 
L 179.232074 160.85106 
L 177.717658 163.19668 
L 176.093598 165.387525 
L 172.546777 169.296994 
L 169.376048 172.027812 
L 164.639534 175.112398 
L 159.608335 177.372666 
L 153.958204 178.909881 
L 148.178846 179.553986 
L 143.260881 179.440742 
L 134.385022 177.802118 
L 129.720201 176.211439 
L 125.320733 174.234143 
L 121.134865 171.893816 
L 118.204336 169.964849 
L 115.419857 167.886515 
L 113.046969 165.905123 
L 110.80698 163.834139 
L 107.292065 160.118336 
L 104.20362 156.253567 
L 101.70957 152.559539 
L 99.605591 148.846813 
L 98.04242 145.523162 
L 97.057058 143.014264 
L 96.252379 140.552075 
L 95.624535 138.148883 
L 95.168827 135.815845 
L 94.827242 132.938932 
L 94.765568 129.575118 
L 95.079054 126.472229 
L 95.430135 124.761344 
L 95.913199 123.101054 
L 96.510502 121.553718 
L 97.244643 120.065385 
L 98.08445 118.702398 
L 100.677043 115.760031 
L 102.825713 114.162742 
L 105.710553 112.738423 
L 111.01571 111.52552 
L 114.136244 111.42309 
L 117.838859 111.76026 
L 119.208831 111.997301 
L 123.248535 113.019869 
L 125.82298 113.913785 
L 130.044743 115.792321 
L 132.248484 116.995627 
L 135.170938 118.882373 
L 137.767276 120.947082 
L 139.649636 122.826323 
L 141.272656 124.970521 
L 141.782009 125.850044 
L 142.383811 127.178785 
L 142.793419 128.527472 
L 143.005743 129.869838 
L 143.037569 130.995914 
L 142.937673 132.129188 
L 142.70531 133.269134 
L 142.028314 135.158953 
L 140.848257 137.236871 
L 139.844855 138.550919 
L 138.661252 139.817462 
L 137.338356 140.991726 
L 135.581864 142.270469 
L 133.341283 143.553521 
L 131.646048 144.314788 
L 127.98951 145.440021 
L 126.226542 145.752129 
L 124.217994 145.931762 
L 122.242796 145.923661 
L 117.525934 145.098759 
L 114.957443 144.079654 
L 112.696338 142.732862 
L 110.998651 141.334747 
L 109.918632 140.194506 
L 108.966654 138.948763 
L 108.228077 137.745241 
L 107.609126 136.472515 
L 107.035481 134.874964 
L 106.540423 132.44287 
L 106.441109 130.496371 
L 106.595355 128.523361 
L 107.136653 126.096182 
L 107.561244 124.87563 
L 108.393547 123.066606 
L 109.444872 121.333166 
L 110.870478 119.509505 
L 112.719703 117.684882 
L 115.409902 115.724308 
L 118.563822 114.146774 
L 121.531443 113.204867 
L 122.678374 112.963204 
L 125.445854 112.640704 
L 128.992228 112.751236 
L 132.11824 113.350915 
L 135.92354 114.803913 
L 137.915867 115.95373 
L 140.010999 117.54774 
L 141.347305 118.841448 
L 142.539105 120.253445 
L 143.44503 121.561136 
L 144.226841 122.937986 
L 145.032197 124.77216 
L 145.54833 126.406566 
L 145.89751 128.081486 
L 146.074865 129.754926 
L 146.0714 131.714726 
L 145.841965 133.667337 
L 145.31902 135.819659 
L 144.769588 137.335273 
L 144.080543 138.804269 
L 143.324656 140.10962 
L 142.458508 141.357641 
L 141.405958 142.631327 
L 140.238641 143.819637 
L 138.510693 145.261884 
L 136.806001 146.40293 
L 134.982025 147.378974 
L 132.245264 148.455023 
L 128.426087 149.304864 
L 125.93793 149.494538 
L 122.206203 149.263611 
L 120.948738 149.043878 
L 116.790538 147.759638 
L 115.547921 147.189193 
L 112.781744 145.536989 
L 110.783023 143.924579 
L 109.029724 142.092505 
L 107.500207 139.99121 
L 106.521559 138.217273 
L 105.857022 136.647387 
L 105.349861 135.030723 
L 104.913241 132.727799 
L 104.800379 131.219774 
L 104.82365 129.676895 
L 104.986701 128.141791 
L 105.54165 125.70594 
L 106.447525 123.360121 
L 107.339869 121.697522 
L 108.626932 119.841152 
L 110.34529 117.937559 
L 111.984218 116.514142 
L 113.785772 115.262615 
L 116.875612 113.684976 
L 119.227488 112.867142 
L 124.104972 112.036321 
L 128.51651 112.196399 
L 132.705893 113.16552 
L 134.359458 113.793264 
L 136.316112 114.745853 
L 138.148492 115.880928 
L 140.271715 117.571842 
L 141.29505 118.576633 
L 142.619531 120.134287 
L 143.755486 121.807399 
L 144.586751 123.355243 
L 145.339184 125.200299 
L 145.926803 127.365528 
L 146.223588 129.576968 
L 146.256024 131.132973 
L 146.144204 132.685326 
L 145.767994 134.748308 
L 145.269496 136.401885 
L 144.604265 138.00653 
L 143.743579 139.605805 
L 142.217164 141.759721 
L 140.737663 143.363912 
L 139.067966 144.808394 
L 137.311612 146.0244 
L 133.792882 147.772771 
L 131.584214 148.49827 
L 126.329521 149.279729 
L 122.606463 149.092881 
L 118.006128 147.985701 
L 115.728336 147.027014 
L 113.706566 145.896856 
L 112.299306 144.921362 
L 110.611077 143.490553 
L 109.111815 141.898876 
L 108.175195 140.685876 
L 106.932638 138.664849 
L 105.978509 136.521158 
L 105.501185 135.006613 
L 105.1682 133.461314 
L 105.003596 132.168079 
L 104.93997 130.560252 
L 105.03136 128.95365 
L 105.238381 127.556193 
L 105.562735 126.17699 
L 106.157745 124.42159 
L 107.509481 121.73493 
L 108.985351 119.667514 
L 110.642842 117.895799 
L 112.532762 116.323643 
L 114.47131 115.063228 
L 118.079019 113.416315 
L 122.166762 112.404848 
L 127.441601 112.228356 
L 128.717228 112.369384 
L 133.19862 113.469014 
L 136.836103 115.166984 
L 138.758536 116.444284 
L 140.503799 117.913111 
L 142.357068 119.932871 
L 143.779327 122.002031 
L 143.779327 122.002031 
" clip-path="url(#p1da70ebb42)" style="fill: none; stroke: #0000ff; stroke-linecap: square"/>
   </g>
   <g id="patch_3">
    <path d="M 125.569562 331.174219 
L 125.569562 24.894219 
" style="fill: none; stroke: #000000; stroke-width: 0.8; stroke-linejoin: miter; stroke-linecap: square"/>
   </g>
   <g id="patch_4">
    <path d="M 7.2 130.70448 
L 343.840569 130.70448 
" style="fill: none; stroke: #000000; stroke-width: 0.8; stroke-linejoin: miter; stroke-linecap: square"/>
   </g>
  </g>
 </g>
 <defs>
  <clipPath id="p1da70ebb42">
   <rect x="7.2" y="24.894219" width="336.640569" height="306.28"/>
  </clipPath>
 </defs>
</svg>
