<?xml version="1.0" encoding="utf-8" standalone="no"?>
<!DOCTYPE svg PUBLIC "-//W3C//DTD SVG 1.1//EN"
  "http://www.w3.org/Graphics/SVG/1.1/DTD/svg11.dtd">
<svg xmlns:xlink="http://www.w3.org/1999/xlink" width="452.606487pt" height="338.4pt" viewBox="0 0 452.606487 338.4" xmlns="http://www.w3.org/2000/svg" version="1.1">
 <metadata>
  <rdf:RDF xmlns:dc="http://purl.org/dc/elements/1.1/" xmlns:cc="http://creativecommons.org/ns#" xmlns:rdf="http://www.w3.org/1999/02/22-rdf-syntax-ns#">
   <cc:Work>
    <dc:type rdf:resource="http://purl.org/dc/dcmitype/StillImage"/>
    <dc:date>2025-02-04T09:35:01.760730</dc:date>
    <dc:format>image/svg+xml</dc:format>
    <dc:creator>
     <cc:Agent>
      <dc:title>Matplotlib v3.6.2, https://matplotlib.org/</dc:title>
     </cc:Agent>
    </dc:creator>
   </cc:Work>
  </rdf:RDF>
 </metadata>
 <defs>
  <style type="text/css">*{stroke-linejoin: round; stroke-linecap: butt}</style>
 </defs>
 <g id="figure_1">
  <g id="patch_1">
   <path d="M 0 338.4 
L 452.606487 338.4 
L 452.606487 0 
L 0 0 
z
" style="fill: #ffffff"/>
  </g>
  <g id="axes_1">
   <g id="patch_2">
    <path d="M 35.691294 331.2 
L 433.391487 331.2 
L 433.391487 7.2 
L 35.691294 7.2 
z
" style="fill: #ffffff"/>
   </g>
   <g id="matplotlib.axis_1">
    <g id="xtick_1">
     <g id="line2d_1">
      <defs>
       <path id="m7b6e2e7fbb" d="M 0 0 
L 0 3.5 
" style="stroke: #000000; stroke-width: 0.8"/>
      </defs>
      <g>
       <use xlink:href="#m7b6e2e7fbb" x="43.339375" y="207.124895" style="stroke: #000000; stroke-width: 0.8"/>
      </g>
     </g>
    </g>
    <g id="xtick_2">
     <g id="line2d_2">
      <g>
       <use xlink:href="#m7b6e2e7fbb" x="119.820181" y="207.124895" style="stroke: #000000; stroke-width: 0.8"/>
      </g>
     </g>
     <g id="text_1">
      <!-- 2 -->
      <g transform="translate(116.002681 223.24302) scale(0.12 -0.12)">
       <defs>
        <path id="DejaVuSans-32" d="M 1228 531 
L 3431 531 
L 3431 0 
L 469 0 
L 469 531 
Q 828 903 1448 1529 
Q 2069 2156 2228 2338 
Q 2531 2678 2651 2914 
Q 2772 3150 2772 3378 
Q 2772 3750 2511 3984 
Q 2250 4219 1831 4219 
Q 1534 4219 1204 4116 
Q 875 4013 500 3803 
L 500 4441 
Q 881 4594 1212 4672 
Q 1544 4750 1819 4750 
Q 2544 4750 2975 4387 
Q 3406 4025 3406 3419 
Q 3406 3131 3298 2873 
Q 3191 2616 2906 2266 
Q 2828 2175 2409 1742 
Q 1991 1309 1228 531 
z
" transform="scale(0.015625)"/>
       </defs>
       <use xlink:href="#DejaVuSans-32"/>
      </g>
     </g>
    </g>
    <g id="xtick_3">
     <g id="line2d_3">
      <g>
       <use xlink:href="#m7b6e2e7fbb" x="196.300987" y="207.124895" style="stroke: #000000; stroke-width: 0.8"/>
      </g>
     </g>
     <g id="text_2">
      <!-- 4 -->
      <g transform="translate(192.483487 223.24302) scale(0.12 -0.12)">
       <defs>
        <path id="DejaVuSans-34" d="M 2419 4116 
L 825 1625 
L 2419 1625 
L 2419 4116 
z
M 2253 4666 
L 3047 4666 
L 3047 1625 
L 3713 1625 
L 3713 1100 
L 3047 1100 
L 3047 0 
L 2419 0 
L 2419 1100 
L 313 1100 
L 313 1709 
L 2253 4666 
z
" transform="scale(0.015625)"/>
       </defs>
       <use xlink:href="#DejaVuSans-34"/>
      </g>
     </g>
    </g>
    <g id="xtick_4">
     <g id="line2d_4">
      <g>
       <use xlink:href="#m7b6e2e7fbb" x="272.781794" y="207.124895" style="stroke: #000000; stroke-width: 0.8"/>
      </g>
     </g>
     <g id="text_3">
      <!-- 6 -->
      <g transform="translate(268.964294 223.24302) scale(0.12 -0.12)">
       <defs>
        <path id="DejaVuSans-36" d="M 2113 2584 
Q 1688 2584 1439 2293 
Q 1191 2003 1191 1497 
Q 1191 994 1439 701 
Q 1688 409 2113 409 
Q 2538 409 2786 701 
Q 3034 994 3034 1497 
Q 3034 2003 2786 2293 
Q 2538 2584 2113 2584 
z
M 3366 4563 
L 3366 3988 
Q 3128 4100 2886 4159 
Q 2644 4219 2406 4219 
Q 1781 4219 1451 3797 
Q 1122 3375 1075 2522 
Q 1259 2794 1537 2939 
Q 1816 3084 2150 3084 
Q 2853 3084 3261 2657 
Q 3669 2231 3669 1497 
Q 3669 778 3244 343 
Q 2819 -91 2113 -91 
Q 1303 -91 875 529 
Q 447 1150 447 2328 
Q 447 3434 972 4092 
Q 1497 4750 2381 4750 
Q 2619 4750 2861 4703 
Q 3103 4656 3366 4563 
z
" transform="scale(0.015625)"/>
       </defs>
       <use xlink:href="#DejaVuSans-36"/>
      </g>
     </g>
    </g>
    <g id="xtick_5">
     <g id="line2d_5">
      <g>
       <use xlink:href="#m7b6e2e7fbb" x="349.2626" y="207.124895" style="stroke: #000000; stroke-width: 0.8"/>
      </g>
     </g>
     <g id="text_4">
      <!-- 8 -->
      <g transform="translate(345.4451 223.24302) scale(0.12 -0.12)">
       <defs>
        <path id="DejaVuSans-38" d="M 2034 2216 
Q 1584 2216 1326 1975 
Q 1069 1734 1069 1313 
Q 1069 891 1326 650 
Q 1584 409 2034 409 
Q 2484 409 2743 651 
Q 3003 894 3003 1313 
Q 3003 1734 2745 1975 
Q 2488 2216 2034 2216 
z
M 1403 2484 
Q 997 2584 770 2862 
Q 544 3141 544 3541 
Q 544 4100 942 4425 
Q 1341 4750 2034 4750 
Q 2731 4750 3128 4425 
Q 3525 4100 3525 3541 
Q 3525 3141 3298 2862 
Q 3072 2584 2669 2484 
Q 3125 2378 3379 2068 
Q 3634 1759 3634 1313 
Q 3634 634 3220 271 
Q 2806 -91 2034 -91 
Q 1263 -91 848 271 
Q 434 634 434 1313 
Q 434 1759 690 2068 
Q 947 2378 1403 2484 
z
M 1172 3481 
Q 1172 3119 1398 2916 
Q 1625 2713 2034 2713 
Q 2441 2713 2670 2916 
Q 2900 3119 2900 3481 
Q 2900 3844 2670 4047 
Q 2441 4250 2034 4250 
Q 1625 4250 1398 4047 
Q 1172 3844 1172 3481 
z
" transform="scale(0.015625)"/>
       </defs>
       <use xlink:href="#DejaVuSans-38"/>
      </g>
     </g>
    </g>
    <g id="xtick_6">
     <g id="line2d_6">
      <g>
       <use xlink:href="#m7b6e2e7fbb" x="425.743406" y="207.124895" style="stroke: #000000; stroke-width: 0.8"/>
      </g>
     </g>
     <g id="text_5">
      <!-- 10 -->
      <g transform="translate(418.108406 223.24302) scale(0.12 -0.12)">
       <defs>
        <path id="DejaVuSans-31" d="M 794 531 
L 1825 531 
L 1825 4091 
L 703 3866 
L 703 4441 
L 1819 4666 
L 2450 4666 
L 2450 531 
L 3481 531 
L 3481 0 
L 794 0 
L 794 531 
z
" transform="scale(0.015625)"/>
        <path id="DejaVuSans-30" d="M 2034 4250 
Q 1547 4250 1301 3770 
Q 1056 3291 1056 2328 
Q 1056 1369 1301 889 
Q 1547 409 2034 409 
Q 2525 409 2770 889 
Q 3016 1369 3016 2328 
Q 3016 3291 2770 3770 
Q 2525 4250 2034 4250 
z
M 2034 4750 
Q 2819 4750 3233 4129 
Q 3647 3509 3647 2328 
Q 3647 1150 3233 529 
Q 2819 -91 2034 -91 
Q 1250 -91 836 529 
Q 422 1150 422 2328 
Q 422 3509 836 4129 
Q 1250 4750 2034 4750 
z
" transform="scale(0.015625)"/>
       </defs>
       <use xlink:href="#DejaVuSans-31"/>
       <use xlink:href="#DejaVuSans-30" x="63.623047"/>
      </g>
     </g>
    </g>
    <g id="xtick_7">
     <g id="line2d_7">
      <defs>
       <path id="m4ccfd681a9" d="M 0 0 
L 0 2 
" style="stroke: #000000; stroke-width: 0.6"/>
      </defs>
      <g>
       <use xlink:href="#m4ccfd681a9" x="62.459577" y="207.124895" style="stroke: #000000; stroke-width: 0.6"/>
      </g>
     </g>
    </g>
    <g id="xtick_8">
     <g id="line2d_8">
      <g>
       <use xlink:href="#m4ccfd681a9" x="81.579778" y="207.124895" style="stroke: #000000; stroke-width: 0.6"/>
      </g>
     </g>
    </g>
    <g id="xtick_9">
     <g id="line2d_9">
      <g>
       <use xlink:href="#m4ccfd681a9" x="100.69998" y="207.124895" style="stroke: #000000; stroke-width: 0.6"/>
      </g>
     </g>
    </g>
    <g id="xtick_10">
     <g id="line2d_10">
      <g>
       <use xlink:href="#m4ccfd681a9" x="138.940383" y="207.124895" style="stroke: #000000; stroke-width: 0.6"/>
      </g>
     </g>
    </g>
    <g id="xtick_11">
     <g id="line2d_11">
      <g>
       <use xlink:href="#m4ccfd681a9" x="158.060584" y="207.124895" style="stroke: #000000; stroke-width: 0.6"/>
      </g>
     </g>
    </g>
    <g id="xtick_12">
     <g id="line2d_12">
      <g>
       <use xlink:href="#m4ccfd681a9" x="177.180786" y="207.124895" style="stroke: #000000; stroke-width: 0.6"/>
      </g>
     </g>
    </g>
    <g id="xtick_13">
     <g id="line2d_13">
      <g>
       <use xlink:href="#m4ccfd681a9" x="215.421189" y="207.124895" style="stroke: #000000; stroke-width: 0.6"/>
      </g>
     </g>
    </g>
    <g id="xtick_14">
     <g id="line2d_14">
      <g>
       <use xlink:href="#m4ccfd681a9" x="234.541391" y="207.124895" style="stroke: #000000; stroke-width: 0.6"/>
      </g>
     </g>
    </g>
    <g id="xtick_15">
     <g id="line2d_15">
      <g>
       <use xlink:href="#m4ccfd681a9" x="253.661592" y="207.124895" style="stroke: #000000; stroke-width: 0.6"/>
      </g>
     </g>
    </g>
    <g id="xtick_16">
     <g id="line2d_16">
      <g>
       <use xlink:href="#m4ccfd681a9" x="291.901995" y="207.124895" style="stroke: #000000; stroke-width: 0.6"/>
      </g>
     </g>
    </g>
    <g id="xtick_17">
     <g id="line2d_17">
      <g>
       <use xlink:href="#m4ccfd681a9" x="311.022197" y="207.124895" style="stroke: #000000; stroke-width: 0.6"/>
      </g>
     </g>
    </g>
    <g id="xtick_18">
     <g id="line2d_18">
      <g>
       <use xlink:href="#m4ccfd681a9" x="330.142398" y="207.124895" style="stroke: #000000; stroke-width: 0.6"/>
      </g>
     </g>
    </g>
    <g id="xtick_19">
     <g id="line2d_19">
      <g>
       <use xlink:href="#m4ccfd681a9" x="368.382801" y="207.124895" style="stroke: #000000; stroke-width: 0.6"/>
      </g>
     </g>
    </g>
    <g id="xtick_20">
     <g id="line2d_20">
      <g>
       <use xlink:href="#m4ccfd681a9" x="387.503003" y="207.124895" style="stroke: #000000; stroke-width: 0.6"/>
      </g>
     </g>
    </g>
    <g id="xtick_21">
     <g id="line2d_21">
      <g>
       <use xlink:href="#m4ccfd681a9" x="406.623205" y="207.124895" style="stroke: #000000; stroke-width: 0.6"/>
      </g>
     </g>
    </g>
    <g id="text_6">
     <!-- $t$ -->
     <g transform="translate(441.391487 207.124895) scale(0.19 -0.19)">
      <defs>
       <path id="Cmmi10-74" d="M 397 519 
Q 397 613 416 697 
L 878 2534 
L 206 2534 
Q 141 2534 141 2619 
Q 166 2759 225 2759 
L 934 2759 
L 1191 3803 
Q 1216 3888 1291 3947 
Q 1366 4006 1459 4006 
Q 1541 4006 1595 3957 
Q 1650 3909 1650 3828 
Q 1650 3809 1648 3798 
Q 1647 3788 1644 3775 
L 1388 2759 
L 2047 2759 
Q 2113 2759 2113 2675 
Q 2109 2659 2100 2621 
Q 2091 2584 2075 2559 
Q 2059 2534 2028 2534 
L 1331 2534 
L 872 684 
Q 825 503 825 372 
Q 825 97 1013 97 
Q 1294 97 1511 361 
Q 1728 625 1844 941 
Q 1869 978 1894 978 
L 1972 978 
Q 1997 978 2012 961 
Q 2028 944 2028 922 
Q 2028 909 2022 903 
Q 1881 516 1612 222 
Q 1344 -72 997 -72 
Q 744 -72 570 93 
Q 397 259 397 519 
z
" transform="scale(0.015625)"/>
      </defs>
      <use xlink:href="#Cmmi10-74" transform="translate(0 0.40625)"/>
     </g>
    </g>
   </g>
   <g id="matplotlib.axis_2">
    <g id="ytick_1">
     <g id="line2d_22">
      <defs>
       <path id="ma1ce0ac68f" d="M 0 0 
L -3.5 0 
" style="stroke: #000000; stroke-width: 0.8"/>
      </defs>
      <g>
       <use xlink:href="#ma1ce0ac68f" x="43.339375" y="315.51461" style="stroke: #000000; stroke-width: 0.8"/>
      </g>
     </g>
     <g id="text_7">
      <!-- −1.5 -->
      <g transform="translate(7.2 320.073672) scale(0.12 -0.12)">
       <defs>
        <path id="DejaVuSans-2212" d="M 678 2272 
L 4684 2272 
L 4684 1741 
L 678 1741 
L 678 2272 
z
" transform="scale(0.015625)"/>
        <path id="DejaVuSans-2e" d="M 684 794 
L 1344 794 
L 1344 0 
L 684 0 
L 684 794 
z
" transform="scale(0.015625)"/>
        <path id="DejaVuSans-35" d="M 691 4666 
L 3169 4666 
L 3169 4134 
L 1269 4134 
L 1269 2991 
Q 1406 3038 1543 3061 
Q 1681 3084 1819 3084 
Q 2600 3084 3056 2656 
Q 3513 2228 3513 1497 
Q 3513 744 3044 326 
Q 2575 -91 1722 -91 
Q 1428 -91 1123 -41 
Q 819 9 494 109 
L 494 744 
Q 775 591 1075 516 
Q 1375 441 1709 441 
Q 2250 441 2565 725 
Q 2881 1009 2881 1497 
Q 2881 1984 2565 2268 
Q 2250 2553 1709 2553 
Q 1456 2553 1204 2497 
Q 953 2441 691 2322 
L 691 4666 
z
" transform="scale(0.015625)"/>
       </defs>
       <use xlink:href="#DejaVuSans-2212"/>
       <use xlink:href="#DejaVuSans-31" x="83.789062"/>
       <use xlink:href="#DejaVuSans-2e" x="147.412109"/>
       <use xlink:href="#DejaVuSans-35" x="179.199219"/>
      </g>
     </g>
    </g>
    <g id="ytick_2">
     <g id="line2d_23">
      <g>
       <use xlink:href="#ma1ce0ac68f" x="43.339375" y="279.384705" style="stroke: #000000; stroke-width: 0.8"/>
      </g>
     </g>
     <g id="text_8">
      <!-- −1.0 -->
      <g transform="translate(7.2 283.943767) scale(0.12 -0.12)">
       <use xlink:href="#DejaVuSans-2212"/>
       <use xlink:href="#DejaVuSans-31" x="83.789062"/>
       <use xlink:href="#DejaVuSans-2e" x="147.412109"/>
       <use xlink:href="#DejaVuSans-30" x="179.199219"/>
      </g>
     </g>
    </g>
    <g id="ytick_3">
     <g id="line2d_24">
      <g>
       <use xlink:href="#ma1ce0ac68f" x="43.339375" y="243.2548" style="stroke: #000000; stroke-width: 0.8"/>
      </g>
     </g>
     <g id="text_9">
      <!-- −0.5 -->
      <g transform="translate(7.2 247.813862) scale(0.12 -0.12)">
       <use xlink:href="#DejaVuSans-2212"/>
       <use xlink:href="#DejaVuSans-30" x="83.789062"/>
       <use xlink:href="#DejaVuSans-2e" x="147.412109"/>
       <use xlink:href="#DejaVuSans-35" x="179.199219"/>
      </g>
     </g>
    </g>
    <g id="ytick_4">
     <g id="line2d_25">
      <g>
       <use xlink:href="#ma1ce0ac68f" x="43.339375" y="207.124895" style="stroke: #000000; stroke-width: 0.8"/>
      </g>
     </g>
    </g>
    <g id="ytick_5">
     <g id="line2d_26">
      <g>
       <use xlink:href="#ma1ce0ac68f" x="43.339375" y="170.99499" style="stroke: #000000; stroke-width: 0.8"/>
      </g>
     </g>
     <g id="text_10">
      <!-- 0.5 -->
      <g transform="translate(17.255625 175.554053) scale(0.12 -0.12)">
       <use xlink:href="#DejaVuSans-30"/>
       <use xlink:href="#DejaVuSans-2e" x="63.623047"/>
       <use xlink:href="#DejaVuSans-35" x="95.410156"/>
      </g>
     </g>
    </g>
    <g id="ytick_6">
     <g id="line2d_27">
      <g>
       <use xlink:href="#ma1ce0ac68f" x="43.339375" y="134.865085" style="stroke: #000000; stroke-width: 0.8"/>
      </g>
     </g>
     <g id="text_11">
      <!-- 1.0 -->
      <g transform="translate(17.255625 139.424148) scale(0.12 -0.12)">
       <use xlink:href="#DejaVuSans-31"/>
       <use xlink:href="#DejaVuSans-2e" x="63.623047"/>
       <use xlink:href="#DejaVuSans-30" x="95.410156"/>
      </g>
     </g>
    </g>
    <g id="ytick_7">
     <g id="line2d_28">
      <g>
       <use xlink:href="#ma1ce0ac68f" x="43.339375" y="98.73518" style="stroke: #000000; stroke-width: 0.8"/>
      </g>
     </g>
     <g id="text_12">
      <!-- 1.5 -->
      <g transform="translate(17.255625 103.294243) scale(0.12 -0.12)">
       <use xlink:href="#DejaVuSans-31"/>
       <use xlink:href="#DejaVuSans-2e" x="63.623047"/>
       <use xlink:href="#DejaVuSans-35" x="95.410156"/>
      </g>
     </g>
    </g>
    <g id="ytick_8">
     <g id="line2d_29">
      <g>
       <use xlink:href="#ma1ce0ac68f" x="43.339375" y="62.605275" style="stroke: #000000; stroke-width: 0.8"/>
      </g>
     </g>
     <g id="text_13">
      <!-- 2.0 -->
      <g transform="translate(17.255625 67.164338) scale(0.12 -0.12)">
       <use xlink:href="#DejaVuSans-32"/>
       <use xlink:href="#DejaVuSans-2e" x="63.623047"/>
       <use xlink:href="#DejaVuSans-30" x="95.410156"/>
      </g>
     </g>
    </g>
    <g id="ytick_9">
     <g id="line2d_30">
      <g>
       <use xlink:href="#ma1ce0ac68f" x="43.339375" y="26.47537" style="stroke: #000000; stroke-width: 0.8"/>
      </g>
     </g>
     <g id="text_14">
      <!-- 2.5 -->
      <g transform="translate(17.255625 31.034433) scale(0.12 -0.12)">
       <use xlink:href="#DejaVuSans-32"/>
       <use xlink:href="#DejaVuSans-2e" x="63.623047"/>
       <use xlink:href="#DejaVuSans-35" x="95.410156"/>
      </g>
     </g>
    </g>
    <g id="ytick_10">
     <g id="line2d_31">
      <defs>
       <path id="m67cfd50c93" d="M 0 0 
L -2 0 
" style="stroke: #000000; stroke-width: 0.6"/>
      </defs>
      <g>
       <use xlink:href="#m67cfd50c93" x="43.339375" y="329.966572" style="stroke: #000000; stroke-width: 0.6"/>
      </g>
     </g>
    </g>
    <g id="ytick_11">
     <g id="line2d_32">
      <g>
       <use xlink:href="#m67cfd50c93" x="43.339375" y="322.740591" style="stroke: #000000; stroke-width: 0.6"/>
      </g>
     </g>
    </g>
    <g id="ytick_12">
     <g id="line2d_33">
      <g>
       <use xlink:href="#m67cfd50c93" x="43.339375" y="308.288629" style="stroke: #000000; stroke-width: 0.6"/>
      </g>
     </g>
    </g>
    <g id="ytick_13">
     <g id="line2d_34">
      <g>
       <use xlink:href="#m67cfd50c93" x="43.339375" y="301.062648" style="stroke: #000000; stroke-width: 0.6"/>
      </g>
     </g>
    </g>
    <g id="ytick_14">
     <g id="line2d_35">
      <g>
       <use xlink:href="#m67cfd50c93" x="43.339375" y="293.836667" style="stroke: #000000; stroke-width: 0.6"/>
      </g>
     </g>
    </g>
    <g id="ytick_15">
     <g id="line2d_36">
      <g>
       <use xlink:href="#m67cfd50c93" x="43.339375" y="286.610686" style="stroke: #000000; stroke-width: 0.6"/>
      </g>
     </g>
    </g>
    <g id="ytick_16">
     <g id="line2d_37">
      <g>
       <use xlink:href="#m67cfd50c93" x="43.339375" y="272.158724" style="stroke: #000000; stroke-width: 0.6"/>
      </g>
     </g>
    </g>
    <g id="ytick_17">
     <g id="line2d_38">
      <g>
       <use xlink:href="#m67cfd50c93" x="43.339375" y="264.932743" style="stroke: #000000; stroke-width: 0.6"/>
      </g>
     </g>
    </g>
    <g id="ytick_18">
     <g id="line2d_39">
      <g>
       <use xlink:href="#m67cfd50c93" x="43.339375" y="257.706762" style="stroke: #000000; stroke-width: 0.6"/>
      </g>
     </g>
    </g>
    <g id="ytick_19">
     <g id="line2d_40">
      <g>
       <use xlink:href="#m67cfd50c93" x="43.339375" y="250.480781" style="stroke: #000000; stroke-width: 0.6"/>
      </g>
     </g>
    </g>
    <g id="ytick_20">
     <g id="line2d_41">
      <g>
       <use xlink:href="#m67cfd50c93" x="43.339375" y="236.028819" style="stroke: #000000; stroke-width: 0.6"/>
      </g>
     </g>
    </g>
    <g id="ytick_21">
     <g id="line2d_42">
      <g>
       <use xlink:href="#m67cfd50c93" x="43.339375" y="228.802838" style="stroke: #000000; stroke-width: 0.6"/>
      </g>
     </g>
    </g>
    <g id="ytick_22">
     <g id="line2d_43">
      <g>
       <use xlink:href="#m67cfd50c93" x="43.339375" y="221.576857" style="stroke: #000000; stroke-width: 0.6"/>
      </g>
     </g>
    </g>
    <g id="ytick_23">
     <g id="line2d_44">
      <g>
       <use xlink:href="#m67cfd50c93" x="43.339375" y="214.350876" style="stroke: #000000; stroke-width: 0.6"/>
      </g>
     </g>
    </g>
    <g id="ytick_24">
     <g id="line2d_45">
      <g>
       <use xlink:href="#m67cfd50c93" x="43.339375" y="199.898914" style="stroke: #000000; stroke-width: 0.6"/>
      </g>
     </g>
    </g>
    <g id="ytick_25">
     <g id="line2d_46">
      <g>
       <use xlink:href="#m67cfd50c93" x="43.339375" y="192.672933" style="stroke: #000000; stroke-width: 0.6"/>
      </g>
     </g>
    </g>
    <g id="ytick_26">
     <g id="line2d_47">
      <g>
       <use xlink:href="#m67cfd50c93" x="43.339375" y="185.446952" style="stroke: #000000; stroke-width: 0.6"/>
      </g>
     </g>
    </g>
    <g id="ytick_27">
     <g id="line2d_48">
      <g>
       <use xlink:href="#m67cfd50c93" x="43.339375" y="178.220971" style="stroke: #000000; stroke-width: 0.6"/>
      </g>
     </g>
    </g>
    <g id="ytick_28">
     <g id="line2d_49">
      <g>
       <use xlink:href="#m67cfd50c93" x="43.339375" y="163.769009" style="stroke: #000000; stroke-width: 0.6"/>
      </g>
     </g>
    </g>
    <g id="ytick_29">
     <g id="line2d_50">
      <g>
       <use xlink:href="#m67cfd50c93" x="43.339375" y="156.543028" style="stroke: #000000; stroke-width: 0.6"/>
      </g>
     </g>
    </g>
    <g id="ytick_30">
     <g id="line2d_51">
      <g>
       <use xlink:href="#m67cfd50c93" x="43.339375" y="149.317047" style="stroke: #000000; stroke-width: 0.6"/>
      </g>
     </g>
    </g>
    <g id="ytick_31">
     <g id="line2d_52">
      <g>
       <use xlink:href="#m67cfd50c93" x="43.339375" y="142.091066" style="stroke: #000000; stroke-width: 0.6"/>
      </g>
     </g>
    </g>
    <g id="ytick_32">
     <g id="line2d_53">
      <g>
       <use xlink:href="#m67cfd50c93" x="43.339375" y="127.639104" style="stroke: #000000; stroke-width: 0.6"/>
      </g>
     </g>
    </g>
    <g id="ytick_33">
     <g id="line2d_54">
      <g>
       <use xlink:href="#m67cfd50c93" x="43.339375" y="120.413123" style="stroke: #000000; stroke-width: 0.6"/>
      </g>
     </g>
    </g>
    <g id="ytick_34">
     <g id="line2d_55">
      <g>
       <use xlink:href="#m67cfd50c93" x="43.339375" y="113.187142" style="stroke: #000000; stroke-width: 0.6"/>
      </g>
     </g>
    </g>
    <g id="ytick_35">
     <g id="line2d_56">
      <g>
       <use xlink:href="#m67cfd50c93" x="43.339375" y="105.961161" style="stroke: #000000; stroke-width: 0.6"/>
      </g>
     </g>
    </g>
    <g id="ytick_36">
     <g id="line2d_57">
      <g>
       <use xlink:href="#m67cfd50c93" x="43.339375" y="91.509199" style="stroke: #000000; stroke-width: 0.6"/>
      </g>
     </g>
    </g>
    <g id="ytick_37">
     <g id="line2d_58">
      <g>
       <use xlink:href="#m67cfd50c93" x="43.339375" y="84.283218" style="stroke: #000000; stroke-width: 0.6"/>
      </g>
     </g>
    </g>
    <g id="ytick_38">
     <g id="line2d_59">
      <g>
       <use xlink:href="#m67cfd50c93" x="43.339375" y="77.057237" style="stroke: #000000; stroke-width: 0.6"/>
      </g>
     </g>
    </g>
    <g id="ytick_39">
     <g id="line2d_60">
      <g>
       <use xlink:href="#m67cfd50c93" x="43.339375" y="69.831256" style="stroke: #000000; stroke-width: 0.6"/>
      </g>
     </g>
    </g>
    <g id="ytick_40">
     <g id="line2d_61">
      <g>
       <use xlink:href="#m67cfd50c93" x="43.339375" y="55.379294" style="stroke: #000000; stroke-width: 0.6"/>
      </g>
     </g>
    </g>
    <g id="ytick_41">
     <g id="line2d_62">
      <g>
       <use xlink:href="#m67cfd50c93" x="43.339375" y="48.153313" style="stroke: #000000; stroke-width: 0.6"/>
      </g>
     </g>
    </g>
    <g id="ytick_42">
     <g id="line2d_63">
      <g>
       <use xlink:href="#m67cfd50c93" x="43.339375" y="40.927332" style="stroke: #000000; stroke-width: 0.6"/>
      </g>
     </g>
    </g>
    <g id="ytick_43">
     <g id="line2d_64">
      <g>
       <use xlink:href="#m67cfd50c93" x="43.339375" y="33.701351" style="stroke: #000000; stroke-width: 0.6"/>
      </g>
     </g>
    </g>
    <g id="ytick_44">
     <g id="line2d_65">
      <g>
       <use xlink:href="#m67cfd50c93" x="43.339375" y="19.249389" style="stroke: #000000; stroke-width: 0.6"/>
      </g>
     </g>
    </g>
    <g id="ytick_45">
     <g id="line2d_66">
      <g>
       <use xlink:href="#m67cfd50c93" x="43.339375" y="12.023408" style="stroke: #000000; stroke-width: 0.6"/>
      </g>
     </g>
    </g>
   </g>
   <g id="line2d_67">
    <path d="M 43.339375 170.99499 
L 44.361946 170.116244 
L 45.576414 169.283287 
L 46.790883 168.65385 
L 48.70363 168.018484 
L 50.219971 167.778342 
L 52.353424 167.764981 
L 54.060598 167.979639 
L 56.608997 168.594314 
L 59.850828 169.758209 
L 64.503187 171.913624 
L 70.249832 174.98163 
L 83.365418 182.163075 
L 90.503106 185.718978 
L 97.002824 188.631346 
L 102.075392 190.678677 
L 109.512886 193.332533 
L 115.0054 195.042771 
L 121.276004 196.758593 
L 129.249271 198.614552 
L 137.661426 200.230426 
L 144.367396 201.304042 
L 152.176373 202.351476 
L 160.627767 203.278572 
L 171.171521 204.1911 
L 183.88907 205.011969 
L 196.556466 205.603072 
L 213.516207 206.145463 
L 234.763463 206.561776 
L 261.758995 206.84651 
L 302.629205 207.0292 
L 381.77352 207.11281 
L 425.743406 207.121068 
L 425.743406 207.121068 
" clip-path="url(#p3174c40351)" style="fill: none; stroke: #0000ff; stroke-linecap: square"/>
   </g>
   <g id="line2d_68">
    <path d="M 43.339375 170.99499 
L 44.859584 180.314414 
L 46.565403 189.190945 
L 48.367162 197.019073 
L 50.094352 203.25883 
L 51.576467 207.771404 
L 52.607204 210.508966 
L 54.480394 214.750719 
L 56.363776 218.19422 
L 58.489332 221.257891 
L 60.567668 223.556665 
L 61.83122 224.670994 
L 63.094773 225.600263 
L 65.368987 226.871783 
L 66.426043 227.311157 
L 68.085633 227.835635 
L 69.986604 228.222346 
L 71.586725 228.398168 
L 74.720921 228.423831 
L 77.716353 228.144501 
L 82.154442 227.355099 
L 88.17293 225.85692 
L 97.365552 223.197036 
L 109.040537 219.873634 
L 117.004337 217.85073 
L 124.322114 216.211036 
L 130.827192 214.931117 
L 139.39134 213.486169 
L 149.115265 212.141543 
L 158.530124 211.095828 
L 168.145068 210.243361 
L 180.742408 209.38951 
L 195.520901 208.675526 
L 212.570473 208.123549 
L 233.532441 207.704653 
L 261.427392 207.405299 
L 301.550121 207.223278 
L 378.891449 207.137925 
L 425.743406 207.128722 
L 425.743406 207.128722 
" clip-path="url(#p3174c40351)" style="fill: none; stroke: #ff0000; stroke-linecap: square"/>
   </g>
   <g id="line2d_69">
    <path d="M 43.339375 134.865085 
L 44.777076 132.535954 
L 46.214777 130.903974 
L 47.617155 129.883517 
L 48.835252 129.388995 
L 49.4443 129.262093 
L 50.532 129.21333 
L 52.397157 129.590423 
L 53.174613 129.894992 
L 54.708355 130.708892 
L 57.305269 132.608666 
L 59.987584 135.074185 
L 63.530284 138.828751 
L 71.229229 147.788665 
L 77.248703 154.757043 
L 82.964086 160.969975 
L 86.875107 164.921335 
L 92.774153 170.379546 
L 96.709979 173.683951 
L 100.707509 176.772138 
L 104.166535 179.23569 
L 109.236389 182.517483 
L 114.087253 185.31809 
L 119.529573 188.10146 
L 123.731621 190.015309 
L 129.330271 192.279605 
L 136.247443 194.678918 
L 141.542803 196.256176 
L 147.052514 197.689503 
L 152.174553 198.854659 
L 159.185594 200.222919 
L 165.900633 201.322985 
L 175.174776 202.562365 
L 185.034652 203.592898 
L 196.22138 204.484585 
L 209.893943 205.275719 
L 224.16156 205.850286 
L 240.325338 206.289028 
L 263.401911 206.667446 
L 293.658455 206.917447 
L 343.197907 207.068088 
L 425.743406 207.118334 
L 425.743406 207.118334 
" clip-path="url(#p3174c40351)" style="fill: none; stroke: #0000ff; stroke-linecap: square"/>
   </g>
   <g id="line2d_70">
    <path d="M 43.339375 134.865085 
L 44.634304 153.092484 
L 46.114595 170.92341 
L 47.699983 186.958431 
L 48.935821 197.564516 
L 50.528096 209.129253 
L 52.058129 218.324467 
L 53.588162 225.920222 
L 54.977551 231.63073 
L 56.292374 236.137276 
L 57.607197 239.885665 
L 58.828082 242.773418 
L 60.635239 246.148563 
L 62.406941 248.578447 
L 63.471994 249.685047 
L 64.537047 250.561041 
L 65.726883 251.298146 
L 67.471443 251.981164 
L 68.967984 252.247877 
L 70.464524 252.2688 
L 72.087419 252.059581 
L 74.252439 251.476475 
L 77.005789 250.352548 
L 79.186935 249.24095 
L 83.605782 246.609693 
L 89.953278 242.421752 
L 96.279283 238.221172 
L 103.379863 233.79134 
L 109.010474 230.593237 
L 114.440924 227.799121 
L 119.870951 225.28935 
L 126.224356 222.695973 
L 130.787533 221.045623 
L 136.581162 219.18349 
L 143.175442 217.349769 
L 150.124406 215.706301 
L 158.148383 214.124429 
L 166.54277 212.773426 
L 174.061873 211.782134 
L 182.770791 210.846241 
L 194.33045 209.884947 
L 205.673637 209.181633 
L 217.490458 208.637792 
L 234.816565 208.088445 
L 255.764077 207.682836 
L 283.99487 207.391834 
L 325.479677 207.215164 
L 408.007275 207.135328 
L 425.743406 207.131456 
L 425.743406 207.131456 
" clip-path="url(#p3174c40351)" style="fill: none; stroke: #ff0000; stroke-linecap: square"/>
   </g>
   <g id="line2d_71">
    <path d="M 43.339375 98.73518 
L 44.57042 95.692698 
L 45.801465 93.464277 
L 46.888582 92.08627 
L 47.594504 91.454462 
L 48.300427 91.010131 
L 49.006349 90.73801 
L 49.712271 90.623927 
L 50.489906 90.665479 
L 51.267541 90.866615 
L 52.097687 91.240581 
L 53.751086 92.411594 
L 55.338243 93.981835 
L 57.233918 96.308852 
L 59.979824 100.32155 
L 62.586276 104.602701 
L 66.463432 111.431624 
L 76.389377 129.170177 
L 79.36284 134.192671 
L 85.112123 143.279374 
L 89.159435 149.137628 
L 93.016321 154.297777 
L 96.301902 158.374467 
L 100.492542 163.164566 
L 102.150912 164.938529 
L 107.054358 169.802962 
L 110.539663 172.934777 
L 113.799149 175.636564 
L 115.731379 177.140549 
L 119.669232 179.994792 
L 124.577979 183.186665 
L 128.164371 185.284863 
L 132.911969 187.788345 
L 137.868748 190.102044 
L 142.563847 192.041727 
L 147.418816 193.818424 
L 153.613193 195.788115 
L 157.773413 196.946142 
L 164.073224 198.480332 
L 170.910759 199.886686 
L 177.389851 201.008745 
L 185.78593 202.209235 
L 194.237797 203.180657 
L 205.02889 204.147921 
L 215.65046 204.868484 
L 229.297472 205.544796 
L 245.551662 206.09144 
L 263.752531 206.482604 
L 289.209218 206.794724 
L 327.469064 207.003472 
L 392.733012 207.102859 
L 425.743406 207.1156 
L 425.743406 207.1156 
" clip-path="url(#p3174c40351)" style="fill: none; stroke: #0000ff; stroke-linecap: square"/>
   </g>
   <g id="line2d_72">
    <path d="M 43.339375 98.73518 
L 44.718375 128.865977 
L 46.078496 154.233247 
L 47.446162 175.968175 
L 48.84847 194.855359 
L 50.286802 211.145196 
L 51.699061 224.525956 
L 53.005049 234.910975 
L 54.226894 243.123196 
L 55.559678 250.636983 
L 56.808881 256.486164 
L 58.069662 261.37047 
L 59.330444 265.362068 
L 60.42547 268.194425 
L 61.520497 270.507522 
L 62.6223 272.371199 
L 63.625081 273.708798 
L 64.831764 274.918725 
L 66.24235 275.851125 
L 67.633942 276.33526 
L 68.320241 276.435329 
L 69.265228 276.440402 
L 70.210214 276.307029 
L 71.272679 276.010795 
L 73.299874 275.083169 
L 75.189609 273.874047 
L 76.953623 272.515246 
L 79.75396 270.027293 
L 80.935061 268.889643 
L 86.150832 263.522495 
L 94.52696 254.703414 
L 99.175504 250.069204 
L 104.512645 245.124793 
L 108.962761 241.343583 
L 113.686505 237.675957 
L 117.542924 234.93966 
L 123.327121 231.247225 
L 127.486707 228.876826 
L 130.865299 227.113797 
L 137.219613 224.158346 
L 142.590154 221.991096 
L 148.286264 219.984013 
L 154.750679 218.024632 
L 159.603901 216.748433 
L 166.320631 215.220994 
L 172.599117 214.010273 
L 181.008809 212.664394 
L 189.359665 211.586222 
L 199.020051 210.596346 
L 209.59687 209.761392 
L 220.037566 209.13366 
L 235.079739 208.481922 
L 252.952175 207.976019 
L 275.757558 207.594011 
L 305.922183 207.338147 
L 355.071367 207.183891 
L 425.743406 207.13419 
L 425.743406 207.13419 
" clip-path="url(#p3174c40351)" style="fill: none; stroke: #ff0000; stroke-linecap: square"/>
   </g>
   <g id="line2d_73">
    <path d="M 43.339375 62.605275 
L 44.332418 59.251114 
L 45.330664 56.624099 
L 46.328909 54.66146 
L 47.384413 53.226786 
L 47.77442 52.847664 
L 48.554433 52.31275 
L 49.530656 52.027731 
L 50.50688 52.124393 
L 51.556911 52.603724 
L 52.606943 53.423801 
L 53.490669 54.345432 
L 55.201821 56.640056 
L 56.834206 59.343183 
L 58.444122 62.39288 
L 60.340811 66.356659 
L 62.558384 71.352505 
L 68.151896 84.808494 
L 75.451453 102.381016 
L 80.889165 114.607203 
L 84.852561 122.866094 
L 87.749832 128.528723 
L 90.794197 134.134151 
L 94.566408 140.596847 
L 98.589471 146.920763 
L 102.567968 152.627698 
L 106.920266 158.289313 
L 109.944967 161.890672 
L 112.230234 164.441812 
L 116.330053 168.675825 
L 119.439495 171.613188 
L 124.265175 175.744577 
L 128.501118 178.981287 
L 131.345464 180.968588 
L 135.973351 183.911142 
L 138.516563 185.386775 
L 144.414468 188.461982 
L 150.516395 191.190841 
L 156.008418 193.306782 
L 162.14576 195.342887 
L 169.219132 197.322264 
L 176.618461 199.0395 
L 182.894941 200.259005 
L 190.643459 201.51465 
L 199.045071 202.618654 
L 208.547756 203.608353 
L 217.867212 204.367836 
L 229.098189 205.06875 
L 240.431003 205.595691 
L 256.619828 206.123217 
L 277.063754 206.537892 
L 304.54034 206.838703 
L 345.215557 207.026096 
L 423.632684 207.112184 
L 425.743406 207.112866 
L 425.743406 207.112866 
" clip-path="url(#p3174c40351)" style="fill: none; stroke: #0000ff; stroke-linecap: square"/>
   </g>
   <g id="line2d_74">
    <path d="M 43.339375 62.605275 
L 44.648177 101.615899 
L 45.975967 135.538581 
L 47.332237 165.082982 
L 48.75793 191.32969 
L 50.187509 213.385366 
L 51.412862 229.353733 
L 52.699222 243.584933 
L 54.073239 256.294158 
L 55.154619 264.71587 
L 56.493344 273.461389 
L 57.567843 279.297115 
L 58.589689 283.985344 
L 59.558883 287.739222 
L 60.884899 291.909274 
L 62.147027 294.971221 
L 63.409155 297.268847 
L 64.326022 298.518207 
L 65.426426 299.607229 
L 65.976628 300.000016 
L 66.876885 300.445658 
L 68.352823 300.705515 
L 68.928503 300.666446 
L 70.079864 300.38156 
L 71.702241 299.574003 
L 72.953373 298.679266 
L 75.09814 296.706937 
L 77.150159 294.42081 
L 79.340467 291.672884 
L 82.480354 287.376491 
L 90.128703 276.289946 
L 95.333936 268.921469 
L 100.373369 262.226413 
L 105.059185 256.480538 
L 109.764307 251.20432 
L 113.664593 247.203342 
L 117.70758 243.399831 
L 122.423735 239.381121 
L 126.500268 236.245636 
L 130.431581 233.496353 
L 133.912718 231.270203 
L 138.604652 228.55395 
L 144.330325 225.638327 
L 149.080444 223.516019 
L 154.475813 221.393445 
L 160.951214 219.200214 
L 166.597466 217.561365 
L 171.412837 216.338736 
L 178.878632 214.717781 
L 186.065371 213.42552 
L 193.687011 212.293149 
L 199.978223 211.512733 
L 210.741492 210.440017 
L 222.322603 209.57601 
L 234.635446 208.902481 
L 250.91552 208.286919 
L 268.469941 207.85948 
L 292.623924 207.515628 
L 327.849821 207.280465 
L 385.130901 207.159684 
L 425.743406 207.136924 
L 425.743406 207.136924 
" clip-path="url(#p3174c40351)" style="fill: none; stroke: #ff0000; stroke-linecap: square"/>
   </g>
   <g id="line2d_75">
    <path d="M 43.339375 26.47537 
L 44.386245 22.089112 
L 45.433116 18.734362 
L 46.13103 17.011122 
L 47.03872 15.32259 
L 47.374911 14.843828 
L 48.047292 14.106275 
L 48.719674 13.642562 
L 49.392056 13.430769 
L 50.127224 13.463478 
L 50.862392 13.748284 
L 51.48085 14.166319 
L 52.691384 15.406583 
L 53.875537 17.092453 
L 55.487815 20.012634 
L 57.21353 23.780287 
L 59.330072 29.085717 
L 62.216513 37.150428 
L 66.038497 48.631501 
L 74.815101 75.346954 
L 77.247176 82.407691 
L 81.241655 93.473035 
L 84.869861 102.887381 
L 89.276395 113.466883 
L 92.566431 120.755353 
L 95.787413 127.398778 
L 99.419023 134.328911 
L 102.542999 139.838827 
L 105.404958 144.540132 
L 109.238481 150.349952 
L 111.579726 153.640045 
L 114.230447 157.143185 
L 116.829976 160.362285 
L 121.57045 165.720971 
L 126.663545 170.809315 
L 129.785259 173.619137 
L 131.436567 175.017801 
L 135.099681 177.918313 
L 139.738859 181.222949 
L 143.546861 183.656922 
L 146.822203 185.568261 
L 152.398207 188.473543 
L 156.490315 190.355067 
L 161.145017 192.266905 
L 166.049178 194.047047 
L 171.91519 195.899589 
L 177.338804 197.378893 
L 184.018677 198.936507 
L 190.956384 200.291904 
L 196.896563 201.273013 
L 205.920322 202.501118 
L 213.508214 203.33222 
L 224.775017 204.299149 
L 236.702982 205.0558 
L 250.261078 205.673139 
L 265.852845 206.159087 
L 286.765032 206.565843 
L 313.616797 206.847857 
L 354.566813 207.029944 
L 425.743406 207.110132 
L 425.743406 207.110132 
" clip-path="url(#p3174c40351)" style="fill: none; stroke: #0000ff; stroke-linecap: square"/>
   </g>
   <g id="line2d_76">
    <path d="M 43.339375 26.47537 
L 44.748808 79.274236 
L 46.097293 122.205455 
L 47.610853 162.799917 
L 48.952707 193.007705 
L 50.372028 219.884593 
L 51.737243 241.491669 
L 52.973612 257.952906 
L 54.344408 273.214795 
L 55.57465 284.58463 
L 56.804892 294.041752 
L 58.194189 302.726093 
L 59.173404 307.734973 
L 60.253045 312.321263 
L 61.453173 316.400278 
L 62.665664 319.567529 
L 63.478111 321.216342 
L 64.290559 322.525161 
L 65.103007 323.525112 
L 65.981599 324.291815 
L 66.829198 324.751707 
L 67.676796 324.96425 
L 68.394324 324.969231 
L 69.111852 324.828468 
L 69.82938 324.554719 
L 70.546907 324.159798 
L 72.042664 322.993864 
L 72.709361 322.34316 
L 74.042756 320.835887 
L 76.225759 317.883465 
L 78.321096 314.625993 
L 81.053672 309.96279 
L 85.016672 302.752365 
L 92.972008 288.127866 
L 96.40338 282.119109 
L 101.68152 273.453918 
L 104.828421 268.658143 
L 108.49874 263.426381 
L 111.540486 259.383637 
L 115.685632 254.289404 
L 119.407318 250.105213 
L 124.147462 245.275441 
L 127.212303 242.430395 
L 133.005548 237.59691 
L 138.396189 233.677187 
L 142.671762 230.921078 
L 147.442508 228.175206 
L 151.490412 226.091006 
L 154.238479 224.793121 
L 158.670765 222.881854 
L 164.667005 220.6174 
L 170.413792 218.750384 
L 175.383892 217.343745 
L 181.413331 215.86228 
L 187.076331 214.665953 
L 194.376354 213.361128 
L 202.800321 212.132415 
L 210.145618 211.259794 
L 219.146366 210.39456 
L 230.016267 209.586938 
L 242.362266 208.908445 
L 257.288324 208.332548 
L 276.138446 207.862802 
L 300.54336 207.514783 
L 335.226171 207.282336 
L 390.885314 207.161626 
L 425.743406 207.139658 
L 425.743406 207.139658 
" clip-path="url(#p3174c40351)" style="fill: none; stroke: #ff0000; stroke-linecap: square"/>
   </g>
   <g id="patch_3">
    <path d="M 43.339375 331.2 
L 43.339375 7.2 
" style="fill: none; stroke: #000000; stroke-width: 0.8; stroke-linejoin: miter; stroke-linecap: square"/>
   </g>
   <g id="patch_4">
    <path d="M 35.691294 207.124895 
L 433.391487 207.124895 
" style="fill: none; stroke: #000000; stroke-width: 0.8; stroke-linejoin: miter; stroke-linecap: square"/>
   </g>
   <g id="legend_1">
    <g id="patch_5">
     <path d="M 388.091487 46.596875 
L 430.391487 46.596875 
L 430.391487 14.2 
L 388.091487 14.2 
z
" style="fill: #4c4c4c; opacity: 0.5; stroke: #4c4c4c; stroke-linejoin: miter"/>
    </g>
    <g id="patch_6">
     <path d="M 386.091487 44.596875 
L 428.391487 44.596875 
L 428.391487 12.2 
L 386.091487 12.2 
z
" style="fill: #ffffff; stroke: #cccccc; stroke-linejoin: miter"/>
    </g>
    <g id="line2d_77">
     <path d="M 395.091487 22.298438 
L 389.591487 22.298438 
" style="fill: none; stroke: #0000ff; stroke-linecap: square"/>
    </g>
    <g id="text_15">
     <!-- $x(t)$ -->
     <g transform="translate(397.591487 25.798438) scale(0.1 -0.1)">
      <defs>
       <path id="Cmmi10-78" d="M 500 184 
Q 613 97 819 97 
Q 1019 97 1172 289 
Q 1325 481 1381 709 
L 1672 1844 
Q 1741 2153 1741 2266 
Q 1741 2425 1652 2544 
Q 1563 2663 1403 2663 
Q 1200 2663 1022 2536 
Q 844 2409 722 2214 
Q 600 2019 550 1819 
Q 538 1778 500 1778 
L 422 1778 
Q 372 1778 372 1838 
L 372 1856 
Q 434 2094 584 2320 
Q 734 2547 951 2687 
Q 1169 2828 1416 2828 
Q 1650 2828 1839 2703 
Q 2028 2578 2106 2363 
Q 2216 2559 2386 2693 
Q 2556 2828 2759 2828 
Q 2897 2828 3040 2779 
Q 3184 2731 3275 2631 
Q 3366 2531 3366 2381 
Q 3366 2219 3261 2101 
Q 3156 1984 2994 1984 
Q 2891 1984 2822 2050 
Q 2753 2116 2753 2216 
Q 2753 2350 2845 2451 
Q 2938 2553 3066 2572 
Q 2950 2663 2747 2663 
Q 2541 2663 2389 2472 
Q 2238 2281 2175 2047 
L 1894 916 
Q 1825 659 1825 494 
Q 1825 331 1917 214 
Q 2009 97 2163 97 
Q 2463 97 2698 361 
Q 2934 625 3009 941 
Q 3022 978 3059 978 
L 3138 978 
Q 3163 978 3178 961 
Q 3194 944 3194 922 
Q 3194 916 3188 903 
Q 3097 522 2806 225 
Q 2516 -72 2150 -72 
Q 1916 -72 1727 54 
Q 1538 181 1459 397 
Q 1359 209 1182 68 
Q 1006 -72 806 -72 
Q 669 -72 523 -23 
Q 378 25 287 125 
Q 197 225 197 378 
Q 197 528 301 651 
Q 406 775 563 775 
Q 669 775 741 711 
Q 813 647 813 544 
Q 813 409 723 309 
Q 634 209 500 184 
z
" transform="scale(0.015625)"/>
       <path id="Cmr10-28" d="M 1984 -1588 
Q 1628 -1306 1370 -942 
Q 1113 -578 948 -165 
Q 784 247 703 697 
Q 622 1147 622 1600 
Q 622 2059 703 2509 
Q 784 2959 951 3375 
Q 1119 3791 1378 4153 
Q 1638 4516 1984 4788 
Q 1984 4800 2016 4800 
L 2075 4800 
Q 2094 4800 2109 4783 
Q 2125 4766 2125 4744 
Q 2125 4716 2113 4703 
Q 1800 4397 1592 4047 
Q 1384 3697 1257 3301 
Q 1131 2906 1075 2482 
Q 1019 2059 1019 1600 
Q 1019 -434 2106 -1491 
Q 2125 -1509 2125 -1544 
Q 2125 -1559 2108 -1579 
Q 2091 -1600 2075 -1600 
L 2016 -1600 
Q 1984 -1600 1984 -1588 
z
" transform="scale(0.015625)"/>
       <path id="Cmr10-29" d="M 416 -1600 
Q 359 -1600 359 -1544 
Q 359 -1516 372 -1503 
Q 1466 -434 1466 1600 
Q 1466 3634 384 4691 
Q 359 4706 359 4744 
Q 359 4766 376 4783 
Q 394 4800 416 4800 
L 475 4800 
Q 494 4800 506 4788 
Q 966 4425 1272 3906 
Q 1578 3388 1720 2800 
Q 1863 2213 1863 1600 
Q 1863 1147 1786 708 
Q 1709 269 1542 -157 
Q 1375 -584 1119 -945 
Q 863 -1306 506 -1588 
Q 494 -1600 475 -1600 
L 416 -1600 
z
" transform="scale(0.015625)"/>
      </defs>
      <use xlink:href="#Cmmi10-78"/>
      <use xlink:href="#Cmr10-28" transform="translate(57.080078 0)"/>
      <use xlink:href="#Cmmi10-74" transform="translate(95.898438 0)"/>
      <use xlink:href="#Cmr10-29" transform="translate(131.982422 0)"/>
     </g>
    </g>
    <g id="line2d_78">
     <path d="M 395.091487 32.596875 
L 389.591487 32.596875 
" style="fill: none; stroke: #ff0000; stroke-linecap: square"/>
    </g>
    <g id="text_16">
     <!-- $dx/dt$ -->
     <g transform="translate(397.591487 36.096875) scale(0.1 -0.1)">
      <defs>
       <path id="Cmmi10-64" d="M 1113 -72 
Q 709 -72 476 233 
Q 244 538 244 953 
Q 244 1363 456 1803 
Q 669 2244 1030 2536 
Q 1391 2828 1806 2828 
Q 1994 2828 2145 2723 
Q 2297 2619 2381 2444 
L 2741 3872 
Q 2766 3981 2772 4044 
Q 2772 4147 2356 4147 
Q 2291 4147 2291 4231 
Q 2294 4247 2305 4287 
Q 2316 4328 2333 4350 
Q 2350 4372 2381 4372 
L 3244 4441 
Q 3322 4441 3322 4359 
L 2400 678 
Q 2356 572 2356 372 
Q 2356 97 2541 97 
Q 2741 97 2845 351 
Q 2950 606 3022 941 
Q 3034 978 3072 978 
L 3150 978 
Q 3175 978 3190 956 
Q 3206 934 3206 916 
Q 3094 469 2961 198 
Q 2828 -72 2528 -72 
Q 2313 -72 2147 54 
Q 1981 181 1941 391 
Q 1528 -72 1113 -72 
z
M 1119 97 
Q 1350 97 1567 270 
Q 1784 444 1941 678 
Q 1947 684 1947 703 
L 2297 2113 
Q 2259 2338 2131 2500 
Q 2003 2663 1791 2663 
Q 1575 2663 1389 2486 
Q 1203 2309 1075 2069 
Q 950 1813 836 1366 
Q 722 919 722 672 
Q 722 450 817 273 
Q 913 97 1119 97 
z
" transform="scale(0.015625)"/>
       <path id="Cmmi10-3d" d="M 359 -1472 
Q 359 -1453 366 -1447 
L 2591 4722 
Q 2603 4759 2634 4779 
Q 2666 4800 2706 4800 
Q 2763 4800 2798 4765 
Q 2834 4731 2834 4672 
L 2834 4647 
L 609 -1522 
Q 572 -1600 488 -1600 
Q 434 -1600 396 -1562 
Q 359 -1525 359 -1472 
z
" transform="scale(0.015625)"/>
      </defs>
      <use xlink:href="#Cmmi10-64"/>
      <use xlink:href="#Cmmi10-78" transform="translate(52.001953 0)"/>
      <use xlink:href="#Cmmi10-3d" transform="translate(109.082031 0)"/>
      <use xlink:href="#Cmmi10-64" transform="translate(159.082031 0)"/>
      <use xlink:href="#Cmmi10-74" transform="translate(211.083984 0)"/>
     </g>
    </g>
   </g>
  </g>
 </g>
 <defs>
  <clipPath id="p3174c40351">
   <rect x="35.691294" y="7.2" width="397.700192" height="324"/>
  </clipPath>
 </defs>
</svg>
