<?xml version="1.0" encoding="utf-8" standalone="no"?>
<!DOCTYPE svg PUBLIC "-//W3C//DTD SVG 1.1//EN"
  "http://www.w3.org/Graphics/SVG/1.1/DTD/svg11.dtd">
<svg xmlns:xlink="http://www.w3.org/1999/xlink" width="452.606487pt" height="338.4pt" viewBox="0 0 452.606487 338.4" xmlns="http://www.w3.org/2000/svg" version="1.1">
 <metadata>
  <rdf:RDF xmlns:dc="http://purl.org/dc/elements/1.1/" xmlns:cc="http://creativecommons.org/ns#" xmlns:rdf="http://www.w3.org/1999/02/22-rdf-syntax-ns#">
   <cc:Work>
    <dc:type rdf:resource="http://purl.org/dc/dcmitype/StillImage"/>
    <dc:date>2025-02-04T09:35:24.346080</dc:date>
    <dc:format>image/svg+xml</dc:format>
    <dc:creator>
     <cc:Agent>
      <dc:title>Matplotlib v3.6.2, https://matplotlib.org/</dc:title>
     </cc:Agent>
    </dc:creator>
   </cc:Work>
  </rdf:RDF>
 </metadata>
 <defs>
  <style type="text/css">*{stroke-linejoin: round; stroke-linecap: butt}</style>
 </defs>
 <g id="figure_1">
  <g id="patch_1">
   <path d="M 0 338.4 
L 452.606487 338.4 
L 452.606487 0 
L 0 0 
z
" style="fill: #ffffff"/>
  </g>
  <g id="axes_1">
   <g id="patch_2">
    <path d="M 35.691294 331.2 
L 433.391487 331.2 
L 433.391487 7.2 
L 35.691294 7.2 
z
" style="fill: #ffffff"/>
   </g>
   <g id="matplotlib.axis_1">
    <g id="xtick_1">
     <g id="line2d_1">
      <defs>
       <path id="mbf63543a5d" d="M 0 0 
L 0 3.5 
" style="stroke: #000000; stroke-width: 0.8"/>
      </defs>
      <g>
       <use xlink:href="#mbf63543a5d" x="43.339375" y="208.806124" style="stroke: #000000; stroke-width: 0.8"/>
      </g>
     </g>
    </g>
    <g id="xtick_2">
     <g id="line2d_2">
      <g>
       <use xlink:href="#mbf63543a5d" x="119.820181" y="208.806124" style="stroke: #000000; stroke-width: 0.8"/>
      </g>
     </g>
     <g id="text_1">
      <!-- 2 -->
      <g transform="translate(116.002681 224.924249) scale(0.12 -0.12)">
       <defs>
        <path id="DejaVuSans-32" d="M 1228 531 
L 3431 531 
L 3431 0 
L 469 0 
L 469 531 
Q 828 903 1448 1529 
Q 2069 2156 2228 2338 
Q 2531 2678 2651 2914 
Q 2772 3150 2772 3378 
Q 2772 3750 2511 3984 
Q 2250 4219 1831 4219 
Q 1534 4219 1204 4116 
Q 875 4013 500 3803 
L 500 4441 
Q 881 4594 1212 4672 
Q 1544 4750 1819 4750 
Q 2544 4750 2975 4387 
Q 3406 4025 3406 3419 
Q 3406 3131 3298 2873 
Q 3191 2616 2906 2266 
Q 2828 2175 2409 1742 
Q 1991 1309 1228 531 
z
" transform="scale(0.015625)"/>
       </defs>
       <use xlink:href="#DejaVuSans-32"/>
      </g>
     </g>
    </g>
    <g id="xtick_3">
     <g id="line2d_3">
      <g>
       <use xlink:href="#mbf63543a5d" x="196.300987" y="208.806124" style="stroke: #000000; stroke-width: 0.8"/>
      </g>
     </g>
     <g id="text_2">
      <!-- 4 -->
      <g transform="translate(192.483487 224.924249) scale(0.12 -0.12)">
       <defs>
        <path id="DejaVuSans-34" d="M 2419 4116 
L 825 1625 
L 2419 1625 
L 2419 4116 
z
M 2253 4666 
L 3047 4666 
L 3047 1625 
L 3713 1625 
L 3713 1100 
L 3047 1100 
L 3047 0 
L 2419 0 
L 2419 1100 
L 313 1100 
L 313 1709 
L 2253 4666 
z
" transform="scale(0.015625)"/>
       </defs>
       <use xlink:href="#DejaVuSans-34"/>
      </g>
     </g>
    </g>
    <g id="xtick_4">
     <g id="line2d_4">
      <g>
       <use xlink:href="#mbf63543a5d" x="272.781794" y="208.806124" style="stroke: #000000; stroke-width: 0.8"/>
      </g>
     </g>
     <g id="text_3">
      <!-- 6 -->
      <g transform="translate(268.964294 224.924249) scale(0.12 -0.12)">
       <defs>
        <path id="DejaVuSans-36" d="M 2113 2584 
Q 1688 2584 1439 2293 
Q 1191 2003 1191 1497 
Q 1191 994 1439 701 
Q 1688 409 2113 409 
Q 2538 409 2786 701 
Q 3034 994 3034 1497 
Q 3034 2003 2786 2293 
Q 2538 2584 2113 2584 
z
M 3366 4563 
L 3366 3988 
Q 3128 4100 2886 4159 
Q 2644 4219 2406 4219 
Q 1781 4219 1451 3797 
Q 1122 3375 1075 2522 
Q 1259 2794 1537 2939 
Q 1816 3084 2150 3084 
Q 2853 3084 3261 2657 
Q 3669 2231 3669 1497 
Q 3669 778 3244 343 
Q 2819 -91 2113 -91 
Q 1303 -91 875 529 
Q 447 1150 447 2328 
Q 447 3434 972 4092 
Q 1497 4750 2381 4750 
Q 2619 4750 2861 4703 
Q 3103 4656 3366 4563 
z
" transform="scale(0.015625)"/>
       </defs>
       <use xlink:href="#DejaVuSans-36"/>
      </g>
     </g>
    </g>
    <g id="xtick_5">
     <g id="line2d_5">
      <g>
       <use xlink:href="#mbf63543a5d" x="349.2626" y="208.806124" style="stroke: #000000; stroke-width: 0.8"/>
      </g>
     </g>
     <g id="text_4">
      <!-- 8 -->
      <g transform="translate(345.4451 224.924249) scale(0.12 -0.12)">
       <defs>
        <path id="DejaVuSans-38" d="M 2034 2216 
Q 1584 2216 1326 1975 
Q 1069 1734 1069 1313 
Q 1069 891 1326 650 
Q 1584 409 2034 409 
Q 2484 409 2743 651 
Q 3003 894 3003 1313 
Q 3003 1734 2745 1975 
Q 2488 2216 2034 2216 
z
M 1403 2484 
Q 997 2584 770 2862 
Q 544 3141 544 3541 
Q 544 4100 942 4425 
Q 1341 4750 2034 4750 
Q 2731 4750 3128 4425 
Q 3525 4100 3525 3541 
Q 3525 3141 3298 2862 
Q 3072 2584 2669 2484 
Q 3125 2378 3379 2068 
Q 3634 1759 3634 1313 
Q 3634 634 3220 271 
Q 2806 -91 2034 -91 
Q 1263 -91 848 271 
Q 434 634 434 1313 
Q 434 1759 690 2068 
Q 947 2378 1403 2484 
z
M 1172 3481 
Q 1172 3119 1398 2916 
Q 1625 2713 2034 2713 
Q 2441 2713 2670 2916 
Q 2900 3119 2900 3481 
Q 2900 3844 2670 4047 
Q 2441 4250 2034 4250 
Q 1625 4250 1398 4047 
Q 1172 3844 1172 3481 
z
" transform="scale(0.015625)"/>
       </defs>
       <use xlink:href="#DejaVuSans-38"/>
      </g>
     </g>
    </g>
    <g id="xtick_6">
     <g id="line2d_6">
      <g>
       <use xlink:href="#mbf63543a5d" x="425.743406" y="208.806124" style="stroke: #000000; stroke-width: 0.8"/>
      </g>
     </g>
     <g id="text_5">
      <!-- 10 -->
      <g transform="translate(418.108406 224.924249) scale(0.12 -0.12)">
       <defs>
        <path id="DejaVuSans-31" d="M 794 531 
L 1825 531 
L 1825 4091 
L 703 3866 
L 703 4441 
L 1819 4666 
L 2450 4666 
L 2450 531 
L 3481 531 
L 3481 0 
L 794 0 
L 794 531 
z
" transform="scale(0.015625)"/>
        <path id="DejaVuSans-30" d="M 2034 4250 
Q 1547 4250 1301 3770 
Q 1056 3291 1056 2328 
Q 1056 1369 1301 889 
Q 1547 409 2034 409 
Q 2525 409 2770 889 
Q 3016 1369 3016 2328 
Q 3016 3291 2770 3770 
Q 2525 4250 2034 4250 
z
M 2034 4750 
Q 2819 4750 3233 4129 
Q 3647 3509 3647 2328 
Q 3647 1150 3233 529 
Q 2819 -91 2034 -91 
Q 1250 -91 836 529 
Q 422 1150 422 2328 
Q 422 3509 836 4129 
Q 1250 4750 2034 4750 
z
" transform="scale(0.015625)"/>
       </defs>
       <use xlink:href="#DejaVuSans-31"/>
       <use xlink:href="#DejaVuSans-30" x="63.623047"/>
      </g>
     </g>
    </g>
    <g id="xtick_7">
     <g id="line2d_7">
      <defs>
       <path id="m0ea9afe6ba" d="M 0 0 
L 0 2 
" style="stroke: #000000; stroke-width: 0.6"/>
      </defs>
      <g>
       <use xlink:href="#m0ea9afe6ba" x="62.459577" y="208.806124" style="stroke: #000000; stroke-width: 0.6"/>
      </g>
     </g>
    </g>
    <g id="xtick_8">
     <g id="line2d_8">
      <g>
       <use xlink:href="#m0ea9afe6ba" x="81.579778" y="208.806124" style="stroke: #000000; stroke-width: 0.6"/>
      </g>
     </g>
    </g>
    <g id="xtick_9">
     <g id="line2d_9">
      <g>
       <use xlink:href="#m0ea9afe6ba" x="100.69998" y="208.806124" style="stroke: #000000; stroke-width: 0.6"/>
      </g>
     </g>
    </g>
    <g id="xtick_10">
     <g id="line2d_10">
      <g>
       <use xlink:href="#m0ea9afe6ba" x="138.940383" y="208.806124" style="stroke: #000000; stroke-width: 0.6"/>
      </g>
     </g>
    </g>
    <g id="xtick_11">
     <g id="line2d_11">
      <g>
       <use xlink:href="#m0ea9afe6ba" x="158.060584" y="208.806124" style="stroke: #000000; stroke-width: 0.6"/>
      </g>
     </g>
    </g>
    <g id="xtick_12">
     <g id="line2d_12">
      <g>
       <use xlink:href="#m0ea9afe6ba" x="177.180786" y="208.806124" style="stroke: #000000; stroke-width: 0.6"/>
      </g>
     </g>
    </g>
    <g id="xtick_13">
     <g id="line2d_13">
      <g>
       <use xlink:href="#m0ea9afe6ba" x="215.421189" y="208.806124" style="stroke: #000000; stroke-width: 0.6"/>
      </g>
     </g>
    </g>
    <g id="xtick_14">
     <g id="line2d_14">
      <g>
       <use xlink:href="#m0ea9afe6ba" x="234.541391" y="208.806124" style="stroke: #000000; stroke-width: 0.6"/>
      </g>
     </g>
    </g>
    <g id="xtick_15">
     <g id="line2d_15">
      <g>
       <use xlink:href="#m0ea9afe6ba" x="253.661592" y="208.806124" style="stroke: #000000; stroke-width: 0.6"/>
      </g>
     </g>
    </g>
    <g id="xtick_16">
     <g id="line2d_16">
      <g>
       <use xlink:href="#m0ea9afe6ba" x="291.901995" y="208.806124" style="stroke: #000000; stroke-width: 0.6"/>
      </g>
     </g>
    </g>
    <g id="xtick_17">
     <g id="line2d_17">
      <g>
       <use xlink:href="#m0ea9afe6ba" x="311.022197" y="208.806124" style="stroke: #000000; stroke-width: 0.6"/>
      </g>
     </g>
    </g>
    <g id="xtick_18">
     <g id="line2d_18">
      <g>
       <use xlink:href="#m0ea9afe6ba" x="330.142398" y="208.806124" style="stroke: #000000; stroke-width: 0.6"/>
      </g>
     </g>
    </g>
    <g id="xtick_19">
     <g id="line2d_19">
      <g>
       <use xlink:href="#m0ea9afe6ba" x="368.382801" y="208.806124" style="stroke: #000000; stroke-width: 0.6"/>
      </g>
     </g>
    </g>
    <g id="xtick_20">
     <g id="line2d_20">
      <g>
       <use xlink:href="#m0ea9afe6ba" x="387.503003" y="208.806124" style="stroke: #000000; stroke-width: 0.6"/>
      </g>
     </g>
    </g>
    <g id="xtick_21">
     <g id="line2d_21">
      <g>
       <use xlink:href="#m0ea9afe6ba" x="406.623205" y="208.806124" style="stroke: #000000; stroke-width: 0.6"/>
      </g>
     </g>
    </g>
    <g id="text_6">
     <!-- $t$ -->
     <g transform="translate(441.391487 208.806124) scale(0.19 -0.19)">
      <defs>
       <path id="Cmmi10-74" d="M 397 519 
Q 397 613 416 697 
L 878 2534 
L 206 2534 
Q 141 2534 141 2619 
Q 166 2759 225 2759 
L 934 2759 
L 1191 3803 
Q 1216 3888 1291 3947 
Q 1366 4006 1459 4006 
Q 1541 4006 1595 3957 
Q 1650 3909 1650 3828 
Q 1650 3809 1648 3798 
Q 1647 3788 1644 3775 
L 1388 2759 
L 2047 2759 
Q 2113 2759 2113 2675 
Q 2109 2659 2100 2621 
Q 2091 2584 2075 2559 
Q 2059 2534 2028 2534 
L 1331 2534 
L 872 684 
Q 825 503 825 372 
Q 825 97 1013 97 
Q 1294 97 1511 361 
Q 1728 625 1844 941 
Q 1869 978 1894 978 
L 1972 978 
Q 1997 978 2012 961 
Q 2028 944 2028 922 
Q 2028 909 2022 903 
Q 1881 516 1612 222 
Q 1344 -72 997 -72 
Q 744 -72 570 93 
Q 397 259 397 519 
z
" transform="scale(0.015625)"/>
      </defs>
      <use xlink:href="#Cmmi10-74" transform="translate(0 0.40625)"/>
     </g>
    </g>
   </g>
   <g id="matplotlib.axis_2">
    <g id="ytick_1">
     <g id="line2d_22">
      <defs>
       <path id="m706cae690d" d="M 0 0 
L -3.5 0 
" style="stroke: #000000; stroke-width: 0.8"/>
      </defs>
      <g>
       <use xlink:href="#m706cae690d" x="43.339375" y="318.105044" style="stroke: #000000; stroke-width: 0.8"/>
      </g>
     </g>
     <g id="text_7">
      <!-- −1.5 -->
      <g transform="translate(7.2 322.664106) scale(0.12 -0.12)">
       <defs>
        <path id="DejaVuSans-2212" d="M 678 2272 
L 4684 2272 
L 4684 1741 
L 678 1741 
L 678 2272 
z
" transform="scale(0.015625)"/>
        <path id="DejaVuSans-2e" d="M 684 794 
L 1344 794 
L 1344 0 
L 684 0 
L 684 794 
z
" transform="scale(0.015625)"/>
        <path id="DejaVuSans-35" d="M 691 4666 
L 3169 4666 
L 3169 4134 
L 1269 4134 
L 1269 2991 
Q 1406 3038 1543 3061 
Q 1681 3084 1819 3084 
Q 2600 3084 3056 2656 
Q 3513 2228 3513 1497 
Q 3513 744 3044 326 
Q 2575 -91 1722 -91 
Q 1428 -91 1123 -41 
Q 819 9 494 109 
L 494 744 
Q 775 591 1075 516 
Q 1375 441 1709 441 
Q 2250 441 2565 725 
Q 2881 1009 2881 1497 
Q 2881 1984 2565 2268 
Q 2250 2553 1709 2553 
Q 1456 2553 1204 2497 
Q 953 2441 691 2322 
L 691 4666 
z
" transform="scale(0.015625)"/>
       </defs>
       <use xlink:href="#DejaVuSans-2212"/>
       <use xlink:href="#DejaVuSans-31" x="83.789062"/>
       <use xlink:href="#DejaVuSans-2e" x="147.412109"/>
       <use xlink:href="#DejaVuSans-35" x="179.199219"/>
      </g>
     </g>
    </g>
    <g id="ytick_2">
     <g id="line2d_23">
      <g>
       <use xlink:href="#m706cae690d" x="43.339375" y="281.67207" style="stroke: #000000; stroke-width: 0.8"/>
      </g>
     </g>
     <g id="text_8">
      <!-- −1.0 -->
      <g transform="translate(7.2 286.231133) scale(0.12 -0.12)">
       <use xlink:href="#DejaVuSans-2212"/>
       <use xlink:href="#DejaVuSans-31" x="83.789062"/>
       <use xlink:href="#DejaVuSans-2e" x="147.412109"/>
       <use xlink:href="#DejaVuSans-30" x="179.199219"/>
      </g>
     </g>
    </g>
    <g id="ytick_3">
     <g id="line2d_24">
      <g>
       <use xlink:href="#m706cae690d" x="43.339375" y="245.239097" style="stroke: #000000; stroke-width: 0.8"/>
      </g>
     </g>
     <g id="text_9">
      <!-- −0.5 -->
      <g transform="translate(7.2 249.79816) scale(0.12 -0.12)">
       <use xlink:href="#DejaVuSans-2212"/>
       <use xlink:href="#DejaVuSans-30" x="83.789062"/>
       <use xlink:href="#DejaVuSans-2e" x="147.412109"/>
       <use xlink:href="#DejaVuSans-35" x="179.199219"/>
      </g>
     </g>
    </g>
    <g id="ytick_4">
     <g id="line2d_25">
      <g>
       <use xlink:href="#m706cae690d" x="43.339375" y="208.806124" style="stroke: #000000; stroke-width: 0.8"/>
      </g>
     </g>
    </g>
    <g id="ytick_5">
     <g id="line2d_26">
      <g>
       <use xlink:href="#m706cae690d" x="43.339375" y="172.373151" style="stroke: #000000; stroke-width: 0.8"/>
      </g>
     </g>
     <g id="text_10">
      <!-- 0.5 -->
      <g transform="translate(17.255625 176.932213) scale(0.12 -0.12)">
       <use xlink:href="#DejaVuSans-30"/>
       <use xlink:href="#DejaVuSans-2e" x="63.623047"/>
       <use xlink:href="#DejaVuSans-35" x="95.410156"/>
      </g>
     </g>
    </g>
    <g id="ytick_6">
     <g id="line2d_27">
      <g>
       <use xlink:href="#m706cae690d" x="43.339375" y="135.940177" style="stroke: #000000; stroke-width: 0.8"/>
      </g>
     </g>
     <g id="text_11">
      <!-- 1.0 -->
      <g transform="translate(17.255625 140.49924) scale(0.12 -0.12)">
       <use xlink:href="#DejaVuSans-31"/>
       <use xlink:href="#DejaVuSans-2e" x="63.623047"/>
       <use xlink:href="#DejaVuSans-30" x="95.410156"/>
      </g>
     </g>
    </g>
    <g id="ytick_7">
     <g id="line2d_28">
      <g>
       <use xlink:href="#m706cae690d" x="43.339375" y="99.507204" style="stroke: #000000; stroke-width: 0.8"/>
      </g>
     </g>
     <g id="text_12">
      <!-- 1.5 -->
      <g transform="translate(17.255625 104.066267) scale(0.12 -0.12)">
       <use xlink:href="#DejaVuSans-31"/>
       <use xlink:href="#DejaVuSans-2e" x="63.623047"/>
       <use xlink:href="#DejaVuSans-35" x="95.410156"/>
      </g>
     </g>
    </g>
    <g id="ytick_8">
     <g id="line2d_29">
      <g>
       <use xlink:href="#m706cae690d" x="43.339375" y="63.074231" style="stroke: #000000; stroke-width: 0.8"/>
      </g>
     </g>
     <g id="text_13">
      <!-- 2.0 -->
      <g transform="translate(17.255625 67.633293) scale(0.12 -0.12)">
       <use xlink:href="#DejaVuSans-32"/>
       <use xlink:href="#DejaVuSans-2e" x="63.623047"/>
       <use xlink:href="#DejaVuSans-30" x="95.410156"/>
      </g>
     </g>
    </g>
    <g id="ytick_9">
     <g id="line2d_30">
      <g>
       <use xlink:href="#m706cae690d" x="43.339375" y="26.641258" style="stroke: #000000; stroke-width: 0.8"/>
      </g>
     </g>
     <g id="text_14">
      <!-- 2.5 -->
      <g transform="translate(17.255625 31.20032) scale(0.12 -0.12)">
       <use xlink:href="#DejaVuSans-32"/>
       <use xlink:href="#DejaVuSans-2e" x="63.623047"/>
       <use xlink:href="#DejaVuSans-35" x="95.410156"/>
      </g>
     </g>
    </g>
    <g id="ytick_10">
     <g id="line2d_31">
      <defs>
       <path id="m7fae9dd64e" d="M 0 0 
L -2 0 
" style="stroke: #000000; stroke-width: 0.6"/>
      </defs>
      <g>
       <use xlink:href="#m7fae9dd64e" x="43.339375" y="325.391638" style="stroke: #000000; stroke-width: 0.6"/>
      </g>
     </g>
    </g>
    <g id="ytick_11">
     <g id="line2d_32">
      <g>
       <use xlink:href="#m7fae9dd64e" x="43.339375" y="310.818449" style="stroke: #000000; stroke-width: 0.6"/>
      </g>
     </g>
    </g>
    <g id="ytick_12">
     <g id="line2d_33">
      <g>
       <use xlink:href="#m7fae9dd64e" x="43.339375" y="303.531854" style="stroke: #000000; stroke-width: 0.6"/>
      </g>
     </g>
    </g>
    <g id="ytick_13">
     <g id="line2d_34">
      <g>
       <use xlink:href="#m7fae9dd64e" x="43.339375" y="296.24526" style="stroke: #000000; stroke-width: 0.6"/>
      </g>
     </g>
    </g>
    <g id="ytick_14">
     <g id="line2d_35">
      <g>
       <use xlink:href="#m7fae9dd64e" x="43.339375" y="288.958665" style="stroke: #000000; stroke-width: 0.6"/>
      </g>
     </g>
    </g>
    <g id="ytick_15">
     <g id="line2d_36">
      <g>
       <use xlink:href="#m7fae9dd64e" x="43.339375" y="274.385476" style="stroke: #000000; stroke-width: 0.6"/>
      </g>
     </g>
    </g>
    <g id="ytick_16">
     <g id="line2d_37">
      <g>
       <use xlink:href="#m7fae9dd64e" x="43.339375" y="267.098881" style="stroke: #000000; stroke-width: 0.6"/>
      </g>
     </g>
    </g>
    <g id="ytick_17">
     <g id="line2d_38">
      <g>
       <use xlink:href="#m7fae9dd64e" x="43.339375" y="259.812286" style="stroke: #000000; stroke-width: 0.6"/>
      </g>
     </g>
    </g>
    <g id="ytick_18">
     <g id="line2d_39">
      <g>
       <use xlink:href="#m7fae9dd64e" x="43.339375" y="252.525692" style="stroke: #000000; stroke-width: 0.6"/>
      </g>
     </g>
    </g>
    <g id="ytick_19">
     <g id="line2d_40">
      <g>
       <use xlink:href="#m7fae9dd64e" x="43.339375" y="237.952503" style="stroke: #000000; stroke-width: 0.6"/>
      </g>
     </g>
    </g>
    <g id="ytick_20">
     <g id="line2d_41">
      <g>
       <use xlink:href="#m7fae9dd64e" x="43.339375" y="230.665908" style="stroke: #000000; stroke-width: 0.6"/>
      </g>
     </g>
    </g>
    <g id="ytick_21">
     <g id="line2d_42">
      <g>
       <use xlink:href="#m7fae9dd64e" x="43.339375" y="223.379313" style="stroke: #000000; stroke-width: 0.6"/>
      </g>
     </g>
    </g>
    <g id="ytick_22">
     <g id="line2d_43">
      <g>
       <use xlink:href="#m7fae9dd64e" x="43.339375" y="216.092719" style="stroke: #000000; stroke-width: 0.6"/>
      </g>
     </g>
    </g>
    <g id="ytick_23">
     <g id="line2d_44">
      <g>
       <use xlink:href="#m7fae9dd64e" x="43.339375" y="201.519529" style="stroke: #000000; stroke-width: 0.6"/>
      </g>
     </g>
    </g>
    <g id="ytick_24">
     <g id="line2d_45">
      <g>
       <use xlink:href="#m7fae9dd64e" x="43.339375" y="194.232935" style="stroke: #000000; stroke-width: 0.6"/>
      </g>
     </g>
    </g>
    <g id="ytick_25">
     <g id="line2d_46">
      <g>
       <use xlink:href="#m7fae9dd64e" x="43.339375" y="186.94634" style="stroke: #000000; stroke-width: 0.6"/>
      </g>
     </g>
    </g>
    <g id="ytick_26">
     <g id="line2d_47">
      <g>
       <use xlink:href="#m7fae9dd64e" x="43.339375" y="179.659745" style="stroke: #000000; stroke-width: 0.6"/>
      </g>
     </g>
    </g>
    <g id="ytick_27">
     <g id="line2d_48">
      <g>
       <use xlink:href="#m7fae9dd64e" x="43.339375" y="165.086556" style="stroke: #000000; stroke-width: 0.6"/>
      </g>
     </g>
    </g>
    <g id="ytick_28">
     <g id="line2d_49">
      <g>
       <use xlink:href="#m7fae9dd64e" x="43.339375" y="157.799961" style="stroke: #000000; stroke-width: 0.6"/>
      </g>
     </g>
    </g>
    <g id="ytick_29">
     <g id="line2d_50">
      <g>
       <use xlink:href="#m7fae9dd64e" x="43.339375" y="150.513367" style="stroke: #000000; stroke-width: 0.6"/>
      </g>
     </g>
    </g>
    <g id="ytick_30">
     <g id="line2d_51">
      <g>
       <use xlink:href="#m7fae9dd64e" x="43.339375" y="143.226772" style="stroke: #000000; stroke-width: 0.6"/>
      </g>
     </g>
    </g>
    <g id="ytick_31">
     <g id="line2d_52">
      <g>
       <use xlink:href="#m7fae9dd64e" x="43.339375" y="128.653583" style="stroke: #000000; stroke-width: 0.6"/>
      </g>
     </g>
    </g>
    <g id="ytick_32">
     <g id="line2d_53">
      <g>
       <use xlink:href="#m7fae9dd64e" x="43.339375" y="121.366988" style="stroke: #000000; stroke-width: 0.6"/>
      </g>
     </g>
    </g>
    <g id="ytick_33">
     <g id="line2d_54">
      <g>
       <use xlink:href="#m7fae9dd64e" x="43.339375" y="114.080394" style="stroke: #000000; stroke-width: 0.6"/>
      </g>
     </g>
    </g>
    <g id="ytick_34">
     <g id="line2d_55">
      <g>
       <use xlink:href="#m7fae9dd64e" x="43.339375" y="106.793799" style="stroke: #000000; stroke-width: 0.6"/>
      </g>
     </g>
    </g>
    <g id="ytick_35">
     <g id="line2d_56">
      <g>
       <use xlink:href="#m7fae9dd64e" x="43.339375" y="92.22061" style="stroke: #000000; stroke-width: 0.6"/>
      </g>
     </g>
    </g>
    <g id="ytick_36">
     <g id="line2d_57">
      <g>
       <use xlink:href="#m7fae9dd64e" x="43.339375" y="84.934015" style="stroke: #000000; stroke-width: 0.6"/>
      </g>
     </g>
    </g>
    <g id="ytick_37">
     <g id="line2d_58">
      <g>
       <use xlink:href="#m7fae9dd64e" x="43.339375" y="77.64742" style="stroke: #000000; stroke-width: 0.6"/>
      </g>
     </g>
    </g>
    <g id="ytick_38">
     <g id="line2d_59">
      <g>
       <use xlink:href="#m7fae9dd64e" x="43.339375" y="70.360826" style="stroke: #000000; stroke-width: 0.6"/>
      </g>
     </g>
    </g>
    <g id="ytick_39">
     <g id="line2d_60">
      <g>
       <use xlink:href="#m7fae9dd64e" x="43.339375" y="55.787636" style="stroke: #000000; stroke-width: 0.6"/>
      </g>
     </g>
    </g>
    <g id="ytick_40">
     <g id="line2d_61">
      <g>
       <use xlink:href="#m7fae9dd64e" x="43.339375" y="48.501042" style="stroke: #000000; stroke-width: 0.6"/>
      </g>
     </g>
    </g>
    <g id="ytick_41">
     <g id="line2d_62">
      <g>
       <use xlink:href="#m7fae9dd64e" x="43.339375" y="41.214447" style="stroke: #000000; stroke-width: 0.6"/>
      </g>
     </g>
    </g>
    <g id="ytick_42">
     <g id="line2d_63">
      <g>
       <use xlink:href="#m7fae9dd64e" x="43.339375" y="33.927852" style="stroke: #000000; stroke-width: 0.6"/>
      </g>
     </g>
    </g>
    <g id="ytick_43">
     <g id="line2d_64">
      <g>
       <use xlink:href="#m7fae9dd64e" x="43.339375" y="19.354663" style="stroke: #000000; stroke-width: 0.6"/>
      </g>
     </g>
    </g>
    <g id="ytick_44">
     <g id="line2d_65">
      <g>
       <use xlink:href="#m7fae9dd64e" x="43.339375" y="12.068068" style="stroke: #000000; stroke-width: 0.6"/>
      </g>
     </g>
    </g>
   </g>
   <g id="line2d_66">
    <path d="M 43.339375 172.373151 
L 45.426645 170.737289 
L 47.077965 169.880303 
L 48.231642 169.472852 
L 50.183664 169.083978 
L 51.741121 169.001286 
L 54.528718 169.250323 
L 57.207219 169.854702 
L 60.210635 170.833114 
L 64.210521 172.459814 
L 67.527868 173.977249 
L 89.017757 184.217881 
L 96.272724 187.263657 
L 103.022681 189.827279 
L 110.60226 192.398993 
L 117.324385 194.422168 
L 125.608541 196.609018 
L 132.375394 198.167278 
L 139.06343 199.526254 
L 148.112114 201.110194 
L 156.803509 202.390673 
L 166.582608 203.590786 
L 177.582689 204.685725 
L 189.067169 205.593214 
L 201.909866 206.380716 
L 217.61417 207.092951 
L 236.659347 207.687876 
L 258.232755 208.120328 
L 287.327634 208.454356 
L 326.913555 208.666058 
L 397.193827 208.779556 
L 425.743406 208.792708 
L 425.743406 208.792708 
" clip-path="url(#pdfd238b4b0)" style="fill: none; stroke: #0000ff; stroke-linecap: square"/>
   </g>
   <g id="line2d_67">
    <path d="M 43.339375 172.373151 
L 44.858212 181.711203 
L 45.954999 187.554652 
L 47.417381 194.326468 
L 48.806612 199.817686 
L 50.099495 204.213753 
L 51.392378 208.009574 
L 53.027226 212.066258 
L 54.019026 214.174171 
L 55.132858 216.262252 
L 56.964355 219.134737 
L 58.399683 220.966647 
L 59.117347 221.762422 
L 60.612728 223.193733 
L 61.827517 224.156035 
L 64.205364 225.60339 
L 65.911522 226.345912 
L 68.292701 227.052694 
L 70.113661 227.382891 
L 72.000686 227.570435 
L 75.068786 227.611621 
L 78.933739 227.325809 
L 85.40831 226.336069 
L 92.716516 224.849251 
L 113.783637 220.346794 
L 124.364156 218.382409 
L 133.158656 216.953669 
L 142.46772 215.637997 
L 152.74781 214.401947 
L 162.166991 213.448059 
L 174.470069 212.42446 
L 187.310631 211.581427 
L 201.78876 210.852611 
L 218.019331 210.251813 
L 238.449405 209.732392 
L 264.225914 209.328939 
L 296.556709 209.057934 
L 346.108146 208.886506 
L 425.743406 208.818437 
L 425.743406 208.818437 
" clip-path="url(#pdfd238b4b0)" style="fill: none; stroke: #ff0000; stroke-linecap: square"/>
   </g>
   <g id="line2d_68">
    <path d="M 43.339375 135.940177 
L 44.345276 134.217603 
L 45.351177 132.854722 
L 46.468325 131.714691 
L 47.56886 130.930575 
L 48.669396 130.441483 
L 49.690112 130.219576 
L 50.710828 130.193861 
L 52.373337 130.512493 
L 53.830239 131.100003 
L 55.287141 131.923079 
L 57.500489 133.530792 
L 59.538801 135.301085 
L 61.62457 137.31881 
L 67.268661 143.36551 
L 77.034905 154.171508 
L 83.566465 160.89776 
L 87.150442 164.325522 
L 90.838899 167.644486 
L 96.584486 172.392108 
L 101.890152 176.334918 
L 106.16383 179.220804 
L 111.860885 182.695196 
L 117.770632 185.888193 
L 123.723191 188.724437 
L 129.152027 191.013906 
L 134.870178 193.151846 
L 141.63698 195.360937 
L 148.133237 197.194737 
L 155.485297 198.976706 
L 162.542124 200.43449 
L 170.309719 201.795031 
L 178.660496 203.016328 
L 188.184912 204.155807 
L 197.878637 205.08887 
L 208.335963 205.88945 
L 221.423233 206.65583 
L 237.153663 207.318139 
L 255.701458 207.84436 
L 279.290263 208.255793 
L 309.421261 208.537646 
L 354.557961 208.715281 
L 425.743406 208.789951 
L 425.743406 208.789951 
" clip-path="url(#pdfd238b4b0)" style="fill: none; stroke: #0000ff; stroke-linecap: square"/>
   </g>
   <g id="line2d_69">
    <path d="M 43.339375 135.940177 
L 44.83036 156.828252 
L 46.103577 172.020971 
L 47.376793 185.103168 
L 48.761439 197.246807 
L 50.181853 207.753254 
L 51.724541 217.247719 
L 53.194138 224.709206 
L 54.302898 229.457807 
L 55.927546 235.240385 
L 57.47958 239.647136 
L 59.002231 243.077231 
L 60.538731 245.78197 
L 61.722314 247.423098 
L 62.905896 248.73184 
L 63.860419 249.573828 
L 64.814942 250.246472 
L 65.747622 250.757104 
L 66.680303 251.137858 
L 68.159872 251.508105 
L 69.698518 251.633092 
L 71.451 251.509368 
L 73.303901 251.129891 
L 75.127522 250.559149 
L 77.682895 249.511005 
L 82.566801 246.991593 
L 88.64289 243.427202 
L 98.031053 237.894904 
L 104.607714 234.320315 
L 110.958116 231.193287 
L 116.213564 228.855491 
L 121.197132 226.841446 
L 128.356272 224.271245 
L 134.344791 222.38871 
L 141.325394 220.468532 
L 147.509893 218.986606 
L 155.586748 217.321882 
L 163.722418 215.912259 
L 173.081967 214.56954 
L 183.505992 213.36395 
L 195.000494 212.319044 
L 206.644035 211.500282 
L 220.618437 210.76166 
L 236.67681 210.156082 
L 254.212748 209.704417 
L 278.367368 209.316619 
L 310.020256 209.048049 
L 359.730131 208.880116 
L 425.743406 208.821194 
L 425.743406 208.821194 
" clip-path="url(#pdfd238b4b0)" style="fill: none; stroke: #ff0000; stroke-linecap: square"/>
   </g>
   <g id="line2d_70">
    <path d="M 43.339375 99.507204 
L 44.687026 96.192478 
L 45.899052 94.042545 
L 47.111078 92.570752 
L 47.798766 92.001748 
L 48.486454 91.60611 
L 49.174141 91.369778 
L 49.861829 91.279695 
L 50.528327 91.320494 
L 51.194825 91.477026 
L 52.304368 91.968772 
L 53.413912 92.715104 
L 55.091876 94.24979 
L 55.868512 95.100138 
L 57.421784 97.019487 
L 58.914008 99.089478 
L 61.800449 103.548265 
L 66.025468 110.703229 
L 75.655566 127.427835 
L 79.933846 134.435838 
L 83.035661 139.251743 
L 87.044871 145.115133 
L 90.495179 149.826467 
L 96.001368 156.711616 
L 99.57203 160.776104 
L 104.1334 165.537527 
L 107.778172 169.016502 
L 112.282292 172.945827 
L 115.6401 175.628242 
L 119.557443 178.511606 
L 123.867411 181.401632 
L 128.297275 184.090463 
L 132.851223 186.584485 
L 137.185388 188.727586 
L 142.872782 191.233717 
L 147.531438 193.054678 
L 153.954593 195.263608 
L 160.260328 197.133871 
L 165.951886 198.601504 
L 171.805343 199.920579 
L 179.902153 201.471457 
L 186.943182 202.600282 
L 194.273689 203.592912 
L 204.967362 204.765477 
L 215.484827 205.662982 
L 227.296353 206.437108 
L 241.377762 207.116472 
L 257.504228 207.659985 
L 276.127956 208.075007 
L 301.931051 208.414826 
L 339.382864 208.648842 
L 401.714376 208.771938 
L 425.743406 208.787194 
L 425.743406 208.787194 
" clip-path="url(#pdfd238b4b0)" style="fill: none; stroke: #0000ff; stroke-linecap: square"/>
   </g>
   <g id="line2d_71">
    <path d="M 43.339375 99.507204 
L 44.764901 130.788315 
L 46.188462 157.201022 
L 47.609078 179.43198 
L 48.873668 196.228216 
L 50.394726 213.219772 
L 51.840534 226.579653 
L 53.362663 238.146828 
L 54.829853 247.233333 
L 55.946777 252.983274 
L 57.0637 257.853281 
L 58.115278 261.726523 
L 59.545604 266.025697 
L 60.788851 268.973739 
L 62.321794 271.747915 
L 63.088266 272.824064 
L 63.88124 273.74409 
L 64.674214 274.484809 
L 65.563965 275.122348 
L 66.453716 275.575144 
L 67.562568 275.909299 
L 68.67142 276.018578 
L 70.041349 275.886169 
L 71.846373 275.335529 
L 73.792289 274.35949 
L 76.007552 272.88194 
L 78.209207 271.131684 
L 82.642761 267.082587 
L 99.055972 251.175169 
L 102.872235 247.840591 
L 108.012403 243.681169 
L 113.026111 239.995776 
L 117.479257 237.020582 
L 122.569971 233.943067 
L 127.774277 231.127064 
L 131.670921 229.219327 
L 136.983499 226.870571 
L 143.12197 224.483167 
L 148.672851 222.591675 
L 155.70266 220.514682 
L 160.252219 219.337757 
L 167.568746 217.684671 
L 174.899837 216.285236 
L 183.529502 214.914629 
L 192.860972 213.71078 
L 202.061034 212.754085 
L 212.351311 211.901331 
L 223.693338 211.171388 
L 238.449731 210.471163 
L 254.007273 209.95465 
L 275.242069 209.496614 
L 303.325447 209.157312 
L 340.834976 208.947774 
L 407.423341 208.834054 
L 425.743406 208.823951 
L 425.743406 208.823951 
" clip-path="url(#pdfd238b4b0)" style="fill: none; stroke: #ff0000; stroke-linecap: square"/>
   </g>
   <g id="line2d_72">
    <path d="M 43.339375 63.074231 
L 44.191032 60.125855 
L 45.042689 57.733845 
L 45.913657 55.807408 
L 46.784626 54.354947 
L 47.501585 53.481366 
L 48.218545 52.872482 
L 49.251053 52.415815 
L 50.28356 52.400767 
L 50.876594 52.570362 
L 52.062661 53.255019 
L 52.655695 53.752907 
L 53.692878 54.843214 
L 55.494076 57.303798 
L 57.569301 60.843722 
L 58.880512 63.377679 
L 61.813869 69.63017 
L 65.728332 78.709572 
L 75.482293 101.778093 
L 79.066479 109.77056 
L 83.784999 119.645845 
L 87.578306 127.006153 
L 91.202441 133.54804 
L 95.476769 140.66063 
L 97.027385 143.084757 
L 100.132099 147.698571 
L 102.839212 151.470378 
L 106.372217 156.059615 
L 111.542094 162.142276 
L 113.909463 164.69469 
L 118.536262 169.295351 
L 121.485608 171.978872 
L 126.423524 176.075852 
L 130.72705 179.277608 
L 135.54885 182.498376 
L 141.157937 185.80979 
L 146.24434 188.453858 
L 150.523695 190.443313 
L 156.660589 192.964215 
L 163.29882 195.305524 
L 167.516626 196.611181 
L 174.334994 198.461797 
L 181.524887 200.111689 
L 189.021434 201.553945 
L 196.630637 202.774734 
L 204.646582 203.840344 
L 214.867087 204.931816 
L 226.321707 205.873874 
L 238.500423 206.626635 
L 252.568958 207.25993 
L 269.538649 207.784978 
L 290.883339 208.200836 
L 317.512235 208.491433 
L 358.558671 208.691688 
L 425.743406 208.784437 
L 425.743406 208.784437 
" clip-path="url(#pdfd238b4b0)" style="fill: none; stroke: #0000ff; stroke-linecap: square"/>
   </g>
   <g id="line2d_73">
    <path d="M 43.339375 63.074231 
L 44.69222 103.592936 
L 46.041415 138.019896 
L 47.561577 170.654886 
L 48.967501 195.85928 
L 50.358056 216.762014 
L 51.748611 234.224543 
L 53.079348 248.162688 
L 54.500372 260.473303 
L 55.740053 269.339363 
L 57.04707 277.055237 
L 58.101692 282.214004 
L 59.172545 286.595348 
L 60.243397 290.211839 
L 61.493057 293.582534 
L 62.564571 295.833407 
L 63.100329 296.76097 
L 63.933602 297.965537 
L 64.766874 298.90447 
L 65.529913 299.552893 
L 66.292951 300.017668 
L 67.582088 300.430934 
L 68.95572 300.425081 
L 70.329353 300.031545 
L 71.889341 299.195255 
L 74.212822 297.344301 
L 76.627781 294.852741 
L 79.33666 291.592922 
L 83.765333 285.673554 
L 94.418693 270.98827 
L 98.695481 265.481521 
L 102.59252 260.775036 
L 107.0699 255.761011 
L 110.116472 252.591858 
L 115.704638 247.274954 
L 119.886486 243.694913 
L 124.304289 240.257122 
L 128.853963 237.057971 
L 133.872058 233.895535 
L 138.811633 231.12144 
L 143.943817 228.55832 
L 147.145807 227.108418 
L 152.684887 224.844097 
L 156.113104 223.583773 
L 161.83627 221.694456 
L 168.733215 219.733015 
L 175.234584 218.156086 
L 182.314313 216.69471 
L 189.072201 215.5119 
L 196.760737 214.37895 
L 205.539674 213.316039 
L 215.645146 212.339607 
L 227.205258 211.477715 
L 239.110412 210.808214 
L 254.420882 210.186624 
L 273.115475 209.681988 
L 296.091991 209.306066 
L 327.037747 209.040486 
L 374.921888 208.878339 
L 425.743406 208.826708 
L 425.743406 208.826708 
" clip-path="url(#pdfd238b4b0)" style="fill: none; stroke: #ff0000; stroke-linecap: square"/>
   </g>
   <g id="line2d_74">
    <path d="M 43.339375 26.641258 
L 44.390991 22.200384 
L 45.442606 18.807215 
L 46.52436 16.279827 
L 47.246395 15.077108 
L 47.587751 14.632081 
L 48.270465 13.963538 
L 48.935629 13.577041 
L 49.600794 13.430769 
L 50.265958 13.505198 
L 50.931123 13.782167 
L 51.542505 14.200863 
L 52.765268 15.460628 
L 54.144152 17.465744 
L 55.212566 19.377985 
L 56.991755 23.127793 
L 59.124078 28.342307 
L 61.867531 35.843192 
L 66.333062 49.060073 
L 73.313256 70.094394 
L 78.576411 85.146969 
L 82.658183 96.039082 
L 85.775518 103.84351 
L 89.106721 111.678637 
L 93.559413 121.345988 
L 97.152814 128.498812 
L 100.582522 134.812492 
L 105.031128 142.300992 
L 108.659698 147.863549 
L 111.62345 152.069274 
L 116.426131 158.289687 
L 117.937279 160.104738 
L 122.260487 164.950234 
L 125.242334 168.01191 
L 129.825728 172.310681 
L 134.763104 176.44034 
L 138.768483 179.447195 
L 143.822731 182.848644 
L 148.116363 185.428595 
L 152.950297 188.029312 
L 156.29997 189.66066 
L 162.349792 192.290841 
L 167.991265 194.418351 
L 173.658043 196.280743 
L 179.766496 198.020359 
L 186.306355 199.616997 
L 191.613472 200.737951 
L 199.75708 202.19895 
L 206.968286 203.271 
L 214.543808 204.211046 
L 223.907407 205.156116 
L 232.866656 205.878418 
L 245.556385 206.664482 
L 257.717151 207.219482 
L 273.084882 207.720551 
L 294.191612 208.162038 
L 321.234601 208.476578 
L 359.836773 208.679794 
L 425.743406 208.781681 
L 425.743406 208.781681 
" clip-path="url(#pdfd238b4b0)" style="fill: none; stroke: #0000ff; stroke-linecap: square"/>
   </g>
   <g id="line2d_75">
    <path d="M 43.339375 26.641258 
L 44.708287 78.429572 
L 46.077198 122.424679 
L 47.535123 161.907811 
L 48.821601 191.302044 
L 50.157001 217.154902 
L 51.442984 238.158576 
L 52.88427 257.784701 
L 54.211342 272.702722 
L 55.41188 283.949687 
L 56.630626 293.466451 
L 57.982319 302.075902 
L 59.242911 308.509252 
L 60.414445 313.292797 
L 61.707344 317.413594 
L 62.580372 319.592587 
L 63.686838 321.739627 
L 64.817528 323.306291 
L 65.739002 324.170199 
L 66.673299 324.711151 
L 67.146859 324.868427 
L 68.09398 324.969231 
L 68.756291 324.884726 
L 70.080914 324.378469 
L 70.743225 323.975318 
L 71.881112 323.079941 
L 73.244046 321.715961 
L 75.624761 318.730082 
L 77.256342 316.347896 
L 80.037597 311.859774 
L 84.150419 304.666491 
L 93.707027 287.702612 
L 99.080836 278.851892 
L 103.452559 272.206188 
L 108.17495 265.621928 
L 111.93705 260.81505 
L 116.893837 255.050351 
L 120.913051 250.822655 
L 124.701066 247.17827 
L 129.371936 243.103792 
L 132.852371 240.345036 
L 137.132368 237.249339 
L 142.006384 234.087063 
L 146.834789 231.297214 
L 151.975209 228.661482 
L 157.142323 226.320854 
L 161.853935 224.426267 
L 168.268441 222.170032 
L 173.820733 220.480521 
L 179.394199 218.998238 
L 184.983848 217.699722 
L 192.610423 216.189455 
L 200.235327 214.934807 
L 209.30069 213.716381 
L 217.976277 212.776983 
L 228.125879 211.902698 
L 240.420617 211.096421 
L 255.060377 210.404572 
L 271.662654 209.868532 
L 292.525526 209.441401 
L 320.435294 209.124953 
L 359.847057 208.926243 
L 425.743406 208.829464 
L 425.743406 208.829464 
" clip-path="url(#pdfd238b4b0)" style="fill: none; stroke: #ff0000; stroke-linecap: square"/>
   </g>
   <g id="patch_3">
    <path d="M 43.339375 331.2 
L 43.339375 7.2 
" style="fill: none; stroke: #000000; stroke-width: 0.8; stroke-linejoin: miter; stroke-linecap: square"/>
   </g>
   <g id="patch_4">
    <path d="M 35.691294 208.806124 
L 433.391487 208.806124 
" style="fill: none; stroke: #000000; stroke-width: 0.8; stroke-linejoin: miter; stroke-linecap: square"/>
   </g>
   <g id="legend_1">
    <g id="patch_5">
     <path d="M 388.091487 46.596875 
L 430.391487 46.596875 
L 430.391487 14.2 
L 388.091487 14.2 
z
" style="fill: #4c4c4c; opacity: 0.5; stroke: #4c4c4c; stroke-linejoin: miter"/>
    </g>
    <g id="patch_6">
     <path d="M 386.091487 44.596875 
L 428.391487 44.596875 
L 428.391487 12.2 
L 386.091487 12.2 
z
" style="fill: #ffffff; stroke: #cccccc; stroke-linejoin: miter"/>
    </g>
    <g id="line2d_76">
     <path d="M 395.091487 22.298438 
L 389.591487 22.298438 
" style="fill: none; stroke: #0000ff; stroke-linecap: square"/>
    </g>
    <g id="text_15">
     <!-- $x(t)$ -->
     <g transform="translate(397.591487 25.798438) scale(0.1 -0.1)">
      <defs>
       <path id="Cmmi10-78" d="M 500 184 
Q 613 97 819 97 
Q 1019 97 1172 289 
Q 1325 481 1381 709 
L 1672 1844 
Q 1741 2153 1741 2266 
Q 1741 2425 1652 2544 
Q 1563 2663 1403 2663 
Q 1200 2663 1022 2536 
Q 844 2409 722 2214 
Q 600 2019 550 1819 
Q 538 1778 500 1778 
L 422 1778 
Q 372 1778 372 1838 
L 372 1856 
Q 434 2094 584 2320 
Q 734 2547 951 2687 
Q 1169 2828 1416 2828 
Q 1650 2828 1839 2703 
Q 2028 2578 2106 2363 
Q 2216 2559 2386 2693 
Q 2556 2828 2759 2828 
Q 2897 2828 3040 2779 
Q 3184 2731 3275 2631 
Q 3366 2531 3366 2381 
Q 3366 2219 3261 2101 
Q 3156 1984 2994 1984 
Q 2891 1984 2822 2050 
Q 2753 2116 2753 2216 
Q 2753 2350 2845 2451 
Q 2938 2553 3066 2572 
Q 2950 2663 2747 2663 
Q 2541 2663 2389 2472 
Q 2238 2281 2175 2047 
L 1894 916 
Q 1825 659 1825 494 
Q 1825 331 1917 214 
Q 2009 97 2163 97 
Q 2463 97 2698 361 
Q 2934 625 3009 941 
Q 3022 978 3059 978 
L 3138 978 
Q 3163 978 3178 961 
Q 3194 944 3194 922 
Q 3194 916 3188 903 
Q 3097 522 2806 225 
Q 2516 -72 2150 -72 
Q 1916 -72 1727 54 
Q 1538 181 1459 397 
Q 1359 209 1182 68 
Q 1006 -72 806 -72 
Q 669 -72 523 -23 
Q 378 25 287 125 
Q 197 225 197 378 
Q 197 528 301 651 
Q 406 775 563 775 
Q 669 775 741 711 
Q 813 647 813 544 
Q 813 409 723 309 
Q 634 209 500 184 
z
" transform="scale(0.015625)"/>
       <path id="Cmr10-28" d="M 1984 -1588 
Q 1628 -1306 1370 -942 
Q 1113 -578 948 -165 
Q 784 247 703 697 
Q 622 1147 622 1600 
Q 622 2059 703 2509 
Q 784 2959 951 3375 
Q 1119 3791 1378 4153 
Q 1638 4516 1984 4788 
Q 1984 4800 2016 4800 
L 2075 4800 
Q 2094 4800 2109 4783 
Q 2125 4766 2125 4744 
Q 2125 4716 2113 4703 
Q 1800 4397 1592 4047 
Q 1384 3697 1257 3301 
Q 1131 2906 1075 2482 
Q 1019 2059 1019 1600 
Q 1019 -434 2106 -1491 
Q 2125 -1509 2125 -1544 
Q 2125 -1559 2108 -1579 
Q 2091 -1600 2075 -1600 
L 2016 -1600 
Q 1984 -1600 1984 -1588 
z
" transform="scale(0.015625)"/>
       <path id="Cmr10-29" d="M 416 -1600 
Q 359 -1600 359 -1544 
Q 359 -1516 372 -1503 
Q 1466 -434 1466 1600 
Q 1466 3634 384 4691 
Q 359 4706 359 4744 
Q 359 4766 376 4783 
Q 394 4800 416 4800 
L 475 4800 
Q 494 4800 506 4788 
Q 966 4425 1272 3906 
Q 1578 3388 1720 2800 
Q 1863 2213 1863 1600 
Q 1863 1147 1786 708 
Q 1709 269 1542 -157 
Q 1375 -584 1119 -945 
Q 863 -1306 506 -1588 
Q 494 -1600 475 -1600 
L 416 -1600 
z
" transform="scale(0.015625)"/>
      </defs>
      <use xlink:href="#Cmmi10-78"/>
      <use xlink:href="#Cmr10-28" transform="translate(57.080078 0)"/>
      <use xlink:href="#Cmmi10-74" transform="translate(95.898438 0)"/>
      <use xlink:href="#Cmr10-29" transform="translate(131.982422 0)"/>
     </g>
    </g>
    <g id="line2d_77">
     <path d="M 395.091487 32.596875 
L 389.591487 32.596875 
" style="fill: none; stroke: #ff0000; stroke-linecap: square"/>
    </g>
    <g id="text_16">
     <!-- $dx/dt$ -->
     <g transform="translate(397.591487 36.096875) scale(0.1 -0.1)">
      <defs>
       <path id="Cmmi10-64" d="M 1113 -72 
Q 709 -72 476 233 
Q 244 538 244 953 
Q 244 1363 456 1803 
Q 669 2244 1030 2536 
Q 1391 2828 1806 2828 
Q 1994 2828 2145 2723 
Q 2297 2619 2381 2444 
L 2741 3872 
Q 2766 3981 2772 4044 
Q 2772 4147 2356 4147 
Q 2291 4147 2291 4231 
Q 2294 4247 2305 4287 
Q 2316 4328 2333 4350 
Q 2350 4372 2381 4372 
L 3244 4441 
Q 3322 4441 3322 4359 
L 2400 678 
Q 2356 572 2356 372 
Q 2356 97 2541 97 
Q 2741 97 2845 351 
Q 2950 606 3022 941 
Q 3034 978 3072 978 
L 3150 978 
Q 3175 978 3190 956 
Q 3206 934 3206 916 
Q 3094 469 2961 198 
Q 2828 -72 2528 -72 
Q 2313 -72 2147 54 
Q 1981 181 1941 391 
Q 1528 -72 1113 -72 
z
M 1119 97 
Q 1350 97 1567 270 
Q 1784 444 1941 678 
Q 1947 684 1947 703 
L 2297 2113 
Q 2259 2338 2131 2500 
Q 2003 2663 1791 2663 
Q 1575 2663 1389 2486 
Q 1203 2309 1075 2069 
Q 950 1813 836 1366 
Q 722 919 722 672 
Q 722 450 817 273 
Q 913 97 1119 97 
z
" transform="scale(0.015625)"/>
       <path id="Cmmi10-3d" d="M 359 -1472 
Q 359 -1453 366 -1447 
L 2591 4722 
Q 2603 4759 2634 4779 
Q 2666 4800 2706 4800 
Q 2763 4800 2798 4765 
Q 2834 4731 2834 4672 
L 2834 4647 
L 609 -1522 
Q 572 -1600 488 -1600 
Q 434 -1600 396 -1562 
Q 359 -1525 359 -1472 
z
" transform="scale(0.015625)"/>
      </defs>
      <use xlink:href="#Cmmi10-64"/>
      <use xlink:href="#Cmmi10-78" transform="translate(52.001953 0)"/>
      <use xlink:href="#Cmmi10-3d" transform="translate(109.082031 0)"/>
      <use xlink:href="#Cmmi10-64" transform="translate(159.082031 0)"/>
      <use xlink:href="#Cmmi10-74" transform="translate(211.083984 0)"/>
     </g>
    </g>
   </g>
  </g>
 </g>
 <defs>
  <clipPath id="pdfd238b4b0">
   <rect x="35.691294" y="7.2" width="397.700192" height="324"/>
  </clipPath>
 </defs>
</svg>
