<?xml version="1.0" encoding="utf-8" standalone="no"?>
<!DOCTYPE svg PUBLIC "-//W3C//DTD SVG 1.1//EN"
  "http://www.w3.org/Graphics/SVG/1.1/DTD/svg11.dtd">
<svg xmlns:xlink="http://www.w3.org/1999/xlink" width="452.544702pt" height="335.832646pt" viewBox="0 0 452.544702 335.832646" xmlns="http://www.w3.org/2000/svg" version="1.1">
 <metadata>
  <rdf:RDF xmlns:dc="http://purl.org/dc/elements/1.1/" xmlns:cc="http://creativecommons.org/ns#" xmlns:rdf="http://www.w3.org/1999/02/22-rdf-syntax-ns#">
   <cc:Work>
    <dc:type rdf:resource="http://purl.org/dc/dcmitype/StillImage"/>
    <dc:date>2024-12-16T17:28:20.760205</dc:date>
    <dc:format>image/svg+xml</dc:format>
    <dc:creator>
     <cc:Agent>
      <dc:title>Matplotlib v3.6.2, https://matplotlib.org/</dc:title>
     </cc:Agent>
    </dc:creator>
   </cc:Work>
  </rdf:RDF>
 </metadata>
 <defs>
  <style type="text/css">*{stroke-linejoin: round; stroke-linecap: butt}</style>
 </defs>
 <g id="figure_1">
  <g id="patch_1">
   <path d="M 0 335.832646 
L 452.544702 335.832646 
L 452.544702 0 
L 0 0 
z
" style="fill: #ffffff"/>
  </g>
  <g id="axes_1">
   <g id="patch_2">
    <path d="M 29.748143 328.617538 
L 433.884702 328.617538 
L 433.884702 23.7 
L 29.748143 23.7 
z
" style="fill: #ffffff"/>
   </g>
   <g id="matplotlib.axis_1">
    <g id="xtick_1">
     <g id="line2d_1">
      <defs>
       <path id="m0184f9b182" d="M 0 0 
L 0 3.5 
" style="stroke: #000000; stroke-width: 0.8"/>
      </defs>
      <g>
       <use xlink:href="#m0184f9b182" x="37.52" y="176.158769" style="stroke: #000000; stroke-width: 0.8"/>
      </g>
     </g>
    </g>
    <g id="xtick_2">
     <g id="line2d_2">
      <g>
       <use xlink:href="#m0184f9b182" x="115.238569" y="176.158769" style="stroke: #000000; stroke-width: 0.8"/>
      </g>
     </g>
     <g id="text_1">
      <!-- 1 -->
      <g transform="translate(112.057319 190.757207) scale(0.1 -0.1)">
       <defs>
        <path id="DejaVuSans-31" d="M 794 531 
L 1825 531 
L 1825 4091 
L 703 3866 
L 703 4441 
L 1819 4666 
L 2450 4666 
L 2450 531 
L 3481 531 
L 3481 0 
L 794 0 
L 794 531 
z
" transform="scale(0.015625)"/>
       </defs>
       <use xlink:href="#DejaVuSans-31"/>
      </g>
     </g>
    </g>
    <g id="xtick_3">
     <g id="line2d_3">
      <g>
       <use xlink:href="#m0184f9b182" x="192.957138" y="176.158769" style="stroke: #000000; stroke-width: 0.8"/>
      </g>
     </g>
     <g id="text_2">
      <!-- 2 -->
      <g transform="translate(189.775888 190.757207) scale(0.1 -0.1)">
       <defs>
        <path id="DejaVuSans-32" d="M 1228 531 
L 3431 531 
L 3431 0 
L 469 0 
L 469 531 
Q 828 903 1448 1529 
Q 2069 2156 2228 2338 
Q 2531 2678 2651 2914 
Q 2772 3150 2772 3378 
Q 2772 3750 2511 3984 
Q 2250 4219 1831 4219 
Q 1534 4219 1204 4116 
Q 875 4013 500 3803 
L 500 4441 
Q 881 4594 1212 4672 
Q 1544 4750 1819 4750 
Q 2544 4750 2975 4387 
Q 3406 4025 3406 3419 
Q 3406 3131 3298 2873 
Q 3191 2616 2906 2266 
Q 2828 2175 2409 1742 
Q 1991 1309 1228 531 
z
" transform="scale(0.015625)"/>
       </defs>
       <use xlink:href="#DejaVuSans-32"/>
      </g>
     </g>
    </g>
    <g id="xtick_4">
     <g id="line2d_4">
      <g>
       <use xlink:href="#m0184f9b182" x="270.675707" y="176.158769" style="stroke: #000000; stroke-width: 0.8"/>
      </g>
     </g>
     <g id="text_3">
      <!-- 3 -->
      <g transform="translate(267.494457 190.757207) scale(0.1 -0.1)">
       <defs>
        <path id="DejaVuSans-33" d="M 2597 2516 
Q 3050 2419 3304 2112 
Q 3559 1806 3559 1356 
Q 3559 666 3084 287 
Q 2609 -91 1734 -91 
Q 1441 -91 1130 -33 
Q 819 25 488 141 
L 488 750 
Q 750 597 1062 519 
Q 1375 441 1716 441 
Q 2309 441 2620 675 
Q 2931 909 2931 1356 
Q 2931 1769 2642 2001 
Q 2353 2234 1838 2234 
L 1294 2234 
L 1294 2753 
L 1863 2753 
Q 2328 2753 2575 2939 
Q 2822 3125 2822 3475 
Q 2822 3834 2567 4026 
Q 2313 4219 1838 4219 
Q 1578 4219 1281 4162 
Q 984 4106 628 3988 
L 628 4550 
Q 988 4650 1302 4700 
Q 1616 4750 1894 4750 
Q 2613 4750 3031 4423 
Q 3450 4097 3450 3541 
Q 3450 3153 3228 2886 
Q 3006 2619 2597 2516 
z
" transform="scale(0.015625)"/>
       </defs>
       <use xlink:href="#DejaVuSans-33"/>
      </g>
     </g>
    </g>
    <g id="xtick_5">
     <g id="line2d_5">
      <g>
       <use xlink:href="#m0184f9b182" x="348.394276" y="176.158769" style="stroke: #000000; stroke-width: 0.8"/>
      </g>
     </g>
     <g id="text_4">
      <!-- 4 -->
      <g transform="translate(345.213026 190.757207) scale(0.1 -0.1)">
       <defs>
        <path id="DejaVuSans-34" d="M 2419 4116 
L 825 1625 
L 2419 1625 
L 2419 4116 
z
M 2253 4666 
L 3047 4666 
L 3047 1625 
L 3713 1625 
L 3713 1100 
L 3047 1100 
L 3047 0 
L 2419 0 
L 2419 1100 
L 313 1100 
L 313 1709 
L 2253 4666 
z
" transform="scale(0.015625)"/>
       </defs>
       <use xlink:href="#DejaVuSans-34"/>
      </g>
     </g>
    </g>
    <g id="xtick_6">
     <g id="line2d_6">
      <g>
       <use xlink:href="#m0184f9b182" x="426.112845" y="176.158769" style="stroke: #000000; stroke-width: 0.8"/>
      </g>
     </g>
     <g id="text_5">
      <!-- 5 -->
      <g transform="translate(422.931595 190.757207) scale(0.1 -0.1)">
       <defs>
        <path id="DejaVuSans-35" d="M 691 4666 
L 3169 4666 
L 3169 4134 
L 1269 4134 
L 1269 2991 
Q 1406 3038 1543 3061 
Q 1681 3084 1819 3084 
Q 2600 3084 3056 2656 
Q 3513 2228 3513 1497 
Q 3513 744 3044 326 
Q 2575 -91 1722 -91 
Q 1428 -91 1123 -41 
Q 819 9 494 109 
L 494 744 
Q 775 591 1075 516 
Q 1375 441 1709 441 
Q 2250 441 2565 725 
Q 2881 1009 2881 1497 
Q 2881 1984 2565 2268 
Q 2250 2553 1709 2553 
Q 1456 2553 1204 2497 
Q 953 2441 691 2322 
L 691 4666 
z
" transform="scale(0.015625)"/>
       </defs>
       <use xlink:href="#DejaVuSans-35"/>
      </g>
     </g>
    </g>
    <g id="xtick_7">
     <g id="line2d_7">
      <defs>
       <path id="ma0fb1debc5" d="M 0 0 
L 0 2 
" style="stroke: #000000; stroke-width: 0.6"/>
      </defs>
      <g>
       <use xlink:href="#ma0fb1debc5" x="53.063714" y="176.158769" style="stroke: #000000; stroke-width: 0.6"/>
      </g>
     </g>
    </g>
    <g id="xtick_8">
     <g id="line2d_8">
      <g>
       <use xlink:href="#ma0fb1debc5" x="68.607428" y="176.158769" style="stroke: #000000; stroke-width: 0.6"/>
      </g>
     </g>
    </g>
    <g id="xtick_9">
     <g id="line2d_9">
      <g>
       <use xlink:href="#ma0fb1debc5" x="84.151141" y="176.158769" style="stroke: #000000; stroke-width: 0.6"/>
      </g>
     </g>
    </g>
    <g id="xtick_10">
     <g id="line2d_10">
      <g>
       <use xlink:href="#ma0fb1debc5" x="99.694855" y="176.158769" style="stroke: #000000; stroke-width: 0.6"/>
      </g>
     </g>
    </g>
    <g id="xtick_11">
     <g id="line2d_11">
      <g>
       <use xlink:href="#ma0fb1debc5" x="130.782283" y="176.158769" style="stroke: #000000; stroke-width: 0.6"/>
      </g>
     </g>
    </g>
    <g id="xtick_12">
     <g id="line2d_12">
      <g>
       <use xlink:href="#ma0fb1debc5" x="146.325997" y="176.158769" style="stroke: #000000; stroke-width: 0.6"/>
      </g>
     </g>
    </g>
    <g id="xtick_13">
     <g id="line2d_13">
      <g>
       <use xlink:href="#ma0fb1debc5" x="161.86971" y="176.158769" style="stroke: #000000; stroke-width: 0.6"/>
      </g>
     </g>
    </g>
    <g id="xtick_14">
     <g id="line2d_14">
      <g>
       <use xlink:href="#ma0fb1debc5" x="177.413424" y="176.158769" style="stroke: #000000; stroke-width: 0.6"/>
      </g>
     </g>
    </g>
    <g id="xtick_15">
     <g id="line2d_15">
      <g>
       <use xlink:href="#ma0fb1debc5" x="208.500852" y="176.158769" style="stroke: #000000; stroke-width: 0.6"/>
      </g>
     </g>
    </g>
    <g id="xtick_16">
     <g id="line2d_16">
      <g>
       <use xlink:href="#ma0fb1debc5" x="224.044565" y="176.158769" style="stroke: #000000; stroke-width: 0.6"/>
      </g>
     </g>
    </g>
    <g id="xtick_17">
     <g id="line2d_17">
      <g>
       <use xlink:href="#ma0fb1debc5" x="239.588279" y="176.158769" style="stroke: #000000; stroke-width: 0.6"/>
      </g>
     </g>
    </g>
    <g id="xtick_18">
     <g id="line2d_18">
      <g>
       <use xlink:href="#ma0fb1debc5" x="255.131993" y="176.158769" style="stroke: #000000; stroke-width: 0.6"/>
      </g>
     </g>
    </g>
    <g id="xtick_19">
     <g id="line2d_19">
      <g>
       <use xlink:href="#ma0fb1debc5" x="286.219421" y="176.158769" style="stroke: #000000; stroke-width: 0.6"/>
      </g>
     </g>
    </g>
    <g id="xtick_20">
     <g id="line2d_20">
      <g>
       <use xlink:href="#ma0fb1debc5" x="301.763134" y="176.158769" style="stroke: #000000; stroke-width: 0.6"/>
      </g>
     </g>
    </g>
    <g id="xtick_21">
     <g id="line2d_21">
      <g>
       <use xlink:href="#ma0fb1debc5" x="317.306848" y="176.158769" style="stroke: #000000; stroke-width: 0.6"/>
      </g>
     </g>
    </g>
    <g id="xtick_22">
     <g id="line2d_22">
      <g>
       <use xlink:href="#ma0fb1debc5" x="332.850562" y="176.158769" style="stroke: #000000; stroke-width: 0.6"/>
      </g>
     </g>
    </g>
    <g id="xtick_23">
     <g id="line2d_23">
      <g>
       <use xlink:href="#ma0fb1debc5" x="363.93799" y="176.158769" style="stroke: #000000; stroke-width: 0.6"/>
      </g>
     </g>
    </g>
    <g id="xtick_24">
     <g id="line2d_24">
      <g>
       <use xlink:href="#ma0fb1debc5" x="379.481703" y="176.158769" style="stroke: #000000; stroke-width: 0.6"/>
      </g>
     </g>
    </g>
    <g id="xtick_25">
     <g id="line2d_25">
      <g>
       <use xlink:href="#ma0fb1debc5" x="395.025417" y="176.158769" style="stroke: #000000; stroke-width: 0.6"/>
      </g>
     </g>
    </g>
    <g id="xtick_26">
     <g id="line2d_26">
      <g>
       <use xlink:href="#ma0fb1debc5" x="410.569131" y="176.158769" style="stroke: #000000; stroke-width: 0.6"/>
      </g>
     </g>
    </g>
    <g id="text_6">
     <!-- $t$ -->
     <g transform="translate(441.884702 176.158769) scale(0.16 -0.16)">
      <defs>
       <path id="Cmmi10-74" d="M 397 519 
Q 397 613 416 697 
L 878 2534 
L 206 2534 
Q 141 2534 141 2619 
Q 166 2759 225 2759 
L 934 2759 
L 1191 3803 
Q 1216 3888 1291 3947 
Q 1366 4006 1459 4006 
Q 1541 4006 1595 3957 
Q 1650 3909 1650 3828 
Q 1650 3809 1648 3798 
Q 1647 3788 1644 3775 
L 1388 2759 
L 2047 2759 
Q 2113 2759 2113 2675 
Q 2109 2659 2100 2621 
Q 2091 2584 2075 2559 
Q 2059 2534 2028 2534 
L 1331 2534 
L 872 684 
Q 825 503 825 372 
Q 825 97 1013 97 
Q 1294 97 1511 361 
Q 1728 625 1844 941 
Q 1869 978 1894 978 
L 1972 978 
Q 1997 978 2012 961 
Q 2028 944 2028 922 
Q 2028 909 2022 903 
Q 1881 516 1612 222 
Q 1344 -72 997 -72 
Q 744 -72 570 93 
Q 397 259 397 519 
z
" transform="scale(0.015625)"/>
      </defs>
      <use xlink:href="#Cmmi10-74" transform="translate(0 0.40625)"/>
     </g>
    </g>
   </g>
   <g id="matplotlib.axis_2">
    <g id="ytick_1">
     <g id="line2d_27">
      <defs>
       <path id="m368d0e934b" d="M 0 0 
L -3.5 0 
" style="stroke: #000000; stroke-width: 0.8"/>
      </defs>
      <g>
       <use xlink:href="#m368d0e934b" x="37.52" y="322.75374" style="stroke: #000000; stroke-width: 0.8"/>
      </g>
     </g>
     <g id="text_7">
      <!-- −6 -->
      <g transform="translate(15.777813 326.552958) scale(0.1 -0.1)">
       <defs>
        <path id="DejaVuSans-2212" d="M 678 2272 
L 4684 2272 
L 4684 1741 
L 678 1741 
L 678 2272 
z
" transform="scale(0.015625)"/>
        <path id="DejaVuSans-36" d="M 2113 2584 
Q 1688 2584 1439 2293 
Q 1191 2003 1191 1497 
Q 1191 994 1439 701 
Q 1688 409 2113 409 
Q 2538 409 2786 701 
Q 3034 994 3034 1497 
Q 3034 2003 2786 2293 
Q 2538 2584 2113 2584 
z
M 3366 4563 
L 3366 3988 
Q 3128 4100 2886 4159 
Q 2644 4219 2406 4219 
Q 1781 4219 1451 3797 
Q 1122 3375 1075 2522 
Q 1259 2794 1537 2939 
Q 1816 3084 2150 3084 
Q 2853 3084 3261 2657 
Q 3669 2231 3669 1497 
Q 3669 778 3244 343 
Q 2819 -91 2113 -91 
Q 1303 -91 875 529 
Q 447 1150 447 2328 
Q 447 3434 972 4092 
Q 1497 4750 2381 4750 
Q 2619 4750 2861 4703 
Q 3103 4656 3366 4563 
z
" transform="scale(0.015625)"/>
       </defs>
       <use xlink:href="#DejaVuSans-2212"/>
       <use xlink:href="#DejaVuSans-36" x="83.789062"/>
      </g>
     </g>
    </g>
    <g id="ytick_2">
     <g id="line2d_28">
      <g>
       <use xlink:href="#m368d0e934b" x="37.52" y="273.88875" style="stroke: #000000; stroke-width: 0.8"/>
      </g>
     </g>
     <g id="text_8">
      <!-- −4 -->
      <g transform="translate(15.777813 277.687968) scale(0.1 -0.1)">
       <use xlink:href="#DejaVuSans-2212"/>
       <use xlink:href="#DejaVuSans-34" x="83.789062"/>
      </g>
     </g>
    </g>
    <g id="ytick_3">
     <g id="line2d_29">
      <g>
       <use xlink:href="#m368d0e934b" x="37.52" y="225.023759" style="stroke: #000000; stroke-width: 0.8"/>
      </g>
     </g>
     <g id="text_9">
      <!-- −2 -->
      <g transform="translate(15.777813 228.822978) scale(0.1 -0.1)">
       <use xlink:href="#DejaVuSans-2212"/>
       <use xlink:href="#DejaVuSans-32" x="83.789062"/>
      </g>
     </g>
    </g>
    <g id="ytick_4">
     <g id="line2d_30">
      <g>
       <use xlink:href="#m368d0e934b" x="37.52" y="176.158769" style="stroke: #000000; stroke-width: 0.8"/>
      </g>
     </g>
    </g>
    <g id="ytick_5">
     <g id="line2d_31">
      <g>
       <use xlink:href="#m368d0e934b" x="37.52" y="127.293779" style="stroke: #000000; stroke-width: 0.8"/>
      </g>
     </g>
     <g id="text_10">
      <!-- 2 -->
      <g transform="translate(24.1575 131.092998) scale(0.1 -0.1)">
       <use xlink:href="#DejaVuSans-32"/>
      </g>
     </g>
    </g>
    <g id="ytick_6">
     <g id="line2d_32">
      <g>
       <use xlink:href="#m368d0e934b" x="37.52" y="78.428789" style="stroke: #000000; stroke-width: 0.8"/>
      </g>
     </g>
     <g id="text_11">
      <!-- 4 -->
      <g transform="translate(24.1575 82.228008) scale(0.1 -0.1)">
       <use xlink:href="#DejaVuSans-34"/>
      </g>
     </g>
    </g>
    <g id="ytick_7">
     <g id="line2d_33">
      <g>
       <use xlink:href="#m368d0e934b" x="37.52" y="29.563799" style="stroke: #000000; stroke-width: 0.8"/>
      </g>
     </g>
     <g id="text_12">
      <!-- 6 -->
      <g transform="translate(24.1575 33.363018) scale(0.1 -0.1)">
       <use xlink:href="#DejaVuSans-36"/>
      </g>
     </g>
    </g>
    <g id="ytick_8">
     <g id="line2d_34">
      <defs>
       <path id="m46d3f11a18" d="M 0 0 
L -2 0 
" style="stroke: #000000; stroke-width: 0.6"/>
      </defs>
      <g>
       <use xlink:href="#m46d3f11a18" x="37.52" y="310.537492" style="stroke: #000000; stroke-width: 0.6"/>
      </g>
     </g>
    </g>
    <g id="ytick_9">
     <g id="line2d_35">
      <g>
       <use xlink:href="#m46d3f11a18" x="37.52" y="298.321245" style="stroke: #000000; stroke-width: 0.6"/>
      </g>
     </g>
    </g>
    <g id="ytick_10">
     <g id="line2d_36">
      <g>
       <use xlink:href="#m46d3f11a18" x="37.52" y="286.104997" style="stroke: #000000; stroke-width: 0.6"/>
      </g>
     </g>
    </g>
    <g id="ytick_11">
     <g id="line2d_37">
      <g>
       <use xlink:href="#m46d3f11a18" x="37.52" y="261.672502" style="stroke: #000000; stroke-width: 0.6"/>
      </g>
     </g>
    </g>
    <g id="ytick_12">
     <g id="line2d_38">
      <g>
       <use xlink:href="#m46d3f11a18" x="37.52" y="249.456254" style="stroke: #000000; stroke-width: 0.6"/>
      </g>
     </g>
    </g>
    <g id="ytick_13">
     <g id="line2d_39">
      <g>
       <use xlink:href="#m46d3f11a18" x="37.52" y="237.240007" style="stroke: #000000; stroke-width: 0.6"/>
      </g>
     </g>
    </g>
    <g id="ytick_14">
     <g id="line2d_40">
      <g>
       <use xlink:href="#m46d3f11a18" x="37.52" y="212.807512" style="stroke: #000000; stroke-width: 0.6"/>
      </g>
     </g>
    </g>
    <g id="ytick_15">
     <g id="line2d_41">
      <g>
       <use xlink:href="#m46d3f11a18" x="37.52" y="200.591264" style="stroke: #000000; stroke-width: 0.6"/>
      </g>
     </g>
    </g>
    <g id="ytick_16">
     <g id="line2d_42">
      <g>
       <use xlink:href="#m46d3f11a18" x="37.52" y="188.375017" style="stroke: #000000; stroke-width: 0.6"/>
      </g>
     </g>
    </g>
    <g id="ytick_17">
     <g id="line2d_43">
      <g>
       <use xlink:href="#m46d3f11a18" x="37.52" y="163.942522" style="stroke: #000000; stroke-width: 0.6"/>
      </g>
     </g>
    </g>
    <g id="ytick_18">
     <g id="line2d_44">
      <g>
       <use xlink:href="#m46d3f11a18" x="37.52" y="151.726274" style="stroke: #000000; stroke-width: 0.6"/>
      </g>
     </g>
    </g>
    <g id="ytick_19">
     <g id="line2d_45">
      <g>
       <use xlink:href="#m46d3f11a18" x="37.52" y="139.510027" style="stroke: #000000; stroke-width: 0.6"/>
      </g>
     </g>
    </g>
    <g id="ytick_20">
     <g id="line2d_46">
      <g>
       <use xlink:href="#m46d3f11a18" x="37.52" y="115.077532" style="stroke: #000000; stroke-width: 0.6"/>
      </g>
     </g>
    </g>
    <g id="ytick_21">
     <g id="line2d_47">
      <g>
       <use xlink:href="#m46d3f11a18" x="37.52" y="102.861284" style="stroke: #000000; stroke-width: 0.6"/>
      </g>
     </g>
    </g>
    <g id="ytick_22">
     <g id="line2d_48">
      <g>
       <use xlink:href="#m46d3f11a18" x="37.52" y="90.645036" style="stroke: #000000; stroke-width: 0.6"/>
      </g>
     </g>
    </g>
    <g id="ytick_23">
     <g id="line2d_49">
      <g>
       <use xlink:href="#m46d3f11a18" x="37.52" y="66.212541" style="stroke: #000000; stroke-width: 0.6"/>
      </g>
     </g>
    </g>
    <g id="ytick_24">
     <g id="line2d_50">
      <g>
       <use xlink:href="#m46d3f11a18" x="37.52" y="53.996294" style="stroke: #000000; stroke-width: 0.6"/>
      </g>
     </g>
    </g>
    <g id="ytick_25">
     <g id="line2d_51">
      <g>
       <use xlink:href="#m46d3f11a18" x="37.52" y="41.780046" style="stroke: #000000; stroke-width: 0.6"/>
      </g>
     </g>
    </g>
    <g id="text_13">
     <!-- $x(t), v(t)$ -->
     <g transform="translate(7.2 11.7) scale(0.16 -0.16)">
      <defs>
       <path id="Cmmi10-78" d="M 500 184 
Q 613 97 819 97 
Q 1019 97 1172 289 
Q 1325 481 1381 709 
L 1672 1844 
Q 1741 2153 1741 2266 
Q 1741 2425 1652 2544 
Q 1563 2663 1403 2663 
Q 1200 2663 1022 2536 
Q 844 2409 722 2214 
Q 600 2019 550 1819 
Q 538 1778 500 1778 
L 422 1778 
Q 372 1778 372 1838 
L 372 1856 
Q 434 2094 584 2320 
Q 734 2547 951 2687 
Q 1169 2828 1416 2828 
Q 1650 2828 1839 2703 
Q 2028 2578 2106 2363 
Q 2216 2559 2386 2693 
Q 2556 2828 2759 2828 
Q 2897 2828 3040 2779 
Q 3184 2731 3275 2631 
Q 3366 2531 3366 2381 
Q 3366 2219 3261 2101 
Q 3156 1984 2994 1984 
Q 2891 1984 2822 2050 
Q 2753 2116 2753 2216 
Q 2753 2350 2845 2451 
Q 2938 2553 3066 2572 
Q 2950 2663 2747 2663 
Q 2541 2663 2389 2472 
Q 2238 2281 2175 2047 
L 1894 916 
Q 1825 659 1825 494 
Q 1825 331 1917 214 
Q 2009 97 2163 97 
Q 2463 97 2698 361 
Q 2934 625 3009 941 
Q 3022 978 3059 978 
L 3138 978 
Q 3163 978 3178 961 
Q 3194 944 3194 922 
Q 3194 916 3188 903 
Q 3097 522 2806 225 
Q 2516 -72 2150 -72 
Q 1916 -72 1727 54 
Q 1538 181 1459 397 
Q 1359 209 1182 68 
Q 1006 -72 806 -72 
Q 669 -72 523 -23 
Q 378 25 287 125 
Q 197 225 197 378 
Q 197 528 301 651 
Q 406 775 563 775 
Q 669 775 741 711 
Q 813 647 813 544 
Q 813 409 723 309 
Q 634 209 500 184 
z
" transform="scale(0.015625)"/>
       <path id="Cmr10-28" d="M 1984 -1588 
Q 1628 -1306 1370 -942 
Q 1113 -578 948 -165 
Q 784 247 703 697 
Q 622 1147 622 1600 
Q 622 2059 703 2509 
Q 784 2959 951 3375 
Q 1119 3791 1378 4153 
Q 1638 4516 1984 4788 
Q 1984 4800 2016 4800 
L 2075 4800 
Q 2094 4800 2109 4783 
Q 2125 4766 2125 4744 
Q 2125 4716 2113 4703 
Q 1800 4397 1592 4047 
Q 1384 3697 1257 3301 
Q 1131 2906 1075 2482 
Q 1019 2059 1019 1600 
Q 1019 -434 2106 -1491 
Q 2125 -1509 2125 -1544 
Q 2125 -1559 2108 -1579 
Q 2091 -1600 2075 -1600 
L 2016 -1600 
Q 1984 -1600 1984 -1588 
z
" transform="scale(0.015625)"/>
       <path id="Cmr10-29" d="M 416 -1600 
Q 359 -1600 359 -1544 
Q 359 -1516 372 -1503 
Q 1466 -434 1466 1600 
Q 1466 3634 384 4691 
Q 359 4706 359 4744 
Q 359 4766 376 4783 
Q 394 4800 416 4800 
L 475 4800 
Q 494 4800 506 4788 
Q 966 4425 1272 3906 
Q 1578 3388 1720 2800 
Q 1863 2213 1863 1600 
Q 1863 1147 1786 708 
Q 1709 269 1542 -157 
Q 1375 -584 1119 -945 
Q 863 -1306 506 -1588 
Q 494 -1600 475 -1600 
L 416 -1600 
z
" transform="scale(0.015625)"/>
       <path id="Cmmi10-3b" d="M 634 -1153 
Q 634 -1125 659 -1100 
Q 891 -878 1019 -587 
Q 1147 -297 1147 25 
L 1147 103 
Q 1044 0 891 0 
Q 744 0 641 103 
Q 538 206 538 353 
Q 538 503 641 603 
Q 744 703 891 703 
Q 1119 703 1216 492 
Q 1313 281 1313 25 
Q 1313 -331 1170 -651 
Q 1028 -972 769 -1228 
Q 744 -1241 728 -1241 
Q 697 -1241 665 -1212 
Q 634 -1184 634 -1153 
z
" transform="scale(0.015625)"/>
       <path id="Cmmi10-76" d="M 684 722 
Q 684 866 718 1037 
Q 753 1209 787 1320 
Q 822 1431 944 1753 
Q 1066 2075 1069 2088 
Q 1153 2322 1153 2472 
Q 1153 2663 1013 2663 
Q 759 2663 595 2402 
Q 431 2141 353 1819 
Q 341 1778 300 1778 
L 225 1778 
Q 172 1778 172 1838 
L 172 1856 
Q 275 2238 487 2533 
Q 700 2828 1025 2828 
Q 1253 2828 1411 2678 
Q 1569 2528 1569 2297 
Q 1569 2178 1516 2047 
Q 1391 1722 1319 1526 
Q 1247 1331 1186 1089 
Q 1125 847 1125 641 
Q 1125 400 1236 248 
Q 1347 97 1581 97 
Q 2025 97 2381 781 
Q 2494 1003 2594 1303 
Q 2694 1603 2694 1791 
Q 2694 1984 2631 2092 
Q 2569 2200 2469 2317 
Q 2369 2434 2369 2503 
Q 2369 2628 2472 2731 
Q 2575 2834 2700 2834 
Q 2853 2834 2920 2693 
Q 2988 2553 2988 2375 
Q 2988 2163 2927 1869 
Q 2866 1575 2758 1259 
Q 2650 944 2559 763 
Q 2138 -72 1575 -72 
Q 1172 -72 928 129 
Q 684 331 684 722 
z
" transform="scale(0.015625)"/>
      </defs>
      <use xlink:href="#Cmmi10-78"/>
      <use xlink:href="#Cmr10-28" transform="translate(57.080078 0)"/>
      <use xlink:href="#Cmmi10-74" transform="translate(95.898438 0)"/>
      <use xlink:href="#Cmr10-29" transform="translate(131.982422 0)"/>
      <use xlink:href="#Cmmi10-3b" transform="translate(170.800781 0)"/>
      <use xlink:href="#Cmmi10-76" transform="translate(216.044922 0)"/>
      <use xlink:href="#Cmr10-28" transform="translate(264.433594 0)"/>
      <use xlink:href="#Cmmi10-74" transform="translate(303.251953 0)"/>
      <use xlink:href="#Cmr10-29" transform="translate(339.335938 0)"/>
     </g>
    </g>
   </g>
   <g id="line2d_52">
    <path d="M 37.52 127.293779 
L 39.588105 126.79994 
L 41.227147 126.63179 
L 42.870253 126.662145 
L 44.690492 126.928131 
L 46.239551 127.345925 
L 48.226733 128.137081 
L 50.209442 129.207927 
L 51.853239 130.304465 
L 53.743743 131.793446 
L 56.115469 133.994345 
L 58.06785 136.072024 
L 60.583071 139.082277 
L 63.266371 142.67794 
L 66.126257 146.904299 
L 69.471917 152.296628 
L 72.791401 158.039793 
L 77.306721 166.309835 
L 93.560557 196.686959 
L 97.302102 202.962176 
L 100.210722 207.461158 
L 102.591172 210.852272 
L 104.998309 213.983641 
L 107.277484 216.648185 
L 109.814143 219.244655 
L 111.815905 221.003329 
L 113.698827 222.413509 
L 115.513622 223.541592 
L 117.232565 224.39583 
L 119.386069 225.166087 
L 121.322263 225.569777 
L 123.197814 225.697785 
L 125.163964 225.553332 
L 127.065635 225.143052 
L 128.768921 224.551496 
L 130.798174 223.574027 
L 132.565077 222.485854 
L 134.617882 220.951476 
L 137.188988 218.63448 
L 139.822812 215.827723 
L 142.611435 212.410189 
L 145.195206 208.86823 
L 148.443706 203.958323 
L 151.977484 198.124249 
L 155.795445 191.365836 
L 160.375466 182.83688 
L 172.75127 159.521466 
L 176.546019 152.889028 
L 179.909122 147.423328 
L 183.162657 142.595022 
L 185.654776 139.250532 
L 188.394649 135.968507 
L 191.032175 133.232967 
L 193.36637 131.182038 
L 195.428197 129.673462 
L 197.630462 128.387381 
L 199.82822 127.447885 
L 201.863459 126.890212 
L 203.996859 126.631945 
L 205.8748 126.682399 
L 207.470448 126.929531 
L 209.16955 127.397905 
L 210.814889 128.051314 
L 212.801096 129.098223 
L 214.72017 130.372458 
L 216.728802 131.975017 
L 219.243303 134.35408 
L 221.797231 137.173146 
L 224.219288 140.196899 
L 226.992545 144.043136 
L 230.269826 149.058692 
L 234.062022 155.397213 
L 238.233556 162.877194 
L 244.845625 175.356644 
L 252.731444 190.239404 
L 257.009844 197.856129 
L 260.416429 203.508124 
L 263.700492 208.510822 
L 266.304904 212.112709 
L 269.000459 215.45788 
L 271.560754 218.242073 
L 273.965594 220.483609 
L 275.985956 222.072448 
L 277.843812 223.287354 
L 280.029024 224.405858 
L 281.581166 224.992306 
L 283.249639 225.427224 
L 285.241922 225.678843 
L 286.636221 225.680838 
L 288.118226 225.525734 
L 290.148536 225.051233 
L 291.871078 224.413143 
L 293.7317 223.484422 
L 295.790855 222.172382 
L 297.554315 220.81742 
L 299.693185 218.897088 
L 301.406335 217.148287 
L 303.602172 214.645867 
L 305.812307 211.848149 
L 308.758016 207.719502 
L 311.944644 202.795968 
L 315.125184 197.480413 
L 319.746602 189.20742 
L 324.228384 180.786193 
L 334.777009 160.874861 
L 339.186219 153.11418 
L 342.593457 147.562216 
L 345.89509 142.65267 
L 348.603382 139.027888 
L 351.092993 136.052577 
L 353.674941 133.358198 
L 355.930394 131.351327 
L 357.684454 130.024525 
L 359.797369 128.707481 
L 361.504243 127.873555 
L 362.888901 127.350851 
L 364.785288 126.8614 
L 366.409814 126.652032 
L 368.041333 126.637634 
L 369.891774 126.858908 
L 371.77757 127.34307 
L 373.50979 128.015714 
L 375.090395 128.817319 
L 376.982702 130.008415 
L 379.078001 131.614122 
L 381.552627 133.884681 
L 383.905988 136.401898 
L 386.565123 139.639509 
L 389.354369 143.447984 
L 391.99087 147.396971 
L 395.278035 152.732412 
L 398.349936 158.060716 
L 403.442672 167.416437 
L 418.275115 195.228267 
L 421.627161 200.968364 
L 424.908893 206.186843 
L 426.112845 207.98486 
L 426.112845 207.98486 
" clip-path="url(#p13c2aec368)" style="fill: none; stroke: #0000ff; stroke-width: 2; stroke-linecap: square"/>
   </g>
   <g id="line2d_53">
    <path d="M 37.52 151.726274 
L 51.319284 229.556497 
L 54.751906 247.411792 
L 57.735873 261.928983 
L 60.342588 273.686894 
L 63.11195 285.095038 
L 65.423243 293.669158 
L 67.546617 300.723831 
L 69.395776 306.187647 
L 71.129945 310.710451 
L 72.934931 314.777565 
L 74.437026 317.650122 
L 76.012089 320.151312 
L 77.538308 322.067408 
L 78.639553 323.135844 
L 79.89134 324.027768 
L 80.830181 324.470269 
L 81.644695 324.696405 
L 82.487227 324.775833 
L 83.329758 324.698081 
L 84.172289 324.463233 
L 85.388786 323.847519 
L 86.739829 322.782182 
L 88.090873 321.318154 
L 89.357456 319.58709 
L 90.790502 317.215462 
L 92.162517 314.540387 
L 93.625989 311.259485 
L 95.483666 306.475516 
L 97.118918 301.709139 
L 99.072492 295.361113 
L 101.398165 286.923809 
L 103.905176 276.831655 
L 106.688012 264.530269 
L 109.854804 249.300812 
L 113.418533 230.869061 
L 117.538791 208.294156 
L 125.238924 164.388674 
L 131.400081 129.817245 
L 135.404737 108.628419 
L 138.666358 92.539064 
L 141.648671 78.98006 
L 144.1289 68.676403 
L 146.457628 59.896559 
L 148.751786 52.164745 
L 150.694583 46.374795 
L 152.563963 41.492027 
L 154.270152 37.646727 
L 155.93933 34.465926 
L 157.381853 32.190299 
L 158.634957 30.575485 
L 159.832116 29.350812 
L 161.029275 28.43959 
L 161.982779 27.939397 
L 163.182608 27.595306 
L 164.382437 27.56983 
L 165.381888 27.791911 
L 166.399213 28.244719 
L 167.652665 29.116138 
L 168.892559 30.316742 
L 170.132454 31.851358 
L 171.362879 33.700986 
L 172.939179 36.539362 
L 174.439208 39.720431 
L 176.101954 43.780474 
L 178.069423 49.287281 
L 180.025896 55.488669 
L 182.213444 63.235283 
L 184.460505 72.02992 
L 187.016907 82.983335 
L 189.84883 96.170905 
L 193.294054 113.485687 
L 196.845803 132.491028 
L 201.797603 160.274531 
L 212.840157 222.791159 
L 216.422712 241.798077 
L 219.612407 257.676703 
L 222.507257 271.025255 
L 225.305393 282.804804 
L 227.514881 291.234358 
L 229.946724 299.542958 
L 231.922753 305.497228 
L 233.686719 310.178056 
L 235.586495 314.524021 
L 237.085154 317.428627 
L 238.543972 319.802131 
L 239.858368 321.550862 
L 240.820757 322.594193 
L 242.130649 323.68934 
L 243.245818 324.324592 
L 244.360988 324.685336 
L 245.522595 324.768494 
L 246.358916 324.643386 
L 247.501535 324.222395 
L 248.536844 323.592221 
L 249.780243 322.52433 
L 251.121077 320.995078 
L 252.345931 319.258957 
L 253.78346 316.813765 
L 255.477064 313.378105 
L 257.094148 309.550332 
L 258.721091 305.174922 
L 260.724697 299.089586 
L 262.623696 292.64292 
L 264.861876 284.244446 
L 267.08784 275.09201 
L 269.657445 263.623525 
L 272.22793 251.290875 
L 275.6432 233.783394 
L 279.551435 212.540645 
L 284.786295 182.880871 
L 293.471413 133.660508 
L 297.515591 112.035888 
L 300.853883 95.338694 
L 303.850723 81.483312 
L 306.222674 71.405656 
L 308.655617 61.981245 
L 310.729128 54.740436 
L 312.753788 48.420054 
L 314.582986 43.379412 
L 316.458308 38.898805 
L 318.246802 35.295146 
L 319.727085 32.819454 
L 320.969655 31.102239 
L 322.212226 29.718673 
L 323.355158 28.743388 
L 324.630562 27.993818 
L 325.6258 27.658244 
L 326.621038 27.541809 
L 327.69441 27.662044 
L 328.570797 27.949252 
L 329.514565 28.448186 
L 330.731339 29.38059 
L 331.823367 30.493132 
L 333.208008 32.275582 
L 334.622057 34.519966 
L 336.236103 37.596956 
L 337.752458 40.977811 
L 339.256679 44.789108 
L 341.296928 50.663453 
L 343.419176 57.59882 
L 345.766722 66.19467 
L 348.106732 75.661022 
L 350.542735 86.385002 
L 353.440357 100.165796 
L 356.382913 115.131263 
L 360.428906 136.951703 
L 366.094858 168.988937 
L 374.724641 217.922775 
L 378.786732 239.682987 
L 382.203816 256.801782 
L 385.123366 270.328965 
L 387.806369 281.710512 
L 390.267052 291.157289 
L 392.47347 298.748635 
L 394.585637 305.183796 
L 396.423212 310.086436 
L 398.208195 314.20405 
L 399.876552 317.460673 
L 401.449683 319.994994 
L 402.744754 321.683787 
L 404.138622 323.095044 
L 405.495107 324.06017 
L 406.730282 324.586382 
L 407.904801 324.773856 
L 409.07932 324.655906 
L 410.115442 324.298473 
L 411.151564 323.704106 
L 412.175971 322.884458 
L 413.200377 321.835414 
L 414.651601 319.959883 
L 416.022792 317.773161 
L 417.564102 314.84198 
L 418.990293 311.692322 
L 420.669775 307.457544 
L 422.520914 302.151624 
L 424.469272 295.873027 
L 426.112845 290.048767 
L 426.112845 290.048767 
" clip-path="url(#p13c2aec368)" style="fill: none; stroke: #ff0000; stroke-width: 2; stroke-linecap: square"/>
   </g>
   <g id="patch_3">
    <path d="M 37.52 328.617538 
L 37.52 23.7 
" style="fill: none; stroke: #000000; stroke-width: 0.8; stroke-linejoin: miter; stroke-linecap: square"/>
   </g>
   <g id="patch_4">
    <path d="M 29.748143 176.158769 
L 433.884702 176.158769 
" style="fill: none; stroke: #000000; stroke-width: 0.8; stroke-linejoin: miter; stroke-linecap: square"/>
   </g>
   <g id="legend_1">
    <g id="patch_5">
     <path d="M 396.284702 63.096875 
L 430.884702 63.096875 
L 430.884702 30.7 
L 396.284702 30.7 
z
" style="fill: #4c4c4c; opacity: 0.5; stroke: #4c4c4c; stroke-linejoin: miter"/>
    </g>
    <g id="patch_6">
     <path d="M 394.284702 61.096875 
L 428.884702 61.096875 
L 428.884702 28.7 
L 394.284702 28.7 
z
" style="fill: #ffffff; stroke: #cccccc; stroke-linejoin: miter"/>
    </g>
    <g id="line2d_54">
     <path d="M 403.284702 38.798438 
L 397.784702 38.798438 
" style="fill: none; stroke: #0000ff; stroke-width: 2; stroke-linecap: square"/>
    </g>
    <g id="text_14">
     <!-- $x(t)$ -->
     <g transform="translate(405.784702 42.298438) scale(0.1 -0.1)">
      <use xlink:href="#Cmmi10-78"/>
      <use xlink:href="#Cmr10-28" transform="translate(57.080078 0)"/>
      <use xlink:href="#Cmmi10-74" transform="translate(95.898438 0)"/>
      <use xlink:href="#Cmr10-29" transform="translate(131.982422 0)"/>
     </g>
    </g>
    <g id="line2d_55">
     <path d="M 403.284702 49.096875 
L 397.784702 49.096875 
" style="fill: none; stroke: #ff0000; stroke-width: 2; stroke-linecap: square"/>
    </g>
    <g id="text_15">
     <!-- $v(t)$ -->
     <g transform="translate(405.784702 52.596875) scale(0.1 -0.1)">
      <use xlink:href="#Cmmi10-76"/>
      <use xlink:href="#Cmr10-28" transform="translate(48.388672 0)"/>
      <use xlink:href="#Cmmi10-74" transform="translate(87.207031 0)"/>
      <use xlink:href="#Cmr10-29" transform="translate(123.291016 0)"/>
     </g>
    </g>
   </g>
  </g>
 </g>
 <defs>
  <clipPath id="p13c2aec368">
   <rect x="29.748143" y="23.7" width="404.136559" height="304.917538"/>
  </clipPath>
 </defs>
</svg>
