<?xml version="1.0" encoding="utf-8" standalone="no"?>
<!DOCTYPE svg PUBLIC "-//W3C//DTD SVG 1.1//EN"
  "http://www.w3.org/Graphics/SVG/1.1/DTD/svg11.dtd">
<svg xmlns:xlink="http://www.w3.org/1999/xlink" width="452.923823pt" height="336.88pt" viewBox="0 0 452.923823 336.88" xmlns="http://www.w3.org/2000/svg" version="1.1">
 <metadata>
  <rdf:RDF xmlns:dc="http://purl.org/dc/elements/1.1/" xmlns:cc="http://creativecommons.org/ns#" xmlns:rdf="http://www.w3.org/1999/02/22-rdf-syntax-ns#">
   <cc:Work>
    <dc:type rdf:resource="http://purl.org/dc/dcmitype/StillImage"/>
    <dc:date>2025-02-01T17:27:28.557960</dc:date>
    <dc:format>image/svg+xml</dc:format>
    <dc:creator>
     <cc:Agent>
      <dc:title>Matplotlib v3.6.2, https://matplotlib.org/</dc:title>
     </cc:Agent>
    </dc:creator>
   </cc:Work>
  </rdf:RDF>
 </metadata>
 <defs>
  <style type="text/css">*{stroke-linejoin: round; stroke-linecap: butt}</style>
 </defs>
 <g id="figure_1">
  <g id="patch_1">
   <path d="M 0 336.88 
L 452.923823 336.88 
L 452.923823 0 
L 0 0 
z
" style="fill: #ffffff"/>
  </g>
  <g id="axes_1">
   <g id="patch_2">
    <path d="M 37.291592 329.68 
L 433.708823 329.68 
L 433.708823 25.2 
L 37.291592 25.2 
z
" style="fill: #ffffff"/>
   </g>
   <g id="matplotlib.axis_1">
    <g id="xtick_1">
     <g id="line2d_1">
      <defs>
       <path id="m3cb342b84f" d="M 0 0 
L 0 3.5 
" style="stroke: #000000; stroke-width: 0.8"/>
      </defs>
      <g>
       <use xlink:href="#m3cb342b84f" x="44.915" y="198.372074" style="stroke: #000000; stroke-width: 0.8"/>
      </g>
     </g>
    </g>
    <g id="xtick_2">
     <g id="line2d_2">
      <g>
       <use xlink:href="#m3cb342b84f" x="92.561302" y="198.372074" style="stroke: #000000; stroke-width: 0.8"/>
      </g>
     </g>
     <g id="text_1">
      <!-- 10 -->
      <g transform="translate(84.926302 214.490199) scale(0.12 -0.12)">
       <defs>
        <path id="DejaVuSans-31" d="M 794 531 
L 1825 531 
L 1825 4091 
L 703 3866 
L 703 4441 
L 1819 4666 
L 2450 4666 
L 2450 531 
L 3481 531 
L 3481 0 
L 794 0 
L 794 531 
z
" transform="scale(0.015625)"/>
        <path id="DejaVuSans-30" d="M 2034 4250 
Q 1547 4250 1301 3770 
Q 1056 3291 1056 2328 
Q 1056 1369 1301 889 
Q 1547 409 2034 409 
Q 2525 409 2770 889 
Q 3016 1369 3016 2328 
Q 3016 3291 2770 3770 
Q 2525 4250 2034 4250 
z
M 2034 4750 
Q 2819 4750 3233 4129 
Q 3647 3509 3647 2328 
Q 3647 1150 3233 529 
Q 2819 -91 2034 -91 
Q 1250 -91 836 529 
Q 422 1150 422 2328 
Q 422 3509 836 4129 
Q 1250 4750 2034 4750 
z
" transform="scale(0.015625)"/>
       </defs>
       <use xlink:href="#DejaVuSans-31"/>
       <use xlink:href="#DejaVuSans-30" x="63.623047"/>
      </g>
     </g>
    </g>
    <g id="xtick_3">
     <g id="line2d_3">
      <g>
       <use xlink:href="#m3cb342b84f" x="140.207604" y="198.372074" style="stroke: #000000; stroke-width: 0.8"/>
      </g>
     </g>
     <g id="text_2">
      <!-- 20 -->
      <g transform="translate(132.572604 214.490199) scale(0.12 -0.12)">
       <defs>
        <path id="DejaVuSans-32" d="M 1228 531 
L 3431 531 
L 3431 0 
L 469 0 
L 469 531 
Q 828 903 1448 1529 
Q 2069 2156 2228 2338 
Q 2531 2678 2651 2914 
Q 2772 3150 2772 3378 
Q 2772 3750 2511 3984 
Q 2250 4219 1831 4219 
Q 1534 4219 1204 4116 
Q 875 4013 500 3803 
L 500 4441 
Q 881 4594 1212 4672 
Q 1544 4750 1819 4750 
Q 2544 4750 2975 4387 
Q 3406 4025 3406 3419 
Q 3406 3131 3298 2873 
Q 3191 2616 2906 2266 
Q 2828 2175 2409 1742 
Q 1991 1309 1228 531 
z
" transform="scale(0.015625)"/>
       </defs>
       <use xlink:href="#DejaVuSans-32"/>
       <use xlink:href="#DejaVuSans-30" x="63.623047"/>
      </g>
     </g>
    </g>
    <g id="xtick_4">
     <g id="line2d_4">
      <g>
       <use xlink:href="#m3cb342b84f" x="187.853906" y="198.372074" style="stroke: #000000; stroke-width: 0.8"/>
      </g>
     </g>
     <g id="text_3">
      <!-- 30 -->
      <g transform="translate(180.218906 214.490199) scale(0.12 -0.12)">
       <defs>
        <path id="DejaVuSans-33" d="M 2597 2516 
Q 3050 2419 3304 2112 
Q 3559 1806 3559 1356 
Q 3559 666 3084 287 
Q 2609 -91 1734 -91 
Q 1441 -91 1130 -33 
Q 819 25 488 141 
L 488 750 
Q 750 597 1062 519 
Q 1375 441 1716 441 
Q 2309 441 2620 675 
Q 2931 909 2931 1356 
Q 2931 1769 2642 2001 
Q 2353 2234 1838 2234 
L 1294 2234 
L 1294 2753 
L 1863 2753 
Q 2328 2753 2575 2939 
Q 2822 3125 2822 3475 
Q 2822 3834 2567 4026 
Q 2313 4219 1838 4219 
Q 1578 4219 1281 4162 
Q 984 4106 628 3988 
L 628 4550 
Q 988 4650 1302 4700 
Q 1616 4750 1894 4750 
Q 2613 4750 3031 4423 
Q 3450 4097 3450 3541 
Q 3450 3153 3228 2886 
Q 3006 2619 2597 2516 
z
" transform="scale(0.015625)"/>
       </defs>
       <use xlink:href="#DejaVuSans-33"/>
       <use xlink:href="#DejaVuSans-30" x="63.623047"/>
      </g>
     </g>
    </g>
    <g id="xtick_5">
     <g id="line2d_5">
      <g>
       <use xlink:href="#m3cb342b84f" x="235.500207" y="198.372074" style="stroke: #000000; stroke-width: 0.8"/>
      </g>
     </g>
     <g id="text_4">
      <!-- 40 -->
      <g transform="translate(227.865207 214.490199) scale(0.12 -0.12)">
       <defs>
        <path id="DejaVuSans-34" d="M 2419 4116 
L 825 1625 
L 2419 1625 
L 2419 4116 
z
M 2253 4666 
L 3047 4666 
L 3047 1625 
L 3713 1625 
L 3713 1100 
L 3047 1100 
L 3047 0 
L 2419 0 
L 2419 1100 
L 313 1100 
L 313 1709 
L 2253 4666 
z
" transform="scale(0.015625)"/>
       </defs>
       <use xlink:href="#DejaVuSans-34"/>
       <use xlink:href="#DejaVuSans-30" x="63.623047"/>
      </g>
     </g>
    </g>
    <g id="xtick_6">
     <g id="line2d_6">
      <g>
       <use xlink:href="#m3cb342b84f" x="283.146509" y="198.372074" style="stroke: #000000; stroke-width: 0.8"/>
      </g>
     </g>
     <g id="text_5">
      <!-- 50 -->
      <g transform="translate(275.511509 214.490199) scale(0.12 -0.12)">
       <defs>
        <path id="DejaVuSans-35" d="M 691 4666 
L 3169 4666 
L 3169 4134 
L 1269 4134 
L 1269 2991 
Q 1406 3038 1543 3061 
Q 1681 3084 1819 3084 
Q 2600 3084 3056 2656 
Q 3513 2228 3513 1497 
Q 3513 744 3044 326 
Q 2575 -91 1722 -91 
Q 1428 -91 1123 -41 
Q 819 9 494 109 
L 494 744 
Q 775 591 1075 516 
Q 1375 441 1709 441 
Q 2250 441 2565 725 
Q 2881 1009 2881 1497 
Q 2881 1984 2565 2268 
Q 2250 2553 1709 2553 
Q 1456 2553 1204 2497 
Q 953 2441 691 2322 
L 691 4666 
z
" transform="scale(0.015625)"/>
       </defs>
       <use xlink:href="#DejaVuSans-35"/>
       <use xlink:href="#DejaVuSans-30" x="63.623047"/>
      </g>
     </g>
    </g>
    <g id="xtick_7">
     <g id="line2d_7">
      <g>
       <use xlink:href="#m3cb342b84f" x="330.792811" y="198.372074" style="stroke: #000000; stroke-width: 0.8"/>
      </g>
     </g>
     <g id="text_6">
      <!-- 60 -->
      <g transform="translate(323.157811 214.490199) scale(0.12 -0.12)">
       <defs>
        <path id="DejaVuSans-36" d="M 2113 2584 
Q 1688 2584 1439 2293 
Q 1191 2003 1191 1497 
Q 1191 994 1439 701 
Q 1688 409 2113 409 
Q 2538 409 2786 701 
Q 3034 994 3034 1497 
Q 3034 2003 2786 2293 
Q 2538 2584 2113 2584 
z
M 3366 4563 
L 3366 3988 
Q 3128 4100 2886 4159 
Q 2644 4219 2406 4219 
Q 1781 4219 1451 3797 
Q 1122 3375 1075 2522 
Q 1259 2794 1537 2939 
Q 1816 3084 2150 3084 
Q 2853 3084 3261 2657 
Q 3669 2231 3669 1497 
Q 3669 778 3244 343 
Q 2819 -91 2113 -91 
Q 1303 -91 875 529 
Q 447 1150 447 2328 
Q 447 3434 972 4092 
Q 1497 4750 2381 4750 
Q 2619 4750 2861 4703 
Q 3103 4656 3366 4563 
z
" transform="scale(0.015625)"/>
       </defs>
       <use xlink:href="#DejaVuSans-36"/>
       <use xlink:href="#DejaVuSans-30" x="63.623047"/>
      </g>
     </g>
    </g>
    <g id="xtick_8">
     <g id="line2d_8">
      <g>
       <use xlink:href="#m3cb342b84f" x="378.439113" y="198.372074" style="stroke: #000000; stroke-width: 0.8"/>
      </g>
     </g>
     <g id="text_7">
      <!-- 70 -->
      <g transform="translate(370.804113 214.490199) scale(0.12 -0.12)">
       <defs>
        <path id="DejaVuSans-37" d="M 525 4666 
L 3525 4666 
L 3525 4397 
L 1831 0 
L 1172 0 
L 2766 4134 
L 525 4134 
L 525 4666 
z
" transform="scale(0.015625)"/>
       </defs>
       <use xlink:href="#DejaVuSans-37"/>
       <use xlink:href="#DejaVuSans-30" x="63.623047"/>
      </g>
     </g>
    </g>
    <g id="xtick_9">
     <g id="line2d_9">
      <g>
       <use xlink:href="#m3cb342b84f" x="426.085415" y="198.372074" style="stroke: #000000; stroke-width: 0.8"/>
      </g>
     </g>
     <g id="text_8">
      <!-- 80 -->
      <g transform="translate(418.450415 214.490199) scale(0.12 -0.12)">
       <defs>
        <path id="DejaVuSans-38" d="M 2034 2216 
Q 1584 2216 1326 1975 
Q 1069 1734 1069 1313 
Q 1069 891 1326 650 
Q 1584 409 2034 409 
Q 2484 409 2743 651 
Q 3003 894 3003 1313 
Q 3003 1734 2745 1975 
Q 2488 2216 2034 2216 
z
M 1403 2484 
Q 997 2584 770 2862 
Q 544 3141 544 3541 
Q 544 4100 942 4425 
Q 1341 4750 2034 4750 
Q 2731 4750 3128 4425 
Q 3525 4100 3525 3541 
Q 3525 3141 3298 2862 
Q 3072 2584 2669 2484 
Q 3125 2378 3379 2068 
Q 3634 1759 3634 1313 
Q 3634 634 3220 271 
Q 2806 -91 2034 -91 
Q 1263 -91 848 271 
Q 434 634 434 1313 
Q 434 1759 690 2068 
Q 947 2378 1403 2484 
z
M 1172 3481 
Q 1172 3119 1398 2916 
Q 1625 2713 2034 2713 
Q 2441 2713 2670 2916 
Q 2900 3119 2900 3481 
Q 2900 3844 2670 4047 
Q 2441 4250 2034 4250 
Q 1625 4250 1398 4047 
Q 1172 3844 1172 3481 
z
" transform="scale(0.015625)"/>
       </defs>
       <use xlink:href="#DejaVuSans-38"/>
       <use xlink:href="#DejaVuSans-30" x="63.623047"/>
      </g>
     </g>
    </g>
    <g id="xtick_10">
     <g id="line2d_10">
      <defs>
       <path id="m76f8a0e5fb" d="M 0 0 
L 0 2 
" style="stroke: #000000; stroke-width: 0.6"/>
      </defs>
      <g>
       <use xlink:href="#m76f8a0e5fb" x="54.44426" y="198.372074" style="stroke: #000000; stroke-width: 0.6"/>
      </g>
     </g>
    </g>
    <g id="xtick_11">
     <g id="line2d_11">
      <g>
       <use xlink:href="#m76f8a0e5fb" x="63.973521" y="198.372074" style="stroke: #000000; stroke-width: 0.6"/>
      </g>
     </g>
    </g>
    <g id="xtick_12">
     <g id="line2d_12">
      <g>
       <use xlink:href="#m76f8a0e5fb" x="73.502781" y="198.372074" style="stroke: #000000; stroke-width: 0.6"/>
      </g>
     </g>
    </g>
    <g id="xtick_13">
     <g id="line2d_13">
      <g>
       <use xlink:href="#m76f8a0e5fb" x="83.032041" y="198.372074" style="stroke: #000000; stroke-width: 0.6"/>
      </g>
     </g>
    </g>
    <g id="xtick_14">
     <g id="line2d_14">
      <g>
       <use xlink:href="#m76f8a0e5fb" x="102.090562" y="198.372074" style="stroke: #000000; stroke-width: 0.6"/>
      </g>
     </g>
    </g>
    <g id="xtick_15">
     <g id="line2d_15">
      <g>
       <use xlink:href="#m76f8a0e5fb" x="111.619823" y="198.372074" style="stroke: #000000; stroke-width: 0.6"/>
      </g>
     </g>
    </g>
    <g id="xtick_16">
     <g id="line2d_16">
      <g>
       <use xlink:href="#m76f8a0e5fb" x="121.149083" y="198.372074" style="stroke: #000000; stroke-width: 0.6"/>
      </g>
     </g>
    </g>
    <g id="xtick_17">
     <g id="line2d_17">
      <g>
       <use xlink:href="#m76f8a0e5fb" x="130.678343" y="198.372074" style="stroke: #000000; stroke-width: 0.6"/>
      </g>
     </g>
    </g>
    <g id="xtick_18">
     <g id="line2d_18">
      <g>
       <use xlink:href="#m76f8a0e5fb" x="149.736864" y="198.372074" style="stroke: #000000; stroke-width: 0.6"/>
      </g>
     </g>
    </g>
    <g id="xtick_19">
     <g id="line2d_19">
      <g>
       <use xlink:href="#m76f8a0e5fb" x="159.266124" y="198.372074" style="stroke: #000000; stroke-width: 0.6"/>
      </g>
     </g>
    </g>
    <g id="xtick_20">
     <g id="line2d_20">
      <g>
       <use xlink:href="#m76f8a0e5fb" x="168.795385" y="198.372074" style="stroke: #000000; stroke-width: 0.6"/>
      </g>
     </g>
    </g>
    <g id="xtick_21">
     <g id="line2d_21">
      <g>
       <use xlink:href="#m76f8a0e5fb" x="178.324645" y="198.372074" style="stroke: #000000; stroke-width: 0.6"/>
      </g>
     </g>
    </g>
    <g id="xtick_22">
     <g id="line2d_22">
      <g>
       <use xlink:href="#m76f8a0e5fb" x="197.383166" y="198.372074" style="stroke: #000000; stroke-width: 0.6"/>
      </g>
     </g>
    </g>
    <g id="xtick_23">
     <g id="line2d_23">
      <g>
       <use xlink:href="#m76f8a0e5fb" x="206.912426" y="198.372074" style="stroke: #000000; stroke-width: 0.6"/>
      </g>
     </g>
    </g>
    <g id="xtick_24">
     <g id="line2d_24">
      <g>
       <use xlink:href="#m76f8a0e5fb" x="216.441687" y="198.372074" style="stroke: #000000; stroke-width: 0.6"/>
      </g>
     </g>
    </g>
    <g id="xtick_25">
     <g id="line2d_25">
      <g>
       <use xlink:href="#m76f8a0e5fb" x="225.970947" y="198.372074" style="stroke: #000000; stroke-width: 0.6"/>
      </g>
     </g>
    </g>
    <g id="xtick_26">
     <g id="line2d_26">
      <g>
       <use xlink:href="#m76f8a0e5fb" x="245.029468" y="198.372074" style="stroke: #000000; stroke-width: 0.6"/>
      </g>
     </g>
    </g>
    <g id="xtick_27">
     <g id="line2d_27">
      <g>
       <use xlink:href="#m76f8a0e5fb" x="254.558728" y="198.372074" style="stroke: #000000; stroke-width: 0.6"/>
      </g>
     </g>
    </g>
    <g id="xtick_28">
     <g id="line2d_28">
      <g>
       <use xlink:href="#m76f8a0e5fb" x="264.087989" y="198.372074" style="stroke: #000000; stroke-width: 0.6"/>
      </g>
     </g>
    </g>
    <g id="xtick_29">
     <g id="line2d_29">
      <g>
       <use xlink:href="#m76f8a0e5fb" x="273.617249" y="198.372074" style="stroke: #000000; stroke-width: 0.6"/>
      </g>
     </g>
    </g>
    <g id="xtick_30">
     <g id="line2d_30">
      <g>
       <use xlink:href="#m76f8a0e5fb" x="292.67577" y="198.372074" style="stroke: #000000; stroke-width: 0.6"/>
      </g>
     </g>
    </g>
    <g id="xtick_31">
     <g id="line2d_31">
      <g>
       <use xlink:href="#m76f8a0e5fb" x="302.20503" y="198.372074" style="stroke: #000000; stroke-width: 0.6"/>
      </g>
     </g>
    </g>
    <g id="xtick_32">
     <g id="line2d_32">
      <g>
       <use xlink:href="#m76f8a0e5fb" x="311.73429" y="198.372074" style="stroke: #000000; stroke-width: 0.6"/>
      </g>
     </g>
    </g>
    <g id="xtick_33">
     <g id="line2d_33">
      <g>
       <use xlink:href="#m76f8a0e5fb" x="321.263551" y="198.372074" style="stroke: #000000; stroke-width: 0.6"/>
      </g>
     </g>
    </g>
    <g id="xtick_34">
     <g id="line2d_34">
      <g>
       <use xlink:href="#m76f8a0e5fb" x="340.322072" y="198.372074" style="stroke: #000000; stroke-width: 0.6"/>
      </g>
     </g>
    </g>
    <g id="xtick_35">
     <g id="line2d_35">
      <g>
       <use xlink:href="#m76f8a0e5fb" x="349.851332" y="198.372074" style="stroke: #000000; stroke-width: 0.6"/>
      </g>
     </g>
    </g>
    <g id="xtick_36">
     <g id="line2d_36">
      <g>
       <use xlink:href="#m76f8a0e5fb" x="359.380592" y="198.372074" style="stroke: #000000; stroke-width: 0.6"/>
      </g>
     </g>
    </g>
    <g id="xtick_37">
     <g id="line2d_37">
      <g>
       <use xlink:href="#m76f8a0e5fb" x="368.909853" y="198.372074" style="stroke: #000000; stroke-width: 0.6"/>
      </g>
     </g>
    </g>
    <g id="xtick_38">
     <g id="line2d_38">
      <g>
       <use xlink:href="#m76f8a0e5fb" x="387.968373" y="198.372074" style="stroke: #000000; stroke-width: 0.6"/>
      </g>
     </g>
    </g>
    <g id="xtick_39">
     <g id="line2d_39">
      <g>
       <use xlink:href="#m76f8a0e5fb" x="397.497634" y="198.372074" style="stroke: #000000; stroke-width: 0.6"/>
      </g>
     </g>
    </g>
    <g id="xtick_40">
     <g id="line2d_40">
      <g>
       <use xlink:href="#m76f8a0e5fb" x="407.026894" y="198.372074" style="stroke: #000000; stroke-width: 0.6"/>
      </g>
     </g>
    </g>
    <g id="xtick_41">
     <g id="line2d_41">
      <g>
       <use xlink:href="#m76f8a0e5fb" x="416.556155" y="198.372074" style="stroke: #000000; stroke-width: 0.6"/>
      </g>
     </g>
    </g>
    <g id="text_9">
     <!-- $t$ -->
     <g transform="translate(441.708823 198.372074) scale(0.19 -0.19)">
      <defs>
       <path id="Cmmi10-74" d="M 397 519 
Q 397 613 416 697 
L 878 2534 
L 206 2534 
Q 141 2534 141 2619 
Q 166 2759 225 2759 
L 934 2759 
L 1191 3803 
Q 1216 3888 1291 3947 
Q 1366 4006 1459 4006 
Q 1541 4006 1595 3957 
Q 1650 3909 1650 3828 
Q 1650 3809 1648 3798 
Q 1647 3788 1644 3775 
L 1388 2759 
L 2047 2759 
Q 2113 2759 2113 2675 
Q 2109 2659 2100 2621 
Q 2091 2584 2075 2559 
Q 2059 2534 2028 2534 
L 1331 2534 
L 872 684 
Q 825 503 825 372 
Q 825 97 1013 97 
Q 1294 97 1511 361 
Q 1728 625 1844 941 
Q 1869 978 1894 978 
L 1972 978 
Q 1997 978 2012 961 
Q 2028 944 2028 922 
Q 2028 909 2022 903 
Q 1881 516 1612 222 
Q 1344 -72 997 -72 
Q 744 -72 570 93 
Q 397 259 397 519 
z
" transform="scale(0.015625)"/>
      </defs>
      <use xlink:href="#Cmmi10-74" transform="translate(0 0.40625)"/>
     </g>
    </g>
   </g>
   <g id="matplotlib.axis_2">
    <g id="ytick_1">
     <g id="line2d_42">
      <defs>
       <path id="m93e7f728d2" d="M 0 0 
L -3.5 0 
" style="stroke: #000000; stroke-width: 0.8"/>
      </defs>
      <g>
       <use xlink:href="#m93e7f728d2" x="44.915" y="307.032599" style="stroke: #000000; stroke-width: 0.8"/>
      </g>
     </g>
     <g id="text_10">
      <!-- −2 -->
      <g transform="translate(20.224375 311.591661) scale(0.12 -0.12)">
       <defs>
        <path id="DejaVuSans-2212" d="M 678 2272 
L 4684 2272 
L 4684 1741 
L 678 1741 
L 678 2272 
z
" transform="scale(0.015625)"/>
       </defs>
       <use xlink:href="#DejaVuSans-2212"/>
       <use xlink:href="#DejaVuSans-32" x="83.789062"/>
      </g>
     </g>
    </g>
    <g id="ytick_2">
     <g id="line2d_43">
      <g>
       <use xlink:href="#m93e7f728d2" x="44.915" y="252.702336" style="stroke: #000000; stroke-width: 0.8"/>
      </g>
     </g>
     <g id="text_11">
      <!-- −1 -->
      <g transform="translate(20.224375 257.261399) scale(0.12 -0.12)">
       <use xlink:href="#DejaVuSans-2212"/>
       <use xlink:href="#DejaVuSans-31" x="83.789062"/>
      </g>
     </g>
    </g>
    <g id="ytick_3">
     <g id="line2d_44">
      <g>
       <use xlink:href="#m93e7f728d2" x="44.915" y="198.372074" style="stroke: #000000; stroke-width: 0.8"/>
      </g>
     </g>
    </g>
    <g id="ytick_4">
     <g id="line2d_45">
      <g>
       <use xlink:href="#m93e7f728d2" x="44.915" y="144.041812" style="stroke: #000000; stroke-width: 0.8"/>
      </g>
     </g>
     <g id="text_12">
      <!-- 1 -->
      <g transform="translate(30.28 148.600874) scale(0.12 -0.12)">
       <use xlink:href="#DejaVuSans-31"/>
      </g>
     </g>
    </g>
    <g id="ytick_5">
     <g id="line2d_46">
      <g>
       <use xlink:href="#m93e7f728d2" x="44.915" y="89.711549" style="stroke: #000000; stroke-width: 0.8"/>
      </g>
     </g>
     <g id="text_13">
      <!-- 2 -->
      <g transform="translate(30.28 94.270612) scale(0.12 -0.12)">
       <use xlink:href="#DejaVuSans-32"/>
      </g>
     </g>
    </g>
    <g id="ytick_6">
     <g id="line2d_47">
      <g>
       <use xlink:href="#m93e7f728d2" x="44.915" y="35.381287" style="stroke: #000000; stroke-width: 0.8"/>
      </g>
     </g>
     <g id="text_14">
      <!-- 3 -->
      <g transform="translate(30.28 39.940349) scale(0.12 -0.12)">
       <use xlink:href="#DejaVuSans-33"/>
      </g>
     </g>
    </g>
    <g id="ytick_7">
     <g id="line2d_48">
      <defs>
       <path id="ma25531dfbf" d="M 0 0 
L -2 0 
" style="stroke: #000000; stroke-width: 0.6"/>
      </defs>
      <g>
       <use xlink:href="#ma25531dfbf" x="44.915" y="328.764704" style="stroke: #000000; stroke-width: 0.6"/>
      </g>
     </g>
    </g>
    <g id="ytick_8">
     <g id="line2d_49">
      <g>
       <use xlink:href="#ma25531dfbf" x="44.915" y="317.898651" style="stroke: #000000; stroke-width: 0.6"/>
      </g>
     </g>
    </g>
    <g id="ytick_9">
     <g id="line2d_50">
      <g>
       <use xlink:href="#ma25531dfbf" x="44.915" y="296.166546" style="stroke: #000000; stroke-width: 0.6"/>
      </g>
     </g>
    </g>
    <g id="ytick_10">
     <g id="line2d_51">
      <g>
       <use xlink:href="#ma25531dfbf" x="44.915" y="285.300494" style="stroke: #000000; stroke-width: 0.6"/>
      </g>
     </g>
    </g>
    <g id="ytick_11">
     <g id="line2d_52">
      <g>
       <use xlink:href="#ma25531dfbf" x="44.915" y="274.434441" style="stroke: #000000; stroke-width: 0.6"/>
      </g>
     </g>
    </g>
    <g id="ytick_12">
     <g id="line2d_53">
      <g>
       <use xlink:href="#ma25531dfbf" x="44.915" y="263.568389" style="stroke: #000000; stroke-width: 0.6"/>
      </g>
     </g>
    </g>
    <g id="ytick_13">
     <g id="line2d_54">
      <g>
       <use xlink:href="#ma25531dfbf" x="44.915" y="241.836284" style="stroke: #000000; stroke-width: 0.6"/>
      </g>
     </g>
    </g>
    <g id="ytick_14">
     <g id="line2d_55">
      <g>
       <use xlink:href="#ma25531dfbf" x="44.915" y="230.970232" style="stroke: #000000; stroke-width: 0.6"/>
      </g>
     </g>
    </g>
    <g id="ytick_15">
     <g id="line2d_56">
      <g>
       <use xlink:href="#ma25531dfbf" x="44.915" y="220.104179" style="stroke: #000000; stroke-width: 0.6"/>
      </g>
     </g>
    </g>
    <g id="ytick_16">
     <g id="line2d_57">
      <g>
       <use xlink:href="#ma25531dfbf" x="44.915" y="209.238127" style="stroke: #000000; stroke-width: 0.6"/>
      </g>
     </g>
    </g>
    <g id="ytick_17">
     <g id="line2d_58">
      <g>
       <use xlink:href="#ma25531dfbf" x="44.915" y="187.506022" style="stroke: #000000; stroke-width: 0.6"/>
      </g>
     </g>
    </g>
    <g id="ytick_18">
     <g id="line2d_59">
      <g>
       <use xlink:href="#ma25531dfbf" x="44.915" y="176.639969" style="stroke: #000000; stroke-width: 0.6"/>
      </g>
     </g>
    </g>
    <g id="ytick_19">
     <g id="line2d_60">
      <g>
       <use xlink:href="#ma25531dfbf" x="44.915" y="165.773917" style="stroke: #000000; stroke-width: 0.6"/>
      </g>
     </g>
    </g>
    <g id="ytick_20">
     <g id="line2d_61">
      <g>
       <use xlink:href="#ma25531dfbf" x="44.915" y="154.907864" style="stroke: #000000; stroke-width: 0.6"/>
      </g>
     </g>
    </g>
    <g id="ytick_21">
     <g id="line2d_62">
      <g>
       <use xlink:href="#ma25531dfbf" x="44.915" y="133.175759" style="stroke: #000000; stroke-width: 0.6"/>
      </g>
     </g>
    </g>
    <g id="ytick_22">
     <g id="line2d_63">
      <g>
       <use xlink:href="#ma25531dfbf" x="44.915" y="122.309707" style="stroke: #000000; stroke-width: 0.6"/>
      </g>
     </g>
    </g>
    <g id="ytick_23">
     <g id="line2d_64">
      <g>
       <use xlink:href="#ma25531dfbf" x="44.915" y="111.443654" style="stroke: #000000; stroke-width: 0.6"/>
      </g>
     </g>
    </g>
    <g id="ytick_24">
     <g id="line2d_65">
      <g>
       <use xlink:href="#ma25531dfbf" x="44.915" y="100.577602" style="stroke: #000000; stroke-width: 0.6"/>
      </g>
     </g>
    </g>
    <g id="ytick_25">
     <g id="line2d_66">
      <g>
       <use xlink:href="#ma25531dfbf" x="44.915" y="78.845497" style="stroke: #000000; stroke-width: 0.6"/>
      </g>
     </g>
    </g>
    <g id="ytick_26">
     <g id="line2d_67">
      <g>
       <use xlink:href="#ma25531dfbf" x="44.915" y="67.979444" style="stroke: #000000; stroke-width: 0.6"/>
      </g>
     </g>
    </g>
    <g id="ytick_27">
     <g id="line2d_68">
      <g>
       <use xlink:href="#ma25531dfbf" x="44.915" y="57.113392" style="stroke: #000000; stroke-width: 0.6"/>
      </g>
     </g>
    </g>
    <g id="ytick_28">
     <g id="line2d_69">
      <g>
       <use xlink:href="#ma25531dfbf" x="44.915" y="46.247339" style="stroke: #000000; stroke-width: 0.6"/>
      </g>
     </g>
    </g>
    <g id="text_15">
     <!-- $x(t)$, $v(t)$ -->
     <g transform="translate(7.2 12.45) scale(0.19 -0.19)">
      <defs>
       <path id="Cmmi10-78" d="M 500 184 
Q 613 97 819 97 
Q 1019 97 1172 289 
Q 1325 481 1381 709 
L 1672 1844 
Q 1741 2153 1741 2266 
Q 1741 2425 1652 2544 
Q 1563 2663 1403 2663 
Q 1200 2663 1022 2536 
Q 844 2409 722 2214 
Q 600 2019 550 1819 
Q 538 1778 500 1778 
L 422 1778 
Q 372 1778 372 1838 
L 372 1856 
Q 434 2094 584 2320 
Q 734 2547 951 2687 
Q 1169 2828 1416 2828 
Q 1650 2828 1839 2703 
Q 2028 2578 2106 2363 
Q 2216 2559 2386 2693 
Q 2556 2828 2759 2828 
Q 2897 2828 3040 2779 
Q 3184 2731 3275 2631 
Q 3366 2531 3366 2381 
Q 3366 2219 3261 2101 
Q 3156 1984 2994 1984 
Q 2891 1984 2822 2050 
Q 2753 2116 2753 2216 
Q 2753 2350 2845 2451 
Q 2938 2553 3066 2572 
Q 2950 2663 2747 2663 
Q 2541 2663 2389 2472 
Q 2238 2281 2175 2047 
L 1894 916 
Q 1825 659 1825 494 
Q 1825 331 1917 214 
Q 2009 97 2163 97 
Q 2463 97 2698 361 
Q 2934 625 3009 941 
Q 3022 978 3059 978 
L 3138 978 
Q 3163 978 3178 961 
Q 3194 944 3194 922 
Q 3194 916 3188 903 
Q 3097 522 2806 225 
Q 2516 -72 2150 -72 
Q 1916 -72 1727 54 
Q 1538 181 1459 397 
Q 1359 209 1182 68 
Q 1006 -72 806 -72 
Q 669 -72 523 -23 
Q 378 25 287 125 
Q 197 225 197 378 
Q 197 528 301 651 
Q 406 775 563 775 
Q 669 775 741 711 
Q 813 647 813 544 
Q 813 409 723 309 
Q 634 209 500 184 
z
" transform="scale(0.015625)"/>
       <path id="Cmr10-28" d="M 1984 -1588 
Q 1628 -1306 1370 -942 
Q 1113 -578 948 -165 
Q 784 247 703 697 
Q 622 1147 622 1600 
Q 622 2059 703 2509 
Q 784 2959 951 3375 
Q 1119 3791 1378 4153 
Q 1638 4516 1984 4788 
Q 1984 4800 2016 4800 
L 2075 4800 
Q 2094 4800 2109 4783 
Q 2125 4766 2125 4744 
Q 2125 4716 2113 4703 
Q 1800 4397 1592 4047 
Q 1384 3697 1257 3301 
Q 1131 2906 1075 2482 
Q 1019 2059 1019 1600 
Q 1019 -434 2106 -1491 
Q 2125 -1509 2125 -1544 
Q 2125 -1559 2108 -1579 
Q 2091 -1600 2075 -1600 
L 2016 -1600 
Q 1984 -1600 1984 -1588 
z
" transform="scale(0.015625)"/>
       <path id="Cmr10-29" d="M 416 -1600 
Q 359 -1600 359 -1544 
Q 359 -1516 372 -1503 
Q 1466 -434 1466 1600 
Q 1466 3634 384 4691 
Q 359 4706 359 4744 
Q 359 4766 376 4783 
Q 394 4800 416 4800 
L 475 4800 
Q 494 4800 506 4788 
Q 966 4425 1272 3906 
Q 1578 3388 1720 2800 
Q 1863 2213 1863 1600 
Q 1863 1147 1786 708 
Q 1709 269 1542 -157 
Q 1375 -584 1119 -945 
Q 863 -1306 506 -1588 
Q 494 -1600 475 -1600 
L 416 -1600 
z
" transform="scale(0.015625)"/>
       <path id="DejaVuSans-2c" d="M 750 794 
L 1409 794 
L 1409 256 
L 897 -744 
L 494 -744 
L 750 256 
L 750 794 
z
" transform="scale(0.015625)"/>
       <path id="DejaVuSans-20" transform="scale(0.015625)"/>
       <path id="Cmmi10-76" d="M 684 722 
Q 684 866 718 1037 
Q 753 1209 787 1320 
Q 822 1431 944 1753 
Q 1066 2075 1069 2088 
Q 1153 2322 1153 2472 
Q 1153 2663 1013 2663 
Q 759 2663 595 2402 
Q 431 2141 353 1819 
Q 341 1778 300 1778 
L 225 1778 
Q 172 1778 172 1838 
L 172 1856 
Q 275 2238 487 2533 
Q 700 2828 1025 2828 
Q 1253 2828 1411 2678 
Q 1569 2528 1569 2297 
Q 1569 2178 1516 2047 
Q 1391 1722 1319 1526 
Q 1247 1331 1186 1089 
Q 1125 847 1125 641 
Q 1125 400 1236 248 
Q 1347 97 1581 97 
Q 2025 97 2381 781 
Q 2494 1003 2594 1303 
Q 2694 1603 2694 1791 
Q 2694 1984 2631 2092 
Q 2569 2200 2469 2317 
Q 2369 2434 2369 2503 
Q 2369 2628 2472 2731 
Q 2575 2834 2700 2834 
Q 2853 2834 2920 2693 
Q 2988 2553 2988 2375 
Q 2988 2163 2927 1869 
Q 2866 1575 2758 1259 
Q 2650 944 2559 763 
Q 2138 -72 1575 -72 
Q 1172 -72 928 129 
Q 684 331 684 722 
z
" transform="scale(0.015625)"/>
      </defs>
      <use xlink:href="#Cmmi10-78"/>
      <use xlink:href="#Cmr10-28" transform="translate(57.080078 0)"/>
      <use xlink:href="#Cmmi10-74" transform="translate(95.898438 0)"/>
      <use xlink:href="#Cmr10-29" transform="translate(131.982422 0)"/>
      <use xlink:href="#DejaVuSans-2c" transform="translate(170.800781 0)"/>
      <use xlink:href="#DejaVuSans-20" transform="translate(202.587891 0)"/>
      <use xlink:href="#Cmmi10-76" transform="translate(234.375 0)"/>
      <use xlink:href="#Cmr10-28" transform="translate(282.763672 0)"/>
      <use xlink:href="#Cmmi10-74" transform="translate(321.582031 0)"/>
      <use xlink:href="#Cmr10-29" transform="translate(357.666016 0)"/>
     </g>
    </g>
   </g>
   <g id="line2d_70">
    <path d="M 44.915 198.372074 
L 47.535547 169.735057 
L 49.441399 151.3258 
L 50.870788 139.40296 
L 52.300177 129.397487 
L 53.491334 122.676802 
L 54.44426 118.424198 
L 55.397186 115.204695 
L 56.111881 113.479206 
L 56.826575 112.347837 
L 57.303038 111.923194 
L 57.779502 111.760766 
L 58.255965 111.858428 
L 58.732428 112.213302 
L 59.208891 112.821769 
L 59.923585 114.200271 
L 60.63828 116.121853 
L 61.591206 119.492076 
L 62.544132 123.731785 
L 63.735289 130.150452 
L 65.164678 139.294233 
L 66.832299 151.580196 
L 68.976382 169.15701 
L 75.408633 223.119503 
L 77.076254 234.920838 
L 78.505643 243.678238 
L 79.6968 249.866827 
L 80.887958 254.950551 
L 81.840884 258.176416 
L 82.79381 260.628592 
L 83.508505 261.951336 
L 84.223199 262.828668 
L 84.699662 263.166357 
L 85.176125 263.30732 
L 85.652588 263.253094 
L 86.129051 263.005783 
L 86.843746 262.278747 
L 87.55844 261.134626 
L 88.273135 259.587289 
L 89.226061 256.925573 
L 90.178987 253.621596 
L 91.370144 248.66814 
L 92.799533 241.668899 
L 94.467154 232.328822 
L 96.849469 217.521069 
L 102.328794 182.814949 
L 104.234646 172.396127 
L 105.664035 165.628212 
L 107.093424 159.929316 
L 108.284581 156.084213 
L 109.237508 153.637564 
L 110.190434 151.770312 
L 110.905128 150.756805 
L 111.619823 150.077213 
L 112.334517 149.731113 
L 113.049212 149.715859 
L 113.763906 150.026628 
L 114.478601 150.656484 
L 115.193295 151.59646 
L 116.146221 153.313043 
L 117.099147 155.530438 
L 118.290305 158.950781 
L 119.719694 163.897938 
L 121.387314 170.629117 
L 123.531398 180.369797 
L 130.678343 213.883589 
L 132.345964 220.312744 
L 133.775353 225.02529 
L 134.966511 228.309297 
L 136.157668 230.958723 
L 137.110594 232.598535 
L 138.06352 233.799646 
L 138.778215 234.409028 
L 139.492909 234.768039 
L 140.207604 234.878002 
L 140.922298 234.74189 
L 141.636993 234.364277 
L 142.351687 233.751288 
L 143.304613 232.581183 
L 144.257539 231.028222 
L 145.448697 228.58862 
L 146.639854 225.650588 
L 148.069244 221.561297 
L 149.975096 215.362939 
L 152.833874 205.133686 
L 156.645578 191.51912 
L 158.55143 185.434984 
L 160.219051 180.796621 
L 161.64844 177.446903 
L 162.839597 175.152849 
L 164.030755 173.344727 
L 164.983681 172.262837 
L 165.936607 171.512257 
L 166.889533 171.095337 
L 167.604227 171.000762 
L 168.318922 171.090869 
L 169.033616 171.362305 
L 169.986542 171.99832 
L 170.939468 172.934768 
L 172.130626 174.501527 
L 173.321784 176.470936 
L 174.751173 179.300065 
L 176.418793 183.127926 
L 178.562877 188.639215 
L 185.47159 206.875253 
L 187.139211 210.518048 
L 188.5686 213.196414 
L 189.997989 215.402196 
L 191.189147 216.846741 
L 192.380304 217.914047 
L 193.33323 218.48903 
L 194.286156 218.81386 
L 195.239082 218.889637 
L 196.192008 218.720392 
L 197.144934 218.312985 
L 198.09786 217.676969 
L 199.289018 216.579087 
L 200.480176 215.171689 
L 201.909565 213.121957 
L 203.577185 210.31746 
L 205.721269 206.238755 
L 213.344677 191.256838 
L 215.012298 188.62669 
L 216.441687 186.720917 
L 217.871076 185.180681 
L 219.062233 184.198418 
L 220.253391 183.502459 
L 221.444548 183.098601 
L 222.397474 182.986184 
L 223.3504 183.058607 
L 224.541558 183.401984 
L 225.732716 184.01366 
L 226.923873 184.875701 
L 228.353262 186.209223 
L 230.020883 188.119637 
L 231.926735 190.669319 
L 234.785513 194.938961 
L 239.311912 201.73462 
L 241.455995 204.532939 
L 243.123616 206.379043 
L 244.553005 207.683177 
L 245.982394 208.70166 
L 247.173551 209.31852 
L 248.364709 209.717764 
L 249.555866 209.897385 
L 250.747024 209.859483 
L 251.938182 209.610131 
L 253.129339 209.159158 
L 254.558728 208.370828 
L 255.988117 207.340437 
L 257.655738 205.878663 
L 259.799821 203.685422 
L 263.135063 199.89732 
L 266.946767 195.651341 
L 269.09085 193.581658 
L 270.996702 192.053223 
L 272.664323 191.006334 
L 274.093712 190.347977 
L 275.523101 189.922031 
L 276.95249 189.732931 
L 278.381879 189.778696 
L 279.811268 190.051171 
L 281.240657 190.536422 
L 282.908278 191.345645 
L 284.81413 192.543607 
L 287.196445 194.350381 
L 291.008149 197.601074 
L 294.581622 200.560061 
L 296.963937 202.243443 
L 298.869789 203.332648 
L 300.537409 204.061046 
L 302.20503 204.559566 
L 303.872651 204.818166 
L 305.540271 204.835787 
L 307.207892 204.620084 
L 308.875512 204.186847 
L 310.781364 203.455254 
L 312.925448 202.384286 
L 315.784226 200.674957 
L 323.169403 196.095906 
L 325.551718 194.955787 
L 327.695802 194.188049 
L 329.601654 193.740907 
L 331.507506 193.528337 
L 333.413358 193.551103 
L 335.31921 193.798909 
L 337.463293 194.320886 
L 339.845609 195.15252 
L 342.704387 196.398625 
L 351.518952 200.427713 
L 353.901268 201.201173 
L 356.045351 201.690106 
L 358.189435 201.961418 
L 360.333518 202.008649 
L 362.477602 201.838869 
L 364.859917 201.419901 
L 367.480464 200.728744 
L 371.053936 199.529371 
L 378.439113 196.979393 
L 381.297891 196.260592 
L 383.918438 195.830153 
L 386.300753 195.651893 
L 388.683068 195.680083 
L 391.303615 195.934664 
L 394.162393 196.438812 
L 397.974097 197.36412 
L 406.788663 199.605877 
L 409.885672 200.117966 
L 412.74445 200.37449 
L 415.603228 200.408057 
L 418.700238 200.204374 
L 422.035479 199.752237 
L 426.085415 198.993283 
L 426.085415 198.993283 
" clip-path="url(#p63760de741)" style="fill: none; stroke: #0000ff; stroke-linecap: square"/>
   </g>
   <g id="line2d_71">
    <path d="M 44.915 144.041812 
L 45.629695 145.032123 
L 46.344389 146.364847 
L 47.297315 148.649931 
L 48.250241 151.479916 
L 49.441399 155.715563 
L 50.870788 161.691994 
L 52.538408 169.6575 
L 54.920723 182.270864 
L 60.400048 211.779029 
L 62.3059 220.620936 
L 63.735289 226.358185 
L 65.164678 231.183143 
L 66.355836 234.433232 
L 67.308762 236.49704 
L 68.261688 238.067479 
L 68.976382 238.915969 
L 69.691077 239.48035 
L 70.405771 239.761073 
L 71.120466 239.760481 
L 71.835161 239.482768 
L 72.549855 238.933918 
L 73.26455 238.121642 
L 74.217476 236.645242 
L 75.170402 234.743815 
L 76.361559 231.816934 
L 77.790948 227.590552 
L 79.458569 221.847862 
L 81.602652 213.547773 
L 88.749598 185.054061 
L 90.417218 179.600622 
L 91.846607 175.607888 
L 93.037765 172.829193 
L 94.228922 170.591358 
L 95.181848 169.209715 
L 96.134775 168.201556 
L 97.087701 167.571451 
L 97.802395 167.347136 
L 98.51709 167.333899 
L 99.231784 167.528686 
L 99.946479 167.927097 
L 100.899405 168.765027 
L 101.852331 169.937769 
L 103.043488 171.842899 
L 104.234646 174.191479 
L 105.664035 177.518151 
L 107.331655 181.96661 
L 109.713971 189.033589 
L 115.431527 206.309893 
L 117.337379 211.227878 
L 119.004999 214.884714 
L 120.434388 217.449255 
L 121.625546 219.14344 
L 122.816704 220.41176 
L 123.76963 221.110819 
L 124.722556 221.52615 
L 125.675482 221.658444 
L 126.628408 221.511734 
L 127.581334 221.093286 
L 128.53426 220.413448 
L 129.487186 219.485464 
L 130.678343 218.001031 
L 132.107732 215.792619 
L 133.775353 212.719878 
L 135.681205 208.713093 
L 138.778215 201.599507 
L 142.351687 193.516994 
L 144.257539 189.691868 
L 145.92516 186.796784 
L 147.354549 184.723421 
L 148.545707 183.31764 
L 149.736864 182.224904 
L 150.928022 181.457687 
L 151.880948 181.082631 
L 152.833874 180.920208 
L 153.7868 180.968137 
L 154.739726 181.221682 
L 155.692652 181.673763 
L 156.883809 182.503694 
L 158.074967 183.606519 
L 159.504356 185.251653 
L 161.171977 187.545449 
L 163.31606 190.936967 
L 167.127764 197.535296 
L 170.224774 202.689546 
L 172.130626 205.473288 
L 173.798247 207.54995 
L 175.227636 209.012045 
L 176.657025 210.148552 
L 177.848182 210.831815 
L 179.03934 211.267846 
L 180.230497 211.454685 
L 181.421655 211.395031 
L 182.612812 211.096073 
L 183.80397 210.569247 
L 185.233359 209.65816 
L 186.662748 208.474476 
L 188.330369 206.801928 
L 190.474452 204.300806 
L 193.809693 199.995997 
L 197.383166 195.470179 
L 199.52725 193.095235 
L 201.433102 191.330412 
L 203.100722 190.111796 
L 204.530111 189.336431 
L 205.9595 188.82378 
L 207.388889 188.579685 
L 208.818278 188.602686 
L 210.247667 188.88428 
L 211.677057 189.40935 
L 213.106446 190.156765 
L 214.774066 191.274286 
L 216.679918 192.814125 
L 219.300465 195.239975 
L 225.732716 201.332923 
L 227.876799 202.992085 
L 229.782651 204.178537 
L 231.450272 204.956427 
L 233.117892 205.470499 
L 234.547281 205.693728 
L 235.97667 205.716047 
L 237.40606 205.542804 
L 239.07368 205.107623 
L 240.741301 204.444904 
L 242.647153 203.449825 
L 245.029468 201.933565 
L 248.841172 199.178011 
L 252.652876 196.487966 
L 255.035191 195.059699 
L 257.179275 194.037591 
L 259.085127 193.380782 
L 260.752747 193.018671 
L 262.420368 192.861757 
L 264.087989 192.908634 
L 265.993841 193.200274 
L 267.899693 193.722855 
L 270.043776 194.544711 
L 272.664323 195.800545 
L 277.667185 198.525764 
L 281.002426 200.215499 
L 283.622972 201.290855 
L 285.767056 201.940344 
L 287.911139 202.350356 
L 289.816992 202.502347 
L 291.961075 202.435247 
L 294.105159 202.130952 
L 296.487474 201.549616 
L 299.346252 200.590243 
L 303.634419 198.863808 
L 308.399049 197.006063 
L 311.257827 196.133325 
L 313.640143 195.620177 
L 316.022458 195.332118 
L 318.404773 195.279112 
L 320.787088 195.453549 
L 323.407634 195.879327 
L 326.504644 196.629874 
L 331.269274 198.062941 
L 336.272136 199.506164 
L 339.369146 200.17458 
L 342.227924 200.560962 
L 344.84847 200.695794 
L 347.469017 200.619773 
L 350.327795 200.317896 
L 353.663036 199.736569 
L 358.904129 198.559268 
L 364.383454 197.399336 
L 367.956927 196.882979 
L 371.053936 196.657556 
L 374.150946 196.654509 
L 377.486187 196.883731 
L 381.297891 197.378302 
L 395.830013 199.521804 
L 399.403486 199.675423 
L 402.976958 199.60901 
L 407.026894 199.302562 
L 412.74445 198.614446 
L 420.367859 197.721322 
L 424.656026 197.445728 
L 426.085415 197.405382 
L 426.085415 197.405382 
" clip-path="url(#p63760de741)" style="fill: none; stroke: #ff0000; stroke-linecap: square"/>
   </g>
   <g id="line2d_72">
    <path d="M 44.915 187.506022 
L 47.297315 156.503637 
L 48.964936 137.401852 
L 50.394325 123.279091 
L 51.585482 113.340216 
L 52.77664 105.218857 
L 53.729566 100.102406 
L 54.682492 96.253621 
L 55.397186 94.211912 
L 56.111881 92.898041 
L 56.588344 92.425675 
L 57.064807 92.274186 
L 57.54127 92.440832 
L 58.017733 92.921951 
L 58.494196 93.712979 
L 59.208891 95.468453 
L 59.923585 97.88682 
L 60.876511 102.096866 
L 61.829437 107.366231 
L 63.020595 115.314406 
L 64.449984 126.602488 
L 66.117604 141.730739 
L 68.261688 163.322554 
L 74.455707 227.135315 
L 76.123328 241.779136 
L 77.552717 252.70175 
L 78.982106 261.859684 
L 80.173263 268.003847 
L 81.126189 271.885912 
L 82.079115 274.818577 
L 82.79381 276.384958 
L 83.508505 277.405656 
L 83.984968 277.78345 
L 84.461431 277.920497 
L 84.937894 277.818785 
L 85.414357 277.480991 
L 85.89082 276.910473 
L 86.605514 275.627305 
L 87.320209 273.845951 
L 88.273135 270.729715 
L 89.226061 266.816377 
L 90.417218 260.899313 
L 91.846607 252.478931 
L 93.514228 241.174896 
L 95.658311 225.015977 
L 101.852331 177.132247 
L 103.758183 164.658471 
L 105.187572 156.636578 
L 106.378729 150.972516 
L 107.569887 146.324654 
L 108.522813 143.379631 
L 109.475739 141.145624 
L 110.190434 139.944538 
L 110.905128 139.152556 
L 111.619823 138.768891 
L 112.096286 138.738334 
L 112.572749 138.886045 
L 113.049212 139.209812 
L 113.763906 140.019484 
L 114.478601 141.207822 
L 115.431527 143.357488 
L 116.384453 146.11755 
L 117.57561 150.357116 
L 119.004999 156.468542 
L 120.67262 164.760972 
L 122.816704 176.731144 
L 129.725417 216.522807 
L 131.393038 224.509718 
L 132.822427 230.396257 
L 134.013584 234.524173 
L 135.204742 237.881767 
L 136.157668 239.983736 
L 137.110594 241.550198 
L 137.825289 242.368563 
L 138.539983 242.88015 
L 139.254678 243.0861 
L 139.969372 242.989585 
L 140.684067 242.595755 
L 141.398761 241.911672 
L 142.113456 240.94624 
L 143.066382 239.239993 
L 144.019308 237.082474 
L 145.210465 233.804012 
L 146.639854 229.11937 
L 148.307475 222.80884 
L 150.451559 213.759558 
L 156.883809 185.864015 
L 158.789661 178.930722 
L 160.219051 174.493649 
L 161.410208 171.376874 
L 162.601366 168.836158 
L 163.554292 167.240759 
L 164.507218 166.046447 
L 165.460144 165.259454 
L 166.174838 164.937464 
L 166.889533 164.844142 
L 167.604227 164.976707 
L 168.318922 165.330909 
L 169.033616 165.901077 
L 169.986542 166.984903 
L 170.939468 168.4198 
L 172.130626 170.670249 
L 173.560015 173.968221 
L 175.227636 178.503056 
L 177.371719 185.12737 
L 185.233359 210.32015 
L 186.90098 214.570568 
L 188.330369 217.637447 
L 189.521526 219.735623 
L 190.712684 221.387012 
L 191.66561 222.373026 
L 192.618536 223.05465 
L 193.571462 223.429821 
L 194.286156 223.510926 
L 195.000851 223.422498 
L 195.953777 223.046414 
L 196.906703 222.38492 
L 197.859629 221.451517 
L 199.050787 219.927735 
L 200.241944 218.043039 
L 201.671333 215.366957 
L 203.338954 211.781138 
L 205.721269 206.073138 
L 211.438825 192.074883 
L 213.344677 188.077304 
L 215.012298 185.098869 
L 216.441687 183.005032 
L 217.632844 181.617561 
L 218.824002 180.574115 
L 219.776928 179.994542 
L 220.729854 179.644567 
L 221.68278 179.523798 
L 222.635706 179.629128 
L 223.588632 179.954831 
L 224.541558 180.492678 
L 225.732716 181.446978 
L 226.923873 182.690639 
L 228.353262 184.522259 
L 230.020883 187.050723 
L 232.164966 190.756986 
L 240.264838 205.310957 
L 241.932458 207.667423 
L 243.361847 209.358678 
L 244.791236 210.708374 
L 245.982394 211.553332 
L 247.173551 212.133725 
L 248.364709 212.445353 
L 249.555866 212.489091 
L 250.747024 212.270745 
L 251.938182 211.800822 
L 253.129339 211.094222 
L 254.558728 209.960767 
L 256.226349 208.29514 
L 258.132201 206.028893 
L 260.752747 202.498293 
L 266.470304 194.650538 
L 268.376156 192.427517 
L 270.043776 190.779706 
L 271.473165 189.628453 
L 272.902554 188.743273 
L 274.331943 188.139796 
L 275.523101 187.857874 
L 276.714259 187.777305 
L 277.905416 187.89461 
L 279.334805 188.286394 
L 280.764194 188.934266 
L 282.193583 189.813463 
L 283.861204 191.091055 
L 286.005287 193.045819 
L 289.102297 196.23695 
L 293.628696 200.89382 
L 295.772779 202.79136 
L 297.678631 204.191308 
L 299.346252 205.148976 
L 301.013873 205.82971 
L 302.443262 206.181123 
L 303.872651 206.314904 
L 305.30204 206.233935 
L 306.731429 205.946711 
L 308.399049 205.369502 
L 310.06667 204.560212 
L 311.972522 203.399021 
L 314.593069 201.506377 
L 322.69294 195.384515 
L 324.837023 194.151122 
L 326.742876 193.308287 
L 328.410496 192.791896 
L 330.078117 192.494174 
L 331.745737 192.418319 
L 333.413358 192.559431 
L 335.080978 192.904968 
L 336.98683 193.52492 
L 339.130914 194.462593 
L 341.751461 195.858952 
L 350.804258 200.922091 
L 353.186573 201.861407 
L 355.330657 202.451841 
L 357.236509 202.752807 
L 359.142361 202.83667 
L 361.048213 202.708012 
L 363.192296 202.327475 
L 365.574612 201.65197 
L 368.43339 200.576474 
L 373.436251 198.377525 
L 377.247955 196.812945 
L 379.868502 195.958201 
L 382.250817 195.403206 
L 384.633132 195.091114 
L 386.777216 195.027273 
L 389.159531 195.190859 
L 391.541846 195.577742 
L 394.400624 196.28096 
L 398.212328 197.475395 
L 404.882811 199.593506 
L 407.97982 200.315949 
L 410.600367 200.709283 
L 413.220913 200.876749 
L 415.84146 200.815758 
L 418.700238 200.509803 
L 421.797248 199.949786 
L 426.085415 198.936611 
L 426.085415 198.936611 
" clip-path="url(#p63760de741)" style="fill: none; stroke: #0000ff; stroke-linecap: square"/>
   </g>
   <g id="line2d_73">
    <path d="M 44.915 133.175759 
L 45.629695 134.84891 
L 46.582621 137.699309 
L 47.535547 141.213387 
L 48.726704 146.455125 
L 50.156093 153.829915 
L 51.823714 163.635091 
L 54.206029 179.123868 
L 59.447122 213.776378 
L 61.352974 224.736326 
L 63.020595 232.973882 
L 64.449984 238.825471 
L 65.641141 242.753663 
L 66.594067 245.237435 
L 67.546993 247.115784 
L 68.261688 248.120754 
L 68.976382 248.777652 
L 69.691077 249.087261 
L 70.16754 249.102164 
L 70.882235 248.84096 
L 71.596929 248.245712 
L 72.311624 247.325379 
L 73.26455 245.611879 
L 74.217476 243.371624 
L 75.408633 239.887443 
L 76.599791 235.721723 
L 78.02918 229.95599 
L 79.935032 221.262197 
L 82.79381 206.996275 
L 86.605514 188.137188 
L 88.511366 179.761592 
L 90.178987 173.407175 
L 91.608376 168.843656 
L 92.799533 165.739082 
L 93.752459 163.743473 
L 94.705385 162.198384 
L 95.658311 161.113233 
L 96.373006 160.603683 
L 97.087701 160.354611 
L 97.802395 160.363807 
L 98.51709 160.627364 
L 99.231784 161.139731 
L 99.946479 161.893772 
L 100.899405 163.259944 
L 101.852331 165.015808 
L 103.043488 167.714775 
L 104.472877 171.607593 
L 106.140498 176.892096 
L 108.284581 184.523499 
L 115.193295 209.911055 
L 116.860916 215.010721 
L 118.290305 218.770738 
L 119.719694 221.878266 
L 120.910851 223.923233 
L 121.863778 225.183602 
L 122.816704 226.100789 
L 123.76963 226.670706 
L 124.484324 226.870158 
L 125.199019 226.875821 
L 125.913713 226.690543 
L 126.628408 226.318407 
L 127.581334 225.540837 
L 128.53426 224.4562 
L 129.725417 222.697761 
L 130.916575 220.532988 
L 132.345964 217.46977 
L 134.013584 213.377107 
L 136.3959 206.88082 
L 141.875224 191.626801 
L 143.781076 187.039058 
L 145.448697 183.602344 
L 146.878086 181.170652 
L 148.069244 179.546188 
L 149.260401 178.309897 
L 150.213327 177.60953 
L 151.166253 177.16946 
L 152.119179 176.989756 
L 153.072105 177.067395 
L 154.025031 177.396361 
L 154.977957 177.967771 
L 155.930883 178.770044 
L 157.122041 180.075843 
L 158.55143 182.043554 
L 160.219051 184.80837 
L 162.124903 188.442361 
L 164.983681 194.436846 
L 169.033616 202.878184 
L 171.1777 206.790891 
L 172.84532 209.38022 
L 174.27471 211.215777 
L 175.465867 212.444862 
L 176.657025 213.383413 
L 177.848182 214.021252 
L 178.801108 214.311881 
L 179.754034 214.407566 
L 180.70696 214.311033 
L 181.659886 214.027233 
L 182.851044 213.420113 
L 184.042201 212.549764 
L 185.47159 211.189973 
L 187.139211 209.22803 
L 189.045063 206.595205 
L 191.66561 202.544437 
L 196.668471 194.714812 
L 198.812555 191.820109 
L 200.480176 189.917776 
L 201.909565 188.579766 
L 203.338954 187.541181 
L 204.530111 186.918192 
L 205.721269 186.522351 
L 206.912426 186.355368 
L 208.103584 186.414682 
L 209.294741 186.693607 
L 210.485899 187.181564 
L 211.915288 188.022833 
L 213.344677 189.113899 
L 215.012298 190.653781 
L 217.156381 192.954256 
L 220.729854 197.196683 
L 224.303327 201.320987 
L 226.44741 203.461227 
L 228.353262 205.035025 
L 230.020883 206.106949 
L 231.450272 206.775503 
L 232.879661 207.201277 
L 234.30905 207.380147 
L 235.738439 207.314664 
L 237.167828 207.013786 
L 238.597217 206.492457 
L 240.264838 205.633032 
L 242.17069 204.369601 
L 244.553005 202.473875 
L 248.364709 199.080556 
L 251.938182 196.007703 
L 254.082265 194.426285 
L 255.988117 193.27264 
L 257.655738 192.495187 
L 259.323358 191.956064 
L 260.990979 191.666485 
L 262.6586 191.628294 
L 264.32622 191.834217 
L 265.993841 192.268447 
L 267.899693 193.013827 
L 270.043776 194.114987 
L 272.664323 195.728184 
L 280.764194 200.932548 
L 282.908278 201.97807 
L 284.81413 202.691131 
L 286.719982 203.173821 
L 288.625834 203.412551 
L 290.531686 203.4057 
L 292.437538 203.163218 
L 294.34339 202.705708 
L 296.487474 201.971484 
L 299.10802 200.835196 
L 303.872651 198.456898 
L 307.684355 196.668815 
L 310.304901 195.68351 
L 312.687216 195.036564 
L 314.8313 194.688056 
L 316.975384 194.57262 
L 319.119467 194.686824 
L 321.263551 195.013813 
L 323.645866 195.591463 
L 326.742876 196.593243 
L 337.463293 200.317215 
L 340.08384 200.865355 
L 342.466155 201.14912 
L 344.84847 201.217156 
L 347.230785 201.075036 
L 349.851332 200.700936 
L 352.948342 200.025939 
L 357.712972 198.717128 
L 362.954065 197.324923 
L 366.289306 196.674933 
L 369.148084 196.340469 
L 372.006862 196.236533 
L 374.86564 196.360498 
L 377.96265 196.721151 
L 381.774354 197.401216 
L 392.733004 199.518646 
L 396.068245 199.862099 
L 399.403486 199.973368 
L 402.738727 199.852545 
L 406.550431 199.473385 
L 411.791524 198.695876 
L 419.176701 197.620258 
L 423.226637 197.270285 
L 426.085415 197.174772 
L 426.085415 197.174772 
" clip-path="url(#p63760de741)" style="fill: none; stroke: #ff0000; stroke-linecap: square"/>
   </g>
   <g id="line2d_74">
    <path d="M 44.915 176.639969 
L 47.059084 144.155496 
L 48.726704 122.013323 
L 50.156093 105.80603 
L 51.347251 94.530049 
L 52.538408 85.452373 
L 53.491334 79.850848 
L 54.206029 76.644326 
L 54.920723 74.300615 
L 55.635418 72.822563 
L 56.111881 72.316876 
L 56.588344 72.192408 
L 57.064807 72.445736 
L 57.54127 73.072347 
L 58.017733 74.066655 
L 58.732428 76.232778 
L 59.447122 79.184479 
L 60.400048 84.287051 
L 61.352974 90.642651 
L 62.544132 100.195368 
L 63.973521 113.722119 
L 65.641141 131.805368 
L 68.023456 160.525476 
L 73.502781 228.023385 
L 75.408633 248.341777 
L 76.838022 261.561584 
L 78.267411 272.713685 
L 79.458569 280.256144 
L 80.411495 285.069667 
L 81.364421 288.758868 
L 82.079115 290.774457 
L 82.79381 292.141324 
L 83.270273 292.692239 
L 83.746736 292.956192 
L 84.223199 292.93525 
L 84.699662 292.632312 
L 85.176125 292.051087 
L 85.89082 290.667525 
L 86.605514 288.686564 
L 87.55844 285.154806 
L 88.511366 280.662964 
L 89.702524 273.809108 
L 91.131913 263.982332 
L 92.799533 250.707775 
L 94.943617 231.623115 
L 101.614099 170.570384 
L 103.28172 157.775163 
L 104.711109 148.308111 
L 105.902266 141.640117 
L 107.093424 136.185654 
L 108.04635 132.744313 
L 108.999276 130.150046 
L 109.713971 128.769066 
L 110.428665 127.874699 
L 110.905128 127.548307 
L 111.381591 127.436523 
L 111.858054 127.537544 
L 112.334517 127.848952 
L 113.049212 128.703764 
L 113.763906 130.01234 
L 114.478601 131.75916 
L 115.431527 134.738106 
L 116.384453 138.413331 
L 117.57561 143.898422 
L 119.004999 151.619157 
L 120.67262 161.888344 
L 123.054935 178.116463 
L 128.296028 214.444623 
L 130.20188 225.941335 
L 131.869501 234.58565 
L 133.29889 240.728964 
L 134.490048 244.855295 
L 135.442974 247.466177 
L 136.3959 249.442666 
L 137.110594 250.501861 
L 137.825289 251.196232 
L 138.539983 251.526563 
L 139.016446 251.546024 
L 139.492909 251.406604 
L 140.207604 250.904065 
L 140.922298 250.05726 
L 141.636993 248.876986 
L 142.589919 246.807081 
L 143.542845 244.203292 
L 144.734002 240.261454 
L 146.163391 234.646235 
L 147.831012 227.101585 
L 149.975096 216.308143 
L 156.407346 183.172591 
L 158.074967 175.926308 
L 159.504356 170.549183 
L 160.933745 166.069375 
L 162.124903 163.089157 
L 163.077829 161.226292 
L 164.030755 159.841195 
L 164.745449 159.120328 
L 165.460144 158.673017 
L 166.174838 158.498185 
L 166.889533 158.592946 
L 167.604227 158.952652 
L 168.318922 159.570949 
L 169.271848 160.783563 
L 170.224774 162.418301 
L 171.415931 165.012642 
L 172.607089 168.1597 
L 174.036478 172.564096 
L 175.94233 179.274221 
L 178.562877 189.45726 
L 182.851044 206.202787 
L 184.756896 212.809461 
L 186.424517 217.831183 
L 187.853906 221.445366 
L 189.045063 223.910454 
L 190.236221 225.84251 
L 191.189147 226.988846 
L 192.142073 227.772832 
L 192.856767 228.121584 
L 193.571462 228.265946 
L 194.286156 228.207992 
L 195.000851 227.951125 
L 195.715545 227.500024 
L 196.668471 226.606806 
L 197.621397 225.396159 
L 198.812555 223.468232 
L 200.003713 221.123913 
L 201.433102 217.836985 
L 203.338954 212.820923 
L 205.9595 205.195662 
L 210.485899 191.976942 
L 212.391751 187.084978 
L 214.059372 183.38962 
L 215.488761 180.749088 
L 216.679918 178.963649 
L 217.871076 177.581129 
L 218.824002 176.775979 
L 219.776928 176.243094 
L 220.729854 175.983409 
L 221.68278 175.994594 
L 222.635706 176.271155 
L 223.588632 176.804553 
L 224.541558 177.583373 
L 225.732716 178.880297 
L 226.923873 180.505576 
L 228.353262 182.835296 
L 230.020883 185.981808 
L 232.403198 191.029113 
L 238.597217 204.504953 
L 240.503069 207.999723 
L 242.17069 210.579328 
L 243.600079 212.372343 
L 244.791236 213.543379 
L 245.982394 214.405005 
L 246.93532 214.865754 
L 247.888246 215.121618 
L 248.841172 215.173616 
L 249.794098 215.025169 
L 250.747024 214.682007 
L 251.938182 213.991513 
L 253.129339 213.029286 
L 254.558728 211.550705 
L 256.226349 209.442758 
L 258.132201 206.640073 
L 260.990979 201.964016 
L 265.279146 194.920014 
L 267.42323 191.83304 
L 269.09085 189.785921 
L 270.520239 188.331374 
L 271.949628 187.186287 
L 273.140786 186.48405 
L 274.331943 186.018945 
L 275.523101 185.793716 
L 276.714259 185.806605 
L 277.905416 186.051494 
L 279.096574 186.518127 
L 280.525963 187.350684 
L 281.955352 188.451135 
L 283.622972 190.023765 
L 285.767056 192.397659 
L 288.864066 196.222215 
L 292.914001 201.180029 
L 295.058085 203.464257 
L 296.963937 205.160828 
L 298.631557 206.331566 
L 300.060946 207.075786 
L 301.490336 207.567021 
L 302.919725 207.799711 
L 304.349114 207.775322 
L 305.778503 207.502098 
L 307.207892 206.994646 
L 308.875512 206.134071 
L 310.543133 205.023634 
L 312.687216 203.30763 
L 315.545995 200.704625 
L 320.787088 195.903432 
L 322.931171 194.2444 
L 324.837023 193.033549 
L 326.504644 192.217013 
L 328.172265 191.650167 
L 329.839885 191.344832 
L 331.269274 191.293035 
L 332.936895 191.471408 
L 334.604515 191.892096 
L 336.272136 192.531619 
L 338.177988 193.490998 
L 340.560303 194.95191 
L 344.372007 197.605206 
L 348.421943 200.342213 
L 350.804258 201.689485 
L 352.948342 202.6416 
L 354.854194 203.241889 
L 356.760046 203.590418 
L 358.427666 203.683472 
L 360.333518 203.552261 
L 362.23937 203.183426 
L 364.383454 202.517934 
L 366.765769 201.528055 
L 369.862779 199.984313 
L 376.533261 196.591886 
L 379.153808 195.557975 
L 381.297891 194.934032 
L 383.441975 194.540743 
L 385.586058 194.391205 
L 387.730142 194.483529 
L 389.874225 194.801616 
L 392.256541 195.384515 
L 395.115319 196.327556 
L 399.879949 198.188238 
L 404.168116 199.769994 
L 407.026894 200.588793 
L 409.647441 201.096384 
L 412.029756 201.327448 
L 414.412071 201.332388 
L 416.794386 201.121873 
L 419.414933 200.672653 
L 422.750174 199.852368 
L 426.085415 198.879939 
L 426.085415 198.879939 
" clip-path="url(#p63760de741)" style="fill: none; stroke: #0000ff; stroke-linecap: square"/>
   </g>
   <g id="line2d_75">
    <path d="M 44.915 122.309707 
L 45.867926 125.55412 
L 46.820852 129.598559 
L 48.01201 135.681157 
L 49.441399 144.298512 
L 51.109019 155.823528 
L 53.491334 174.135386 
L 58.970659 217.199458 
L 60.876511 230.170992 
L 62.3059 238.613863 
L 63.735289 245.739224 
L 64.926447 250.560967 
L 65.879373 253.640264 
L 66.832299 256.002613 
L 67.546993 257.295213 
L 68.261688 258.174029 
L 68.976382 258.639334 
L 69.452845 258.7212 
L 69.929308 258.622152 
L 70.405771 258.344284 
L 71.120466 257.59804 
L 71.835161 256.466338 
L 72.549855 254.962493 
L 73.502781 252.405773 
L 74.693939 248.38483 
L 75.885096 243.538496 
L 77.314485 236.789001 
L 79.220337 226.552582 
L 82.079115 209.6488 
L 85.89082 187.134404 
L 87.796672 177.066382 
L 89.464292 169.386868 
L 90.893681 163.837636 
L 92.084839 160.034587 
L 93.275996 157.034244 
L 94.228922 155.236427 
L 94.943617 154.247076 
L 95.658311 153.567909 
L 96.373006 153.198856 
L 97.087701 153.137771 
L 97.802395 153.380479 
L 98.51709 153.92083 
L 99.231784 154.750775 
L 100.18471 156.290542 
L 101.137636 158.299282 
L 102.328794 161.418794 
L 103.758183 165.955153 
L 105.425803 172.154333 
L 107.569887 181.160251 
L 114.955064 213.277267 
L 116.622684 219.185718 
L 118.052073 223.497911 
L 119.243231 226.487946 
L 120.434388 228.884332 
L 121.387314 230.353678 
L 122.340241 231.414343 
L 123.054935 231.938751 
L 123.76963 232.230593 
L 124.484324 232.291378 
L 125.199019 232.12414 
L 125.913713 231.733392 
L 126.628408 231.125079 
L 127.581334 229.988388 
L 128.53426 228.498953 
L 129.725417 226.179015 
L 131.154806 222.797471 
L 132.822427 218.167685 
L 134.966511 211.430403 
L 142.589919 186.655525 
L 144.257539 182.301048 
L 145.686928 179.144024 
L 146.878086 176.971907 
L 148.069244 175.249079 
L 149.02217 174.208566 
L 149.975096 173.47545 
L 150.928022 173.052348 
L 151.642716 172.937933 
L 152.357411 172.995524 
L 153.310337 173.33463 
L 154.263263 173.964187 
L 155.216189 174.870974 
L 156.407346 176.369285 
L 157.598504 178.237403 
L 159.027893 180.905446 
L 160.695514 184.497979 
L 163.077829 190.243885 
L 169.033616 204.97969 
L 170.939468 208.993225 
L 172.607089 211.972547 
L 174.036478 214.057717 
L 175.227636 215.431674 
L 176.418793 216.456299 
L 177.371719 217.017313 
L 178.324645 217.345919 
L 179.277571 217.44282 
L 180.230497 217.311453 
L 181.183423 216.957896 
L 182.136349 216.390748 
L 183.327507 215.398356 
L 184.518664 214.115674 
L 185.948054 212.237046 
L 187.615674 209.655073 
L 189.759758 205.884989 
L 197.621397 191.558337 
L 199.289018 189.143238 
L 200.718407 187.401342 
L 202.147796 186.002081 
L 203.338954 185.117568 
L 204.530111 184.499953 
L 205.721269 184.154063 
L 206.912426 184.079585 
L 208.103584 184.271194 
L 209.294741 184.718779 
L 210.485899 185.407745 
L 211.915288 186.526535 
L 213.344677 187.926632 
L 215.012298 189.854668 
L 217.156381 192.674742 
L 225.256253 203.702997 
L 227.162105 205.709803 
L 228.829725 207.121324 
L 230.259114 208.042956 
L 231.688503 208.680691 
L 232.879661 208.988873 
L 234.070818 209.093155 
L 235.261976 208.996645 
L 236.453133 208.706083 
L 237.882523 208.115796 
L 239.311912 207.284365 
L 240.979532 206.0488 
L 242.885384 204.353815 
L 245.505931 201.693868 
L 251.69995 195.271194 
L 253.844034 193.436537 
L 255.749886 192.115971 
L 257.417506 191.242179 
L 258.846895 190.720901 
L 260.276284 190.418086 
L 261.705673 190.335312 
L 263.135063 190.468275 
L 264.564452 190.807069 
L 266.232072 191.442102 
L 268.137924 192.444435 
L 270.282008 193.853848 
L 273.140786 196.034041 
L 279.096574 200.66451 
L 281.478889 202.182846 
L 283.384741 203.148452 
L 285.290593 203.852353 
L 286.958213 204.23537 
L 288.625834 204.394112 
L 290.293455 204.330578 
L 291.961075 204.0547 
L 293.866927 203.501811 
L 296.011011 202.620514 
L 298.631557 201.262353 
L 302.919725 198.716507 
L 306.731429 196.553591 
L 309.113744 195.433921 
L 311.257827 194.653951 
L 313.163679 194.173175 
L 315.069532 193.908031 
L 316.975384 193.862489 
L 318.881236 194.030074 
L 321.025319 194.452831 
L 323.407634 195.170469 
L 326.266412 196.286097 
L 336.510367 200.560361 
L 338.892682 201.203107 
L 341.274998 201.608691 
L 343.419081 201.755729 
L 345.563165 201.696311 
L 347.94548 201.403852 
L 350.566026 200.845735 
L 353.663036 199.950917 
L 364.383454 196.632328 
L 367.242232 196.11176 
L 369.862779 195.867007 
L 372.483325 195.854882 
L 375.103872 196.063996 
L 377.96265 196.508572 
L 381.774354 197.349765 
L 391.303615 199.585626 
L 394.638856 200.061964 
L 397.735865 200.263705 
L 400.832875 200.223054 
L 403.929885 199.9602 
L 407.741589 199.401207 
L 421.320785 197.169718 
L 424.894257 196.960053 
L 426.085415 196.944161 
L 426.085415 196.944161 
" clip-path="url(#p63760de741)" style="fill: none; stroke: #ff0000; stroke-linecap: square"/>
   </g>
   <g id="line2d_76">
    <path d="M 44.915 165.773917 
L 47.059084 128.879892 
L 48.726704 104.057612 
L 50.156093 86.138986 
L 51.347251 73.873478 
L 52.300177 65.930168 
L 53.253103 59.716089 
L 53.967797 56.214927 
L 54.682492 53.717754 
L 55.158955 52.6119 
L 55.635418 51.952042 
L 56.111881 51.735711 
L 56.588344 51.95914 
L 57.064807 52.617287 
L 57.54127 53.703861 
L 58.255965 56.120283 
L 58.970659 59.453227 
L 59.923585 65.259917 
L 60.876511 72.531525 
L 62.067669 83.504069 
L 63.497058 99.092407 
L 65.164678 119.989499 
L 67.308762 149.822382 
L 73.502781 238.028703 
L 75.170402 258.279165 
L 76.599791 273.387115 
L 78.02918 286.057717 
L 79.220337 294.56169 
L 80.173263 299.937235 
L 81.126189 304.000869 
L 81.840884 306.173651 
L 82.555578 307.592261 
L 83.032041 308.119662 
L 83.508505 308.314296 
L 83.984968 308.178892 
L 84.461431 307.717138 
L 84.937894 306.93366 
L 85.652588 305.167571 
L 86.367283 302.712688 
L 87.320209 298.414775 
L 88.273135 293.014567 
L 89.464292 284.846107 
L 90.893681 273.218049 
L 92.561302 257.603565 
L 94.705385 235.277305 
L 100.899405 169.089474 
L 102.805257 151.839734 
L 104.234646 140.743646 
L 105.425803 132.906912 
L 106.616961 126.474031 
L 107.569887 122.396122 
L 108.522813 119.300714 
L 109.237508 117.634781 
L 109.952202 116.534257 
L 110.428665 116.114327 
L 110.905128 115.944058 
L 111.381591 116.021473 
L 111.858054 116.343878 
L 112.334517 116.907871 
L 113.049212 118.197717 
L 113.763906 120.005196 
L 114.716832 123.185695 
L 115.669758 127.195597 
L 116.860916 133.276039 
L 118.290305 141.949421 
L 119.957925 153.616182 
L 122.102009 170.324085 
L 128.53426 221.709679 
L 130.20188 232.967756 
L 131.631269 241.329798 
L 132.822427 247.24516 
L 134.013584 252.110874 
L 134.966511 255.203919 
L 135.919437 257.561185 
L 136.634131 258.837868 
L 137.348826 259.690673 
L 138.06352 260.120201 
L 138.539983 260.172976 
L 139.016446 260.040793 
L 139.492909 259.725887 
L 140.207604 258.917096 
L 140.922298 257.714945 
L 141.875224 255.524558 
L 142.82815 252.699205 
L 144.019308 248.345424 
L 145.448697 242.053171 
L 147.116317 233.497397 
L 149.260401 221.123592 
L 156.407346 178.59566 
L 158.074967 170.446322 
L 159.504356 164.476183 
L 160.695514 160.318446 
L 161.886671 156.966924 
L 162.839597 154.895006 
L 163.792523 153.38014 
L 164.507218 152.613995 
L 165.221912 152.165646 
L 165.936607 152.033364 
L 166.651301 152.213329 
L 167.365996 152.699687 
L 168.08069 153.484619 
L 168.795385 154.558426 
L 169.748311 156.419422 
L 170.701237 158.741501 
L 171.892394 162.236182 
L 173.321784 167.190038 
L 174.989404 173.818659 
L 177.371719 184.355784 
L 183.089275 210.141129 
L 184.995127 217.488778 
L 186.424517 222.23702 
L 187.853906 226.211574 
L 189.045063 228.872337 
L 189.997989 230.548872 
L 190.950915 231.810304 
L 191.903841 232.649883 
L 192.618536 233.001565 
L 193.33323 233.116137 
L 194.047925 232.996362 
L 194.762619 232.646531 
L 195.477314 232.072411 
L 196.43024 230.970635 
L 197.383166 229.503767 
L 198.574324 227.194649 
L 199.765481 224.409654 
L 201.19487 220.528986 
L 203.100722 214.640662 
L 205.9595 204.912003 
L 210.009436 191.185563 
L 211.915288 185.471585 
L 213.582909 181.14436 
L 215.012298 178.043228 
L 216.203455 175.938863 
L 217.394613 174.301214 
L 218.347539 173.340051 
L 219.300465 172.695024 
L 220.253391 172.367528 
L 220.968085 172.328982 
L 221.68278 172.465391 
L 222.635706 172.913181 
L 223.588632 173.654275 
L 224.541558 174.674067 
L 225.732716 176.313615 
L 226.923873 178.320514 
L 228.353262 181.148332 
L 230.259114 185.483367 
L 232.879661 192.103775 
L 237.644291 204.214093 
L 239.550143 208.443553 
L 241.217764 211.626392 
L 242.647153 213.890647 
L 243.83831 215.413389 
L 245.029468 216.583463 
L 245.982394 217.256678 
L 246.93532 217.692422 
L 247.888246 217.890226 
L 248.841172 217.852454 
L 249.794098 217.58422 
L 250.747024 217.093269 
L 251.938182 216.182205 
L 253.129339 214.96435 
L 254.558728 213.140644 
L 256.226349 210.590375 
L 258.132201 207.251252 
L 261.22921 201.29735 
L 264.802683 194.498966 
L 266.946767 190.893163 
L 268.614387 188.49544 
L 270.043776 186.786602 
L 271.473165 185.435737 
L 272.664323 184.602028 
L 273.85548 184.043492 
L 275.046638 183.763662 
L 276.237796 183.760831 
L 277.428953 184.028213 
L 278.620111 184.554191 
L 279.811268 185.322657 
L 281.240657 186.536205 
L 282.908278 188.300407 
L 284.81413 190.681493 
L 287.434676 194.364166 
L 292.67577 201.847478 
L 294.819853 204.471478 
L 296.487474 206.189325 
L 297.916863 207.392321 
L 299.346252 208.320372 
L 300.775641 208.956976 
L 301.966799 209.258622 
L 303.157956 209.351544 
L 304.349114 209.239175 
L 305.540271 208.928663 
L 306.96966 208.309699 
L 308.399049 207.445292 
L 310.06667 206.167164 
L 311.972522 204.42021 
L 314.593069 201.687572 
L 320.548856 195.348035 
L 322.69294 193.444508 
L 324.598792 192.06475 
L 326.266412 191.142953 
L 327.695802 190.584632 
L 329.125191 190.249484 
L 330.55458 190.139808 
L 331.983969 190.251852 
L 333.413358 190.576089 
L 335.080978 191.202435 
L 336.748599 192.065373 
L 338.654451 193.290719 
L 341.274998 195.271012 
L 348.898406 201.272574 
L 351.042489 202.58904 
L 352.948342 203.502994 
L 354.615962 204.076846 
L 356.283583 204.425567 
L 357.951203 204.544344 
L 359.618824 204.436811 
L 361.286444 204.114623 
L 363.192296 203.508217 
L 365.33638 202.568983 
L 367.956927 201.147905 
L 377.724419 195.536724 
L 379.868502 194.693385 
L 381.774354 194.156548 
L 383.680206 193.838319 
L 385.586058 193.745042 
L 387.49191 193.872268 
L 389.635994 194.260413 
L 391.780078 194.874492 
L 394.400624 195.863676 
L 398.212328 197.570659 
L 403.21519 199.781468 
L 406.073968 200.786825 
L 408.456283 201.391078 
L 410.600367 201.7226 
L 412.74445 201.841508 
L 414.888534 201.750128 
L 417.270849 201.420164 
L 419.891396 200.821641 
L 423.226637 199.805845 
L 426.085415 198.823266 
L 426.085415 198.823266 
" clip-path="url(#p63760de741)" style="fill: none; stroke: #0000ff; stroke-linecap: square"/>
   </g>
   <g id="line2d_77">
    <path d="M 44.915 111.443654 
L 45.867926 115.611695 
L 47.059084 122.078063 
L 48.250241 129.795349 
L 49.67963 140.461778 
L 51.585482 156.523724 
L 54.44426 182.842003 
L 58.017733 215.523664 
L 59.923585 231.157762 
L 61.591206 243.094394 
L 63.020595 251.729333 
L 64.211752 257.65484 
L 65.164678 261.503795 
L 66.117604 264.52723 
L 66.832299 266.240913 
L 67.546993 267.474643 
L 68.261688 268.227303 
L 68.738151 268.462733 
L 69.214614 268.486648 
L 69.691077 268.301083 
L 70.16754 267.908674 
L 70.882235 266.939452 
L 71.596929 265.525542 
L 72.549855 262.976781 
L 73.502781 259.711701 
L 74.693939 254.704334 
L 76.123328 247.495318 
L 77.790948 237.723831 
L 79.935032 223.632002 
L 86.843746 176.866999 
L 88.511366 167.496839 
L 89.940755 160.596874 
L 91.131913 155.763128 
L 92.32307 151.836509 
L 93.275996 149.382715 
L 94.228922 147.558961 
L 94.943617 146.610418 
L 95.658311 146.022586 
L 96.373006 145.79403 
L 96.849469 145.839468 
L 97.564164 146.20007 
L 98.278858 146.90464 
L 98.993553 147.94334 
L 99.946479 149.827122 
L 100.899405 152.249779 
L 102.090562 155.975332 
L 103.519951 161.350744 
L 105.187572 168.649994 
L 107.331655 179.193684 
L 114.240369 214.286104 
L 115.90799 221.338614 
L 117.337379 226.539731 
L 118.528536 230.189593 
L 119.719694 233.161076 
L 120.67262 235.023692 
L 121.625546 236.41441 
L 122.340241 237.143238 
L 123.054935 237.601609 
L 123.76963 237.79048 
L 124.484324 237.712599 
L 125.199019 237.372459 
L 125.913713 236.776242 
L 126.866639 235.596657 
L 127.819565 233.998615 
L 129.010723 231.45452 
L 130.20188 228.361589 
L 131.631269 224.025721 
L 133.537121 217.409853 
L 136.157668 207.354081 
L 140.684067 189.925272 
L 142.589919 183.476424 
L 144.257539 178.605638 
L 145.686928 175.125726 
L 146.878086 172.773161 
L 148.069244 170.95197 
L 149.02217 169.891778 
L 149.975096 169.19061 
L 150.68979 168.901235 
L 151.404485 168.813501 
L 152.119179 168.924993 
L 152.833874 169.231999 
L 153.7868 169.936714 
L 154.739726 170.964971 
L 155.692652 172.298161 
L 156.883809 174.35987 
L 158.313198 177.347992 
L 159.980819 181.420415 
L 162.124903 187.322389 
L 169.271848 207.683701 
L 170.939468 211.600703 
L 172.368857 214.475841 
L 173.798247 216.838624 
L 174.989404 218.381427 
L 175.94233 219.322522 
L 176.895256 219.996323 
L 177.848182 220.400125 
L 178.801108 220.534482 
L 179.754034 220.403135 
L 180.70696 220.012903 
L 181.659886 219.373546 
L 182.851044 218.243338 
L 184.042201 216.773642 
L 185.47159 214.612288 
L 187.139211 211.632084 
L 189.283295 207.268071 
L 197.144934 190.594553 
L 198.812555 187.767617 
L 200.241944 185.722989 
L 201.671333 184.074486 
L 202.862491 183.026813 
L 204.053648 182.288721 
L 205.006574 181.925381 
L 205.9595 181.76444 
L 206.912426 181.803801 
L 207.865352 182.03903 
L 209.05651 182.59814 
L 210.247667 183.435085 
L 211.438825 184.52753 
L 212.868214 186.138145 
L 214.535835 188.363368 
L 216.679918 191.627511 
L 224.77979 204.463223 
L 226.44741 206.544602 
L 228.115031 208.260151 
L 229.54442 209.401722 
L 230.735577 210.10428 
L 231.926735 210.572578 
L 233.117892 210.803744 
L 234.30905 210.799357 
L 235.500207 210.565314 
L 236.691365 210.111614 
L 238.120754 209.29692 
L 239.550143 208.216367 
L 241.217764 206.668736 
L 243.361847 204.328316 
L 246.458857 200.550892 
L 250.508793 195.644192 
L 252.652876 193.379141 
L 254.558728 191.694001 
L 256.226349 190.528646 
L 257.655738 189.785565 
L 259.085127 189.292325 
L 260.514516 189.054631 
L 261.943905 189.071241 
L 263.373294 189.334196 
L 264.802683 189.829238 
L 266.470304 190.673153 
L 268.137924 191.765233 
L 270.282008 193.456298 
L 273.140786 196.0262 
L 278.381879 200.777421 
L 280.525963 202.423042 
L 282.431815 203.626261 
L 284.099435 204.439605 
L 285.767056 205.006521 
L 287.434676 205.315071 
L 289.102297 205.363035 
L 290.769918 205.157648 
L 292.437538 204.715018 
L 294.34339 203.949889 
L 296.487474 202.81522 
L 299.10802 201.148429 
L 307.446123 195.616484 
L 309.590207 194.554226 
L 311.496059 193.837423 
L 313.401911 193.361242 
L 315.307763 193.138563 
L 317.213615 193.169883 
L 319.119467 193.443774 
L 321.025319 193.93789 
L 323.169403 194.717113 
L 325.789949 195.909885 
L 331.031043 198.625276 
L 334.366284 200.217078 
L 336.98683 201.219311 
L 339.130914 201.816301 
L 341.274998 202.183457 
L 343.419081 202.309192 
L 345.563165 202.196698 
L 347.707248 201.863105 
L 350.089563 201.269304 
L 352.948342 200.322553 
L 358.427666 198.200149 
L 362.23937 196.85203 
L 365.098149 196.080331 
L 367.480464 195.651553 
L 369.862779 195.441467 
L 372.245094 195.454682 
L 374.627409 195.679347 
L 377.486187 196.189649 
L 380.821428 197.028177 
L 391.303615 199.863451 
L 394.162393 200.326409 
L 397.021171 200.559382 
L 399.879949 200.551561 
L 402.738727 200.317783 
L 406.073968 199.810437 
L 410.838598 198.821261 
L 417.509081 197.451384 
L 421.082553 196.957956 
L 424.179563 196.741383 
L 426.085415 196.71355 
L 426.085415 196.71355 
" clip-path="url(#p63760de741)" style="fill: none; stroke: #ff0000; stroke-linecap: square"/>
   </g>
   <g id="line2d_78">
    <path d="M 44.915 154.907864 
L 46.820852 117.893396 
L 48.488473 89.743027 
L 49.917862 69.469904 
L 51.109019 55.63178 
L 52.061945 46.700439 
L 53.014871 39.74613 
L 53.729566 35.854863 
L 54.44426 33.109722 
L 54.920723 31.917334 
L 55.397186 31.233561 
L 55.873649 31.055385 
L 56.111881 31.154546 
L 56.588344 31.725872 
L 57.064807 32.788837 
L 57.54127 34.335376 
L 58.255965 37.540901 
L 58.970659 41.775605 
L 59.923585 48.946466 
L 60.876511 57.748855 
L 62.067669 70.836338 
L 63.497058 89.198728 
L 65.164678 113.554588 
L 67.546993 151.937543 
L 72.788087 237.502885 
L 74.693939 264.468749 
L 76.123328 282.020467 
L 77.552717 296.833489 
L 78.743874 306.857708 
L 79.6968 313.259621 
L 80.649726 318.171176 
L 81.364421 320.85878 
L 82.079115 322.686217 
L 82.555578 323.426681 
L 83.032041 323.786576 
L 83.508505 323.768616 
L 83.984968 323.376613 
L 84.461431 322.615459 
L 84.937894 321.491098 
L 85.652588 319.139064 
L 86.367283 316.013408 
L 87.320209 310.699187 
L 88.273135 304.156993 
L 89.464292 294.408853 
L 90.893681 280.706353 
L 92.561302 262.502393 
L 94.943617 233.7688 
L 100.18471 169.559755 
L 102.090562 149.275449 
L 103.519951 136.053399 
L 104.94934 124.876009 
L 106.140498 117.295832 
L 107.093424 112.441992 
L 108.04635 108.704162 
L 108.761044 106.647091 
L 109.475739 105.234823 
L 109.952202 104.651643 
L 110.428665 104.353956 
L 110.905128 104.339809 
L 111.381591 104.606424 
L 111.858054 105.150211 
L 112.572749 106.475796 
L 113.287443 108.39697 
L 114.240369 111.846937 
L 115.193295 116.255549 
L 116.384453 123.004894 
L 117.813842 132.708123 
L 119.481462 145.845173 
L 121.625546 164.770698 
L 128.53426 227.458202 
L 130.20188 239.994177 
L 131.631269 249.216313 
L 132.822427 255.669612 
L 134.013584 260.904225 
L 134.966511 264.168793 
L 135.919437 266.587782 
L 136.634131 267.839521 
L 137.348826 268.60748 
L 137.825289 268.851571 
L 138.301752 268.882901 
L 138.778215 268.703493 
L 139.254678 268.31598 
L 139.969372 267.351732 
L 140.684067 265.939962 
L 141.636993 263.389695 
L 142.589919 260.118237 
L 143.781076 255.096316 
L 145.210465 247.860791 
L 146.878086 238.04719 
L 149.02217 223.886543 
L 155.930883 176.845018 
L 157.598504 167.409494 
L 159.027893 160.457715 
L 160.219051 155.584734 
L 161.410208 151.623148 
L 162.363134 149.144819 
L 163.31606 147.299839 
L 164.030755 146.337662 
L 164.745449 145.738226 
L 165.460144 145.500143 
L 165.936607 145.5404 
L 166.651301 145.895002 
L 167.365996 146.595704 
L 168.08069 147.632661 
L 169.033616 149.517391 
L 169.986542 151.944653 
L 171.1777 155.680909 
L 172.607089 161.075965 
L 174.27471 168.406555 
L 176.418793 179.001606 
L 183.327507 214.301172 
L 184.995127 221.40278 
L 186.424517 226.642857 
L 187.615674 230.322252 
L 188.806832 233.320087 
L 189.759758 235.201216 
L 190.712684 236.607973 
L 191.427378 237.347121 
L 192.142073 237.814293 
L 192.856767 238.01041 
L 193.571462 237.938194 
L 194.286156 237.602124 
L 195.000851 237.008379 
L 195.715545 236.164771 
L 196.668471 234.667689 
L 197.621397 232.769462 
L 198.812555 229.879359 
L 200.241944 225.743015 
L 201.909565 220.163644 
L 204.053648 212.153053 
L 210.72413 186.587797 
L 212.391751 181.243012 
L 213.82114 177.293376 
L 215.250529 174.019882 
L 216.441687 171.857374 
L 217.394613 170.517822 
L 218.347539 169.535394 
L 219.300465 168.91468 
L 220.015159 168.686805 
L 220.729854 168.661091 
L 221.444548 168.834701 
L 222.159243 169.203504 
L 223.112169 169.989411 
L 224.065095 171.096628 
L 225.256253 172.90247 
L 226.44741 175.134623 
L 227.876799 178.302601 
L 229.54442 182.545889 
L 231.926735 189.297899 
L 237.644291 205.84659 
L 239.550143 210.569672 
L 241.217764 214.08732 
L 242.647153 216.559102 
L 243.83831 218.196077 
L 245.029468 219.426116 
L 245.982394 220.10835 
L 246.93532 220.519089 
L 247.888246 220.658834 
L 248.841172 220.531292 
L 249.794098 220.14327 
L 250.747024 219.50453 
L 251.69995 218.627619 
L 252.891108 217.219819 
L 254.320497 215.119766 
L 255.988117 212.191708 
L 257.893969 208.367108 
L 260.990979 201.564767 
L 264.564452 193.819963 
L 266.708535 189.723213 
L 268.376156 187.005266 
L 269.805545 185.073124 
L 270.996702 183.774883 
L 272.18786 182.778579 
L 273.379017 182.095176 
L 274.331943 181.777244 
L 275.28487 181.662571 
L 276.237796 181.748492 
L 277.190722 182.030015 
L 278.381879 182.645794 
L 279.573037 183.537126 
L 281.002426 184.93738 
L 282.431815 186.652796 
L 284.337667 189.334689 
L 286.719982 193.116929 
L 292.67577 202.788429 
L 294.581622 205.414826 
L 296.249242 207.360884 
L 297.678631 208.719871 
L 299.10802 209.764071 
L 300.299178 210.380213 
L 301.490336 210.759128 
L 302.681493 210.899668 
L 303.872651 210.805119 
L 305.063808 210.483035 
L 306.254966 209.944987 
L 307.684355 209.036013 
L 309.113744 207.870889 
L 310.781364 206.239458 
L 312.925448 203.8185 
L 316.737152 199.08867 
L 319.834162 195.378165 
L 321.978245 193.13624 
L 323.645866 191.669535 
L 325.313486 190.494593 
L 326.742876 189.744523 
L 328.172265 189.24559 
L 329.601654 189.003612 
L 331.031043 189.017417 
L 332.460432 189.27908 
L 333.889821 189.77433 
L 335.557441 190.620317 
L 337.225062 191.716299 
L 339.369146 193.414739 
L 342.227924 195.997678 
L 347.469017 200.77729 
L 349.6131 202.434231 
L 351.518952 203.646557 
L 353.186573 204.466809 
L 354.854194 205.039414 
L 356.521814 205.352275 
L 357.951203 205.41168 
L 359.618824 205.243203 
L 361.286444 204.833133 
L 362.954065 204.204545 
L 364.859917 203.257532 
L 367.242232 201.811044 
L 371.053936 199.176178 
L 375.103872 196.449754 
L 377.486187 195.103739 
L 379.630271 194.149644 
L 381.536123 193.545321 
L 383.441975 193.190898 
L 385.109595 193.091434 
L 387.015447 193.21425 
L 388.921299 193.573971 
L 391.065383 194.228918 
L 393.447698 195.207463 
L 396.544708 196.738341 
L 403.21519 200.115863 
L 405.835737 201.149744 
L 407.97982 201.776055 
L 410.123904 202.173621 
L 412.267987 202.329008 
L 414.412071 202.243691 
L 416.556155 201.933302 
L 418.93847 201.359179 
L 421.797248 200.426094 
L 426.085415 198.766594 
L 426.085415 198.766594 
" clip-path="url(#p63760de741)" style="fill: none; stroke: #0000ff; stroke-linecap: square"/>
   </g>
   <g id="line2d_79">
    <path d="M 44.915 100.577602 
L 45.867926 105.669271 
L 47.059084 113.428763 
L 48.488473 124.542766 
L 50.156093 139.543628 
L 52.300177 161.093701 
L 58.970659 229.940366 
L 60.63828 244.349042 
L 62.067669 255.002377 
L 63.258826 262.499956 
L 64.449984 268.626782 
L 65.40291 272.486957 
L 66.355836 275.391032 
L 67.07053 276.931856 
L 67.785225 277.923714 
L 68.261688 278.280578 
L 68.738151 278.395419 
L 69.214614 278.270304 
L 69.691077 277.907994 
L 70.16754 277.311929 
L 70.882235 275.988698 
L 71.596929 274.165457 
L 72.549855 270.991069 
L 73.502781 267.017629 
L 74.693939 261.023839 
L 76.123328 252.510975 
L 77.790948 241.101591 
L 79.935032 224.816905 
L 86.129051 176.685751 
L 88.034903 164.181555 
L 89.464292 156.152312 
L 90.65545 150.492127 
L 91.846607 145.856927 
L 92.799533 142.928063 
L 93.752459 140.715254 
L 94.467154 139.533164 
L 95.181848 138.76265 
L 95.658311 138.477262 
L 96.134775 138.373458 
L 96.611238 138.449742 
L 97.087701 138.704092 
L 97.802395 139.413822 
L 98.51709 140.507761 
L 99.231784 141.972864 
L 100.18471 144.476883 
L 101.137636 147.570997 
L 102.328794 152.194182 
L 103.758183 158.708137 
L 105.425803 167.379525 
L 107.808118 181.094155 
L 113.049212 211.834443 
L 114.955064 221.574987 
L 116.622684 228.904827 
L 118.052073 234.118978 
L 119.243231 237.62535 
L 120.196157 239.847244 
L 121.149083 241.532877 
L 121.863778 242.439281 
L 122.578472 243.037123 
L 123.293167 243.326993 
L 124.007861 243.311536 
L 124.722556 242.9954 
L 125.43725 242.38518 
L 126.151945 241.489339 
L 127.104871 239.868549 
L 128.057797 237.787334 
L 129.248954 234.59029 
L 130.678343 229.981432 
L 132.345964 223.727518 
L 134.490048 214.699592 
L 141.398761 184.686486 
L 143.066382 178.661863 
L 144.495771 174.221412 
L 145.686928 171.107428 
L 146.878086 168.574415 
L 147.831012 166.988543 
L 148.783938 165.806562 
L 149.736864 165.034503 
L 150.451559 164.725285 
L 151.166253 164.645964 
L 151.880948 164.79365 
L 152.595642 165.163974 
L 153.310337 165.751141 
L 154.263263 166.858779 
L 155.216189 168.318513 
L 156.407346 170.600969 
L 157.836735 173.937944 
L 159.504356 178.517769 
L 161.64844 185.196665 
L 169.271848 209.855645 
L 170.939468 214.208181 
L 172.368857 217.370342 
L 173.560015 219.551302 
L 174.751173 221.286838 
L 175.704099 222.340082 
L 176.657025 223.087997 
L 177.609951 223.52775 
L 178.562877 223.660225 
L 179.277571 223.560511 
L 180.230497 223.16822 
L 181.183423 222.489394 
L 182.136349 221.537763 
L 183.327507 219.99029 
L 184.518664 218.081333 
L 185.948054 215.376033 
L 187.853906 211.207209 
L 190.474452 204.807257 
L 195.239082 193.019044 
L 197.144934 188.874578 
L 198.812555 185.741372 
L 200.241944 183.500442 
L 201.433102 181.983486 
L 202.624259 180.806986 
L 203.577185 180.120114 
L 204.530111 179.663475 
L 205.483037 179.437928 
L 206.435963 179.441576 
L 207.388889 179.669835 
L 208.341815 180.115551 
L 209.532973 180.963653 
L 210.72413 182.112674 
L 212.15352 183.848027 
L 213.82114 186.290496 
L 215.726992 189.505166 
L 218.58577 194.815147 
L 222.635706 202.304953 
L 224.77979 205.782193 
L 226.44741 208.08629 
L 227.876799 209.721985 
L 229.306188 211.008121 
L 230.497346 211.795385 
L 231.688503 212.315033 
L 232.879661 212.564065 
L 234.070818 212.544557 
L 235.261976 212.2635 
L 236.453133 211.732549 
L 237.644291 210.967691 
L 239.07368 209.769394 
L 240.741301 208.037057 
L 242.647153 205.708856 
L 245.267699 202.121842 
L 250.508793 194.871501 
L 252.652876 192.342866 
L 254.320497 190.69368 
L 255.749886 189.543756 
L 257.179275 188.662114 
L 258.608664 188.064223 
L 259.799821 187.788373 
L 260.990979 187.715012 
L 262.182136 187.840497 
L 263.611526 188.243137 
L 265.040915 188.902691 
L 266.470304 189.794063 
L 268.137924 191.086031 
L 270.282008 193.058748 
L 273.379017 196.272825 
L 277.905416 200.952286 
L 280.0495 202.854765 
L 281.955352 204.255774 
L 283.622972 205.211851 
L 285.290593 205.888786 
L 286.719982 206.235343 
L 288.149371 206.362973 
L 289.57876 206.274759 
L 291.008149 205.979421 
L 292.67577 205.391969 
L 294.34339 204.571979 
L 296.249242 203.398514 
L 298.869789 201.48993 
L 306.96966 195.337606 
L 309.113744 194.102758 
L 311.019596 193.261088 
L 312.687216 192.747502 
L 314.354837 192.454086 
L 316.022458 192.383833 
L 317.690078 192.531596 
L 319.357699 192.884556 
L 321.263551 193.513563 
L 323.407634 194.461611 
L 326.028181 195.870052 
L 334.842747 200.849231 
L 337.225062 201.816355 
L 339.369146 202.433523 
L 341.274998 202.758223 
L 343.18085 202.864636 
L 345.086702 202.756333 
L 347.230785 202.394998 
L 349.374869 201.811795 
L 351.995416 200.862942 
L 355.80712 199.212562 
L 361.048213 196.965696 
L 363.906991 195.99888 
L 366.289306 195.421871 
L 368.671621 195.087481 
L 370.815705 195.004684 
L 373.19802 195.149794 
L 375.580335 195.522086 
L 378.439113 196.214126 
L 382.250817 197.40548 
L 389.159531 199.613194 
L 392.256541 200.336241 
L 394.877087 200.728119 
L 397.497634 200.892556 
L 400.11818 200.827314 
L 402.976958 200.515841 
L 406.073968 199.949522 
L 410.600367 198.868183 
L 416.794386 197.402716 
L 420.129627 196.840061 
L 423.226637 196.543237 
L 426.085415 196.482939 
L 426.085415 196.482939 
" clip-path="url(#p63760de741)" style="fill: none; stroke: #ff0000; stroke-linecap: square"/>
   </g>
   <g id="patch_3">
    <path d="M 44.915 329.68 
L 44.915 25.2 
" style="fill: none; stroke: #000000; stroke-width: 0.8; stroke-linejoin: miter; stroke-linecap: square"/>
   </g>
   <g id="patch_4">
    <path d="M 37.291592 198.372074 
L 433.708823 198.372074 
" style="fill: none; stroke: #000000; stroke-width: 0.8; stroke-linejoin: miter; stroke-linecap: square"/>
   </g>
   <g id="legend_1">
    <g id="patch_5">
     <path d="M 396.108823 64.596875 
L 430.708823 64.596875 
L 430.708823 32.2 
L 396.108823 32.2 
z
" style="fill: #4c4c4c; opacity: 0.5; stroke: #4c4c4c; stroke-linejoin: miter"/>
    </g>
    <g id="patch_6">
     <path d="M 394.108823 62.596875 
L 428.708823 62.596875 
L 428.708823 30.2 
L 394.108823 30.2 
z
" style="fill: #ffffff; stroke: #cccccc; stroke-linejoin: miter"/>
    </g>
    <g id="line2d_80">
     <path d="M 403.108823 40.298438 
L 397.608823 40.298438 
" style="fill: none; stroke: #0000ff; stroke-linecap: square"/>
    </g>
    <g id="text_16">
     <!-- $x(t)$ -->
     <g style="fill: #0000ff" transform="translate(405.608823 43.798438) scale(0.1 -0.1)">
      <use xlink:href="#Cmmi10-78"/>
      <use xlink:href="#Cmr10-28" transform="translate(57.080078 0)"/>
      <use xlink:href="#Cmmi10-74" transform="translate(95.898438 0)"/>
      <use xlink:href="#Cmr10-29" transform="translate(131.982422 0)"/>
     </g>
    </g>
    <g id="line2d_81">
     <path d="M 403.108823 50.596875 
L 397.608823 50.596875 
" style="fill: none; stroke: #ff0000; stroke-linecap: square"/>
    </g>
    <g id="text_17">
     <!-- $v(t)$ -->
     <g style="fill: #ff0000" transform="translate(405.608823 54.096875) scale(0.1 -0.1)">
      <use xlink:href="#Cmmi10-76"/>
      <use xlink:href="#Cmr10-28" transform="translate(48.388672 0)"/>
      <use xlink:href="#Cmmi10-74" transform="translate(87.207031 0)"/>
      <use xlink:href="#Cmr10-29" transform="translate(123.291016 0)"/>
     </g>
    </g>
   </g>
  </g>
 </g>
 <defs>
  <clipPath id="p63760de741">
   <rect x="37.291592" y="25.2" width="396.417231" height="304.48"/>
  </clipPath>
 </defs>
</svg>
